{"accessors":[{"bufferView":0,"componentType":5122,"count":480,"max":[5629.0,32767.0,28317.0],"min":[-2993.0,-11477.0,17965.0],"normalized":true,"type":"VEC3"},{"bufferView":1,"componentType":5120,"count":480,"normalized":true,"type":"VEC3"},{"bufferView":2,"componentType":5123,"count":660,"type":"SCALAR"},{"bufferView":3,"componentType":5122,"count":1712,"max":[11589.0,-18509.0,22432.0],"min":[-14591.0,-32460.0,-1108.0],"normalized":true,"type":"VEC3"},{"bufferView":4,"componentType":5120,"count":1712,"normalized":true,"type":"VEC3"},{"bufferView":5,"componentType":5123,"count":2406,"type":"SCALAR"},{"bufferView":6,"componentType":5122,"count":4100,"max":[17710.0,-27619.0,18668.0],"min":[-3305.0,-32767.0,-17626.0],"normalized":true,"type":"VEC3"},{"bufferView":7,"componentType":5120,"count":4100,"normalized":true,"type":"VEC3"},{"bufferView":8,"componentType":5123,"count":6780,"type":"SCALAR"},{"bufferView":9,"componentType":5122,"count":1012,"max":[9335.0,-24801.0,7490.0],"min":[-845.0,-30780.0,3384.0],"normalized":true,"type":"VEC3"},{"bufferView":10,"componentType":5120,"count":1012,"normalized":true,"type":"VEC3"},{"bufferView":11,"componentType":5123,"count":1518,"type":"SCALAR"},{"bufferView":12,"componentType":5122,"count":2106,"max":[32767.0,19846.0,32767.0],"min":[-32767.0,575.0,-32767.0],"normalized":true,"type":"VEC3"},{"bufferView":13,"componentType":5120,"count":2106,"normalized":true,"type":"VEC3"},{"bufferView":14,"componentType":5123,"count":3744,"type":"SCALAR"},{"bufferView":15,"componentType":5122,"count":182,"max":[8956.0,-23207.0,18754.0],"min":[-2402.0,-27876.0,3815.0],"normalized":true,"type":"VEC3"},{"bufferView":16,"componentType":5120,"count":182,"normalized":true,"type":"VEC3"},{"bufferView":17,"componentType":5123,"count":288,"type":"SCALAR"},{"bufferView":18,"componentType":5122,"count":294,"max":[5629.0,32767.0,28249.0],"min":[-2993.0,-11453.0,17965.0],"normalized":true,"type":"VEC3"},{"bufferView":19,"componentType":5120,"count":294,"normalized":true,"type":"VEC3"},{"bufferView":20,"componentType":5123,"count":294,"type":"SCALAR"},{"bufferView":21,"componentType":5122,"count":1047,"max":[11493.0,-18579.0,22432.0],"min":[-14489.0,-32374.0,-1021.0],"normalized":true,"type":"VEC3"},{"bufferView":22,"componentType":5120,"count":1047,"normalized":true,"type":"VEC3"},{"bufferView":23,"componentType":5123,"count":1047,"type":"SCALAR"},{"bufferView":24,"componentType":5122,"count":3063,"max":[17705.0,-27614.0,18668.0],"min":[-3305.0,-32767.0,-17622.0],"normalized":true,"type":"VEC3"},{"bufferView":25,"componentType":5120,"count":3063,"normalized":true,"type":"VEC3"},{"bufferView":26,"componentType":5123,"count":3063,"type":"SCALAR"},{"bufferView":27,"componentType":5122,"count":681,"max":[9335.0,-24792.0,7490.0],"min":[-845.0,-30778.0,3384.0],"normalized":true,"type":"VEC3"},{"bufferView":28,"componentType":5120,"count":681,"normalized":true,"type":"VEC3"},{"bufferView":29,"componentType":5123,"count":681,"type":"SCALAR"},{"bufferView":30,"componentType":5122,"count":1869,"max":[32767.0,19903.0,32767.0],"min":[-32767.0,747.0,-32767.0],"normalized":true,"type":"VEC3"},{"bufferView":31,"componentType":5120,"count":1869,"normalized":true,"type":"VEC3"},{"bufferView":32,"componentType":5123,"count":1869,"type":"SCALAR"},{"bufferView":33,"componentType":5122,"count":138,"max":[8834.0,-23196.0,18754.0],"min":[-2402.0,-27870.0,3976.0],"normalized":true,"type":"VEC3"},{"bufferView":34,"componentType":5120,"count":138,"normalized":true,"type":"VEC3"},{"bufferView":35,"componentType":5123,"count":138,"type":"SCALAR"},{"bufferView":36,"componentType":5122,"count":84,"max":[5534.0,32767.0,28267.0],"min":[-2927.0,-10777.0,18065.0],"normalized":true,"type":"VEC3"},{"bufferView":37,"componentType":5120,"count":84,"normalized":true,"type":"VEC3"},{"bufferView":38,"componentType":5123,"count":84,"type":"SCALAR"},{"bufferView":39,"componentType":5122,"count":1110,"max":[32767.0,20501.0,32767.0],"min":[-32767.0,-32352.0,-32767.0],"normalized":true,"type":"VEC3"},{"bufferView":40,"componentType":5120,"count":1110,"normalized":true,"type":"VEC3"},{"bufferView":41,"componentType":5123,"count":1110,"type":"SCALAR"},{"bufferView":42,"componentType":5122,"count":906,"max":[17745.0,-27566.0,18650.0],"min":[-3336.0,-32767.0,-18014.0],"normalized":true,"type":"VEC3"},{"bufferView":43,"componentType":5120,"count":906,"normalized":true,"type":"VEC3"},{"bufferView":44,"componentType":5123,"count":906,"type":"SCALAR"},{"bufferView":45,"componentType":5122,"count":213,"max":[32767.0,32767.0,32767.0],"min":[-32767.0,-32353.0,-32767.0],"normalized":true,"type":"VEC3"},{"bufferView":46,"componentType":5120,"count":213,"normalized":true,"type":"VEC3"},{"bufferView":47,"componentType":5123,"count":213,"type":"SCALAR"},{"bufferView":48,"componentType":5122,"count":171,"max":[17643.0,-27700.0,21934.0],"min":[-8094.0,-32767.0,-15212.0],"normalized":true,"type":"VEC3"},{"bufferView":49,"componentType":5120,"count":171,"normalized":true,"type":"VEC3"},{"bufferView":50,"componentType":5123,"count":171,"type":"SCALAR"},{"bufferView":51,"componentType":5122,"count":1568,"max":[10678.0,-32129.0,-1190.0],"min":[-969.0,-32150.0,-32767.0],"normalized":true,"type":"VEC3"},{"bufferView":52,"componentType":5120,"count":1568,"normalized":true,"type":"VEC3"},{"bufferView":53,"componentType":5123,"count":2604,"type":"SCALAR"},{"bufferView":54,"componentType":5122,"count":384,"max":[26819.0,-2484.0,-7120.0],"min":[-14882.0,-9179.0,-14385.0],"normalized":true,"type":"VEC3"},{"bufferView":55,"componentType":5120,"count":384,"normalized":true,"type":"VEC3"},{"bufferView":56,"componentType":5123,"count":528,"type":"SCALAR"},{"bufferView":57,"componentType":5122,"count":43514,"max":[32767.0,18188.0,32767.0],"min":[-32767.0,-29987.0,-17883.0],"normalized":true,"type":"VEC3"},{"bufferView":58,"componentType":5120,"count":43514,"normalized":true,"type":"VEC3"},{"bufferView":59,"componentType":5123,"count":62766,"type":"SCALAR"},{"bufferView":60,"componentType":5122,"count":40,"max":[32605.0,18044.0,21304.0],"min":[-32605.0,-198.0,-17770.0],"normalized":true,"type":"VEC3"},{"bufferView":61,"componentType":5120,"count":40,"normalized":true,"type":"VEC3"},{"bufferView":62,"componentType":5123,"count":60,"type":"SCALAR"},{"bufferView":63,"componentType":5122,"count":4164,"max":[31428.0,18044.0,19452.0],"min":[-31428.0,-29838.0,-15919.0],"normalized":true,"type":"VEC3"},{"bufferView":64,"componentType":5120,"count":4164,"normalized":true,"type":"VEC3"},{"bufferView":65,"componentType":5123,"count":6000,"type":"SCALAR"},{"bufferView":66,"componentType":5122,"count":1248,"max":[30991.0,-2955.0,19270.0],"min":[-30991.0,-29838.0,-15918.0],"normalized":true,"type":"VEC3"},{"bufferView":67,"componentType":5120,"count":1248,"normalized":true,"type":"VEC3"},{"bufferView":68,"componentType":5123,"count":1716,"type":"SCALAR"},{"bufferView":69,"componentType":5122,"count":848,"max":[29718.0,27641.0,31345.0],"min":[-30019.0,-32767.0,-14890.0],"normalized":true,"type":"VEC3"},{"bufferView":70,"componentType":5120,"count":848,"normalized":true,"type":"VEC3"},{"bufferView":71,"componentType":5123,"count":1296,"type":"SCALAR"},{"bufferView":72,"componentType":5122,"count":624,"max":[27532.0,-8744.0,-6563.0],"min":[-16846.0,-30549.0,-16223.0],"normalized":true,"type":"VEC3"},{"bufferView":73,"componentType":5120,"count":624,"normalized":true,"type":"VEC3"},{"bufferView":74,"componentType":5123,"count":1002,"type":"SCALAR"},{"bufferView":75,"componentType":5122,"count":1200,"max":[32672.0,32767.0,32594.0],"min":[-32669.0,-14587.0,-18023.0],"normalized":true,"type":"VEC3"},{"bufferView":76,"componentType":5120,"count":1200,"normalized":true,"type":"VEC3"},{"bufferView":77,"componentType":5121,"count":1200,"normalized":true,"type":"VEC4"},{"bufferView":78,"componentType":5123,"count":1824,"type":"SCALAR"},{"bufferView":79,"componentType":5122,"count":1209,"max":[10681.0,-32129.0,-1185.0],"min":[-967.0,-32150.0,-32767.0],"normalized":true,"type":"VEC3"},{"bufferView":80,"componentType":5120,"count":1209,"normalized":true,"type":"VEC3"},{"bufferView":81,"componentType":5123,"count":1209,"type":"SCALAR"},{"bufferView":82,"componentType":5122,"count":27501,"max":[32767.0,18188.0,32767.0],"min":[-32767.0,-30494.0,-17876.0],"normalized":true,"type":"VEC3"},{"bufferView":83,"componentType":5120,"count":27501,"normalized":true,"type":"VEC3"},{"bufferView":84,"componentType":5123,"count":27501,"type":"SCALAR"},{"bufferView":85,"componentType":5122,"count":24,"max":[32599.0,17952.0,21230.0],"min":[-32599.0,-198.0,-17769.0],"normalized":true,"type":"VEC3"},{"bufferView":86,"componentType":5120,"count":24,"normalized":true,"type":"VEC3"},{"bufferView":87,"componentType":5123,"count":24,"type":"SCALAR"},{"bufferView":88,"componentType":5122,"count":2664,"max":[31443.0,18044.0,19433.0],"min":[-31443.0,-29799.0,-15916.0],"normalized":true,"type":"VEC3"},{"bufferView":89,"componentType":5120,"count":2664,"normalized":true,"type":"VEC3"},{"bufferView":90,"componentType":5123,"count":2664,"type":"SCALAR"},{"bufferView":91,"componentType":5122,"count":732,"max":[30978.0,-2994.0,19280.0],"min":[-30978.0,-29799.0,-15859.0],"normalized":true,"type":"VEC3"},{"bufferView":92,"componentType":5120,"count":732,"normalized":true,"type":"VEC3"},{"bufferView":93,"componentType":5123,"count":732,"type":"SCALAR"},{"bufferView":94,"componentType":5122,"count":600,"max":[29732.0,27563.0,31279.0],"min":[-29974.0,-32767.0,-14842.0],"normalized":true,"type":"VEC3"},{"bufferView":95,"componentType":5120,"count":600,"normalized":true,"type":"VEC3"},{"bufferView":96,"componentType":5123,"count":600,"type":"SCALAR"},{"bufferView":97,"componentType":5122,"count":798,"max":[32688.0,32767.0,32556.0],"min":[-32653.0,-14357.0,-17773.0],"normalized":true,"type":"VEC3"},{"bufferView":98,"componentType":5120,"count":798,"normalized":true,"type":"VEC3"},{"bufferView":99,"componentType":5121,"count":798,"normalized":true,"type":"VEC4"},{"bufferView":100,"componentType":5123,"count":798,"type":"SCALAR"},{"bufferView":101,"componentType":5122,"count":8499,"max":[32757.0,27788.0,32767.0],"min":[-32767.0,-32767.0,-32767.0],"normalized":true,"type":"VEC3"},{"bufferView":102,"componentType":5120,"count":8499,"normalized":true,"type":"VEC3"},{"bufferView":103,"componentType":5123,"count":8499,"type":"SCALAR"},{"bufferView":104,"componentType":5122,"count":846,"max":[30857.0,18247.0,19427.0],"min":[-31103.0,-29833.0,-15917.0],"normalized":true,"type":"VEC3"},{"bufferView":105,"componentType":5120,"count":846,"normalized":true,"type":"VEC3"},{"bufferView":106,"componentType":5123,"count":846,"type":"SCALAR"},{"bufferView":107,"componentType":5122,"count":234,"max":[32767.0,32767.0,32401.0],"min":[-32682.0,-13862.0,-17422.0],"normalized":true,"type":"VEC3"},{"bufferView":108,"componentType":5120,"count":234,"normalized":true,"type":"VEC3"},{"bufferView":109,"componentType":5121,"count":234,"normalized":true,"type":"VEC4"},{"bufferView":110,"componentType":5123,"count":234,"type":"SCALAR"},{"bufferView":111,"componentType":5122,"count":1722,"max":[32580.0,32767.0,32767.0],"min":[-31651.0,-32767.0,-32767.0],"normalized":true,"type":"VEC3"},{"bufferView":112,"componentType":5120,"count":1722,"normalized":true,"type":"VEC3"},{"bufferView":113,"componentType":5123,"count":1722,"type":"SCALAR"},{"bufferView":114,"componentType":5122,"count":42,"max":[32767.0,21918.0,31315.0],"min":[-32767.0,-10397.0,-12952.0],"normalized":true,"type":"VEC3"},{"bufferView":115,"componentType":5120,"count":42,"normalized":true,"type":"VEC3"},{"bufferView":116,"componentType":5121,"count":42,"normalized":true,"type":"VEC4"},{"bufferView":117,"componentType":5123,"count":42,"type":"SCALAR"},{"bufferView":118,"componentType":5122,"count":44868,"max":[32767.0,32767.0,32767.0],"min":[-32767.0,-32767.0,-32767.0],"normalized":true,"type":"VEC3"},{"bufferView":119,"componentType":5120,"count":44868,"normalized":true,"type":"VEC3"},{"bufferView":120,"componentType":5123,"count":67338,"type":"SCALAR"},{"bufferView":121,"componentType":5122,"count":30972,"max":[32767.0,32767.0,32767.0],"min":[-32767.0,-32767.0,-32767.0],"normalized":true,"type":"VEC3"},{"bufferView":122,"componentType":5120,"count":30972,"normalized":true,"type":"VEC3"},{"bufferView":123,"componentType":5123,"count":30972,"type":"SCALAR"},{"bufferView":124,"componentType":5122,"count":9024,"max":[32767.0,32767.0,32767.0],"min":[-32767.0,-32767.0,-32767.0],"normalized":true,"type":"VEC3"},{"bufferView":125,"componentType":5120,"count":9024,"normalized":true,"type":"VEC3"},{"bufferView":126,"componentType":5123,"count":9024,"type":"SCALAR"},{"bufferView":127,"componentType":5122,"count":1761,"max":[32767.0,32767.0,32767.0],"min":[-32767.0,-32767.0,-32767.0],"normalized":true,"type":"VEC3"},{"bufferView":128,"componentType":5120,"count":1761,"normalized":true,"type":"VEC3"},{"bufferView":129,"componentType":5123,"count":1761,"type":"SCALAR"},{"bufferView":130,"componentType":5122,"count":128,"max":[-15897.0,-14876.0,-24459.0],"min":[-23072.0,-17115.0,-29924.0],"normalized":true,"type":"VEC3"},{"bufferView":131,"componentType":5120,"count":128,"normalized":true,"type":"VEC3"},{"bufferView":132,"componentType":5123,"count":192,"type":"SCALAR"},{"bufferView":133,"componentType":5122,"count":144,"max":[-8063.0,-10219.0,8746.0],"min":[-15144.0,-15256.0,5658.0],"normalized":true,"type":"VEC3"},{"bufferView":134,"componentType":5120,"count":144,"normalized":true,"type":"VEC3"},{"bufferView":135,"componentType":5123,"count":216,"type":"SCALAR"},{"bufferView":136,"componentType":5122,"count":1764,"max":[-3540.0,-31326.0,-26286.0],"min":[-13986.0,-31406.0,-29606.0],"normalized":true,"type":"VEC3"},{"bufferView":137,"componentType":5120,"count":1764,"normalized":true,"type":"VEC3"},{"bufferView":138,"componentType":5123,"count":2916,"type":"SCALAR"},{"bufferView":139,"componentType":5122,"count":1512,"max":[-16694.0,-31326.0,-25284.0],"min":[-19648.0,-31406.0,-27676.0],"normalized":true,"type":"VEC3"},{"bufferView":140,"componentType":5120,"count":1512,"normalized":true,"type":"VEC3"},{"bufferView":141,"componentType":5123,"count":2508,"type":"SCALAR"},{"bufferView":142,"componentType":5122,"count":9102,"max":[32767.0,32767.0,32767.0],"min":[-32767.0,-32767.0,-29569.0],"normalized":true,"type":"VEC3"},{"bufferView":143,"componentType":5120,"count":9102,"normalized":true,"type":"VEC3"},{"bufferView":144,"componentType":5123,"count":13788,"type":"SCALAR"},{"bufferView":145,"componentType":5122,"count":288,"max":[-17709.0,-14633.0,-25928.0],"min":[-19392.0,-14713.0,-27870.0],"normalized":true,"type":"VEC3"},{"bufferView":146,"componentType":5120,"count":288,"normalized":true,"type":"VEC3"},{"bufferView":147,"componentType":5123,"count":396,"type":"SCALAR"},{"bufferView":148,"componentType":5122,"count":7392,"max":[-3446.0,-31372.0,-24280.0],"min":[-25931.0,-31560.0,-32767.0],"normalized":true,"type":"VEC3"},{"bufferView":149,"componentType":5120,"count":7392,"normalized":true,"type":"VEC3"},{"bufferView":150,"componentType":5123,"count":10164,"type":"SCALAR"},{"bufferView":151,"componentType":5122,"count":55,"max":[-16866.0,-14736.0,-25178.0],"min":[-22103.0,-14736.0,-29204.0],"normalized":true,"type":"VEC3"},{"bufferView":152,"componentType":5120,"count":55,"normalized":true,"type":"VEC3"},{"bufferView":153,"componentType":5121,"count":55,"normalized":true,"type":"VEC4"},{"bufferView":154,"componentType":5123,"count":270,"type":"SCALAR"},{"bufferView":155,"componentType":5122,"count":96,"max":[-16290.0,-14858.0,-24460.0],"min":[-23069.0,-17104.0,-29637.0],"normalized":true,"type":"VEC3"},{"bufferView":156,"componentType":5120,"count":96,"normalized":true,"type":"VEC3"},{"bufferView":157,"componentType":5123,"count":96,"type":"SCALAR"},{"bufferView":158,"componentType":5122,"count":96,"max":[-8056.0,-10184.0,8527.0],"min":[-15062.0,-15239.0,5891.0],"normalized":true,"type":"VEC3"},{"bufferView":159,"componentType":5120,"count":96,"normalized":true,"type":"VEC3"},{"bufferView":160,"componentType":5123,"count":96,"type":"SCALAR"},{"bufferView":161,"componentType":5122,"count":1386,"max":[-3536.0,-31367.0,-26293.0],"min":[-13978.0,-31447.0,-29607.0],"normalized":true,"type":"VEC3"},{"bufferView":162,"componentType":5120,"count":1386,"normalized":true,"type":"VEC3"},{"bufferView":163,"componentType":5123,"count":1386,"type":"SCALAR"},{"bufferView":164,"componentType":5122,"count":1254,"max":[-16692.0,-31367.0,-25286.0],"min":[-19638.0,-31447.0,-27676.0],"normalized":true,"type":"VEC3"},{"bufferView":165,"componentType":5120,"count":1254,"normalized":true,"type":"VEC3"},{"bufferView":166,"componentType":5123,"count":1254,"type":"SCALAR"},{"bufferView":167,"componentType":5122,"count":6927,"max":[32767.0,32767.0,32767.0],"min":[-32767.0,-32767.0,-29572.0],"normalized":true,"type":"VEC3"},{"bufferView":168,"componentType":5120,"count":6927,"normalized":true,"type":"VEC3"},{"bufferView":169,"componentType":5123,"count":6927,"type":"SCALAR"},{"bufferView":170,"componentType":5122,"count":4653,"max":[-3445.0,-31414.0,-24286.0],"min":[-25921.0,-31602.0,-32767.0],"normalized":true,"type":"VEC3"},{"bufferView":171,"componentType":5120,"count":4653,"normalized":true,"type":"VEC3"},{"bufferView":172,"componentType":5123,"count":4653,"type":"SCALAR"},{"bufferView":173,"componentType":5122,"count":117,"max":[-16861.0,-14717.0,-25180.0],"min":[-22084.0,-14717.0,-29109.0],"normalized":true,"type":"VEC3"},{"bufferView":174,"componentType":5120,"count":117,"normalized":true,"type":"VEC3"},{"bufferView":175,"componentType":5121,"count":117,"normalized":true,"type":"VEC4"},{"bufferView":176,"componentType":5123,"count":117,"type":"SCALAR"},{"bufferView":177,"componentType":5122,"count":4416,"max":[32767.0,32767.0,32767.0],"min":[-32767.0,-32767.0,-32767.0],"normalized":true,"type":"VEC3"},{"bufferView":178,"componentType":5120,"count":4416,"normalized":true,"type":"VEC3"},{"bufferView":179,"componentType":5121,"count":4416,"normalized":true,"type":"VEC4"},{"bufferView":180,"componentType":5123,"count":4416,"type":"SCALAR"},{"bufferView":181,"componentType":5122,"count":792,"max":[32767.0,32767.0,32767.0],"min":[-32767.0,-32767.0,-32767.0],"normalized":true,"type":"VEC3"},{"bufferView":182,"componentType":5120,"count":792,"normalized":true,"type":"VEC3"},{"bufferView":183,"componentType":5121,"count":792,"normalized":true,"type":"VEC4"},{"bufferView":184,"componentType":5123,"count":792,"type":"SCALAR"},{"bufferView":185,"componentType":5122,"count":480,"normalized":true,"type":"VEC2"},{"bufferView":186,"componentType":5122,"count":1712,"normalized":true,"type":"VEC2"},{"bufferView":187,"componentType":5122,"count":4100,"normalized":true,"type":"VEC2"},{"bufferView":188,"componentType":5122,"count":1012,"normalized":true,"type":"VEC2"},{"bufferView":189,"componentType":5122,"count":2106,"normalized":true,"type":"VEC2"},{"bufferView":190,"componentType":5122,"count":182,"normalized":true,"type":"VEC2"},{"bufferView":191,"componentType":5122,"count":294,"normalized":true,"type":"VEC2"},{"bufferView":192,"componentType":5122,"count":1047,"normalized":true,"type":"VEC2"},{"bufferView":193,"componentType":5122,"count":3063,"normalized":true,"type":"VEC2"},{"bufferView":194,"componentType":5122,"count":681,"normalized":true,"type":"VEC2"},{"bufferView":195,"componentType":5122,"count":1869,"normalized":true,"type":"VEC2"},{"bufferView":196,"componentType":5122,"count":138,"normalized":true,"type":"VEC2"},{"bufferView":197,"componentType":5122,"count":84,"normalized":true,"type":"VEC2"},{"bufferView":198,"componentType":5122,"count":1110,"normalized":true,"type":"VEC2"},{"bufferView":199,"componentType":5122,"count":906,"normalized":true,"type":"VEC2"},{"bufferView":200,"componentType":5122,"count":213,"normalized":true,"type":"VEC2"},{"bufferView":201,"componentType":5122,"count":171,"normalized":true,"type":"VEC2"},{"bufferView":202,"componentType":5122,"count":1568,"normalized":true,"type":"VEC2"},{"bufferView":203,"componentType":5122,"count":384,"normalized":true,"type":"VEC2"},{"bufferView":204,"componentType":5122,"count":43514,"normalized":true,"type":"VEC2"},{"bufferView":205,"componentType":5122,"count":40,"normalized":true,"type":"VEC2"},{"bufferView":206,"componentType":5122,"count":4164,"normalized":true,"type":"VEC2"},{"bufferView":207,"componentType":5122,"count":1248,"normalized":true,"type":"VEC2"},{"bufferView":208,"componentType":5122,"count":848,"normalized":true,"type":"VEC2"},{"bufferView":209,"componentType":5122,"count":624,"normalized":true,"type":"VEC2"},{"bufferView":210,"componentType":5122,"count":1200,"normalized":true,"type":"VEC2"},{"bufferView":211,"componentType":5122,"count":1209,"normalized":true,"type":"VEC2"},{"bufferView":212,"componentType":5122,"count":27501,"normalized":true,"type":"VEC2"},{"bufferView":213,"componentType":5122,"count":24,"normalized":true,"type":"VEC2"},{"bufferView":214,"componentType":5122,"count":2664,"normalized":true,"type":"VEC2"},{"bufferView":215,"componentType":5122,"count":732,"normalized":true,"type":"VEC2"},{"bufferView":216,"componentType":5122,"count":600,"normalized":true,"type":"VEC2"},{"bufferView":217,"componentType":5122,"count":798,"normalized":true,"type":"VEC2"},{"bufferView":218,"componentType":5122,"count":8499,"normalized":true,"type":"VEC2"},{"bufferView":219,"componentType":5122,"count":846,"normalized":true,"type":"VEC2"},{"bufferView":220,"componentType":5122,"count":234,"normalized":true,"type":"VEC2"},{"bufferView":221,"componentType":5122,"count":1722,"normalized":true,"type":"VEC2"},{"bufferView":222,"componentType":5122,"count":42,"normalized":true,"type":"VEC2"},{"bufferView":223,"componentType":5122,"count":44868,"normalized":true,"type":"VEC2"},{"bufferView":224,"componentType":5122,"count":30972,"normalized":true,"type":"VEC2"},{"bufferView":225,"componentType":5122,"count":9024,"normalized":true,"type":"VEC2"},{"bufferView":226,"componentType":5122,"count":1761,"normalized":true,"type":"VEC2"},{"bufferView":227,"componentType":5122,"count":128,"normalized":true,"type":"VEC2"},{"bufferView":228,"componentType":5122,"count":144,"normalized":true,"type":"VEC2"},{"bufferView":229,"componentType":5122,"count":1764,"normalized":true,"type":"VEC2"},{"bufferView":230,"componentType":5122,"count":1512,"normalized":true,"type":"VEC2"},{"bufferView":231,"componentType":5122,"count":9102,"normalized":true,"type":"VEC2"},{"bufferView":232,"componentType":5122,"count":288,"normalized":true,"type":"VEC2"},{"bufferView":233,"componentType":5122,"count":7392,"normalized":true,"type":"VEC2"},{"bufferView":234,"componentType":5122,"count":55,"normalized":true,"type":"VEC2"},{"bufferView":235,"componentType":5122,"count":96,"normalized":true,"type":"VEC2"},{"bufferView":236,"componentType":5122,"count":96,"normalized":true,"type":"VEC2"},{"bufferView":237,"componentType":5122,"count":1386,"normalized":true,"type":"VEC2"},{"bufferView":238,"componentType":5122,"count":1254,"normalized":true,"type":"VEC2"},{"bufferView":239,"componentType":5122,"count":6927,"normalized":true,"type":"VEC2"},{"bufferView":240,"componentType":5122,"count":4653,"normalized":true,"type":"VEC2"},{"bufferView":241,"componentType":5122,"count":117,"normalized":true,"type":"VEC2"},{"bufferView":242,"componentType":5122,"count":4416,"normalized":true,"type":"VEC2"},{"bufferView":243,"componentType":5122,"count":792,"normalized":true,"type":"VEC2"}],"asset":{"generator":"evermore assetgen","version":"2.0"},"bufferViews":[{"buffer":0,"byteLength":3840,"byteOffset":0,"byteStride":8,"target":34962},{"buffer":0,"byteLength":1920,"byteOffset":3840,"byteStride":4,"target":34962},{"buffer":0,"byteLength":1320,"byteOffset":5760,"target":34963},{"buffer":0,"byteLength":13696,"byteOffset":7080,"byteStride":8,"target":34962},{"buffer":0,"byteLength":6848,"byteOffset":20776,"byteStride":4,"target":34962},{"buffer":0,"byteLength":4812,"byteOffset":27624,"target":34963},{"buffer":0,"byteLength":32800,"byteOffset":32436,"byteStride":8,"target":34962},{"buffer":0,"byteLength":16400,"byteOffset":65236,"byteStride":4,"target":34962},{"buffer":0,"byteLength":13560,"byteOffset":81636,"target":34963},{"buffer":0,"byteLength":8096,"byteOffset":95196,"byteStride":8,"target":34962},{"buffer":0,"byteLength":4048,"byteOffset":103292,"byteStride":4,"target":34962},{"buffer":0,"byteLength":3036,"byteOffset":107340,"target":34963},{"buffer":0,"byteLength":16848,"byteOffset":110376,"byteStride":8,"target":34962},{"buffer":0,"byteLength":8424,"byteOffset":127224,"byteStride":4,"target":34962},{"buffer":0,"byteLength":7488,"byteOffset":135648,"target":34963},{"buffer":0,"byteLength":1456,"byteOffset":143136,"byteStride":8,"target":34962},{"buffer":0,"byteLength":728,"byteOffset":144592,"byteStride":4,"target":34962},{"buffer":0,"byteLength":576,"byteOffset":145320,"target":34963},{"buffer":0,"byteLength":2352,"byteOffset":145896,"byteStride":8,"target":34962},{"buffer":0,"byteLength":1176,"byteOffset":148248,"byteStride":4,"target":34962},{"buffer":0,"byteLength":588,"byteOffset":149424,"target":34963},{"buffer":0,"byteLength":8376,"byteOffset":150012,"byteStride":8,"target":34962},{"buffer":0,"byteLength":4188,"byteOffset":158388,"byteStride":4,"target":34962},{"buffer":0,"byteLength":2094,"byteOffset":162576,"target":34963},{"buffer":0,"byteLength":24504,"byteOffset":164672,"byteStride":8,"target":34962},{"buffer":0,"byteLength":12252,"byteOffset":189176,"byteStride":4,"target":34962},{"buffer":0,"byteLength":6126,"byteOffset":201428,"target":34963},{"buffer":0,"byteLength":5448,"byteOffset":207556,"byteStride":8,"target":34962},{"buffer":0,"byteLength":2724,"byteOffset":213004,"byteStride":4,"target":34962},{"buffer":0,"byteLength":1362,"byteOffset":215728,"target":34963},{"buffer":0,"byteLength":14952,"byteOffset":217092,"byteStride":8,"target":34962},{"buffer":0,"byteLength":7476,"byteOffset":232044,"byteStride":4,"target":34962},{"buffer":0,"byteLength":3738,"byteOffset":239520,"target":34963},{"buffer":0,"byteLength":1104,"byteOffset":243260,"byteStride":8,"target":34962},{"buffer":0,"byteLength":552,"byteOffset":244364,"byteStride":4,"target":34962},{"buffer":0,"byteLength":276,"byteOffset":244916,"target":34963},{"buffer":0,"byteLength":672,"byteOffset":245192,"byteStride":8,"target":34962},{"buffer":0,"byteLength":336,"byteOffset":245864,"byteStride":4,"target":34962},{"buffer":0,"byteLength":168,"byteOffset":246200,"target":34963},{"buffer":0,"byteLength":8880,"byteOffset":246368,"byteStride":8,"target":34962},{"buffer":0,"byteLength":4440,"byteOffset":255248,"byteStride":4,"target":34962},{"buffer":0,"byteLength":2220,"byteOffset":259688,"target":34963},{"buffer":0,"byteLength":7248,"byteOffset":261908,"byteStride":8,"target":34962},{"buffer":0,"byteLength":3624,"byteOffset":269156,"byteStride":4,"target":34962},{"buffer":0,"byteLength":1812,"byteOffset":272780,"target":34963},{"buffer":0,"byteLength":1704,"byteOffset":274592,"byteStride":8,"target":34962},{"buffer":0,"byteLength":852,"byteOffset":276296,"byteStride":4,"target":34962},{"buffer":0,"byteLength":426,"byteOffset":277148,"target":34963},{"buffer":0,"byteLength":1368,"byteOffset":277576,"byteStride":8,"target":34962},{"buffer":0,"byteLength":684,"byteOffset":278944,"byteStride":4,"target":34962},{"buffer":0,"byteLength":342,"byteOffset":279628,"target":34963},{"buffer":0,"byteLength":12544,"byteOffset":279972,"byteStride":8,"target":34962},{"buffer":0,"byteLength":6272,"byteOffset":292516,"byteStride":4,"target":34962},{"buffer":0,"byteLength":5208,"byteOffset":298788,"target":34963},{"buffer":0,"byteLength":3072,"byteOffset":303996,"byteStride":8,"target":34962},{"buffer":0,"byteLength":1536,"byteOffset":307068,"byteStride":4,"target":34962},{"buffer":0,"byteLength":1056,"byteOffset":308604,"target":34963},{"buffer":0,"byteLength":348112,"byteOffset":309660,"byteStride":8,"target":34962},{"buffer":0,"byteLength":174056,"byteOffset":657772,"byteStride":4,"target":34962},{"buffer":0,"byteLength":125532,"byteOffset":831828,"target":34963},{"buffer":0,"byteLength":320,"byteOffset":957360,"byteStride":8,"target":34962},{"buffer":0,"byteLength":160,"byteOffset":957680,"byteStride":4,"target":34962},{"buffer":0,"byteLength":120,"byteOffset":957840,"target":34963},{"buffer":0,"byteLength":33312,"byteOffset":957960,"byteStride":8,"target":34962},{"buffer":0,"byteLength":16656,"byteOffset":991272,"byteStride":4,"target":34962},{"buffer":0,"byteLength":12000,"byteOffset":1007928,"target":34963},{"buffer":0,"byteLength":9984,"byteOffset":1019928,"byteStride":8,"target":34962},{"buffer":0,"byteLength":4992,"byteOffset":1029912,"byteStride":4,"target":34962},{"buffer":0,"byteLength":3432,"byteOffset":1034904,"target":34963},{"buffer":0,"byteLength":6784,"byteOffset":1038336,"byteStride":8,"target":34962},{"buffer":0,"byteLength":3392,"byteOffset":1045120,"byteStride":4,"target":34962},{"buffer":0,"byteLength":2592,"byteOffset":1048512,"target":34963},{"buffer":0,"byteLength":4992,"byteOffset":1051104,"byteStride":8,"target":34962},{"buffer":0,"byteLength":2496,"byteOffset":1056096,"byteStride":4,"target":34962},{"buffer":0,"byteLength":2004,"byteOffset":1058592,"target":34963},{"buffer":0,"byteLength":9600,"byteOffset":1060596,"byteStride":8,"target":34962},{"buffer":0,"byteLength":4800,"byteOffset":1070196,"byteStride":4,"target":34962},{"buffer":0,"byteLength":4800,"byteOffset":1074996,"byteStride":4,"target":34962},{"buffer":0,"byteLength":3648,"byteOffset":1079796,"target":34963},{"buffer":0,"byteLength":9672,"byteOffset":1083444,"byteStride":8,"target":34962},{"buffer":0,"byteLength":4836,"byteOffset":1093116,"byteStride":4,"target":34962},{"buffer":0,"byteLength":2418,"byteOffset":1097952,"target":34963},{"buffer":0,"byteLength":220008,"byteOffset":1100372,"byteStride":8,"target":34962},{"buffer":0,"byteLength":110004,"byteOffset":1320380,"byteStride":4,"target":34962},{"buffer":0,"byteLength":55002,"byteOffset":1430384,"target":34963},{"buffer":0,"byteLength":192,"byteOffset":1485388,"byteStride":8,"target":34962},{"buffer":0,"byteLength":96,"byteOffset":1485580,"byteStride":4,"target":34962},{"buffer":0,"byteLength":48,"byteOffset":1485676,"target":34963},{"buffer":0,"byteLength":21312,"byteOffset":1485724,"byteStride":8,"target":34962},{"buffer":0,"byteLength":10656,"byteOffset":1507036,"byteStride":4,"target":34962},{"buffer":0,"byteLength":5328,"byteOffset":1517692,"target":34963},{"buffer":0,"byteLength":5856,"byteOffset":1523020,"byteStride":8,"target":34962},{"buffer":0,"byteLength":2928,"byteOffset":1528876,"byteStride":4,"target":34962},{"buffer":0,"byteLength":1464,"byteOffset":1531804,"target":34963},{"buffer":0,"byteLength":4800,"byteOffset":1533268,"byteStride":8,"target":34962},{"buffer":0,"byteLength":2400,"byteOffset":1538068,"byteStride":4,"target":34962},{"buffer":0,"byteLength":1200,"byteOffset":1540468,"target":34963},{"buffer":0,"byteLength":6384,"byteOffset":1541668,"byteStride":8,"target":34962},{"buffer":0,"byteLength":3192,"byteOffset":1548052,"byteStride":4,"target":34962},{"buffer":0,"byteLength":3192,"byteOffset":1551244,"byteStride":4,"target":34962},{"buffer":0,"byteLength":1596,"byteOffset":1554436,"target":34963},{"buffer":0,"byteLength":67992,"byteOffset":1556032,"byteStride":8,"target":34962},{"buffer":0,"byteLength":33996,"byteOffset":1624024,"byteStride":4,"target":34962},{"buffer":0,"byteLength":16998,"byteOffset":1658020,"target":34963},{"buffer":0,"byteLength":6768,"byteOffset":1675020,"byteStride":8,"target":34962},{"buffer":0,"byteLength":3384,"byteOffset":1681788,"byteStride":4,"target":34962},{"buffer":0,"byteLength":1692,"byteOffset":1685172,"target":34963},{"buffer":0,"byteLength":1872,"byteOffset":1686864,"byteStride":8,"target":34962},{"buffer":0,"byteLength":936,"byteOffset":1688736,"byteStride":4,"target":34962},{"buffer":0,"byteLength":936,"byteOffset":1689672,"byteStride":4,"target":34962},{"buffer":0,"byteLength":468,"byteOffset":1690608,"target":34963},{"buffer":0,"byteLength":13776,"byteOffset":1691076,"byteStride":8,"target":34962},{"buffer":0,"byteLength":6888,"byteOffset":1704852,"byteStride":4,"target":34962},{"buffer":0,"byteLength":3444,"byteOffset":1711740,"target":34963},{"buffer":0,"byteLength":336,"byteOffset":1715184,"byteStride":8,"target":34962},{"buffer":0,"byteLength":168,"byteOffset":1715520,"byteStride":4,"target":34962},{"buffer":0,"byteLength":168,"byteOffset":1715688,"byteStride":4,"target":34962},{"buffer":0,"byteLength":84,"byteOffset":1715856,"target":34963},{"buffer":0,"byteLength":358944,"byteOffset":1715940,"byteStride":8,"target":34962},{"buffer":0,"byteLength":179472,"byteOffset":2074884,"byteStride":4,"target":34962},{"buffer":0,"byteLength":134676,"byteOffset":2254356,"target":34963},{"buffer":0,"byteLength":247776,"byteOffset":2389032,"byteStride":8,"target":34962},{"buffer":0,"byteLength":123888,"byteOffset":2636808,"byteStride":4,"target":34962},{"buffer":0,"byteLength":61944,"byteOffset":2760696,"target":34963},{"buffer":0,"byteLength":72192,"byteOffset":2822640,"byteStride":8,"target":34962},{"buffer":0,"byteLength":36096,"byteOffset":2894832,"byteStride":4,"target":34962},{"buffer":0,"byteLength":18048,"byteOffset":2930928,"target":34963},{"buffer":0,"byteLength":14088,"byteOffset":2948976,"byteStride":8,"target":34962},{"buffer":0,"byteLength":7044,"byteOffset":2963064,"byteStride":4,"target":34962},{"buffer":0,"byteLength":3522,"byteOffset":2970108,"target":34963},{"buffer":0,"byteLength":1024,"byteOffset":2973632,"byteStride":8,"target":34962},{"buffer":0,"byteLength":512,"byteOffset":2974656,"byteStride":4,"target":34962},{"buffer":0,"byteLength":384,"byteOffset":2975168,"target":34963},{"buffer":0,"byteLength":1152,"byteOffset":2975552,"byteStride":8,"target":34962},{"buffer":0,"byteLength":576,"byteOffset":2976704,"byteStride":4,"target":34962},{"buffer":0,"byteLength":432,"byteOffset":2977280,"target":34963},{"buffer":0,"byteLength":14112,"byteOffset":2977712,"byteStride":8,"target":34962},{"buffer":0,"byteLength":7056,"byteOffset":2991824,"byteStride":4,"target":34962},{"buffer":0,"byteLength":5832,"byteOffset":2998880,"target":34963},{"buffer":0,"byteLength":12096,"byteOffset":3004712,"byteStride":8,"target":34962},{"buffer":0,"byteLength":6048,"byteOffset":3016808,"byteStride":4,"target":34962},{"buffer":0,"byteLength":5016,"byteOffset":3022856,"target":34963},{"buffer":0,"byteLength":72816,"byteOffset":3027872,"byteStride":8,"target":34962},{"buffer":0,"byteLength":36408,"byteOffset":3100688,"byteStride":4,"target":34962},{"buffer":0,"byteLength":27576,"byteOffset":3137096,"target":34963},{"buffer":0,"byteLength":2304,"byteOffset":3164672,"byteStride":8,"target":34962},{"buffer":0,"byteLength":1152,"byteOffset":3166976,"byteStride":4,"target":34962},{"buffer":0,"byteLength":792,"byteOffset":3168128,"target":34963},{"buffer":0,"byteLength":59136,"byteOffset":3168920,"byteStride":8,"target":34962},{"buffer":0,"byteLength":29568,"byteOffset":3228056,"byteStride":4,"target":34962},{"buffer":0,"byteLength":20328,"byteOffset":3257624,"target":34963},{"buffer":0,"byteLength":440,"byteOffset":3277952,"byteStride":8,"target":34962},{"buffer":0,"byteLength":220,"byteOffset":3278392,"byteStride":4,"target":34962},{"buffer":0,"byteLength":220,"byteOffset":3278612,"byteStride":4,"target":34962},{"buffer":0,"byteLength":540,"byteOffset":3278832,"target":34963},{"buffer":0,"byteLength":768,"byteOffset":3279372,"byteStride":8,"target":34962},{"buffer":0,"byteLength":384,"byteOffset":3280140,"byteStride":4,"target":34962},{"buffer":0,"byteLength":192,"byteOffset":3280524,"target":34963},{"buffer":0,"byteLength":768,"byteOffset":3280716,"byteStride":8,"target":34962},{"buffer":0,"byteLength":384,"byteOffset":3281484,"byteStride":4,"target":34962},{"buffer":0,"byteLength":192,"byteOffset":3281868,"target":34963},{"buffer":0,"byteLength":11088,"byteOffset":3282060,"byteStride":8,"target":34962},{"buffer":0,"byteLength":5544,"byteOffset":3293148,"byteStride":4,"target":34962},{"buffer":0,"byteLength":2772,"byteOffset":3298692,"target":34963},{"buffer":0,"byteLength":10032,"byteOffset":3301464,"byteStride":8,"target":34962},{"buffer":0,"byteLength":5016,"byteOffset":3311496,"byteStride":4,"target":34962},{"buffer":0,"byteLength":2508,"byteOffset":3316512,"target":34963},{"buffer":0,"byteLength":55416,"byteOffset":3319020,"byteStride":8,"target":34962},{"buffer":0,"byteLength":27708,"byteOffset":3374436,"byteStride":4,"target":34962},{"buffer":0,"byteLength":13854,"byteOffset":3402144,"target":34963},{"buffer":0,"byteLength":37224,"byteOffset":3416000,"byteStride":8,"target":34962},{"buffer":0,"byteLength":18612,"byteOffset":3453224,"byteStride":4,"target":34962},{"buffer":0,"byteLength":9306,"byteOffset":3471836,"target":34963},{"buffer":0,"byteLength":936,"byteOffset":3481144,"byteStride":8,"target":34962},{"buffer":0,"byteLength":468,"byteOffset":3482080,"byteStride":4,"target":34962},{"buffer":0,"byteLength":468,"byteOffset":3482548,"byteStride":4,"target":34962},{"buffer":0,"byteLength":234,"byteOffset":3483016,"target":34963},{"buffer":0,"byteLength":35328,"byteOffset":3483252,"byteStride":8,"target":34962},{"buffer":0,"byteLength":17664,"byteOffset":3518580,"byteStride":4,"target":34962},{"buffer":0,"byteLength":17664,"byteOffset":3536244,"byteStride":4,"target":34962},{"buffer":0,"byteLength":8832,"byteOffset":3553908,"target":34963},{"buffer":0,"byteLength":6336,"byteOffset":3562740,"byteStride":8,"target":34962},{"buffer":0,"byteLength":3168,"byteOffset":3569076,"byteStride":4,"target":34962},{"buffer":0,"byteLength":3168,"byteOffset":3572244,"byteStride":4,"target":34962},{"buffer":0,"byteLength":1584,"byteOffset":3575412,"target":34963},{"buffer":0,"byteLength":1920,"byteOffset":3576996,"byteStride":4,"target":34962},{"buffer":0,"byteLength":6848,"byteOffset":3578916,"byteStride":4,"target":34962},{"buffer":0,"byteLength":16400,"byteOffset":3585764,"byteStride":4,"target":34962},{"buffer":0,"byteLength":4048,"byteOffset":3602164,"byteStride":4,"target":34962},{"buffer":0,"byteLength":8424,"byteOffset":3606212,"byteStride":4,"target":34962},{"buffer":0,"byteLength":728,"byteOffset":3614636,"byteStride":4,"target":34962},{"buffer":0,"byteLength":1176,"byteOffset":3615364,"byteStride":4,"target":34962},{"buffer":0,"byteLength":4188,"byteOffset":3616540,"byteStride":4,"target":34962},{"buffer":0,"byteLength":12252,"byteOffset":3620728,"byteStride":4,"target":34962},{"buffer":0,"byteLength":2724,"byteOffset":3632980,"byteStride":4,"target":34962},{"buffer":0,"byteLength":7476,"byteOffset":3635704,"byteStride":4,"target":34962},{"buffer":0,"byteLength":552,"byteOffset":3643180,"byteStride":4,"target":34962},{"buffer":0,"byteLength":336,"byteOffset":3643732,"byteStride":4,"target":34962},{"buffer":0,"byteLength":4440,"byteOffset":3644068,"byteStride":4,"target":34962},{"buffer":0,"byteLength":3624,"byteOffset":3648508,"byteStride":4,"target":34962},{"buffer":0,"byteLength":852,"byteOffset":3652132,"byteStride":4,"target":34962},{"buffer":0,"byteLength":684,"byteOffset":3652984,"byteStride":4,"target":34962},{"buffer":0,"byteLength":6272,"byteOffset":3653668,"byteStride":4,"target":34962},{"buffer":0,"byteLength":1536,"byteOffset":3659940,"byteStride":4,"target":34962},{"buffer":0,"byteLength":174056,"byteOffset":3661476,"byteStride":4,"target":34962},{"buffer":0,"byteLength":160,"byteOffset":3835532,"byteStride":4,"target":34962},{"buffer":0,"byteLength":16656,"byteOffset":3835692,"byteStride":4,"target":34962},{"buffer":0,"byteLength":4992,"byteOffset":3852348,"byteStride":4,"target":34962},{"buffer":0,"byteLength":3392,"byteOffset":3857340,"byteStride":4,"target":34962},{"buffer":0,"byteLength":2496,"byteOffset":3860732,"byteStride":4,"target":34962},{"buffer":0,"byteLength":4800,"byteOffset":3863228,"byteStride":4,"target":34962},{"buffer":0,"byteLength":4836,"byteOffset":3868028,"byteStride":4,"target":34962},{"buffer":0,"byteLength":110004,"byteOffset":3872864,"byteStride":4,"target":34962},{"buffer":0,"byteLength":96,"byteOffset":3982868,"byteStride":4,"target":34962},{"buffer":0,"byteLength":10656,"byteOffset":3982964,"byteStride":4,"target":34962},{"buffer":0,"byteLength":2928,"byteOffset":3993620,"byteStride":4,"target":34962},{"buffer":0,"byteLength":2400,"byteOffset":3996548,"byteStride":4,"target":34962},{"buffer":0,"byteLength":3192,"byteOffset":3998948,"byteStride":4,"target":34962},{"buffer":0,"byteLength":33996,"byteOffset":4002140,"byteStride":4,"target":34962},{"buffer":0,"byteLength":3384,"byteOffset":4036136,"byteStride":4,"target":34962},{"buffer":0,"byteLength":936,"byteOffset":4039520,"byteStride":4,"target":34962},{"buffer":0,"byteLength":6888,"byteOffset":4040456,"byteStride":4,"target":34962},{"buffer":0,"byteLength":168,"byteOffset":4047344,"byteStride":4,"target":34962},{"buffer":0,"byteLength":179472,"byteOffset":4047512,"byteStride":4,"target":34962},{"buffer":0,"byteLength":123888,"byteOffset":4226984,"byteStride":4,"target":34962},{"buffer":0,"byteLength":36096,"byteOffset":4350872,"byteStride":4,"target":34962},{"buffer":0,"byteLength":7044,"byteOffset":4386968,"byteStride":4,"target":34962},{"buffer":0,"byteLength":512,"byteOffset":4394012,"byteStride":4,"target":34962},{"buffer":0,"byteLength":576,"byteOffset":4394524,"byteStride":4,"target":34962},{"buffer":0,"byteLength":7056,"byteOffset":4395100,"byteStride":4,"target":34962},{"buffer":0,"byteLength":6048,"byteOffset":4402156,"byteStride":4,"target":34962},{"buffer":0,"byteLength":36408,"byteOffset":4408204,"byteStride":4,"target":34962},{"buffer":0,"byteLength":1152,"byteOffset":4444612,"byteStride":4,"target":34962},{"buffer":0,"byteLength":29568,"byteOffset":4445764,"byteStride":4,"target":34962},{"buffer":0,"byteLength":220,"byteOffset":4475332,"byteStride":4,"target":34962},{"buffer":0,"byteLength":384,"byteOffset":4475552,"byteStride":4,"target":34962},{"buffer":0,"byteLength":384,"byteOffset":4475936,"byteStride":4,"target":34962},{"buffer":0,"byteLength":5544,"byteOffset":4476320,"byteStride":4,"target":34962},{"buffer":0,"byteLength":5016,"byteOffset":4481864,"byteStride":4,"target":34962},{"buffer":0,"byteLength":27708,"byteOffset":4486880,"byteStride":4,"target":34962},{"buffer":0,"byteLength":18612,"byteOffset":4514588,"byteStride":4,"target":34962},{"buffer":0,"byteLength":468,"byteOffset":4533200,"byteStride":4,"target":34962},{"buffer":0,"byteLength":17664,"byteOffset":4533668,"byteStride":4,"target":34962},{"buffer":0,"byteLength":3168,"byteOffset":4551332,"byteStride":4,"target":34962}],"buffers":[{"byteLength":4554500,"uri":"bakery.bin"}],"extensionsRequired":["KHR_mesh_quantization","KHR_texture_transform"],"extensionsUsed":["KHR_mesh_quantization","KHR_texture_transform","MSFT_lod"],"extras":{"hm":{"batching":true,"cellSize":16.0,"cells":[{"cullAt":null,"interior":null,"key":"0_0","lodPrims":[6,6,3,2],"lodTris":[5132,2364,700,128],"max":[6.387,11.97,6.022],"min":[-5.577,0.461,-3.277]},{"cullAt":null,"interior":null,"key":"0_n1","lodPrims":[9,7,3,2],"lodTris":[25932,11176,3193,588],"max":[7.2,12.43,6.049],"min":[-6.389,-0.1,-10.77]},{"cullAt":null,"interior":null,"key":"n1_0","lodPrims":[1,1,1,1],"lodTris":[22446,10324,3008,587],"max":[3.984,1.553,13.503],"min":[-6.233,0.001,-5.551]},{"cullAt":null,"interior":null,"key":"n1_n1","lodPrims":[8,7,1,1],"lodTris":[10150,4843,1472,264],"max":[2.979,3.677,3.347],"min":[-5.14,0.398,-7.314]}],"instanced":[],"instancing":true,"interiors":[],"lod":true,"lodDistances":[15.0,40.0,100.0],"stats":{"groups":4,"lodPrims":[24,21,8,6],"lodTris":[63660,28707,8373,1567]},"venue":"bakery"}},"images":[{"uri":"../textures/kit_albedo.png"},{"uri":"../textures/kit_orm.png"},{"uri":"../textures/kit_normal.png"},{"uri":"../textures/rubble_albedo.png"},{"uri":"../textures/rubble_orm.png"},{"uri":"../textures/rubble_normal.png"},{"uri":"../textures/plaster_albedo.png"},{"uri":"../textures/plaster_orm.png"},{"uri":"../textures/plaster_normal.png"},{"uri":"../textures/plaster_shade_albedo.png"},{"uri":"../textures/plaster_shade_orm.png"},{"uri":"../textures/plaster_shade_normal.png"},{"uri":"../textures/oak_dark_albedo.png"},{"uri":"../textures/oak_dark_orm.png"},{"uri":"../textures/oak_dark_normal.png"},{"uri":"../textures/glass_albedo.png"},{"uri":"../textures/glass_orm.png"},{"uri":"../textures/glass_normal.png"},{"uri":"../textures/glass_emissive.png"},{"uri":"../textures/stone_albedo.png"},{"uri":"../textures/stone_orm.png"},{"uri":"../textures/stone_normal.png"},{"uri":"../textures/terracotta_albedo.png"},{"uri":"../textures/terracotta_orm.png"},{"uri":"../textures/terracotta_normal.png"},{"uri":"../textures/ashlar_albedo.png"},{"uri":"../textures/ashlar_orm.png"},{"uri":"../textures/ashlar_normal.png"},{"uri":"../textures/brick_albedo.png"},{"uri":"../textures/brick_orm.png"},{"uri":"../textures/brick_normal.png"},{"uri":"../textures/timber_charred_albedo.png"},{"uri":"../textures/timber_charred_orm.png"},{"uri":"../textures/timber_charred_normal.png"},{"uri":"../textures/cinder_albedo.png"},{"uri":"../textures/cinder_orm.png"},{"uri":"../textures/cinder_normal.png"},{"uri":"../textures/coal_albedo.png"},{"uri":"../textures/coal_orm.png"},{"uri":"../textures/coal_normal.png"},{"uri":"../textures/coal_emissive.png"},{"uri":"../textures/bread_albedo.png"},{"uri":"../textures/bread_orm.png"},{"uri":"../textures/bread_normal.png"},{"uri":"../textures/flour_albedo.png"},{"uri":"../textures/flour_orm.png"},{"uri":"../textures/flour_normal.png"},{"uri":"../textures/mud_wet_albedo.png"},{"uri":"../textures/mud_wet_orm.png"},{"uri":"../textures/mud_wet_normal.png"},{"uri":"../textures/cobble_albedo.png"},{"uri":"../textures/cobble_orm.png"},{"uri":"../textures/cobble_normal.png"},{"uri":"../textures/grass_worn_albedo.png"},{"uri":"../textures/grass_worn_orm.png"},{"uri":"../textures/grass_worn_normal.png"},{"uri":"../textures/dirt_albedo.png"},{"uri":"../textures/dirt_orm.png"},{"uri":"../textures/dirt_normal.png"},{"uri":"../textures/algae_albedo.png"},{"uri":"../textures/algae_orm.png"},{"uri":"../textures/algae_normal.png"},{"uri":"../textures/water_albedo.png"},{"uri":"../textures/water_orm.png"},{"uri":"../textures/water_normal.png"},{"uri":"../textures/leaf_oak_albedo.png"},{"uri":"../textures/leaf_oak_orm.png"},{"uri":"../textures/leaf_oak_normal.png"}],"materials":[{"doubleSided":true,"name":"kit","normalTexture":{"extensions":{"KHR_texture_transform":{"scale":[13.8323911362319,13.8323911362319]}},"index":2,"scale":1.0},"occlusionTexture":{"extensions":{"KHR_texture_transform":{"scale":[13.8323911362319,13.8323911362319]}},"index":1},"pbrMetallicRoughness":{"baseColorFactor":[1,1,1,1],"baseColorTexture":{"extensions":{"KHR_texture_transform":{"scale":[13.8323911362319,13.8323911362319]}},"index":0},"metallicFactor":1.0,"metallicRoughnessTexture":{"extensions":{"KHR_texture_transform":{"scale":[13.8323911362319,13.8323911362319]}},"index":1},"roughnessFactor":1.0}},{"doubleSided":false,"name":"rubble","normalTexture":{"extensions":{"KHR_texture_transform":{"scale":[13.8323911362319,13.8323911362319]}},"index":5,"scale":1.0},"occlusionTexture":{"extensions":{"KHR_texture_transform":{"scale":[13.8323911362319,13.8323911362319]}},"index":4},"pbrMetallicRoughness":{"baseColorFactor":[1,1,1,1],"baseColorTexture":{"extensions":{"KHR_texture_transform":{"scale":[13.8323911362319,13.8323911362319]}},"index":3},"metallicFactor":1.0,"metallicRoughnessTexture":{"extensions":{"KHR_texture_transform":{"scale":[13.8323911362319,13.8323911362319]}},"index":4},"roughnessFactor":1.0}},{"doubleSided":false,"name":"plaster","normalTexture":{"extensions":{"KHR_texture_transform":{"scale":[13.8323911362319,13.8323911362319]}},"index":8,"scale":1.0},"occlusionTexture":{"extensions":{"KHR_texture_transform":{"scale":[13.8323911362319,13.8323911362319]}},"index":7},"pbrMetallicRoughness":{"baseColorFactor":[1,1,1,1],"baseColorTexture":{"extensions":{"KHR_texture_transform":{"scale":[13.8323911362319,13.8323911362319]}},"index":6},"metallicFactor":1.0,"metallicRoughnessTexture":{"extensions":{"KHR_texture_transform":{"scale":[13.8323911362319,13.8323911362319]}},"index":7},"roughnessFactor":1.0}},{"doubleSided":false,"name":"plaster_shade","normalTexture":{"extensions":{"KHR_texture_transform":{"scale":[13.8323911362319,13.8323911362319]}},"index":11,"scale":1.0},"occlusionTexture":{"extensions":{"KHR_texture_transform":{"scale":[13.8323911362319,13.8323911362319]}},"index":10},"pbrMetallicRoughness":{"baseColorFactor":[1,1,1,1],"baseColorTexture":{"extensions":{"KHR_texture_transform":{"scale":[13.8323911362319,13.8323911362319]}},"index":9},"metallicFactor":1.0,"metallicRoughnessTexture":{"extensions":{"KHR_texture_transform":{"scale":[13.8323911362319,13.8323911362319]}},"index":10},"roughnessFactor":1.0}},{"doubleSided":false,"name":"oak_dark","normalTexture":{"extensions":{"KHR_texture_transform":{"scale":[13.8323911362319,13.8323911362319]}},"index":14,"scale":1.0},"occlusionTexture":{"extensions":{"KHR_texture_transform":{"scale":[13.8323911362319,13.8323911362319]}},"index":13},"pbrMetallicRoughness":{"baseColorFactor":[1,1,1,1],"baseColorTexture":{"extensions":{"KHR_texture_transform":{"scale":[13.8323911362319,13.8323911362319]}},"index":12},"metallicFactor":1.0,"metallicRoughnessTexture":{"extensions":{"KHR_texture_transform":{"scale":[13.8323911362319,13.8323911362319]}},"index":13},"roughnessFactor":1.0}},{"alphaMode":"BLEND","doubleSided":true,"emissiveFactor":[1.0,1.0,1.0],"emissiveTexture":{"extensions":{"KHR_texture_transform":{"scale":[13.8323911362319,13.8323911362319]}},"index":18},"name":"glass","normalTexture":{"extensions":{"KHR_texture_transform":{"scale":[13.8323911362319,13.8323911362319]}},"index":17,"scale":1.0},"occlusionTexture":{"extensions":{"KHR_texture_transform":{"scale":[13.8323911362319,13.8323911362319]}},"index":16},"pbrMetallicRoughness":{"baseColorFactor":[1,1,1,1],"baseColorTexture":{"extensions":{"KHR_texture_transform":{"scale":[13.8323911362319,13.8323911362319]}},"index":15},"metallicFactor":1.0,"metallicRoughnessTexture":{"extensions":{"KHR_texture_transform":{"scale":[13.8323911362319,13.8323911362319]}},"index":16},"roughnessFactor":1.0}},{"doubleSided":false,"name":"stone","normalTexture":{"extensions":{"KHR_texture_transform":{"scale":[13.8323911362319,13.8323911362319]}},"index":21,"scale":1.0},"occlusionTexture":{"extensions":{"KHR_texture_transform":{"scale":[13.8323911362319,13.8323911362319]}},"index":20},"pbrMetallicRoughness":{"baseColorFactor":[1,1,1,1],"baseColorTexture":{"extensions":{"KHR_texture_transform":{"scale":[13.8323911362319,13.8323911362319]}},"index":19},"metallicFactor":1.0,"metallicRoughnessTexture":{"extensions":{"KHR_texture_transform":{"scale":[13.8323911362319,13.8323911362319]}},"index":20},"roughnessFactor":1.0}},{"doubleSided":false,"name":"terracotta","normalTexture":{"extensions":{"KHR_texture_transform":{"scale":[13.8323911362319,13.8323911362319]}},"index":24,"scale":1.0},"occlusionTexture":{"extensions":{"KHR_texture_transform":{"scale":[13.8323911362319,13.8323911362319]}},"index":23},"pbrMetallicRoughness":{"baseColorFactor":[1,1,1,1],"baseColorTexture":{"extensions":{"KHR_texture_transform":{"scale":[13.8323911362319,13.8323911362319]}},"index":22},"metallicFactor":1.0,"metallicRoughnessTexture":{"extensions":{"KHR_texture_transform":{"scale":[13.8323911362319,13.8323911362319]}},"index":23},"roughnessFactor":1.0}},{"doubleSided":false,"name":"ashlar","normalTexture":{"extensions":{"KHR_texture_transform":{"scale":[13.8323911362319,13.8323911362319]}},"index":27,"scale":1.0},"occlusionTexture":{"extensions":{"KHR_texture_transform":{"scale":[13.8323911362319,13.8323911362319]}},"index":26},"pbrMetallicRoughness":{"baseColorFactor":[1,1,1,1],"baseColorTexture":{"extensions":{"KHR_texture_transform":{"scale":[13.8323911362319,13.8323911362319]}},"index":25},"metallicFactor":1.0,"metallicRoughnessTexture":{"extensions":{"KHR_texture_transform":{"scale":[13.8323911362319,13.8323911362319]}},"index":26},"roughnessFactor":1.0}},{"doubleSided":false,"name":"brick","normalTexture":{"extensions":{"KHR_texture_transform":{"scale":[13.8323911362319,13.8323911362319]}},"index":30,"scale":1.0},"occlusionTexture":{"extensions":{"KHR_texture_transform":{"scale":[13.8323911362319,13.8323911362319]}},"index":29},"pbrMetallicRoughness":{"baseColorFactor":[1,1,1,1],"baseColorTexture":{"extensions":{"KHR_texture_transform":{"scale":[13.8323911362319,13.8323911362319]}},"index":28},"metallicFactor":1.0,"metallicRoughnessTexture":{"extensions":{"KHR_texture_transform":{"scale":[13.8323911362319,13.8323911362319]}},"index":29},"roughnessFactor":1.0}},{"doubleSided":false,"name":"timber_charred","normalTexture":{"extensions":{"KHR_texture_transform":{"scale":[13.8323911362319,13.8323911362319]}},"index":33,"scale":1.0},"occlusionTexture":{"extensions":{"KHR_texture_transform":{"scale":[13.8323911362319,13.8323911362319]}},"index":32},"pbrMetallicRoughness":{"baseColorFactor":[1,1,1,1],"baseColorTexture":{"extensions":{"KHR_texture_transform":{"scale":[13.8323911362319,13.8323911362319]}},"index":31},"metallicFactor":1.0,"metallicRoughnessTexture":{"extensions":{"KHR_texture_transform":{"scale":[13.8323911362319,13.8323911362319]}},"index":32},"roughnessFactor":1.0}},{"doubleSided":false,"name":"cinder","normalTexture":{"extensions":{"KHR_texture_transform":{"scale":[13.8323911362319,13.8323911362319]}},"index":36,"scale":1.0},"occlusionTexture":{"extensions":{"KHR_texture_transform":{"scale":[13.8323911362319,13.8323911362319]}},"index":35},"pbrMetallicRoughness":{"baseColorFactor":[1,1,1,1],"baseColorTexture":{"extensions":{"KHR_texture_transform":{"scale":[13.8323911362319,13.8323911362319]}},"index":34},"metallicFactor":1.0,"metallicRoughnessTexture":{"extensions":{"KHR_texture_transform":{"scale":[13.8323911362319,13.8323911362319]}},"index":35},"roughnessFactor":1.0}},{"doubleSided":false,"emissiveFactor":[1.0,1.0,1.0],"emissiveTexture":{"extensions":{"KHR_texture_transform":{"scale":[13.8323911362319,13.8323911362319]}},"index":40},"name":"coal","normalTexture":{"extensions":{"KHR_texture_transform":{"scale":[13.8323911362319,13.8323911362319]}},"index":39,"scale":1.0},"occlusionTexture":{"extensions":{"KHR_texture_transform":{"scale":[13.8323911362319,13.8323911362319]}},"index":38},"pbrMetallicRoughness":{"baseColorFactor":[1,1,1,1],"baseColorTexture":{"extensions":{"KHR_texture_transform":{"scale":[13.8323911362319,13.8323911362319]}},"index":37},"metallicFactor":1.0,"metallicRoughnessTexture":{"extensions":{"KHR_texture_transform":{"scale":[13.8323911362319,13.8323911362319]}},"index":38},"roughnessFactor":1.0}},{"doubleSided":false,"name":"bread","normalTexture":{"extensions":{"KHR_texture_transform":{"scale":[13.8323911362319,13.8323911362319]}},"index":43,"scale":1.0},"occlusionTexture":{"extensions":{"KHR_texture_transform":{"scale":[13.8323911362319,13.8323911362319]}},"index":42},"pbrMetallicRoughness":{"baseColorFactor":[1,1,1,1],"baseColorTexture":{"extensions":{"KHR_texture_transform":{"scale":[13.8323911362319,13.8323911362319]}},"index":41},"metallicFactor":1.0,"metallicRoughnessTexture":{"extensions":{"KHR_texture_transform":{"scale":[13.8323911362319,13.8323911362319]}},"index":42},"roughnessFactor":1.0}},{"doubleSided":false,"name":"flour","normalTexture":{"extensions":{"KHR_texture_transform":{"scale":[13.8323911362319,13.8323911362319]}},"index":46,"scale":1.0},"occlusionTexture":{"extensions":{"KHR_texture_transform":{"scale":[13.8323911362319,13.8323911362319]}},"index":45},"pbrMetallicRoughness":{"baseColorFactor":[1,1,1,1],"baseColorTexture":{"extensions":{"KHR_texture_transform":{"scale":[13.8323911362319,13.8323911362319]}},"index":44},"metallicFactor":1.0,"metallicRoughnessTexture":{"extensions":{"KHR_texture_transform":{"scale":[13.8323911362319,13.8323911362319]}},"index":45},"roughnessFactor":1.0}},{"doubleSided":false,"name":"mud_wet","normalTexture":{"extensions":{"KHR_texture_transform":{"scale":[13.8323911362319,13.8323911362319]}},"index":49,"scale":1.0},"occlusionTexture":{"extensions":{"KHR_texture_transform":{"scale":[13.8323911362319,13.8323911362319]}},"index":48},"pbrMetallicRoughness":{"baseColorFactor":[1,1,1,1],"baseColorTexture":{"extensions":{"KHR_texture_transform":{"scale":[13.8323911362319,13.8323911362319]}},"index":47},"metallicFactor":1.0,"metallicRoughnessTexture":{"extensions":{"KHR_texture_transform":{"scale":[13.8323911362319,13.8323911362319]}},"index":48},"roughnessFactor":1.0}},{"doubleSided":false,"name":"cobble","normalTexture":{"extensions":{"KHR_texture_transform":{"scale":[13.8323911362319,13.8323911362319]}},"index":52,"scale":1.0},"occlusionTexture":{"extensions":{"KHR_texture_transform":{"scale":[13.8323911362319,13.8323911362319]}},"index":51},"pbrMetallicRoughness":{"baseColorFactor":[1,1,1,1],"baseColorTexture":{"extensions":{"KHR_texture_transform":{"scale":[13.8323911362319,13.8323911362319]}},"index":50},"metallicFactor":1.0,"metallicRoughnessTexture":{"extensions":{"KHR_texture_transform":{"scale":[13.8323911362319,13.8323911362319]}},"index":51},"roughnessFactor":1.0}},{"doubleSided":false,"name":"grass_worn","normalTexture":{"extensions":{"KHR_texture_transform":{"scale":[13.8323911362319,13.8323911362319]}},"index":55,"scale":1.0},"occlusionTexture":{"extensions":{"KHR_texture_transform":{"scale":[13.8323911362319,13.8323911362319]}},"index":54},"pbrMetallicRoughness":{"baseColorFactor":[1,1,1,1],"baseColorTexture":{"extensions":{"KHR_texture_transform":{"scale":[13.8323911362319,13.8323911362319]}},"index":53},"metallicFactor":1.0,"metallicRoughnessTexture":{"extensions":{"KHR_texture_transform":{"scale":[13.8323911362319,13.8323911362319]}},"index":54},"roughnessFactor":1.0}},{"doubleSided":false,"name":"dirt","normalTexture":{"extensions":{"KHR_texture_transform":{"scale":[13.8323911362319,13.8323911362319]}},"index":58,"scale":1.0},"occlusionTexture":{"extensions":{"KHR_texture_transform":{"scale":[13.8323911362319,13.8323911362319]}},"index":57},"pbrMetallicRoughness":{"baseColorFactor":[1,1,1,1],"baseColorTexture":{"extensions":{"KHR_texture_transform":{"scale":[13.8323911362319,13.8323911362319]}},"index":56},"metallicFactor":1.0,"metallicRoughnessTexture":{"extensions":{"KHR_texture_transform":{"scale":[13.8323911362319,13.8323911362319]}},"index":57},"roughnessFactor":1.0}},{"doubleSided":false,"name":"algae","normalTexture":{"extensions":{"KHR_texture_transform":{"scale":[13.8323911362319,13.8323911362319]}},"index":61,"scale":1.0},"occlusionTexture":{"extensions":{"KHR_texture_transform":{"scale":[13.8323911362319,13.8323911362319]}},"index":60},"pbrMetallicRoughness":{"baseColorFactor":[1,1,1,1],"baseColorTexture":{"extensions":{"KHR_texture_transform":{"scale":[13.8323911362319,13.8323911362319]}},"index":59},"metallicFactor":1.0,"metallicRoughnessTexture":{"extensions":{"KHR_texture_transform":{"scale":[13.8323911362319,13.8323911362319]}},"index":60},"roughnessFactor":1.0}},{"alphaMode":"BLEND","doubleSided":false,"name":"water","normalTexture":{"extensions":{"KHR_texture_transform":{"scale":[13.8323911362319,13.8323911362319]}},"index":64,"scale":1.0},"occlusionTexture":{"extensions":{"KHR_texture_transform":{"scale":[13.8323911362319,13.8323911362319]}},"index":63},"pbrMetallicRoughness":{"baseColorFactor":[1,1,1,1],"baseColorTexture":{"extensions":{"KHR_texture_transform":{"scale":[13.8323911362319,13.8323911362319]}},"index":62},"metallicFactor":1.0,"metallicRoughnessTexture":{"extensions":{"KHR_texture_transform":{"scale":[13.8323911362319,13.8323911362319]}},"index":63},"roughnessFactor":1.0}},{"alphaCutoff":0.5,"alphaMode":"MASK","doubleSided":true,"name":"leaf_oak","normalTexture":{"extensions":{"KHR_texture_transform":{"scale":[13.8323911362319,13.8323911362319]}},"index":67,"scale":1.0},"occlusionTexture":{"extensions":{"KHR_texture_transform":{"scale":[13.8323911362319,13.8323911362319]}},"index":66},"pbrMetallicRoughness":{"baseColorFactor":[1,1,1,1],"baseColorTexture":{"extensions":{"KHR_texture_transform":{"scale":[13.8323911362319,13.8323911362319]}},"index":65},"metallicFactor":1.0,"metallicRoughnessTexture":{"extensions":{"KHR_texture_transform":{"scale":[13.8323911362319,13.8323911362319]}},"index":66},"roughnessFactor":1.0}}],"meshes":[{"name":"bakery#0_0","primitives":[{"attributes":{"NORMAL":1,"POSITION":0,"TEXCOORD_0":185},"indices":2,"material":8},{"attributes":{"NORMAL":4,"POSITION":3,"TEXCOORD_0":186},"indices":5,"material":9},{"attributes":{"NORMAL":7,"POSITION":6,"TEXCOORD_0":187},"indices":8,"material":11},{"attributes":{"NORMAL":10,"POSITION":9,"TEXCOORD_0":188},"indices":11,"material":12},{"attributes":{"NORMAL":13,"POSITION":12,"TEXCOORD_0":189},"indices":14,"material":0},{"attributes":{"NORMAL":16,"POSITION":15,"TEXCOORD_0":190},"indices":17,"material":10}]},{"name":"bakery#0_0$lod1","primitives":[{"attributes":{"NORMAL":19,"POSITION":18,"TEXCOORD_0":191},"indices":20,"material":8},{"attributes":{"NORMAL":22,"POSITION":21,"TEXCOORD_0":192},"indices":23,"material":9},{"attributes":{"NORMAL":25,"POSITION":24,"TEXCOORD_0":193},"indices":26,"material":11},{"attributes":{"NORMAL":28,"POSITION":27,"TEXCOORD_0":194},"indices":29,"material":12},{"attributes":{"NORMAL":31,"POSITION":30,"TEXCOORD_0":195},"indices":32,"material":0},{"attributes":{"NORMAL":34,"POSITION":33,"TEXCOORD_0":196},"indices":35,"material":10}]},{"name":"bakery#0_0$lod2","primitives":[{"attributes":{"NORMAL":37,"POSITION":36,"TEXCOORD_0":197},"indices":38,"material":8},{"attributes":{"NORMAL":40,"POSITION":39,"TEXCOORD_0":198},"indices":41,"material":9},{"attributes":{"NORMAL":43,"POSITION":42,"TEXCOORD_0":199},"indices":44,"material":11}]},{"name":"bakery#0_0$lod3","primitives":[{"attributes":{"NORMAL":46,"POSITION":45,"TEXCOORD_0":200},"indices":47,"material":9},{"attributes":{"NORMAL":49,"POSITION":48,"TEXCOORD_0":201},"indices":50,"material":11}]},{"name":"bakery#0_n1","primitives":[{"attributes":{"NORMAL":52,"POSITION":51,"TEXCOORD_0":202},"indices":53,"material":18},{"attributes":{"NORMAL":55,"POSITION":54,"TEXCOORD_0":203},"indices":56,"material":5},{"attributes":{"NORMAL":58,"POSITION":57,"TEXCOORD_0":204},"indices":59,"material":0},{"attributes":{"NORMAL":61,"POSITION":60,"TEXCOORD_0":205},"indices":62,"material":4},{"attributes":{"NORMAL":64,"POSITION":63,"TEXCOORD_0":206},"indices":65,"material":2},{"attributes":{"NORMAL":67,"POSITION":66,"TEXCOORD_0":207},"indices":68,"material":3},{"attributes":{"NORMAL":70,"POSITION":69,"TEXCOORD_0":208},"indices":71,"material":1},{"attributes":{"NORMAL":73,"POSITION":72,"TEXCOORD_0":209},"indices":74,"material":6},{"attributes":{"COLOR_0":77,"NORMAL":76,"POSITION":75,"TEXCOORD_0":210},"indices":78,"material":7}]},{"name":"bakery#0_n1$lod1","primitives":[{"attributes":{"NORMAL":80,"POSITION":79,"TEXCOORD_0":211},"indices":81,"material":18},{"attributes":{"NORMAL":83,"POSITION":82,"TEXCOORD_0":212},"indices":84,"material":0},{"attributes":{"NORMAL":86,"POSITION":85,"TEXCOORD_0":213},"indices":87,"material":4},{"attributes":{"NORMAL":89,"POSITION":88,"TEXCOORD_0":214},"indices":90,"material":2},{"attributes":{"NORMAL":92,"POSITION":91,"TEXCOORD_0":215},"indices":93,"material":3},{"attributes":{"NORMAL":95,"POSITION":94,"TEXCOORD_0":216},"indices":96,"material":1},{"attributes":{"COLOR_0":99,"NORMAL":98,"POSITION":97,"TEXCOORD_0":217},"indices":100,"material":7}]},{"name":"bakery#0_n1$lod2","primitives":[{"attributes":{"NORMAL":102,"POSITION":101,"TEXCOORD_0":218},"indices":103,"material":0},{"attributes":{"NORMAL":105,"POSITION":104,"TEXCOORD_0":219},"indices":106,"material":2},{"attributes":{"COLOR_0":109,"NORMAL":108,"POSITION":107,"TEXCOORD_0":220},"indices":110,"material":7}]},{"name":"bakery#0_n1$lod3","primitives":[{"attributes":{"NORMAL":112,"POSITION":111,"TEXCOORD_0":221},"indices":113,"material":0},{"attributes":{"COLOR_0":116,"NORMAL":115,"POSITION":114,"TEXCOORD_0":222},"indices":117,"material":7}]},{"name":"bakery#n1_0","primitives":[{"attributes":{"NORMAL":119,"POSITION":118,"TEXCOORD_0":223},"indices":120,"material":14}]},{"name":"bakery#n1_0$lod1","primitives":[{"attributes":{"NORMAL":122,"POSITION":121,"TEXCOORD_0":224},"indices":123,"material":14}]},{"name":"bakery#n1_0$lod2","primitives":[{"attributes":{"NORMAL":125,"POSITION":124,"TEXCOORD_0":225},"indices":126,"material":14}]},{"name":"bakery#n1_0$lod3","primitives":[{"attributes":{"NORMAL":128,"POSITION":127,"TEXCOORD_0":226},"indices":129,"material":14}]},{"name":"bakery#n1_n1","primitives":[{"attributes":{"NORMAL":131,"POSITION":130,"TEXCOORD_0":227},"indices":132,"material":19},{"attributes":{"NORMAL":134,"POSITION":133,"TEXCOORD_0":228},"indices":135,"material":13},{"attributes":{"NORMAL":137,"POSITION":136,"TEXCOORD_0":229},"indices":138,"material":16},{"attributes":{"NORMAL":140,"POSITION":139,"TEXCOORD_0":230},"indices":141,"material":17},{"attributes":{"NORMAL":143,"POSITION":142,"TEXCOORD_0":231},"indices":144,"material":0},{"attributes":{"NORMAL":146,"POSITION":145,"TEXCOORD_0":232},"indices":147,"material":21},{"attributes":{"NORMAL":149,"POSITION":148,"TEXCOORD_0":233},"indices":150,"material":15},{"attributes":{"COLOR_0":153,"NORMAL":152,"POSITION":151,"TEXCOORD_0":234},"indices":154,"material":20}]},{"name":"bakery#n1_n1$lod1","primitives":[{"attributes":{"NORMAL":156,"POSITION":155,"TEXCOORD_0":235},"indices":157,"material":19},{"attributes":{"NORMAL":159,"POSITION":158,"TEXCOORD_0":236},"indices":160,"material":13},{"attributes":{"NORMAL":162,"POSITION":161,"TEXCOORD_0":237},"indices":163,"material":16},{"attributes":{"NORMAL":165,"POSITION":164,"TEXCOORD_0":238},"indices":166,"material":17},{"attributes":{"NORMAL":168,"POSITION":167,"TEXCOORD_0":239},"indices":169,"material":0},{"attributes":{"NORMAL":171,"POSITION":170,"TEXCOORD_0":240},"indices":172,"material":15},{"attributes":{"COLOR_0":175,"NORMAL":174,"POSITION":173,"TEXCOORD_0":241},"indices":176,"material":20}]},{"name":"bakery#n1_n1$lod2","primitives":[{"attributes":{"COLOR_0":179,"NORMAL":178,"POSITION":177,"TEXCOORD_0":242},"indices":180,"material":0}]},{"name":"bakery#n1_n1$lod3","primitives":[{"attributes":{"COLOR_0":183,"NORMAL":182,"POSITION":181,"TEXCOORD_0":243},"indices":184,"material":0}]}],"nodes":[{"extensions":{"MSFT_lod":{"ids":[1,2,3]}},"extras":{"MSFT_screencoverage":[1.0,0.45691,0.18276,0.0],"hm":{"cell":"0_0","cullAt":null,"interior":null,"lod":0,"max":[6.387,11.97,6.022],"min":[-5.577,0.461,-3.277],"prims":6,"tris":5132,"venue":"bakery"}},"mesh":0,"name":"bakery#0_0","scale":[5.9820709228515625,5.754499912261963,4.649453163146973],"translation":[0.4054276943206787,6.215500354766846,1.372471809387207]},{"extras":{"hm":{"cell":"0_0","cullAt":null,"interior":null,"lod":1,"max":[6.387,11.97,6.022],"min":[-5.577,0.461,-3.277],"prims":6,"tris":2364,"venue":"bakery"}},"mesh":1,"name":"bakery#0_0$lod1","scale":[5.9820709228515625,5.7482500076293945,4.649453163146973],"translation":[0.4054276943206787,6.209250450134277,1.372471809387207]},{"extras":{"hm":{"cell":"0_0","cullAt":null,"interior":null,"lod":2,"max":[6.387,11.97,6.022],"min":[-5.577,0.461,-3.277],"prims":3,"tris":700,"venue":"bakery"}},"mesh":2,"name":"bakery#0_0$lod2","scale":[5.962223052978516,5.68181037902832,4.601923942565918],"translation":[0.4089021682739258,6.144885063171387,1.4019715785980225]},{"extras":{"hm":{"cell":"0_0","cullAt":null,"interior":null,"lod":3,"max":[6.387,11.97,6.022],"min":[-5.577,0.461,-3.277],"prims":2,"tris":128,"venue":"bakery"}},"mesh":3,"name":"bakery#0_0$lod3","scale":[4.8761115074157715,5.679782390594482,4.103170394897461],"translation":[1.0122789144515991,6.143086910247803,1.2687946557998657]},{"extensions":{"MSFT_lod":{"ids":[5,6,7]}},"extras":{"MSFT_screencoverage":[1.0,0.60008,0.24003,0.0],"hm":{"cell":"0_n1","cullAt":null,"interior":null,"lod":0,"max":[7.2,12.43,6.049],"min":[-6.389,-0.1,-10.77],"prims":9,"tris":25932,"venue":"bakery"}},"mesh":4,"name":"bakery#0_n1","scale":[6.7941484451293945,6.265000343322754,8.409466743469238],"translation":[0.4054276943206787,6.164999961853027,-2.3608009815216064]},{"extras":{"hm":{"cell":"0_n1","cullAt":null,"interior":null,"lod":1,"max":[7.2,12.43,6.049],"min":[-6.389,-0.1,-10.77],"prims":7,"tris":11176,"venue":"bakery"}},"mesh":5,"name":"bakery#0_n1$lod1","scale":[6.790823459625244,6.265000343322754,8.407581329345703],"translation":[0.4054279327392578,6.164999961853027,-2.362276554107666]},{"extras":{"hm":{"cell":"0_n1","cullAt":null,"interior":null,"lod":2,"max":[7.2,12.43,6.049],"min":[-6.389,-0.1,-10.77],"prims":3,"tris":3193,"venue":"bakery"}},"mesh":6,"name":"bakery#0_n1$lod2","scale":[6.759241104125977,6.232397079467773,8.407354354858398],"translation":[0.40436339378356934,6.144396781921387,-2.3620495796203613]},{"extras":{"hm":{"cell":"0_n1","cullAt":null,"interior":null,"lod":3,"max":[7.2,12.43,6.049],"min":[-6.389,-0.1,-10.77],"prims":2,"tris":588,"venue":"bakery"}},"mesh":7,"name":"bakery#0_n1$lod3","scale":[6.589919567108154,5.75886869430542,8.39245891571045],"translation":[0.28917741775512695,5.670868396759033,-2.3769445419311523]},{"extensions":{"MSFT_lod":{"ids":[9,10,11]}},"extras":{"MSFT_screencoverage":[1.0,0.52049,0.2082,0.0],"hm":{"cell":"n1_0","cullAt":null,"interior":null,"lod":0,"max":[3.984,1.553,13.503],"min":[-6.233,0.001,-5.551],"prims":1,"tris":22446,"venue":"bakery"}},"mesh":8,"name":"bakery#n1_0","scale":[5.108477592468262,0.7759321331977844,9.527063369750977],"translation":[-1.1241086721420288,0.7769321799278259,3.97566556930542]},{"extras":{"hm":{"cell":"n1_0","cullAt":null,"interior":null,"lod":1,"max":[3.984,1.553,13.503],"min":[-6.233,0.001,-5.551],"prims":1,"tris":10324,"venue":"bakery"}},"mesh":9,"name":"bakery#n1_0$lod1","scale":[5.108315467834473,0.7759321331977844,9.526782989501953],"translation":[-1.1242706775665283,0.7769321799278259,3.975386142730713]},{"extras":{"hm":{"cell":"n1_0","cullAt":null,"interior":null,"lod":2,"max":[3.984,1.553,13.503],"min":[-6.233,0.001,-5.551],"prims":1,"tris":3008,"venue":"bakery"}},"mesh":10,"name":"bakery#n1_0$lod2","scale":[5.107855796813965,0.7749521732330322,9.526739120483398],"translation":[-1.1240234375,0.7779121398925781,3.975341320037842]},{"extras":{"hm":{"cell":"n1_0","cullAt":null,"interior":null,"lod":3,"max":[3.984,1.553,13.503],"min":[-6.233,0.001,-5.551],"prims":1,"tris":587,"venue":"bakery"}},"mesh":11,"name":"bakery#n1_0$lod3","scale":[5.107719421386719,0.7009531259536743,7.35319709777832],"translation":[-1.124159574508667,0.7039130926132202,6.135842323303223]},{"extensions":{"MSFT_lod":{"ids":[13,14,15]}},"extras":{"MSFT_screencoverage":[0.88335,0.33125,0.1325,0.0],"hm":{"cell":"n1_n1","cullAt":null,"interior":null,"lod":0,"max":[2.979,3.677,3.347],"min":[-5.14,0.398,-7.314],"prims":8,"tris":10150,"venue":"bakery"}},"mesh":12,"name":"bakery#n1_n1","scale":[4.059542179107666,1.6393508911132812,5.330068588256836],"translation":[-1.0804227590560913,2.0372626781463623,-1.9834539890289307]},{"extras":{"hm":{"cell":"n1_n1","cullAt":null,"interior":null,"lod":1,"max":[2.979,3.677,3.347],"min":[-5.14,0.398,-7.314],"prims":7,"tris":4843,"venue":"bakery"}},"mesh":13,"name":"bakery#n1_n1$lod1","scale":[4.058377742767334,1.6334375143051147,5.327696800231934],"translation":[-1.0815871953964233,2.0336499214172363,-1.9850742816925049]},{"extras":{"hm":{"cell":"n1_n1","cullAt":null,"interior":null,"lod":2,"max":[2.979,3.677,3.347],"min":[-5.14,0.398,-7.314],"prims":1,"tris":1472,"venue":"bakery"}},"mesh":14,"name":"bakery#n1_n1$lod2","scale":[4.058260917663574,1.5715758800506592,5.3253583908081055],"translation":[-1.0817039012908936,1.9717881679534912,-1.986796259880066]},{"extras":{"hm":{"cell":"n1_n1","cullAt":null,"interior":null,"lod":3,"max":[2.979,3.677,3.347],"min":[-5.14,0.398,-7.314],"prims":1,"tris":264,"venue":"bakery"}},"mesh":15,"name":"bakery#n1_n1$lod3","scale":[4.052174091339111,1.5594415664672852,5.170401573181152],"translation":[-1.0756168365478516,1.9839224815368652,-1.8369109630584717]}],"samplers":[{"magFilter":9729,"minFilter":9987,"wrapS":10497,"wrapT":10497}],"scene":0,"scenes":[{"nodes":[0,4,8,12]}],"textures":[{"sampler":0,"source":0},{"sampler":0,"source":1},{"sampler":0,"source":2},{"sampler":0,"source":3},{"sampler":0,"source":4},{"sampler":0,"source":5},{"sampler":0,"source":6},{"sampler":0,"source":7},{"sampler":0,"source":8},{"sampler":0,"source":9},{"sampler":0,"source":10},{"sampler":0,"source":11},{"sampler":0,"source":12},{"sampler":0,"source":13},{"sampler":0,"source":14},{"sampler":0,"source":15},{"sampler":0,"source":16},{"sampler":0,"source":17},{"sampler":0,"source":18},{"sampler":0,"source":19},{"sampler":0,"source":20},{"sampler":0,"source":21},{"sampler":0,"source":22},{"sampler":0,"source":23},{"sampler":0,"source":24},{"sampler":0,"source":25},{"sampler":0,"source":26},{"sampler":0,"source":27},{"sampler":0,"source":28},{"sampler":0,"source":29},{"sampler":0,"source":30},{"sampler":0,"source":31},{"sampler":0,"source":32},{"sampler":0,"source":33},{"sampler":0,"source":34},{"sampler":0,"source":35},{"sampler":0,"source":36},{"sampler":0,"source":37},{"sampler":0,"source":38},{"sampler":0,"source":39},{"sampler":0,"source":40},{"sampler":0,"source":41},{"sampler":0,"source":42},{"sampler":0,"source":43},{"sampler":0,"source":44},{"sampler":0,"source":45},{"sampler":0,"source":46},{"sampler":0,"source":47},{"sampler":0,"source":48},{"sampler":0,"source":49},{"sampler":0,"source":50},{"sampler":0,"source":51},{"sampler":0,"source":52},{"sampler":0,"source":53},{"sampler":0,"source":54},{"sampler":0,"source":55},{"sampler":0,"source":56},{"sampler":0,"source":57},{"sampler":0,"source":58},{"sampler":0,"source":59},{"sampler":0,"source":60},{"sampler":0,"source":61},{"sampler":0,"source":62},{"sampler":0,"source":63},{"sampler":0,"source":64},{"sampler":0,"source":65},{"sampler":0,"source":66},{"sampler":0,"source":67}]}