{"accessors":[{"bufferView":0,"componentType":5122,"count":6708,"max":[32767.0,32767.0,9455.0],"min":[-31741.0,-31486.0,-18113.0],"normalized":true,"type":"VEC3"},{"bufferView":1,"componentType":5120,"count":6708,"normalized":true,"type":"VEC3"},{"bufferView":2,"componentType":5123,"count":11472,"type":"SCALAR"},{"bufferView":3,"componentType":5122,"count":10920,"max":[24972.0,-32727.0,32767.0],"min":[-9087.0,-32767.0,-21171.0],"normalized":true,"type":"VEC3"},{"bufferView":4,"componentType":5120,"count":10920,"normalized":true,"type":"VEC3"},{"bufferView":5,"componentType":5123,"count":18132,"type":"SCALAR"},{"bufferView":6,"componentType":5122,"count":130,"max":[20141.0,32202.0,24109.0],"min":[-32767.0,1115.0,-32767.0],"normalized":true,"type":"VEC3"},{"bufferView":7,"componentType":5120,"count":130,"normalized":true,"type":"VEC3"},{"bufferView":8,"componentType":5123,"count":198,"type":"SCALAR"},{"bufferView":9,"componentType":5122,"count":2904,"max":[19366.0,15846.0,21793.0],"min":[-31991.0,-29993.0,-30451.0],"normalized":true,"type":"VEC3"},{"bufferView":10,"componentType":5120,"count":2904,"normalized":true,"type":"VEC3"},{"bufferView":11,"componentType":5123,"count":4464,"type":"SCALAR"},{"bufferView":12,"componentType":5122,"count":96,"max":[17044.0,2112.0,19468.0],"min":[-29669.0,-29993.0,-28125.0],"normalized":true,"type":"VEC3"},{"bufferView":13,"componentType":5120,"count":96,"normalized":true,"type":"VEC3"},{"bufferView":14,"componentType":5123,"count":132,"type":"SCALAR"},{"bufferView":15,"componentType":5122,"count":96,"max":[32124.0,-31218.0,4232.0],"min":[18320.0,-31417.0,-2677.0],"normalized":true,"type":"VEC3"},{"bufferView":16,"componentType":5120,"count":96,"normalized":true,"type":"VEC3"},{"bufferView":17,"componentType":5123,"count":132,"type":"SCALAR"},{"bufferView":18,"componentType":5122,"count":5478,"max":[32767.0,32767.0,9433.0],"min":[-31746.0,-31478.0,-18163.0],"normalized":true,"type":"VEC3"},{"bufferView":19,"componentType":5120,"count":5478,"normalized":true,"type":"VEC3"},{"bufferView":20,"componentType":5123,"count":5478,"type":"SCALAR"},{"bufferView":21,"componentType":5122,"count":96,"max":[20189.0,32094.0,24038.0],"min":[-32767.0,1249.0,-32767.0],"normalized":true,"type":"VEC3"},{"bufferView":22,"componentType":5120,"count":96,"normalized":true,"type":"VEC3"},{"bufferView":23,"componentType":5123,"count":96,"type":"SCALAR"},{"bufferView":24,"componentType":5122,"count":2151,"max":[19417.0,15856.0,21784.0],"min":[-31996.0,-29993.0,-30514.0],"normalized":true,"type":"VEC3"},{"bufferView":25,"componentType":5120,"count":2151,"normalized":true,"type":"VEC3"},{"bufferView":26,"componentType":5123,"count":2151,"type":"SCALAR"},{"bufferView":27,"componentType":5122,"count":8658,"max":[32190.0,2031.0,32767.0],"min":[-29642.0,-32767.0,-28149.0],"normalized":true,"type":"VEC3"},{"bufferView":28,"componentType":5120,"count":8658,"normalized":true,"type":"VEC3"},{"bufferView":29,"componentType":5123,"count":8658,"type":"SCALAR"},{"bufferView":30,"componentType":5122,"count":24,"max":[19172.0,27069.0,10530.0],"min":[-32653.0,10185.0,-23900.0],"normalized":true,"type":"VEC3"},{"bufferView":31,"componentType":5120,"count":24,"normalized":true,"type":"VEC3"},{"bufferView":32,"componentType":5123,"count":24,"type":"SCALAR"},{"bufferView":33,"componentType":5122,"count":630,"max":[18879.0,15921.0,21072.0],"min":[-32767.0,-29941.0,-32767.0],"normalized":true,"type":"VEC3"},{"bufferView":34,"componentType":5120,"count":630,"normalized":true,"type":"VEC3"},{"bufferView":35,"componentType":5123,"count":630,"type":"SCALAR"},{"bufferView":36,"componentType":5122,"count":4005,"max":[32767.0,32767.0,32767.0],"min":[-32725.0,-32767.0,-30724.0],"normalized":true,"type":"VEC3"},{"bufferView":37,"componentType":5120,"count":4005,"normalized":true,"type":"VEC3"},{"bufferView":38,"componentType":5123,"count":4005,"type":"SCALAR"},{"bufferView":39,"componentType":5122,"count":117,"max":[18921.0,15915.0,22730.0],"min":[-32556.0,-24100.0,-32767.0],"normalized":true,"type":"VEC3"},{"bufferView":40,"componentType":5120,"count":117,"normalized":true,"type":"VEC3"},{"bufferView":41,"componentType":5123,"count":117,"type":"SCALAR"},{"bufferView":42,"componentType":5122,"count":819,"max":[32767.0,32767.0,32767.0],"min":[-32767.0,-32767.0,-30761.0],"normalized":true,"type":"VEC3"},{"bufferView":43,"componentType":5120,"count":819,"normalized":true,"type":"VEC3"},{"bufferView":44,"componentType":5123,"count":819,"type":"SCALAR"},{"bufferView":45,"componentType":5122,"count":3108,"max":[25547.0,-31868.0,-6575.0],"min":[19312.0,-31908.0,-15100.0],"normalized":true,"type":"VEC3"},{"bufferView":46,"componentType":5120,"count":3108,"normalized":true,"type":"VEC3"},{"bufferView":47,"componentType":5123,"count":5160,"type":"SCALAR"},{"bufferView":48,"componentType":5122,"count":168,"max":[17291.0,-15181.0,540.0],"min":[1415.0,-20656.0,-24578.0],"normalized":true,"type":"VEC3"},{"bufferView":49,"componentType":5120,"count":168,"normalized":true,"type":"VEC3"},{"bufferView":50,"componentType":5123,"count":756,"type":"SCALAR"},{"bufferView":51,"componentType":5122,"count":112,"max":[18324.0,-12990.0,-30838.0],"min":[15842.0,-18859.0,-32326.0],"normalized":true,"type":"VEC3"},{"bufferView":52,"componentType":5120,"count":112,"normalized":true,"type":"VEC3"},{"bufferView":53,"componentType":5123,"count":504,"type":"SCALAR"},{"bufferView":54,"componentType":5122,"count":288,"max":[8094.0,-12888.0,-18774.0],"min":[-13301.0,-17218.0,-21726.0],"normalized":true,"type":"VEC3"},{"bufferView":55,"componentType":5120,"count":288,"normalized":true,"type":"VEC3"},{"bufferView":56,"componentType":5123,"count":396,"type":"SCALAR"},{"bufferView":57,"componentType":5122,"count":39004,"max":[21357.0,32767.0,32767.0],"min":[-32767.0,-32111.0,-32767.0],"normalized":true,"type":"VEC3"},{"bufferView":58,"componentType":5120,"count":39004,"normalized":true,"type":"VEC3"},{"bufferView":59,"componentType":5123,"count":57468,"type":"SCALAR"},{"bufferView":60,"componentType":5122,"count":8,"max":[11534.0,32482.0,9597.0],"min":[-21619.0,27470.0,-2665.0],"normalized":true,"type":"VEC3"},{"bufferView":61,"componentType":5120,"count":8,"normalized":true,"type":"VEC3"},{"bufferView":62,"componentType":5123,"count":12,"type":"SCALAR"},{"bufferView":63,"componentType":5122,"count":168,"max":[11204.0,31196.0,8646.0],"min":[-21290.0,28296.0,-1715.0],"normalized":true,"type":"VEC3"},{"bufferView":64,"componentType":5120,"count":168,"normalized":true,"type":"VEC3"},{"bufferView":65,"componentType":5123,"count":312,"type":"SCALAR"},{"bufferView":66,"componentType":5122,"count":480,"max":[19400.0,-12429.0,28218.0],"min":[-18893.0,-29159.0,-21320.0],"normalized":true,"type":"VEC3"},{"bufferView":67,"componentType":5120,"count":480,"normalized":true,"type":"VEC3"},{"bufferView":68,"componentType":5123,"count":660,"type":"SCALAR"},{"bufferView":69,"componentType":5122,"count":1424,"max":[32767.0,-17329.0,10862.0],"min":[-13783.0,-32767.0,-22505.0],"normalized":true,"type":"VEC3"},{"bufferView":70,"componentType":5120,"count":1424,"normalized":true,"type":"VEC3"},{"bufferView":71,"componentType":5123,"count":2310,"type":"SCALAR"},{"bufferView":72,"componentType":5122,"count":27828,"max":[25580.0,32767.0,32767.0],"min":[-32767.0,-32111.0,-32767.0],"normalized":true,"type":"VEC3"},{"bufferView":73,"componentType":5120,"count":27828,"normalized":true,"type":"VEC3"},{"bufferView":74,"componentType":5123,"count":27828,"type":"SCALAR"},{"bufferView":75,"componentType":5122,"count":8,"max":[11560.0,32482.0,9591.0],"min":[-21613.0,27470.0,-2674.0],"normalized":true,"type":"VEC3"},{"bufferView":76,"componentType":5120,"count":8,"normalized":true,"type":"VEC3"},{"bufferView":77,"componentType":5123,"count":12,"type":"SCALAR"},{"bufferView":78,"componentType":5122,"count":321,"max":[19431.0,-12429.0,28189.0],"min":[-18885.0,-29159.0,-21312.0],"normalized":true,"type":"VEC3"},{"bufferView":79,"componentType":5120,"count":321,"normalized":true,"type":"VEC3"},{"bufferView":80,"componentType":5123,"count":321,"type":"SCALAR"},{"bufferView":81,"componentType":5122,"count":1023,"max":[32767.0,-17355.0,10822.0],"min":[-13772.0,-32767.0,-22518.0],"normalized":true,"type":"VEC3"},{"bufferView":82,"componentType":5120,"count":1023,"normalized":true,"type":"VEC3"},{"bufferView":83,"componentType":5123,"count":1023,"type":"SCALAR"},{"bufferView":84,"componentType":5122,"count":8843,"max":[32767.0,32767.0,32767.0],"min":[-32767.0,-32767.0,-32767.0],"normalized":true,"type":"VEC3"},{"bufferView":85,"componentType":5120,"count":8843,"normalized":true,"type":"VEC3"},{"bufferView":86,"componentType":5123,"count":8847,"type":"SCALAR"},{"bufferView":87,"componentType":5122,"count":102,"max":[19397.0,-12468.0,27902.0],"min":[-18938.0,-29146.0,-21304.0],"normalized":true,"type":"VEC3"},{"bufferView":88,"componentType":5120,"count":102,"normalized":true,"type":"VEC3"},{"bufferView":89,"componentType":5123,"count":102,"type":"SCALAR"},{"bufferView":90,"componentType":5122,"count":1590,"max":[32767.0,32767.0,32767.0],"min":[-32767.0,-32767.0,-32767.0],"normalized":true,"type":"VEC3"},{"bufferView":91,"componentType":5120,"count":1590,"normalized":true,"type":"VEC3"},{"bufferView":92,"componentType":5123,"count":1590,"type":"SCALAR"},{"bufferView":93,"componentType":5122,"count":24,"max":[19374.0,-12431.0,27902.0],"min":[-18933.0,-29139.0,-21304.0],"normalized":true,"type":"VEC3"},{"bufferView":94,"componentType":5120,"count":24,"normalized":true,"type":"VEC3"},{"bufferView":95,"componentType":5123,"count":24,"type":"SCALAR"},{"bufferView":96,"componentType":5122,"count":4452,"max":[-10474.0,-31952.0,32767.0],"min":[-21942.0,-31997.0,23110.0],"normalized":true,"type":"VEC3"},{"bufferView":97,"componentType":5120,"count":4452,"normalized":true,"type":"VEC3"},{"bufferView":98,"componentType":5123,"count":7392,"type":"SCALAR"},{"bufferView":99,"componentType":5122,"count":752,"max":[32767.0,32767.0,26041.0],"min":[-32767.0,-32767.0,-32767.0],"normalized":true,"type":"VEC3"},{"bufferView":100,"componentType":5120,"count":752,"normalized":true,"type":"VEC3"},{"bufferView":101,"componentType":5123,"count":1164,"type":"SCALAR"},{"bufferView":102,"componentType":5122,"count":4014,"max":[32767.0,32767.0,32767.0],"min":[-32767.0,-32767.0,-32767.0],"normalized":true,"type":"VEC3"},{"bufferView":103,"componentType":5120,"count":4014,"normalized":true,"type":"VEC3"},{"bufferView":104,"componentType":5123,"count":4014,"type":"SCALAR"},{"bufferView":105,"componentType":5122,"count":1257,"max":[32767.0,32767.0,32767.0],"min":[-32767.0,-32767.0,-32767.0],"normalized":true,"type":"VEC3"},{"bufferView":106,"componentType":5120,"count":1257,"normalized":true,"type":"VEC3"},{"bufferView":107,"componentType":5123,"count":1257,"type":"SCALAR"},{"bufferView":108,"componentType":5122,"count":216,"max":[32767.0,32767.0,32767.0],"min":[-32767.0,-32767.0,-32767.0],"normalized":true,"type":"VEC3"},{"bufferView":109,"componentType":5120,"count":216,"normalized":true,"type":"VEC3"},{"bufferView":110,"componentType":5123,"count":216,"type":"SCALAR"},{"bufferView":111,"componentType":5122,"count":108,"max":[-5096.0,-12573.0,-15122.0],"min":[-6100.0,-14618.0,-15414.0],"normalized":true,"type":"VEC3"},{"bufferView":112,"componentType":5120,"count":108,"normalized":true,"type":"VEC3"},{"bufferView":113,"componentType":5123,"count":180,"type":"SCALAR"},{"bufferView":114,"componentType":5122,"count":288,"max":[-27937.0,26192.0,-5614.0],"min":[-32767.0,-6034.0,-10070.0],"normalized":true,"type":"VEC3"},{"bufferView":115,"componentType":5120,"count":288,"normalized":true,"type":"VEC3"},{"bufferView":116,"componentType":5123,"count":396,"type":"SCALAR"},{"bufferView":117,"componentType":5122,"count":672,"max":[-17904.0,-18889.0,-11855.0],"min":[-24671.0,-23435.0,-14756.0],"normalized":true,"type":"VEC3"},{"bufferView":118,"componentType":5120,"count":672,"normalized":true,"type":"VEC3"},{"bufferView":119,"componentType":5123,"count":924,"type":"SCALAR"},{"bufferView":120,"componentType":5122,"count":652,"max":[-19026.0,-27885.0,-11353.0],"min":[-23294.0,-31555.0,-12709.0],"normalized":true,"type":"VEC3"},{"bufferView":121,"componentType":5120,"count":652,"normalized":true,"type":"VEC3"},{"bufferView":122,"componentType":5123,"count":978,"type":"SCALAR"},{"bufferView":123,"componentType":5122,"count":304,"max":[-23306.0,-29520.0,-18172.0],"min":[-25634.0,-32722.0,-20472.0],"normalized":true,"type":"VEC3"},{"bufferView":124,"componentType":5120,"count":304,"normalized":true,"type":"VEC3"},{"bufferView":125,"componentType":5123,"count":498,"type":"SCALAR"},{"bufferView":126,"componentType":5122,"count":24566,"max":[31148.0,32767.0,10453.0],"min":[-28861.0,-32767.0,-27906.0],"normalized":true,"type":"VEC3"},{"bufferView":127,"componentType":5120,"count":24566,"normalized":true,"type":"VEC3"},{"bufferView":128,"componentType":5123,"count":38124,"type":"SCALAR"},{"bufferView":129,"componentType":5122,"count":144,"max":[-4511.0,-14641.0,-14193.0],"min":[-6685.0,-16243.0,-16343.0],"normalized":true,"type":"VEC3"},{"bufferView":130,"componentType":5120,"count":144,"normalized":true,"type":"VEC3"},{"bufferView":131,"componentType":5123,"count":216,"type":"SCALAR"},{"bufferView":132,"componentType":5122,"count":1184,"max":[32767.0,29394.0,32767.0],"min":[-31167.0,1755.0,-21241.0],"normalized":true,"type":"VEC3"},{"bufferView":133,"componentType":5120,"count":1184,"normalized":true,"type":"VEC3"},{"bufferView":134,"componentType":5121,"count":1184,"normalized":true,"type":"VEC4"},{"bufferView":135,"componentType":5123,"count":1794,"type":"SCALAR"},{"bufferView":136,"componentType":5122,"count":96,"max":[-18613.0,-21447.0,-10926.0],"min":[-23666.0,-30120.0,-13039.0],"normalized":true,"type":"VEC3"},{"bufferView":137,"componentType":5120,"count":96,"normalized":true,"type":"VEC3"},{"bufferView":138,"componentType":5123,"count":132,"type":"SCALAR"},{"bufferView":139,"componentType":5122,"count":48,"max":[-7499.0,-30898.0,-16836.0],"min":[-8884.0,-30898.0,-18206.0],"normalized":true,"type":"VEC3"},{"bufferView":140,"componentType":5120,"count":48,"normalized":true,"type":"VEC3"},{"bufferView":141,"componentType":5123,"count":72,"type":"SCALAR"},{"bufferView":142,"componentType":5122,"count":432,"max":[15557.0,-31727.0,-26423.0],"min":[-20789.0,-32664.0,-32767.0],"normalized":true,"type":"VEC3"},{"bufferView":143,"componentType":5120,"count":432,"normalized":true,"type":"VEC3"},{"bufferView":144,"componentType":5123,"count":576,"type":"SCALAR"},{"bufferView":145,"componentType":5122,"count":16938,"max":[31154.0,32767.0,10453.0],"min":[-28919.0,-32767.0,-27889.0],"normalized":true,"type":"VEC3"},{"bufferView":146,"componentType":5120,"count":16938,"normalized":true,"type":"VEC3"},{"bufferView":147,"componentType":5123,"count":16938,"type":"SCALAR"},{"bufferView":148,"componentType":5122,"count":2673,"max":[32767.0,29394.0,32767.0],"min":[-32767.0,-32727.0,-32767.0],"normalized":true,"type":"VEC3"},{"bufferView":149,"componentType":5120,"count":2673,"normalized":true,"type":"VEC3"},{"bufferView":150,"componentType":5121,"count":2673,"normalized":true,"type":"VEC4"},{"bufferView":151,"componentType":5123,"count":2673,"type":"SCALAR"},{"bufferView":152,"componentType":5122,"count":4890,"max":[31161.0,32767.0,8655.0],"min":[-28887.0,-32767.0,-32767.0],"normalized":true,"type":"VEC3"},{"bufferView":153,"componentType":5120,"count":4890,"normalized":true,"type":"VEC3"},{"bufferView":154,"componentType":5123,"count":4890,"type":"SCALAR"},{"bufferView":155,"componentType":5122,"count":810,"max":[32767.0,29394.0,32767.0],"min":[-32767.0,-32484.0,-25593.0],"normalized":true,"type":"VEC3"},{"bufferView":156,"componentType":5120,"count":810,"normalized":true,"type":"VEC3"},{"bufferView":157,"componentType":5121,"count":810,"normalized":true,"type":"VEC4"},{"bufferView":158,"componentType":5123,"count":810,"type":"SCALAR"},{"bufferView":159,"componentType":5122,"count":972,"max":[31267.0,32767.0,8896.0],"min":[-31265.0,-32767.0,-32767.0],"normalized":true,"type":"VEC3"},{"bufferView":160,"componentType":5120,"count":972,"normalized":true,"type":"VEC3"},{"bufferView":161,"componentType":5123,"count":972,"type":"SCALAR"},{"bufferView":162,"componentType":5122,"count":144,"max":[32767.0,22620.0,32767.0],"min":[-32767.0,-30962.0,-25172.0],"normalized":true,"type":"VEC3"},{"bufferView":163,"componentType":5120,"count":144,"normalized":true,"type":"VEC3"},{"bufferView":164,"componentType":5121,"count":144,"normalized":true,"type":"VEC4"},{"bufferView":165,"componentType":5123,"count":144,"type":"SCALAR"},{"bufferView":166,"componentType":5122,"count":6708,"normalized":true,"type":"VEC2"},{"bufferView":167,"componentType":5122,"count":10920,"normalized":true,"type":"VEC2"},{"bufferView":168,"componentType":5122,"count":130,"normalized":true,"type":"VEC2"},{"bufferView":169,"componentType":5122,"count":2904,"normalized":true,"type":"VEC2"},{"bufferView":170,"componentType":5122,"count":96,"normalized":true,"type":"VEC2"},{"bufferView":171,"componentType":5122,"count":96,"normalized":true,"type":"VEC2"},{"bufferView":172,"componentType":5122,"count":5478,"normalized":true,"type":"VEC2"},{"bufferView":173,"componentType":5122,"count":96,"normalized":true,"type":"VEC2"},{"bufferView":174,"componentType":5122,"count":2151,"normalized":true,"type":"VEC2"},{"bufferView":175,"componentType":5122,"count":8658,"normalized":true,"type":"VEC2"},{"bufferView":176,"componentType":5122,"count":24,"normalized":true,"type":"VEC2"},{"bufferView":177,"componentType":5122,"count":630,"normalized":true,"type":"VEC2"},{"bufferView":178,"componentType":5122,"count":4005,"normalized":true,"type":"VEC2"},{"bufferView":179,"componentType":5122,"count":117,"normalized":true,"type":"VEC2"},{"bufferView":180,"componentType":5122,"count":819,"normalized":true,"type":"VEC2"},{"bufferView":181,"componentType":5122,"count":3108,"normalized":true,"type":"VEC2"},{"bufferView":182,"componentType":5122,"count":168,"normalized":true,"type":"VEC2"},{"bufferView":183,"componentType":5122,"count":112,"normalized":true,"type":"VEC2"},{"bufferView":184,"componentType":5122,"count":288,"normalized":true,"type":"VEC2"},{"bufferView":185,"componentType":5122,"count":39004,"normalized":true,"type":"VEC2"},{"bufferView":186,"componentType":5122,"count":8,"normalized":true,"type":"VEC2"},{"bufferView":187,"componentType":5122,"count":168,"normalized":true,"type":"VEC2"},{"bufferView":188,"componentType":5122,"count":480,"normalized":true,"type":"VEC2"},{"bufferView":189,"componentType":5122,"count":1424,"normalized":true,"type":"VEC2"},{"bufferView":190,"componentType":5122,"count":27828,"normalized":true,"type":"VEC2"},{"bufferView":191,"componentType":5122,"count":8,"normalized":true,"type":"VEC2"},{"bufferView":192,"componentType":5122,"count":321,"normalized":true,"type":"VEC2"},{"bufferView":193,"componentType":5122,"count":1023,"normalized":true,"type":"VEC2"},{"bufferView":194,"componentType":5122,"count":8843,"normalized":true,"type":"VEC2"},{"bufferView":195,"componentType":5122,"count":102,"normalized":true,"type":"VEC2"},{"bufferView":196,"componentType":5122,"count":1590,"normalized":true,"type":"VEC2"},{"bufferView":197,"componentType":5122,"count":24,"normalized":true,"type":"VEC2"},{"bufferView":198,"componentType":5122,"count":4452,"normalized":true,"type":"VEC2"},{"bufferView":199,"componentType":5122,"count":752,"normalized":true,"type":"VEC2"},{"bufferView":200,"componentType":5122,"count":4014,"normalized":true,"type":"VEC2"},{"bufferView":201,"componentType":5122,"count":1257,"normalized":true,"type":"VEC2"},{"bufferView":202,"componentType":5122,"count":216,"normalized":true,"type":"VEC2"},{"bufferView":203,"componentType":5122,"count":108,"normalized":true,"type":"VEC2"},{"bufferView":204,"componentType":5122,"count":288,"normalized":true,"type":"VEC2"},{"bufferView":205,"componentType":5122,"count":672,"normalized":true,"type":"VEC2"},{"bufferView":206,"componentType":5122,"count":652,"normalized":true,"type":"VEC2"},{"bufferView":207,"componentType":5122,"count":304,"normalized":true,"type":"VEC2"},{"bufferView":208,"componentType":5122,"count":24566,"normalized":true,"type":"VEC2"},{"bufferView":209,"componentType":5122,"count":144,"normalized":true,"type":"VEC2"},{"bufferView":210,"componentType":5122,"count":1184,"normalized":true,"type":"VEC2"},{"bufferView":211,"componentType":5122,"count":96,"normalized":true,"type":"VEC2"},{"bufferView":212,"componentType":5122,"count":48,"normalized":true,"type":"VEC2"},{"bufferView":213,"componentType":5122,"count":432,"normalized":true,"type":"VEC2"},{"bufferView":214,"componentType":5122,"count":16938,"normalized":true,"type":"VEC2"},{"bufferView":215,"componentType":5122,"count":2673,"normalized":true,"type":"VEC2"},{"bufferView":216,"componentType":5122,"count":4890,"normalized":true,"type":"VEC2"},{"bufferView":217,"componentType":5122,"count":810,"normalized":true,"type":"VEC2"},{"bufferView":218,"componentType":5122,"count":972,"normalized":true,"type":"VEC2"},{"bufferView":219,"componentType":5122,"count":144,"normalized":true,"type":"VEC2"}],"asset":{"generator":"evermore assetgen","version":"2.0"},"bufferViews":[{"buffer":0,"byteLength":53664,"byteOffset":0,"byteStride":8,"target":34962},{"buffer":0,"byteLength":26832,"byteOffset":53664,"byteStride":4,"target":34962},{"buffer":0,"byteLength":22944,"byteOffset":80496,"target":34963},{"buffer":0,"byteLength":87360,"byteOffset":103440,"byteStride":8,"target":34962},{"buffer":0,"byteLength":43680,"byteOffset":190800,"byteStride":4,"target":34962},{"buffer":0,"byteLength":36264,"byteOffset":234480,"target":34963},{"buffer":0,"byteLength":1040,"byteOffset":270744,"byteStride":8,"target":34962},{"buffer":0,"byteLength":520,"byteOffset":271784,"byteStride":4,"target":34962},{"buffer":0,"byteLength":396,"byteOffset":272304,"target":34963},{"buffer":0,"byteLength":23232,"byteOffset":272700,"byteStride":8,"target":34962},{"buffer":0,"byteLength":11616,"byteOffset":295932,"byteStride":4,"target":34962},{"buffer":0,"byteLength":8928,"byteOffset":307548,"target":34963},{"buffer":0,"byteLength":768,"byteOffset":316476,"byteStride":8,"target":34962},{"buffer":0,"byteLength":384,"byteOffset":317244,"byteStride":4,"target":34962},{"buffer":0,"byteLength":264,"byteOffset":317628,"target":34963},{"buffer":0,"byteLength":768,"byteOffset":317892,"byteStride":8,"target":34962},{"buffer":0,"byteLength":384,"byteOffset":318660,"byteStride":4,"target":34962},{"buffer":0,"byteLength":264,"byteOffset":319044,"target":34963},{"buffer":0,"byteLength":43824,"byteOffset":319308,"byteStride":8,"target":34962},{"buffer":0,"byteLength":21912,"byteOffset":363132,"byteStride":4,"target":34962},{"buffer":0,"byteLength":10956,"byteOffset":385044,"target":34963},{"buffer":0,"byteLength":768,"byteOffset":396000,"byteStride":8,"target":34962},{"buffer":0,"byteLength":384,"byteOffset":396768,"byteStride":4,"target":34962},{"buffer":0,"byteLength":192,"byteOffset":397152,"target":34963},{"buffer":0,"byteLength":17208,"byteOffset":397344,"byteStride":8,"target":34962},{"buffer":0,"byteLength":8604,"byteOffset":414552,"byteStride":4,"target":34962},{"buffer":0,"byteLength":4302,"byteOffset":423156,"target":34963},{"buffer":0,"byteLength":69264,"byteOffset":427460,"byteStride":8,"target":34962},{"buffer":0,"byteLength":34632,"byteOffset":496724,"byteStride":4,"target":34962},{"buffer":0,"byteLength":17316,"byteOffset":531356,"target":34963},{"buffer":0,"byteLength":192,"byteOffset":548672,"byteStride":8,"target":34962},{"buffer":0,"byteLength":96,"byteOffset":548864,"byteStride":4,"target":34962},{"buffer":0,"byteLength":48,"byteOffset":548960,"target":34963},{"buffer":0,"byteLength":5040,"byteOffset":549008,"byteStride":8,"target":34962},{"buffer":0,"byteLength":2520,"byteOffset":554048,"byteStride":4,"target":34962},{"buffer":0,"byteLength":1260,"byteOffset":556568,"target":34963},{"buffer":0,"byteLength":32040,"byteOffset":557828,"byteStride":8,"target":34962},{"buffer":0,"byteLength":16020,"byteOffset":589868,"byteStride":4,"target":34962},{"buffer":0,"byteLength":8010,"byteOffset":605888,"target":34963},{"buffer":0,"byteLength":936,"byteOffset":613900,"byteStride":8,"target":34962},{"buffer":0,"byteLength":468,"byteOffset":614836,"byteStride":4,"target":34962},{"buffer":0,"byteLength":234,"byteOffset":615304,"target":34963},{"buffer":0,"byteLength":6552,"byteOffset":615540,"byteStride":8,"target":34962},{"buffer":0,"byteLength":3276,"byteOffset":622092,"byteStride":4,"target":34962},{"buffer":0,"byteLength":1638,"byteOffset":625368,"target":34963},{"buffer":0,"byteLength":24864,"byteOffset":627008,"byteStride":8,"target":34962},{"buffer":0,"byteLength":12432,"byteOffset":651872,"byteStride":4,"target":34962},{"buffer":0,"byteLength":10320,"byteOffset":664304,"target":34963},{"buffer":0,"byteLength":1344,"byteOffset":674624,"byteStride":8,"target":34962},{"buffer":0,"byteLength":672,"byteOffset":675968,"byteStride":4,"target":34962},{"buffer":0,"byteLength":1512,"byteOffset":676640,"target":34963},{"buffer":0,"byteLength":896,"byteOffset":678152,"byteStride":8,"target":34962},{"buffer":0,"byteLength":448,"byteOffset":679048,"byteStride":4,"target":34962},{"buffer":0,"byteLength":1008,"byteOffset":679496,"target":34963},{"buffer":0,"byteLength":2304,"byteOffset":680504,"byteStride":8,"target":34962},{"buffer":0,"byteLength":1152,"byteOffset":682808,"byteStride":4,"target":34962},{"buffer":0,"byteLength":792,"byteOffset":683960,"target":34963},{"buffer":0,"byteLength":312032,"byteOffset":684752,"byteStride":8,"target":34962},{"buffer":0,"byteLength":156016,"byteOffset":996784,"byteStride":4,"target":34962},{"buffer":0,"byteLength":114936,"byteOffset":1152800,"target":34963},{"buffer":0,"byteLength":64,"byteOffset":1267736,"byteStride":8,"target":34962},{"buffer":0,"byteLength":32,"byteOffset":1267800,"byteStride":4,"target":34962},{"buffer":0,"byteLength":24,"byteOffset":1267832,"target":34963},{"buffer":0,"byteLength":1344,"byteOffset":1267856,"byteStride":8,"target":34962},{"buffer":0,"byteLength":672,"byteOffset":1269200,"byteStride":4,"target":34962},{"buffer":0,"byteLength":624,"byteOffset":1269872,"target":34963},{"buffer":0,"byteLength":3840,"byteOffset":1270496,"byteStride":8,"target":34962},{"buffer":0,"byteLength":1920,"byteOffset":1274336,"byteStride":4,"target":34962},{"buffer":0,"byteLength":1320,"byteOffset":1276256,"target":34963},{"buffer":0,"byteLength":11392,"byteOffset":1277576,"byteStride":8,"target":34962},{"buffer":0,"byteLength":5696,"byteOffset":1288968,"byteStride":4,"target":34962},{"buffer":0,"byteLength":4620,"byteOffset":1294664,"target":34963},{"buffer":0,"byteLength":222624,"byteOffset":1299284,"byteStride":8,"target":34962},{"buffer":0,"byteLength":111312,"byteOffset":1521908,"byteStride":4,"target":34962},{"buffer":0,"byteLength":55656,"byteOffset":1633220,"target":34963},{"buffer":0,"byteLength":64,"byteOffset":1688876,"byteStride":8,"target":34962},{"buffer":0,"byteLength":32,"byteOffset":1688940,"byteStride":4,"target":34962},{"buffer":0,"byteLength":24,"byteOffset":1688972,"target":34963},{"buffer":0,"byteLength":2568,"byteOffset":1688996,"byteStride":8,"target":34962},{"buffer":0,"byteLength":1284,"byteOffset":1691564,"byteStride":4,"target":34962},{"buffer":0,"byteLength":642,"byteOffset":1692848,"target":34963},{"buffer":0,"byteLength":8184,"byteOffset":1693492,"byteStride":8,"target":34962},{"buffer":0,"byteLength":4092,"byteOffset":1701676,"byteStride":4,"target":34962},{"buffer":0,"byteLength":2046,"byteOffset":1705768,"target":34963},{"buffer":0,"byteLength":70744,"byteOffset":1707816,"byteStride":8,"target":34962},{"buffer":0,"byteLength":35372,"byteOffset":1778560,"byteStride":4,"target":34962},{"buffer":0,"byteLength":17694,"byteOffset":1813932,"target":34963},{"buffer":0,"byteLength":816,"byteOffset":1831628,"byteStride":8,"target":34962},{"buffer":0,"byteLength":408,"byteOffset":1832444,"byteStride":4,"target":34962},{"buffer":0,"byteLength":204,"byteOffset":1832852,"target":34963},{"buffer":0,"byteLength":12720,"byteOffset":1833056,"byteStride":8,"target":34962},{"buffer":0,"byteLength":6360,"byteOffset":1845776,"byteStride":4,"target":34962},{"buffer":0,"byteLength":3180,"byteOffset":1852136,"target":34963},{"buffer":0,"byteLength":192,"byteOffset":1855316,"byteStride":8,"target":34962},{"buffer":0,"byteLength":96,"byteOffset":1855508,"byteStride":4,"target":34962},{"buffer":0,"byteLength":48,"byteOffset":1855604,"target":34963},{"buffer":0,"byteLength":35616,"byteOffset":1855652,"byteStride":8,"target":34962},{"buffer":0,"byteLength":17808,"byteOffset":1891268,"byteStride":4,"target":34962},{"buffer":0,"byteLength":14784,"byteOffset":1909076,"target":34963},{"buffer":0,"byteLength":6016,"byteOffset":1923860,"byteStride":8,"target":34962},{"buffer":0,"byteLength":3008,"byteOffset":1929876,"byteStride":4,"target":34962},{"buffer":0,"byteLength":2328,"byteOffset":1932884,"target":34963},{"buffer":0,"byteLength":32112,"byteOffset":1935212,"byteStride":8,"target":34962},{"buffer":0,"byteLength":16056,"byteOffset":1967324,"byteStride":4,"target":34962},{"buffer":0,"byteLength":8028,"byteOffset":1983380,"target":34963},{"buffer":0,"byteLength":10056,"byteOffset":1991408,"byteStride":8,"target":34962},{"buffer":0,"byteLength":5028,"byteOffset":2001464,"byteStride":4,"target":34962},{"buffer":0,"byteLength":2514,"byteOffset":2006492,"target":34963},{"buffer":0,"byteLength":1728,"byteOffset":2009008,"byteStride":8,"target":34962},{"buffer":0,"byteLength":864,"byteOffset":2010736,"byteStride":4,"target":34962},{"buffer":0,"byteLength":432,"byteOffset":2011600,"target":34963},{"buffer":0,"byteLength":864,"byteOffset":2012032,"byteStride":8,"target":34962},{"buffer":0,"byteLength":432,"byteOffset":2012896,"byteStride":4,"target":34962},{"buffer":0,"byteLength":360,"byteOffset":2013328,"target":34963},{"buffer":0,"byteLength":2304,"byteOffset":2013688,"byteStride":8,"target":34962},{"buffer":0,"byteLength":1152,"byteOffset":2015992,"byteStride":4,"target":34962},{"buffer":0,"byteLength":792,"byteOffset":2017144,"target":34963},{"buffer":0,"byteLength":5376,"byteOffset":2017936,"byteStride":8,"target":34962},{"buffer":0,"byteLength":2688,"byteOffset":2023312,"byteStride":4,"target":34962},{"buffer":0,"byteLength":1848,"byteOffset":2026000,"target":34963},{"buffer":0,"byteLength":5216,"byteOffset":2027848,"byteStride":8,"target":34962},{"buffer":0,"byteLength":2608,"byteOffset":2033064,"byteStride":4,"target":34962},{"buffer":0,"byteLength":1956,"byteOffset":2035672,"target":34963},{"buffer":0,"byteLength":2432,"byteOffset":2037628,"byteStride":8,"target":34962},{"buffer":0,"byteLength":1216,"byteOffset":2040060,"byteStride":4,"target":34962},{"buffer":0,"byteLength":996,"byteOffset":2041276,"target":34963},{"buffer":0,"byteLength":196528,"byteOffset":2042272,"byteStride":8,"target":34962},{"buffer":0,"byteLength":98264,"byteOffset":2238800,"byteStride":4,"target":34962},{"buffer":0,"byteLength":76248,"byteOffset":2337064,"target":34963},{"buffer":0,"byteLength":1152,"byteOffset":2413312,"byteStride":8,"target":34962},{"buffer":0,"byteLength":576,"byteOffset":2414464,"byteStride":4,"target":34962},{"buffer":0,"byteLength":432,"byteOffset":2415040,"target":34963},{"buffer":0,"byteLength":9472,"byteOffset":2415472,"byteStride":8,"target":34962},{"buffer":0,"byteLength":4736,"byteOffset":2424944,"byteStride":4,"target":34962},{"buffer":0,"byteLength":4736,"byteOffset":2429680,"byteStride":4,"target":34962},{"buffer":0,"byteLength":3588,"byteOffset":2434416,"target":34963},{"buffer":0,"byteLength":768,"byteOffset":2438004,"byteStride":8,"target":34962},{"buffer":0,"byteLength":384,"byteOffset":2438772,"byteStride":4,"target":34962},{"buffer":0,"byteLength":264,"byteOffset":2439156,"target":34963},{"buffer":0,"byteLength":384,"byteOffset":2439420,"byteStride":8,"target":34962},{"buffer":0,"byteLength":192,"byteOffset":2439804,"byteStride":4,"target":34962},{"buffer":0,"byteLength":144,"byteOffset":2439996,"target":34963},{"buffer":0,"byteLength":3456,"byteOffset":2440140,"byteStride":8,"target":34962},{"buffer":0,"byteLength":1728,"byteOffset":2443596,"byteStride":4,"target":34962},{"buffer":0,"byteLength":1152,"byteOffset":2445324,"target":34963},{"buffer":0,"byteLength":135504,"byteOffset":2446476,"byteStride":8,"target":34962},{"buffer":0,"byteLength":67752,"byteOffset":2581980,"byteStride":4,"target":34962},{"buffer":0,"byteLength":33876,"byteOffset":2649732,"target":34963},{"buffer":0,"byteLength":21384,"byteOffset":2683608,"byteStride":8,"target":34962},{"buffer":0,"byteLength":10692,"byteOffset":2704992,"byteStride":4,"target":34962},{"buffer":0,"byteLength":10692,"byteOffset":2715684,"byteStride":4,"target":34962},{"buffer":0,"byteLength":5346,"byteOffset":2726376,"target":34963},{"buffer":0,"byteLength":39120,"byteOffset":2731724,"byteStride":8,"target":34962},{"buffer":0,"byteLength":19560,"byteOffset":2770844,"byteStride":4,"target":34962},{"buffer":0,"byteLength":9780,"byteOffset":2790404,"target":34963},{"buffer":0,"byteLength":6480,"byteOffset":2800184,"byteStride":8,"target":34962},{"buffer":0,"byteLength":3240,"byteOffset":2806664,"byteStride":4,"target":34962},{"buffer":0,"byteLength":3240,"byteOffset":2809904,"byteStride":4,"target":34962},{"buffer":0,"byteLength":1620,"byteOffset":2813144,"target":34963},{"buffer":0,"byteLength":7776,"byteOffset":2814764,"byteStride":8,"target":34962},{"buffer":0,"byteLength":3888,"byteOffset":2822540,"byteStride":4,"target":34962},{"buffer":0,"byteLength":1944,"byteOffset":2826428,"target":34963},{"buffer":0,"byteLength":1152,"byteOffset":2828372,"byteStride":8,"target":34962},{"buffer":0,"byteLength":576,"byteOffset":2829524,"byteStride":4,"target":34962},{"buffer":0,"byteLength":576,"byteOffset":2830100,"byteStride":4,"target":34962},{"buffer":0,"byteLength":288,"byteOffset":2830676,"target":34963},{"buffer":0,"byteLength":26832,"byteOffset":2830964,"byteStride":4,"target":34962},{"buffer":0,"byteLength":43680,"byteOffset":2857796,"byteStride":4,"target":34962},{"buffer":0,"byteLength":520,"byteOffset":2901476,"byteStride":4,"target":34962},{"buffer":0,"byteLength":11616,"byteOffset":2901996,"byteStride":4,"target":34962},{"buffer":0,"byteLength":384,"byteOffset":2913612,"byteStride":4,"target":34962},{"buffer":0,"byteLength":384,"byteOffset":2913996,"byteStride":4,"target":34962},{"buffer":0,"byteLength":21912,"byteOffset":2914380,"byteStride":4,"target":34962},{"buffer":0,"byteLength":384,"byteOffset":2936292,"byteStride":4,"target":34962},{"buffer":0,"byteLength":8604,"byteOffset":2936676,"byteStride":4,"target":34962},{"buffer":0,"byteLength":34632,"byteOffset":2945280,"byteStride":4,"target":34962},{"buffer":0,"byteLength":96,"byteOffset":2979912,"byteStride":4,"target":34962},{"buffer":0,"byteLength":2520,"byteOffset":2980008,"byteStride":4,"target":34962},{"buffer":0,"byteLength":16020,"byteOffset":2982528,"byteStride":4,"target":34962},{"buffer":0,"byteLength":468,"byteOffset":2998548,"byteStride":4,"target":34962},{"buffer":0,"byteLength":3276,"byteOffset":2999016,"byteStride":4,"target":34962},{"buffer":0,"byteLength":12432,"byteOffset":3002292,"byteStride":4,"target":34962},{"buffer":0,"byteLength":672,"byteOffset":3014724,"byteStride":4,"target":34962},{"buffer":0,"byteLength":448,"byteOffset":3015396,"byteStride":4,"target":34962},{"buffer":0,"byteLength":1152,"byteOffset":3015844,"byteStride":4,"target":34962},{"buffer":0,"byteLength":156016,"byteOffset":3016996,"byteStride":4,"target":34962},{"buffer":0,"byteLength":32,"byteOffset":3173012,"byteStride":4,"target":34962},{"buffer":0,"byteLength":672,"byteOffset":3173044,"byteStride":4,"target":34962},{"buffer":0,"byteLength":1920,"byteOffset":3173716,"byteStride":4,"target":34962},{"buffer":0,"byteLength":5696,"byteOffset":3175636,"byteStride":4,"target":34962},{"buffer":0,"byteLength":111312,"byteOffset":3181332,"byteStride":4,"target":34962},{"buffer":0,"byteLength":32,"byteOffset":3292644,"byteStride":4,"target":34962},{"buffer":0,"byteLength":1284,"byteOffset":3292676,"byteStride":4,"target":34962},{"buffer":0,"byteLength":4092,"byteOffset":3293960,"byteStride":4,"target":34962},{"buffer":0,"byteLength":35372,"byteOffset":3298052,"byteStride":4,"target":34962},{"buffer":0,"byteLength":408,"byteOffset":3333424,"byteStride":4,"target":34962},{"buffer":0,"byteLength":6360,"byteOffset":3333832,"byteStride":4,"target":34962},{"buffer":0,"byteLength":96,"byteOffset":3340192,"byteStride":4,"target":34962},{"buffer":0,"byteLength":17808,"byteOffset":3340288,"byteStride":4,"target":34962},{"buffer":0,"byteLength":3008,"byteOffset":3358096,"byteStride":4,"target":34962},{"buffer":0,"byteLength":16056,"byteOffset":3361104,"byteStride":4,"target":34962},{"buffer":0,"byteLength":5028,"byteOffset":3377160,"byteStride":4,"target":34962},{"buffer":0,"byteLength":864,"byteOffset":3382188,"byteStride":4,"target":34962},{"buffer":0,"byteLength":432,"byteOffset":3383052,"byteStride":4,"target":34962},{"buffer":0,"byteLength":1152,"byteOffset":3383484,"byteStride":4,"target":34962},{"buffer":0,"byteLength":2688,"byteOffset":3384636,"byteStride":4,"target":34962},{"buffer":0,"byteLength":2608,"byteOffset":3387324,"byteStride":4,"target":34962},{"buffer":0,"byteLength":1216,"byteOffset":3389932,"byteStride":4,"target":34962},{"buffer":0,"byteLength":98264,"byteOffset":3391148,"byteStride":4,"target":34962},{"buffer":0,"byteLength":576,"byteOffset":3489412,"byteStride":4,"target":34962},{"buffer":0,"byteLength":4736,"byteOffset":3489988,"byteStride":4,"target":34962},{"buffer":0,"byteLength":384,"byteOffset":3494724,"byteStride":4,"target":34962},{"buffer":0,"byteLength":192,"byteOffset":3495108,"byteStride":4,"target":34962},{"buffer":0,"byteLength":1728,"byteOffset":3495300,"byteStride":4,"target":34962},{"buffer":0,"byteLength":67752,"byteOffset":3497028,"byteStride":4,"target":34962},{"buffer":0,"byteLength":10692,"byteOffset":3564780,"byteStride":4,"target":34962},{"buffer":0,"byteLength":19560,"byteOffset":3575472,"byteStride":4,"target":34962},{"buffer":0,"byteLength":3240,"byteOffset":3595032,"byteStride":4,"target":34962},{"buffer":0,"byteLength":3888,"byteOffset":3598272,"byteStride":4,"target":34962},{"buffer":0,"byteLength":576,"byteOffset":3602160,"byteStride":4,"target":34962}],"buffers":[{"byteLength":3602736,"uri":"bathhouse.bin"}],"extensionsRequired":["KHR_mesh_quantization","KHR_texture_transform"],"extensionsUsed":["KHR_mesh_quantization","KHR_texture_transform","MSFT_lod"],"extras":{"hm":{"batching":true,"cellSize":16.0,"cells":[{"cullAt":null,"interior":null,"key":"0_0","lodPrims":[6,4,3,2],"lodTris":[11510,5461,1553,312],"max":[11.963,9.901,9.065],"min":[-8.098,0.001,-6.949]},{"cullAt":null,"interior":null,"key":"0_n1","lodPrims":[9,4,2,2],"lodTris":[22526,9728,2983,538],"max":[11.557,9.859,6.969],"min":[-8.129,-0.13,-8.664]},{"cullAt":null,"interior":null,"key":"n1_0","lodPrims":[2,1,1,1],"lodTris":[2852,1338,419,72],"max":[7.698,8.5,7.819],"min":[-8.69,-0.1,-6.363]},{"cullAt":null,"interior":null,"key":"n1_n1","lodPrims":[11,2,2,2],"lodTris":[14630,6537,1900,372],"max":[8.103,9.816,6.994],"min":[-8.692,-0.007,-9.982]}],"instanced":[],"instancing":true,"interiors":[],"lod":true,"lodDistances":[15.0,40.0,100.0],"stats":{"groups":4,"lodPrims":[28,11,8,7],"lodTris":[51518,23064,6855,1294]},"venue":"bathhouse"}},"images":[{"uri":"../textures/timber_charred_albedo.png"},{"uri":"../textures/timber_charred_orm.png"},{"uri":"../textures/timber_charred_normal.png"},{"uri":"../textures/rubble_albedo.png"},{"uri":"../textures/rubble_orm.png"},{"uri":"../textures/rubble_normal.png"},{"uri":"../textures/brick_albedo.png"},{"uri":"../textures/brick_orm.png"},{"uri":"../textures/brick_normal.png"},{"uri":"../textures/coal_albedo.png"},{"uri":"../textures/coal_orm.png"},{"uri":"../textures/coal_normal.png"},{"uri":"../textures/coal_emissive.png"},{"uri":"../textures/cinder_albedo.png"},{"uri":"../textures/cinder_orm.png"},{"uri":"../textures/cinder_normal.png"},{"uri":"../textures/plaster_albedo.png"},{"uri":"../textures/plaster_orm.png"},{"uri":"../textures/plaster_normal.png"},{"uri":"../textures/plaster_shade_albedo.png"},{"uri":"../textures/plaster_shade_orm.png"},{"uri":"../textures/plaster_shade_normal.png"},{"uri":"../textures/kit_albedo.png"},{"uri":"../textures/kit_orm.png"},{"uri":"../textures/kit_normal.png"},{"uri":"../textures/oak_albedo.png"},{"uri":"../textures/oak_orm.png"},{"uri":"../textures/oak_normal.png"},{"uri":"../textures/glass_lit_albedo.png"},{"uri":"../textures/glass_lit_orm.png"},{"uri":"../textures/glass_lit_normal.png"},{"uri":"../textures/glass_lit_emissive.png"},{"uri":"../textures/oak_dark_albedo.png"},{"uri":"../textures/oak_dark_orm.png"},{"uri":"../textures/oak_dark_normal.png"},{"uri":"../textures/stone_albedo.png"},{"uri":"../textures/stone_orm.png"},{"uri":"../textures/stone_normal.png"},{"uri":"../textures/terracotta_albedo.png"},{"uri":"../textures/terracotta_orm.png"},{"uri":"../textures/terracotta_normal.png"},{"uri":"../textures/lead_albedo.png"},{"uri":"../textures/lead_orm.png"},{"uri":"../textures/lead_normal.png"},{"uri":"../textures/ashlar_albedo.png"},{"uri":"../textures/ashlar_orm.png"},{"uri":"../textures/ashlar_normal.png"},{"uri":"../textures/endgrain_albedo.png"},{"uri":"../textures/endgrain_orm.png"},{"uri":"../textures/endgrain_normal.png"},{"uri":"../textures/cloth_blue_albedo.png"},{"uri":"../textures/cloth_blue_orm.png"},{"uri":"../textures/cloth_blue_normal.png"},{"uri":"../textures/cloth_green_albedo.png"},{"uri":"../textures/cloth_green_orm.png"},{"uri":"../textures/cloth_green_normal.png"},{"uri":"../textures/water_flow_albedo.png"},{"uri":"../textures/water_flow_orm.png"},{"uri":"../textures/water_flow_normal.png"},{"uri":"../textures/mud_wet_albedo.png"},{"uri":"../textures/mud_wet_orm.png"},{"uri":"../textures/mud_wet_normal.png"},{"uri":"../textures/algae_albedo.png"},{"uri":"../textures/algae_orm.png"},{"uri":"../textures/algae_normal.png"},{"uri":"../textures/weeds_albedo.png"},{"uri":"../textures/weeds_orm.png"},{"uri":"../textures/weeds_normal.png"},{"uri":"../textures/water_albedo.png"},{"uri":"../textures/water_orm.png"},{"uri":"../textures/water_normal.png"},{"uri":"../textures/pottery_slip_albedo.png"},{"uri":"../textures/pottery_slip_orm.png"},{"uri":"../textures/pottery_slip_normal.png"},{"uri":"../textures/alabaster_albedo.png"},{"uri":"../textures/alabaster_orm.png"},{"uri":"../textures/alabaster_normal.png"}],"materials":[{"doubleSided":false,"name":"timber_charred","normalTexture":{"extensions":{"KHR_texture_transform":{"scale":[11.300344840740681,11.300344840740681]}},"index":2,"scale":1.0},"occlusionTexture":{"extensions":{"KHR_texture_transform":{"scale":[11.300344840740681,11.300344840740681]}},"index":1},"pbrMetallicRoughness":{"baseColorFactor":[1,1,1,1],"baseColorTexture":{"extensions":{"KHR_texture_transform":{"scale":[11.300344840740681,11.300344840740681]}},"index":0},"metallicFactor":1.0,"metallicRoughnessTexture":{"extensions":{"KHR_texture_transform":{"scale":[11.300344840740681,11.300344840740681]}},"index":1},"roughnessFactor":1.0}},{"doubleSided":false,"name":"rubble","normalTexture":{"extensions":{"KHR_texture_transform":{"scale":[11.300344840740681,11.300344840740681]}},"index":5,"scale":1.0},"occlusionTexture":{"extensions":{"KHR_texture_transform":{"scale":[11.300344840740681,11.300344840740681]}},"index":4},"pbrMetallicRoughness":{"baseColorFactor":[1,1,1,1],"baseColorTexture":{"extensions":{"KHR_texture_transform":{"scale":[11.300344840740681,11.300344840740681]}},"index":3},"metallicFactor":1.0,"metallicRoughnessTexture":{"extensions":{"KHR_texture_transform":{"scale":[11.300344840740681,11.300344840740681]}},"index":4},"roughnessFactor":1.0}},{"doubleSided":false,"name":"brick","normalTexture":{"extensions":{"KHR_texture_transform":{"scale":[11.300344840740681,11.300344840740681]}},"index":8,"scale":1.0},"occlusionTexture":{"extensions":{"KHR_texture_transform":{"scale":[11.300344840740681,11.300344840740681]}},"index":7},"pbrMetallicRoughness":{"baseColorFactor":[1,1,1,1],"baseColorTexture":{"extensions":{"KHR_texture_transform":{"scale":[11.300344840740681,11.300344840740681]}},"index":6},"metallicFactor":1.0,"metallicRoughnessTexture":{"extensions":{"KHR_texture_transform":{"scale":[11.300344840740681,11.300344840740681]}},"index":7},"roughnessFactor":1.0}},{"doubleSided":false,"emissiveFactor":[1.0,1.0,1.0],"emissiveTexture":{"extensions":{"KHR_texture_transform":{"scale":[11.300344840740681,11.300344840740681]}},"index":12},"name":"coal","normalTexture":{"extensions":{"KHR_texture_transform":{"scale":[11.300344840740681,11.300344840740681]}},"index":11,"scale":1.0},"occlusionTexture":{"extensions":{"KHR_texture_transform":{"scale":[11.300344840740681,11.300344840740681]}},"index":10},"pbrMetallicRoughness":{"baseColorFactor":[1,1,1,1],"baseColorTexture":{"extensions":{"KHR_texture_transform":{"scale":[11.300344840740681,11.300344840740681]}},"index":9},"metallicFactor":1.0,"metallicRoughnessTexture":{"extensions":{"KHR_texture_transform":{"scale":[11.300344840740681,11.300344840740681]}},"index":10},"roughnessFactor":1.0}},{"doubleSided":false,"name":"cinder","normalTexture":{"extensions":{"KHR_texture_transform":{"scale":[11.300344840740681,11.300344840740681]}},"index":15,"scale":1.0},"occlusionTexture":{"extensions":{"KHR_texture_transform":{"scale":[11.300344840740681,11.300344840740681]}},"index":14},"pbrMetallicRoughness":{"baseColorFactor":[1,1,1,1],"baseColorTexture":{"extensions":{"KHR_texture_transform":{"scale":[11.300344840740681,11.300344840740681]}},"index":13},"metallicFactor":1.0,"metallicRoughnessTexture":{"extensions":{"KHR_texture_transform":{"scale":[11.300344840740681,11.300344840740681]}},"index":14},"roughnessFactor":1.0}},{"doubleSided":false,"name":"plaster","normalTexture":{"extensions":{"KHR_texture_transform":{"scale":[11.300344840740681,11.300344840740681]}},"index":18,"scale":1.0},"occlusionTexture":{"extensions":{"KHR_texture_transform":{"scale":[11.300344840740681,11.300344840740681]}},"index":17},"pbrMetallicRoughness":{"baseColorFactor":[1,1,1,1],"baseColorTexture":{"extensions":{"KHR_texture_transform":{"scale":[11.300344840740681,11.300344840740681]}},"index":16},"metallicFactor":1.0,"metallicRoughnessTexture":{"extensions":{"KHR_texture_transform":{"scale":[11.300344840740681,11.300344840740681]}},"index":17},"roughnessFactor":1.0}},{"doubleSided":false,"name":"plaster_shade","normalTexture":{"extensions":{"KHR_texture_transform":{"scale":[11.300344840740681,11.300344840740681]}},"index":21,"scale":1.0},"occlusionTexture":{"extensions":{"KHR_texture_transform":{"scale":[11.300344840740681,11.300344840740681]}},"index":20},"pbrMetallicRoughness":{"baseColorFactor":[1,1,1,1],"baseColorTexture":{"extensions":{"KHR_texture_transform":{"scale":[11.300344840740681,11.300344840740681]}},"index":19},"metallicFactor":1.0,"metallicRoughnessTexture":{"extensions":{"KHR_texture_transform":{"scale":[11.300344840740681,11.300344840740681]}},"index":20},"roughnessFactor":1.0}},{"doubleSided":true,"name":"kit","normalTexture":{"extensions":{"KHR_texture_transform":{"scale":[11.300344840740681,11.300344840740681]}},"index":24,"scale":1.0},"occlusionTexture":{"extensions":{"KHR_texture_transform":{"scale":[11.300344840740681,11.300344840740681]}},"index":23},"pbrMetallicRoughness":{"baseColorFactor":[1,1,1,1],"baseColorTexture":{"extensions":{"KHR_texture_transform":{"scale":[11.300344840740681,11.300344840740681]}},"index":22},"metallicFactor":1.0,"metallicRoughnessTexture":{"extensions":{"KHR_texture_transform":{"scale":[11.300344840740681,11.300344840740681]}},"index":23},"roughnessFactor":1.0}},{"doubleSided":false,"name":"oak","normalTexture":{"extensions":{"KHR_texture_transform":{"scale":[11.300344840740681,11.300344840740681]}},"index":27,"scale":1.0},"occlusionTexture":{"extensions":{"KHR_texture_transform":{"scale":[11.300344840740681,11.300344840740681]}},"index":26},"pbrMetallicRoughness":{"baseColorFactor":[1,1,1,1],"baseColorTexture":{"extensions":{"KHR_texture_transform":{"scale":[11.300344840740681,11.300344840740681]}},"index":25},"metallicFactor":1.0,"metallicRoughnessTexture":{"extensions":{"KHR_texture_transform":{"scale":[11.300344840740681,11.300344840740681]}},"index":26},"roughnessFactor":1.0}},{"doubleSided":true,"emissiveFactor":[1.0,1.0,1.0],"emissiveTexture":{"extensions":{"KHR_texture_transform":{"scale":[11.300344840740681,11.300344840740681]}},"index":31},"name":"glass_lit","normalTexture":{"extensions":{"KHR_texture_transform":{"scale":[11.300344840740681,11.300344840740681]}},"index":30,"scale":1.0},"occlusionTexture":{"extensions":{"KHR_texture_transform":{"scale":[11.300344840740681,11.300344840740681]}},"index":29},"pbrMetallicRoughness":{"baseColorFactor":[1,1,1,1],"baseColorTexture":{"extensions":{"KHR_texture_transform":{"scale":[11.300344840740681,11.300344840740681]}},"index":28},"metallicFactor":1.0,"metallicRoughnessTexture":{"extensions":{"KHR_texture_transform":{"scale":[11.300344840740681,11.300344840740681]}},"index":29},"roughnessFactor":1.0}},{"doubleSided":false,"name":"oak_dark","normalTexture":{"extensions":{"KHR_texture_transform":{"scale":[11.300344840740681,11.300344840740681]}},"index":34,"scale":1.0},"occlusionTexture":{"extensions":{"KHR_texture_transform":{"scale":[11.300344840740681,11.300344840740681]}},"index":33},"pbrMetallicRoughness":{"baseColorFactor":[1,1,1,1],"baseColorTexture":{"extensions":{"KHR_texture_transform":{"scale":[11.300344840740681,11.300344840740681]}},"index":32},"metallicFactor":1.0,"metallicRoughnessTexture":{"extensions":{"KHR_texture_transform":{"scale":[11.300344840740681,11.300344840740681]}},"index":33},"roughnessFactor":1.0}},{"doubleSided":false,"name":"stone","normalTexture":{"extensions":{"KHR_texture_transform":{"scale":[11.300344840740681,11.300344840740681]}},"index":37,"scale":1.0},"occlusionTexture":{"extensions":{"KHR_texture_transform":{"scale":[11.300344840740681,11.300344840740681]}},"index":36},"pbrMetallicRoughness":{"baseColorFactor":[1,1,1,1],"baseColorTexture":{"extensions":{"KHR_texture_transform":{"scale":[11.300344840740681,11.300344840740681]}},"index":35},"metallicFactor":1.0,"metallicRoughnessTexture":{"extensions":{"KHR_texture_transform":{"scale":[11.300344840740681,11.300344840740681]}},"index":36},"roughnessFactor":1.0}},{"doubleSided":false,"name":"terracotta","normalTexture":{"extensions":{"KHR_texture_transform":{"scale":[11.300344840740681,11.300344840740681]}},"index":40,"scale":1.0},"occlusionTexture":{"extensions":{"KHR_texture_transform":{"scale":[11.300344840740681,11.300344840740681]}},"index":39},"pbrMetallicRoughness":{"baseColorFactor":[1,1,1,1],"baseColorTexture":{"extensions":{"KHR_texture_transform":{"scale":[11.300344840740681,11.300344840740681]}},"index":38},"metallicFactor":1.0,"metallicRoughnessTexture":{"extensions":{"KHR_texture_transform":{"scale":[11.300344840740681,11.300344840740681]}},"index":39},"roughnessFactor":1.0}},{"doubleSided":false,"name":"lead","normalTexture":{"extensions":{"KHR_texture_transform":{"scale":[11.300344840740681,11.300344840740681]}},"index":43,"scale":1.0},"occlusionTexture":{"extensions":{"KHR_texture_transform":{"scale":[11.300344840740681,11.300344840740681]}},"index":42},"pbrMetallicRoughness":{"baseColorFactor":[1,1,1,1],"baseColorTexture":{"extensions":{"KHR_texture_transform":{"scale":[11.300344840740681,11.300344840740681]}},"index":41},"metallicFactor":1.0,"metallicRoughnessTexture":{"extensions":{"KHR_texture_transform":{"scale":[11.300344840740681,11.300344840740681]}},"index":42},"roughnessFactor":1.0}},{"doubleSided":false,"name":"ashlar","normalTexture":{"extensions":{"KHR_texture_transform":{"scale":[11.300344840740681,11.300344840740681]}},"index":46,"scale":1.0},"occlusionTexture":{"extensions":{"KHR_texture_transform":{"scale":[11.300344840740681,11.300344840740681]}},"index":45},"pbrMetallicRoughness":{"baseColorFactor":[1,1,1,1],"baseColorTexture":{"extensions":{"KHR_texture_transform":{"scale":[11.300344840740681,11.300344840740681]}},"index":44},"metallicFactor":1.0,"metallicRoughnessTexture":{"extensions":{"KHR_texture_transform":{"scale":[11.300344840740681,11.300344840740681]}},"index":45},"roughnessFactor":1.0}},{"doubleSided":false,"name":"endgrain","normalTexture":{"extensions":{"KHR_texture_transform":{"scale":[11.300344840740681,11.300344840740681]}},"index":49,"scale":1.0},"occlusionTexture":{"extensions":{"KHR_texture_transform":{"scale":[11.300344840740681,11.300344840740681]}},"index":48},"pbrMetallicRoughness":{"baseColorFactor":[1,1,1,1],"baseColorTexture":{"extensions":{"KHR_texture_transform":{"scale":[11.300344840740681,11.300344840740681]}},"index":47},"metallicFactor":1.0,"metallicRoughnessTexture":{"extensions":{"KHR_texture_transform":{"scale":[11.300344840740681,11.300344840740681]}},"index":48},"roughnessFactor":1.0}},{"doubleSided":true,"name":"cloth_blue","normalTexture":{"extensions":{"KHR_texture_transform":{"scale":[11.300344840740681,11.300344840740681]}},"index":52,"scale":1.0},"occlusionTexture":{"extensions":{"KHR_texture_transform":{"scale":[11.300344840740681,11.300344840740681]}},"index":51},"pbrMetallicRoughness":{"baseColorFactor":[1,1,1,1],"baseColorTexture":{"extensions":{"KHR_texture_transform":{"scale":[11.300344840740681,11.300344840740681]}},"index":50},"metallicFactor":1.0,"metallicRoughnessTexture":{"extensions":{"KHR_texture_transform":{"scale":[11.300344840740681,11.300344840740681]}},"index":51},"roughnessFactor":1.0}},{"doubleSided":true,"name":"cloth_green","normalTexture":{"extensions":{"KHR_texture_transform":{"scale":[11.300344840740681,11.300344840740681]}},"index":55,"scale":1.0},"occlusionTexture":{"extensions":{"KHR_texture_transform":{"scale":[11.300344840740681,11.300344840740681]}},"index":54},"pbrMetallicRoughness":{"baseColorFactor":[1,1,1,1],"baseColorTexture":{"extensions":{"KHR_texture_transform":{"scale":[11.300344840740681,11.300344840740681]}},"index":53},"metallicFactor":1.0,"metallicRoughnessTexture":{"extensions":{"KHR_texture_transform":{"scale":[11.300344840740681,11.300344840740681]}},"index":54},"roughnessFactor":1.0}},{"alphaMode":"BLEND","doubleSided":false,"name":"water_flow","normalTexture":{"extensions":{"KHR_texture_transform":{"scale":[11.300344840740681,11.300344840740681]}},"index":58,"scale":1.0},"occlusionTexture":{"extensions":{"KHR_texture_transform":{"scale":[11.300344840740681,11.300344840740681]}},"index":57},"pbrMetallicRoughness":{"baseColorFactor":[1,1,1,1],"baseColorTexture":{"extensions":{"KHR_texture_transform":{"scale":[11.300344840740681,11.300344840740681]}},"index":56},"metallicFactor":1.0,"metallicRoughnessTexture":{"extensions":{"KHR_texture_transform":{"scale":[11.300344840740681,11.300344840740681]}},"index":57},"roughnessFactor":1.0}},{"doubleSided":false,"name":"mud_wet","normalTexture":{"extensions":{"KHR_texture_transform":{"scale":[11.300344840740681,11.300344840740681]}},"index":61,"scale":1.0},"occlusionTexture":{"extensions":{"KHR_texture_transform":{"scale":[11.300344840740681,11.300344840740681]}},"index":60},"pbrMetallicRoughness":{"baseColorFactor":[1,1,1,1],"baseColorTexture":{"extensions":{"KHR_texture_transform":{"scale":[11.300344840740681,11.300344840740681]}},"index":59},"metallicFactor":1.0,"metallicRoughnessTexture":{"extensions":{"KHR_texture_transform":{"scale":[11.300344840740681,11.300344840740681]}},"index":60},"roughnessFactor":1.0}},{"doubleSided":false,"name":"algae","normalTexture":{"extensions":{"KHR_texture_transform":{"scale":[11.300344840740681,11.300344840740681]}},"index":64,"scale":1.0},"occlusionTexture":{"extensions":{"KHR_texture_transform":{"scale":[11.300344840740681,11.300344840740681]}},"index":63},"pbrMetallicRoughness":{"baseColorFactor":[1,1,1,1],"baseColorTexture":{"extensions":{"KHR_texture_transform":{"scale":[11.300344840740681,11.300344840740681]}},"index":62},"metallicFactor":1.0,"metallicRoughnessTexture":{"extensions":{"KHR_texture_transform":{"scale":[11.300344840740681,11.300344840740681]}},"index":63},"roughnessFactor":1.0}},{"alphaCutoff":0.5,"alphaMode":"MASK","doubleSided":true,"name":"weeds","normalTexture":{"extensions":{"KHR_texture_transform":{"scale":[11.300344840740681,11.300344840740681]}},"index":67,"scale":1.0},"occlusionTexture":{"extensions":{"KHR_texture_transform":{"scale":[11.300344840740681,11.300344840740681]}},"index":66},"pbrMetallicRoughness":{"baseColorFactor":[1,1,1,1],"baseColorTexture":{"extensions":{"KHR_texture_transform":{"scale":[11.300344840740681,11.300344840740681]}},"index":65},"metallicFactor":1.0,"metallicRoughnessTexture":{"extensions":{"KHR_texture_transform":{"scale":[11.300344840740681,11.300344840740681]}},"index":66},"roughnessFactor":1.0}},{"alphaMode":"BLEND","doubleSided":false,"name":"water","normalTexture":{"extensions":{"KHR_texture_transform":{"scale":[11.300344840740681,11.300344840740681]}},"index":70,"scale":1.0},"occlusionTexture":{"extensions":{"KHR_texture_transform":{"scale":[11.300344840740681,11.300344840740681]}},"index":69},"pbrMetallicRoughness":{"baseColorFactor":[1,1,1,1],"baseColorTexture":{"extensions":{"KHR_texture_transform":{"scale":[11.300344840740681,11.300344840740681]}},"index":68},"metallicFactor":1.0,"metallicRoughnessTexture":{"extensions":{"KHR_texture_transform":{"scale":[11.300344840740681,11.300344840740681]}},"index":69},"roughnessFactor":1.0}},{"doubleSided":false,"name":"pottery_slip","normalTexture":{"extensions":{"KHR_texture_transform":{"scale":[11.300344840740681,11.300344840740681]}},"index":73,"scale":1.0},"occlusionTexture":{"extensions":{"KHR_texture_transform":{"scale":[11.300344840740681,11.300344840740681]}},"index":72},"pbrMetallicRoughness":{"baseColorFactor":[1,1,1,1],"baseColorTexture":{"extensions":{"KHR_texture_transform":{"scale":[11.300344840740681,11.300344840740681]}},"index":71},"metallicFactor":1.0,"metallicRoughnessTexture":{"extensions":{"KHR_texture_transform":{"scale":[11.300344840740681,11.300344840740681]}},"index":72},"roughnessFactor":1.0}},{"doubleSided":false,"name":"alabaster","normalTexture":{"extensions":{"KHR_texture_transform":{"scale":[11.300344840740681,11.300344840740681]}},"index":76,"scale":1.0},"occlusionTexture":{"extensions":{"KHR_texture_transform":{"scale":[11.300344840740681,11.300344840740681]}},"index":75},"pbrMetallicRoughness":{"baseColorFactor":[1,1,1,1],"baseColorTexture":{"extensions":{"KHR_texture_transform":{"scale":[11.300344840740681,11.300344840740681]}},"index":74},"metallicFactor":1.0,"metallicRoughnessTexture":{"extensions":{"KHR_texture_transform":{"scale":[11.300344840740681,11.300344840740681]}},"index":75},"roughnessFactor":1.0}}],"meshes":[{"name":"bathhouse#0_0","primitives":[{"attributes":{"NORMAL":1,"POSITION":0,"TEXCOORD_0":166},"indices":2,"material":7},{"attributes":{"NORMAL":4,"POSITION":3,"TEXCOORD_0":167},"indices":5,"material":19},{"attributes":{"NORMAL":7,"POSITION":6,"TEXCOORD_0":168},"indices":8,"material":10},{"attributes":{"NORMAL":10,"POSITION":9,"TEXCOORD_0":169},"indices":11,"material":5},{"attributes":{"NORMAL":13,"POSITION":12,"TEXCOORD_0":170},"indices":14,"material":0},{"attributes":{"NORMAL":16,"POSITION":15,"TEXCOORD_0":171},"indices":17,"material":18}]},{"name":"bathhouse#0_0$lod1","primitives":[{"attributes":{"NORMAL":19,"POSITION":18,"TEXCOORD_0":172},"indices":20,"material":7},{"attributes":{"NORMAL":22,"POSITION":21,"TEXCOORD_0":173},"indices":23,"material":10},{"attributes":{"NORMAL":25,"POSITION":24,"TEXCOORD_0":174},"indices":26,"material":5},{"attributes":{"NORMAL":28,"POSITION":27,"TEXCOORD_0":175},"indices":29,"material":0}]},{"name":"bathhouse#0_0$lod2","primitives":[{"attributes":{"NORMAL":31,"POSITION":30,"TEXCOORD_0":176},"indices":32,"material":10},{"attributes":{"NORMAL":34,"POSITION":33,"TEXCOORD_0":177},"indices":35,"material":5},{"attributes":{"NORMAL":37,"POSITION":36,"TEXCOORD_0":178},"indices":38,"material":0}]},{"name":"bathhouse#0_0$lod3","primitives":[{"attributes":{"NORMAL":40,"POSITION":39,"TEXCOORD_0":179},"indices":41,"material":5},{"attributes":{"NORMAL":43,"POSITION":42,"TEXCOORD_0":180},"indices":44,"material":0}]},{"name":"bathhouse#0_n1","primitives":[{"attributes":{"NORMAL":46,"POSITION":45,"TEXCOORD_0":181},"indices":47,"material":20},{"attributes":{"NORMAL":49,"POSITION":48,"TEXCOORD_0":182},"indices":50,"material":16},{"attributes":{"NORMAL":52,"POSITION":51,"TEXCOORD_0":183},"indices":53,"material":17},{"attributes":{"NORMAL":55,"POSITION":54,"TEXCOORD_0":184},"indices":56,"material":9},{"attributes":{"NORMAL":58,"POSITION":57,"TEXCOORD_0":185},"indices":59,"material":7},{"attributes":{"NORMAL":61,"POSITION":60,"TEXCOORD_0":186},"indices":62,"material":13},{"attributes":{"NORMAL":64,"POSITION":63,"TEXCOORD_0":187},"indices":65,"material":8},{"attributes":{"NORMAL":67,"POSITION":66,"TEXCOORD_0":188},"indices":68,"material":6},{"attributes":{"NORMAL":70,"POSITION":69,"TEXCOORD_0":189},"indices":71,"material":11}]},{"name":"bathhouse#0_n1$lod1","primitives":[{"attributes":{"NORMAL":73,"POSITION":72,"TEXCOORD_0":190},"indices":74,"material":7},{"attributes":{"NORMAL":76,"POSITION":75,"TEXCOORD_0":191},"indices":77,"material":13},{"attributes":{"NORMAL":79,"POSITION":78,"TEXCOORD_0":192},"indices":80,"material":6},{"attributes":{"NORMAL":82,"POSITION":81,"TEXCOORD_0":193},"indices":83,"material":11}]},{"name":"bathhouse#0_n1$lod2","primitives":[{"attributes":{"NORMAL":85,"POSITION":84,"TEXCOORD_0":194},"indices":86,"material":7},{"attributes":{"NORMAL":88,"POSITION":87,"TEXCOORD_0":195},"indices":89,"material":6}]},{"name":"bathhouse#0_n1$lod3","primitives":[{"attributes":{"NORMAL":91,"POSITION":90,"TEXCOORD_0":196},"indices":92,"material":7},{"attributes":{"NORMAL":94,"POSITION":93,"TEXCOORD_0":197},"indices":95,"material":6}]},{"name":"bathhouse#n1_0","primitives":[{"attributes":{"NORMAL":97,"POSITION":96,"TEXCOORD_0":198},"indices":98,"material":4},{"attributes":{"NORMAL":100,"POSITION":99,"TEXCOORD_0":199},"indices":101,"material":1}]},{"name":"bathhouse#n1_0$lod1","primitives":[{"attributes":{"NORMAL":103,"POSITION":102,"TEXCOORD_0":200},"indices":104,"material":1}]},{"name":"bathhouse#n1_0$lod2","primitives":[{"attributes":{"NORMAL":106,"POSITION":105,"TEXCOORD_0":201},"indices":107,"material":1}]},{"name":"bathhouse#n1_0$lod3","primitives":[{"attributes":{"NORMAL":109,"POSITION":108,"TEXCOORD_0":202},"indices":110,"material":1}]},{"name":"bathhouse#n1_n1","primitives":[{"attributes":{"NORMAL":112,"POSITION":111,"TEXCOORD_0":203},"indices":113,"material":24},{"attributes":{"NORMAL":115,"POSITION":114,"TEXCOORD_0":204},"indices":116,"material":14},{"attributes":{"NORMAL":118,"POSITION":117,"TEXCOORD_0":205},"indices":119,"material":2},{"attributes":{"NORMAL":121,"POSITION":120,"TEXCOORD_0":206},"indices":122,"material":3},{"attributes":{"NORMAL":124,"POSITION":123,"TEXCOORD_0":207},"indices":125,"material":15},{"attributes":{"NORMAL":127,"POSITION":126,"TEXCOORD_0":208},"indices":128,"material":7},{"attributes":{"NORMAL":130,"POSITION":129,"TEXCOORD_0":209},"indices":131,"material":23},{"attributes":{"COLOR_0":134,"NORMAL":133,"POSITION":132,"TEXCOORD_0":210},"indices":135,"material":12},{"attributes":{"NORMAL":137,"POSITION":136,"TEXCOORD_0":211},"indices":138,"material":0},{"attributes":{"NORMAL":140,"POSITION":139,"TEXCOORD_0":212},"indices":141,"material":22},{"attributes":{"NORMAL":143,"POSITION":142,"TEXCOORD_0":213},"indices":144,"material":21}]},{"name":"bathhouse#n1_n1$lod1","primitives":[{"attributes":{"NORMAL":146,"POSITION":145,"TEXCOORD_0":214},"indices":147,"material":7},{"attributes":{"COLOR_0":150,"NORMAL":149,"POSITION":148,"TEXCOORD_0":215},"indices":151,"material":12}]},{"name":"bathhouse#n1_n1$lod2","primitives":[{"attributes":{"NORMAL":153,"POSITION":152,"TEXCOORD_0":216},"indices":154,"material":7},{"attributes":{"COLOR_0":157,"NORMAL":156,"POSITION":155,"TEXCOORD_0":217},"indices":158,"material":12}]},{"name":"bathhouse#n1_n1$lod3","primitives":[{"attributes":{"NORMAL":160,"POSITION":159,"TEXCOORD_0":218},"indices":161,"material":7},{"attributes":{"COLOR_0":164,"NORMAL":163,"POSITION":162,"TEXCOORD_0":219},"indices":165,"material":12}]}],"nodes":[{"extensions":{"MSFT_lod":{"ids":[1,2,3]}},"extras":{"MSFT_screencoverage":[1.0,0.66062,0.26425,0.0],"hm":{"cell":"0_0","cullAt":null,"interior":null,"lod":0,"max":[11.963,9.901,9.065],"min":[-8.098,0.001,-6.949],"prims":6,"tris":11510,"venue":"bathhouse"}},"mesh":0,"name":"bathhouse#0_0","scale":[10.030489921569824,4.949894428253174,8.006841659545898],"translation":[1.9324493408203125,4.950894832611084,1.0577831268310547]},{"extras":{"hm":{"cell":"0_0","cullAt":null,"interior":null,"lod":1,"max":[11.963,9.901,9.065],"min":[-8.098,0.001,-6.949],"prims":4,"tris":5461,"venue":"bathhouse"}},"mesh":1,"name":"bathhouse#0_0$lod1","scale":[10.01949691772461,4.948904514312744,7.998682975769043],"translation":[1.9231181144714355,4.949904918670654,1.0654404163360596]},{"extras":{"hm":{"cell":"0_0","cullAt":null,"interior":null,"lod":2,"max":[11.963,9.901,9.065],"min":[-8.098,0.001,-6.949],"prims":3,"tris":1553,"venue":"bathhouse"}},"mesh":2,"name":"bathhouse#0_0$lod2","scale":[9.862883567810059,4.941367149353027,7.6742939949035645],"translation":[2.0659921169281006,4.943700790405273,1.389829158782959]},{"extras":{"hm":{"cell":"0_0","cullAt":null,"interior":null,"lod":3,"max":[11.963,9.901,9.065],"min":[-8.098,0.001,-6.949],"prims":2,"tris":312,"venue":"bathhouse"}},"mesh":3,"name":"bathhouse#0_0$lod3","scale":[9.763031959533691,4.938778877258301,7.40242862701416],"translation":[2.0004160404205322,4.9417619705200195,1.146953821182251]},{"extensions":{"MSFT_lod":{"ids":[5,6,7]}},"extras":{"MSFT_screencoverage":[1.0,0.64954,0.25981,0.0],"hm":{"cell":"0_n1","cullAt":null,"interior":null,"lod":0,"max":[11.557,9.859,6.969],"min":[-8.129,-0.13,-8.664],"prims":9,"tris":22526,"venue":"bathhouse"}},"mesh":4,"name":"bathhouse#0_n1","scale":[9.842849731445312,4.994476318359375,7.816770076751709],"translation":[1.7136845588684082,4.864476203918457,-0.8477091789245605]},{"extras":{"hm":{"cell":"0_n1","cullAt":null,"interior":null,"lod":1,"max":[11.557,9.859,6.969],"min":[-8.129,-0.13,-8.664],"prims":4,"tris":9728,"venue":"bathhouse"}},"mesh":5,"name":"bathhouse#0_n1$lod1","scale":[9.837095260620117,4.994476318359375,7.814820766448975],"translation":[1.707930088043213,4.864476203918457,-0.8457598686218262]},{"extras":{"hm":{"cell":"0_n1","cullAt":null,"interior":null,"lod":2,"max":[11.557,9.859,6.969],"min":[-8.129,-0.13,-8.664],"prims":2,"tris":2983,"venue":"bathhouse"}},"mesh":6,"name":"bathhouse#0_n1$lod2","scale":[9.825614929199219,4.990190505981445,7.783632755279541],"translation":[1.7172870635986328,4.868762016296387,-0.8193745613098145]},{"extras":{"hm":{"cell":"0_n1","cullAt":null,"interior":null,"lod":3,"max":[11.557,9.859,6.969],"min":[-8.129,-0.13,-8.664],"prims":2,"tris":538,"venue":"bathhouse"}},"mesh":7,"name":"bathhouse#0_n1$lod3","scale":[9.820524215698242,4.981261253356934,7.783632755279541],"translation":[1.7223782539367676,4.859832763671875,-0.8193745613098145]},{"extensions":{"MSFT_lod":{"ids":[9,10,11]}},"extras":{"MSFT_screencoverage":[1.0,0.55989,0.22396,0.0],"hm":{"cell":"n1_0","cullAt":null,"interior":null,"lod":0,"max":[7.698,8.5,7.819],"min":[-8.69,-0.1,-6.363],"prims":2,"tris":2852,"venue":"bathhouse"}},"mesh":8,"name":"bathhouse#n1_0","scale":[8.194190979003906,4.300000190734863,7.091120719909668],"translation":[-0.4959094524383545,4.199999809265137,0.7278289794921875]},{"extras":{"hm":{"cell":"n1_0","cullAt":null,"interior":null,"lod":1,"max":[7.698,8.5,7.819],"min":[-8.69,-0.1,-6.363],"prims":1,"tris":1338,"venue":"bathhouse"}},"mesh":9,"name":"bathhouse#n1_0$lod1","scale":[8.17315673828125,4.294000148773193,7.079699516296387],"translation":[-0.49809956550598145,4.205999851226807,0.7387373447418213]},{"extras":{"hm":{"cell":"n1_0","cullAt":null,"interior":null,"lod":2,"max":[7.698,8.5,7.819],"min":[-8.69,-0.1,-6.363],"prims":1,"tris":419,"venue":"bathhouse"}},"mesh":10,"name":"bathhouse#n1_0$lod2","scale":[8.17315673828125,4.294000148773193,7.079699516296387],"translation":[-0.49809956550598145,4.205999851226807,0.7387373447418213]},{"extras":{"hm":{"cell":"n1_0","cullAt":null,"interior":null,"lod":3,"max":[7.698,8.5,7.819],"min":[-8.69,-0.1,-6.363],"prims":1,"tris":72,"venue":"bathhouse"}},"mesh":11,"name":"bathhouse#n1_0$lod3","scale":[8.17246150970459,4.281428813934326,6.705924987792969],"translation":[-0.4987945556640625,4.198571681976318,0.3649630546569824]},{"extensions":{"MSFT_lod":{"ids":[13,14,15]}},"extras":{"MSFT_screencoverage":[1.0,0.62003,0.24801,0.0],"hm":{"cell":"n1_n1","cullAt":null,"interior":null,"lod":0,"max":[8.103,9.816,6.994],"min":[-8.692,-0.007,-9.982],"prims":11,"tris":14630,"venue":"bathhouse"}},"mesh":12,"name":"bathhouse#n1_n1","scale":[8.397232055664062,4.911085605621338,8.488326072692871],"translation":[-0.2944364547729492,4.904414653778076,-1.4940245151519775]},{"extras":{"hm":{"cell":"n1_n1","cullAt":null,"interior":null,"lod":1,"max":[8.103,9.816,6.994],"min":[-8.692,-0.007,-9.982],"prims":2,"tris":6537,"venue":"bathhouse"}},"mesh":13,"name":"bathhouse#n1_n1$lod1","scale":[8.388191223144531,4.9107489585876465,8.488260269165039],"translation":[-0.28777313232421875,4.904751300811768,-1.4939591884613037]},{"extras":{"hm":{"cell":"n1_n1","cullAt":null,"interior":null,"lod":2,"max":[8.103,9.816,6.994],"min":[-8.692,-0.007,-9.982],"prims":2,"tris":1900,"venue":"bathhouse"}},"mesh":14,"name":"bathhouse#n1_n1$lod2","scale":[8.381360054016113,4.9107489585876465,7.8553361892700195],"translation":[-0.2946043014526367,4.904751300811768,-0.861034631729126]},{"extras":{"hm":{"cell":"n1_n1","cullAt":null,"interior":null,"lod":3,"max":[8.103,9.816,6.994],"min":[-8.692,-0.007,-9.982],"prims":2,"tris":372,"venue":"bathhouse"}},"mesh":15,"name":"bathhouse#n1_n1$lod3","scale":[8.046710968017578,4.910002708435059,7.7838544845581055],"translation":[-0.005467891693115234,4.9054975509643555,-0.9053027629852295]}],"samplers":[{"magFilter":9729,"minFilter":9987,"wrapS":10497,"wrapT":10497}],"scene":0,"scenes":[{"nodes":[0,4,8,12]}],"textures":[{"sampler":0,"source":0},{"sampler":0,"source":1},{"sampler":0,"source":2},{"sampler":0,"source":3},{"sampler":0,"source":4},{"sampler":0,"source":5},{"sampler":0,"source":6},{"sampler":0,"source":7},{"sampler":0,"source":8},{"sampler":0,"source":9},{"sampler":0,"source":10},{"sampler":0,"source":11},{"sampler":0,"source":12},{"sampler":0,"source":13},{"sampler":0,"source":14},{"sampler":0,"source":15},{"sampler":0,"source":16},{"sampler":0,"source":17},{"sampler":0,"source":18},{"sampler":0,"source":19},{"sampler":0,"source":20},{"sampler":0,"source":21},{"sampler":0,"source":22},{"sampler":0,"source":23},{"sampler":0,"source":24},{"sampler":0,"source":25},{"sampler":0,"source":26},{"sampler":0,"source":27},{"sampler":0,"source":28},{"sampler":0,"source":29},{"sampler":0,"source":30},{"sampler":0,"source":31},{"sampler":0,"source":32},{"sampler":0,"source":33},{"sampler":0,"source":34},{"sampler":0,"source":35},{"sampler":0,"source":36},{"sampler":0,"source":37},{"sampler":0,"source":38},{"sampler":0,"source":39},{"sampler":0,"source":40},{"sampler":0,"source":41},{"sampler":0,"source":42},{"sampler":0,"source":43},{"sampler":0,"source":44},{"sampler":0,"source":45},{"sampler":0,"source":46},{"sampler":0,"source":47},{"sampler":0,"source":48},{"sampler":0,"source":49},{"sampler":0,"source":50},{"sampler":0,"source":51},{"sampler":0,"source":52},{"sampler":0,"source":53},{"sampler":0,"source":54},{"sampler":0,"source":55},{"sampler":0,"source":56},{"sampler":0,"source":57},{"sampler":0,"source":58},{"sampler":0,"source":59},{"sampler":0,"source":60},{"sampler":0,"source":61},{"sampler":0,"source":62},{"sampler":0,"source":63},{"sampler":0,"source":64},{"sampler":0,"source":65},{"sampler":0,"source":66},{"sampler":0,"source":67},{"sampler":0,"source":68},{"sampler":0,"source":69},{"sampler":0,"source":70},{"sampler":0,"source":71},{"sampler":0,"source":72},{"sampler":0,"source":73},{"sampler":0,"source":74},{"sampler":0,"source":75},{"sampler":0,"source":76}]}