{"accessors":[{"bufferView":0,"componentType":5122,"count":10140,"max":[32767.0,32767.0,32767.0],"min":[-32767.0,-32767.0,-32767.0],"normalized":true,"type":"VEC3"},{"bufferView":1,"componentType":5120,"count":10140,"normalized":true,"type":"VEC3"},{"bufferView":2,"componentType":5123,"count":15684,"type":"SCALAR"},{"bufferView":3,"componentType":5122,"count":7800,"max":[32767.0,32767.0,32767.0],"min":[-32767.0,-32767.0,-32767.0],"normalized":true,"type":"VEC3"},{"bufferView":4,"componentType":5120,"count":7800,"normalized":true,"type":"VEC3"},{"bufferView":5,"componentType":5123,"count":7800,"type":"SCALAR"},{"bufferView":6,"componentType":5122,"count":2487,"max":[32767.0,32767.0,32767.0],"min":[-32767.0,-32767.0,-32767.0],"normalized":true,"type":"VEC3"},{"bufferView":7,"componentType":5120,"count":2487,"normalized":true,"type":"VEC3"},{"bufferView":8,"componentType":5123,"count":2487,"type":"SCALAR"},{"bufferView":9,"componentType":5122,"count":456,"max":[32767.0,32767.0,32767.0],"min":[-32767.0,-32767.0,-32767.0],"normalized":true,"type":"VEC3"},{"bufferView":10,"componentType":5120,"count":456,"normalized":true,"type":"VEC3"},{"bufferView":11,"componentType":5123,"count":456,"type":"SCALAR"},{"bufferView":12,"componentType":5122,"count":1152,"max":[29327.0,-14027.0,-11844.0],"min":[-4619.0,-28297.0,-30375.0],"normalized":true,"type":"VEC3"},{"bufferView":13,"componentType":5120,"count":1152,"normalized":true,"type":"VEC3"},{"bufferView":14,"componentType":5123,"count":1584,"type":"SCALAR"},{"bufferView":15,"componentType":5122,"count":288,"max":[21621.0,-3228.0,-5017.0],"min":[-3185.0,-8885.0,-18269.0],"normalized":true,"type":"VEC3"},{"bufferView":16,"componentType":5120,"count":288,"normalized":true,"type":"VEC3"},{"bufferView":17,"componentType":5123,"count":396,"type":"SCALAR"},{"bufferView":18,"componentType":5122,"count":288,"max":[26444.0,-2843.0,-2751.0],"min":[4406.0,-22608.0,-26126.0],"normalized":true,"type":"VEC3"},{"bufferView":19,"componentType":5120,"count":288,"normalized":true,"type":"VEC3"},{"bufferView":20,"componentType":5123,"count":396,"type":"SCALAR"},{"bufferView":21,"componentType":5122,"count":20028,"max":[29601.0,13775.0,14785.0],"min":[-28542.0,-28580.0,-30410.0],"normalized":true,"type":"VEC3"},{"bufferView":22,"componentType":5120,"count":20028,"normalized":true,"type":"VEC3"},{"bufferView":23,"componentType":5123,"count":29940,"type":"SCALAR"},{"bufferView":24,"componentType":5122,"count":1716,"max":[29568.0,13227.0,-988.0],"min":[-11685.0,-12806.0,-30446.0],"normalized":true,"type":"VEC3"},{"bufferView":25,"componentType":5120,"count":1716,"normalized":true,"type":"VEC3"},{"bufferView":26,"componentType":5123,"count":2544,"type":"SCALAR"},{"bufferView":27,"componentType":5122,"count":384,"max":[29254.0,-1557.0,-12653.0],"min":[-11442.0,-9431.0,-30309.0],"normalized":true,"type":"VEC3"},{"bufferView":28,"componentType":5120,"count":384,"normalized":true,"type":"VEC3"},{"bufferView":29,"componentType":5123,"count":528,"type":"SCALAR"},{"bufferView":30,"componentType":5122,"count":976,"max":[32767.0,32767.0,32767.0],"min":[-32767.0,-32767.0,-32544.0],"normalized":true,"type":"VEC3"},{"bufferView":31,"componentType":5120,"count":976,"normalized":true,"type":"VEC3"},{"bufferView":32,"componentType":5123,"count":1524,"type":"SCALAR"},{"bufferView":33,"componentType":5122,"count":1968,"max":[28865.0,32767.0,14130.0],"min":[-17864.0,-28554.0,-32767.0],"normalized":true,"type":"VEC3"},{"bufferView":34,"componentType":5120,"count":1968,"normalized":true,"type":"VEC3"},{"bufferView":35,"componentType":5123,"count":2736,"type":"SCALAR"},{"bufferView":36,"componentType":5122,"count":540,"max":[30580.0,24861.0,264.0],"min":[-12698.0,-3871.0,-31697.0],"normalized":true,"type":"VEC3"},{"bufferView":37,"componentType":5120,"count":540,"normalized":true,"type":"VEC3"},{"bufferView":38,"componentType":5121,"count":540,"normalized":true,"type":"VEC4"},{"bufferView":39,"componentType":5123,"count":822,"type":"SCALAR"},{"bufferView":40,"componentType":5122,"count":238,"max":[1882.0,-22480.0,-8147.0],"min":[305.0,-26722.0,-9328.0],"normalized":true,"type":"VEC3"},{"bufferView":41,"componentType":5120,"count":238,"normalized":true,"type":"VEC3"},{"bufferView":42,"componentType":5123,"count":756,"type":"SCALAR"},{"bufferView":43,"componentType":5122,"count":12897,"max":[29641.0,13813.0,14794.0],"min":[-28591.0,-28602.0,-30400.0],"normalized":true,"type":"VEC3"},{"bufferView":44,"componentType":5120,"count":12897,"normalized":true,"type":"VEC3"},{"bufferView":45,"componentType":5123,"count":12897,"type":"SCALAR"},{"bufferView":46,"componentType":5122,"count":1164,"max":[29618.0,13263.0,-1068.0],"min":[-11705.0,-12758.0,-30444.0],"normalized":true,"type":"VEC3"},{"bufferView":47,"componentType":5120,"count":1164,"normalized":true,"type":"VEC3"},{"bufferView":48,"componentType":5123,"count":1164,"type":"SCALAR"},{"bufferView":49,"componentType":5122,"count":2403,"max":[32767.0,32761.0,32767.0],"min":[-32767.0,-32767.0,-32523.0],"normalized":true,"type":"VEC3"},{"bufferView":50,"componentType":5120,"count":2403,"normalized":true,"type":"VEC3"},{"bufferView":51,"componentType":5123,"count":2403,"type":"SCALAR"},{"bufferView":52,"componentType":5122,"count":1320,"max":[28894.0,32767.0,14168.0],"min":[-17880.0,-28576.0,-32767.0],"normalized":true,"type":"VEC3"},{"bufferView":53,"componentType":5120,"count":1320,"normalized":true,"type":"VEC3"},{"bufferView":54,"componentType":5123,"count":1320,"type":"SCALAR"},{"bufferView":55,"componentType":5122,"count":393,"max":[30569.0,24657.0,189.0],"min":[-12621.0,-3859.0,-31527.0],"normalized":true,"type":"VEC3"},{"bufferView":56,"componentType":5120,"count":393,"normalized":true,"type":"VEC3"},{"bufferView":57,"componentType":5121,"count":393,"normalized":true,"type":"VEC4"},{"bufferView":58,"componentType":5123,"count":393,"type":"SCALAR"},{"bufferView":59,"componentType":5122,"count":3666,"max":[29637.0,13762.0,14741.0],"min":[-28589.0,-28614.0,-30413.0],"normalized":true,"type":"VEC3"},{"bufferView":60,"componentType":5120,"count":3666,"normalized":true,"type":"VEC3"},{"bufferView":61,"componentType":5123,"count":3666,"type":"SCALAR"},{"bufferView":62,"componentType":5122,"count":1374,"max":[32767.0,32767.0,32767.0],"min":[-32767.0,-32767.0,-32767.0],"normalized":true,"type":"VEC3"},{"bufferView":63,"componentType":5120,"count":1374,"normalized":true,"type":"VEC3"},{"bufferView":64,"componentType":5123,"count":1374,"type":"SCALAR"},{"bufferView":65,"componentType":5122,"count":111,"max":[30402.0,12006.0,160.0],"min":[-12527.0,-3301.0,-31097.0],"normalized":true,"type":"VEC3"},{"bufferView":66,"componentType":5120,"count":111,"normalized":true,"type":"VEC3"},{"bufferView":67,"componentType":5121,"count":111,"normalized":true,"type":"VEC4"},{"bufferView":68,"componentType":5123,"count":111,"type":"SCALAR"},{"bufferView":69,"componentType":5122,"count":723,"max":[29637.0,13684.0,13016.0],"min":[-28368.0,-28302.0,-30409.0],"normalized":true,"type":"VEC3"},{"bufferView":70,"componentType":5120,"count":723,"normalized":true,"type":"VEC3"},{"bufferView":71,"componentType":5123,"count":723,"type":"SCALAR"},{"bufferView":72,"componentType":5122,"count":297,"max":[32767.0,32767.0,32767.0],"min":[-32767.0,-32767.0,-32767.0],"normalized":true,"type":"VEC3"},{"bufferView":73,"componentType":5120,"count":297,"normalized":true,"type":"VEC3"},{"bufferView":74,"componentType":5121,"count":297,"normalized":true,"type":"VEC4"},{"bufferView":75,"componentType":5123,"count":297,"type":"SCALAR"},{"bufferView":76,"componentType":5122,"count":16,"max":[-12805.0,-28109.0,-6230.0],"min":[-13553.0,-28109.0,-7611.0],"normalized":true,"type":"VEC3"},{"bufferView":77,"componentType":5120,"count":16,"normalized":true,"type":"VEC3"},{"bufferView":78,"componentType":5123,"count":24,"type":"SCALAR"},{"bufferView":79,"componentType":5122,"count":112,"max":[30686.0,-32455.0,32767.0],"min":[-32058.0,-32767.0,-31903.0],"normalized":true,"type":"VEC3"},{"bufferView":80,"componentType":5120,"count":112,"normalized":true,"type":"VEC3"},{"bufferView":81,"componentType":5123,"count":180,"type":"SCALAR"},{"bufferView":82,"componentType":5122,"count":16392,"max":[32767.0,-1993.0,27556.0],"min":[-30248.0,-32602.0,-29956.0],"normalized":true,"type":"VEC3"},{"bufferView":83,"componentType":5120,"count":16392,"normalized":true,"type":"VEC3"},{"bufferView":84,"componentType":5123,"count":23016,"type":"SCALAR"},{"bufferView":85,"componentType":5122,"count":36,"max":[26105.0,32200.0,30366.0],"min":[-32767.0,-749.0,-32767.0],"normalized":true,"type":"VEC3"},{"bufferView":86,"componentType":5120,"count":36,"normalized":true,"type":"VEC3"},{"bufferView":87,"componentType":5123,"count":48,"type":"SCALAR"},{"bufferView":88,"componentType":5122,"count":10272,"max":[26023.0,32767.0,30151.0],"min":[-32692.0,-735.0,-32540.0],"normalized":true,"type":"VEC3"},{"bufferView":89,"componentType":5120,"count":10272,"normalized":true,"type":"VEC3"},{"bufferView":90,"componentType":5121,"count":10272,"normalized":true,"type":"VEC4"},{"bufferView":91,"componentType":5123,"count":14124,"type":"SCALAR"},{"bufferView":92,"componentType":5122,"count":87,"max":[30678.0,-32455.0,32767.0],"min":[-32127.0,-32767.0,-32140.0],"normalized":true,"type":"VEC3"},{"bufferView":93,"componentType":5120,"count":87,"normalized":true,"type":"VEC3"},{"bufferView":94,"componentType":5123,"count":87,"type":"SCALAR"},{"bufferView":95,"componentType":5122,"count":10620,"max":[32767.0,-1993.0,27536.0],"min":[-30315.0,-32597.0,-30179.0],"normalized":true,"type":"VEC3"},{"bufferView":96,"componentType":5120,"count":10620,"normalized":true,"type":"VEC3"},{"bufferView":97,"componentType":5123,"count":10620,"type":"SCALAR"},{"bufferView":98,"componentType":5122,"count":24,"max":[26097.0,32200.0,30364.0],"min":[-32707.0,-749.0,-32755.0],"normalized":true,"type":"VEC3"},{"bufferView":99,"componentType":5120,"count":24,"normalized":true,"type":"VEC3"},{"bufferView":100,"componentType":5123,"count":24,"type":"SCALAR"},{"bufferView":101,"componentType":5122,"count":6973,"max":[26013.0,32767.0,30136.0],"min":[-32767.0,-28109.0,-32767.0],"normalized":true,"type":"VEC3"},{"bufferView":102,"componentType":5120,"count":6973,"normalized":true,"type":"VEC3"},{"bufferView":103,"componentType":5121,"count":6973,"normalized":true,"type":"VEC4"},{"bufferView":104,"componentType":5123,"count":6981,"type":"SCALAR"},{"bufferView":105,"componentType":5122,"count":33,"max":[30689.0,-32486.0,32767.0],"min":[-32158.0,-32767.0,-32132.0],"normalized":true,"type":"VEC3"},{"bufferView":106,"componentType":5120,"count":33,"normalized":true,"type":"VEC3"},{"bufferView":107,"componentType":5123,"count":33,"type":"SCALAR"},{"bufferView":108,"componentType":5122,"count":2910,"max":[32767.0,-1966.0,27514.0],"min":[-30333.0,-32628.0,-30148.0],"normalized":true,"type":"VEC3"},{"bufferView":109,"componentType":5120,"count":2910,"normalized":true,"type":"VEC3"},{"bufferView":110,"componentType":5123,"count":2910,"type":"SCALAR"},{"bufferView":111,"componentType":5122,"count":2073,"max":[26120.0,32767.0,30378.0],"min":[-32767.0,-28129.0,-32767.0],"normalized":true,"type":"VEC3"},{"bufferView":112,"componentType":5120,"count":2073,"normalized":true,"type":"VEC3"},{"bufferView":113,"componentType":5121,"count":2073,"normalized":true,"type":"VEC4"},{"bufferView":114,"componentType":5123,"count":2073,"type":"SCALAR"},{"bufferView":115,"componentType":5122,"count":15,"max":[31415.0,-32533.0,32767.0],"min":[-32157.0,-32767.0,-32596.0],"normalized":true,"type":"VEC3"},{"bufferView":116,"componentType":5120,"count":15,"normalized":true,"type":"VEC3"},{"bufferView":117,"componentType":5123,"count":15,"type":"SCALAR"},{"bufferView":118,"componentType":5122,"count":960,"max":[32767.0,32767.0,29810.0],"min":[-32767.0,-32655.0,-32767.0],"normalized":true,"type":"VEC3"},{"bufferView":119,"componentType":5120,"count":960,"normalized":true,"type":"VEC3"},{"bufferView":120,"componentType":5121,"count":960,"normalized":true,"type":"VEC4"},{"bufferView":121,"componentType":5123,"count":960,"type":"SCALAR"},{"bufferView":122,"componentType":5122,"count":6816,"max":[-7137.0,-26911.0,-4237.0],"min":[-14527.0,-32555.0,-16733.0],"normalized":true,"type":"VEC3"},{"bufferView":123,"componentType":5120,"count":6816,"normalized":true,"type":"VEC3"},{"bufferView":124,"componentType":5123,"count":9372,"type":"SCALAR"},{"bufferView":125,"componentType":5122,"count":196,"max":[-7844.0,-29544.0,66.0],"min":[-10036.0,-32726.0,-1989.0],"normalized":true,"type":"VEC3"},{"bufferView":126,"componentType":5120,"count":196,"normalized":true,"type":"VEC3"},{"bufferView":127,"componentType":5123,"count":324,"type":"SCALAR"},{"bufferView":128,"componentType":5122,"count":36,"max":[-8361.0,29107.0,-3600.0],"min":[-15624.0,25015.0,-10324.0],"normalized":true,"type":"VEC3"},{"bufferView":129,"componentType":5120,"count":36,"normalized":true,"type":"VEC3"},{"bufferView":130,"componentType":5123,"count":54,"type":"SCALAR"},{"bufferView":131,"componentType":5122,"count":20988,"max":[32767.0,32767.0,32767.0],"min":[-32767.0,-32767.0,-32767.0],"normalized":true,"type":"VEC3"},{"bufferView":132,"componentType":5120,"count":20988,"normalized":true,"type":"VEC3"},{"bufferView":133,"componentType":5123,"count":29985,"type":"SCALAR"},{"bufferView":134,"componentType":5122,"count":288,"max":[-7086.0,-24258.0,-10663.0],"min":[-11258.0,-26134.0,-14860.0],"normalized":true,"type":"VEC3"},{"bufferView":135,"componentType":5120,"count":288,"normalized":true,"type":"VEC3"},{"bufferView":136,"componentType":5123,"count":432,"type":"SCALAR"},{"bufferView":137,"componentType":5122,"count":616,"max":[32647.0,4215.0,31001.0],"min":[-30846.0,-25281.0,-32663.0],"normalized":true,"type":"VEC3"},{"bufferView":138,"componentType":5120,"count":616,"normalized":true,"type":"VEC3"},{"bufferView":139,"componentType":5123,"count":852,"type":"SCALAR"},{"bufferView":140,"componentType":5122,"count":496,"max":[-7037.0,-15847.0,5302.0],"min":[-25451.0,-29867.0,-17058.0],"normalized":true,"type":"VEC3"},{"bufferView":141,"componentType":5120,"count":496,"normalized":true,"type":"VEC3"},{"bufferView":142,"componentType":5123,"count":708,"type":"SCALAR"},{"bufferView":143,"componentType":5122,"count":144,"max":[3757.0,-28293.0,2486.0],"min":[-14311.0,-31249.0,-8891.0],"normalized":true,"type":"VEC3"},{"bufferView":144,"componentType":5120,"count":144,"normalized":true,"type":"VEC3"},{"bufferView":145,"componentType":5121,"count":144,"normalized":true,"type":"VEC4"},{"bufferView":146,"componentType":5123,"count":528,"type":"SCALAR"},{"bufferView":147,"componentType":5122,"count":24,"max":[-8721.0,29107.0,-3931.0],"min":[-15262.0,25015.0,-10322.0],"normalized":true,"type":"VEC3"},{"bufferView":148,"componentType":5120,"count":24,"normalized":true,"type":"VEC3"},{"bufferView":149,"componentType":5123,"count":24,"type":"SCALAR"},{"bufferView":150,"componentType":5122,"count":19545,"max":[32767.0,32767.0,32767.0],"min":[-32767.0,-32767.0,-32767.0],"normalized":true,"type":"VEC3"},{"bufferView":151,"componentType":5120,"count":19545,"normalized":true,"type":"VEC3"},{"bufferView":152,"componentType":5121,"count":19545,"normalized":true,"type":"VEC4"},{"bufferView":153,"componentType":5123,"count":19545,"type":"SCALAR"},{"bufferView":154,"componentType":5122,"count":414,"max":[32652.0,4215.0,31007.0],"min":[-30835.0,-25281.0,-32663.0],"normalized":true,"type":"VEC3"},{"bufferView":155,"componentType":5120,"count":414,"normalized":true,"type":"VEC3"},{"bufferView":156,"componentType":5123,"count":414,"type":"SCALAR"},{"bufferView":157,"componentType":5122,"count":348,"max":[-7036.0,-15847.0,5306.0],"min":[-25448.0,-29856.0,-17049.0],"normalized":true,"type":"VEC3"},{"bufferView":158,"componentType":5120,"count":348,"normalized":true,"type":"VEC3"},{"bufferView":159,"componentType":5123,"count":348,"type":"SCALAR"},{"bufferView":160,"componentType":5122,"count":6036,"max":[32767.0,32767.0,32767.0],"min":[-32767.0,-32767.0,-32767.0],"normalized":true,"type":"VEC3"},{"bufferView":161,"componentType":5120,"count":6036,"normalized":true,"type":"VEC3"},{"bufferView":162,"componentType":5121,"count":6036,"normalized":true,"type":"VEC4"},{"bufferView":163,"componentType":5123,"count":6036,"type":"SCALAR"},{"bufferView":164,"componentType":5122,"count":126,"max":[32718.0,4077.0,31042.0],"min":[-30784.0,-11121.0,-32695.0],"normalized":true,"type":"VEC3"},{"bufferView":165,"componentType":5120,"count":126,"normalized":true,"type":"VEC3"},{"bufferView":166,"componentType":5123,"count":126,"type":"SCALAR"},{"bufferView":167,"componentType":5122,"count":1101,"max":[32767.0,32767.0,32767.0],"min":[-32767.0,-32767.0,-32767.0],"normalized":true,"type":"VEC3"},{"bufferView":168,"componentType":5120,"count":1101,"normalized":true,"type":"VEC3"},{"bufferView":169,"componentType":5121,"count":1101,"normalized":true,"type":"VEC4"},{"bufferView":170,"componentType":5123,"count":1101,"type":"SCALAR"},{"bufferView":171,"componentType":5122,"count":24,"max":[32730.0,4057.0,31034.0],"min":[-30969.0,-11079.0,-32698.0],"normalized":true,"type":"VEC3"},{"bufferView":172,"componentType":5120,"count":24,"normalized":true,"type":"VEC3"},{"bufferView":173,"componentType":5123,"count":24,"type":"SCALAR"},{"bufferView":174,"componentType":5122,"count":10140,"normalized":true,"type":"VEC2"},{"bufferView":175,"componentType":5122,"count":7800,"normalized":true,"type":"VEC2"},{"bufferView":176,"componentType":5122,"count":2487,"normalized":true,"type":"VEC2"},{"bufferView":177,"componentType":5122,"count":456,"normalized":true,"type":"VEC2"},{"bufferView":178,"componentType":5122,"count":1152,"normalized":true,"type":"VEC2"},{"bufferView":179,"componentType":5122,"count":288,"normalized":true,"type":"VEC2"},{"bufferView":180,"componentType":5122,"count":288,"normalized":true,"type":"VEC2"},{"bufferView":181,"componentType":5122,"count":20028,"normalized":true,"type":"VEC2"},{"bufferView":182,"componentType":5122,"count":1716,"normalized":true,"type":"VEC2"},{"bufferView":183,"componentType":5122,"count":384,"normalized":true,"type":"VEC2"},{"bufferView":184,"componentType":5122,"count":976,"normalized":true,"type":"VEC2"},{"bufferView":185,"componentType":5122,"count":1968,"normalized":true,"type":"VEC2"},{"bufferView":186,"componentType":5122,"count":540,"normalized":true,"type":"VEC2"},{"bufferView":187,"componentType":5122,"count":238,"normalized":true,"type":"VEC2"},{"bufferView":188,"componentType":5122,"count":12897,"normalized":true,"type":"VEC2"},{"bufferView":189,"componentType":5122,"count":1164,"normalized":true,"type":"VEC2"},{"bufferView":190,"componentType":5122,"count":2403,"normalized":true,"type":"VEC2"},{"bufferView":191,"componentType":5122,"count":1320,"normalized":true,"type":"VEC2"},{"bufferView":192,"componentType":5122,"count":393,"normalized":true,"type":"VEC2"},{"bufferView":193,"componentType":5122,"count":3666,"normalized":true,"type":"VEC2"},{"bufferView":194,"componentType":5122,"count":1374,"normalized":true,"type":"VEC2"},{"bufferView":195,"componentType":5122,"count":111,"normalized":true,"type":"VEC2"},{"bufferView":196,"componentType":5122,"count":723,"normalized":true,"type":"VEC2"},{"bufferView":197,"componentType":5122,"count":297,"normalized":true,"type":"VEC2"},{"bufferView":198,"componentType":5122,"count":16,"normalized":true,"type":"VEC2"},{"bufferView":199,"componentType":5122,"count":112,"normalized":true,"type":"VEC2"},{"bufferView":200,"componentType":5122,"count":16392,"normalized":true,"type":"VEC2"},{"bufferView":201,"componentType":5122,"count":36,"normalized":true,"type":"VEC2"},{"bufferView":202,"componentType":5122,"count":10272,"normalized":true,"type":"VEC2"},{"bufferView":203,"componentType":5122,"count":87,"normalized":true,"type":"VEC2"},{"bufferView":204,"componentType":5122,"count":10620,"normalized":true,"type":"VEC2"},{"bufferView":205,"componentType":5122,"count":24,"normalized":true,"type":"VEC2"},{"bufferView":206,"componentType":5122,"count":6973,"normalized":true,"type":"VEC2"},{"bufferView":207,"componentType":5122,"count":33,"normalized":true,"type":"VEC2"},{"bufferView":208,"componentType":5122,"count":2910,"normalized":true,"type":"VEC2"},{"bufferView":209,"componentType":5122,"count":2073,"normalized":true,"type":"VEC2"},{"bufferView":210,"componentType":5122,"count":15,"normalized":true,"type":"VEC2"},{"bufferView":211,"componentType":5122,"count":960,"normalized":true,"type":"VEC2"},{"bufferView":212,"componentType":5122,"count":6816,"normalized":true,"type":"VEC2"},{"bufferView":213,"componentType":5122,"count":196,"normalized":true,"type":"VEC2"},{"bufferView":214,"componentType":5122,"count":36,"normalized":true,"type":"VEC2"},{"bufferView":215,"componentType":5122,"count":20988,"normalized":true,"type":"VEC2"},{"bufferView":216,"componentType":5122,"count":288,"normalized":true,"type":"VEC2"},{"bufferView":217,"componentType":5122,"count":616,"normalized":true,"type":"VEC2"},{"bufferView":218,"componentType":5122,"count":496,"normalized":true,"type":"VEC2"},{"bufferView":219,"componentType":5122,"count":144,"normalized":true,"type":"VEC2"},{"bufferView":220,"componentType":5122,"count":24,"normalized":true,"type":"VEC2"},{"bufferView":221,"componentType":5122,"count":19545,"normalized":true,"type":"VEC2"},{"bufferView":222,"componentType":5122,"count":414,"normalized":true,"type":"VEC2"},{"bufferView":223,"componentType":5122,"count":348,"normalized":true,"type":"VEC2"},{"bufferView":224,"componentType":5122,"count":6036,"normalized":true,"type":"VEC2"},{"bufferView":225,"componentType":5122,"count":126,"normalized":true,"type":"VEC2"},{"bufferView":226,"componentType":5122,"count":1101,"normalized":true,"type":"VEC2"},{"bufferView":227,"componentType":5122,"count":24,"normalized":true,"type":"VEC2"}],"asset":{"generator":"evermore assetgen","version":"2.0"},"bufferViews":[{"buffer":0,"byteLength":81120,"byteOffset":0,"byteStride":8,"target":34962},{"buffer":0,"byteLength":40560,"byteOffset":81120,"byteStride":4,"target":34962},{"buffer":0,"byteLength":31368,"byteOffset":121680,"target":34963},{"buffer":0,"byteLength":62400,"byteOffset":153048,"byteStride":8,"target":34962},{"buffer":0,"byteLength":31200,"byteOffset":215448,"byteStride":4,"target":34962},{"buffer":0,"byteLength":15600,"byteOffset":246648,"target":34963},{"buffer":0,"byteLength":19896,"byteOffset":262248,"byteStride":8,"target":34962},{"buffer":0,"byteLength":9948,"byteOffset":282144,"byteStride":4,"target":34962},{"buffer":0,"byteLength":4974,"byteOffset":292092,"target":34963},{"buffer":0,"byteLength":3648,"byteOffset":297068,"byteStride":8,"target":34962},{"buffer":0,"byteLength":1824,"byteOffset":300716,"byteStride":4,"target":34962},{"buffer":0,"byteLength":912,"byteOffset":302540,"target":34963},{"buffer":0,"byteLength":9216,"byteOffset":303452,"byteStride":8,"target":34962},{"buffer":0,"byteLength":4608,"byteOffset":312668,"byteStride":4,"target":34962},{"buffer":0,"byteLength":3168,"byteOffset":317276,"target":34963},{"buffer":0,"byteLength":2304,"byteOffset":320444,"byteStride":8,"target":34962},{"buffer":0,"byteLength":1152,"byteOffset":322748,"byteStride":4,"target":34962},{"buffer":0,"byteLength":792,"byteOffset":323900,"target":34963},{"buffer":0,"byteLength":2304,"byteOffset":324692,"byteStride":8,"target":34962},{"buffer":0,"byteLength":1152,"byteOffset":326996,"byteStride":4,"target":34962},{"buffer":0,"byteLength":792,"byteOffset":328148,"target":34963},{"buffer":0,"byteLength":160224,"byteOffset":328940,"byteStride":8,"target":34962},{"buffer":0,"byteLength":80112,"byteOffset":489164,"byteStride":4,"target":34962},{"buffer":0,"byteLength":59880,"byteOffset":569276,"target":34963},{"buffer":0,"byteLength":13728,"byteOffset":629156,"byteStride":8,"target":34962},{"buffer":0,"byteLength":6864,"byteOffset":642884,"byteStride":4,"target":34962},{"buffer":0,"byteLength":5088,"byteOffset":649748,"target":34963},{"buffer":0,"byteLength":3072,"byteOffset":654836,"byteStride":8,"target":34962},{"buffer":0,"byteLength":1536,"byteOffset":657908,"byteStride":4,"target":34962},{"buffer":0,"byteLength":1056,"byteOffset":659444,"target":34963},{"buffer":0,"byteLength":7808,"byteOffset":660500,"byteStride":8,"target":34962},{"buffer":0,"byteLength":3904,"byteOffset":668308,"byteStride":4,"target":34962},{"buffer":0,"byteLength":3048,"byteOffset":672212,"target":34963},{"buffer":0,"byteLength":15744,"byteOffset":675260,"byteStride":8,"target":34962},{"buffer":0,"byteLength":7872,"byteOffset":691004,"byteStride":4,"target":34962},{"buffer":0,"byteLength":5472,"byteOffset":698876,"target":34963},{"buffer":0,"byteLength":4320,"byteOffset":704348,"byteStride":8,"target":34962},{"buffer":0,"byteLength":2160,"byteOffset":708668,"byteStride":4,"target":34962},{"buffer":0,"byteLength":2160,"byteOffset":710828,"byteStride":4,"target":34962},{"buffer":0,"byteLength":1644,"byteOffset":712988,"target":34963},{"buffer":0,"byteLength":1904,"byteOffset":714632,"byteStride":8,"target":34962},{"buffer":0,"byteLength":952,"byteOffset":716536,"byteStride":4,"target":34962},{"buffer":0,"byteLength":1512,"byteOffset":717488,"target":34963},{"buffer":0,"byteLength":103176,"byteOffset":719000,"byteStride":8,"target":34962},{"buffer":0,"byteLength":51588,"byteOffset":822176,"byteStride":4,"target":34962},{"buffer":0,"byteLength":25794,"byteOffset":873764,"target":34963},{"buffer":0,"byteLength":9312,"byteOffset":899560,"byteStride":8,"target":34962},{"buffer":0,"byteLength":4656,"byteOffset":908872,"byteStride":4,"target":34962},{"buffer":0,"byteLength":2328,"byteOffset":913528,"target":34963},{"buffer":0,"byteLength":19224,"byteOffset":915856,"byteStride":8,"target":34962},{"buffer":0,"byteLength":9612,"byteOffset":935080,"byteStride":4,"target":34962},{"buffer":0,"byteLength":4806,"byteOffset":944692,"target":34963},{"buffer":0,"byteLength":10560,"byteOffset":949500,"byteStride":8,"target":34962},{"buffer":0,"byteLength":5280,"byteOffset":960060,"byteStride":4,"target":34962},{"buffer":0,"byteLength":2640,"byteOffset":965340,"target":34963},{"buffer":0,"byteLength":3144,"byteOffset":967980,"byteStride":8,"target":34962},{"buffer":0,"byteLength":1572,"byteOffset":971124,"byteStride":4,"target":34962},{"buffer":0,"byteLength":1572,"byteOffset":972696,"byteStride":4,"target":34962},{"buffer":0,"byteLength":786,"byteOffset":974268,"target":34963},{"buffer":0,"byteLength":29328,"byteOffset":975056,"byteStride":8,"target":34962},{"buffer":0,"byteLength":14664,"byteOffset":1004384,"byteStride":4,"target":34962},{"buffer":0,"byteLength":7332,"byteOffset":1019048,"target":34963},{"buffer":0,"byteLength":10992,"byteOffset":1026380,"byteStride":8,"target":34962},{"buffer":0,"byteLength":5496,"byteOffset":1037372,"byteStride":4,"target":34962},{"buffer":0,"byteLength":2748,"byteOffset":1042868,"target":34963},{"buffer":0,"byteLength":888,"byteOffset":1045616,"byteStride":8,"target":34962},{"buffer":0,"byteLength":444,"byteOffset":1046504,"byteStride":4,"target":34962},{"buffer":0,"byteLength":444,"byteOffset":1046948,"byteStride":4,"target":34962},{"buffer":0,"byteLength":222,"byteOffset":1047392,"target":34963},{"buffer":0,"byteLength":5784,"byteOffset":1047616,"byteStride":8,"target":34962},{"buffer":0,"byteLength":2892,"byteOffset":1053400,"byteStride":4,"target":34962},{"buffer":0,"byteLength":1446,"byteOffset":1056292,"target":34963},{"buffer":0,"byteLength":2376,"byteOffset":1057740,"byteStride":8,"target":34962},{"buffer":0,"byteLength":1188,"byteOffset":1060116,"byteStride":4,"target":34962},{"buffer":0,"byteLength":1188,"byteOffset":1061304,"byteStride":4,"target":34962},{"buffer":0,"byteLength":594,"byteOffset":1062492,"target":34963},{"buffer":0,"byteLength":128,"byteOffset":1063088,"byteStride":8,"target":34962},{"buffer":0,"byteLength":64,"byteOffset":1063216,"byteStride":4,"target":34962},{"buffer":0,"byteLength":48,"byteOffset":1063280,"target":34963},{"buffer":0,"byteLength":896,"byteOffset":1063328,"byteStride":8,"target":34962},{"buffer":0,"byteLength":448,"byteOffset":1064224,"byteStride":4,"target":34962},{"buffer":0,"byteLength":360,"byteOffset":1064672,"target":34963},{"buffer":0,"byteLength":131136,"byteOffset":1065032,"byteStride":8,"target":34962},{"buffer":0,"byteLength":65568,"byteOffset":1196168,"byteStride":4,"target":34962},{"buffer":0,"byteLength":46032,"byteOffset":1261736,"target":34963},{"buffer":0,"byteLength":288,"byteOffset":1307768,"byteStride":8,"target":34962},{"buffer":0,"byteLength":144,"byteOffset":1308056,"byteStride":4,"target":34962},{"buffer":0,"byteLength":96,"byteOffset":1308200,"target":34963},{"buffer":0,"byteLength":82176,"byteOffset":1308296,"byteStride":8,"target":34962},{"buffer":0,"byteLength":41088,"byteOffset":1390472,"byteStride":4,"target":34962},{"buffer":0,"byteLength":41088,"byteOffset":1431560,"byteStride":4,"target":34962},{"buffer":0,"byteLength":28248,"byteOffset":1472648,"target":34963},{"buffer":0,"byteLength":696,"byteOffset":1500896,"byteStride":8,"target":34962},{"buffer":0,"byteLength":348,"byteOffset":1501592,"byteStride":4,"target":34962},{"buffer":0,"byteLength":174,"byteOffset":1501940,"target":34963},{"buffer":0,"byteLength":84960,"byteOffset":1502116,"byteStride":8,"target":34962},{"buffer":0,"byteLength":42480,"byteOffset":1587076,"byteStride":4,"target":34962},{"buffer":0,"byteLength":21240,"byteOffset":1629556,"target":34963},{"buffer":0,"byteLength":192,"byteOffset":1650796,"byteStride":8,"target":34962},{"buffer":0,"byteLength":96,"byteOffset":1650988,"byteStride":4,"target":34962},{"buffer":0,"byteLength":48,"byteOffset":1651084,"target":34963},{"buffer":0,"byteLength":55784,"byteOffset":1651132,"byteStride":8,"target":34962},{"buffer":0,"byteLength":27892,"byteOffset":1706916,"byteStride":4,"target":34962},{"buffer":0,"byteLength":27892,"byteOffset":1734808,"byteStride":4,"target":34962},{"buffer":0,"byteLength":13962,"byteOffset":1762700,"target":34963},{"buffer":0,"byteLength":264,"byteOffset":1776664,"byteStride":8,"target":34962},{"buffer":0,"byteLength":132,"byteOffset":1776928,"byteStride":4,"target":34962},{"buffer":0,"byteLength":66,"byteOffset":1777060,"target":34963},{"buffer":0,"byteLength":23280,"byteOffset":1777128,"byteStride":8,"target":34962},{"buffer":0,"byteLength":11640,"byteOffset":1800408,"byteStride":4,"target":34962},{"buffer":0,"byteLength":5820,"byteOffset":1812048,"target":34963},{"buffer":0,"byteLength":16584,"byteOffset":1817868,"byteStride":8,"target":34962},{"buffer":0,"byteLength":8292,"byteOffset":1834452,"byteStride":4,"target":34962},{"buffer":0,"byteLength":8292,"byteOffset":1842744,"byteStride":4,"target":34962},{"buffer":0,"byteLength":4146,"byteOffset":1851036,"target":34963},{"buffer":0,"byteLength":120,"byteOffset":1855184,"byteStride":8,"target":34962},{"buffer":0,"byteLength":60,"byteOffset":1855304,"byteStride":4,"target":34962},{"buffer":0,"byteLength":30,"byteOffset":1855364,"target":34963},{"buffer":0,"byteLength":7680,"byteOffset":1855396,"byteStride":8,"target":34962},{"buffer":0,"byteLength":3840,"byteOffset":1863076,"byteStride":4,"target":34962},{"buffer":0,"byteLength":3840,"byteOffset":1866916,"byteStride":4,"target":34962},{"buffer":0,"byteLength":1920,"byteOffset":1870756,"target":34963},{"buffer":0,"byteLength":54528,"byteOffset":1872676,"byteStride":8,"target":34962},{"buffer":0,"byteLength":27264,"byteOffset":1927204,"byteStride":4,"target":34962},{"buffer":0,"byteLength":18744,"byteOffset":1954468,"target":34963},{"buffer":0,"byteLength":1568,"byteOffset":1973212,"byteStride":8,"target":34962},{"buffer":0,"byteLength":784,"byteOffset":1974780,"byteStride":4,"target":34962},{"buffer":0,"byteLength":648,"byteOffset":1975564,"target":34963},{"buffer":0,"byteLength":288,"byteOffset":1976212,"byteStride":8,"target":34962},{"buffer":0,"byteLength":144,"byteOffset":1976500,"byteStride":4,"target":34962},{"buffer":0,"byteLength":108,"byteOffset":1976644,"target":34963},{"buffer":0,"byteLength":167904,"byteOffset":1976752,"byteStride":8,"target":34962},{"buffer":0,"byteLength":83952,"byteOffset":2144656,"byteStride":4,"target":34962},{"buffer":0,"byteLength":59970,"byteOffset":2228608,"target":34963},{"buffer":0,"byteLength":2304,"byteOffset":2288580,"byteStride":8,"target":34962},{"buffer":0,"byteLength":1152,"byteOffset":2290884,"byteStride":4,"target":34962},{"buffer":0,"byteLength":864,"byteOffset":2292036,"target":34963},{"buffer":0,"byteLength":4928,"byteOffset":2292900,"byteStride":8,"target":34962},{"buffer":0,"byteLength":2464,"byteOffset":2297828,"byteStride":4,"target":34962},{"buffer":0,"byteLength":1704,"byteOffset":2300292,"target":34963},{"buffer":0,"byteLength":3968,"byteOffset":2301996,"byteStride":8,"target":34962},{"buffer":0,"byteLength":1984,"byteOffset":2305964,"byteStride":4,"target":34962},{"buffer":0,"byteLength":1416,"byteOffset":2307948,"target":34963},{"buffer":0,"byteLength":1152,"byteOffset":2309364,"byteStride":8,"target":34962},{"buffer":0,"byteLength":576,"byteOffset":2310516,"byteStride":4,"target":34962},{"buffer":0,"byteLength":576,"byteOffset":2311092,"byteStride":4,"target":34962},{"buffer":0,"byteLength":1056,"byteOffset":2311668,"target":34963},{"buffer":0,"byteLength":192,"byteOffset":2312724,"byteStride":8,"target":34962},{"buffer":0,"byteLength":96,"byteOffset":2312916,"byteStride":4,"target":34962},{"buffer":0,"byteLength":48,"byteOffset":2313012,"target":34963},{"buffer":0,"byteLength":156360,"byteOffset":2313060,"byteStride":8,"target":34962},{"buffer":0,"byteLength":78180,"byteOffset":2469420,"byteStride":4,"target":34962},{"buffer":0,"byteLength":78180,"byteOffset":2547600,"byteStride":4,"target":34962},{"buffer":0,"byteLength":39090,"byteOffset":2625780,"target":34963},{"buffer":0,"byteLength":3312,"byteOffset":2664872,"byteStride":8,"target":34962},{"buffer":0,"byteLength":1656,"byteOffset":2668184,"byteStride":4,"target":34962},{"buffer":0,"byteLength":828,"byteOffset":2669840,"target":34963},{"buffer":0,"byteLength":2784,"byteOffset":2670668,"byteStride":8,"target":34962},{"buffer":0,"byteLength":1392,"byteOffset":2673452,"byteStride":4,"target":34962},{"buffer":0,"byteLength":696,"byteOffset":2674844,"target":34963},{"buffer":0,"byteLength":48288,"byteOffset":2675540,"byteStride":8,"target":34962},{"buffer":0,"byteLength":24144,"byteOffset":2723828,"byteStride":4,"target":34962},{"buffer":0,"byteLength":24144,"byteOffset":2747972,"byteStride":4,"target":34962},{"buffer":0,"byteLength":12072,"byteOffset":2772116,"target":34963},{"buffer":0,"byteLength":1008,"byteOffset":2784188,"byteStride":8,"target":34962},{"buffer":0,"byteLength":504,"byteOffset":2785196,"byteStride":4,"target":34962},{"buffer":0,"byteLength":252,"byteOffset":2785700,"target":34963},{"buffer":0,"byteLength":8808,"byteOffset":2785952,"byteStride":8,"target":34962},{"buffer":0,"byteLength":4404,"byteOffset":2794760,"byteStride":4,"target":34962},{"buffer":0,"byteLength":4404,"byteOffset":2799164,"byteStride":4,"target":34962},{"buffer":0,"byteLength":2202,"byteOffset":2803568,"target":34963},{"buffer":0,"byteLength":192,"byteOffset":2805772,"byteStride":8,"target":34962},{"buffer":0,"byteLength":96,"byteOffset":2805964,"byteStride":4,"target":34962},{"buffer":0,"byteLength":48,"byteOffset":2806060,"target":34963},{"buffer":0,"byteLength":40560,"byteOffset":2806108,"byteStride":4,"target":34962},{"buffer":0,"byteLength":31200,"byteOffset":2846668,"byteStride":4,"target":34962},{"buffer":0,"byteLength":9948,"byteOffset":2877868,"byteStride":4,"target":34962},{"buffer":0,"byteLength":1824,"byteOffset":2887816,"byteStride":4,"target":34962},{"buffer":0,"byteLength":4608,"byteOffset":2889640,"byteStride":4,"target":34962},{"buffer":0,"byteLength":1152,"byteOffset":2894248,"byteStride":4,"target":34962},{"buffer":0,"byteLength":1152,"byteOffset":2895400,"byteStride":4,"target":34962},{"buffer":0,"byteLength":80112,"byteOffset":2896552,"byteStride":4,"target":34962},{"buffer":0,"byteLength":6864,"byteOffset":2976664,"byteStride":4,"target":34962},{"buffer":0,"byteLength":1536,"byteOffset":2983528,"byteStride":4,"target":34962},{"buffer":0,"byteLength":3904,"byteOffset":2985064,"byteStride":4,"target":34962},{"buffer":0,"byteLength":7872,"byteOffset":2988968,"byteStride":4,"target":34962},{"buffer":0,"byteLength":2160,"byteOffset":2996840,"byteStride":4,"target":34962},{"buffer":0,"byteLength":952,"byteOffset":2999000,"byteStride":4,"target":34962},{"buffer":0,"byteLength":51588,"byteOffset":2999952,"byteStride":4,"target":34962},{"buffer":0,"byteLength":4656,"byteOffset":3051540,"byteStride":4,"target":34962},{"buffer":0,"byteLength":9612,"byteOffset":3056196,"byteStride":4,"target":34962},{"buffer":0,"byteLength":5280,"byteOffset":3065808,"byteStride":4,"target":34962},{"buffer":0,"byteLength":1572,"byteOffset":3071088,"byteStride":4,"target":34962},{"buffer":0,"byteLength":14664,"byteOffset":3072660,"byteStride":4,"target":34962},{"buffer":0,"byteLength":5496,"byteOffset":3087324,"byteStride":4,"target":34962},{"buffer":0,"byteLength":444,"byteOffset":3092820,"byteStride":4,"target":34962},{"buffer":0,"byteLength":2892,"byteOffset":3093264,"byteStride":4,"target":34962},{"buffer":0,"byteLength":1188,"byteOffset":3096156,"byteStride":4,"target":34962},{"buffer":0,"byteLength":64,"byteOffset":3097344,"byteStride":4,"target":34962},{"buffer":0,"byteLength":448,"byteOffset":3097408,"byteStride":4,"target":34962},{"buffer":0,"byteLength":65568,"byteOffset":3097856,"byteStride":4,"target":34962},{"buffer":0,"byteLength":144,"byteOffset":3163424,"byteStride":4,"target":34962},{"buffer":0,"byteLength":41088,"byteOffset":3163568,"byteStride":4,"target":34962},{"buffer":0,"byteLength":348,"byteOffset":3204656,"byteStride":4,"target":34962},{"buffer":0,"byteLength":42480,"byteOffset":3205004,"byteStride":4,"target":34962},{"buffer":0,"byteLength":96,"byteOffset":3247484,"byteStride":4,"target":34962},{"buffer":0,"byteLength":27892,"byteOffset":3247580,"byteStride":4,"target":34962},{"buffer":0,"byteLength":132,"byteOffset":3275472,"byteStride":4,"target":34962},{"buffer":0,"byteLength":11640,"byteOffset":3275604,"byteStride":4,"target":34962},{"buffer":0,"byteLength":8292,"byteOffset":3287244,"byteStride":4,"target":34962},{"buffer":0,"byteLength":60,"byteOffset":3295536,"byteStride":4,"target":34962},{"buffer":0,"byteLength":3840,"byteOffset":3295596,"byteStride":4,"target":34962},{"buffer":0,"byteLength":27264,"byteOffset":3299436,"byteStride":4,"target":34962},{"buffer":0,"byteLength":784,"byteOffset":3326700,"byteStride":4,"target":34962},{"buffer":0,"byteLength":144,"byteOffset":3327484,"byteStride":4,"target":34962},{"buffer":0,"byteLength":83952,"byteOffset":3327628,"byteStride":4,"target":34962},{"buffer":0,"byteLength":1152,"byteOffset":3411580,"byteStride":4,"target":34962},{"buffer":0,"byteLength":2464,"byteOffset":3412732,"byteStride":4,"target":34962},{"buffer":0,"byteLength":1984,"byteOffset":3415196,"byteStride":4,"target":34962},{"buffer":0,"byteLength":576,"byteOffset":3417180,"byteStride":4,"target":34962},{"buffer":0,"byteLength":96,"byteOffset":3417756,"byteStride":4,"target":34962},{"buffer":0,"byteLength":78180,"byteOffset":3417852,"byteStride":4,"target":34962},{"buffer":0,"byteLength":1656,"byteOffset":3496032,"byteStride":4,"target":34962},{"buffer":0,"byteLength":1392,"byteOffset":3497688,"byteStride":4,"target":34962},{"buffer":0,"byteLength":24144,"byteOffset":3499080,"byteStride":4,"target":34962},{"buffer":0,"byteLength":504,"byteOffset":3523224,"byteStride":4,"target":34962},{"buffer":0,"byteLength":4404,"byteOffset":3523728,"byteStride":4,"target":34962},{"buffer":0,"byteLength":96,"byteOffset":3528132,"byteStride":4,"target":34962}],"buffers":[{"byteLength":3528228,"uri":"blacksmith.bin"}],"extensionsRequired":["KHR_mesh_quantization","KHR_texture_transform"],"extensionsUsed":["KHR_mesh_quantization","KHR_texture_transform","MSFT_lod"],"extras":{"hm":{"batching":true,"cellSize":16.0,"cells":[{"cullAt":null,"interior":null,"key":"0_0","lodPrims":[1,1,1,1],"lodTris":[5228,2600,829,152],"max":[8.067,0.855,11.006],"min":[-6.279,0.22,-4.758]},{"cullAt":null,"interior":null,"key":"0_n1","lodPrims":[10,5,3,2],"lodTris":[13742,6059,1717,340],"max":[10.274,9.78,11.006],"min":[-10.274,-0.415,-11.515]},{"cullAt":null,"interior":null,"key":"n1_0","lodPrims":[5,4,3,2],"lodTris":[12464,5904,1672,325],"max":[8.867,11.774,11.229],"min":[-10.443,0.21,-6.837]},{"cullAt":null,"interior":null,"key":"n1_n1","lodPrims":[8,4,2,2],"lodTris":[14085,6777,2054,375],"max":[9.592,11.764,10.528],"min":[-10.455,0.233,-11.124]}],"instanced":[],"instancing":true,"interiors":[],"lod":true,"lodDistances":[15.0,40.0,100.0],"stats":{"groups":4,"lodPrims":[24,14,9,7],"lodTris":[45519,21340,6272,1192]},"venue":"blacksmith"}},"images":[{"uri":"../textures/kit_albedo.png"},{"uri":"../textures/kit_orm.png"},{"uri":"../textures/kit_normal.png"},{"uri":"../textures/rubble_albedo.png"},{"uri":"../textures/rubble_orm.png"},{"uri":"../textures/rubble_normal.png"},{"uri":"../textures/stone_albedo.png"},{"uri":"../textures/stone_orm.png"},{"uri":"../textures/stone_normal.png"},{"uri":"../textures/dirt_albedo.png"},{"uri":"../textures/dirt_orm.png"},{"uri":"../textures/dirt_normal.png"},{"uri":"../textures/cinder_albedo.png"},{"uri":"../textures/cinder_orm.png"},{"uri":"../textures/cinder_normal.png"},{"uri":"../textures/oak_dark_albedo.png"},{"uri":"../textures/oak_dark_orm.png"},{"uri":"../textures/oak_dark_normal.png"},{"uri":"../textures/oak_weathered_albedo.png"},{"uri":"../textures/oak_weathered_orm.png"},{"uri":"../textures/oak_weathered_normal.png"},{"uri":"../textures/slate_albedo.png"},{"uri":"../textures/slate_orm.png"},{"uri":"../textures/slate_normal.png"},{"uri":"../textures/timber_charred_albedo.png"},{"uri":"../textures/timber_charred_orm.png"},{"uri":"../textures/timber_charred_normal.png"},{"uri":"../textures/endgrain_albedo.png"},{"uri":"../textures/endgrain_orm.png"},{"uri":"../textures/endgrain_normal.png"},{"uri":"../textures/ashlar_albedo.png"},{"uri":"../textures/ashlar_orm.png"},{"uri":"../textures/ashlar_normal.png"},{"uri":"../textures/plaster_albedo.png"},{"uri":"../textures/plaster_orm.png"},{"uri":"../textures/plaster_normal.png"},{"uri":"../textures/plaster_shade_albedo.png"},{"uri":"../textures/plaster_shade_orm.png"},{"uri":"../textures/plaster_shade_normal.png"},{"uri":"../textures/glass_lit_albedo.png"},{"uri":"../textures/glass_lit_orm.png"},{"uri":"../textures/glass_lit_normal.png"},{"uri":"../textures/glass_lit_emissive.png"},{"uri":"../textures/glass_albedo.png"},{"uri":"../textures/glass_orm.png"},{"uri":"../textures/glass_normal.png"},{"uri":"../textures/glass_emissive.png"},{"uri":"../textures/terracotta_albedo.png"},{"uri":"../textures/terracotta_orm.png"},{"uri":"../textures/terracotta_normal.png"},{"uri":"../textures/coal_albedo.png"},{"uri":"../textures/coal_orm.png"},{"uri":"../textures/coal_normal.png"},{"uri":"../textures/coal_emissive.png"},{"uri":"../textures/iron_pitted_albedo.png"},{"uri":"../textures/iron_pitted_orm.png"},{"uri":"../textures/iron_pitted_normal.png"},{"uri":"../textures/leather_albedo.png"},{"uri":"../textures/leather_orm.png"},{"uri":"../textures/leather_normal.png"},{"uri":"../textures/water_albedo.png"},{"uri":"../textures/water_orm.png"},{"uri":"../textures/water_normal.png"},{"uri":"../textures/algae_albedo.png"},{"uri":"../textures/algae_orm.png"},{"uri":"../textures/algae_normal.png"},{"uri":"../textures/wool_crimson_albedo.png"},{"uri":"../textures/wool_crimson_orm.png"},{"uri":"../textures/wool_crimson_normal.png"}],"materials":[{"doubleSided":true,"name":"kit","normalTexture":{"extensions":{"KHR_texture_transform":{"scale":[11.90036256851864,11.90036256851864]}},"index":2,"scale":1.0},"occlusionTexture":{"extensions":{"KHR_texture_transform":{"scale":[11.90036256851864,11.90036256851864]}},"index":1},"pbrMetallicRoughness":{"baseColorFactor":[1,1,1,1],"baseColorTexture":{"extensions":{"KHR_texture_transform":{"scale":[11.90036256851864,11.90036256851864]}},"index":0},"metallicFactor":1.0,"metallicRoughnessTexture":{"extensions":{"KHR_texture_transform":{"scale":[11.90036256851864,11.90036256851864]}},"index":1},"roughnessFactor":1.0}},{"doubleSided":false,"name":"rubble","normalTexture":{"extensions":{"KHR_texture_transform":{"scale":[11.90036256851864,11.90036256851864]}},"index":5,"scale":1.0},"occlusionTexture":{"extensions":{"KHR_texture_transform":{"scale":[11.90036256851864,11.90036256851864]}},"index":4},"pbrMetallicRoughness":{"baseColorFactor":[1,1,1,1],"baseColorTexture":{"extensions":{"KHR_texture_transform":{"scale":[11.90036256851864,11.90036256851864]}},"index":3},"metallicFactor":1.0,"metallicRoughnessTexture":{"extensions":{"KHR_texture_transform":{"scale":[11.90036256851864,11.90036256851864]}},"index":4},"roughnessFactor":1.0}},{"doubleSided":false,"name":"stone","normalTexture":{"extensions":{"KHR_texture_transform":{"scale":[11.90036256851864,11.90036256851864]}},"index":8,"scale":1.0},"occlusionTexture":{"extensions":{"KHR_texture_transform":{"scale":[11.90036256851864,11.90036256851864]}},"index":7},"pbrMetallicRoughness":{"baseColorFactor":[1,1,1,1],"baseColorTexture":{"extensions":{"KHR_texture_transform":{"scale":[11.90036256851864,11.90036256851864]}},"index":6},"metallicFactor":1.0,"metallicRoughnessTexture":{"extensions":{"KHR_texture_transform":{"scale":[11.90036256851864,11.90036256851864]}},"index":7},"roughnessFactor":1.0}},{"doubleSided":false,"name":"dirt","normalTexture":{"extensions":{"KHR_texture_transform":{"scale":[11.90036256851864,11.90036256851864]}},"index":11,"scale":1.0},"occlusionTexture":{"extensions":{"KHR_texture_transform":{"scale":[11.90036256851864,11.90036256851864]}},"index":10},"pbrMetallicRoughness":{"baseColorFactor":[1,1,1,1],"baseColorTexture":{"extensions":{"KHR_texture_transform":{"scale":[11.90036256851864,11.90036256851864]}},"index":9},"metallicFactor":1.0,"metallicRoughnessTexture":{"extensions":{"KHR_texture_transform":{"scale":[11.90036256851864,11.90036256851864]}},"index":10},"roughnessFactor":1.0}},{"doubleSided":false,"name":"cinder","normalTexture":{"extensions":{"KHR_texture_transform":{"scale":[11.90036256851864,11.90036256851864]}},"index":14,"scale":1.0},"occlusionTexture":{"extensions":{"KHR_texture_transform":{"scale":[11.90036256851864,11.90036256851864]}},"index":13},"pbrMetallicRoughness":{"baseColorFactor":[1,1,1,1],"baseColorTexture":{"extensions":{"KHR_texture_transform":{"scale":[11.90036256851864,11.90036256851864]}},"index":12},"metallicFactor":1.0,"metallicRoughnessTexture":{"extensions":{"KHR_texture_transform":{"scale":[11.90036256851864,11.90036256851864]}},"index":13},"roughnessFactor":1.0}},{"doubleSided":false,"name":"oak_dark","normalTexture":{"extensions":{"KHR_texture_transform":{"scale":[11.90036256851864,11.90036256851864]}},"index":17,"scale":1.0},"occlusionTexture":{"extensions":{"KHR_texture_transform":{"scale":[11.90036256851864,11.90036256851864]}},"index":16},"pbrMetallicRoughness":{"baseColorFactor":[1,1,1,1],"baseColorTexture":{"extensions":{"KHR_texture_transform":{"scale":[11.90036256851864,11.90036256851864]}},"index":15},"metallicFactor":1.0,"metallicRoughnessTexture":{"extensions":{"KHR_texture_transform":{"scale":[11.90036256851864,11.90036256851864]}},"index":16},"roughnessFactor":1.0}},{"doubleSided":false,"name":"oak_weathered","normalTexture":{"extensions":{"KHR_texture_transform":{"scale":[11.90036256851864,11.90036256851864]}},"index":20,"scale":1.0},"occlusionTexture":{"extensions":{"KHR_texture_transform":{"scale":[11.90036256851864,11.90036256851864]}},"index":19},"pbrMetallicRoughness":{"baseColorFactor":[1,1,1,1],"baseColorTexture":{"extensions":{"KHR_texture_transform":{"scale":[11.90036256851864,11.90036256851864]}},"index":18},"metallicFactor":1.0,"metallicRoughnessTexture":{"extensions":{"KHR_texture_transform":{"scale":[11.90036256851864,11.90036256851864]}},"index":19},"roughnessFactor":1.0}},{"doubleSided":false,"name":"slate","normalTexture":{"extensions":{"KHR_texture_transform":{"scale":[11.90036256851864,11.90036256851864]}},"index":23,"scale":1.0},"occlusionTexture":{"extensions":{"KHR_texture_transform":{"scale":[11.90036256851864,11.90036256851864]}},"index":22},"pbrMetallicRoughness":{"baseColorFactor":[1,1,1,1],"baseColorTexture":{"extensions":{"KHR_texture_transform":{"scale":[11.90036256851864,11.90036256851864]}},"index":21},"metallicFactor":1.0,"metallicRoughnessTexture":{"extensions":{"KHR_texture_transform":{"scale":[11.90036256851864,11.90036256851864]}},"index":22},"roughnessFactor":1.0}},{"doubleSided":false,"name":"timber_charred","normalTexture":{"extensions":{"KHR_texture_transform":{"scale":[11.90036256851864,11.90036256851864]}},"index":26,"scale":1.0},"occlusionTexture":{"extensions":{"KHR_texture_transform":{"scale":[11.90036256851864,11.90036256851864]}},"index":25},"pbrMetallicRoughness":{"baseColorFactor":[1,1,1,1],"baseColorTexture":{"extensions":{"KHR_texture_transform":{"scale":[11.90036256851864,11.90036256851864]}},"index":24},"metallicFactor":1.0,"metallicRoughnessTexture":{"extensions":{"KHR_texture_transform":{"scale":[11.90036256851864,11.90036256851864]}},"index":25},"roughnessFactor":1.0}},{"doubleSided":false,"name":"endgrain","normalTexture":{"extensions":{"KHR_texture_transform":{"scale":[11.90036256851864,11.90036256851864]}},"index":29,"scale":1.0},"occlusionTexture":{"extensions":{"KHR_texture_transform":{"scale":[11.90036256851864,11.90036256851864]}},"index":28},"pbrMetallicRoughness":{"baseColorFactor":[1,1,1,1],"baseColorTexture":{"extensions":{"KHR_texture_transform":{"scale":[11.90036256851864,11.90036256851864]}},"index":27},"metallicFactor":1.0,"metallicRoughnessTexture":{"extensions":{"KHR_texture_transform":{"scale":[11.90036256851864,11.90036256851864]}},"index":28},"roughnessFactor":1.0}},{"doubleSided":false,"name":"ashlar","normalTexture":{"extensions":{"KHR_texture_transform":{"scale":[11.90036256851864,11.90036256851864]}},"index":32,"scale":1.0},"occlusionTexture":{"extensions":{"KHR_texture_transform":{"scale":[11.90036256851864,11.90036256851864]}},"index":31},"pbrMetallicRoughness":{"baseColorFactor":[1,1,1,1],"baseColorTexture":{"extensions":{"KHR_texture_transform":{"scale":[11.90036256851864,11.90036256851864]}},"index":30},"metallicFactor":1.0,"metallicRoughnessTexture":{"extensions":{"KHR_texture_transform":{"scale":[11.90036256851864,11.90036256851864]}},"index":31},"roughnessFactor":1.0}},{"doubleSided":false,"name":"plaster","normalTexture":{"extensions":{"KHR_texture_transform":{"scale":[11.90036256851864,11.90036256851864]}},"index":35,"scale":1.0},"occlusionTexture":{"extensions":{"KHR_texture_transform":{"scale":[11.90036256851864,11.90036256851864]}},"index":34},"pbrMetallicRoughness":{"baseColorFactor":[1,1,1,1],"baseColorTexture":{"extensions":{"KHR_texture_transform":{"scale":[11.90036256851864,11.90036256851864]}},"index":33},"metallicFactor":1.0,"metallicRoughnessTexture":{"extensions":{"KHR_texture_transform":{"scale":[11.90036256851864,11.90036256851864]}},"index":34},"roughnessFactor":1.0}},{"doubleSided":false,"name":"plaster_shade","normalTexture":{"extensions":{"KHR_texture_transform":{"scale":[11.90036256851864,11.90036256851864]}},"index":38,"scale":1.0},"occlusionTexture":{"extensions":{"KHR_texture_transform":{"scale":[11.90036256851864,11.90036256851864]}},"index":37},"pbrMetallicRoughness":{"baseColorFactor":[1,1,1,1],"baseColorTexture":{"extensions":{"KHR_texture_transform":{"scale":[11.90036256851864,11.90036256851864]}},"index":36},"metallicFactor":1.0,"metallicRoughnessTexture":{"extensions":{"KHR_texture_transform":{"scale":[11.90036256851864,11.90036256851864]}},"index":37},"roughnessFactor":1.0}},{"doubleSided":true,"emissiveFactor":[1.0,1.0,1.0],"emissiveTexture":{"extensions":{"KHR_texture_transform":{"scale":[11.90036256851864,11.90036256851864]}},"index":42},"name":"glass_lit","normalTexture":{"extensions":{"KHR_texture_transform":{"scale":[11.90036256851864,11.90036256851864]}},"index":41,"scale":1.0},"occlusionTexture":{"extensions":{"KHR_texture_transform":{"scale":[11.90036256851864,11.90036256851864]}},"index":40},"pbrMetallicRoughness":{"baseColorFactor":[1,1,1,1],"baseColorTexture":{"extensions":{"KHR_texture_transform":{"scale":[11.90036256851864,11.90036256851864]}},"index":39},"metallicFactor":1.0,"metallicRoughnessTexture":{"extensions":{"KHR_texture_transform":{"scale":[11.90036256851864,11.90036256851864]}},"index":40},"roughnessFactor":1.0}},{"alphaMode":"BLEND","doubleSided":true,"emissiveFactor":[1.0,1.0,1.0],"emissiveTexture":{"extensions":{"KHR_texture_transform":{"scale":[11.90036256851864,11.90036256851864]}},"index":46},"name":"glass","normalTexture":{"extensions":{"KHR_texture_transform":{"scale":[11.90036256851864,11.90036256851864]}},"index":45,"scale":1.0},"occlusionTexture":{"extensions":{"KHR_texture_transform":{"scale":[11.90036256851864,11.90036256851864]}},"index":44},"pbrMetallicRoughness":{"baseColorFactor":[1,1,1,1],"baseColorTexture":{"extensions":{"KHR_texture_transform":{"scale":[11.90036256851864,11.90036256851864]}},"index":43},"metallicFactor":1.0,"metallicRoughnessTexture":{"extensions":{"KHR_texture_transform":{"scale":[11.90036256851864,11.90036256851864]}},"index":44},"roughnessFactor":1.0}},{"doubleSided":false,"name":"terracotta","normalTexture":{"extensions":{"KHR_texture_transform":{"scale":[11.90036256851864,11.90036256851864]}},"index":49,"scale":1.0},"occlusionTexture":{"extensions":{"KHR_texture_transform":{"scale":[11.90036256851864,11.90036256851864]}},"index":48},"pbrMetallicRoughness":{"baseColorFactor":[1,1,1,1],"baseColorTexture":{"extensions":{"KHR_texture_transform":{"scale":[11.90036256851864,11.90036256851864]}},"index":47},"metallicFactor":1.0,"metallicRoughnessTexture":{"extensions":{"KHR_texture_transform":{"scale":[11.90036256851864,11.90036256851864]}},"index":48},"roughnessFactor":1.0}},{"doubleSided":false,"emissiveFactor":[1.0,1.0,1.0],"emissiveTexture":{"extensions":{"KHR_texture_transform":{"scale":[11.90036256851864,11.90036256851864]}},"index":53},"name":"coal","normalTexture":{"extensions":{"KHR_texture_transform":{"scale":[11.90036256851864,11.90036256851864]}},"index":52,"scale":1.0},"occlusionTexture":{"extensions":{"KHR_texture_transform":{"scale":[11.90036256851864,11.90036256851864]}},"index":51},"pbrMetallicRoughness":{"baseColorFactor":[1,1,1,1],"baseColorTexture":{"extensions":{"KHR_texture_transform":{"scale":[11.90036256851864,11.90036256851864]}},"index":50},"metallicFactor":1.0,"metallicRoughnessTexture":{"extensions":{"KHR_texture_transform":{"scale":[11.90036256851864,11.90036256851864]}},"index":51},"roughnessFactor":1.0}},{"doubleSided":false,"name":"iron_pitted","normalTexture":{"extensions":{"KHR_texture_transform":{"scale":[11.90036256851864,11.90036256851864]}},"index":56,"scale":1.0},"occlusionTexture":{"extensions":{"KHR_texture_transform":{"scale":[11.90036256851864,11.90036256851864]}},"index":55},"pbrMetallicRoughness":{"baseColorFactor":[1,1,1,1],"baseColorTexture":{"extensions":{"KHR_texture_transform":{"scale":[11.90036256851864,11.90036256851864]}},"index":54},"metallicFactor":1.0,"metallicRoughnessTexture":{"extensions":{"KHR_texture_transform":{"scale":[11.90036256851864,11.90036256851864]}},"index":55},"roughnessFactor":1.0}},{"doubleSided":false,"name":"leather","normalTexture":{"extensions":{"KHR_texture_transform":{"scale":[11.90036256851864,11.90036256851864]}},"index":59,"scale":1.0},"occlusionTexture":{"extensions":{"KHR_texture_transform":{"scale":[11.90036256851864,11.90036256851864]}},"index":58},"pbrMetallicRoughness":{"baseColorFactor":[1,1,1,1],"baseColorTexture":{"extensions":{"KHR_texture_transform":{"scale":[11.90036256851864,11.90036256851864]}},"index":57},"metallicFactor":1.0,"metallicRoughnessTexture":{"extensions":{"KHR_texture_transform":{"scale":[11.90036256851864,11.90036256851864]}},"index":58},"roughnessFactor":1.0}},{"alphaMode":"BLEND","doubleSided":false,"name":"water","normalTexture":{"extensions":{"KHR_texture_transform":{"scale":[11.90036256851864,11.90036256851864]}},"index":62,"scale":1.0},"occlusionTexture":{"extensions":{"KHR_texture_transform":{"scale":[11.90036256851864,11.90036256851864]}},"index":61},"pbrMetallicRoughness":{"baseColorFactor":[1,1,1,1],"baseColorTexture":{"extensions":{"KHR_texture_transform":{"scale":[11.90036256851864,11.90036256851864]}},"index":60},"metallicFactor":1.0,"metallicRoughnessTexture":{"extensions":{"KHR_texture_transform":{"scale":[11.90036256851864,11.90036256851864]}},"index":61},"roughnessFactor":1.0}},{"doubleSided":false,"name":"algae","normalTexture":{"extensions":{"KHR_texture_transform":{"scale":[11.90036256851864,11.90036256851864]}},"index":65,"scale":1.0},"occlusionTexture":{"extensions":{"KHR_texture_transform":{"scale":[11.90036256851864,11.90036256851864]}},"index":64},"pbrMetallicRoughness":{"baseColorFactor":[1,1,1,1],"baseColorTexture":{"extensions":{"KHR_texture_transform":{"scale":[11.90036256851864,11.90036256851864]}},"index":63},"metallicFactor":1.0,"metallicRoughnessTexture":{"extensions":{"KHR_texture_transform":{"scale":[11.90036256851864,11.90036256851864]}},"index":64},"roughnessFactor":1.0}},{"doubleSided":false,"name":"wool_crimson","normalTexture":{"extensions":{"KHR_texture_transform":{"scale":[11.90036256851864,11.90036256851864]}},"index":68,"scale":1.0},"occlusionTexture":{"extensions":{"KHR_texture_transform":{"scale":[11.90036256851864,11.90036256851864]}},"index":67},"pbrMetallicRoughness":{"baseColorFactor":[1,1,1,1],"baseColorTexture":{"extensions":{"KHR_texture_transform":{"scale":[11.90036256851864,11.90036256851864]}},"index":66},"metallicFactor":1.0,"metallicRoughnessTexture":{"extensions":{"KHR_texture_transform":{"scale":[11.90036256851864,11.90036256851864]}},"index":67},"roughnessFactor":1.0}}],"meshes":[{"name":"blacksmith#0_0","primitives":[{"attributes":{"NORMAL":1,"POSITION":0,"TEXCOORD_0":174},"indices":2,"material":4}]},{"name":"blacksmith#0_0$lod1","primitives":[{"attributes":{"NORMAL":4,"POSITION":3,"TEXCOORD_0":175},"indices":5,"material":4}]},{"name":"blacksmith#0_0$lod2","primitives":[{"attributes":{"NORMAL":7,"POSITION":6,"TEXCOORD_0":176},"indices":8,"material":4}]},{"name":"blacksmith#0_0$lod3","primitives":[{"attributes":{"NORMAL":10,"POSITION":9,"TEXCOORD_0":177},"indices":11,"material":4}]},{"name":"blacksmith#0_n1","primitives":[{"attributes":{"NORMAL":13,"POSITION":12,"TEXCOORD_0":178},"indices":14,"material":10},{"attributes":{"NORMAL":16,"POSITION":15,"TEXCOORD_0":179},"indices":17,"material":14},{"attributes":{"NORMAL":19,"POSITION":18,"TEXCOORD_0":180},"indices":20,"material":13},{"attributes":{"NORMAL":22,"POSITION":21,"TEXCOORD_0":181},"indices":23,"material":0},{"attributes":{"NORMAL":25,"POSITION":24,"TEXCOORD_0":182},"indices":26,"material":11},{"attributes":{"NORMAL":28,"POSITION":27,"TEXCOORD_0":183},"indices":29,"material":12},{"attributes":{"NORMAL":31,"POSITION":30,"TEXCOORD_0":184},"indices":32,"material":1},{"attributes":{"NORMAL":34,"POSITION":33,"TEXCOORD_0":185},"indices":35,"material":2},{"attributes":{"COLOR_0":38,"NORMAL":37,"POSITION":36,"TEXCOORD_0":186},"indices":39,"material":15},{"attributes":{"NORMAL":41,"POSITION":40,"TEXCOORD_0":187},"indices":42,"material":21}]},{"name":"blacksmith#0_n1$lod1","primitives":[{"attributes":{"NORMAL":44,"POSITION":43,"TEXCOORD_0":188},"indices":45,"material":0},{"attributes":{"NORMAL":47,"POSITION":46,"TEXCOORD_0":189},"indices":48,"material":11},{"attributes":{"NORMAL":50,"POSITION":49,"TEXCOORD_0":190},"indices":51,"material":1},{"attributes":{"NORMAL":53,"POSITION":52,"TEXCOORD_0":191},"indices":54,"material":2},{"attributes":{"COLOR_0":57,"NORMAL":56,"POSITION":55,"TEXCOORD_0":192},"indices":58,"material":15}]},{"name":"blacksmith#0_n1$lod2","primitives":[{"attributes":{"NORMAL":60,"POSITION":59,"TEXCOORD_0":193},"indices":61,"material":0},{"attributes":{"NORMAL":63,"POSITION":62,"TEXCOORD_0":194},"indices":64,"material":1},{"attributes":{"COLOR_0":67,"NORMAL":66,"POSITION":65,"TEXCOORD_0":195},"indices":68,"material":15}]},{"name":"blacksmith#0_n1$lod3","primitives":[{"attributes":{"NORMAL":70,"POSITION":69,"TEXCOORD_0":196},"indices":71,"material":0},{"attributes":{"COLOR_0":74,"NORMAL":73,"POSITION":72,"TEXCOORD_0":197},"indices":75,"material":1}]},{"name":"blacksmith#n1_0","primitives":[{"attributes":{"NORMAL":77,"POSITION":76,"TEXCOORD_0":198},"indices":78,"material":20},{"attributes":{"NORMAL":80,"POSITION":79,"TEXCOORD_0":199},"indices":81,"material":3},{"attributes":{"NORMAL":83,"POSITION":82,"TEXCOORD_0":200},"indices":84,"material":0},{"attributes":{"NORMAL":86,"POSITION":85,"TEXCOORD_0":201},"indices":87,"material":6},{"attributes":{"COLOR_0":90,"NORMAL":89,"POSITION":88,"TEXCOORD_0":202},"indices":91,"material":7}]},{"name":"blacksmith#n1_0$lod1","primitives":[{"attributes":{"NORMAL":93,"POSITION":92,"TEXCOORD_0":203},"indices":94,"material":3},{"attributes":{"NORMAL":96,"POSITION":95,"TEXCOORD_0":204},"indices":97,"material":0},{"attributes":{"NORMAL":99,"POSITION":98,"TEXCOORD_0":205},"indices":100,"material":6},{"attributes":{"COLOR_0":103,"NORMAL":102,"POSITION":101,"TEXCOORD_0":206},"indices":104,"material":7}]},{"name":"blacksmith#n1_0$lod2","primitives":[{"attributes":{"NORMAL":106,"POSITION":105,"TEXCOORD_0":207},"indices":107,"material":3},{"attributes":{"NORMAL":109,"POSITION":108,"TEXCOORD_0":208},"indices":110,"material":0},{"attributes":{"COLOR_0":113,"NORMAL":112,"POSITION":111,"TEXCOORD_0":209},"indices":114,"material":7}]},{"name":"blacksmith#n1_0$lod3","primitives":[{"attributes":{"NORMAL":116,"POSITION":115,"TEXCOORD_0":210},"indices":117,"material":3},{"attributes":{"COLOR_0":120,"NORMAL":119,"POSITION":118,"TEXCOORD_0":211},"indices":121,"material":7}]},{"name":"blacksmith#n1_n1","primitives":[{"attributes":{"NORMAL":123,"POSITION":122,"TEXCOORD_0":212},"indices":124,"material":16},{"attributes":{"NORMAL":126,"POSITION":125,"TEXCOORD_0":213},"indices":127,"material":9},{"attributes":{"NORMAL":129,"POSITION":128,"TEXCOORD_0":214},"indices":130,"material":17},{"attributes":{"NORMAL":132,"POSITION":131,"TEXCOORD_0":215},"indices":133,"material":0},{"attributes":{"NORMAL":135,"POSITION":134,"TEXCOORD_0":216},"indices":136,"material":18},{"attributes":{"NORMAL":138,"POSITION":137,"TEXCOORD_0":217},"indices":139,"material":5},{"attributes":{"NORMAL":141,"POSITION":140,"TEXCOORD_0":218},"indices":142,"material":8},{"attributes":{"COLOR_0":145,"NORMAL":144,"POSITION":143,"TEXCOORD_0":219},"indices":146,"material":19}]},{"name":"blacksmith#n1_n1$lod1","primitives":[{"attributes":{"NORMAL":148,"POSITION":147,"TEXCOORD_0":220},"indices":149,"material":17},{"attributes":{"COLOR_0":152,"NORMAL":151,"POSITION":150,"TEXCOORD_0":221},"indices":153,"material":0},{"attributes":{"NORMAL":155,"POSITION":154,"TEXCOORD_0":222},"indices":156,"material":5},{"attributes":{"NORMAL":158,"POSITION":157,"TEXCOORD_0":223},"indices":159,"material":8}]},{"name":"blacksmith#n1_n1$lod2","primitives":[{"attributes":{"COLOR_0":162,"NORMAL":161,"POSITION":160,"TEXCOORD_0":224},"indices":163,"material":0},{"attributes":{"NORMAL":165,"POSITION":164,"TEXCOORD_0":225},"indices":166,"material":5}]},{"name":"blacksmith#n1_n1$lod3","primitives":[{"attributes":{"COLOR_0":169,"NORMAL":168,"POSITION":167,"TEXCOORD_0":226},"indices":170,"material":0},{"attributes":{"NORMAL":172,"POSITION":171,"TEXCOORD_0":227},"indices":173,"material":5}]}],"nodes":[{"extensions":{"MSFT_lod":{"ids":[1,2,3]}},"extras":{"MSFT_screencoverage":[1.0,0.51204,0.20481,0.0],"hm":{"cell":"0_0","cullAt":null,"interior":null,"lod":0,"max":[8.067,0.855,11.006],"min":[-6.279,0.22,-4.758],"prims":1,"tris":5228,"venue":"blacksmith"}},"mesh":0,"name":"blacksmith#0_0","scale":[7.172752380371094,0.3174999952316284,7.88216495513916],"translation":[0.8942327499389648,0.5375000238418579,3.124051094055176]},{"extras":{"hm":{"cell":"0_0","cullAt":null,"interior":null,"lod":1,"max":[8.067,0.855,11.006],"min":[-6.279,0.22,-4.758],"prims":1,"tris":2600,"venue":"blacksmith"}},"mesh":1,"name":"blacksmith#0_0$lod1","scale":[7.172061920166016,0.3174999952316284,7.88216495513916],"translation":[0.894923210144043,0.5375000238418579,3.124051094055176]},{"extras":{"hm":{"cell":"0_0","cullAt":null,"interior":null,"lod":2,"max":[8.067,0.855,11.006],"min":[-6.279,0.22,-4.758],"prims":1,"tris":829,"venue":"blacksmith"}},"mesh":2,"name":"blacksmith#0_0$lod2","scale":[7.169532775878906,0.3174999952316284,7.88216495513916],"translation":[0.8937921524047852,0.5375000238418579,3.124051094055176]},{"extras":{"hm":{"cell":"0_0","cullAt":null,"interior":null,"lod":3,"max":[8.067,0.855,11.006],"min":[-6.279,0.22,-4.758],"prims":1,"tris":152,"venue":"blacksmith"}},"mesh":3,"name":"blacksmith#0_0$lod3","scale":[6.096755027770996,0.023300617933273315,6.311035633087158],"translation":[1.9664299488067627,0.26176217198371887,4.690098285675049]},{"extensions":{"MSFT_lod":{"ids":[5,6,7]}},"extras":{"MSFT_screencoverage":[1.0,0.7719,0.30876,0.0],"hm":{"cell":"0_n1","cullAt":null,"interior":null,"lod":0,"max":[10.274,9.78,11.006],"min":[-10.274,-0.415,-11.515],"prims":10,"tris":13742,"venue":"blacksmith"}},"mesh":4,"name":"blacksmith#0_n1","scale":[10.27397346496582,5.09773588180542,11.260725021362305],"translation":[0.0,4.6822638511657715,-0.2547011375427246]},{"extras":{"hm":{"cell":"0_n1","cullAt":null,"interior":null,"lod":1,"max":[10.274,9.78,11.006],"min":[-10.274,-0.415,-11.515],"prims":5,"tris":6059,"venue":"blacksmith"}},"mesh":5,"name":"blacksmith#0_n1$lod1","scale":[10.25658893585205,5.090533256530762,11.251607894897461],"translation":[0.0,4.67946720123291,-0.26381731033325195]},{"extras":{"hm":{"cell":"0_n1","cullAt":null,"interior":null,"lod":2,"max":[10.274,9.78,11.006],"min":[-10.274,-0.415,-11.515],"prims":3,"tris":1717,"venue":"blacksmith"}},"mesh":6,"name":"blacksmith#0_n1$lod2","scale":[10.25658893585205,5.083268165588379,11.247217178344727],"translation":[0.0,4.685730934143066,-0.2594261169433594]},{"extras":{"hm":{"cell":"0_n1","cullAt":null,"interior":null,"lod":3,"max":[10.274,9.78,11.006],"min":[-10.274,-0.415,-11.515],"prims":2,"tris":340,"venue":"blacksmith"}},"mesh":7,"name":"blacksmith#0_n1$lod3","scale":[10.25658893585205,5.062399387359619,11.23134994506836],"translation":[0.0,4.664862155914307,-0.2435588836669922]},{"extensions":{"MSFT_lod":{"ids":[9,10,11]}},"extras":{"MSFT_screencoverage":[1.0,0.69304,0.27722,0.0],"hm":{"cell":"n1_0","cullAt":null,"interior":null,"lod":0,"max":[8.867,11.774,11.229],"min":[-10.443,0.21,-6.837],"prims":5,"tris":12464,"venue":"blacksmith"}},"mesh":8,"name":"blacksmith#n1_0","scale":[9.654773712158203,5.782199859619141,9.033459663391113],"translation":[-0.7881217002868652,5.992199897766113,2.195960760116577]},{"extras":{"hm":{"cell":"n1_0","cullAt":null,"interior":null,"lod":1,"max":[8.867,11.774,11.229],"min":[-10.443,0.21,-6.837],"prims":4,"tris":5904,"venue":"blacksmith"}},"mesh":9,"name":"blacksmith#n1_0$lod1","scale":[9.643573760986328,5.782199859619141,8.999526977539062],"translation":[-0.7769217491149902,5.992199897766113,2.2280640602111816]},{"extras":{"hm":{"cell":"n1_0","cullAt":null,"interior":null,"lod":2,"max":[8.867,11.774,11.229],"min":[-10.443,0.21,-6.837],"prims":3,"tris":1672,"venue":"blacksmith"}},"mesh":10,"name":"blacksmith#n1_0$lod2","scale":[9.632280349731445,5.768972873687744,8.99587631225586],"translation":[-0.7747631072998047,5.984426975250244,2.227659225463867]},{"extras":{"hm":{"cell":"n1_0","cullAt":null,"interior":null,"lod":3,"max":[8.867,11.774,11.229],"min":[-10.443,0.21,-6.837],"prims":2,"tris":325,"venue":"blacksmith"}},"mesh":11,"name":"blacksmith#n1_0$lod3","scale":[9.522237777709961,5.7255425453186035,8.931818008422852],"translation":[-0.8827319145202637,5.949571132659912,2.291594982147217]},{"extensions":{"MSFT_lod":{"ids":[13,14,15]}},"extras":{"MSFT_screencoverage":[1.0,0.76072,0.30429,0.0],"hm":{"cell":"n1_n1","cullAt":null,"interior":null,"lod":0,"max":[9.592,11.764,10.528],"min":[-10.455,0.233,-11.124],"prims":8,"tris":14085,"venue":"blacksmith"}},"mesh":12,"name":"blacksmith#n1_n1","scale":[10.02334213256836,5.765539646148682,10.825948715209961],"translation":[-0.4316697120666504,5.998391628265381,-0.2979907989501953]},{"extras":{"hm":{"cell":"n1_n1","cullAt":null,"interior":null,"lod":1,"max":[9.592,11.764,10.528],"min":[-10.455,0.233,-11.124],"prims":4,"tris":6777,"venue":"blacksmith"}},"mesh":13,"name":"blacksmith#n1_n1$lod1","scale":[10.022497177124023,5.765539646148682,10.824922561645508],"translation":[-0.4323616027832031,5.998391628265381,-0.29901647567749023]},{"extras":{"hm":{"cell":"n1_n1","cullAt":null,"interior":null,"lod":2,"max":[9.592,11.764,10.528],"min":[-10.455,0.233,-11.124],"prims":2,"tris":2054,"venue":"blacksmith"}},"mesh":14,"name":"blacksmith#n1_n1$lod2","scale":[10.012162208557129,5.764857292175293,10.812141418457031],"translation":[-0.4423990249633789,5.997709274291992,-0.30124568939208984]},{"extras":{"hm":{"cell":"n1_n1","cullAt":null,"interior":null,"lod":3,"max":[9.592,11.764,10.528],"min":[-10.455,0.233,-11.124],"prims":2,"tris":375,"venue":"blacksmith"}},"mesh":15,"name":"blacksmith#n1_n1$lod3","scale":[9.97464370727539,5.76056432723999,10.801937103271484],"translation":[-0.42136526107788086,6.001759052276611,-0.29104137420654297]}],"samplers":[{"magFilter":9729,"minFilter":9987,"wrapS":10497,"wrapT":10497}],"scene":0,"scenes":[{"nodes":[0,4,8,12]}],"textures":[{"sampler":0,"source":0},{"sampler":0,"source":1},{"sampler":0,"source":2},{"sampler":0,"source":3},{"sampler":0,"source":4},{"sampler":0,"source":5},{"sampler":0,"source":6},{"sampler":0,"source":7},{"sampler":0,"source":8},{"sampler":0,"source":9},{"sampler":0,"source":10},{"sampler":0,"source":11},{"sampler":0,"source":12},{"sampler":0,"source":13},{"sampler":0,"source":14},{"sampler":0,"source":15},{"sampler":0,"source":16},{"sampler":0,"source":17},{"sampler":0,"source":18},{"sampler":0,"source":19},{"sampler":0,"source":20},{"sampler":0,"source":21},{"sampler":0,"source":22},{"sampler":0,"source":23},{"sampler":0,"source":24},{"sampler":0,"source":25},{"sampler":0,"source":26},{"sampler":0,"source":27},{"sampler":0,"source":28},{"sampler":0,"source":29},{"sampler":0,"source":30},{"sampler":0,"source":31},{"sampler":0,"source":32},{"sampler":0,"source":33},{"sampler":0,"source":34},{"sampler":0,"source":35},{"sampler":0,"source":36},{"sampler":0,"source":37},{"sampler":0,"source":38},{"sampler":0,"source":39},{"sampler":0,"source":40},{"sampler":0,"source":41},{"sampler":0,"source":42},{"sampler":0,"source":43},{"sampler":0,"source":44},{"sampler":0,"source":45},{"sampler":0,"source":46},{"sampler":0,"source":47},{"sampler":0,"source":48},{"sampler":0,"source":49},{"sampler":0,"source":50},{"sampler":0,"source":51},{"sampler":0,"source":52},{"sampler":0,"source":53},{"sampler":0,"source":54},{"sampler":0,"source":55},{"sampler":0,"source":56},{"sampler":0,"source":57},{"sampler":0,"source":58},{"sampler":0,"source":59},{"sampler":0,"source":60},{"sampler":0,"source":61},{"sampler":0,"source":62},{"sampler":0,"source":63},{"sampler":0,"source":64},{"sampler":0,"source":65},{"sampler":0,"source":66},{"sampler":0,"source":67},{"sampler":0,"source":68}]}