{"accessors":[{"bufferView":0,"componentType":5122,"count":144,"max":[16764.0,10076.0,-17766.0],"min":[8389.0,-10566.0,-21430.0],"normalized":true,"type":"VEC3"},{"bufferView":1,"componentType":5120,"count":144,"normalized":true,"type":"VEC3"},{"bufferView":2,"componentType":5123,"count":216,"type":"SCALAR"},{"bufferView":3,"componentType":5122,"count":768,"max":[-10155.0,-21598.0,11769.0],"min":[-12558.0,-22384.0,8552.0],"normalized":true,"type":"VEC3"},{"bufferView":4,"componentType":5120,"count":768,"normalized":true,"type":"VEC3"},{"bufferView":5,"componentType":5123,"count":1056,"type":"SCALAR"},{"bufferView":6,"componentType":5122,"count":32,"max":[-18671.0,2375.0,-3028.0],"min":[-20371.0,-2472.0,-5851.0],"normalized":true,"type":"VEC3"},{"bufferView":7,"componentType":5120,"count":32,"normalized":true,"type":"VEC3"},{"bufferView":8,"componentType":5123,"count":48,"type":"SCALAR"},{"bufferView":9,"componentType":5122,"count":24,"max":[30098.0,24645.0,14745.0],"min":[121.0,20453.0,-20148.0],"normalized":true,"type":"VEC3"},{"bufferView":10,"componentType":5120,"count":24,"normalized":true,"type":"VEC3"},{"bufferView":11,"componentType":5123,"count":36,"type":"SCALAR"},{"bufferView":12,"componentType":5122,"count":24,"max":[32767.0,20977.0,16827.0],"min":[-2547.0,-32733.0,-22230.0],"normalized":true,"type":"VEC3"},{"bufferView":13,"componentType":5120,"count":24,"normalized":true,"type":"VEC3"},{"bufferView":14,"componentType":5123,"count":36,"type":"SCALAR"},{"bufferView":15,"componentType":5122,"count":13371,"max":[25596.0,32767.0,32767.0],"min":[-32767.0,-32767.0,-32767.0],"normalized":true,"type":"VEC3"},{"bufferView":16,"componentType":5120,"count":13371,"normalized":true,"type":"VEC3"},{"bufferView":17,"componentType":5123,"count":20595,"type":"SCALAR"},{"bufferView":18,"componentType":5122,"count":24,"max":[31641.0,24644.0,14228.0],"min":[2212.0,20452.0,-20160.0],"normalized":true,"type":"VEC3"},{"bufferView":19,"componentType":5120,"count":24,"normalized":true,"type":"VEC3"},{"bufferView":20,"componentType":5123,"count":24,"type":"SCALAR"},{"bufferView":21,"componentType":5122,"count":651,"max":[32767.0,20976.0,16181.0],"min":[-19903.0,-32738.0,-21593.0],"normalized":true,"type":"VEC3"},{"bufferView":22,"componentType":5120,"count":651,"normalized":true,"type":"VEC3"},{"bufferView":23,"componentType":5123,"count":651,"type":"SCALAR"},{"bufferView":24,"componentType":5122,"count":9867,"max":[27021.0,32767.0,32767.0],"min":[-32767.0,-32767.0,-32767.0],"normalized":true,"type":"VEC3"},{"bufferView":25,"componentType":5120,"count":9867,"normalized":true,"type":"VEC3"},{"bufferView":26,"componentType":5123,"count":9867,"type":"SCALAR"},{"bufferView":27,"componentType":5122,"count":24,"max":[31638.0,24710.0,14253.0],"min":[2115.0,20511.0,-20284.0],"normalized":true,"type":"VEC3"},{"bufferView":28,"componentType":5120,"count":24,"normalized":true,"type":"VEC3"},{"bufferView":29,"componentType":5123,"count":24,"type":"SCALAR"},{"bufferView":30,"componentType":5122,"count":198,"max":[32767.0,21036.0,16214.0],"min":[-20071.0,-32764.0,-21723.0],"normalized":true,"type":"VEC3"},{"bufferView":31,"componentType":5120,"count":198,"normalized":true,"type":"VEC3"},{"bufferView":32,"componentType":5123,"count":198,"type":"SCALAR"},{"bufferView":33,"componentType":5122,"count":2709,"max":[27002.0,32767.0,32767.0],"min":[-32767.0,-32767.0,-32767.0],"normalized":true,"type":"VEC3"},{"bufferView":34,"componentType":5120,"count":2709,"normalized":true,"type":"VEC3"},{"bufferView":35,"componentType":5123,"count":2709,"type":"SCALAR"},{"bufferView":36,"componentType":5122,"count":24,"max":[31586.0,24733.0,16947.0],"min":[701.0,20532.0,-19569.0],"normalized":true,"type":"VEC3"},{"bufferView":37,"componentType":5120,"count":24,"normalized":true,"type":"VEC3"},{"bufferView":38,"componentType":5123,"count":24,"type":"SCALAR"},{"bufferView":39,"componentType":5122,"count":579,"max":[32767.0,32767.0,32767.0],"min":[-32767.0,-32767.0,-32767.0],"normalized":true,"type":"VEC3"},{"bufferView":40,"componentType":5120,"count":579,"normalized":true,"type":"VEC3"},{"bufferView":41,"componentType":5123,"count":579,"type":"SCALAR"},{"bufferView":42,"componentType":5122,"count":4704,"max":[32767.0,-31307.0,32767.0],"min":[-32767.0,-32767.0,-32767.0],"normalized":true,"type":"VEC3"},{"bufferView":43,"componentType":5120,"count":4704,"normalized":true,"type":"VEC3"},{"bufferView":44,"componentType":5123,"count":7812,"type":"SCALAR"},{"bufferView":45,"componentType":5122,"count":1512,"max":[-3142.0,-31267.0,-10387.0],"min":[-12647.0,-31347.0,-22431.0],"normalized":true,"type":"VEC3"},{"bufferView":46,"componentType":5120,"count":1512,"normalized":true,"type":"VEC3"},{"bufferView":47,"componentType":5123,"count":2508,"type":"SCALAR"},{"bufferView":48,"componentType":5122,"count":2080,"max":[4290.0,32767.0,12853.0],"min":[-8440.0,-31106.0,-5750.0],"normalized":true,"type":"VEC3"},{"bufferView":49,"componentType":5120,"count":2080,"normalized":true,"type":"VEC3"},{"bufferView":50,"componentType":5123,"count":3180,"type":"SCALAR"},{"bufferView":51,"componentType":5122,"count":96,"max":[-5350.0,-29586.0,-12075.0],"min":[-11208.0,-32387.0,-19635.0],"normalized":true,"type":"VEC3"},{"bufferView":52,"componentType":5120,"count":96,"normalized":true,"type":"VEC3"},{"bufferView":53,"componentType":5123,"count":132,"type":"SCALAR"},{"bufferView":54,"componentType":5122,"count":4974,"max":[32767.0,32767.0,32767.0],"min":[-32767.0,-32767.0,-32767.0],"normalized":true,"type":"VEC3"},{"bufferView":55,"componentType":5120,"count":4974,"normalized":true,"type":"VEC3"},{"bufferView":56,"componentType":5123,"count":4974,"type":"SCALAR"},{"bufferView":57,"componentType":5122,"count":1164,"max":[-3145.0,-31266.0,-10393.0],"min":[-12644.0,-31346.0,-22430.0],"normalized":true,"type":"VEC3"},{"bufferView":58,"componentType":5120,"count":1164,"normalized":true,"type":"VEC3"},{"bufferView":59,"componentType":5123,"count":1164,"type":"SCALAR"},{"bufferView":60,"componentType":5122,"count":1854,"max":[32767.0,32767.0,32767.0],"min":[-32767.0,-32767.0,-32767.0],"normalized":true,"type":"VEC3"},{"bufferView":61,"componentType":5120,"count":1854,"normalized":true,"type":"VEC3"},{"bufferView":62,"componentType":5123,"count":1854,"type":"SCALAR"},{"bufferView":63,"componentType":5122,"count":348,"max":[32767.0,32767.0,32767.0],"min":[-32767.0,-32767.0,-32767.0],"normalized":true,"type":"VEC3"},{"bufferView":64,"componentType":5120,"count":348,"normalized":true,"type":"VEC3"},{"bufferView":65,"componentType":5123,"count":348,"type":"SCALAR"},{"bufferView":66,"componentType":5122,"count":784,"max":[4281.0,-27752.0,16416.0],"min":[-537.0,-30428.0,13555.0],"normalized":true,"type":"VEC3"},{"bufferView":67,"componentType":5120,"count":784,"normalized":true,"type":"VEC3"},{"bufferView":68,"componentType":5123,"count":1260,"type":"SCALAR"},{"bufferView":69,"componentType":5122,"count":1568,"max":[18711.0,-31767.0,3070.0],"min":[-23137.0,-31802.0,-32767.0],"normalized":true,"type":"VEC3"},{"bufferView":70,"componentType":5120,"count":1568,"normalized":true,"type":"VEC3"},{"bufferView":71,"componentType":5123,"count":2604,"type":"SCALAR"},{"bufferView":72,"componentType":5122,"count":96,"max":[24966.0,-31978.0,19146.0],"min":[-26725.0,-32767.0,-22618.0],"normalized":true,"type":"VEC3"},{"bufferView":73,"componentType":5120,"count":96,"normalized":true,"type":"VEC3"},{"bufferView":74,"componentType":5123,"count":132,"type":"SCALAR"},{"bufferView":75,"componentType":5122,"count":34323,"max":[32767.0,32696.0,32767.0],"min":[-32767.0,-30606.0,-26737.0],"normalized":true,"type":"VEC3"},{"bufferView":76,"componentType":5120,"count":34323,"normalized":true,"type":"VEC3"},{"bufferView":77,"componentType":5123,"count":50661,"type":"SCALAR"},{"bufferView":78,"componentType":5122,"count":384,"max":[27060.0,11824.0,27323.0],"min":[-27060.0,-20052.0,-21293.0],"normalized":true,"type":"VEC3"},{"bufferView":79,"componentType":5120,"count":384,"normalized":true,"type":"VEC3"},{"bufferView":80,"componentType":5123,"count":528,"type":"SCALAR"},{"bufferView":81,"componentType":5122,"count":96,"max":[27082.0,-30136.0,27127.0],"min":[-27082.0,-31890.0,-21097.0],"normalized":true,"type":"VEC3"},{"bufferView":82,"componentType":5120,"count":96,"normalized":true,"type":"VEC3"},{"bufferView":83,"componentType":5123,"count":132,"type":"SCALAR"},{"bufferView":84,"componentType":5122,"count":902,"max":[8159.0,-28821.0,10547.0],"min":[254.0,-30148.0,3601.0],"normalized":true,"type":"VEC3"},{"bufferView":85,"componentType":5120,"count":902,"normalized":true,"type":"VEC3"},{"bufferView":86,"componentType":5123,"count":1368,"type":"SCALAR"},{"bufferView":87,"componentType":5122,"count":4128,"max":[32233.0,32767.0,32494.0],"min":[-32255.0,12148.0,-26455.0],"normalized":true,"type":"VEC3"},{"bufferView":88,"componentType":5120,"count":4128,"normalized":true,"type":"VEC3"},{"bufferView":89,"componentType":5121,"count":4128,"normalized":true,"type":"VEC4"},{"bufferView":90,"componentType":5123,"count":5676,"type":"SCALAR"},{"bufferView":91,"componentType":5122,"count":48,"max":[-1598.0,-21437.0,6895.0],"min":[-2317.0,-21437.0,6162.0],"normalized":true,"type":"VEC3"},{"bufferView":92,"componentType":5120,"count":48,"normalized":true,"type":"VEC3"},{"bufferView":93,"componentType":5123,"count":72,"type":"SCALAR"},{"bufferView":94,"componentType":5122,"count":1284,"max":[18710.0,-31767.0,3071.0],"min":[-23134.0,-31802.0,-32767.0],"normalized":true,"type":"VEC3"},{"bufferView":95,"componentType":5120,"count":1284,"normalized":true,"type":"VEC3"},{"bufferView":96,"componentType":5123,"count":1284,"type":"SCALAR"},{"bufferView":97,"componentType":5122,"count":66,"max":[24878.0,-31978.0,19148.0],"min":[-26725.0,-32767.0,-22618.0],"normalized":true,"type":"VEC3"},{"bufferView":98,"componentType":5120,"count":66,"normalized":true,"type":"VEC3"},{"bufferView":99,"componentType":5123,"count":66,"type":"SCALAR"},{"bufferView":100,"componentType":5122,"count":25398,"max":[32767.0,32696.0,32767.0],"min":[-32767.0,-30601.0,-26730.0],"normalized":true,"type":"VEC3"},{"bufferView":101,"componentType":5120,"count":25398,"normalized":true,"type":"VEC3"},{"bufferView":102,"componentType":5123,"count":25398,"type":"SCALAR"},{"bufferView":103,"componentType":5122,"count":264,"max":[27022.0,11824.0,27289.0],"min":[-27022.0,-20017.0,-21256.0],"normalized":true,"type":"VEC3"},{"bufferView":104,"componentType":5120,"count":264,"normalized":true,"type":"VEC3"},{"bufferView":105,"componentType":5123,"count":264,"type":"SCALAR"},{"bufferView":106,"componentType":5122,"count":60,"max":[26998.0,-30233.0,27043.0],"min":[-27082.0,-31794.0,-21096.0],"normalized":true,"type":"VEC3"},{"bufferView":107,"componentType":5120,"count":60,"normalized":true,"type":"VEC3"},{"bufferView":108,"componentType":5123,"count":60,"type":"SCALAR"},{"bufferView":109,"componentType":5122,"count":2754,"max":[32199.0,32767.0,32493.0],"min":[-32255.0,12152.0,-26451.0],"normalized":true,"type":"VEC3"},{"bufferView":110,"componentType":5120,"count":2754,"normalized":true,"type":"VEC3"},{"bufferView":111,"componentType":5121,"count":2754,"normalized":true,"type":"VEC4"},{"bufferView":112,"componentType":5123,"count":2754,"type":"SCALAR"},{"bufferView":113,"componentType":5122,"count":7605,"max":[32767.0,32767.0,32767.0],"min":[-32767.0,-32767.0,-32767.0],"normalized":true,"type":"VEC3"},{"bufferView":114,"componentType":5120,"count":7605,"normalized":true,"type":"VEC3"},{"bufferView":115,"componentType":5123,"count":7605,"type":"SCALAR"},{"bufferView":116,"componentType":5122,"count":24,"max":[26998.0,-30535.0,27047.0],"min":[-27028.0,-31687.0,-21045.0],"normalized":true,"type":"VEC3"},{"bufferView":117,"componentType":5120,"count":24,"normalized":true,"type":"VEC3"},{"bufferView":118,"componentType":5123,"count":24,"type":"SCALAR"},{"bufferView":119,"componentType":5122,"count":858,"max":[32146.0,32668.0,32412.0],"min":[-32181.0,12219.0,-26374.0],"normalized":true,"type":"VEC3"},{"bufferView":120,"componentType":5120,"count":858,"normalized":true,"type":"VEC3"},{"bufferView":121,"componentType":5121,"count":858,"normalized":true,"type":"VEC4"},{"bufferView":122,"componentType":5123,"count":858,"type":"SCALAR"},{"bufferView":123,"componentType":5122,"count":1365,"max":[32767.0,32754.0,32767.0],"min":[-32767.0,-32767.0,-32767.0],"normalized":true,"type":"VEC3"},{"bufferView":124,"componentType":5120,"count":1365,"normalized":true,"type":"VEC3"},{"bufferView":125,"componentType":5123,"count":1365,"type":"SCALAR"},{"bufferView":126,"componentType":5122,"count":171,"max":[32458.0,32767.0,32412.0],"min":[-32175.0,12459.0,-25370.0],"normalized":true,"type":"VEC3"},{"bufferView":127,"componentType":5120,"count":171,"normalized":true,"type":"VEC3"},{"bufferView":128,"componentType":5121,"count":171,"normalized":true,"type":"VEC4"},{"bufferView":129,"componentType":5123,"count":171,"type":"SCALAR"},{"bufferView":130,"componentType":5122,"count":1568,"max":[32767.0,-32562.0,32767.0],"min":[-28937.0,-32767.0,-32767.0],"normalized":true,"type":"VEC3"},{"bufferView":131,"componentType":5120,"count":1568,"normalized":true,"type":"VEC3"},{"bufferView":132,"componentType":5123,"count":2604,"type":"SCALAR"},{"bufferView":133,"componentType":5122,"count":318,"max":[-30781.0,32767.0,2167.0],"min":[-32767.0,-29746.0,-620.0],"normalized":true,"type":"VEC3"},{"bufferView":134,"componentType":5120,"count":318,"normalized":true,"type":"VEC3"},{"bufferView":135,"componentType":5123,"count":474,"type":"SCALAR"},{"bufferView":136,"componentType":5122,"count":1290,"max":[32767.0,-32562.0,32767.0],"min":[-28982.0,-32767.0,-32767.0],"normalized":true,"type":"VEC3"},{"bufferView":137,"componentType":5120,"count":1290,"normalized":true,"type":"VEC3"},{"bufferView":138,"componentType":5123,"count":1290,"type":"SCALAR"},{"bufferView":139,"componentType":5122,"count":216,"max":[-30828.0,32767.0,2167.0],"min":[-32767.0,-29746.0,-620.0],"normalized":true,"type":"VEC3"},{"bufferView":140,"componentType":5120,"count":216,"normalized":true,"type":"VEC3"},{"bufferView":141,"componentType":5123,"count":216,"type":"SCALAR"},{"bufferView":142,"componentType":5122,"count":429,"max":[32767.0,32767.0,32767.0],"min":[-32767.0,-32767.0,-32767.0],"normalized":true,"type":"VEC3"},{"bufferView":143,"componentType":5120,"count":429,"normalized":true,"type":"VEC3"},{"bufferView":144,"componentType":5123,"count":429,"type":"SCALAR"},{"bufferView":145,"componentType":5122,"count":81,"max":[32767.0,32767.0,32767.0],"min":[-32767.0,-32767.0,-32767.0],"normalized":true,"type":"VEC3"},{"bufferView":146,"componentType":5120,"count":81,"normalized":true,"type":"VEC3"},{"bufferView":147,"componentType":5123,"count":81,"type":"SCALAR"},{"bufferView":148,"componentType":5122,"count":144,"normalized":true,"type":"VEC2"},{"bufferView":149,"componentType":5122,"count":768,"normalized":true,"type":"VEC2"},{"bufferView":150,"componentType":5122,"count":32,"normalized":true,"type":"VEC2"},{"bufferView":151,"componentType":5122,"count":24,"normalized":true,"type":"VEC2"},{"bufferView":152,"componentType":5122,"count":24,"normalized":true,"type":"VEC2"},{"bufferView":153,"componentType":5122,"count":13371,"normalized":true,"type":"VEC2"},{"bufferView":154,"componentType":5122,"count":24,"normalized":true,"type":"VEC2"},{"bufferView":155,"componentType":5122,"count":651,"normalized":true,"type":"VEC2"},{"bufferView":156,"componentType":5122,"count":9867,"normalized":true,"type":"VEC2"},{"bufferView":157,"componentType":5122,"count":24,"normalized":true,"type":"VEC2"},{"bufferView":158,"componentType":5122,"count":198,"normalized":true,"type":"VEC2"},{"bufferView":159,"componentType":5122,"count":2709,"normalized":true,"type":"VEC2"},{"bufferView":160,"componentType":5122,"count":24,"normalized":true,"type":"VEC2"},{"bufferView":161,"componentType":5122,"count":579,"normalized":true,"type":"VEC2"},{"bufferView":162,"componentType":5122,"count":4704,"normalized":true,"type":"VEC2"},{"bufferView":163,"componentType":5122,"count":1512,"normalized":true,"type":"VEC2"},{"bufferView":164,"componentType":5122,"count":2080,"normalized":true,"type":"VEC2"},{"bufferView":165,"componentType":5122,"count":96,"normalized":true,"type":"VEC2"},{"bufferView":166,"componentType":5122,"count":4974,"normalized":true,"type":"VEC2"},{"bufferView":167,"componentType":5122,"count":1164,"normalized":true,"type":"VEC2"},{"bufferView":168,"componentType":5122,"count":1854,"normalized":true,"type":"VEC2"},{"bufferView":169,"componentType":5122,"count":348,"normalized":true,"type":"VEC2"},{"bufferView":170,"componentType":5122,"count":784,"normalized":true,"type":"VEC2"},{"bufferView":171,"componentType":5122,"count":1568,"normalized":true,"type":"VEC2"},{"bufferView":172,"componentType":5122,"count":96,"normalized":true,"type":"VEC2"},{"bufferView":173,"componentType":5122,"count":34323,"normalized":true,"type":"VEC2"},{"bufferView":174,"componentType":5122,"count":384,"normalized":true,"type":"VEC2"},{"bufferView":175,"componentType":5122,"count":96,"normalized":true,"type":"VEC2"},{"bufferView":176,"componentType":5122,"count":902,"normalized":true,"type":"VEC2"},{"bufferView":177,"componentType":5122,"count":4128,"normalized":true,"type":"VEC2"},{"bufferView":178,"componentType":5122,"count":48,"normalized":true,"type":"VEC2"},{"bufferView":179,"componentType":5122,"count":1284,"normalized":true,"type":"VEC2"},{"bufferView":180,"componentType":5122,"count":66,"normalized":true,"type":"VEC2"},{"bufferView":181,"componentType":5122,"count":25398,"normalized":true,"type":"VEC2"},{"bufferView":182,"componentType":5122,"count":264,"normalized":true,"type":"VEC2"},{"bufferView":183,"componentType":5122,"count":60,"normalized":true,"type":"VEC2"},{"bufferView":184,"componentType":5122,"count":2754,"normalized":true,"type":"VEC2"},{"bufferView":185,"componentType":5122,"count":7605,"normalized":true,"type":"VEC2"},{"bufferView":186,"componentType":5122,"count":24,"normalized":true,"type":"VEC2"},{"bufferView":187,"componentType":5122,"count":858,"normalized":true,"type":"VEC2"},{"bufferView":188,"componentType":5122,"count":1365,"normalized":true,"type":"VEC2"},{"bufferView":189,"componentType":5122,"count":171,"normalized":true,"type":"VEC2"},{"bufferView":190,"componentType":5122,"count":1568,"normalized":true,"type":"VEC2"},{"bufferView":191,"componentType":5122,"count":318,"normalized":true,"type":"VEC2"},{"bufferView":192,"componentType":5122,"count":1290,"normalized":true,"type":"VEC2"},{"bufferView":193,"componentType":5122,"count":216,"normalized":true,"type":"VEC2"},{"bufferView":194,"componentType":5122,"count":429,"normalized":true,"type":"VEC2"},{"bufferView":195,"componentType":5122,"count":81,"normalized":true,"type":"VEC2"}],"asset":{"generator":"evermore assetgen","version":"2.0"},"bufferViews":[{"buffer":0,"byteLength":1152,"byteOffset":0,"byteStride":8,"target":34962},{"buffer":0,"byteLength":576,"byteOffset":1152,"byteStride":4,"target":34962},{"buffer":0,"byteLength":432,"byteOffset":1728,"target":34963},{"buffer":0,"byteLength":6144,"byteOffset":2160,"byteStride":8,"target":34962},{"buffer":0,"byteLength":3072,"byteOffset":8304,"byteStride":4,"target":34962},{"buffer":0,"byteLength":2112,"byteOffset":11376,"target":34963},{"buffer":0,"byteLength":256,"byteOffset":13488,"byteStride":8,"target":34962},{"buffer":0,"byteLength":128,"byteOffset":13744,"byteStride":4,"target":34962},{"buffer":0,"byteLength":96,"byteOffset":13872,"target":34963},{"buffer":0,"byteLength":192,"byteOffset":13968,"byteStride":8,"target":34962},{"buffer":0,"byteLength":96,"byteOffset":14160,"byteStride":4,"target":34962},{"buffer":0,"byteLength":72,"byteOffset":14256,"target":34963},{"buffer":0,"byteLength":192,"byteOffset":14328,"byteStride":8,"target":34962},{"buffer":0,"byteLength":96,"byteOffset":14520,"byteStride":4,"target":34962},{"buffer":0,"byteLength":72,"byteOffset":14616,"target":34963},{"buffer":0,"byteLength":106968,"byteOffset":14688,"byteStride":8,"target":34962},{"buffer":0,"byteLength":53484,"byteOffset":121656,"byteStride":4,"target":34962},{"buffer":0,"byteLength":41190,"byteOffset":175140,"target":34963},{"buffer":0,"byteLength":192,"byteOffset":216332,"byteStride":8,"target":34962},{"buffer":0,"byteLength":96,"byteOffset":216524,"byteStride":4,"target":34962},{"buffer":0,"byteLength":48,"byteOffset":216620,"target":34963},{"buffer":0,"byteLength":5208,"byteOffset":216668,"byteStride":8,"target":34962},{"buffer":0,"byteLength":2604,"byteOffset":221876,"byteStride":4,"target":34962},{"buffer":0,"byteLength":1302,"byteOffset":224480,"target":34963},{"buffer":0,"byteLength":78936,"byteOffset":225784,"byteStride":8,"target":34962},{"buffer":0,"byteLength":39468,"byteOffset":304720,"byteStride":4,"target":34962},{"buffer":0,"byteLength":19734,"byteOffset":344188,"target":34963},{"buffer":0,"byteLength":192,"byteOffset":363924,"byteStride":8,"target":34962},{"buffer":0,"byteLength":96,"byteOffset":364116,"byteStride":4,"target":34962},{"buffer":0,"byteLength":48,"byteOffset":364212,"target":34963},{"buffer":0,"byteLength":1584,"byteOffset":364260,"byteStride":8,"target":34962},{"buffer":0,"byteLength":792,"byteOffset":365844,"byteStride":4,"target":34962},{"buffer":0,"byteLength":396,"byteOffset":366636,"target":34963},{"buffer":0,"byteLength":21672,"byteOffset":367032,"byteStride":8,"target":34962},{"buffer":0,"byteLength":10836,"byteOffset":388704,"byteStride":4,"target":34962},{"buffer":0,"byteLength":5418,"byteOffset":399540,"target":34963},{"buffer":0,"byteLength":192,"byteOffset":404960,"byteStride":8,"target":34962},{"buffer":0,"byteLength":96,"byteOffset":405152,"byteStride":4,"target":34962},{"buffer":0,"byteLength":48,"byteOffset":405248,"target":34963},{"buffer":0,"byteLength":4632,"byteOffset":405296,"byteStride":8,"target":34962},{"buffer":0,"byteLength":2316,"byteOffset":409928,"byteStride":4,"target":34962},{"buffer":0,"byteLength":1158,"byteOffset":412244,"target":34963},{"buffer":0,"byteLength":37632,"byteOffset":413404,"byteStride":8,"target":34962},{"buffer":0,"byteLength":18816,"byteOffset":451036,"byteStride":4,"target":34962},{"buffer":0,"byteLength":15624,"byteOffset":469852,"target":34963},{"buffer":0,"byteLength":12096,"byteOffset":485476,"byteStride":8,"target":34962},{"buffer":0,"byteLength":6048,"byteOffset":497572,"byteStride":4,"target":34962},{"buffer":0,"byteLength":5016,"byteOffset":503620,"target":34963},{"buffer":0,"byteLength":16640,"byteOffset":508636,"byteStride":8,"target":34962},{"buffer":0,"byteLength":8320,"byteOffset":525276,"byteStride":4,"target":34962},{"buffer":0,"byteLength":6360,"byteOffset":533596,"target":34963},{"buffer":0,"byteLength":768,"byteOffset":539956,"byteStride":8,"target":34962},{"buffer":0,"byteLength":384,"byteOffset":540724,"byteStride":4,"target":34962},{"buffer":0,"byteLength":264,"byteOffset":541108,"target":34963},{"buffer":0,"byteLength":39792,"byteOffset":541372,"byteStride":8,"target":34962},{"buffer":0,"byteLength":19896,"byteOffset":581164,"byteStride":4,"target":34962},{"buffer":0,"byteLength":9948,"byteOffset":601060,"target":34963},{"buffer":0,"byteLength":9312,"byteOffset":611008,"byteStride":8,"target":34962},{"buffer":0,"byteLength":4656,"byteOffset":620320,"byteStride":4,"target":34962},{"buffer":0,"byteLength":2328,"byteOffset":624976,"target":34963},{"buffer":0,"byteLength":14832,"byteOffset":627304,"byteStride":8,"target":34962},{"buffer":0,"byteLength":7416,"byteOffset":642136,"byteStride":4,"target":34962},{"buffer":0,"byteLength":3708,"byteOffset":649552,"target":34963},{"buffer":0,"byteLength":2784,"byteOffset":653260,"byteStride":8,"target":34962},{"buffer":0,"byteLength":1392,"byteOffset":656044,"byteStride":4,"target":34962},{"buffer":0,"byteLength":696,"byteOffset":657436,"target":34963},{"buffer":0,"byteLength":6272,"byteOffset":658132,"byteStride":8,"target":34962},{"buffer":0,"byteLength":3136,"byteOffset":664404,"byteStride":4,"target":34962},{"buffer":0,"byteLength":2520,"byteOffset":667540,"target":34963},{"buffer":0,"byteLength":12544,"byteOffset":670060,"byteStride":8,"target":34962},{"buffer":0,"byteLength":6272,"byteOffset":682604,"byteStride":4,"target":34962},{"buffer":0,"byteLength":5208,"byteOffset":688876,"target":34963},{"buffer":0,"byteLength":768,"byteOffset":694084,"byteStride":8,"target":34962},{"buffer":0,"byteLength":384,"byteOffset":694852,"byteStride":4,"target":34962},{"buffer":0,"byteLength":264,"byteOffset":695236,"target":34963},{"buffer":0,"byteLength":274584,"byteOffset":695500,"byteStride":8,"target":34962},{"buffer":0,"byteLength":137292,"byteOffset":970084,"byteStride":4,"target":34962},{"buffer":0,"byteLength":101322,"byteOffset":1107376,"target":34963},{"buffer":0,"byteLength":3072,"byteOffset":1208700,"byteStride":8,"target":34962},{"buffer":0,"byteLength":1536,"byteOffset":1211772,"byteStride":4,"target":34962},{"buffer":0,"byteLength":1056,"byteOffset":1213308,"target":34963},{"buffer":0,"byteLength":768,"byteOffset":1214364,"byteStride":8,"target":34962},{"buffer":0,"byteLength":384,"byteOffset":1215132,"byteStride":4,"target":34962},{"buffer":0,"byteLength":264,"byteOffset":1215516,"target":34963},{"buffer":0,"byteLength":7216,"byteOffset":1215780,"byteStride":8,"target":34962},{"buffer":0,"byteLength":3608,"byteOffset":1222996,"byteStride":4,"target":34962},{"buffer":0,"byteLength":2736,"byteOffset":1226604,"target":34963},{"buffer":0,"byteLength":33024,"byteOffset":1229340,"byteStride":8,"target":34962},{"buffer":0,"byteLength":16512,"byteOffset":1262364,"byteStride":4,"target":34962},{"buffer":0,"byteLength":16512,"byteOffset":1278876,"byteStride":4,"target":34962},{"buffer":0,"byteLength":11352,"byteOffset":1295388,"target":34963},{"buffer":0,"byteLength":384,"byteOffset":1306740,"byteStride":8,"target":34962},{"buffer":0,"byteLength":192,"byteOffset":1307124,"byteStride":4,"target":34962},{"buffer":0,"byteLength":144,"byteOffset":1307316,"target":34963},{"buffer":0,"byteLength":10272,"byteOffset":1307460,"byteStride":8,"target":34962},{"buffer":0,"byteLength":5136,"byteOffset":1317732,"byteStride":4,"target":34962},{"buffer":0,"byteLength":2568,"byteOffset":1322868,"target":34963},{"buffer":0,"byteLength":528,"byteOffset":1325436,"byteStride":8,"target":34962},{"buffer":0,"byteLength":264,"byteOffset":1325964,"byteStride":4,"target":34962},{"buffer":0,"byteLength":132,"byteOffset":1326228,"target":34963},{"buffer":0,"byteLength":203184,"byteOffset":1326360,"byteStride":8,"target":34962},{"buffer":0,"byteLength":101592,"byteOffset":1529544,"byteStride":4,"target":34962},{"buffer":0,"byteLength":50796,"byteOffset":1631136,"target":34963},{"buffer":0,"byteLength":2112,"byteOffset":1681932,"byteStride":8,"target":34962},{"buffer":0,"byteLength":1056,"byteOffset":1684044,"byteStride":4,"target":34962},{"buffer":0,"byteLength":528,"byteOffset":1685100,"target":34963},{"buffer":0,"byteLength":480,"byteOffset":1685628,"byteStride":8,"target":34962},{"buffer":0,"byteLength":240,"byteOffset":1686108,"byteStride":4,"target":34962},{"buffer":0,"byteLength":120,"byteOffset":1686348,"target":34963},{"buffer":0,"byteLength":22032,"byteOffset":1686468,"byteStride":8,"target":34962},{"buffer":0,"byteLength":11016,"byteOffset":1708500,"byteStride":4,"target":34962},{"buffer":0,"byteLength":11016,"byteOffset":1719516,"byteStride":4,"target":34962},{"buffer":0,"byteLength":5508,"byteOffset":1730532,"target":34963},{"buffer":0,"byteLength":60840,"byteOffset":1736040,"byteStride":8,"target":34962},{"buffer":0,"byteLength":30420,"byteOffset":1796880,"byteStride":4,"target":34962},{"buffer":0,"byteLength":15210,"byteOffset":1827300,"target":34963},{"buffer":0,"byteLength":192,"byteOffset":1842512,"byteStride":8,"target":34962},{"buffer":0,"byteLength":96,"byteOffset":1842704,"byteStride":4,"target":34962},{"buffer":0,"byteLength":48,"byteOffset":1842800,"target":34963},{"buffer":0,"byteLength":6864,"byteOffset":1842848,"byteStride":8,"target":34962},{"buffer":0,"byteLength":3432,"byteOffset":1849712,"byteStride":4,"target":34962},{"buffer":0,"byteLength":3432,"byteOffset":1853144,"byteStride":4,"target":34962},{"buffer":0,"byteLength":1716,"byteOffset":1856576,"target":34963},{"buffer":0,"byteLength":10920,"byteOffset":1858292,"byteStride":8,"target":34962},{"buffer":0,"byteLength":5460,"byteOffset":1869212,"byteStride":4,"target":34962},{"buffer":0,"byteLength":2730,"byteOffset":1874672,"target":34963},{"buffer":0,"byteLength":1368,"byteOffset":1877404,"byteStride":8,"target":34962},{"buffer":0,"byteLength":684,"byteOffset":1878772,"byteStride":4,"target":34962},{"buffer":0,"byteLength":684,"byteOffset":1879456,"byteStride":4,"target":34962},{"buffer":0,"byteLength":342,"byteOffset":1880140,"target":34963},{"buffer":0,"byteLength":12544,"byteOffset":1880484,"byteStride":8,"target":34962},{"buffer":0,"byteLength":6272,"byteOffset":1893028,"byteStride":4,"target":34962},{"buffer":0,"byteLength":5208,"byteOffset":1899300,"target":34963},{"buffer":0,"byteLength":2544,"byteOffset":1904508,"byteStride":8,"target":34962},{"buffer":0,"byteLength":1272,"byteOffset":1907052,"byteStride":4,"target":34962},{"buffer":0,"byteLength":948,"byteOffset":1908324,"target":34963},{"buffer":0,"byteLength":10320,"byteOffset":1909272,"byteStride":8,"target":34962},{"buffer":0,"byteLength":5160,"byteOffset":1919592,"byteStride":4,"target":34962},{"buffer":0,"byteLength":2580,"byteOffset":1924752,"target":34963},{"buffer":0,"byteLength":1728,"byteOffset":1927332,"byteStride":8,"target":34962},{"buffer":0,"byteLength":864,"byteOffset":1929060,"byteStride":4,"target":34962},{"buffer":0,"byteLength":432,"byteOffset":1929924,"target":34963},{"buffer":0,"byteLength":3432,"byteOffset":1930356,"byteStride":8,"target":34962},{"buffer":0,"byteLength":1716,"byteOffset":1933788,"byteStride":4,"target":34962},{"buffer":0,"byteLength":858,"byteOffset":1935504,"target":34963},{"buffer":0,"byteLength":648,"byteOffset":1936364,"byteStride":8,"target":34962},{"buffer":0,"byteLength":324,"byteOffset":1937012,"byteStride":4,"target":34962},{"buffer":0,"byteLength":162,"byteOffset":1937336,"target":34963},{"buffer":0,"byteLength":576,"byteOffset":1937500,"byteStride":4,"target":34962},{"buffer":0,"byteLength":3072,"byteOffset":1938076,"byteStride":4,"target":34962},{"buffer":0,"byteLength":128,"byteOffset":1941148,"byteStride":4,"target":34962},{"buffer":0,"byteLength":96,"byteOffset":1941276,"byteStride":4,"target":34962},{"buffer":0,"byteLength":96,"byteOffset":1941372,"byteStride":4,"target":34962},{"buffer":0,"byteLength":53484,"byteOffset":1941468,"byteStride":4,"target":34962},{"buffer":0,"byteLength":96,"byteOffset":1994952,"byteStride":4,"target":34962},{"buffer":0,"byteLength":2604,"byteOffset":1995048,"byteStride":4,"target":34962},{"buffer":0,"byteLength":39468,"byteOffset":1997652,"byteStride":4,"target":34962},{"buffer":0,"byteLength":96,"byteOffset":2037120,"byteStride":4,"target":34962},{"buffer":0,"byteLength":792,"byteOffset":2037216,"byteStride":4,"target":34962},{"buffer":0,"byteLength":10836,"byteOffset":2038008,"byteStride":4,"target":34962},{"buffer":0,"byteLength":96,"byteOffset":2048844,"byteStride":4,"target":34962},{"buffer":0,"byteLength":2316,"byteOffset":2048940,"byteStride":4,"target":34962},{"buffer":0,"byteLength":18816,"byteOffset":2051256,"byteStride":4,"target":34962},{"buffer":0,"byteLength":6048,"byteOffset":2070072,"byteStride":4,"target":34962},{"buffer":0,"byteLength":8320,"byteOffset":2076120,"byteStride":4,"target":34962},{"buffer":0,"byteLength":384,"byteOffset":2084440,"byteStride":4,"target":34962},{"buffer":0,"byteLength":19896,"byteOffset":2084824,"byteStride":4,"target":34962},{"buffer":0,"byteLength":4656,"byteOffset":2104720,"byteStride":4,"target":34962},{"buffer":0,"byteLength":7416,"byteOffset":2109376,"byteStride":4,"target":34962},{"buffer":0,"byteLength":1392,"byteOffset":2116792,"byteStride":4,"target":34962},{"buffer":0,"byteLength":3136,"byteOffset":2118184,"byteStride":4,"target":34962},{"buffer":0,"byteLength":6272,"byteOffset":2121320,"byteStride":4,"target":34962},{"buffer":0,"byteLength":384,"byteOffset":2127592,"byteStride":4,"target":34962},{"buffer":0,"byteLength":137292,"byteOffset":2127976,"byteStride":4,"target":34962},{"buffer":0,"byteLength":1536,"byteOffset":2265268,"byteStride":4,"target":34962},{"buffer":0,"byteLength":384,"byteOffset":2266804,"byteStride":4,"target":34962},{"buffer":0,"byteLength":3608,"byteOffset":2267188,"byteStride":4,"target":34962},{"buffer":0,"byteLength":16512,"byteOffset":2270796,"byteStride":4,"target":34962},{"buffer":0,"byteLength":192,"byteOffset":2287308,"byteStride":4,"target":34962},{"buffer":0,"byteLength":5136,"byteOffset":2287500,"byteStride":4,"target":34962},{"buffer":0,"byteLength":264,"byteOffset":2292636,"byteStride":4,"target":34962},{"buffer":0,"byteLength":101592,"byteOffset":2292900,"byteStride":4,"target":34962},{"buffer":0,"byteLength":1056,"byteOffset":2394492,"byteStride":4,"target":34962},{"buffer":0,"byteLength":240,"byteOffset":2395548,"byteStride":4,"target":34962},{"buffer":0,"byteLength":11016,"byteOffset":2395788,"byteStride":4,"target":34962},{"buffer":0,"byteLength":30420,"byteOffset":2406804,"byteStride":4,"target":34962},{"buffer":0,"byteLength":96,"byteOffset":2437224,"byteStride":4,"target":34962},{"buffer":0,"byteLength":3432,"byteOffset":2437320,"byteStride":4,"target":34962},{"buffer":0,"byteLength":5460,"byteOffset":2440752,"byteStride":4,"target":34962},{"buffer":0,"byteLength":684,"byteOffset":2446212,"byteStride":4,"target":34962},{"buffer":0,"byteLength":6272,"byteOffset":2446896,"byteStride":4,"target":34962},{"buffer":0,"byteLength":1272,"byteOffset":2453168,"byteStride":4,"target":34962},{"buffer":0,"byteLength":5160,"byteOffset":2454440,"byteStride":4,"target":34962},{"buffer":0,"byteLength":864,"byteOffset":2459600,"byteStride":4,"target":34962},{"buffer":0,"byteLength":1716,"byteOffset":2460464,"byteStride":4,"target":34962},{"buffer":0,"byteLength":324,"byteOffset":2462180,"byteStride":4,"target":34962}],"buffers":[{"byteLength":2462504,"uri":"bowyer.bin"}],"extensionsRequired":["KHR_mesh_quantization","KHR_texture_transform"],"extensionsUsed":["KHR_mesh_quantization","KHR_texture_transform","MSFT_lod"],"extras":{"hm":{"batching":true,"cellSize":16.0,"cells":[{"cullAt":null,"interior":null,"key":"0_0","lodPrims":[6,3,3,2],"lodTris":[7329,3514,977,201],"max":[5.268,2.6,4.172],"min":[-0.807,0.099,0.514]},{"cullAt":null,"interior":null,"key":"0_n1","lodPrims":[4,2,1,1],"lodTris":[4544,2046,618,116],"max":[7.089,3.317,1.567],"min":[-2.589,0.041,-5.393]},{"cullAt":null,"interior":null,"key":"n1_0","lodPrims":[9,6,3,2],"lodTris":[20811,9942,2829,512],"max":[3.631,7.473,6.163],"min":[-4.822,0.0,-2.13]},{"cullAt":null,"interior":null,"key":"n1_n1","lodPrims":[2,2,1,1],"lodTris":[1026,502,143,27],"max":[1.095,1.321,0.306],"min":[-5.007,0.041,-3.886]}],"instanced":[],"instancing":true,"interiors":[],"lod":true,"lodDistances":[15.0,40.0,100.0],"stats":{"groups":4,"lodPrims":[21,13,8,6],"lodTris":[33710,16004,4567,856]},"venue":"bowyer"}},"images":[{"uri":"../textures/earth_albedo.png"},{"uri":"../textures/earth_orm.png"},{"uri":"../textures/earth_normal.png"},{"uri":"../textures/dirt_albedo.png"},{"uri":"../textures/dirt_orm.png"},{"uri":"../textures/dirt_normal.png"},{"uri":"../textures/rubble_albedo.png"},{"uri":"../textures/rubble_orm.png"},{"uri":"../textures/rubble_normal.png"},{"uri":"../textures/kit_albedo.png"},{"uri":"../textures/kit_orm.png"},{"uri":"../textures/kit_normal.png"},{"uri":"../textures/oak_dark_albedo.png"},{"uri":"../textures/oak_dark_orm.png"},{"uri":"../textures/oak_dark_normal.png"},{"uri":"../textures/terracotta_albedo.png"},{"uri":"../textures/terracotta_orm.png"},{"uri":"../textures/terracotta_normal.png"},{"uri":"../textures/glass_albedo.png"},{"uri":"../textures/glass_orm.png"},{"uri":"../textures/glass_normal.png"},{"uri":"../textures/glass_emissive.png"},{"uri":"../textures/water_albedo.png"},{"uri":"../textures/water_orm.png"},{"uri":"../textures/water_normal.png"},{"uri":"../textures/sand_albedo.png"},{"uri":"../textures/sand_orm.png"},{"uri":"../textures/sand_normal.png"},{"uri":"../textures/bronze_albedo.png"},{"uri":"../textures/bronze_orm.png"},{"uri":"../textures/bronze_normal.png"},{"uri":"../textures/coal_albedo.png"},{"uri":"../textures/coal_orm.png"},{"uri":"../textures/coal_normal.png"},{"uri":"../textures/coal_emissive.png"},{"uri":"../textures/grass_worn_albedo.png"},{"uri":"../textures/grass_worn_orm.png"},{"uri":"../textures/grass_worn_normal.png"},{"uri":"../textures/grass_dry_albedo.png"},{"uri":"../textures/grass_dry_orm.png"},{"uri":"../textures/grass_dry_normal.png"},{"uri":"../textures/canvas_crimson_albedo.png"},{"uri":"../textures/canvas_crimson_orm.png"},{"uri":"../textures/canvas_crimson_normal.png"},{"uri":"../textures/stone_albedo.png"},{"uri":"../textures/stone_orm.png"},{"uri":"../textures/stone_normal.png"}],"materials":[{"doubleSided":false,"name":"earth","normalTexture":{"extensions":{"KHR_texture_transform":{"scale":[4.959739795129538,4.959739795129538]}},"index":2,"scale":1.0},"occlusionTexture":{"extensions":{"KHR_texture_transform":{"scale":[4.959739795129538,4.959739795129538]}},"index":1},"pbrMetallicRoughness":{"baseColorFactor":[1,1,1,1],"baseColorTexture":{"extensions":{"KHR_texture_transform":{"scale":[4.959739795129538,4.959739795129538]}},"index":0},"metallicFactor":1.0,"metallicRoughnessTexture":{"extensions":{"KHR_texture_transform":{"scale":[4.959739795129538,4.959739795129538]}},"index":1},"roughnessFactor":1.0}},{"doubleSided":false,"name":"dirt","normalTexture":{"extensions":{"KHR_texture_transform":{"scale":[4.959739795129538,4.959739795129538]}},"index":5,"scale":1.0},"occlusionTexture":{"extensions":{"KHR_texture_transform":{"scale":[4.959739795129538,4.959739795129538]}},"index":4},"pbrMetallicRoughness":{"baseColorFactor":[1,1,1,1],"baseColorTexture":{"extensions":{"KHR_texture_transform":{"scale":[4.959739795129538,4.959739795129538]}},"index":3},"metallicFactor":1.0,"metallicRoughnessTexture":{"extensions":{"KHR_texture_transform":{"scale":[4.959739795129538,4.959739795129538]}},"index":4},"roughnessFactor":1.0}},{"doubleSided":false,"name":"rubble","normalTexture":{"extensions":{"KHR_texture_transform":{"scale":[4.959739795129538,4.959739795129538]}},"index":8,"scale":1.0},"occlusionTexture":{"extensions":{"KHR_texture_transform":{"scale":[4.959739795129538,4.959739795129538]}},"index":7},"pbrMetallicRoughness":{"baseColorFactor":[1,1,1,1],"baseColorTexture":{"extensions":{"KHR_texture_transform":{"scale":[4.959739795129538,4.959739795129538]}},"index":6},"metallicFactor":1.0,"metallicRoughnessTexture":{"extensions":{"KHR_texture_transform":{"scale":[4.959739795129538,4.959739795129538]}},"index":7},"roughnessFactor":1.0}},{"doubleSided":true,"name":"kit","normalTexture":{"extensions":{"KHR_texture_transform":{"scale":[4.959739795129538,4.959739795129538]}},"index":11,"scale":1.0},"occlusionTexture":{"extensions":{"KHR_texture_transform":{"scale":[4.959739795129538,4.959739795129538]}},"index":10},"pbrMetallicRoughness":{"baseColorFactor":[1,1,1,1],"baseColorTexture":{"extensions":{"KHR_texture_transform":{"scale":[4.959739795129538,4.959739795129538]}},"index":9},"metallicFactor":1.0,"metallicRoughnessTexture":{"extensions":{"KHR_texture_transform":{"scale":[4.959739795129538,4.959739795129538]}},"index":10},"roughnessFactor":1.0}},{"doubleSided":false,"name":"oak_dark","normalTexture":{"extensions":{"KHR_texture_transform":{"scale":[4.959739795129538,4.959739795129538]}},"index":14,"scale":1.0},"occlusionTexture":{"extensions":{"KHR_texture_transform":{"scale":[4.959739795129538,4.959739795129538]}},"index":13},"pbrMetallicRoughness":{"baseColorFactor":[1,1,1,1],"baseColorTexture":{"extensions":{"KHR_texture_transform":{"scale":[4.959739795129538,4.959739795129538]}},"index":12},"metallicFactor":1.0,"metallicRoughnessTexture":{"extensions":{"KHR_texture_transform":{"scale":[4.959739795129538,4.959739795129538]}},"index":13},"roughnessFactor":1.0}},{"doubleSided":false,"name":"terracotta","normalTexture":{"extensions":{"KHR_texture_transform":{"scale":[4.959739795129538,4.959739795129538]}},"index":17,"scale":1.0},"occlusionTexture":{"extensions":{"KHR_texture_transform":{"scale":[4.959739795129538,4.959739795129538]}},"index":16},"pbrMetallicRoughness":{"baseColorFactor":[1,1,1,1],"baseColorTexture":{"extensions":{"KHR_texture_transform":{"scale":[4.959739795129538,4.959739795129538]}},"index":15},"metallicFactor":1.0,"metallicRoughnessTexture":{"extensions":{"KHR_texture_transform":{"scale":[4.959739795129538,4.959739795129538]}},"index":16},"roughnessFactor":1.0}},{"alphaMode":"BLEND","doubleSided":true,"emissiveFactor":[1.0,1.0,1.0],"emissiveTexture":{"extensions":{"KHR_texture_transform":{"scale":[4.959739795129538,4.959739795129538]}},"index":21},"name":"glass","normalTexture":{"extensions":{"KHR_texture_transform":{"scale":[4.959739795129538,4.959739795129538]}},"index":20,"scale":1.0},"occlusionTexture":{"extensions":{"KHR_texture_transform":{"scale":[4.959739795129538,4.959739795129538]}},"index":19},"pbrMetallicRoughness":{"baseColorFactor":[1,1,1,1],"baseColorTexture":{"extensions":{"KHR_texture_transform":{"scale":[4.959739795129538,4.959739795129538]}},"index":18},"metallicFactor":1.0,"metallicRoughnessTexture":{"extensions":{"KHR_texture_transform":{"scale":[4.959739795129538,4.959739795129538]}},"index":19},"roughnessFactor":1.0}},{"alphaMode":"BLEND","doubleSided":false,"name":"water","normalTexture":{"extensions":{"KHR_texture_transform":{"scale":[4.959739795129538,4.959739795129538]}},"index":24,"scale":1.0},"occlusionTexture":{"extensions":{"KHR_texture_transform":{"scale":[4.959739795129538,4.959739795129538]}},"index":23},"pbrMetallicRoughness":{"baseColorFactor":[1,1,1,1],"baseColorTexture":{"extensions":{"KHR_texture_transform":{"scale":[4.959739795129538,4.959739795129538]}},"index":22},"metallicFactor":1.0,"metallicRoughnessTexture":{"extensions":{"KHR_texture_transform":{"scale":[4.959739795129538,4.959739795129538]}},"index":23},"roughnessFactor":1.0}},{"doubleSided":false,"name":"sand","normalTexture":{"extensions":{"KHR_texture_transform":{"scale":[4.959739795129538,4.959739795129538]}},"index":27,"scale":1.0},"occlusionTexture":{"extensions":{"KHR_texture_transform":{"scale":[4.959739795129538,4.959739795129538]}},"index":26},"pbrMetallicRoughness":{"baseColorFactor":[1,1,1,1],"baseColorTexture":{"extensions":{"KHR_texture_transform":{"scale":[4.959739795129538,4.959739795129538]}},"index":25},"metallicFactor":1.0,"metallicRoughnessTexture":{"extensions":{"KHR_texture_transform":{"scale":[4.959739795129538,4.959739795129538]}},"index":26},"roughnessFactor":1.0}},{"doubleSided":false,"name":"bronze","normalTexture":{"extensions":{"KHR_texture_transform":{"scale":[4.959739795129538,4.959739795129538]}},"index":30,"scale":1.0},"occlusionTexture":{"extensions":{"KHR_texture_transform":{"scale":[4.959739795129538,4.959739795129538]}},"index":29},"pbrMetallicRoughness":{"baseColorFactor":[1,1,1,1],"baseColorTexture":{"extensions":{"KHR_texture_transform":{"scale":[4.959739795129538,4.959739795129538]}},"index":28},"metallicFactor":1.0,"metallicRoughnessTexture":{"extensions":{"KHR_texture_transform":{"scale":[4.959739795129538,4.959739795129538]}},"index":29},"roughnessFactor":1.0}},{"doubleSided":false,"emissiveFactor":[1.0,1.0,1.0],"emissiveTexture":{"extensions":{"KHR_texture_transform":{"scale":[4.959739795129538,4.959739795129538]}},"index":34},"name":"coal","normalTexture":{"extensions":{"KHR_texture_transform":{"scale":[4.959739795129538,4.959739795129538]}},"index":33,"scale":1.0},"occlusionTexture":{"extensions":{"KHR_texture_transform":{"scale":[4.959739795129538,4.959739795129538]}},"index":32},"pbrMetallicRoughness":{"baseColorFactor":[1,1,1,1],"baseColorTexture":{"extensions":{"KHR_texture_transform":{"scale":[4.959739795129538,4.959739795129538]}},"index":31},"metallicFactor":1.0,"metallicRoughnessTexture":{"extensions":{"KHR_texture_transform":{"scale":[4.959739795129538,4.959739795129538]}},"index":32},"roughnessFactor":1.0}},{"doubleSided":false,"name":"grass_worn","normalTexture":{"extensions":{"KHR_texture_transform":{"scale":[4.959739795129538,4.959739795129538]}},"index":37,"scale":1.0},"occlusionTexture":{"extensions":{"KHR_texture_transform":{"scale":[4.959739795129538,4.959739795129538]}},"index":36},"pbrMetallicRoughness":{"baseColorFactor":[1,1,1,1],"baseColorTexture":{"extensions":{"KHR_texture_transform":{"scale":[4.959739795129538,4.959739795129538]}},"index":35},"metallicFactor":1.0,"metallicRoughnessTexture":{"extensions":{"KHR_texture_transform":{"scale":[4.959739795129538,4.959739795129538]}},"index":36},"roughnessFactor":1.0}},{"doubleSided":false,"name":"grass_dry","normalTexture":{"extensions":{"KHR_texture_transform":{"scale":[4.959739795129538,4.959739795129538]}},"index":40,"scale":1.0},"occlusionTexture":{"extensions":{"KHR_texture_transform":{"scale":[4.959739795129538,4.959739795129538]}},"index":39},"pbrMetallicRoughness":{"baseColorFactor":[1,1,1,1],"baseColorTexture":{"extensions":{"KHR_texture_transform":{"scale":[4.959739795129538,4.959739795129538]}},"index":38},"metallicFactor":1.0,"metallicRoughnessTexture":{"extensions":{"KHR_texture_transform":{"scale":[4.959739795129538,4.959739795129538]}},"index":39},"roughnessFactor":1.0}},{"doubleSided":true,"name":"canvas_crimson","normalTexture":{"extensions":{"KHR_texture_transform":{"scale":[4.959739795129538,4.959739795129538]}},"index":43,"scale":1.0},"occlusionTexture":{"extensions":{"KHR_texture_transform":{"scale":[4.959739795129538,4.959739795129538]}},"index":42},"pbrMetallicRoughness":{"baseColorFactor":[1,1,1,1],"baseColorTexture":{"extensions":{"KHR_texture_transform":{"scale":[4.959739795129538,4.959739795129538]}},"index":41},"metallicFactor":1.0,"metallicRoughnessTexture":{"extensions":{"KHR_texture_transform":{"scale":[4.959739795129538,4.959739795129538]}},"index":42},"roughnessFactor":1.0}},{"doubleSided":false,"name":"stone","normalTexture":{"extensions":{"KHR_texture_transform":{"scale":[4.959739795129538,4.959739795129538]}},"index":46,"scale":1.0},"occlusionTexture":{"extensions":{"KHR_texture_transform":{"scale":[4.959739795129538,4.959739795129538]}},"index":45},"pbrMetallicRoughness":{"baseColorFactor":[1,1,1,1],"baseColorTexture":{"extensions":{"KHR_texture_transform":{"scale":[4.959739795129538,4.959739795129538]}},"index":44},"metallicFactor":1.0,"metallicRoughnessTexture":{"extensions":{"KHR_texture_transform":{"scale":[4.959739795129538,4.959739795129538]}},"index":45},"roughnessFactor":1.0}}],"meshes":[{"name":"bowyer#0_0","primitives":[{"attributes":{"NORMAL":1,"POSITION":0,"TEXCOORD_0":148},"indices":2,"material":13},{"attributes":{"NORMAL":4,"POSITION":3,"TEXCOORD_0":149},"indices":5,"material":10},{"attributes":{"NORMAL":7,"POSITION":6,"TEXCOORD_0":150},"indices":8,"material":6},{"attributes":{"NORMAL":10,"POSITION":9,"TEXCOORD_0":151},"indices":11,"material":12},{"attributes":{"NORMAL":13,"POSITION":12,"TEXCOORD_0":152},"indices":14,"material":11},{"attributes":{"NORMAL":16,"POSITION":15,"TEXCOORD_0":153},"indices":17,"material":3}]},{"name":"bowyer#0_0$lod1","primitives":[{"attributes":{"NORMAL":19,"POSITION":18,"TEXCOORD_0":154},"indices":20,"material":12},{"attributes":{"NORMAL":22,"POSITION":21,"TEXCOORD_0":155},"indices":23,"material":11},{"attributes":{"NORMAL":25,"POSITION":24,"TEXCOORD_0":156},"indices":26,"material":3}]},{"name":"bowyer#0_0$lod2","primitives":[{"attributes":{"NORMAL":28,"POSITION":27,"TEXCOORD_0":157},"indices":29,"material":12},{"attributes":{"NORMAL":31,"POSITION":30,"TEXCOORD_0":158},"indices":32,"material":11},{"attributes":{"NORMAL":34,"POSITION":33,"TEXCOORD_0":159},"indices":35,"material":3}]},{"name":"bowyer#0_0$lod3","primitives":[{"attributes":{"NORMAL":37,"POSITION":36,"TEXCOORD_0":160},"indices":38,"material":12},{"attributes":{"NORMAL":40,"POSITION":39,"TEXCOORD_0":161},"indices":41,"material":11}]},{"name":"bowyer#0_n1","primitives":[{"attributes":{"NORMAL":43,"POSITION":42,"TEXCOORD_0":162},"indices":44,"material":1},{"attributes":{"NORMAL":46,"POSITION":45,"TEXCOORD_0":163},"indices":47,"material":11},{"attributes":{"NORMAL":49,"POSITION":48,"TEXCOORD_0":164},"indices":50,"material":3},{"attributes":{"NORMAL":52,"POSITION":51,"TEXCOORD_0":165},"indices":53,"material":14}]},{"name":"bowyer#0_n1$lod1","primitives":[{"attributes":{"NORMAL":55,"POSITION":54,"TEXCOORD_0":166},"indices":56,"material":1},{"attributes":{"NORMAL":58,"POSITION":57,"TEXCOORD_0":167},"indices":59,"material":11}]},{"name":"bowyer#0_n1$lod2","primitives":[{"attributes":{"NORMAL":61,"POSITION":60,"TEXCOORD_0":168},"indices":62,"material":1}]},{"name":"bowyer#0_n1$lod3","primitives":[{"attributes":{"NORMAL":64,"POSITION":63,"TEXCOORD_0":169},"indices":65,"material":1}]},{"name":"bowyer#n1_0","primitives":[{"attributes":{"NORMAL":67,"POSITION":66,"TEXCOORD_0":170},"indices":68,"material":9},{"attributes":{"NORMAL":70,"POSITION":69,"TEXCOORD_0":171},"indices":71,"material":1},{"attributes":{"NORMAL":73,"POSITION":72,"TEXCOORD_0":172},"indices":74,"material":0},{"attributes":{"NORMAL":76,"POSITION":75,"TEXCOORD_0":173},"indices":77,"material":3},{"attributes":{"NORMAL":79,"POSITION":78,"TEXCOORD_0":174},"indices":80,"material":4},{"attributes":{"NORMAL":82,"POSITION":81,"TEXCOORD_0":175},"indices":83,"material":2},{"attributes":{"NORMAL":85,"POSITION":84,"TEXCOORD_0":176},"indices":86,"material":8},{"attributes":{"COLOR_0":89,"NORMAL":88,"POSITION":87,"TEXCOORD_0":177},"indices":90,"material":5},{"attributes":{"NORMAL":92,"POSITION":91,"TEXCOORD_0":178},"indices":93,"material":7}]},{"name":"bowyer#n1_0$lod1","primitives":[{"attributes":{"NORMAL":95,"POSITION":94,"TEXCOORD_0":179},"indices":96,"material":1},{"attributes":{"NORMAL":98,"POSITION":97,"TEXCOORD_0":180},"indices":99,"material":0},{"attributes":{"NORMAL":101,"POSITION":100,"TEXCOORD_0":181},"indices":102,"material":3},{"attributes":{"NORMAL":104,"POSITION":103,"TEXCOORD_0":182},"indices":105,"material":4},{"attributes":{"NORMAL":107,"POSITION":106,"TEXCOORD_0":183},"indices":108,"material":2},{"attributes":{"COLOR_0":111,"NORMAL":110,"POSITION":109,"TEXCOORD_0":184},"indices":112,"material":5}]},{"name":"bowyer#n1_0$lod2","primitives":[{"attributes":{"NORMAL":114,"POSITION":113,"TEXCOORD_0":185},"indices":115,"material":3},{"attributes":{"NORMAL":117,"POSITION":116,"TEXCOORD_0":186},"indices":118,"material":2},{"attributes":{"COLOR_0":121,"NORMAL":120,"POSITION":119,"TEXCOORD_0":187},"indices":122,"material":5}]},{"name":"bowyer#n1_0$lod3","primitives":[{"attributes":{"NORMAL":124,"POSITION":123,"TEXCOORD_0":188},"indices":125,"material":3},{"attributes":{"COLOR_0":128,"NORMAL":127,"POSITION":126,"TEXCOORD_0":189},"indices":129,"material":5}]},{"name":"bowyer#n1_n1","primitives":[{"attributes":{"NORMAL":131,"POSITION":130,"TEXCOORD_0":190},"indices":132,"material":1},{"attributes":{"NORMAL":134,"POSITION":133,"TEXCOORD_0":191},"indices":135,"material":3}]},{"name":"bowyer#n1_n1$lod1","primitives":[{"attributes":{"NORMAL":137,"POSITION":136,"TEXCOORD_0":192},"indices":138,"material":1},{"attributes":{"NORMAL":140,"POSITION":139,"TEXCOORD_0":193},"indices":141,"material":3}]},{"name":"bowyer#n1_n1$lod2","primitives":[{"attributes":{"NORMAL":143,"POSITION":142,"TEXCOORD_0":194},"indices":144,"material":1}]},{"name":"bowyer#n1_n1$lod3","primitives":[{"attributes":{"NORMAL":146,"POSITION":145,"TEXCOORD_0":195},"indices":147,"material":1}]}],"nodes":[{"extensions":{"MSFT_lod":{"ids":[1,2,3]}},"extras":{"MSFT_screencoverage":[0.48149,0.18056,0.07222,0.0],"hm":{"cell":"0_0","cullAt":null,"interior":null,"lod":0,"max":[5.268,2.6,4.172],"min":[-0.807,0.099,0.514],"prims":6,"tris":7329,"venue":"bowyer"}},"mesh":0,"name":"bowyer#0_0","scale":[3.037367105484009,1.2506461143493652,1.829171895980835],"translation":[2.2302958965301514,1.3493537902832031,2.3429315090179443]},{"extras":{"hm":{"cell":"0_0","cullAt":null,"interior":null,"lod":1,"max":[5.268,2.6,4.172],"min":[-0.807,0.099,0.514],"prims":3,"tris":3514,"venue":"bowyer"}},"mesh":1,"name":"bowyer#0_0$lod1","scale":[2.964235305786133,1.250556230545044,1.8284069299697876],"translation":[2.157869815826416,1.3494436740875244,2.343116283416748]},{"extras":{"hm":{"cell":"0_0","cullAt":null,"interior":null,"lod":2,"max":[5.268,2.6,4.172],"min":[-0.807,0.099,0.514],"prims":3,"tris":977,"venue":"bowyer"}},"mesh":2,"name":"bowyer#0_0$lod2","scale":[2.9547863006591797,1.2485662698745728,1.8205347061157227],"translation":[2.167318820953369,1.3484336137771606,2.345155715942383]},{"extras":{"hm":{"cell":"0_0","cullAt":null,"interior":null,"lod":3,"max":[5.268,2.6,4.172],"min":[-0.807,0.099,0.514],"prims":2,"tris":201,"venue":"bowyer"}},"mesh":3,"name":"bowyer#0_0$lod3","scale":[2.8245131969451904,1.2480000257492065,1.7218940258026123],"translation":[2.2975919246673584,1.347999930381775,2.2465150356292725]},{"extensions":{"MSFT_lod":{"ids":[5,6,7]}},"extras":{"MSFT_screencoverage":[0.79159,0.29685,0.11874,0.0],"hm":{"cell":"0_n1","cullAt":null,"interior":null,"lod":0,"max":[7.089,3.317,1.567],"min":[-2.589,0.041,-5.393],"prims":4,"tris":4544,"venue":"bowyer"}},"mesh":4,"name":"bowyer#0_n1","scale":[4.838557243347168,1.6378068923950195,3.480252742767334],"translation":[2.25,1.6788067817687988,-1.9128351211547852]},{"extras":{"hm":{"cell":"0_n1","cullAt":null,"interior":null,"lod":1,"max":[7.089,3.317,1.567],"min":[-2.589,0.041,-5.393],"prims":2,"tris":2046,"venue":"bowyer"}},"mesh":5,"name":"bowyer#0_n1$lod1","scale":[4.837893962860107,1.637435793876648,3.479999303817749],"translation":[2.2497410774230957,1.6784356832504272,-1.9127113819122314]},{"extras":{"hm":{"cell":"0_n1","cullAt":null,"interior":null,"lod":2,"max":[7.089,3.317,1.567],"min":[-2.589,0.041,-5.393],"prims":1,"tris":618,"venue":"bowyer"}},"mesh":6,"name":"bowyer#0_n1$lod2","scale":[4.837292194366455,1.6354087591171265,3.47967529296875],"translation":[2.249891757965088,1.6764086484909058,-1.9123873710632324]},{"extras":{"hm":{"cell":"0_n1","cullAt":null,"interior":null,"lod":3,"max":[7.089,3.317,1.567],"min":[-2.589,0.041,-5.393],"prims":1,"tris":116,"venue":"bowyer"}},"mesh":7,"name":"bowyer#0_n1$lod3","scale":[4.837292194366455,0.0354783870279789,3.458249568939209],"translation":[2.249891757965088,0.07741795480251312,-1.892073154449463]},{"extensions":{"MSFT_lod":{"ids":[9,10,11]}},"extras":{"MSFT_screencoverage":[0.89664,0.33624,0.1345,0.0],"hm":{"cell":"n1_0","cullAt":null,"interior":null,"lod":0,"max":[3.631,7.473,6.163],"min":[-4.822,0.0,-2.13],"prims":9,"tris":20811,"venue":"bowyer"}},"mesh":8,"name":"bowyer#n1_0","scale":[4.226612567901611,3.736599922180176,4.146492958068848],"translation":[-0.5952033996582031,3.736599922180176,2.016011953353882]},{"extras":{"hm":{"cell":"n1_0","cullAt":null,"interior":null,"lod":1,"max":[3.631,7.473,6.163],"min":[-4.822,0.0,-2.13],"prims":6,"tris":9942,"venue":"bowyer"}},"mesh":9,"name":"bowyer#n1_0$lod1","scale":[4.226612567901611,3.736599922180176,4.146345138549805],"translation":[-0.5952033996582031,3.736599922180176,2.015864372253418]},{"extras":{"hm":{"cell":"n1_0","cullAt":null,"interior":null,"lod":2,"max":[3.631,7.473,6.163],"min":[-4.822,0.0,-2.13],"prims":3,"tris":2829,"venue":"bowyer"}},"mesh":10,"name":"bowyer#n1_0$lod2","scale":[4.226612567901611,3.7142348289489746,4.145290374755859],"translation":[-0.5952033996582031,3.750234603881836,2.016221046447754]},{"extras":{"hm":{"cell":"n1_0","cullAt":null,"interior":null,"lod":3,"max":[3.631,7.473,6.163],"min":[-4.822,0.0,-2.13],"prims":2,"tris":512,"venue":"bowyer"}},"mesh":11,"name":"bowyer#n1_0$lod3","scale":[4.1825408935546875,3.693248987197876,4.145284175872803],"translation":[-0.6392749547958374,3.735180616378784,2.0162272453308105]},{"extensions":{"MSFT_lod":{"ids":[13,14,15]}},"extras":{"MSFT_screencoverage":[0.48111,0.18042,0.07217,0.0],"hm":{"cell":"n1_n1","cullAt":null,"interior":null,"lod":0,"max":[1.095,1.321,0.306],"min":[-5.007,0.041,-3.886],"prims":2,"tris":1026,"venue":"bowyer"}},"mesh":12,"name":"bowyer#n1_n1","scale":[3.05128812789917,0.6399620175361633,2.0959651470184326],"translation":[-1.955845832824707,0.6809620261192322,-1.7902379035949707]},{"extras":{"hm":{"cell":"n1_n1","cullAt":null,"interior":null,"lod":1,"max":[1.095,1.321,0.306],"min":[-5.007,0.041,-3.886],"prims":2,"tris":502,"venue":"bowyer"}},"mesh":13,"name":"bowyer#n1_n1$lod1","scale":[3.0487632751464844,0.6399620175361633,2.0959651470184326],"translation":[-1.9538192749023438,0.6809620261192322,-1.7902379035949707]},{"extras":{"hm":{"cell":"n1_n1","cullAt":null,"interior":null,"lod":2,"max":[1.095,1.321,0.306],"min":[-5.007,0.041,-3.886],"prims":1,"tris":143,"venue":"bowyer"}},"mesh":14,"name":"bowyer#n1_n1$lod2","scale":[3.04288649559021,0.6393967866897583,2.094741106033325],"translation":[-1.948807954788208,0.6815272569656372,-1.7902956008911133]},{"extras":{"hm":{"cell":"n1_n1","cullAt":null,"interior":null,"lod":3,"max":[1.095,1.321,0.306],"min":[-5.007,0.041,-3.886],"prims":1,"tris":27,"venue":"bowyer"}},"mesh":15,"name":"bowyer#n1_n1$lod3","scale":[2.594918966293335,0.000599350780248642,2.041749954223633],"translation":[-2.0547988414764404,0.04369935020804405,-1.7771297693252563]}],"samplers":[{"magFilter":9729,"minFilter":9987,"wrapS":10497,"wrapT":10497}],"scene":0,"scenes":[{"nodes":[0,4,8,12]}],"textures":[{"sampler":0,"source":0},{"sampler":0,"source":1},{"sampler":0,"source":2},{"sampler":0,"source":3},{"sampler":0,"source":4},{"sampler":0,"source":5},{"sampler":0,"source":6},{"sampler":0,"source":7},{"sampler":0,"source":8},{"sampler":0,"source":9},{"sampler":0,"source":10},{"sampler":0,"source":11},{"sampler":0,"source":12},{"sampler":0,"source":13},{"sampler":0,"source":14},{"sampler":0,"source":15},{"sampler":0,"source":16},{"sampler":0,"source":17},{"sampler":0,"source":18},{"sampler":0,"source":19},{"sampler":0,"source":20},{"sampler":0,"source":21},{"sampler":0,"source":22},{"sampler":0,"source":23},{"sampler":0,"source":24},{"sampler":0,"source":25},{"sampler":0,"source":26},{"sampler":0,"source":27},{"sampler":0,"source":28},{"sampler":0,"source":29},{"sampler":0,"source":30},{"sampler":0,"source":31},{"sampler":0,"source":32},{"sampler":0,"source":33},{"sampler":0,"source":34},{"sampler":0,"source":35},{"sampler":0,"source":36},{"sampler":0,"source":37},{"sampler":0,"source":38},{"sampler":0,"source":39},{"sampler":0,"source":40},{"sampler":0,"source":41},{"sampler":0,"source":42},{"sampler":0,"source":43},{"sampler":0,"source":44},{"sampler":0,"source":45},{"sampler":0,"source":46}]}