{"accessors":[{"bufferView":0,"componentType":5122,"count":96,"max":[4626.0,-23495.0,10437.0],"min":[4142.0,-23714.0,9617.0],"normalized":true,"type":"VEC3"},{"bufferView":1,"componentType":5120,"count":96,"normalized":true,"type":"VEC3"},{"bufferView":2,"componentType":5123,"count":132,"type":"SCALAR"},{"bufferView":3,"componentType":5122,"count":864,"max":[14638.0,-28147.0,19028.0],"min":[13783.0,-28420.0,18074.0],"normalized":true,"type":"VEC3"},{"bufferView":4,"componentType":5120,"count":864,"normalized":true,"type":"VEC3"},{"bufferView":5,"componentType":5123,"count":1188,"type":"SCALAR"},{"bufferView":6,"componentType":5122,"count":32,"max":[3444.0,-21382.0,21324.0],"min":[2771.0,-22825.0,20475.0],"normalized":true,"type":"VEC3"},{"bufferView":7,"componentType":5120,"count":32,"normalized":true,"type":"VEC3"},{"bufferView":8,"componentType":5123,"count":48,"type":"SCALAR"},{"bufferView":9,"componentType":5122,"count":32,"max":[7061.0,-8547.0,11489.0],"min":[6309.0,-10133.0,10540.0],"normalized":true,"type":"VEC3"},{"bufferView":10,"componentType":5120,"count":32,"normalized":true,"type":"VEC3"},{"bufferView":11,"componentType":5123,"count":48,"type":"SCALAR"},{"bufferView":12,"componentType":5122,"count":96,"max":[32767.0,-31987.0,31035.0],"min":[-32767.0,-32767.0,-32767.0],"normalized":true,"type":"VEC3"},{"bufferView":13,"componentType":5120,"count":96,"normalized":true,"type":"VEC3"},{"bufferView":14,"componentType":5123,"count":132,"type":"SCALAR"},{"bufferView":15,"componentType":5122,"count":40382,"max":[32738.0,32723.0,32767.0],"min":[-30458.0,-31987.0,-7141.0],"normalized":true,"type":"VEC3"},{"bufferView":16,"componentType":5120,"count":40382,"normalized":true,"type":"VEC3"},{"bufferView":17,"componentType":5123,"count":59208,"type":"SCALAR"},{"bufferView":18,"componentType":5122,"count":576,"max":[30209.0,13124.0,29928.0],"min":[-27928.0,-21304.0,-4302.0],"normalized":true,"type":"VEC3"},{"bufferView":19,"componentType":5120,"count":576,"normalized":true,"type":"VEC3"},{"bufferView":20,"componentType":5123,"count":792,"type":"SCALAR"},{"bufferView":21,"componentType":5122,"count":96,"max":[30274.0,-30272.0,29775.0],"min":[-27993.0,-31987.0,-4149.0],"normalized":true,"type":"VEC3"},{"bufferView":22,"componentType":5120,"count":96,"normalized":true,"type":"VEC3"},{"bufferView":23,"componentType":5123,"count":132,"type":"SCALAR"},{"bufferView":24,"componentType":5122,"count":902,"max":[11453.0,-29102.0,19828.0],"min":[6071.0,-30283.0,14728.0],"normalized":true,"type":"VEC3"},{"bufferView":25,"componentType":5120,"count":902,"normalized":true,"type":"VEC3"},{"bufferView":26,"componentType":5123,"count":1368,"type":"SCALAR"},{"bufferView":27,"componentType":5122,"count":4512,"max":[32425.0,32767.0,32587.0],"min":[-30116.0,13408.0,-6964.0],"normalized":true,"type":"VEC3"},{"bufferView":28,"componentType":5120,"count":4512,"normalized":true,"type":"VEC3"},{"bufferView":29,"componentType":5121,"count":4512,"normalized":true,"type":"VEC4"},{"bufferView":30,"componentType":5123,"count":6204,"type":"SCALAR"},{"bufferView":31,"componentType":5122,"count":48,"max":[12493.0,-22605.0,18494.0],"min":[12143.0,-22605.0,18052.0],"normalized":true,"type":"VEC3"},{"bufferView":32,"componentType":5120,"count":48,"normalized":true,"type":"VEC3"},{"bufferView":33,"componentType":5123,"count":72,"type":"SCALAR"},{"bufferView":34,"componentType":5122,"count":60,"max":[32747.0,-32245.0,30981.0],"min":[-32767.0,-32767.0,-32767.0],"normalized":true,"type":"VEC3"},{"bufferView":35,"componentType":5120,"count":60,"normalized":true,"type":"VEC3"},{"bufferView":36,"componentType":5123,"count":60,"type":"SCALAR"},{"bufferView":37,"componentType":5122,"count":30852,"max":[32767.0,32723.0,32767.0],"min":[-30504.0,-32239.0,-7166.0],"normalized":true,"type":"VEC3"},{"bufferView":38,"componentType":5120,"count":30852,"normalized":true,"type":"VEC3"},{"bufferView":39,"componentType":5123,"count":30852,"type":"SCALAR"},{"bufferView":40,"componentType":5122,"count":360,"max":[30235.0,13046.0,29934.0],"min":[-27945.0,-21496.0,-4300.0],"normalized":true,"type":"VEC3"},{"bufferView":41,"componentType":5120,"count":360,"normalized":true,"type":"VEC3"},{"bufferView":42,"componentType":5123,"count":360,"type":"SCALAR"},{"bufferView":43,"componentType":5122,"count":60,"max":[30254.0,-30609.0,29707.0],"min":[-27991.0,-32159.0,-4106.0],"normalized":true,"type":"VEC3"},{"bufferView":44,"componentType":5120,"count":60,"normalized":true,"type":"VEC3"},{"bufferView":45,"componentType":5123,"count":60,"type":"SCALAR"},{"bufferView":46,"componentType":5122,"count":2727,"max":[32428.0,32767.0,32591.0],"min":[-30136.0,13355.0,-6994.0],"normalized":true,"type":"VEC3"},{"bufferView":47,"componentType":5120,"count":2727,"normalized":true,"type":"VEC3"},{"bufferView":48,"componentType":5121,"count":2727,"normalized":true,"type":"VEC4"},{"bufferView":49,"componentType":5123,"count":2727,"type":"SCALAR"},{"bufferView":50,"componentType":5122,"count":24,"max":[32694.0,-32612.0,30932.0],"min":[-32767.0,-32767.0,-32767.0],"normalized":true,"type":"VEC3"},{"bufferView":51,"componentType":5120,"count":24,"normalized":true,"type":"VEC3"},{"bufferView":52,"componentType":5123,"count":24,"type":"SCALAR"},{"bufferView":53,"componentType":5122,"count":9690,"max":[32767.0,32767.0,32767.0],"min":[-30555.0,-32357.0,-7197.0],"normalized":true,"type":"VEC3"},{"bufferView":54,"componentType":5120,"count":9690,"normalized":true,"type":"VEC3"},{"bufferView":55,"componentType":5123,"count":9690,"type":"SCALAR"},{"bufferView":56,"componentType":5122,"count":834,"max":[32428.0,32419.0,32550.0],"min":[-30179.0,13347.0,-6973.0],"normalized":true,"type":"VEC3"},{"bufferView":57,"componentType":5120,"count":834,"normalized":true,"type":"VEC3"},{"bufferView":58,"componentType":5121,"count":834,"normalized":true,"type":"VEC4"},{"bufferView":59,"componentType":5123,"count":834,"type":"SCALAR"},{"bufferView":60,"componentType":5122,"count":24,"max":[32767.0,-32612.0,30932.0],"min":[-32767.0,-32767.0,-32767.0],"normalized":true,"type":"VEC3"},{"bufferView":61,"componentType":5120,"count":24,"normalized":true,"type":"VEC3"},{"bufferView":62,"componentType":5123,"count":24,"type":"SCALAR"},{"bufferView":63,"componentType":5122,"count":2049,"max":[32494.0,32767.0,32767.0],"min":[-30306.0,-32354.0,-7186.0],"normalized":true,"type":"VEC3"},{"bufferView":64,"componentType":5120,"count":2049,"normalized":true,"type":"VEC3"},{"bufferView":65,"componentType":5121,"count":2049,"normalized":true,"type":"VEC4"},{"bufferView":66,"componentType":5123,"count":2049,"type":"SCALAR"},{"bufferView":67,"componentType":5122,"count":3136,"max":[26044.0,-32289.0,26347.0],"min":[-26032.0,-32361.0,-32767.0],"normalized":true,"type":"VEC3"},{"bufferView":68,"componentType":5120,"count":3136,"normalized":true,"type":"VEC3"},{"bufferView":69,"componentType":5123,"count":5208,"type":"SCALAR"},{"bufferView":70,"componentType":5122,"count":13196,"max":[32767.0,32767.0,32767.0],"min":[-32767.0,-32767.0,-20629.0],"normalized":true,"type":"VEC3"},{"bufferView":71,"componentType":5120,"count":13196,"normalized":true,"type":"VEC3"},{"bufferView":72,"componentType":5123,"count":19380,"type":"SCALAR"},{"bufferView":73,"componentType":5122,"count":2307,"max":[26057.0,-32289.0,26348.0],"min":[-26036.0,-32361.0,-32767.0],"normalized":true,"type":"VEC3"},{"bufferView":74,"componentType":5120,"count":2307,"normalized":true,"type":"VEC3"},{"bufferView":75,"componentType":5123,"count":2307,"type":"SCALAR"},{"bufferView":76,"componentType":5122,"count":8787,"max":[32767.0,32767.0,32767.0],"min":[-32767.0,-32767.0,-20618.0],"normalized":true,"type":"VEC3"},{"bufferView":77,"componentType":5120,"count":8787,"normalized":true,"type":"VEC3"},{"bufferView":78,"componentType":5123,"count":8787,"type":"SCALAR"},{"bufferView":79,"componentType":5122,"count":672,"max":[26058.0,-32317.0,26343.0],"min":[-26034.0,-32367.0,-32767.0],"normalized":true,"type":"VEC3"},{"bufferView":80,"componentType":5120,"count":672,"normalized":true,"type":"VEC3"},{"bufferView":81,"componentType":5123,"count":672,"type":"SCALAR"},{"bufferView":82,"componentType":5122,"count":2649,"max":[32767.0,32767.0,32767.0],"min":[-32767.0,-32767.0,-20618.0],"normalized":true,"type":"VEC3"},{"bufferView":83,"componentType":5120,"count":2649,"normalized":true,"type":"VEC3"},{"bufferView":84,"componentType":5123,"count":2649,"type":"SCALAR"},{"bufferView":85,"componentType":5122,"count":132,"max":[24030.0,-32640.0,24574.0],"min":[-26022.0,-32658.0,-32767.0],"normalized":true,"type":"VEC3"},{"bufferView":86,"componentType":5120,"count":132,"normalized":true,"type":"VEC3"},{"bufferView":87,"componentType":5123,"count":132,"type":"SCALAR"},{"bufferView":88,"componentType":5122,"count":525,"max":[32767.0,32767.0,32767.0],"min":[-32767.0,-32767.0,-14992.0],"normalized":true,"type":"VEC3"},{"bufferView":89,"componentType":5120,"count":525,"normalized":true,"type":"VEC3"},{"bufferView":90,"componentType":5123,"count":525,"type":"SCALAR"},{"bufferView":91,"componentType":5122,"count":3250,"max":[32767.0,32767.0,32767.0],"min":[-32767.0,-32767.0,-32767.0],"normalized":true,"type":"VEC3"},{"bufferView":92,"componentType":5120,"count":3250,"normalized":true,"type":"VEC3"},{"bufferView":93,"componentType":5123,"count":5004,"type":"SCALAR"},{"bufferView":94,"componentType":5122,"count":2445,"max":[32767.0,32767.0,32767.0],"min":[-32767.0,-32767.0,-32767.0],"normalized":true,"type":"VEC3"},{"bufferView":95,"componentType":5120,"count":2445,"normalized":true,"type":"VEC3"},{"bufferView":96,"componentType":5123,"count":2445,"type":"SCALAR"},{"bufferView":97,"componentType":5122,"count":705,"max":[32767.0,32767.0,32767.0],"min":[-32767.0,-32767.0,-32767.0],"normalized":true,"type":"VEC3"},{"bufferView":98,"componentType":5120,"count":705,"normalized":true,"type":"VEC3"},{"bufferView":99,"componentType":5123,"count":705,"type":"SCALAR"},{"bufferView":100,"componentType":5122,"count":135,"max":[32767.0,32767.0,32767.0],"min":[-32767.0,-32767.0,-32767.0],"normalized":true,"type":"VEC3"},{"bufferView":101,"componentType":5120,"count":135,"normalized":true,"type":"VEC3"},{"bufferView":102,"componentType":5123,"count":135,"type":"SCALAR"},{"bufferView":103,"componentType":5122,"count":96,"max":[-2229.0,-16143.0,22300.0],"min":[-2634.0,-16624.0,21064.0],"normalized":true,"type":"VEC3"},{"bufferView":104,"componentType":5120,"count":96,"normalized":true,"type":"VEC3"},{"bufferView":105,"componentType":5123,"count":132,"type":"SCALAR"},{"bufferView":106,"componentType":5122,"count":96,"max":[32767.0,-30537.0,-9114.0],"min":[-32767.0,-32767.0,-24079.0],"normalized":true,"type":"VEC3"},{"bufferView":107,"componentType":5120,"count":96,"normalized":true,"type":"VEC3"},{"bufferView":108,"componentType":5123,"count":132,"type":"SCALAR"},{"bufferView":109,"componentType":5122,"count":1568,"max":[418.0,-30811.0,32767.0],"min":[-16073.0,-30880.0,-32767.0],"normalized":true,"type":"VEC3"},{"bufferView":110,"componentType":5120,"count":1568,"normalized":true,"type":"VEC3"},{"bufferView":111,"componentType":5123,"count":2604,"type":"SCALAR"},{"bufferView":112,"componentType":5122,"count":23140,"max":[5410.0,32767.0,29443.0],"min":[-29369.0,-31659.0,-7971.0],"normalized":true,"type":"VEC3"},{"bufferView":113,"componentType":5120,"count":23140,"normalized":true,"type":"VEC3"},{"bufferView":114,"componentType":5123,"count":35460,"type":"SCALAR"},{"bufferView":115,"componentType":5122,"count":168,"max":[-27818.0,-20726.0,-5517.0],"min":[-29841.0,-31051.0,-8603.0],"normalized":true,"type":"VEC3"},{"bufferView":116,"componentType":5120,"count":168,"normalized":true,"type":"VEC3"},{"bufferView":117,"componentType":5123,"count":276,"type":"SCALAR"},{"bufferView":118,"componentType":5122,"count":60,"max":[32767.0,-30537.0,-9220.0],"min":[-32767.0,-32767.0,-23997.0],"normalized":true,"type":"VEC3"},{"bufferView":119,"componentType":5120,"count":60,"normalized":true,"type":"VEC3"},{"bufferView":120,"componentType":5123,"count":60,"type":"SCALAR"},{"bufferView":121,"componentType":5122,"count":1278,"max":[423.0,-30811.0,32767.0],"min":[-16087.0,-30880.0,-32767.0],"normalized":true,"type":"VEC3"},{"bufferView":122,"componentType":5120,"count":1278,"normalized":true,"type":"VEC3"},{"bufferView":123,"componentType":5123,"count":1278,"type":"SCALAR"},{"bufferView":124,"componentType":5122,"count":17616,"max":[5426.0,32767.0,29446.0],"min":[-29877.0,-31649.0,-8530.0],"normalized":true,"type":"VEC3"},{"bufferView":125,"componentType":5120,"count":17616,"normalized":true,"type":"VEC3"},{"bufferView":126,"componentType":5123,"count":17616,"type":"SCALAR"},{"bufferView":127,"componentType":5122,"count":357,"max":[417.0,-31689.0,32767.0],"min":[-16091.0,-31738.0,-32767.0],"normalized":true,"type":"VEC3"},{"bufferView":128,"componentType":5120,"count":357,"normalized":true,"type":"VEC3"},{"bufferView":129,"componentType":5123,"count":357,"type":"SCALAR"},{"bufferView":130,"componentType":5122,"count":5583,"max":[32767.0,32767.0,29453.0],"min":[-32767.0,-32767.0,-23999.0],"normalized":true,"type":"VEC3"},{"bufferView":131,"componentType":5120,"count":5583,"normalized":true,"type":"VEC3"},{"bufferView":132,"componentType":5123,"count":5583,"type":"SCALAR"},{"bufferView":133,"componentType":5122,"count":60,"max":[-443.0,-31673.0,32767.0],"min":[-14713.0,-31687.0,-32767.0],"normalized":true,"type":"VEC3"},{"bufferView":134,"componentType":5120,"count":60,"normalized":true,"type":"VEC3"},{"bufferView":135,"componentType":5123,"count":60,"type":"SCALAR"},{"bufferView":136,"componentType":5122,"count":975,"max":[32767.0,32767.0,32203.0],"min":[-32767.0,-32767.0,-23597.0],"normalized":true,"type":"VEC3"},{"bufferView":137,"componentType":5120,"count":975,"normalized":true,"type":"VEC3"},{"bufferView":138,"componentType":5123,"count":975,"type":"SCALAR"},{"bufferView":139,"componentType":5122,"count":96,"normalized":true,"type":"VEC2"},{"bufferView":140,"componentType":5122,"count":864,"normalized":true,"type":"VEC2"},{"bufferView":141,"componentType":5122,"count":32,"normalized":true,"type":"VEC2"},{"bufferView":142,"componentType":5122,"count":32,"normalized":true,"type":"VEC2"},{"bufferView":143,"componentType":5122,"count":96,"normalized":true,"type":"VEC2"},{"bufferView":144,"componentType":5122,"count":40382,"normalized":true,"type":"VEC2"},{"bufferView":145,"componentType":5122,"count":576,"normalized":true,"type":"VEC2"},{"bufferView":146,"componentType":5122,"count":96,"normalized":true,"type":"VEC2"},{"bufferView":147,"componentType":5122,"count":902,"normalized":true,"type":"VEC2"},{"bufferView":148,"componentType":5122,"count":4512,"normalized":true,"type":"VEC2"},{"bufferView":149,"componentType":5122,"count":48,"normalized":true,"type":"VEC2"},{"bufferView":150,"componentType":5122,"count":60,"normalized":true,"type":"VEC2"},{"bufferView":151,"componentType":5122,"count":30852,"normalized":true,"type":"VEC2"},{"bufferView":152,"componentType":5122,"count":360,"normalized":true,"type":"VEC2"},{"bufferView":153,"componentType":5122,"count":60,"normalized":true,"type":"VEC2"},{"bufferView":154,"componentType":5122,"count":2727,"normalized":true,"type":"VEC2"},{"bufferView":155,"componentType":5122,"count":24,"normalized":true,"type":"VEC2"},{"bufferView":156,"componentType":5122,"count":9690,"normalized":true,"type":"VEC2"},{"bufferView":157,"componentType":5122,"count":834,"normalized":true,"type":"VEC2"},{"bufferView":158,"componentType":5122,"count":24,"normalized":true,"type":"VEC2"},{"bufferView":159,"componentType":5122,"count":2049,"normalized":true,"type":"VEC2"},{"bufferView":160,"componentType":5122,"count":3136,"normalized":true,"type":"VEC2"},{"bufferView":161,"componentType":5122,"count":13196,"normalized":true,"type":"VEC2"},{"bufferView":162,"componentType":5122,"count":2307,"normalized":true,"type":"VEC2"},{"bufferView":163,"componentType":5122,"count":8787,"normalized":true,"type":"VEC2"},{"bufferView":164,"componentType":5122,"count":672,"normalized":true,"type":"VEC2"},{"bufferView":165,"componentType":5122,"count":2649,"normalized":true,"type":"VEC2"},{"bufferView":166,"componentType":5122,"count":132,"normalized":true,"type":"VEC2"},{"bufferView":167,"componentType":5122,"count":525,"normalized":true,"type":"VEC2"},{"bufferView":168,"componentType":5122,"count":3250,"normalized":true,"type":"VEC2"},{"bufferView":169,"componentType":5122,"count":2445,"normalized":true,"type":"VEC2"},{"bufferView":170,"componentType":5122,"count":705,"normalized":true,"type":"VEC2"},{"bufferView":171,"componentType":5122,"count":135,"normalized":true,"type":"VEC2"},{"bufferView":172,"componentType":5122,"count":96,"normalized":true,"type":"VEC2"},{"bufferView":173,"componentType":5122,"count":96,"normalized":true,"type":"VEC2"},{"bufferView":174,"componentType":5122,"count":1568,"normalized":true,"type":"VEC2"},{"bufferView":175,"componentType":5122,"count":23140,"normalized":true,"type":"VEC2"},{"bufferView":176,"componentType":5122,"count":168,"normalized":true,"type":"VEC2"},{"bufferView":177,"componentType":5122,"count":60,"normalized":true,"type":"VEC2"},{"bufferView":178,"componentType":5122,"count":1278,"normalized":true,"type":"VEC2"},{"bufferView":179,"componentType":5122,"count":17616,"normalized":true,"type":"VEC2"},{"bufferView":180,"componentType":5122,"count":357,"normalized":true,"type":"VEC2"},{"bufferView":181,"componentType":5122,"count":5583,"normalized":true,"type":"VEC2"},{"bufferView":182,"componentType":5122,"count":60,"normalized":true,"type":"VEC2"},{"bufferView":183,"componentType":5122,"count":975,"normalized":true,"type":"VEC2"}],"asset":{"generator":"evermore assetgen","version":"2.0"},"bufferViews":[{"buffer":0,"byteLength":768,"byteOffset":0,"byteStride":8,"target":34962},{"buffer":0,"byteLength":384,"byteOffset":768,"byteStride":4,"target":34962},{"buffer":0,"byteLength":264,"byteOffset":1152,"target":34963},{"buffer":0,"byteLength":6912,"byteOffset":1416,"byteStride":8,"target":34962},{"buffer":0,"byteLength":3456,"byteOffset":8328,"byteStride":4,"target":34962},{"buffer":0,"byteLength":2376,"byteOffset":11784,"target":34963},{"buffer":0,"byteLength":256,"byteOffset":14160,"byteStride":8,"target":34962},{"buffer":0,"byteLength":128,"byteOffset":14416,"byteStride":4,"target":34962},{"buffer":0,"byteLength":96,"byteOffset":14544,"target":34963},{"buffer":0,"byteLength":256,"byteOffset":14640,"byteStride":8,"target":34962},{"buffer":0,"byteLength":128,"byteOffset":14896,"byteStride":4,"target":34962},{"buffer":0,"byteLength":96,"byteOffset":15024,"target":34963},{"buffer":0,"byteLength":768,"byteOffset":15120,"byteStride":8,"target":34962},{"buffer":0,"byteLength":384,"byteOffset":15888,"byteStride":4,"target":34962},{"buffer":0,"byteLength":264,"byteOffset":16272,"target":34963},{"buffer":0,"byteLength":323056,"byteOffset":16536,"byteStride":8,"target":34962},{"buffer":0,"byteLength":161528,"byteOffset":339592,"byteStride":4,"target":34962},{"buffer":0,"byteLength":118416,"byteOffset":501120,"target":34963},{"buffer":0,"byteLength":4608,"byteOffset":619536,"byteStride":8,"target":34962},{"buffer":0,"byteLength":2304,"byteOffset":624144,"byteStride":4,"target":34962},{"buffer":0,"byteLength":1584,"byteOffset":626448,"target":34963},{"buffer":0,"byteLength":768,"byteOffset":628032,"byteStride":8,"target":34962},{"buffer":0,"byteLength":384,"byteOffset":628800,"byteStride":4,"target":34962},{"buffer":0,"byteLength":264,"byteOffset":629184,"target":34963},{"buffer":0,"byteLength":7216,"byteOffset":629448,"byteStride":8,"target":34962},{"buffer":0,"byteLength":3608,"byteOffset":636664,"byteStride":4,"target":34962},{"buffer":0,"byteLength":2736,"byteOffset":640272,"target":34963},{"buffer":0,"byteLength":36096,"byteOffset":643008,"byteStride":8,"target":34962},{"buffer":0,"byteLength":18048,"byteOffset":679104,"byteStride":4,"target":34962},{"buffer":0,"byteLength":18048,"byteOffset":697152,"byteStride":4,"target":34962},{"buffer":0,"byteLength":12408,"byteOffset":715200,"target":34963},{"buffer":0,"byteLength":384,"byteOffset":727608,"byteStride":8,"target":34962},{"buffer":0,"byteLength":192,"byteOffset":727992,"byteStride":4,"target":34962},{"buffer":0,"byteLength":144,"byteOffset":728184,"target":34963},{"buffer":0,"byteLength":480,"byteOffset":728328,"byteStride":8,"target":34962},{"buffer":0,"byteLength":240,"byteOffset":728808,"byteStride":4,"target":34962},{"buffer":0,"byteLength":120,"byteOffset":729048,"target":34963},{"buffer":0,"byteLength":246816,"byteOffset":729168,"byteStride":8,"target":34962},{"buffer":0,"byteLength":123408,"byteOffset":975984,"byteStride":4,"target":34962},{"buffer":0,"byteLength":61704,"byteOffset":1099392,"target":34963},{"buffer":0,"byteLength":2880,"byteOffset":1161096,"byteStride":8,"target":34962},{"buffer":0,"byteLength":1440,"byteOffset":1163976,"byteStride":4,"target":34962},{"buffer":0,"byteLength":720,"byteOffset":1165416,"target":34963},{"buffer":0,"byteLength":480,"byteOffset":1166136,"byteStride":8,"target":34962},{"buffer":0,"byteLength":240,"byteOffset":1166616,"byteStride":4,"target":34962},{"buffer":0,"byteLength":120,"byteOffset":1166856,"target":34963},{"buffer":0,"byteLength":21816,"byteOffset":1166976,"byteStride":8,"target":34962},{"buffer":0,"byteLength":10908,"byteOffset":1188792,"byteStride":4,"target":34962},{"buffer":0,"byteLength":10908,"byteOffset":1199700,"byteStride":4,"target":34962},{"buffer":0,"byteLength":5454,"byteOffset":1210608,"target":34963},{"buffer":0,"byteLength":192,"byteOffset":1216064,"byteStride":8,"target":34962},{"buffer":0,"byteLength":96,"byteOffset":1216256,"byteStride":4,"target":34962},{"buffer":0,"byteLength":48,"byteOffset":1216352,"target":34963},{"buffer":0,"byteLength":77520,"byteOffset":1216400,"byteStride":8,"target":34962},{"buffer":0,"byteLength":38760,"byteOffset":1293920,"byteStride":4,"target":34962},{"buffer":0,"byteLength":19380,"byteOffset":1332680,"target":34963},{"buffer":0,"byteLength":6672,"byteOffset":1352060,"byteStride":8,"target":34962},{"buffer":0,"byteLength":3336,"byteOffset":1358732,"byteStride":4,"target":34962},{"buffer":0,"byteLength":3336,"byteOffset":1362068,"byteStride":4,"target":34962},{"buffer":0,"byteLength":1668,"byteOffset":1365404,"target":34963},{"buffer":0,"byteLength":192,"byteOffset":1367072,"byteStride":8,"target":34962},{"buffer":0,"byteLength":96,"byteOffset":1367264,"byteStride":4,"target":34962},{"buffer":0,"byteLength":48,"byteOffset":1367360,"target":34963},{"buffer":0,"byteLength":16392,"byteOffset":1367408,"byteStride":8,"target":34962},{"buffer":0,"byteLength":8196,"byteOffset":1383800,"byteStride":4,"target":34962},{"buffer":0,"byteLength":8196,"byteOffset":1391996,"byteStride":4,"target":34962},{"buffer":0,"byteLength":4098,"byteOffset":1400192,"target":34963},{"buffer":0,"byteLength":25088,"byteOffset":1404292,"byteStride":8,"target":34962},{"buffer":0,"byteLength":12544,"byteOffset":1429380,"byteStride":4,"target":34962},{"buffer":0,"byteLength":10416,"byteOffset":1441924,"target":34963},{"buffer":0,"byteLength":105568,"byteOffset":1452340,"byteStride":8,"target":34962},{"buffer":0,"byteLength":52784,"byteOffset":1557908,"byteStride":4,"target":34962},{"buffer":0,"byteLength":38760,"byteOffset":1610692,"target":34963},{"buffer":0,"byteLength":18456,"byteOffset":1649452,"byteStride":8,"target":34962},{"buffer":0,"byteLength":9228,"byteOffset":1667908,"byteStride":4,"target":34962},{"buffer":0,"byteLength":4614,"byteOffset":1677136,"target":34963},{"buffer":0,"byteLength":70296,"byteOffset":1681752,"byteStride":8,"target":34962},{"buffer":0,"byteLength":35148,"byteOffset":1752048,"byteStride":4,"target":34962},{"buffer":0,"byteLength":17574,"byteOffset":1787196,"target":34963},{"buffer":0,"byteLength":5376,"byteOffset":1804772,"byteStride":8,"target":34962},{"buffer":0,"byteLength":2688,"byteOffset":1810148,"byteStride":4,"target":34962},{"buffer":0,"byteLength":1344,"byteOffset":1812836,"target":34963},{"buffer":0,"byteLength":21192,"byteOffset":1814180,"byteStride":8,"target":34962},{"buffer":0,"byteLength":10596,"byteOffset":1835372,"byteStride":4,"target":34962},{"buffer":0,"byteLength":5298,"byteOffset":1845968,"target":34963},{"buffer":0,"byteLength":1056,"byteOffset":1851268,"byteStride":8,"target":34962},{"buffer":0,"byteLength":528,"byteOffset":1852324,"byteStride":4,"target":34962},{"buffer":0,"byteLength":264,"byteOffset":1852852,"target":34963},{"buffer":0,"byteLength":4200,"byteOffset":1853116,"byteStride":8,"target":34962},{"buffer":0,"byteLength":2100,"byteOffset":1857316,"byteStride":4,"target":34962},{"buffer":0,"byteLength":1050,"byteOffset":1859416,"target":34963},{"buffer":0,"byteLength":26000,"byteOffset":1860468,"byteStride":8,"target":34962},{"buffer":0,"byteLength":13000,"byteOffset":1886468,"byteStride":4,"target":34962},{"buffer":0,"byteLength":10008,"byteOffset":1899468,"target":34963},{"buffer":0,"byteLength":19560,"byteOffset":1909476,"byteStride":8,"target":34962},{"buffer":0,"byteLength":9780,"byteOffset":1929036,"byteStride":4,"target":34962},{"buffer":0,"byteLength":4890,"byteOffset":1938816,"target":34963},{"buffer":0,"byteLength":5640,"byteOffset":1943708,"byteStride":8,"target":34962},{"buffer":0,"byteLength":2820,"byteOffset":1949348,"byteStride":4,"target":34962},{"buffer":0,"byteLength":1410,"byteOffset":1952168,"target":34963},{"buffer":0,"byteLength":1080,"byteOffset":1953580,"byteStride":8,"target":34962},{"buffer":0,"byteLength":540,"byteOffset":1954660,"byteStride":4,"target":34962},{"buffer":0,"byteLength":270,"byteOffset":1955200,"target":34963},{"buffer":0,"byteLength":768,"byteOffset":1955472,"byteStride":8,"target":34962},{"buffer":0,"byteLength":384,"byteOffset":1956240,"byteStride":4,"target":34962},{"buffer":0,"byteLength":264,"byteOffset":1956624,"target":34963},{"buffer":0,"byteLength":768,"byteOffset":1956888,"byteStride":8,"target":34962},{"buffer":0,"byteLength":384,"byteOffset":1957656,"byteStride":4,"target":34962},{"buffer":0,"byteLength":264,"byteOffset":1958040,"target":34963},{"buffer":0,"byteLength":12544,"byteOffset":1958304,"byteStride":8,"target":34962},{"buffer":0,"byteLength":6272,"byteOffset":1970848,"byteStride":4,"target":34962},{"buffer":0,"byteLength":5208,"byteOffset":1977120,"target":34963},{"buffer":0,"byteLength":185120,"byteOffset":1982328,"byteStride":8,"target":34962},{"buffer":0,"byteLength":92560,"byteOffset":2167448,"byteStride":4,"target":34962},{"buffer":0,"byteLength":70920,"byteOffset":2260008,"target":34963},{"buffer":0,"byteLength":1344,"byteOffset":2330928,"byteStride":8,"target":34962},{"buffer":0,"byteLength":672,"byteOffset":2332272,"byteStride":4,"target":34962},{"buffer":0,"byteLength":552,"byteOffset":2332944,"target":34963},{"buffer":0,"byteLength":480,"byteOffset":2333496,"byteStride":8,"target":34962},{"buffer":0,"byteLength":240,"byteOffset":2333976,"byteStride":4,"target":34962},{"buffer":0,"byteLength":120,"byteOffset":2334216,"target":34963},{"buffer":0,"byteLength":10224,"byteOffset":2334336,"byteStride":8,"target":34962},{"buffer":0,"byteLength":5112,"byteOffset":2344560,"byteStride":4,"target":34962},{"buffer":0,"byteLength":2556,"byteOffset":2349672,"target":34963},{"buffer":0,"byteLength":140928,"byteOffset":2352228,"byteStride":8,"target":34962},{"buffer":0,"byteLength":70464,"byteOffset":2493156,"byteStride":4,"target":34962},{"buffer":0,"byteLength":35232,"byteOffset":2563620,"target":34963},{"buffer":0,"byteLength":2856,"byteOffset":2598852,"byteStride":8,"target":34962},{"buffer":0,"byteLength":1428,"byteOffset":2601708,"byteStride":4,"target":34962},{"buffer":0,"byteLength":714,"byteOffset":2603136,"target":34963},{"buffer":0,"byteLength":44664,"byteOffset":2603852,"byteStride":8,"target":34962},{"buffer":0,"byteLength":22332,"byteOffset":2648516,"byteStride":4,"target":34962},{"buffer":0,"byteLength":11166,"byteOffset":2670848,"target":34963},{"buffer":0,"byteLength":480,"byteOffset":2682016,"byteStride":8,"target":34962},{"buffer":0,"byteLength":240,"byteOffset":2682496,"byteStride":4,"target":34962},{"buffer":0,"byteLength":120,"byteOffset":2682736,"target":34963},{"buffer":0,"byteLength":7800,"byteOffset":2682856,"byteStride":8,"target":34962},{"buffer":0,"byteLength":3900,"byteOffset":2690656,"byteStride":4,"target":34962},{"buffer":0,"byteLength":1950,"byteOffset":2694556,"target":34963},{"buffer":0,"byteLength":384,"byteOffset":2696508,"byteStride":4,"target":34962},{"buffer":0,"byteLength":3456,"byteOffset":2696892,"byteStride":4,"target":34962},{"buffer":0,"byteLength":128,"byteOffset":2700348,"byteStride":4,"target":34962},{"buffer":0,"byteLength":128,"byteOffset":2700476,"byteStride":4,"target":34962},{"buffer":0,"byteLength":384,"byteOffset":2700604,"byteStride":4,"target":34962},{"buffer":0,"byteLength":161528,"byteOffset":2700988,"byteStride":4,"target":34962},{"buffer":0,"byteLength":2304,"byteOffset":2862516,"byteStride":4,"target":34962},{"buffer":0,"byteLength":384,"byteOffset":2864820,"byteStride":4,"target":34962},{"buffer":0,"byteLength":3608,"byteOffset":2865204,"byteStride":4,"target":34962},{"buffer":0,"byteLength":18048,"byteOffset":2868812,"byteStride":4,"target":34962},{"buffer":0,"byteLength":192,"byteOffset":2886860,"byteStride":4,"target":34962},{"buffer":0,"byteLength":240,"byteOffset":2887052,"byteStride":4,"target":34962},{"buffer":0,"byteLength":123408,"byteOffset":2887292,"byteStride":4,"target":34962},{"buffer":0,"byteLength":1440,"byteOffset":3010700,"byteStride":4,"target":34962},{"buffer":0,"byteLength":240,"byteOffset":3012140,"byteStride":4,"target":34962},{"buffer":0,"byteLength":10908,"byteOffset":3012380,"byteStride":4,"target":34962},{"buffer":0,"byteLength":96,"byteOffset":3023288,"byteStride":4,"target":34962},{"buffer":0,"byteLength":38760,"byteOffset":3023384,"byteStride":4,"target":34962},{"buffer":0,"byteLength":3336,"byteOffset":3062144,"byteStride":4,"target":34962},{"buffer":0,"byteLength":96,"byteOffset":3065480,"byteStride":4,"target":34962},{"buffer":0,"byteLength":8196,"byteOffset":3065576,"byteStride":4,"target":34962},{"buffer":0,"byteLength":12544,"byteOffset":3073772,"byteStride":4,"target":34962},{"buffer":0,"byteLength":52784,"byteOffset":3086316,"byteStride":4,"target":34962},{"buffer":0,"byteLength":9228,"byteOffset":3139100,"byteStride":4,"target":34962},{"buffer":0,"byteLength":35148,"byteOffset":3148328,"byteStride":4,"target":34962},{"buffer":0,"byteLength":2688,"byteOffset":3183476,"byteStride":4,"target":34962},{"buffer":0,"byteLength":10596,"byteOffset":3186164,"byteStride":4,"target":34962},{"buffer":0,"byteLength":528,"byteOffset":3196760,"byteStride":4,"target":34962},{"buffer":0,"byteLength":2100,"byteOffset":3197288,"byteStride":4,"target":34962},{"buffer":0,"byteLength":13000,"byteOffset":3199388,"byteStride":4,"target":34962},{"buffer":0,"byteLength":9780,"byteOffset":3212388,"byteStride":4,"target":34962},{"buffer":0,"byteLength":2820,"byteOffset":3222168,"byteStride":4,"target":34962},{"buffer":0,"byteLength":540,"byteOffset":3224988,"byteStride":4,"target":34962},{"buffer":0,"byteLength":384,"byteOffset":3225528,"byteStride":4,"target":34962},{"buffer":0,"byteLength":384,"byteOffset":3225912,"byteStride":4,"target":34962},{"buffer":0,"byteLength":6272,"byteOffset":3226296,"byteStride":4,"target":34962},{"buffer":0,"byteLength":92560,"byteOffset":3232568,"byteStride":4,"target":34962},{"buffer":0,"byteLength":672,"byteOffset":3325128,"byteStride":4,"target":34962},{"buffer":0,"byteLength":240,"byteOffset":3325800,"byteStride":4,"target":34962},{"buffer":0,"byteLength":5112,"byteOffset":3326040,"byteStride":4,"target":34962},{"buffer":0,"byteLength":70464,"byteOffset":3331152,"byteStride":4,"target":34962},{"buffer":0,"byteLength":1428,"byteOffset":3401616,"byteStride":4,"target":34962},{"buffer":0,"byteLength":22332,"byteOffset":3403044,"byteStride":4,"target":34962},{"buffer":0,"byteLength":240,"byteOffset":3425376,"byteStride":4,"target":34962},{"buffer":0,"byteLength":3900,"byteOffset":3425616,"byteStride":4,"target":34962}],"buffers":[{"byteLength":3429516,"uri":"carpenter.bin"}],"extensionsRequired":["KHR_mesh_quantization","KHR_texture_transform"],"extensionsUsed":["KHR_mesh_quantization","KHR_texture_transform","MSFT_lod"],"extras":{"hm":{"batching":true,"cellSize":16.0,"cells":[{"cullAt":null,"interior":null,"key":"0_0","lodPrims":[11,5,3,2],"lodTris":[23108,11353,3516,691],"max":[7.81,8.404,6.358],"min":[-7.81,0.0,-6.03]},{"cullAt":null,"interior":null,"key":"0_n1","lodPrims":[2,2,2,2],"lodTris":[8196,3698,1107,219],"max":[7.285,3.717,1.431],"min":[-2.388,0.088,-5.948]},{"cullAt":null,"interior":null,"key":"n1_0","lodPrims":[1,1,1,1],"lodTris":[1668,815,235,45],"max":[0.358,2.34,5.18],"min":[-4.773,0.1,3.293]},{"cullAt":null,"interior":null,"key":"n1_n1","lodPrims":[5,3,2,2],"lodTris":[12868,6318,1980,345],"max":[6.732,3.82,0.741],"min":[-7.811,0.0,-7.056]}],"instanced":[],"instancing":true,"interiors":[],"lod":true,"lodDistances":[15.0,40.0,100.0],"stats":{"groups":4,"lodPrims":[19,11,8,7],"lodTris":[45840,22184,6838,1300]},"venue":"carpenter"}},"images":[{"uri":"../textures/gravel_albedo.png"},{"uri":"../textures/gravel_orm.png"},{"uri":"../textures/gravel_normal.png"},{"uri":"../textures/cobble_albedo.png"},{"uri":"../textures/cobble_orm.png"},{"uri":"../textures/cobble_normal.png"},{"uri":"../textures/rubble_albedo.png"},{"uri":"../textures/rubble_orm.png"},{"uri":"../textures/rubble_normal.png"},{"uri":"../textures/kit_albedo.png"},{"uri":"../textures/kit_orm.png"},{"uri":"../textures/kit_normal.png"},{"uri":"../textures/oak_dark_albedo.png"},{"uri":"../textures/oak_dark_orm.png"},{"uri":"../textures/oak_dark_normal.png"},{"uri":"../textures/terracotta_albedo.png"},{"uri":"../textures/terracotta_orm.png"},{"uri":"../textures/terracotta_normal.png"},{"uri":"../textures/cinder_albedo.png"},{"uri":"../textures/cinder_orm.png"},{"uri":"../textures/cinder_normal.png"},{"uri":"../textures/glass_albedo.png"},{"uri":"../textures/glass_orm.png"},{"uri":"../textures/glass_normal.png"},{"uri":"../textures/glass_emissive.png"},{"uri":"../textures/water_albedo.png"},{"uri":"../textures/water_orm.png"},{"uri":"../textures/water_normal.png"},{"uri":"../textures/sand_albedo.png"},{"uri":"../textures/sand_orm.png"},{"uri":"../textures/sand_normal.png"},{"uri":"../textures/coal_albedo.png"},{"uri":"../textures/coal_orm.png"},{"uri":"../textures/coal_normal.png"},{"uri":"../textures/coal_emissive.png"},{"uri":"../textures/glass_lit_albedo.png"},{"uri":"../textures/glass_lit_orm.png"},{"uri":"../textures/glass_lit_normal.png"},{"uri":"../textures/glass_lit_emissive.png"},{"uri":"../textures/dirt_albedo.png"},{"uri":"../textures/dirt_orm.png"},{"uri":"../textures/dirt_normal.png"},{"uri":"../textures/stone_albedo.png"},{"uri":"../textures/stone_orm.png"},{"uri":"../textures/stone_normal.png"}],"materials":[{"doubleSided":false,"name":"gravel","normalTexture":{"extensions":{"KHR_texture_transform":{"scale":[5.10015545462966,5.10015545462966]}},"index":2,"scale":1.0},"occlusionTexture":{"extensions":{"KHR_texture_transform":{"scale":[5.10015545462966,5.10015545462966]}},"index":1},"pbrMetallicRoughness":{"baseColorFactor":[1,1,1,1],"baseColorTexture":{"extensions":{"KHR_texture_transform":{"scale":[5.10015545462966,5.10015545462966]}},"index":0},"metallicFactor":1.0,"metallicRoughnessTexture":{"extensions":{"KHR_texture_transform":{"scale":[5.10015545462966,5.10015545462966]}},"index":1},"roughnessFactor":1.0}},{"doubleSided":false,"name":"cobble","normalTexture":{"extensions":{"KHR_texture_transform":{"scale":[5.10015545462966,5.10015545462966]}},"index":5,"scale":1.0},"occlusionTexture":{"extensions":{"KHR_texture_transform":{"scale":[5.10015545462966,5.10015545462966]}},"index":4},"pbrMetallicRoughness":{"baseColorFactor":[1,1,1,1],"baseColorTexture":{"extensions":{"KHR_texture_transform":{"scale":[5.10015545462966,5.10015545462966]}},"index":3},"metallicFactor":1.0,"metallicRoughnessTexture":{"extensions":{"KHR_texture_transform":{"scale":[5.10015545462966,5.10015545462966]}},"index":4},"roughnessFactor":1.0}},{"doubleSided":false,"name":"rubble","normalTexture":{"extensions":{"KHR_texture_transform":{"scale":[5.10015545462966,5.10015545462966]}},"index":8,"scale":1.0},"occlusionTexture":{"extensions":{"KHR_texture_transform":{"scale":[5.10015545462966,5.10015545462966]}},"index":7},"pbrMetallicRoughness":{"baseColorFactor":[1,1,1,1],"baseColorTexture":{"extensions":{"KHR_texture_transform":{"scale":[5.10015545462966,5.10015545462966]}},"index":6},"metallicFactor":1.0,"metallicRoughnessTexture":{"extensions":{"KHR_texture_transform":{"scale":[5.10015545462966,5.10015545462966]}},"index":7},"roughnessFactor":1.0}},{"doubleSided":true,"name":"kit","normalTexture":{"extensions":{"KHR_texture_transform":{"scale":[5.10015545462966,5.10015545462966]}},"index":11,"scale":1.0},"occlusionTexture":{"extensions":{"KHR_texture_transform":{"scale":[5.10015545462966,5.10015545462966]}},"index":10},"pbrMetallicRoughness":{"baseColorFactor":[1,1,1,1],"baseColorTexture":{"extensions":{"KHR_texture_transform":{"scale":[5.10015545462966,5.10015545462966]}},"index":9},"metallicFactor":1.0,"metallicRoughnessTexture":{"extensions":{"KHR_texture_transform":{"scale":[5.10015545462966,5.10015545462966]}},"index":10},"roughnessFactor":1.0}},{"doubleSided":false,"name":"oak_dark","normalTexture":{"extensions":{"KHR_texture_transform":{"scale":[5.10015545462966,5.10015545462966]}},"index":14,"scale":1.0},"occlusionTexture":{"extensions":{"KHR_texture_transform":{"scale":[5.10015545462966,5.10015545462966]}},"index":13},"pbrMetallicRoughness":{"baseColorFactor":[1,1,1,1],"baseColorTexture":{"extensions":{"KHR_texture_transform":{"scale":[5.10015545462966,5.10015545462966]}},"index":12},"metallicFactor":1.0,"metallicRoughnessTexture":{"extensions":{"KHR_texture_transform":{"scale":[5.10015545462966,5.10015545462966]}},"index":13},"roughnessFactor":1.0}},{"doubleSided":false,"name":"terracotta","normalTexture":{"extensions":{"KHR_texture_transform":{"scale":[5.10015545462966,5.10015545462966]}},"index":17,"scale":1.0},"occlusionTexture":{"extensions":{"KHR_texture_transform":{"scale":[5.10015545462966,5.10015545462966]}},"index":16},"pbrMetallicRoughness":{"baseColorFactor":[1,1,1,1],"baseColorTexture":{"extensions":{"KHR_texture_transform":{"scale":[5.10015545462966,5.10015545462966]}},"index":15},"metallicFactor":1.0,"metallicRoughnessTexture":{"extensions":{"KHR_texture_transform":{"scale":[5.10015545462966,5.10015545462966]}},"index":16},"roughnessFactor":1.0}},{"doubleSided":false,"name":"cinder","normalTexture":{"extensions":{"KHR_texture_transform":{"scale":[5.10015545462966,5.10015545462966]}},"index":20,"scale":1.0},"occlusionTexture":{"extensions":{"KHR_texture_transform":{"scale":[5.10015545462966,5.10015545462966]}},"index":19},"pbrMetallicRoughness":{"baseColorFactor":[1,1,1,1],"baseColorTexture":{"extensions":{"KHR_texture_transform":{"scale":[5.10015545462966,5.10015545462966]}},"index":18},"metallicFactor":1.0,"metallicRoughnessTexture":{"extensions":{"KHR_texture_transform":{"scale":[5.10015545462966,5.10015545462966]}},"index":19},"roughnessFactor":1.0}},{"alphaMode":"BLEND","doubleSided":true,"emissiveFactor":[1.0,1.0,1.0],"emissiveTexture":{"extensions":{"KHR_texture_transform":{"scale":[5.10015545462966,5.10015545462966]}},"index":24},"name":"glass","normalTexture":{"extensions":{"KHR_texture_transform":{"scale":[5.10015545462966,5.10015545462966]}},"index":23,"scale":1.0},"occlusionTexture":{"extensions":{"KHR_texture_transform":{"scale":[5.10015545462966,5.10015545462966]}},"index":22},"pbrMetallicRoughness":{"baseColorFactor":[1,1,1,1],"baseColorTexture":{"extensions":{"KHR_texture_transform":{"scale":[5.10015545462966,5.10015545462966]}},"index":21},"metallicFactor":1.0,"metallicRoughnessTexture":{"extensions":{"KHR_texture_transform":{"scale":[5.10015545462966,5.10015545462966]}},"index":22},"roughnessFactor":1.0}},{"alphaMode":"BLEND","doubleSided":false,"name":"water","normalTexture":{"extensions":{"KHR_texture_transform":{"scale":[5.10015545462966,5.10015545462966]}},"index":27,"scale":1.0},"occlusionTexture":{"extensions":{"KHR_texture_transform":{"scale":[5.10015545462966,5.10015545462966]}},"index":26},"pbrMetallicRoughness":{"baseColorFactor":[1,1,1,1],"baseColorTexture":{"extensions":{"KHR_texture_transform":{"scale":[5.10015545462966,5.10015545462966]}},"index":25},"metallicFactor":1.0,"metallicRoughnessTexture":{"extensions":{"KHR_texture_transform":{"scale":[5.10015545462966,5.10015545462966]}},"index":26},"roughnessFactor":1.0}},{"doubleSided":false,"name":"sand","normalTexture":{"extensions":{"KHR_texture_transform":{"scale":[5.10015545462966,5.10015545462966]}},"index":30,"scale":1.0},"occlusionTexture":{"extensions":{"KHR_texture_transform":{"scale":[5.10015545462966,5.10015545462966]}},"index":29},"pbrMetallicRoughness":{"baseColorFactor":[1,1,1,1],"baseColorTexture":{"extensions":{"KHR_texture_transform":{"scale":[5.10015545462966,5.10015545462966]}},"index":28},"metallicFactor":1.0,"metallicRoughnessTexture":{"extensions":{"KHR_texture_transform":{"scale":[5.10015545462966,5.10015545462966]}},"index":29},"roughnessFactor":1.0}},{"doubleSided":false,"emissiveFactor":[1.0,1.0,1.0],"emissiveTexture":{"extensions":{"KHR_texture_transform":{"scale":[5.10015545462966,5.10015545462966]}},"index":34},"name":"coal","normalTexture":{"extensions":{"KHR_texture_transform":{"scale":[5.10015545462966,5.10015545462966]}},"index":33,"scale":1.0},"occlusionTexture":{"extensions":{"KHR_texture_transform":{"scale":[5.10015545462966,5.10015545462966]}},"index":32},"pbrMetallicRoughness":{"baseColorFactor":[1,1,1,1],"baseColorTexture":{"extensions":{"KHR_texture_transform":{"scale":[5.10015545462966,5.10015545462966]}},"index":31},"metallicFactor":1.0,"metallicRoughnessTexture":{"extensions":{"KHR_texture_transform":{"scale":[5.10015545462966,5.10015545462966]}},"index":32},"roughnessFactor":1.0}},{"doubleSided":true,"emissiveFactor":[1.0,1.0,1.0],"emissiveTexture":{"extensions":{"KHR_texture_transform":{"scale":[5.10015545462966,5.10015545462966]}},"index":38},"name":"glass_lit","normalTexture":{"extensions":{"KHR_texture_transform":{"scale":[5.10015545462966,5.10015545462966]}},"index":37,"scale":1.0},"occlusionTexture":{"extensions":{"KHR_texture_transform":{"scale":[5.10015545462966,5.10015545462966]}},"index":36},"pbrMetallicRoughness":{"baseColorFactor":[1,1,1,1],"baseColorTexture":{"extensions":{"KHR_texture_transform":{"scale":[5.10015545462966,5.10015545462966]}},"index":35},"metallicFactor":1.0,"metallicRoughnessTexture":{"extensions":{"KHR_texture_transform":{"scale":[5.10015545462966,5.10015545462966]}},"index":36},"roughnessFactor":1.0}},{"doubleSided":false,"name":"dirt","normalTexture":{"extensions":{"KHR_texture_transform":{"scale":[5.10015545462966,5.10015545462966]}},"index":41,"scale":1.0},"occlusionTexture":{"extensions":{"KHR_texture_transform":{"scale":[5.10015545462966,5.10015545462966]}},"index":40},"pbrMetallicRoughness":{"baseColorFactor":[1,1,1,1],"baseColorTexture":{"extensions":{"KHR_texture_transform":{"scale":[5.10015545462966,5.10015545462966]}},"index":39},"metallicFactor":1.0,"metallicRoughnessTexture":{"extensions":{"KHR_texture_transform":{"scale":[5.10015545462966,5.10015545462966]}},"index":40},"roughnessFactor":1.0}},{"doubleSided":false,"name":"stone","normalTexture":{"extensions":{"KHR_texture_transform":{"scale":[5.10015545462966,5.10015545462966]}},"index":44,"scale":1.0},"occlusionTexture":{"extensions":{"KHR_texture_transform":{"scale":[5.10015545462966,5.10015545462966]}},"index":43},"pbrMetallicRoughness":{"baseColorFactor":[1,1,1,1],"baseColorTexture":{"extensions":{"KHR_texture_transform":{"scale":[5.10015545462966,5.10015545462966]}},"index":42},"metallicFactor":1.0,"metallicRoughnessTexture":{"extensions":{"KHR_texture_transform":{"scale":[5.10015545462966,5.10015545462966]}},"index":43},"roughnessFactor":1.0}}],"meshes":[{"name":"carpenter#0_0","primitives":[{"attributes":{"NORMAL":1,"POSITION":0,"TEXCOORD_0":139},"indices":2,"material":6},{"attributes":{"NORMAL":4,"POSITION":3,"TEXCOORD_0":140},"indices":5,"material":10},{"attributes":{"NORMAL":7,"POSITION":6,"TEXCOORD_0":141},"indices":8,"material":7},{"attributes":{"NORMAL":10,"POSITION":9,"TEXCOORD_0":142},"indices":11,"material":11},{"attributes":{"NORMAL":13,"POSITION":12,"TEXCOORD_0":143},"indices":14,"material":0},{"attributes":{"NORMAL":16,"POSITION":15,"TEXCOORD_0":144},"indices":17,"material":3},{"attributes":{"NORMAL":19,"POSITION":18,"TEXCOORD_0":145},"indices":20,"material":4},{"attributes":{"NORMAL":22,"POSITION":21,"TEXCOORD_0":146},"indices":23,"material":2},{"attributes":{"NORMAL":25,"POSITION":24,"TEXCOORD_0":147},"indices":26,"material":9},{"attributes":{"COLOR_0":29,"NORMAL":28,"POSITION":27,"TEXCOORD_0":148},"indices":30,"material":5},{"attributes":{"NORMAL":32,"POSITION":31,"TEXCOORD_0":149},"indices":33,"material":8}]},{"name":"carpenter#0_0$lod1","primitives":[{"attributes":{"NORMAL":35,"POSITION":34,"TEXCOORD_0":150},"indices":36,"material":0},{"attributes":{"NORMAL":38,"POSITION":37,"TEXCOORD_0":151},"indices":39,"material":3},{"attributes":{"NORMAL":41,"POSITION":40,"TEXCOORD_0":152},"indices":42,"material":4},{"attributes":{"NORMAL":44,"POSITION":43,"TEXCOORD_0":153},"indices":45,"material":2},{"attributes":{"COLOR_0":48,"NORMAL":47,"POSITION":46,"TEXCOORD_0":154},"indices":49,"material":5}]},{"name":"carpenter#0_0$lod2","primitives":[{"attributes":{"NORMAL":51,"POSITION":50,"TEXCOORD_0":155},"indices":52,"material":0},{"attributes":{"NORMAL":54,"POSITION":53,"TEXCOORD_0":156},"indices":55,"material":3},{"attributes":{"COLOR_0":58,"NORMAL":57,"POSITION":56,"TEXCOORD_0":157},"indices":59,"material":5}]},{"name":"carpenter#0_0$lod3","primitives":[{"attributes":{"NORMAL":61,"POSITION":60,"TEXCOORD_0":158},"indices":62,"material":0},{"attributes":{"COLOR_0":65,"NORMAL":64,"POSITION":63,"TEXCOORD_0":159},"indices":66,"material":3}]},{"name":"carpenter#0_n1","primitives":[{"attributes":{"NORMAL":68,"POSITION":67,"TEXCOORD_0":160},"indices":69,"material":12},{"attributes":{"NORMAL":71,"POSITION":70,"TEXCOORD_0":161},"indices":72,"material":3}]},{"name":"carpenter#0_n1$lod1","primitives":[{"attributes":{"NORMAL":74,"POSITION":73,"TEXCOORD_0":162},"indices":75,"material":12},{"attributes":{"NORMAL":77,"POSITION":76,"TEXCOORD_0":163},"indices":78,"material":3}]},{"name":"carpenter#0_n1$lod2","primitives":[{"attributes":{"NORMAL":80,"POSITION":79,"TEXCOORD_0":164},"indices":81,"material":12},{"attributes":{"NORMAL":83,"POSITION":82,"TEXCOORD_0":165},"indices":84,"material":3}]},{"name":"carpenter#0_n1$lod3","primitives":[{"attributes":{"NORMAL":86,"POSITION":85,"TEXCOORD_0":166},"indices":87,"material":12},{"attributes":{"NORMAL":89,"POSITION":88,"TEXCOORD_0":167},"indices":90,"material":3}]},{"name":"carpenter#n1_0","primitives":[{"attributes":{"NORMAL":92,"POSITION":91,"TEXCOORD_0":168},"indices":93,"material":3}]},{"name":"carpenter#n1_0$lod1","primitives":[{"attributes":{"NORMAL":95,"POSITION":94,"TEXCOORD_0":169},"indices":96,"material":3}]},{"name":"carpenter#n1_0$lod2","primitives":[{"attributes":{"NORMAL":98,"POSITION":97,"TEXCOORD_0":170},"indices":99,"material":3}]},{"name":"carpenter#n1_0$lod3","primitives":[{"attributes":{"NORMAL":101,"POSITION":100,"TEXCOORD_0":171},"indices":102,"material":3}]},{"name":"carpenter#n1_n1","primitives":[{"attributes":{"NORMAL":104,"POSITION":103,"TEXCOORD_0":172},"indices":105,"material":6},{"attributes":{"NORMAL":107,"POSITION":106,"TEXCOORD_0":173},"indices":108,"material":1},{"attributes":{"NORMAL":110,"POSITION":109,"TEXCOORD_0":174},"indices":111,"material":12},{"attributes":{"NORMAL":113,"POSITION":112,"TEXCOORD_0":175},"indices":114,"material":3},{"attributes":{"NORMAL":116,"POSITION":115,"TEXCOORD_0":176},"indices":117,"material":13}]},{"name":"carpenter#n1_n1$lod1","primitives":[{"attributes":{"NORMAL":119,"POSITION":118,"TEXCOORD_0":177},"indices":120,"material":1},{"attributes":{"NORMAL":122,"POSITION":121,"TEXCOORD_0":178},"indices":123,"material":12},{"attributes":{"NORMAL":125,"POSITION":124,"TEXCOORD_0":179},"indices":126,"material":3}]},{"name":"carpenter#n1_n1$lod2","primitives":[{"attributes":{"NORMAL":128,"POSITION":127,"TEXCOORD_0":180},"indices":129,"material":12},{"attributes":{"NORMAL":131,"POSITION":130,"TEXCOORD_0":181},"indices":132,"material":3}]},{"name":"carpenter#n1_n1$lod3","primitives":[{"attributes":{"NORMAL":134,"POSITION":133,"TEXCOORD_0":182},"indices":135,"material":12},{"attributes":{"NORMAL":137,"POSITION":136,"TEXCOORD_0":183},"indices":138,"material":3}]}],"nodes":[{"extensions":{"MSFT_lod":{"ids":[1,2,3]}},"extras":{"MSFT_screencoverage":[1.0,0.51952,0.20781,0.0],"hm":{"cell":"0_0","cullAt":null,"interior":null,"lod":0,"max":[7.81,8.404,6.358],"min":[-7.81,0.0,-6.03],"prims":11,"tris":23108,"venue":"carpenter"}},"mesh":0,"name":"carpenter#0_0","scale":[7.810352802276611,4.202000141143799,6.194042205810547],"translation":[0.0,4.202000141143799,0.16367697715759277]},{"extras":{"hm":{"cell":"0_0","cullAt":null,"interior":null,"lod":1,"max":[7.81,8.404,6.358],"min":[-7.81,0.0,-6.03],"prims":5,"tris":11353,"venue":"carpenter"}},"mesh":1,"name":"carpenter#0_0$lod1","scale":[7.80112361907959,4.185333251953125,6.187413215637207],"translation":[0.0023736953735351562,4.218667030334473,0.16865086555480957]},{"extras":{"hm":{"cell":"0_0","cullAt":null,"interior":null,"lod":2,"max":[7.81,8.404,6.358],"min":[-7.81,0.0,-6.03],"prims":3,"tris":3516,"venue":"carpenter"}},"mesh":2,"name":"carpenter#0_0$lod2","scale":[7.794795036315918,4.174169540405273,6.181324005126953],"translation":[0.008702516555786133,4.224169731140137,0.1731095314025879]},{"extras":{"hm":{"cell":"0_0","cullAt":null,"interior":null,"lod":3,"max":[7.81,8.404,6.358],"min":[-7.81,0.0,-6.03],"prims":2,"tris":691,"venue":"carpenter"}},"mesh":3,"name":"carpenter#0_0$lod3","scale":[7.786092281341553,4.173285484313965,6.181324005126953],"translation":[0.0,4.223285675048828,0.1731095314025879]},{"extensions":{"MSFT_lod":{"ids":[5,6,7]}},"extras":{"MSFT_screencoverage":[0.81297,0.30486,0.12195,0.0],"hm":{"cell":"0_n1","cullAt":null,"interior":null,"lod":0,"max":[7.285,3.717,1.431],"min":[-2.388,0.088,-5.948],"prims":2,"tris":8196,"venue":"carpenter"}},"mesh":4,"name":"carpenter#0_n1","scale":[4.836773872375488,1.8145540952682495,3.689342498779297],"translation":[2.448639154434204,1.9020594358444214,-2.2586703300476074]},{"extras":{"hm":{"cell":"0_n1","cullAt":null,"interior":null,"lod":1,"max":[7.285,3.717,1.431],"min":[-2.388,0.088,-5.948],"prims":2,"tris":3698,"venue":"carpenter"}},"mesh":5,"name":"carpenter#0_n1$lod1","scale":[4.834804058074951,1.8145540952682495,3.6891191005706787],"translation":[2.4481515884399414,1.9020594358444214,-2.2588937282562256]},{"extras":{"hm":{"cell":"0_n1","cullAt":null,"interior":null,"lod":2,"max":[7.285,3.717,1.431],"min":[-2.388,0.088,-5.948],"prims":2,"tris":1107,"venue":"carpenter"}},"mesh":6,"name":"carpenter#0_n1$lod2","scale":[4.834272384643555,1.81149423122406,3.688394069671631],"translation":[2.447854995727539,1.9005976915359497,-2.2586989402770996]},{"extras":{"hm":{"cell":"0_n1","cullAt":null,"interior":null,"lod":3,"max":[7.285,3.717,1.431],"min":[-2.388,0.088,-5.948],"prims":2,"tris":219,"venue":"carpenter"}},"mesh":7,"name":"carpenter#0_n1$lod3","scale":[4.8272294998168945,1.747904896736145,3.6102237701416016],"translation":[2.440812587738037,1.854145884513855,-2.1805291175842285]},{"extensions":{"MSFT_lod":{"ids":[9,10,11]}},"extras":{"MSFT_screencoverage":[0.37831,0.14187,0.05675,0.0],"hm":{"cell":"n1_0","cullAt":null,"interior":null,"lod":0,"max":[0.358,2.34,5.18],"min":[-4.773,0.1,3.293],"prims":1,"tris":1668,"venue":"carpenter"}},"mesh":8,"name":"carpenter#n1_0","scale":[2.565516471862793,1.119866967201233,0.9435733556747437],"translation":[-2.2075748443603516,1.2198668718338013,4.2368597984313965]},{"extras":{"hm":{"cell":"n1_0","cullAt":null,"interior":null,"lod":1,"max":[0.358,2.34,5.18],"min":[-4.773,0.1,3.293],"prims":1,"tris":815,"venue":"carpenter"}},"mesh":9,"name":"carpenter#n1_0$lod1","scale":[2.564181327819824,1.119866967201233,0.9416888952255249],"translation":[-2.2089099884033203,1.2198668718338013,4.234975337982178]},{"extras":{"hm":{"cell":"n1_0","cullAt":null,"interior":null,"lod":2,"max":[0.358,2.34,5.18],"min":[-4.773,0.1,3.293],"prims":1,"tris":235,"venue":"carpenter"}},"mesh":10,"name":"carpenter#n1_0$lod2","scale":[2.563502550125122,1.0967954397201538,0.9416888952255249],"translation":[-2.2095887660980225,1.1967953443527222,4.234975337982178]},{"extras":{"hm":{"cell":"n1_0","cullAt":null,"interior":null,"lod":3,"max":[0.358,2.34,5.18],"min":[-4.773,0.1,3.293],"prims":1,"tris":45,"venue":"carpenter"}},"mesh":11,"name":"carpenter#n1_0$lod3","scale":[2.450442314147949,0.7405250668525696,0.7998825311660767],"translation":[-2.313419818878174,0.8429141640663147,4.201630592346191]},{"extensions":{"MSFT_lod":{"ids":[13,14,15]}},"extras":{"MSFT_screencoverage":[1.0,0.40671,0.16269,0.0],"hm":{"cell":"n1_n1","cullAt":null,"interior":null,"lod":0,"max":[6.732,3.82,0.741],"min":[-7.811,0.0,-7.056],"prims":5,"tris":12868,"venue":"carpenter"}},"mesh":12,"name":"carpenter#n1_n1","scale":[7.27150821685791,1.909999966621399,3.8986012935638428],"translation":[-0.5393669605255127,1.909999966621399,-3.1571218967437744]},{"extras":{"hm":{"cell":"n1_n1","cullAt":null,"interior":null,"lod":1,"max":[6.732,3.82,0.741],"min":[-7.811,0.0,-7.056],"prims":3,"tris":6318,"venue":"carpenter"}},"mesh":13,"name":"carpenter#n1_n1$lod1","scale":[7.260776519775391,1.909999966621399,3.8982276916503906],"translation":[-0.5411984920501709,1.909999966621399,-3.157137393951416]},{"extras":{"hm":{"cell":"n1_n1","cullAt":null,"interior":null,"lod":2,"max":[6.732,3.82,0.741],"min":[-7.811,0.0,-7.056],"prims":2,"tris":1980,"venue":"carpenter"}},"mesh":14,"name":"carpenter#n1_n1$lod2","scale":[7.2595086097717285,1.8820455074310303,3.8975348472595215],"translation":[-0.5399303436279297,1.9329545497894287,-3.1573963165283203]},{"extras":{"hm":{"cell":"n1_n1","cullAt":null,"interior":null,"lod":3,"max":[6.732,3.82,0.741],"min":[-7.811,0.0,-7.056],"prims":2,"tris":345,"venue":"carpenter"}},"mesh":15,"name":"carpenter#n1_n1$lod3","scale":[7.25709342956543,1.8294063806533813,3.7299416065216064],"translation":[-0.5375149250030518,1.8803154230117798,-3.3246705532073975]}],"samplers":[{"magFilter":9729,"minFilter":9987,"wrapS":10497,"wrapT":10497}],"scene":0,"scenes":[{"nodes":[0,4,8,12]}],"textures":[{"sampler":0,"source":0},{"sampler":0,"source":1},{"sampler":0,"source":2},{"sampler":0,"source":3},{"sampler":0,"source":4},{"sampler":0,"source":5},{"sampler":0,"source":6},{"sampler":0,"source":7},{"sampler":0,"source":8},{"sampler":0,"source":9},{"sampler":0,"source":10},{"sampler":0,"source":11},{"sampler":0,"source":12},{"sampler":0,"source":13},{"sampler":0,"source":14},{"sampler":0,"source":15},{"sampler":0,"source":16},{"sampler":0,"source":17},{"sampler":0,"source":18},{"sampler":0,"source":19},{"sampler":0,"source":20},{"sampler":0,"source":21},{"sampler":0,"source":22},{"sampler":0,"source":23},{"sampler":0,"source":24},{"sampler":0,"source":25},{"sampler":0,"source":26},{"sampler":0,"source":27},{"sampler":0,"source":28},{"sampler":0,"source":29},{"sampler":0,"source":30},{"sampler":0,"source":31},{"sampler":0,"source":32},{"sampler":0,"source":33},{"sampler":0,"source":34},{"sampler":0,"source":35},{"sampler":0,"source":36},{"sampler":0,"source":37},{"sampler":0,"source":38},{"sampler":0,"source":39},{"sampler":0,"source":40},{"sampler":0,"source":41},{"sampler":0,"source":42},{"sampler":0,"source":43},{"sampler":0,"source":44}]}