{"accessors":[{"bufferView":0,"componentType":5122,"count":2688,"max":[20071.0,-31052.0,15975.0],"min":[7863.0,-31295.0,13784.0],"normalized":true,"type":"VEC3"},{"bufferView":1,"componentType":5120,"count":2688,"normalized":true,"type":"VEC3"},{"bufferView":2,"componentType":5123,"count":3696,"type":"SCALAR"},{"bufferView":3,"componentType":5122,"count":96,"max":[32767.0,-32074.0,32767.0],"min":[-32767.0,-32767.0,-32767.0],"normalized":true,"type":"VEC3"},{"bufferView":4,"componentType":5120,"count":96,"normalized":true,"type":"VEC3"},{"bufferView":5,"componentType":5123,"count":132,"type":"SCALAR"},{"bufferView":6,"componentType":5122,"count":272,"max":[21994.0,-23761.0,22988.0],"min":[14846.0,-27225.0,15244.0],"normalized":true,"type":"VEC3"},{"bufferView":7,"componentType":5120,"count":272,"normalized":true,"type":"VEC3"},{"bufferView":8,"componentType":5123,"count":426,"type":"SCALAR"},{"bufferView":9,"componentType":5122,"count":8440,"max":[25443.0,-15418.0,25209.0],"min":[-4163.0,-32179.0,-5210.0],"normalized":true,"type":"VEC3"},{"bufferView":10,"componentType":5120,"count":8440,"normalized":true,"type":"VEC3"},{"bufferView":11,"componentType":5123,"count":13026,"type":"SCALAR"},{"bufferView":12,"componentType":5122,"count":24,"max":[26045.0,-7828.0,26959.0],"min":[2768.0,-17873.0,11596.0],"normalized":true,"type":"VEC3"},{"bufferView":13,"componentType":5120,"count":24,"normalized":true,"type":"VEC3"},{"bufferView":14,"componentType":5123,"count":36,"type":"SCALAR"},{"bufferView":15,"componentType":5122,"count":3312,"max":[24148.0,-13405.0,28435.0],"min":[-1527.0,-32005.0,3633.0],"normalized":true,"type":"VEC3"},{"bufferView":16,"componentType":5120,"count":3312,"normalized":true,"type":"VEC3"},{"bufferView":17,"componentType":5123,"count":5412,"type":"SCALAR"},{"bufferView":18,"componentType":5122,"count":2624,"max":[23547.0,-13405.0,30494.0],"min":[5590.0,-32005.0,-12202.0],"normalized":true,"type":"VEC3"},{"bufferView":19,"componentType":5120,"count":2624,"normalized":true,"type":"VEC3"},{"bufferView":20,"componentType":5123,"count":4056,"type":"SCALAR"},{"bufferView":21,"componentType":5122,"count":432,"max":[23845.0,29996.0,27516.0],"min":[3797.0,-32074.0,13238.0],"normalized":true,"type":"VEC3"},{"bufferView":22,"componentType":5120,"count":432,"normalized":true,"type":"VEC3"},{"bufferView":23,"componentType":5123,"count":672,"type":"SCALAR"},{"bufferView":24,"componentType":5122,"count":112,"max":[21678.0,-24523.0,22638.0],"min":[5929.0,-24593.0,15594.0],"normalized":true,"type":"VEC3"},{"bufferView":25,"componentType":5120,"count":112,"normalized":true,"type":"VEC3"},{"bufferView":26,"componentType":5123,"count":168,"type":"SCALAR"},{"bufferView":27,"componentType":5122,"count":156,"max":[14834.0,32767.0,24581.0],"min":[13083.0,29996.0,22684.0],"normalized":true,"type":"VEC3"},{"bufferView":28,"componentType":5120,"count":156,"normalized":true,"type":"VEC3"},{"bufferView":29,"componentType":5123,"count":246,"type":"SCALAR"},{"bufferView":30,"componentType":5122,"count":192,"max":[20432.0,-29234.0,16161.0],"min":[7440.0,-31589.0,13028.0],"normalized":true,"type":"VEC3"},{"bufferView":31,"componentType":5120,"count":192,"normalized":true,"type":"VEC3"},{"bufferView":32,"componentType":5123,"count":264,"type":"SCALAR"},{"bufferView":33,"componentType":5122,"count":2190,"max":[32767.0,32767.0,32767.0],"min":[-32767.0,-32767.0,-32767.0],"normalized":true,"type":"VEC3"},{"bufferView":34,"componentType":5120,"count":2190,"normalized":true,"type":"VEC3"},{"bufferView":35,"componentType":5123,"count":2190,"type":"SCALAR"},{"bufferView":36,"componentType":5122,"count":5781,"max":[25494.0,-15595.0,25258.0],"min":[-4162.0,-32408.0,-5221.0],"normalized":true,"type":"VEC3"},{"bufferView":37,"componentType":5120,"count":5781,"normalized":true,"type":"VEC3"},{"bufferView":38,"componentType":5123,"count":5781,"type":"SCALAR"},{"bufferView":39,"componentType":5122,"count":24,"max":[26098.0,-7972.0,27018.0],"min":[2774.0,-18052.0,11622.0],"normalized":true,"type":"VEC3"},{"bufferView":40,"componentType":5120,"count":24,"normalized":true,"type":"VEC3"},{"bufferView":41,"componentType":5123,"count":24,"type":"SCALAR"},{"bufferView":42,"componentType":5122,"count":2361,"max":[24194.0,-13568.0,28497.0],"min":[-1528.0,-32234.0,3645.0],"normalized":true,"type":"VEC3"},{"bufferView":43,"componentType":5120,"count":2361,"normalized":true,"type":"VEC3"},{"bufferView":44,"componentType":5123,"count":2361,"type":"SCALAR"},{"bufferView":45,"componentType":5122,"count":1797,"max":[23595.0,-13568.0,30550.0],"min":[5616.0,-32234.0,-12225.0],"normalized":true,"type":"VEC3"},{"bufferView":46,"componentType":5120,"count":1797,"normalized":true,"type":"VEC3"},{"bufferView":47,"componentType":5123,"count":1797,"type":"SCALAR"},{"bufferView":48,"componentType":5122,"count":330,"max":[23893.0,29430.0,27248.0],"min":[3805.0,-32304.0,13267.0],"normalized":true,"type":"VEC3"},{"bufferView":49,"componentType":5120,"count":330,"normalized":true,"type":"VEC3"},{"bufferView":50,"componentType":5123,"count":330,"type":"SCALAR"},{"bufferView":51,"componentType":5122,"count":3174,"max":[32767.0,32767.0,32767.0],"min":[-32767.0,-32767.0,-32767.0],"normalized":true,"type":"VEC3"},{"bufferView":52,"componentType":5120,"count":3174,"normalized":true,"type":"VEC3"},{"bufferView":53,"componentType":5123,"count":3174,"type":"SCALAR"},{"bufferView":54,"componentType":5122,"count":507,"max":[23600.0,-13606.0,30515.0],"min":[5621.0,-32264.0,-12236.0],"normalized":true,"type":"VEC3"},{"bufferView":55,"componentType":5120,"count":507,"normalized":true,"type":"VEC3"},{"bufferView":56,"componentType":5123,"count":507,"type":"SCALAR"},{"bufferView":57,"componentType":5122,"count":99,"max":[23165.0,29428.0,27281.0],"min":[4115.0,-32338.0,14099.0],"normalized":true,"type":"VEC3"},{"bufferView":58,"componentType":5120,"count":99,"normalized":true,"type":"VEC3"},{"bufferView":59,"componentType":5123,"count":99,"type":"SCALAR"},{"bufferView":60,"componentType":5122,"count":609,"max":[32767.0,32767.0,32767.0],"min":[-32767.0,-32767.0,-32767.0],"normalized":true,"type":"VEC3"},{"bufferView":61,"componentType":5120,"count":609,"normalized":true,"type":"VEC3"},{"bufferView":62,"componentType":5123,"count":609,"type":"SCALAR"},{"bufferView":63,"componentType":5122,"count":90,"max":[23631.0,-13745.0,30568.0],"min":[6364.0,-32450.0,-11215.0],"normalized":true,"type":"VEC3"},{"bufferView":64,"componentType":5120,"count":90,"normalized":true,"type":"VEC3"},{"bufferView":65,"componentType":5123,"count":90,"type":"SCALAR"},{"bufferView":66,"componentType":5122,"count":96,"max":[32767.0,-31429.0,-15593.0],"min":[-32767.0,-32767.0,-24267.0],"normalized":true,"type":"VEC3"},{"bufferView":67,"componentType":5120,"count":96,"normalized":true,"type":"VEC3"},{"bufferView":68,"componentType":5123,"count":132,"type":"SCALAR"},{"bufferView":69,"componentType":5122,"count":2520,"max":[27501.0,-29484.0,-7143.0],"min":[24753.0,-31732.0,-12579.0],"normalized":true,"type":"VEC3"},{"bufferView":70,"componentType":5120,"count":2520,"normalized":true,"type":"VEC3"},{"bufferView":71,"componentType":5123,"count":3960,"type":"SCALAR"},{"bufferView":72,"componentType":5122,"count":144,"max":[10303.0,1500.0,-18663.0],"min":[5847.0,-7349.0,-20063.0],"normalized":true,"type":"VEC3"},{"bufferView":73,"componentType":5120,"count":144,"normalized":true,"type":"VEC3"},{"bufferView":74,"componentType":5123,"count":204,"type":"SCALAR"},{"bufferView":75,"componentType":5122,"count":10404,"max":[29344.0,8910.0,15457.0],"min":[-2391.0,-31807.0,-24221.0],"normalized":true,"type":"VEC3"},{"bufferView":76,"componentType":5120,"count":10404,"normalized":true,"type":"VEC3"},{"bufferView":77,"componentType":5123,"count":15228,"type":"SCALAR"},{"bufferView":78,"componentType":5122,"count":1568,"max":[27682.0,-31594.0,32767.0],"min":[9394.0,-31635.0,-32767.0],"normalized":true,"type":"VEC3"},{"bufferView":79,"componentType":5120,"count":1568,"normalized":true,"type":"VEC3"},{"bufferView":80,"componentType":5123,"count":2604,"type":"SCALAR"},{"bufferView":81,"componentType":5122,"count":114,"max":[13312.0,32767.0,11113.0],"min":[6193.0,-27828.0,-20932.0],"normalized":true,"type":"VEC3"},{"bufferView":82,"componentType":5120,"count":114,"normalized":true,"type":"VEC3"},{"bufferView":83,"componentType":5123,"count":156,"type":"SCALAR"},{"bufferView":84,"componentType":5122,"count":96,"max":[9179.0,-6012.0,-17546.0],"min":[5481.0,-21242.0,-18684.0],"normalized":true,"type":"VEC3"},{"bufferView":85,"componentType":5120,"count":96,"normalized":true,"type":"VEC3"},{"bufferView":86,"componentType":5123,"count":132,"type":"SCALAR"},{"bufferView":87,"componentType":5122,"count":192,"max":[11201.0,-7935.0,-17831.0],"min":[-1965.0,-27828.0,-21602.0],"normalized":true,"type":"VEC3"},{"bufferView":88,"componentType":5120,"count":192,"normalized":true,"type":"VEC3"},{"bufferView":89,"componentType":5123,"count":264,"type":"SCALAR"},{"bufferView":90,"componentType":5122,"count":60,"max":[32767.0,-31633.0,-15595.0],"min":[-32767.0,-32767.0,-24189.0],"normalized":true,"type":"VEC3"},{"bufferView":91,"componentType":5120,"count":60,"normalized":true,"type":"VEC3"},{"bufferView":92,"componentType":5123,"count":60,"type":"SCALAR"},{"bufferView":93,"componentType":5122,"count":8874,"max":[29390.0,8872.0,15439.0],"min":[-2347.0,-31896.0,-24210.0],"normalized":true,"type":"VEC3"},{"bufferView":94,"componentType":5120,"count":8874,"normalized":true,"type":"VEC3"},{"bufferView":95,"componentType":5123,"count":8874,"type":"SCALAR"},{"bufferView":96,"componentType":5122,"count":1221,"max":[27746.0,-31695.0,32767.0],"min":[9425.0,-31736.0,-32767.0],"normalized":true,"type":"VEC3"},{"bufferView":97,"componentType":5120,"count":1221,"normalized":true,"type":"VEC3"},{"bufferView":98,"componentType":5123,"count":1221,"type":"SCALAR"},{"bufferView":99,"componentType":5122,"count":72,"max":[13348.0,32767.0,11112.0],"min":[6260.0,-27846.0,-20934.0],"normalized":true,"type":"VEC3"},{"bufferView":100,"componentType":5120,"count":72,"normalized":true,"type":"VEC3"},{"bufferView":101,"componentType":5123,"count":72,"type":"SCALAR"},{"bufferView":102,"componentType":5122,"count":2730,"max":[29390.0,8766.0,15443.0],"min":[-2347.0,-32112.0,-24148.0],"normalized":true,"type":"VEC3"},{"bufferView":103,"componentType":5120,"count":2730,"normalized":true,"type":"VEC3"},{"bufferView":104,"componentType":5123,"count":2730,"type":"SCALAR"},{"bufferView":105,"componentType":5122,"count":381,"max":[32767.0,-31919.0,32767.0],"min":[-32767.0,-32767.0,-32767.0],"normalized":true,"type":"VEC3"},{"bufferView":106,"componentType":5120,"count":381,"normalized":true,"type":"VEC3"},{"bufferView":107,"componentType":5123,"count":381,"type":"SCALAR"},{"bufferView":108,"componentType":5122,"count":24,"max":[13348.0,32767.0,11049.0],"min":[6485.0,-28087.0,-20936.0],"normalized":true,"type":"VEC3"},{"bufferView":109,"componentType":5120,"count":24,"normalized":true,"type":"VEC3"},{"bufferView":110,"componentType":5123,"count":24,"type":"SCALAR"},{"bufferView":111,"componentType":5122,"count":72,"max":[23221.0,-32655.0,32767.0],"min":[-4823.0,-32666.0,-32767.0],"normalized":true,"type":"VEC3"},{"bufferView":112,"componentType":5120,"count":72,"normalized":true,"type":"VEC3"},{"bufferView":113,"componentType":5123,"count":72,"type":"SCALAR"},{"bufferView":114,"componentType":5122,"count":549,"max":[32767.0,32767.0,15729.0],"min":[-32767.0,-32767.0,-23446.0],"normalized":true,"type":"VEC3"},{"bufferView":115,"componentType":5120,"count":549,"normalized":true,"type":"VEC3"},{"bufferView":116,"componentType":5123,"count":549,"type":"SCALAR"},{"bufferView":117,"componentType":5122,"count":864,"max":[-12369.0,-32088.0,-1974.0],"min":[-14612.0,-32767.0,-8302.0],"normalized":true,"type":"VEC3"},{"bufferView":118,"componentType":5120,"count":864,"normalized":true,"type":"VEC3"},{"bufferView":119,"componentType":5123,"count":1188,"type":"SCALAR"},{"bufferView":120,"componentType":5122,"count":25788,"max":[32767.0,32750.0,32767.0],"min":[-32767.0,-32688.0,-32767.0],"normalized":true,"type":"VEC3"},{"bufferView":121,"componentType":5120,"count":25788,"normalized":true,"type":"VEC3"},{"bufferView":122,"componentType":5123,"count":38658,"type":"SCALAR"},{"bufferView":123,"componentType":5122,"count":576,"max":[29162.0,10026.0,27651.0],"min":[-29162.0,-19514.0,-27651.0],"normalized":true,"type":"VEC3"},{"bufferView":124,"componentType":5120,"count":576,"normalized":true,"type":"VEC3"},{"bufferView":125,"componentType":5123,"count":792,"type":"SCALAR"},{"bufferView":126,"componentType":5122,"count":960,"max":[1252.0,-1859.0,21807.0],"min":[-19545.0,-30999.0,17969.0],"normalized":true,"type":"VEC3"},{"bufferView":127,"componentType":5120,"count":960,"normalized":true,"type":"VEC3"},{"bufferView":128,"componentType":5123,"count":1320,"type":"SCALAR"},{"bufferView":129,"componentType":5122,"count":56,"max":[2650.0,-22600.0,11828.0],"min":[-2383.0,-22600.0,3683.0],"normalized":true,"type":"VEC3"},{"bufferView":130,"componentType":5120,"count":56,"normalized":true,"type":"VEC3"},{"bufferView":131,"componentType":5123,"count":84,"type":"SCALAR"},{"bufferView":132,"componentType":5122,"count":3936,"max":[32283.0,32767.0,32462.0],"min":[-32287.0,10438.0,-32463.0],"normalized":true,"type":"VEC3"},{"bufferView":133,"componentType":5120,"count":3936,"normalized":true,"type":"VEC3"},{"bufferView":134,"componentType":5121,"count":3936,"normalized":true,"type":"VEC4"},{"bufferView":135,"componentType":5123,"count":5412,"type":"SCALAR"},{"bufferView":136,"componentType":5122,"count":16527,"max":[32767.0,32741.0,32767.0],"min":[-32767.0,-32664.0,-32767.0],"normalized":true,"type":"VEC3"},{"bufferView":137,"componentType":5120,"count":16527,"normalized":true,"type":"VEC3"},{"bufferView":138,"componentType":5123,"count":16527,"type":"SCALAR"},{"bufferView":139,"componentType":5122,"count":372,"max":[29130.0,10026.0,27664.0],"min":[-29130.0,-19480.0,-27664.0],"normalized":true,"type":"VEC3"},{"bufferView":140,"componentType":5120,"count":372,"normalized":true,"type":"VEC3"},{"bufferView":141,"componentType":5123,"count":372,"type":"SCALAR"},{"bufferView":142,"componentType":5122,"count":612,"max":[1237.0,-1859.0,21797.0],"min":[-19529.0,-30999.0,18003.0],"normalized":true,"type":"VEC3"},{"bufferView":143,"componentType":5120,"count":612,"normalized":true,"type":"VEC3"},{"bufferView":144,"componentType":5123,"count":612,"type":"SCALAR"},{"bufferView":145,"componentType":5122,"count":3084,"max":[32244.0,32767.0,32444.0],"min":[-32248.0,-32767.0,-32465.0],"normalized":true,"type":"VEC3"},{"bufferView":146,"componentType":5120,"count":3084,"normalized":true,"type":"VEC3"},{"bufferView":147,"componentType":5121,"count":3084,"normalized":true,"type":"VEC4"},{"bufferView":148,"componentType":5123,"count":3084,"type":"SCALAR"},{"bufferView":149,"componentType":5122,"count":5472,"max":[32751.0,32725.0,32767.0],"min":[-32753.0,-32767.0,-32767.0],"normalized":true,"type":"VEC3"},{"bufferView":150,"componentType":5120,"count":5472,"normalized":true,"type":"VEC3"},{"bufferView":151,"componentType":5123,"count":5472,"type":"SCALAR"},{"bufferView":152,"componentType":5122,"count":888,"max":[32767.0,32767.0,32286.0],"min":[-32767.0,-32641.0,-32441.0],"normalized":true,"type":"VEC3"},{"bufferView":153,"componentType":5120,"count":888,"normalized":true,"type":"VEC3"},{"bufferView":154,"componentType":5121,"count":888,"normalized":true,"type":"VEC4"},{"bufferView":155,"componentType":5123,"count":888,"type":"SCALAR"},{"bufferView":156,"componentType":5122,"count":1029,"max":[32767.0,32767.0,32767.0],"min":[-32767.0,-32767.0,-32767.0],"normalized":true,"type":"VEC3"},{"bufferView":157,"componentType":5120,"count":1029,"normalized":true,"type":"VEC3"},{"bufferView":158,"componentType":5123,"count":1029,"type":"SCALAR"},{"bufferView":159,"componentType":5122,"count":171,"max":[32677.0,32528.0,31822.0],"min":[-32707.0,-22553.0,-32738.0],"normalized":true,"type":"VEC3"},{"bufferView":160,"componentType":5120,"count":171,"normalized":true,"type":"VEC3"},{"bufferView":161,"componentType":5121,"count":171,"normalized":true,"type":"VEC4"},{"bufferView":162,"componentType":5123,"count":171,"type":"SCALAR"},{"bufferView":163,"componentType":5122,"count":20444,"max":[32767.0,32659.0,32767.0],"min":[-31987.0,-32767.0,-32767.0],"normalized":true,"type":"VEC3"},{"bufferView":164,"componentType":5120,"count":20444,"normalized":true,"type":"VEC3"},{"bufferView":165,"componentType":5123,"count":30894,"type":"SCALAR"},{"bufferView":166,"componentType":5122,"count":882,"max":[27973.0,31738.0,26630.0],"min":[-32767.0,-28857.0,-29526.0],"normalized":true,"type":"VEC3"},{"bufferView":167,"componentType":5120,"count":882,"normalized":true,"type":"VEC3"},{"bufferView":168,"componentType":5123,"count":1212,"type":"SCALAR"},{"bufferView":169,"componentType":5122,"count":96,"max":[28831.0,-28857.0,27149.0],"min":[-28051.0,-32767.0,-24465.0],"normalized":true,"type":"VEC3"},{"bufferView":170,"componentType":5120,"count":96,"normalized":true,"type":"VEC3"},{"bufferView":171,"componentType":5123,"count":132,"type":"SCALAR"},{"bufferView":172,"componentType":5122,"count":4128,"max":[32699.0,32767.0,32357.0],"min":[-31926.0,7905.0,-29673.0],"normalized":true,"type":"VEC3"},{"bufferView":173,"componentType":5120,"count":4128,"normalized":true,"type":"VEC3"},{"bufferView":174,"componentType":5121,"count":4128,"normalized":true,"type":"VEC4"},{"bufferView":175,"componentType":5123,"count":5676,"type":"SCALAR"},{"bufferView":176,"componentType":5122,"count":168,"max":[-20196.0,-26636.0,-17879.0],"min":[-24002.0,-32767.0,-21895.0],"normalized":true,"type":"VEC3"},{"bufferView":177,"componentType":5120,"count":168,"normalized":true,"type":"VEC3"},{"bufferView":178,"componentType":5123,"count":276,"type":"SCALAR"},{"bufferView":179,"componentType":5122,"count":13647,"max":[32767.0,32659.0,32767.0],"min":[-31986.0,-32741.0,-32767.0],"normalized":true,"type":"VEC3"},{"bufferView":180,"componentType":5120,"count":13647,"normalized":true,"type":"VEC3"},{"bufferView":181,"componentType":5123,"count":13647,"type":"SCALAR"},{"bufferView":182,"componentType":5122,"count":516,"max":[27923.0,31738.0,26528.0],"min":[-32767.0,-28779.0,-29556.0],"normalized":true,"type":"VEC3"},{"bufferView":183,"componentType":5120,"count":516,"normalized":true,"type":"VEC3"},{"bufferView":184,"componentType":5123,"count":516,"type":"SCALAR"},{"bufferView":185,"componentType":5122,"count":60,"max":[28756.0,-28985.0,26981.0],"min":[-27945.0,-32638.0,-24325.0],"normalized":true,"type":"VEC3"},{"bufferView":186,"componentType":5120,"count":60,"normalized":true,"type":"VEC3"},{"bufferView":187,"componentType":5123,"count":60,"type":"SCALAR"},{"bufferView":188,"componentType":5122,"count":2685,"max":[32709.0,32767.0,32334.0],"min":[-31915.0,-32767.0,-29622.0],"normalized":true,"type":"VEC3"},{"bufferView":189,"componentType":5120,"count":2685,"normalized":true,"type":"VEC3"},{"bufferView":190,"componentType":5121,"count":2685,"normalized":true,"type":"VEC4"},{"bufferView":191,"componentType":5123,"count":2685,"type":"SCALAR"},{"bufferView":192,"componentType":5122,"count":3864,"max":[32762.0,32767.0,32767.0],"min":[-31849.0,-32767.0,-32767.0],"normalized":true,"type":"VEC3"},{"bufferView":193,"componentType":5120,"count":3864,"normalized":true,"type":"VEC3"},{"bufferView":194,"componentType":5123,"count":3864,"type":"SCALAR"},{"bufferView":195,"componentType":5122,"count":147,"max":[28022.0,31858.0,25914.0],"min":[-32767.0,-28779.0,-29454.0],"normalized":true,"type":"VEC3"},{"bufferView":196,"componentType":5120,"count":147,"normalized":true,"type":"VEC3"},{"bufferView":197,"componentType":5123,"count":147,"type":"SCALAR"},{"bufferView":198,"componentType":5122,"count":798,"max":[32767.0,32378.0,32105.0],"min":[-31867.0,-32637.0,-29182.0],"normalized":true,"type":"VEC3"},{"bufferView":199,"componentType":5120,"count":798,"normalized":true,"type":"VEC3"},{"bufferView":200,"componentType":5121,"count":798,"normalized":true,"type":"VEC4"},{"bufferView":201,"componentType":5123,"count":798,"type":"SCALAR"},{"bufferView":202,"componentType":5122,"count":36,"max":[27936.0,11981.0,26318.0],"min":[-30491.0,-30936.0,-25557.0],"normalized":true,"type":"VEC3"},{"bufferView":203,"componentType":5120,"count":36,"normalized":true,"type":"VEC3"},{"bufferView":204,"componentType":5123,"count":36,"type":"SCALAR"},{"bufferView":205,"componentType":5122,"count":882,"max":[32767.0,32767.0,32767.0],"min":[-32767.0,-32767.0,-32767.0],"normalized":true,"type":"VEC3"},{"bufferView":206,"componentType":5120,"count":882,"normalized":true,"type":"VEC3"},{"bufferView":207,"componentType":5121,"count":882,"normalized":true,"type":"VEC4"},{"bufferView":208,"componentType":5123,"count":882,"type":"SCALAR"},{"bufferView":209,"componentType":5122,"count":2688,"normalized":true,"type":"VEC2"},{"bufferView":210,"componentType":5122,"count":96,"normalized":true,"type":"VEC2"},{"bufferView":211,"componentType":5122,"count":272,"normalized":true,"type":"VEC2"},{"bufferView":212,"componentType":5122,"count":8440,"normalized":true,"type":"VEC2"},{"bufferView":213,"componentType":5122,"count":24,"normalized":true,"type":"VEC2"},{"bufferView":214,"componentType":5122,"count":3312,"normalized":true,"type":"VEC2"},{"bufferView":215,"componentType":5122,"count":2624,"normalized":true,"type":"VEC2"},{"bufferView":216,"componentType":5122,"count":432,"normalized":true,"type":"VEC2"},{"bufferView":217,"componentType":5122,"count":112,"normalized":true,"type":"VEC2"},{"bufferView":218,"componentType":5122,"count":156,"normalized":true,"type":"VEC2"},{"bufferView":219,"componentType":5122,"count":192,"normalized":true,"type":"VEC2"},{"bufferView":220,"componentType":5122,"count":2190,"normalized":true,"type":"VEC2"},{"bufferView":221,"componentType":5122,"count":5781,"normalized":true,"type":"VEC2"},{"bufferView":222,"componentType":5122,"count":24,"normalized":true,"type":"VEC2"},{"bufferView":223,"componentType":5122,"count":2361,"normalized":true,"type":"VEC2"},{"bufferView":224,"componentType":5122,"count":1797,"normalized":true,"type":"VEC2"},{"bufferView":225,"componentType":5122,"count":330,"normalized":true,"type":"VEC2"},{"bufferView":226,"componentType":5122,"count":3174,"normalized":true,"type":"VEC2"},{"bufferView":227,"componentType":5122,"count":507,"normalized":true,"type":"VEC2"},{"bufferView":228,"componentType":5122,"count":99,"normalized":true,"type":"VEC2"},{"bufferView":229,"componentType":5122,"count":609,"normalized":true,"type":"VEC2"},{"bufferView":230,"componentType":5122,"count":90,"normalized":true,"type":"VEC2"},{"bufferView":231,"componentType":5122,"count":96,"normalized":true,"type":"VEC2"},{"bufferView":232,"componentType":5122,"count":2520,"normalized":true,"type":"VEC2"},{"bufferView":233,"componentType":5122,"count":144,"normalized":true,"type":"VEC2"},{"bufferView":234,"componentType":5122,"count":10404,"normalized":true,"type":"VEC2"},{"bufferView":235,"componentType":5122,"count":1568,"normalized":true,"type":"VEC2"},{"bufferView":236,"componentType":5122,"count":114,"normalized":true,"type":"VEC2"},{"bufferView":237,"componentType":5122,"count":96,"normalized":true,"type":"VEC2"},{"bufferView":238,"componentType":5122,"count":192,"normalized":true,"type":"VEC2"},{"bufferView":239,"componentType":5122,"count":60,"normalized":true,"type":"VEC2"},{"bufferView":240,"componentType":5122,"count":8874,"normalized":true,"type":"VEC2"},{"bufferView":241,"componentType":5122,"count":1221,"normalized":true,"type":"VEC2"},{"bufferView":242,"componentType":5122,"count":72,"normalized":true,"type":"VEC2"},{"bufferView":243,"componentType":5122,"count":2730,"normalized":true,"type":"VEC2"},{"bufferView":244,"componentType":5122,"count":381,"normalized":true,"type":"VEC2"},{"bufferView":245,"componentType":5122,"count":24,"normalized":true,"type":"VEC2"},{"bufferView":246,"componentType":5122,"count":72,"normalized":true,"type":"VEC2"},{"bufferView":247,"componentType":5122,"count":549,"normalized":true,"type":"VEC2"},{"bufferView":248,"componentType":5122,"count":864,"normalized":true,"type":"VEC2"},{"bufferView":249,"componentType":5122,"count":25788,"normalized":true,"type":"VEC2"},{"bufferView":250,"componentType":5122,"count":576,"normalized":true,"type":"VEC2"},{"bufferView":251,"componentType":5122,"count":960,"normalized":true,"type":"VEC2"},{"bufferView":252,"componentType":5122,"count":56,"normalized":true,"type":"VEC2"},{"bufferView":253,"componentType":5122,"count":3936,"normalized":true,"type":"VEC2"},{"bufferView":254,"componentType":5122,"count":16527,"normalized":true,"type":"VEC2"},{"bufferView":255,"componentType":5122,"count":372,"normalized":true,"type":"VEC2"},{"bufferView":256,"componentType":5122,"count":612,"normalized":true,"type":"VEC2"},{"bufferView":257,"componentType":5122,"count":3084,"normalized":true,"type":"VEC2"},{"bufferView":258,"componentType":5122,"count":5472,"normalized":true,"type":"VEC2"},{"bufferView":259,"componentType":5122,"count":888,"normalized":true,"type":"VEC2"},{"bufferView":260,"componentType":5122,"count":1029,"normalized":true,"type":"VEC2"},{"bufferView":261,"componentType":5122,"count":171,"normalized":true,"type":"VEC2"},{"bufferView":262,"componentType":5122,"count":20444,"normalized":true,"type":"VEC2"},{"bufferView":263,"componentType":5122,"count":882,"normalized":true,"type":"VEC2"},{"bufferView":264,"componentType":5122,"count":96,"normalized":true,"type":"VEC2"},{"bufferView":265,"componentType":5122,"count":4128,"normalized":true,"type":"VEC2"},{"bufferView":266,"componentType":5122,"count":168,"normalized":true,"type":"VEC2"},{"bufferView":267,"componentType":5122,"count":13647,"normalized":true,"type":"VEC2"},{"bufferView":268,"componentType":5122,"count":516,"normalized":true,"type":"VEC2"},{"bufferView":269,"componentType":5122,"count":60,"normalized":true,"type":"VEC2"},{"bufferView":270,"componentType":5122,"count":2685,"normalized":true,"type":"VEC2"},{"bufferView":271,"componentType":5122,"count":3864,"normalized":true,"type":"VEC2"},{"bufferView":272,"componentType":5122,"count":147,"normalized":true,"type":"VEC2"},{"bufferView":273,"componentType":5122,"count":798,"normalized":true,"type":"VEC2"},{"bufferView":274,"componentType":5122,"count":36,"normalized":true,"type":"VEC2"},{"bufferView":275,"componentType":5122,"count":882,"normalized":true,"type":"VEC2"}],"asset":{"generator":"evermore assetgen","version":"2.0"},"bufferViews":[{"buffer":0,"byteLength":21504,"byteOffset":0,"byteStride":8,"target":34962},{"buffer":0,"byteLength":10752,"byteOffset":21504,"byteStride":4,"target":34962},{"buffer":0,"byteLength":7392,"byteOffset":32256,"target":34963},{"buffer":0,"byteLength":768,"byteOffset":39648,"byteStride":8,"target":34962},{"buffer":0,"byteLength":384,"byteOffset":40416,"byteStride":4,"target":34962},{"buffer":0,"byteLength":264,"byteOffset":40800,"target":34963},{"buffer":0,"byteLength":2176,"byteOffset":41064,"byteStride":8,"target":34962},{"buffer":0,"byteLength":1088,"byteOffset":43240,"byteStride":4,"target":34962},{"buffer":0,"byteLength":852,"byteOffset":44328,"target":34963},{"buffer":0,"byteLength":67520,"byteOffset":45180,"byteStride":8,"target":34962},{"buffer":0,"byteLength":33760,"byteOffset":112700,"byteStride":4,"target":34962},{"buffer":0,"byteLength":26052,"byteOffset":146460,"target":34963},{"buffer":0,"byteLength":192,"byteOffset":172512,"byteStride":8,"target":34962},{"buffer":0,"byteLength":96,"byteOffset":172704,"byteStride":4,"target":34962},{"buffer":0,"byteLength":72,"byteOffset":172800,"target":34963},{"buffer":0,"byteLength":26496,"byteOffset":172872,"byteStride":8,"target":34962},{"buffer":0,"byteLength":13248,"byteOffset":199368,"byteStride":4,"target":34962},{"buffer":0,"byteLength":10824,"byteOffset":212616,"target":34963},{"buffer":0,"byteLength":20992,"byteOffset":223440,"byteStride":8,"target":34962},{"buffer":0,"byteLength":10496,"byteOffset":244432,"byteStride":4,"target":34962},{"buffer":0,"byteLength":8112,"byteOffset":254928,"target":34963},{"buffer":0,"byteLength":3456,"byteOffset":263040,"byteStride":8,"target":34962},{"buffer":0,"byteLength":1728,"byteOffset":266496,"byteStride":4,"target":34962},{"buffer":0,"byteLength":1344,"byteOffset":268224,"target":34963},{"buffer":0,"byteLength":896,"byteOffset":269568,"byteStride":8,"target":34962},{"buffer":0,"byteLength":448,"byteOffset":270464,"byteStride":4,"target":34962},{"buffer":0,"byteLength":336,"byteOffset":270912,"target":34963},{"buffer":0,"byteLength":1248,"byteOffset":271248,"byteStride":8,"target":34962},{"buffer":0,"byteLength":624,"byteOffset":272496,"byteStride":4,"target":34962},{"buffer":0,"byteLength":492,"byteOffset":273120,"target":34963},{"buffer":0,"byteLength":1536,"byteOffset":273612,"byteStride":8,"target":34962},{"buffer":0,"byteLength":768,"byteOffset":275148,"byteStride":4,"target":34962},{"buffer":0,"byteLength":528,"byteOffset":275916,"target":34963},{"buffer":0,"byteLength":17520,"byteOffset":276444,"byteStride":8,"target":34962},{"buffer":0,"byteLength":8760,"byteOffset":293964,"byteStride":4,"target":34962},{"buffer":0,"byteLength":4380,"byteOffset":302724,"target":34963},{"buffer":0,"byteLength":46248,"byteOffset":307104,"byteStride":8,"target":34962},{"buffer":0,"byteLength":23124,"byteOffset":353352,"byteStride":4,"target":34962},{"buffer":0,"byteLength":11562,"byteOffset":376476,"target":34963},{"buffer":0,"byteLength":192,"byteOffset":388040,"byteStride":8,"target":34962},{"buffer":0,"byteLength":96,"byteOffset":388232,"byteStride":4,"target":34962},{"buffer":0,"byteLength":48,"byteOffset":388328,"target":34963},{"buffer":0,"byteLength":18888,"byteOffset":388376,"byteStride":8,"target":34962},{"buffer":0,"byteLength":9444,"byteOffset":407264,"byteStride":4,"target":34962},{"buffer":0,"byteLength":4722,"byteOffset":416708,"target":34963},{"buffer":0,"byteLength":14376,"byteOffset":421432,"byteStride":8,"target":34962},{"buffer":0,"byteLength":7188,"byteOffset":435808,"byteStride":4,"target":34962},{"buffer":0,"byteLength":3594,"byteOffset":442996,"target":34963},{"buffer":0,"byteLength":2640,"byteOffset":446592,"byteStride":8,"target":34962},{"buffer":0,"byteLength":1320,"byteOffset":449232,"byteStride":4,"target":34962},{"buffer":0,"byteLength":660,"byteOffset":450552,"target":34963},{"buffer":0,"byteLength":25392,"byteOffset":451212,"byteStride":8,"target":34962},{"buffer":0,"byteLength":12696,"byteOffset":476604,"byteStride":4,"target":34962},{"buffer":0,"byteLength":6348,"byteOffset":489300,"target":34963},{"buffer":0,"byteLength":4056,"byteOffset":495648,"byteStride":8,"target":34962},{"buffer":0,"byteLength":2028,"byteOffset":499704,"byteStride":4,"target":34962},{"buffer":0,"byteLength":1014,"byteOffset":501732,"target":34963},{"buffer":0,"byteLength":792,"byteOffset":502748,"byteStride":8,"target":34962},{"buffer":0,"byteLength":396,"byteOffset":503540,"byteStride":4,"target":34962},{"buffer":0,"byteLength":198,"byteOffset":503936,"target":34963},{"buffer":0,"byteLength":4872,"byteOffset":504136,"byteStride":8,"target":34962},{"buffer":0,"byteLength":2436,"byteOffset":509008,"byteStride":4,"target":34962},{"buffer":0,"byteLength":1218,"byteOffset":511444,"target":34963},{"buffer":0,"byteLength":720,"byteOffset":512664,"byteStride":8,"target":34962},{"buffer":0,"byteLength":360,"byteOffset":513384,"byteStride":4,"target":34962},{"buffer":0,"byteLength":180,"byteOffset":513744,"target":34963},{"buffer":0,"byteLength":768,"byteOffset":513924,"byteStride":8,"target":34962},{"buffer":0,"byteLength":384,"byteOffset":514692,"byteStride":4,"target":34962},{"buffer":0,"byteLength":264,"byteOffset":515076,"target":34963},{"buffer":0,"byteLength":20160,"byteOffset":515340,"byteStride":8,"target":34962},{"buffer":0,"byteLength":10080,"byteOffset":535500,"byteStride":4,"target":34962},{"buffer":0,"byteLength":7920,"byteOffset":545580,"target":34963},{"buffer":0,"byteLength":1152,"byteOffset":553500,"byteStride":8,"target":34962},{"buffer":0,"byteLength":576,"byteOffset":554652,"byteStride":4,"target":34962},{"buffer":0,"byteLength":408,"byteOffset":555228,"target":34963},{"buffer":0,"byteLength":83232,"byteOffset":555636,"byteStride":8,"target":34962},{"buffer":0,"byteLength":41616,"byteOffset":638868,"byteStride":4,"target":34962},{"buffer":0,"byteLength":30456,"byteOffset":680484,"target":34963},{"buffer":0,"byteLength":12544,"byteOffset":710940,"byteStride":8,"target":34962},{"buffer":0,"byteLength":6272,"byteOffset":723484,"byteStride":4,"target":34962},{"buffer":0,"byteLength":5208,"byteOffset":729756,"target":34963},{"buffer":0,"byteLength":912,"byteOffset":734964,"byteStride":8,"target":34962},{"buffer":0,"byteLength":456,"byteOffset":735876,"byteStride":4,"target":34962},{"buffer":0,"byteLength":312,"byteOffset":736332,"target":34963},{"buffer":0,"byteLength":768,"byteOffset":736644,"byteStride":8,"target":34962},{"buffer":0,"byteLength":384,"byteOffset":737412,"byteStride":4,"target":34962},{"buffer":0,"byteLength":264,"byteOffset":737796,"target":34963},{"buffer":0,"byteLength":1536,"byteOffset":738060,"byteStride":8,"target":34962},{"buffer":0,"byteLength":768,"byteOffset":739596,"byteStride":4,"target":34962},{"buffer":0,"byteLength":528,"byteOffset":740364,"target":34963},{"buffer":0,"byteLength":480,"byteOffset":740892,"byteStride":8,"target":34962},{"buffer":0,"byteLength":240,"byteOffset":741372,"byteStride":4,"target":34962},{"buffer":0,"byteLength":120,"byteOffset":741612,"target":34963},{"buffer":0,"byteLength":70992,"byteOffset":741732,"byteStride":8,"target":34962},{"buffer":0,"byteLength":35496,"byteOffset":812724,"byteStride":4,"target":34962},{"buffer":0,"byteLength":17748,"byteOffset":848220,"target":34963},{"buffer":0,"byteLength":9768,"byteOffset":865968,"byteStride":8,"target":34962},{"buffer":0,"byteLength":4884,"byteOffset":875736,"byteStride":4,"target":34962},{"buffer":0,"byteLength":2442,"byteOffset":880620,"target":34963},{"buffer":0,"byteLength":576,"byteOffset":883064,"byteStride":8,"target":34962},{"buffer":0,"byteLength":288,"byteOffset":883640,"byteStride":4,"target":34962},{"buffer":0,"byteLength":144,"byteOffset":883928,"target":34963},{"buffer":0,"byteLength":21840,"byteOffset":884072,"byteStride":8,"target":34962},{"buffer":0,"byteLength":10920,"byteOffset":905912,"byteStride":4,"target":34962},{"buffer":0,"byteLength":5460,"byteOffset":916832,"target":34963},{"buffer":0,"byteLength":3048,"byteOffset":922292,"byteStride":8,"target":34962},{"buffer":0,"byteLength":1524,"byteOffset":925340,"byteStride":4,"target":34962},{"buffer":0,"byteLength":762,"byteOffset":926864,"target":34963},{"buffer":0,"byteLength":192,"byteOffset":927628,"byteStride":8,"target":34962},{"buffer":0,"byteLength":96,"byteOffset":927820,"byteStride":4,"target":34962},{"buffer":0,"byteLength":48,"byteOffset":927916,"target":34963},{"buffer":0,"byteLength":576,"byteOffset":927964,"byteStride":8,"target":34962},{"buffer":0,"byteLength":288,"byteOffset":928540,"byteStride":4,"target":34962},{"buffer":0,"byteLength":144,"byteOffset":928828,"target":34963},{"buffer":0,"byteLength":4392,"byteOffset":928972,"byteStride":8,"target":34962},{"buffer":0,"byteLength":2196,"byteOffset":933364,"byteStride":4,"target":34962},{"buffer":0,"byteLength":1098,"byteOffset":935560,"target":34963},{"buffer":0,"byteLength":6912,"byteOffset":936660,"byteStride":8,"target":34962},{"buffer":0,"byteLength":3456,"byteOffset":943572,"byteStride":4,"target":34962},{"buffer":0,"byteLength":2376,"byteOffset":947028,"target":34963},{"buffer":0,"byteLength":206304,"byteOffset":949404,"byteStride":8,"target":34962},{"buffer":0,"byteLength":103152,"byteOffset":1155708,"byteStride":4,"target":34962},{"buffer":0,"byteLength":77316,"byteOffset":1258860,"target":34963},{"buffer":0,"byteLength":4608,"byteOffset":1336176,"byteStride":8,"target":34962},{"buffer":0,"byteLength":2304,"byteOffset":1340784,"byteStride":4,"target":34962},{"buffer":0,"byteLength":1584,"byteOffset":1343088,"target":34963},{"buffer":0,"byteLength":7680,"byteOffset":1344672,"byteStride":8,"target":34962},{"buffer":0,"byteLength":3840,"byteOffset":1352352,"byteStride":4,"target":34962},{"buffer":0,"byteLength":2640,"byteOffset":1356192,"target":34963},{"buffer":0,"byteLength":448,"byteOffset":1358832,"byteStride":8,"target":34962},{"buffer":0,"byteLength":224,"byteOffset":1359280,"byteStride":4,"target":34962},{"buffer":0,"byteLength":168,"byteOffset":1359504,"target":34963},{"buffer":0,"byteLength":31488,"byteOffset":1359672,"byteStride":8,"target":34962},{"buffer":0,"byteLength":15744,"byteOffset":1391160,"byteStride":4,"target":34962},{"buffer":0,"byteLength":15744,"byteOffset":1406904,"byteStride":4,"target":34962},{"buffer":0,"byteLength":10824,"byteOffset":1422648,"target":34963},{"buffer":0,"byteLength":132216,"byteOffset":1433472,"byteStride":8,"target":34962},{"buffer":0,"byteLength":66108,"byteOffset":1565688,"byteStride":4,"target":34962},{"buffer":0,"byteLength":33054,"byteOffset":1631796,"target":34963},{"buffer":0,"byteLength":2976,"byteOffset":1664852,"byteStride":8,"target":34962},{"buffer":0,"byteLength":1488,"byteOffset":1667828,"byteStride":4,"target":34962},{"buffer":0,"byteLength":744,"byteOffset":1669316,"target":34963},{"buffer":0,"byteLength":4896,"byteOffset":1670060,"byteStride":8,"target":34962},{"buffer":0,"byteLength":2448,"byteOffset":1674956,"byteStride":4,"target":34962},{"buffer":0,"byteLength":1224,"byteOffset":1677404,"target":34963},{"buffer":0,"byteLength":24672,"byteOffset":1678628,"byteStride":8,"target":34962},{"buffer":0,"byteLength":12336,"byteOffset":1703300,"byteStride":4,"target":34962},{"buffer":0,"byteLength":12336,"byteOffset":1715636,"byteStride":4,"target":34962},{"buffer":0,"byteLength":6168,"byteOffset":1727972,"target":34963},{"buffer":0,"byteLength":43776,"byteOffset":1734140,"byteStride":8,"target":34962},{"buffer":0,"byteLength":21888,"byteOffset":1777916,"byteStride":4,"target":34962},{"buffer":0,"byteLength":10944,"byteOffset":1799804,"target":34963},{"buffer":0,"byteLength":7104,"byteOffset":1810748,"byteStride":8,"target":34962},{"buffer":0,"byteLength":3552,"byteOffset":1817852,"byteStride":4,"target":34962},{"buffer":0,"byteLength":3552,"byteOffset":1821404,"byteStride":4,"target":34962},{"buffer":0,"byteLength":1776,"byteOffset":1824956,"target":34963},{"buffer":0,"byteLength":8232,"byteOffset":1826732,"byteStride":8,"target":34962},{"buffer":0,"byteLength":4116,"byteOffset":1834964,"byteStride":4,"target":34962},{"buffer":0,"byteLength":2058,"byteOffset":1839080,"target":34963},{"buffer":0,"byteLength":1368,"byteOffset":1841140,"byteStride":8,"target":34962},{"buffer":0,"byteLength":684,"byteOffset":1842508,"byteStride":4,"target":34962},{"buffer":0,"byteLength":684,"byteOffset":1843192,"byteStride":4,"target":34962},{"buffer":0,"byteLength":342,"byteOffset":1843876,"target":34963},{"buffer":0,"byteLength":163552,"byteOffset":1844220,"byteStride":8,"target":34962},{"buffer":0,"byteLength":81776,"byteOffset":2007772,"byteStride":4,"target":34962},{"buffer":0,"byteLength":61788,"byteOffset":2089548,"target":34963},{"buffer":0,"byteLength":7056,"byteOffset":2151336,"byteStride":8,"target":34962},{"buffer":0,"byteLength":3528,"byteOffset":2158392,"byteStride":4,"target":34962},{"buffer":0,"byteLength":2424,"byteOffset":2161920,"target":34963},{"buffer":0,"byteLength":768,"byteOffset":2164344,"byteStride":8,"target":34962},{"buffer":0,"byteLength":384,"byteOffset":2165112,"byteStride":4,"target":34962},{"buffer":0,"byteLength":264,"byteOffset":2165496,"target":34963},{"buffer":0,"byteLength":33024,"byteOffset":2165760,"byteStride":8,"target":34962},{"buffer":0,"byteLength":16512,"byteOffset":2198784,"byteStride":4,"target":34962},{"buffer":0,"byteLength":16512,"byteOffset":2215296,"byteStride":4,"target":34962},{"buffer":0,"byteLength":11352,"byteOffset":2231808,"target":34963},{"buffer":0,"byteLength":1344,"byteOffset":2243160,"byteStride":8,"target":34962},{"buffer":0,"byteLength":672,"byteOffset":2244504,"byteStride":4,"target":34962},{"buffer":0,"byteLength":552,"byteOffset":2245176,"target":34963},{"buffer":0,"byteLength":109176,"byteOffset":2245728,"byteStride":8,"target":34962},{"buffer":0,"byteLength":54588,"byteOffset":2354904,"byteStride":4,"target":34962},{"buffer":0,"byteLength":27294,"byteOffset":2409492,"target":34963},{"buffer":0,"byteLength":4128,"byteOffset":2436788,"byteStride":8,"target":34962},{"buffer":0,"byteLength":2064,"byteOffset":2440916,"byteStride":4,"target":34962},{"buffer":0,"byteLength":1032,"byteOffset":2442980,"target":34963},{"buffer":0,"byteLength":480,"byteOffset":2444012,"byteStride":8,"target":34962},{"buffer":0,"byteLength":240,"byteOffset":2444492,"byteStride":4,"target":34962},{"buffer":0,"byteLength":120,"byteOffset":2444732,"target":34963},{"buffer":0,"byteLength":21480,"byteOffset":2444852,"byteStride":8,"target":34962},{"buffer":0,"byteLength":10740,"byteOffset":2466332,"byteStride":4,"target":34962},{"buffer":0,"byteLength":10740,"byteOffset":2477072,"byteStride":4,"target":34962},{"buffer":0,"byteLength":5370,"byteOffset":2487812,"target":34963},{"buffer":0,"byteLength":30912,"byteOffset":2493184,"byteStride":8,"target":34962},{"buffer":0,"byteLength":15456,"byteOffset":2524096,"byteStride":4,"target":34962},{"buffer":0,"byteLength":7728,"byteOffset":2539552,"target":34963},{"buffer":0,"byteLength":1176,"byteOffset":2547280,"byteStride":8,"target":34962},{"buffer":0,"byteLength":588,"byteOffset":2548456,"byteStride":4,"target":34962},{"buffer":0,"byteLength":294,"byteOffset":2549044,"target":34963},{"buffer":0,"byteLength":6384,"byteOffset":2549340,"byteStride":8,"target":34962},{"buffer":0,"byteLength":3192,"byteOffset":2555724,"byteStride":4,"target":34962},{"buffer":0,"byteLength":3192,"byteOffset":2558916,"byteStride":4,"target":34962},{"buffer":0,"byteLength":1596,"byteOffset":2562108,"target":34963},{"buffer":0,"byteLength":288,"byteOffset":2563704,"byteStride":8,"target":34962},{"buffer":0,"byteLength":144,"byteOffset":2563992,"byteStride":4,"target":34962},{"buffer":0,"byteLength":72,"byteOffset":2564136,"target":34963},{"buffer":0,"byteLength":7056,"byteOffset":2564208,"byteStride":8,"target":34962},{"buffer":0,"byteLength":3528,"byteOffset":2571264,"byteStride":4,"target":34962},{"buffer":0,"byteLength":3528,"byteOffset":2574792,"byteStride":4,"target":34962},{"buffer":0,"byteLength":1764,"byteOffset":2578320,"target":34963},{"buffer":0,"byteLength":10752,"byteOffset":2580084,"byteStride":4,"target":34962},{"buffer":0,"byteLength":384,"byteOffset":2590836,"byteStride":4,"target":34962},{"buffer":0,"byteLength":1088,"byteOffset":2591220,"byteStride":4,"target":34962},{"buffer":0,"byteLength":33760,"byteOffset":2592308,"byteStride":4,"target":34962},{"buffer":0,"byteLength":96,"byteOffset":2626068,"byteStride":4,"target":34962},{"buffer":0,"byteLength":13248,"byteOffset":2626164,"byteStride":4,"target":34962},{"buffer":0,"byteLength":10496,"byteOffset":2639412,"byteStride":4,"target":34962},{"buffer":0,"byteLength":1728,"byteOffset":2649908,"byteStride":4,"target":34962},{"buffer":0,"byteLength":448,"byteOffset":2651636,"byteStride":4,"target":34962},{"buffer":0,"byteLength":624,"byteOffset":2652084,"byteStride":4,"target":34962},{"buffer":0,"byteLength":768,"byteOffset":2652708,"byteStride":4,"target":34962},{"buffer":0,"byteLength":8760,"byteOffset":2653476,"byteStride":4,"target":34962},{"buffer":0,"byteLength":23124,"byteOffset":2662236,"byteStride":4,"target":34962},{"buffer":0,"byteLength":96,"byteOffset":2685360,"byteStride":4,"target":34962},{"buffer":0,"byteLength":9444,"byteOffset":2685456,"byteStride":4,"target":34962},{"buffer":0,"byteLength":7188,"byteOffset":2694900,"byteStride":4,"target":34962},{"buffer":0,"byteLength":1320,"byteOffset":2702088,"byteStride":4,"target":34962},{"buffer":0,"byteLength":12696,"byteOffset":2703408,"byteStride":4,"target":34962},{"buffer":0,"byteLength":2028,"byteOffset":2716104,"byteStride":4,"target":34962},{"buffer":0,"byteLength":396,"byteOffset":2718132,"byteStride":4,"target":34962},{"buffer":0,"byteLength":2436,"byteOffset":2718528,"byteStride":4,"target":34962},{"buffer":0,"byteLength":360,"byteOffset":2720964,"byteStride":4,"target":34962},{"buffer":0,"byteLength":384,"byteOffset":2721324,"byteStride":4,"target":34962},{"buffer":0,"byteLength":10080,"byteOffset":2721708,"byteStride":4,"target":34962},{"buffer":0,"byteLength":576,"byteOffset":2731788,"byteStride":4,"target":34962},{"buffer":0,"byteLength":41616,"byteOffset":2732364,"byteStride":4,"target":34962},{"buffer":0,"byteLength":6272,"byteOffset":2773980,"byteStride":4,"target":34962},{"buffer":0,"byteLength":456,"byteOffset":2780252,"byteStride":4,"target":34962},{"buffer":0,"byteLength":384,"byteOffset":2780708,"byteStride":4,"target":34962},{"buffer":0,"byteLength":768,"byteOffset":2781092,"byteStride":4,"target":34962},{"buffer":0,"byteLength":240,"byteOffset":2781860,"byteStride":4,"target":34962},{"buffer":0,"byteLength":35496,"byteOffset":2782100,"byteStride":4,"target":34962},{"buffer":0,"byteLength":4884,"byteOffset":2817596,"byteStride":4,"target":34962},{"buffer":0,"byteLength":288,"byteOffset":2822480,"byteStride":4,"target":34962},{"buffer":0,"byteLength":10920,"byteOffset":2822768,"byteStride":4,"target":34962},{"buffer":0,"byteLength":1524,"byteOffset":2833688,"byteStride":4,"target":34962},{"buffer":0,"byteLength":96,"byteOffset":2835212,"byteStride":4,"target":34962},{"buffer":0,"byteLength":288,"byteOffset":2835308,"byteStride":4,"target":34962},{"buffer":0,"byteLength":2196,"byteOffset":2835596,"byteStride":4,"target":34962},{"buffer":0,"byteLength":3456,"byteOffset":2837792,"byteStride":4,"target":34962},{"buffer":0,"byteLength":103152,"byteOffset":2841248,"byteStride":4,"target":34962},{"buffer":0,"byteLength":2304,"byteOffset":2944400,"byteStride":4,"target":34962},{"buffer":0,"byteLength":3840,"byteOffset":2946704,"byteStride":4,"target":34962},{"buffer":0,"byteLength":224,"byteOffset":2950544,"byteStride":4,"target":34962},{"buffer":0,"byteLength":15744,"byteOffset":2950768,"byteStride":4,"target":34962},{"buffer":0,"byteLength":66108,"byteOffset":2966512,"byteStride":4,"target":34962},{"buffer":0,"byteLength":1488,"byteOffset":3032620,"byteStride":4,"target":34962},{"buffer":0,"byteLength":2448,"byteOffset":3034108,"byteStride":4,"target":34962},{"buffer":0,"byteLength":12336,"byteOffset":3036556,"byteStride":4,"target":34962},{"buffer":0,"byteLength":21888,"byteOffset":3048892,"byteStride":4,"target":34962},{"buffer":0,"byteLength":3552,"byteOffset":3070780,"byteStride":4,"target":34962},{"buffer":0,"byteLength":4116,"byteOffset":3074332,"byteStride":4,"target":34962},{"buffer":0,"byteLength":684,"byteOffset":3078448,"byteStride":4,"target":34962},{"buffer":0,"byteLength":81776,"byteOffset":3079132,"byteStride":4,"target":34962},{"buffer":0,"byteLength":3528,"byteOffset":3160908,"byteStride":4,"target":34962},{"buffer":0,"byteLength":384,"byteOffset":3164436,"byteStride":4,"target":34962},{"buffer":0,"byteLength":16512,"byteOffset":3164820,"byteStride":4,"target":34962},{"buffer":0,"byteLength":672,"byteOffset":3181332,"byteStride":4,"target":34962},{"buffer":0,"byteLength":54588,"byteOffset":3182004,"byteStride":4,"target":34962},{"buffer":0,"byteLength":2064,"byteOffset":3236592,"byteStride":4,"target":34962},{"buffer":0,"byteLength":240,"byteOffset":3238656,"byteStride":4,"target":34962},{"buffer":0,"byteLength":10740,"byteOffset":3238896,"byteStride":4,"target":34962},{"buffer":0,"byteLength":15456,"byteOffset":3249636,"byteStride":4,"target":34962},{"buffer":0,"byteLength":588,"byteOffset":3265092,"byteStride":4,"target":34962},{"buffer":0,"byteLength":3192,"byteOffset":3265680,"byteStride":4,"target":34962},{"buffer":0,"byteLength":144,"byteOffset":3268872,"byteStride":4,"target":34962},{"buffer":0,"byteLength":3528,"byteOffset":3269016,"byteStride":4,"target":34962}],"buffers":[{"byteLength":3272544,"uri":"chandler.bin"}],"extensionsRequired":["KHR_mesh_quantization","KHR_texture_transform"],"extensionsUsed":["KHR_mesh_quantization","KHR_texture_transform","MSFT_lod"],"extras":{"hm":{"batching":true,"cellSize":16.0,"cells":[{"cullAt":null,"interior":null,"key":"0_0","lodPrims":[11,6,3,2],"lodTris":[9378,4161,1260,233],"max":[5.769,9.46,5.324],"min":[-5.769,0.0,-5.324]},{"cullAt":null,"interior":null,"key":"0_n1","lodPrims":[8,4,3,2],"lodTris":[7560,3409,1045,207],"max":[5.77,6.368,3.643],"min":[-4.795,0.0,-6.651]},{"cullAt":null,"interior":null,"key":"n1_0","lodPrims":[6,4,2,2],"lodTris":[15818,6865,2120,400],"max":[4.929,5.825,5.582],"min":[-5.431,0.09,-0.809]},{"cullAt":null,"interior":null,"key":"n1_n1","lodPrims":[5,4,3,2],"lodTris":[12730,5636,1603,306],"max":[2.54,6.468,0.294],"min":[-5.293,0.1,-5.853]}],"instanced":[],"instancing":true,"interiors":[],"lod":true,"lodDistances":[15.0,40.0,100.0],"stats":{"groups":4,"lodPrims":[30,18,11,8],"lodTris":[45486,20071,6028,1146]},"venue":"chandler"}},"images":[{"uri":"../textures/earth_albedo.png"},{"uri":"../textures/earth_orm.png"},{"uri":"../textures/earth_normal.png"},{"uri":"../textures/cobble_albedo.png"},{"uri":"../textures/cobble_orm.png"},{"uri":"../textures/cobble_normal.png"},{"uri":"../textures/rubble_albedo.png"},{"uri":"../textures/rubble_orm.png"},{"uri":"../textures/rubble_normal.png"},{"uri":"../textures/plaster_albedo.png"},{"uri":"../textures/plaster_orm.png"},{"uri":"../textures/plaster_normal.png"},{"uri":"../textures/plaster_shade_albedo.png"},{"uri":"../textures/plaster_shade_orm.png"},{"uri":"../textures/plaster_shade_normal.png"},{"uri":"../textures/kit_albedo.png"},{"uri":"../textures/kit_orm.png"},{"uri":"../textures/kit_normal.png"},{"uri":"../textures/slate_albedo.png"},{"uri":"../textures/slate_orm.png"},{"uri":"../textures/slate_normal.png"},{"uri":"../textures/stone_albedo.png"},{"uri":"../textures/stone_orm.png"},{"uri":"../textures/stone_normal.png"},{"uri":"../textures/glass_lit_albedo.png"},{"uri":"../textures/glass_lit_orm.png"},{"uri":"../textures/glass_lit_normal.png"},{"uri":"../textures/glass_lit_emissive.png"},{"uri":"../textures/oak_dark_albedo.png"},{"uri":"../textures/oak_dark_orm.png"},{"uri":"../textures/oak_dark_normal.png"},{"uri":"../textures/terracotta_albedo.png"},{"uri":"../textures/terracotta_orm.png"},{"uri":"../textures/terracotta_normal.png"},{"uri":"../textures/stained_dark_albedo.png"},{"uri":"../textures/stained_dark_orm.png"},{"uri":"../textures/stained_dark_normal.png"},{"uri":"../textures/stained_dark_emissive.png"},{"uri":"../textures/stained_albedo.png"},{"uri":"../textures/stained_orm.png"},{"uri":"../textures/stained_normal.png"},{"uri":"../textures/stained_emissive.png"},{"uri":"../textures/timber_charred_albedo.png"},{"uri":"../textures/timber_charred_orm.png"},{"uri":"../textures/timber_charred_normal.png"},{"uri":"../textures/coal_albedo.png"},{"uri":"../textures/coal_orm.png"},{"uri":"../textures/coal_normal.png"},{"uri":"../textures/coal_emissive.png"},{"uri":"../textures/iron_pitted_albedo.png"},{"uri":"../textures/iron_pitted_orm.png"},{"uri":"../textures/iron_pitted_normal.png"},{"uri":"../textures/tallow_albedo.png"},{"uri":"../textures/tallow_orm.png"},{"uri":"../textures/tallow_normal.png"},{"uri":"../textures/cinder_albedo.png"},{"uri":"../textures/cinder_orm.png"},{"uri":"../textures/cinder_normal.png"},{"uri":"../textures/mud_wet_albedo.png"},{"uri":"../textures/mud_wet_orm.png"},{"uri":"../textures/mud_wet_normal.png"},{"uri":"../textures/foliage_albedo.png"},{"uri":"../textures/foliage_orm.png"},{"uri":"../textures/foliage_normal.png"}],"materials":[{"doubleSided":false,"name":"earth","normalTexture":{"extensions":{"KHR_texture_transform":{"scale":[5.1803042118058205,5.1803042118058205]}},"index":2,"scale":1.0},"occlusionTexture":{"extensions":{"KHR_texture_transform":{"scale":[5.1803042118058205,5.1803042118058205]}},"index":1},"pbrMetallicRoughness":{"baseColorFactor":[1,1,1,1],"baseColorTexture":{"extensions":{"KHR_texture_transform":{"scale":[5.1803042118058205,5.1803042118058205]}},"index":0},"metallicFactor":1.0,"metallicRoughnessTexture":{"extensions":{"KHR_texture_transform":{"scale":[5.1803042118058205,5.1803042118058205]}},"index":1},"roughnessFactor":1.0}},{"doubleSided":false,"name":"cobble","normalTexture":{"extensions":{"KHR_texture_transform":{"scale":[5.1803042118058205,5.1803042118058205]}},"index":5,"scale":1.0},"occlusionTexture":{"extensions":{"KHR_texture_transform":{"scale":[5.1803042118058205,5.1803042118058205]}},"index":4},"pbrMetallicRoughness":{"baseColorFactor":[1,1,1,1],"baseColorTexture":{"extensions":{"KHR_texture_transform":{"scale":[5.1803042118058205,5.1803042118058205]}},"index":3},"metallicFactor":1.0,"metallicRoughnessTexture":{"extensions":{"KHR_texture_transform":{"scale":[5.1803042118058205,5.1803042118058205]}},"index":4},"roughnessFactor":1.0}},{"doubleSided":false,"name":"rubble","normalTexture":{"extensions":{"KHR_texture_transform":{"scale":[5.1803042118058205,5.1803042118058205]}},"index":8,"scale":1.0},"occlusionTexture":{"extensions":{"KHR_texture_transform":{"scale":[5.1803042118058205,5.1803042118058205]}},"index":7},"pbrMetallicRoughness":{"baseColorFactor":[1,1,1,1],"baseColorTexture":{"extensions":{"KHR_texture_transform":{"scale":[5.1803042118058205,5.1803042118058205]}},"index":6},"metallicFactor":1.0,"metallicRoughnessTexture":{"extensions":{"KHR_texture_transform":{"scale":[5.1803042118058205,5.1803042118058205]}},"index":7},"roughnessFactor":1.0}},{"doubleSided":false,"name":"plaster","normalTexture":{"extensions":{"KHR_texture_transform":{"scale":[5.1803042118058205,5.1803042118058205]}},"index":11,"scale":1.0},"occlusionTexture":{"extensions":{"KHR_texture_transform":{"scale":[5.1803042118058205,5.1803042118058205]}},"index":10},"pbrMetallicRoughness":{"baseColorFactor":[1,1,1,1],"baseColorTexture":{"extensions":{"KHR_texture_transform":{"scale":[5.1803042118058205,5.1803042118058205]}},"index":9},"metallicFactor":1.0,"metallicRoughnessTexture":{"extensions":{"KHR_texture_transform":{"scale":[5.1803042118058205,5.1803042118058205]}},"index":10},"roughnessFactor":1.0}},{"doubleSided":false,"name":"plaster_shade","normalTexture":{"extensions":{"KHR_texture_transform":{"scale":[5.1803042118058205,5.1803042118058205]}},"index":14,"scale":1.0},"occlusionTexture":{"extensions":{"KHR_texture_transform":{"scale":[5.1803042118058205,5.1803042118058205]}},"index":13},"pbrMetallicRoughness":{"baseColorFactor":[1,1,1,1],"baseColorTexture":{"extensions":{"KHR_texture_transform":{"scale":[5.1803042118058205,5.1803042118058205]}},"index":12},"metallicFactor":1.0,"metallicRoughnessTexture":{"extensions":{"KHR_texture_transform":{"scale":[5.1803042118058205,5.1803042118058205]}},"index":13},"roughnessFactor":1.0}},{"doubleSided":true,"name":"kit","normalTexture":{"extensions":{"KHR_texture_transform":{"scale":[5.1803042118058205,5.1803042118058205]}},"index":17,"scale":1.0},"occlusionTexture":{"extensions":{"KHR_texture_transform":{"scale":[5.1803042118058205,5.1803042118058205]}},"index":16},"pbrMetallicRoughness":{"baseColorFactor":[1,1,1,1],"baseColorTexture":{"extensions":{"KHR_texture_transform":{"scale":[5.1803042118058205,5.1803042118058205]}},"index":15},"metallicFactor":1.0,"metallicRoughnessTexture":{"extensions":{"KHR_texture_transform":{"scale":[5.1803042118058205,5.1803042118058205]}},"index":16},"roughnessFactor":1.0}},{"doubleSided":false,"name":"slate","normalTexture":{"extensions":{"KHR_texture_transform":{"scale":[5.1803042118058205,5.1803042118058205]}},"index":20,"scale":1.0},"occlusionTexture":{"extensions":{"KHR_texture_transform":{"scale":[5.1803042118058205,5.1803042118058205]}},"index":19},"pbrMetallicRoughness":{"baseColorFactor":[1,1,1,1],"baseColorTexture":{"extensions":{"KHR_texture_transform":{"scale":[5.1803042118058205,5.1803042118058205]}},"index":18},"metallicFactor":1.0,"metallicRoughnessTexture":{"extensions":{"KHR_texture_transform":{"scale":[5.1803042118058205,5.1803042118058205]}},"index":19},"roughnessFactor":1.0}},{"doubleSided":false,"name":"stone","normalTexture":{"extensions":{"KHR_texture_transform":{"scale":[5.1803042118058205,5.1803042118058205]}},"index":23,"scale":1.0},"occlusionTexture":{"extensions":{"KHR_texture_transform":{"scale":[5.1803042118058205,5.1803042118058205]}},"index":22},"pbrMetallicRoughness":{"baseColorFactor":[1,1,1,1],"baseColorTexture":{"extensions":{"KHR_texture_transform":{"scale":[5.1803042118058205,5.1803042118058205]}},"index":21},"metallicFactor":1.0,"metallicRoughnessTexture":{"extensions":{"KHR_texture_transform":{"scale":[5.1803042118058205,5.1803042118058205]}},"index":22},"roughnessFactor":1.0}},{"doubleSided":true,"emissiveFactor":[1.0,1.0,1.0],"emissiveTexture":{"extensions":{"KHR_texture_transform":{"scale":[5.1803042118058205,5.1803042118058205]}},"index":27},"name":"glass_lit","normalTexture":{"extensions":{"KHR_texture_transform":{"scale":[5.1803042118058205,5.1803042118058205]}},"index":26,"scale":1.0},"occlusionTexture":{"extensions":{"KHR_texture_transform":{"scale":[5.1803042118058205,5.1803042118058205]}},"index":25},"pbrMetallicRoughness":{"baseColorFactor":[1,1,1,1],"baseColorTexture":{"extensions":{"KHR_texture_transform":{"scale":[5.1803042118058205,5.1803042118058205]}},"index":24},"metallicFactor":1.0,"metallicRoughnessTexture":{"extensions":{"KHR_texture_transform":{"scale":[5.1803042118058205,5.1803042118058205]}},"index":25},"roughnessFactor":1.0}},{"doubleSided":false,"name":"oak_dark","normalTexture":{"extensions":{"KHR_texture_transform":{"scale":[5.1803042118058205,5.1803042118058205]}},"index":30,"scale":1.0},"occlusionTexture":{"extensions":{"KHR_texture_transform":{"scale":[5.1803042118058205,5.1803042118058205]}},"index":29},"pbrMetallicRoughness":{"baseColorFactor":[1,1,1,1],"baseColorTexture":{"extensions":{"KHR_texture_transform":{"scale":[5.1803042118058205,5.1803042118058205]}},"index":28},"metallicFactor":1.0,"metallicRoughnessTexture":{"extensions":{"KHR_texture_transform":{"scale":[5.1803042118058205,5.1803042118058205]}},"index":29},"roughnessFactor":1.0}},{"doubleSided":false,"name":"terracotta","normalTexture":{"extensions":{"KHR_texture_transform":{"scale":[5.1803042118058205,5.1803042118058205]}},"index":33,"scale":1.0},"occlusionTexture":{"extensions":{"KHR_texture_transform":{"scale":[5.1803042118058205,5.1803042118058205]}},"index":32},"pbrMetallicRoughness":{"baseColorFactor":[1,1,1,1],"baseColorTexture":{"extensions":{"KHR_texture_transform":{"scale":[5.1803042118058205,5.1803042118058205]}},"index":31},"metallicFactor":1.0,"metallicRoughnessTexture":{"extensions":{"KHR_texture_transform":{"scale":[5.1803042118058205,5.1803042118058205]}},"index":32},"roughnessFactor":1.0}},{"doubleSided":true,"emissiveFactor":[1.0,1.0,1.0],"emissiveTexture":{"extensions":{"KHR_texture_transform":{"scale":[5.1803042118058205,5.1803042118058205]}},"index":37},"name":"stained_dark","normalTexture":{"extensions":{"KHR_texture_transform":{"scale":[5.1803042118058205,5.1803042118058205]}},"index":36,"scale":1.0},"occlusionTexture":{"extensions":{"KHR_texture_transform":{"scale":[5.1803042118058205,5.1803042118058205]}},"index":35},"pbrMetallicRoughness":{"baseColorFactor":[1,1,1,1],"baseColorTexture":{"extensions":{"KHR_texture_transform":{"scale":[5.1803042118058205,5.1803042118058205]}},"index":34},"metallicFactor":1.0,"metallicRoughnessTexture":{"extensions":{"KHR_texture_transform":{"scale":[5.1803042118058205,5.1803042118058205]}},"index":35},"roughnessFactor":1.0}},{"doubleSided":true,"emissiveFactor":[1.0,1.0,1.0],"emissiveTexture":{"extensions":{"KHR_texture_transform":{"scale":[5.1803042118058205,5.1803042118058205]}},"index":41},"name":"stained","normalTexture":{"extensions":{"KHR_texture_transform":{"scale":[5.1803042118058205,5.1803042118058205]}},"index":40,"scale":1.0},"occlusionTexture":{"extensions":{"KHR_texture_transform":{"scale":[5.1803042118058205,5.1803042118058205]}},"index":39},"pbrMetallicRoughness":{"baseColorFactor":[1,1,1,1],"baseColorTexture":{"extensions":{"KHR_texture_transform":{"scale":[5.1803042118058205,5.1803042118058205]}},"index":38},"metallicFactor":1.0,"metallicRoughnessTexture":{"extensions":{"KHR_texture_transform":{"scale":[5.1803042118058205,5.1803042118058205]}},"index":39},"roughnessFactor":1.0}},{"doubleSided":false,"name":"timber_charred","normalTexture":{"extensions":{"KHR_texture_transform":{"scale":[5.1803042118058205,5.1803042118058205]}},"index":44,"scale":1.0},"occlusionTexture":{"extensions":{"KHR_texture_transform":{"scale":[5.1803042118058205,5.1803042118058205]}},"index":43},"pbrMetallicRoughness":{"baseColorFactor":[1,1,1,1],"baseColorTexture":{"extensions":{"KHR_texture_transform":{"scale":[5.1803042118058205,5.1803042118058205]}},"index":42},"metallicFactor":1.0,"metallicRoughnessTexture":{"extensions":{"KHR_texture_transform":{"scale":[5.1803042118058205,5.1803042118058205]}},"index":43},"roughnessFactor":1.0}},{"doubleSided":false,"emissiveFactor":[1.0,1.0,1.0],"emissiveTexture":{"extensions":{"KHR_texture_transform":{"scale":[5.1803042118058205,5.1803042118058205]}},"index":48},"name":"coal","normalTexture":{"extensions":{"KHR_texture_transform":{"scale":[5.1803042118058205,5.1803042118058205]}},"index":47,"scale":1.0},"occlusionTexture":{"extensions":{"KHR_texture_transform":{"scale":[5.1803042118058205,5.1803042118058205]}},"index":46},"pbrMetallicRoughness":{"baseColorFactor":[1,1,1,1],"baseColorTexture":{"extensions":{"KHR_texture_transform":{"scale":[5.1803042118058205,5.1803042118058205]}},"index":45},"metallicFactor":1.0,"metallicRoughnessTexture":{"extensions":{"KHR_texture_transform":{"scale":[5.1803042118058205,5.1803042118058205]}},"index":46},"roughnessFactor":1.0}},{"doubleSided":false,"name":"iron_pitted","normalTexture":{"extensions":{"KHR_texture_transform":{"scale":[5.1803042118058205,5.1803042118058205]}},"index":51,"scale":1.0},"occlusionTexture":{"extensions":{"KHR_texture_transform":{"scale":[5.1803042118058205,5.1803042118058205]}},"index":50},"pbrMetallicRoughness":{"baseColorFactor":[1,1,1,1],"baseColorTexture":{"extensions":{"KHR_texture_transform":{"scale":[5.1803042118058205,5.1803042118058205]}},"index":49},"metallicFactor":1.0,"metallicRoughnessTexture":{"extensions":{"KHR_texture_transform":{"scale":[5.1803042118058205,5.1803042118058205]}},"index":50},"roughnessFactor":1.0}},{"doubleSided":false,"name":"tallow","normalTexture":{"extensions":{"KHR_texture_transform":{"scale":[5.1803042118058205,5.1803042118058205]}},"index":54,"scale":1.0},"occlusionTexture":{"extensions":{"KHR_texture_transform":{"scale":[5.1803042118058205,5.1803042118058205]}},"index":53},"pbrMetallicRoughness":{"baseColorFactor":[1,1,1,1],"baseColorTexture":{"extensions":{"KHR_texture_transform":{"scale":[5.1803042118058205,5.1803042118058205]}},"index":52},"metallicFactor":1.0,"metallicRoughnessTexture":{"extensions":{"KHR_texture_transform":{"scale":[5.1803042118058205,5.1803042118058205]}},"index":53},"roughnessFactor":1.0}},{"doubleSided":false,"name":"cinder","normalTexture":{"extensions":{"KHR_texture_transform":{"scale":[5.1803042118058205,5.1803042118058205]}},"index":57,"scale":1.0},"occlusionTexture":{"extensions":{"KHR_texture_transform":{"scale":[5.1803042118058205,5.1803042118058205]}},"index":56},"pbrMetallicRoughness":{"baseColorFactor":[1,1,1,1],"baseColorTexture":{"extensions":{"KHR_texture_transform":{"scale":[5.1803042118058205,5.1803042118058205]}},"index":55},"metallicFactor":1.0,"metallicRoughnessTexture":{"extensions":{"KHR_texture_transform":{"scale":[5.1803042118058205,5.1803042118058205]}},"index":56},"roughnessFactor":1.0}},{"doubleSided":false,"name":"mud_wet","normalTexture":{"extensions":{"KHR_texture_transform":{"scale":[5.1803042118058205,5.1803042118058205]}},"index":60,"scale":1.0},"occlusionTexture":{"extensions":{"KHR_texture_transform":{"scale":[5.1803042118058205,5.1803042118058205]}},"index":59},"pbrMetallicRoughness":{"baseColorFactor":[1,1,1,1],"baseColorTexture":{"extensions":{"KHR_texture_transform":{"scale":[5.1803042118058205,5.1803042118058205]}},"index":58},"metallicFactor":1.0,"metallicRoughnessTexture":{"extensions":{"KHR_texture_transform":{"scale":[5.1803042118058205,5.1803042118058205]}},"index":59},"roughnessFactor":1.0}},{"doubleSided":true,"name":"foliage","normalTexture":{"extensions":{"KHR_texture_transform":{"scale":[5.1803042118058205,5.1803042118058205]}},"index":63,"scale":1.0},"occlusionTexture":{"extensions":{"KHR_texture_transform":{"scale":[5.1803042118058205,5.1803042118058205]}},"index":62},"pbrMetallicRoughness":{"baseColorFactor":[1,1,1,1],"baseColorTexture":{"extensions":{"KHR_texture_transform":{"scale":[5.1803042118058205,5.1803042118058205]}},"index":61},"metallicFactor":1.0,"metallicRoughnessTexture":{"extensions":{"KHR_texture_transform":{"scale":[5.1803042118058205,5.1803042118058205]}},"index":62},"roughnessFactor":1.0}}],"meshes":[{"name":"chandler#0_0","primitives":[{"attributes":{"NORMAL":1,"POSITION":0,"TEXCOORD_0":209},"indices":2,"material":14},{"attributes":{"NORMAL":4,"POSITION":3,"TEXCOORD_0":210},"indices":5,"material":0},{"attributes":{"NORMAL":7,"POSITION":6,"TEXCOORD_0":211},"indices":8,"material":15},{"attributes":{"NORMAL":10,"POSITION":9,"TEXCOORD_0":212},"indices":11,"material":5},{"attributes":{"NORMAL":13,"POSITION":12,"TEXCOORD_0":213},"indices":14,"material":3},{"attributes":{"NORMAL":16,"POSITION":15,"TEXCOORD_0":214},"indices":17,"material":12},{"attributes":{"NORMAL":19,"POSITION":18,"TEXCOORD_0":215},"indices":20,"material":11},{"attributes":{"NORMAL":22,"POSITION":21,"TEXCOORD_0":216},"indices":23,"material":7},{"attributes":{"NORMAL":25,"POSITION":24,"TEXCOORD_0":217},"indices":26,"material":16},{"attributes":{"NORMAL":28,"POSITION":27,"TEXCOORD_0":218},"indices":29,"material":10},{"attributes":{"NORMAL":31,"POSITION":30,"TEXCOORD_0":219},"indices":32,"material":13}]},{"name":"chandler#0_0$lod1","primitives":[{"attributes":{"NORMAL":34,"POSITION":33,"TEXCOORD_0":220},"indices":35,"material":0},{"attributes":{"NORMAL":37,"POSITION":36,"TEXCOORD_0":221},"indices":38,"material":5},{"attributes":{"NORMAL":40,"POSITION":39,"TEXCOORD_0":222},"indices":41,"material":3},{"attributes":{"NORMAL":43,"POSITION":42,"TEXCOORD_0":223},"indices":44,"material":12},{"attributes":{"NORMAL":46,"POSITION":45,"TEXCOORD_0":224},"indices":47,"material":11},{"attributes":{"NORMAL":49,"POSITION":48,"TEXCOORD_0":225},"indices":50,"material":7}]},{"name":"chandler#0_0$lod2","primitives":[{"attributes":{"NORMAL":52,"POSITION":51,"TEXCOORD_0":226},"indices":53,"material":0},{"attributes":{"NORMAL":55,"POSITION":54,"TEXCOORD_0":227},"indices":56,"material":11},{"attributes":{"NORMAL":58,"POSITION":57,"TEXCOORD_0":228},"indices":59,"material":7}]},{"name":"chandler#0_0$lod3","primitives":[{"attributes":{"NORMAL":61,"POSITION":60,"TEXCOORD_0":229},"indices":62,"material":0},{"attributes":{"NORMAL":64,"POSITION":63,"TEXCOORD_0":230},"indices":65,"material":11}]},{"name":"chandler#0_n1","primitives":[{"attributes":{"NORMAL":67,"POSITION":66,"TEXCOORD_0":231},"indices":68,"material":1},{"attributes":{"NORMAL":70,"POSITION":69,"TEXCOORD_0":232},"indices":71,"material":19},{"attributes":{"NORMAL":73,"POSITION":72,"TEXCOORD_0":233},"indices":74,"material":8},{"attributes":{"NORMAL":76,"POSITION":75,"TEXCOORD_0":234},"indices":77,"material":5},{"attributes":{"NORMAL":79,"POSITION":78,"TEXCOORD_0":235},"indices":80,"material":18},{"attributes":{"NORMAL":82,"POSITION":81,"TEXCOORD_0":236},"indices":83,"material":3},{"attributes":{"NORMAL":85,"POSITION":84,"TEXCOORD_0":237},"indices":86,"material":4},{"attributes":{"NORMAL":88,"POSITION":87,"TEXCOORD_0":238},"indices":89,"material":7}]},{"name":"chandler#0_n1$lod1","primitives":[{"attributes":{"NORMAL":91,"POSITION":90,"TEXCOORD_0":239},"indices":92,"material":1},{"attributes":{"NORMAL":94,"POSITION":93,"TEXCOORD_0":240},"indices":95,"material":5},{"attributes":{"NORMAL":97,"POSITION":96,"TEXCOORD_0":241},"indices":98,"material":18},{"attributes":{"NORMAL":100,"POSITION":99,"TEXCOORD_0":242},"indices":101,"material":3}]},{"name":"chandler#0_n1$lod2","primitives":[{"attributes":{"NORMAL":103,"POSITION":102,"TEXCOORD_0":243},"indices":104,"material":5},{"attributes":{"NORMAL":106,"POSITION":105,"TEXCOORD_0":244},"indices":107,"material":18},{"attributes":{"NORMAL":109,"POSITION":108,"TEXCOORD_0":245},"indices":110,"material":3}]},{"name":"chandler#0_n1$lod3","primitives":[{"attributes":{"NORMAL":112,"POSITION":111,"TEXCOORD_0":246},"indices":113,"material":18},{"attributes":{"NORMAL":115,"POSITION":114,"TEXCOORD_0":247},"indices":116,"material":3}]},{"name":"chandler#n1_0","primitives":[{"attributes":{"NORMAL":118,"POSITION":117,"TEXCOORD_0":248},"indices":119,"material":17},{"attributes":{"NORMAL":121,"POSITION":120,"TEXCOORD_0":249},"indices":122,"material":5},{"attributes":{"NORMAL":124,"POSITION":123,"TEXCOORD_0":250},"indices":125,"material":9},{"attributes":{"NORMAL":127,"POSITION":126,"TEXCOORD_0":251},"indices":128,"material":12},{"attributes":{"NORMAL":130,"POSITION":129,"TEXCOORD_0":252},"indices":131,"material":16},{"attributes":{"COLOR_0":134,"NORMAL":133,"POSITION":132,"TEXCOORD_0":253},"indices":135,"material":10}]},{"name":"chandler#n1_0$lod1","primitives":[{"attributes":{"NORMAL":137,"POSITION":136,"TEXCOORD_0":254},"indices":138,"material":5},{"attributes":{"NORMAL":140,"POSITION":139,"TEXCOORD_0":255},"indices":141,"material":9},{"attributes":{"NORMAL":143,"POSITION":142,"TEXCOORD_0":256},"indices":144,"material":12},{"attributes":{"COLOR_0":147,"NORMAL":146,"POSITION":145,"TEXCOORD_0":257},"indices":148,"material":10}]},{"name":"chandler#n1_0$lod2","primitives":[{"attributes":{"NORMAL":150,"POSITION":149,"TEXCOORD_0":258},"indices":151,"material":5},{"attributes":{"COLOR_0":154,"NORMAL":153,"POSITION":152,"TEXCOORD_0":259},"indices":155,"material":10}]},{"name":"chandler#n1_0$lod3","primitives":[{"attributes":{"NORMAL":157,"POSITION":156,"TEXCOORD_0":260},"indices":158,"material":5},{"attributes":{"COLOR_0":161,"NORMAL":160,"POSITION":159,"TEXCOORD_0":261},"indices":162,"material":10}]},{"name":"chandler#n1_n1","primitives":[{"attributes":{"NORMAL":164,"POSITION":163,"TEXCOORD_0":262},"indices":165,"material":5},{"attributes":{"NORMAL":167,"POSITION":166,"TEXCOORD_0":263},"indices":168,"material":3},{"attributes":{"NORMAL":170,"POSITION":169,"TEXCOORD_0":264},"indices":171,"material":2},{"attributes":{"COLOR_0":174,"NORMAL":173,"POSITION":172,"TEXCOORD_0":265},"indices":175,"material":6},{"attributes":{"NORMAL":177,"POSITION":176,"TEXCOORD_0":266},"indices":178,"material":7}]},{"name":"chandler#n1_n1$lod1","primitives":[{"attributes":{"NORMAL":180,"POSITION":179,"TEXCOORD_0":267},"indices":181,"material":5},{"attributes":{"NORMAL":183,"POSITION":182,"TEXCOORD_0":268},"indices":184,"material":3},{"attributes":{"NORMAL":186,"POSITION":185,"TEXCOORD_0":269},"indices":187,"material":2},{"attributes":{"COLOR_0":190,"NORMAL":189,"POSITION":188,"TEXCOORD_0":270},"indices":191,"material":6}]},{"name":"chandler#n1_n1$lod2","primitives":[{"attributes":{"NORMAL":193,"POSITION":192,"TEXCOORD_0":271},"indices":194,"material":5},{"attributes":{"NORMAL":196,"POSITION":195,"TEXCOORD_0":272},"indices":197,"material":3},{"attributes":{"COLOR_0":200,"NORMAL":199,"POSITION":198,"TEXCOORD_0":273},"indices":201,"material":6}]},{"name":"chandler#n1_n1$lod3","primitives":[{"attributes":{"NORMAL":203,"POSITION":202,"TEXCOORD_0":274},"indices":204,"material":3},{"attributes":{"COLOR_0":207,"NORMAL":206,"POSITION":205,"TEXCOORD_0":275},"indices":208,"material":6}]}],"nodes":[{"extensions":{"MSFT_lod":{"ids":[1,2,3]}},"extras":{"MSFT_screencoverage":[1.0,0.44015,0.17606,0.0],"hm":{"cell":"0_0","cullAt":null,"interior":null,"lod":0,"max":[5.769,9.46,5.324],"min":[-5.769,0.0,-5.324],"prims":11,"tris":9378,"venue":"chandler"}},"mesh":0,"name":"chandler#0_0","scale":[5.769044876098633,4.730000019073486,5.324047565460205],"translation":[0.0,4.730000019073486,0.0]},{"extras":{"hm":{"cell":"0_0","cullAt":null,"interior":null,"lod":1,"max":[5.769,9.46,5.324],"min":[-5.769,0.0,-5.324],"prims":6,"tris":4161,"venue":"chandler"}},"mesh":1,"name":"chandler#0_0$lod1","scale":[5.757441997528076,4.7133331298828125,5.312444686889648],"translation":[0.0,4.74666690826416,0.0]},{"extras":{"hm":{"cell":"0_0","cullAt":null,"interior":null,"lod":2,"max":[5.769,9.46,5.324],"min":[-5.769,0.0,-5.324],"prims":3,"tris":1260,"venue":"chandler"}},"mesh":2,"name":"chandler#0_0$lod2","scale":[5.751577854156494,4.710833549499512,5.305929183959961],"translation":[0.0,4.749166488647461,0.0]},{"extras":{"hm":{"cell":"0_0","cullAt":null,"interior":null,"lod":3,"max":[5.769,9.46,5.324],"min":[-5.769,0.0,-5.324],"prims":2,"tris":233,"venue":"chandler"}},"mesh":3,"name":"chandler#0_0$lod3","scale":[5.743870258331299,4.697129726409912,5.296656608581543],"translation":[0.0,4.7628703117370605,0.0]},{"extensions":{"MSFT_lod":{"ids":[5,6,7]}},"extras":{"MSFT_screencoverage":[1.0,0.38579,0.15432,0.0],"hm":{"cell":"0_n1","cullAt":null,"interior":null,"lod":0,"max":[5.77,6.368,3.643],"min":[-4.795,0.0,-6.651],"prims":8,"tris":7560,"venue":"chandler"}},"mesh":4,"name":"chandler#0_n1","scale":[5.282464981079102,3.1842000484466553,5.146697044372559],"translation":[0.487102746963501,3.1842000484466553,-1.5040853023529053]},{"extras":{"hm":{"cell":"0_n1","cullAt":null,"interior":null,"lod":1,"max":[5.77,6.368,3.643],"min":[-4.795,0.0,-6.651],"prims":4,"tris":3409,"venue":"chandler"}},"mesh":5,"name":"chandler#0_n1$lod1","scale":[5.271210193634033,3.1791999340057373,5.1464643478393555],"translation":[0.4857935905456543,3.1892001628875732,-1.5038609504699707]},{"extras":{"hm":{"cell":"0_n1","cullAt":null,"interior":null,"lod":2,"max":[5.77,6.368,3.643],"min":[-4.795,0.0,-6.651],"prims":3,"tris":1045,"venue":"chandler"}},"mesh":6,"name":"chandler#0_n1$lod2","scale":[5.271210193634033,3.165137529373169,5.145730972290039],"translation":[0.4857935905456543,3.2032625675201416,-1.50404953956604]},{"extras":{"hm":{"cell":"0_n1","cullAt":null,"interior":null,"lod":3,"max":[5.77,6.368,3.643],"min":[-4.795,0.0,-6.651],"prims":2,"tris":207,"venue":"chandler"}},"mesh":7,"name":"chandler#0_n1$lod3","scale":[2.4892385005950928,3.133462905883789,5.100094795227051],"translation":[2.6899240016937256,3.2349371910095215,-1.5496854782104492]},{"extensions":{"MSFT_lod":{"ids":[9,10,11]}},"extras":{"MSFT_screencoverage":[0.86161,0.32311,0.12924,0.0],"hm":{"cell":"n1_0","cullAt":null,"interior":null,"lod":0,"max":[4.929,5.825,5.582],"min":[-5.431,0.09,-0.809],"prims":6,"tris":15818,"venue":"chandler"}},"mesh":8,"name":"chandler#n1_0","scale":[5.179993152618408,2.8673617839813232,3.1954293251037598],"translation":[-0.2508683204650879,2.9576380252838135,2.386852741241455]},{"extras":{"hm":{"cell":"n1_0","cullAt":null,"interior":null,"lod":1,"max":[4.929,5.825,5.582],"min":[-5.431,0.09,-0.809],"prims":4,"tris":6865,"venue":"chandler"}},"mesh":9,"name":"chandler#n1_0$lod1","scale":[5.179993152618408,2.8673617839813232,3.193962812423706],"translation":[-0.2508683204650879,2.9576380252838135,2.386852979660034]},{"extras":{"hm":{"cell":"n1_0","cullAt":null,"interior":null,"lod":2,"max":[4.929,5.825,5.582],"min":[-5.431,0.09,-0.809],"prims":2,"tris":2120,"venue":"chandler"}},"mesh":10,"name":"chandler#n1_0$lod2","scale":[5.096261978149414,2.862499952316284,3.191620111465454],"translation":[-0.2509005069732666,2.9624998569488525,2.385174036026001]},{"extras":{"hm":{"cell":"n1_0","cullAt":null,"interior":null,"lod":3,"max":[4.929,5.825,5.582],"min":[-5.431,0.09,-0.809],"prims":2,"tris":400,"venue":"chandler"}},"mesh":11,"name":"chandler#n1_0$lod3","scale":[5.092554092407227,2.812941789627075,3.1440188884735107],"translation":[-0.252382755279541,2.9161078929901123,2.379570245742798]},{"extensions":{"MSFT_lod":{"ids":[13,14,15]}},"extras":{"MSFT_screencoverage":[0.7568,0.2838,0.11352,0.0],"hm":{"cell":"n1_n1","cullAt":null,"interior":null,"lod":0,"max":[2.54,6.468,0.294],"min":[-5.293,0.1,-5.853],"prims":5,"tris":12730,"venue":"chandler"}},"mesh":12,"name":"chandler#n1_n1","scale":[3.9164023399353027,3.1842000484466553,3.0731475353240967],"translation":[-1.3765443563461304,3.2841999530792236,-2.779442071914673]},{"extras":{"hm":{"cell":"n1_n1","cullAt":null,"interior":null,"lod":1,"max":[2.54,6.468,0.294],"min":[-5.293,0.1,-5.853],"prims":4,"tris":5636,"venue":"chandler"}},"mesh":13,"name":"chandler#n1_n1$lod1","scale":[3.9145612716674805,3.1842000484466553,3.0715601444244385],"translation":[-1.3783856630325317,3.2841999530792236,-2.7780301570892334]},{"extras":{"hm":{"cell":"n1_n1","cullAt":null,"interior":null,"lod":2,"max":[2.54,6.468,0.294],"min":[-5.293,0.1,-5.853],"prims":3,"tris":1603,"venue":"chandler"}},"mesh":14,"name":"chandler#n1_n1$lod2","scale":[3.9081661701202393,3.1765451431274414,3.070228338241577],"translation":[-1.3847806453704834,3.2799339294433594,-2.7782933712005615]},{"extras":{"hm":{"cell":"n1_n1","cullAt":null,"interior":null,"lod":3,"max":[2.54,6.468,0.294],"min":[-5.293,0.1,-5.853],"prims":2,"tris":306,"venue":"chandler"}},"mesh":15,"name":"chandler#n1_n1$lod3","scale":[3.8473196029663086,3.0688250064849854,3.028841257095337],"translation":[-1.329174518585205,3.3875629901885986,-2.7829134464263916]}],"samplers":[{"magFilter":9729,"minFilter":9987,"wrapS":10497,"wrapT":10497}],"scene":0,"scenes":[{"nodes":[0,4,8,12]}],"textures":[{"sampler":0,"source":0},{"sampler":0,"source":1},{"sampler":0,"source":2},{"sampler":0,"source":3},{"sampler":0,"source":4},{"sampler":0,"source":5},{"sampler":0,"source":6},{"sampler":0,"source":7},{"sampler":0,"source":8},{"sampler":0,"source":9},{"sampler":0,"source":10},{"sampler":0,"source":11},{"sampler":0,"source":12},{"sampler":0,"source":13},{"sampler":0,"source":14},{"sampler":0,"source":15},{"sampler":0,"source":16},{"sampler":0,"source":17},{"sampler":0,"source":18},{"sampler":0,"source":19},{"sampler":0,"source":20},{"sampler":0,"source":21},{"sampler":0,"source":22},{"sampler":0,"source":23},{"sampler":0,"source":24},{"sampler":0,"source":25},{"sampler":0,"source":26},{"sampler":0,"source":27},{"sampler":0,"source":28},{"sampler":0,"source":29},{"sampler":0,"source":30},{"sampler":0,"source":31},{"sampler":0,"source":32},{"sampler":0,"source":33},{"sampler":0,"source":34},{"sampler":0,"source":35},{"sampler":0,"source":36},{"sampler":0,"source":37},{"sampler":0,"source":38},{"sampler":0,"source":39},{"sampler":0,"source":40},{"sampler":0,"source":41},{"sampler":0,"source":42},{"sampler":0,"source":43},{"sampler":0,"source":44},{"sampler":0,"source":45},{"sampler":0,"source":46},{"sampler":0,"source":47},{"sampler":0,"source":48},{"sampler":0,"source":49},{"sampler":0,"source":50},{"sampler":0,"source":51},{"sampler":0,"source":52},{"sampler":0,"source":53},{"sampler":0,"source":54},{"sampler":0,"source":55},{"sampler":0,"source":56},{"sampler":0,"source":57},{"sampler":0,"source":58},{"sampler":0,"source":59},{"sampler":0,"source":60},{"sampler":0,"source":61},{"sampler":0,"source":62},{"sampler":0,"source":63}]}