{"accessors":[{"bufferView":0,"componentType":5122,"count":112,"max":[32767.0,-27516.0,32767.0],"min":[-32767.0,-32767.0,-32767.0],"normalized":true,"type":"VEC3"},{"bufferView":1,"componentType":5120,"count":112,"normalized":true,"type":"VEC3"},{"bufferView":2,"componentType":5123,"count":180,"type":"SCALAR"},{"bufferView":3,"componentType":5122,"count":96,"max":[30189.0,32767.0,30189.0],"min":[-30189.0,-27516.0,-30189.0],"normalized":true,"type":"VEC3"},{"bufferView":4,"componentType":5120,"count":96,"normalized":true,"type":"VEC3"},{"bufferView":5,"componentType":5123,"count":132,"type":"SCALAR"},{"bufferView":6,"componentType":5122,"count":1536,"max":[26213.0,17589.0,-17190.0],"min":[-3658.0,-30246.0,-25120.0],"normalized":true,"type":"VEC3"},{"bufferView":7,"componentType":5120,"count":1536,"normalized":true,"type":"VEC3"},{"bufferView":8,"componentType":5123,"count":2112,"type":"SCALAR"},{"bufferView":9,"componentType":5122,"count":1300,"max":[17801.0,-28191.0,-18594.0],"min":[5516.0,-31885.0,-22901.0],"normalized":true,"type":"VEC3"},{"bufferView":10,"componentType":5120,"count":1300,"normalized":true,"type":"VEC3"},{"bufferView":11,"componentType":5123,"count":1950,"type":"SCALAR"},{"bufferView":12,"componentType":5122,"count":304,"max":[9997.0,-27744.0,-26688.0],"min":[5852.0,-32630.0,-30289.0],"normalized":true,"type":"VEC3"},{"bufferView":13,"componentType":5120,"count":304,"normalized":true,"type":"VEC3"},{"bufferView":14,"componentType":5123,"count":498,"type":"SCALAR"},{"bufferView":15,"componentType":5122,"count":192,"max":[28651.0,678.0,-23301.0],"min":[-24689.0,-6591.0,-23464.0],"normalized":true,"type":"VEC3"},{"bufferView":16,"componentType":5120,"count":192,"normalized":true,"type":"VEC3"},{"bufferView":17,"componentType":5123,"count":264,"type":"SCALAR"},{"bufferView":18,"componentType":5122,"count":288,"max":[17678.0,916.0,-21345.0],"min":[-9754.0,-21785.0,-23464.0],"normalized":true,"type":"VEC3"},{"bufferView":19,"componentType":5120,"count":288,"normalized":true,"type":"VEC3"},{"bufferView":20,"componentType":5123,"count":396,"type":"SCALAR"},{"bufferView":21,"componentType":5122,"count":35260,"max":[32767.0,32767.0,32672.0],"min":[-32767.0,-32767.0,-32767.0],"normalized":true,"type":"VEC3"},{"bufferView":22,"componentType":5120,"count":35260,"normalized":true,"type":"VEC3"},{"bufferView":23,"componentType":5123,"count":50832,"type":"SCALAR"},{"bufferView":24,"componentType":5122,"count":200,"max":[13365.0,-24657.0,-20431.0],"min":[7971.0,-27732.0,-22966.0],"normalized":true,"type":"VEC3"},{"bufferView":25,"componentType":5120,"count":200,"normalized":true,"type":"VEC3"},{"bufferView":26,"componentType":5123,"count":300,"type":"SCALAR"},{"bufferView":27,"componentType":5122,"count":40,"max":[32584.0,32256.0,32403.0],"min":[-32584.0,2742.0,-25609.0],"normalized":true,"type":"VEC3"},{"bufferView":28,"componentType":5120,"count":40,"normalized":true,"type":"VEC3"},{"bufferView":29,"componentType":5123,"count":60,"type":"SCALAR"},{"bufferView":30,"componentType":5122,"count":4836,"max":[31760.0,32256.0,30233.0],"min":[-31760.0,-30246.0,-23439.0],"normalized":true,"type":"VEC3"},{"bufferView":31,"componentType":5120,"count":4836,"normalized":true,"type":"VEC3"},{"bufferView":32,"componentType":5123,"count":7044,"type":"SCALAR"},{"bufferView":33,"componentType":5122,"count":1344,"max":[31214.0,5504.0,30233.0],"min":[-31214.0,-22500.0,-23439.0],"normalized":true,"type":"VEC3"},{"bufferView":34,"componentType":5120,"count":1344,"normalized":true,"type":"VEC3"},{"bufferView":35,"componentType":5123,"count":1848,"type":"SCALAR"},{"bufferView":36,"componentType":5122,"count":816,"max":[29504.0,-6424.0,-17462.0],"min":[-25542.0,-30997.0,-25501.0],"normalized":true,"type":"VEC3"},{"bufferView":37,"componentType":5120,"count":816,"normalized":true,"type":"VEC3"},{"bufferView":38,"componentType":5123,"count":1266,"type":"SCALAR"},{"bufferView":39,"componentType":5122,"count":892,"max":[32584.0,32504.0,32767.0],"min":[-32584.0,2983.0,-25971.0],"normalized":true,"type":"VEC3"},{"bufferView":40,"componentType":5120,"count":892,"normalized":true,"type":"VEC3"},{"bufferView":41,"componentType":5121,"count":892,"normalized":true,"type":"VEC4"},{"bufferView":42,"componentType":5123,"count":1350,"type":"SCALAR"},{"bufferView":43,"componentType":5122,"count":778,"max":[21031.0,-17436.0,-17190.0],"min":[1524.0,-30246.0,-24306.0],"normalized":true,"type":"VEC3"},{"bufferView":44,"componentType":5120,"count":778,"normalized":true,"type":"VEC3"},{"bufferView":45,"componentType":5123,"count":1176,"type":"SCALAR"},{"bufferView":46,"componentType":5122,"count":1044,"max":[26213.0,17508.0,-17238.0],"min":[-3576.0,-30263.0,-25076.0],"normalized":true,"type":"VEC3"},{"bufferView":47,"componentType":5120,"count":1044,"normalized":true,"type":"VEC3"},{"bufferView":48,"componentType":5123,"count":1044,"type":"SCALAR"},{"bufferView":49,"componentType":5122,"count":23322,"max":[32767.0,32767.0,32767.0],"min":[-32767.0,-32767.0,-32767.0],"normalized":true,"type":"VEC3"},{"bufferView":50,"componentType":5120,"count":23322,"normalized":true,"type":"VEC3"},{"bufferView":51,"componentType":5123,"count":23322,"type":"SCALAR"},{"bufferView":52,"componentType":5122,"count":36,"max":[32584.0,32258.0,32393.0],"min":[-32584.0,2831.0,-25499.0],"normalized":true,"type":"VEC3"},{"bufferView":53,"componentType":5120,"count":36,"normalized":true,"type":"VEC3"},{"bufferView":54,"componentType":5123,"count":36,"type":"SCALAR"},{"bufferView":55,"componentType":5122,"count":5277,"max":[31760.0,32258.0,30285.0],"min":[-31760.0,-32647.0,-30256.0],"normalized":true,"type":"VEC3"},{"bufferView":56,"componentType":5120,"count":5277,"normalized":true,"type":"VEC3"},{"bufferView":57,"componentType":5123,"count":5277,"type":"SCALAR"},{"bufferView":58,"componentType":5122,"count":804,"max":[31169.0,5439.0,30285.0],"min":[-31169.0,-22515.0,-23446.0],"normalized":true,"type":"VEC3"},{"bufferView":59,"componentType":5120,"count":804,"normalized":true,"type":"VEC3"},{"bufferView":60,"componentType":5123,"count":804,"type":"SCALAR"},{"bufferView":61,"componentType":5122,"count":660,"max":[32584.0,32379.0,32514.0],"min":[-32584.0,2976.0,-25983.0],"normalized":true,"type":"VEC3"},{"bufferView":62,"componentType":5120,"count":660,"normalized":true,"type":"VEC3"},{"bufferView":63,"componentType":5121,"count":660,"normalized":true,"type":"VEC4"},{"bufferView":64,"componentType":5123,"count":660,"type":"SCALAR"},{"bufferView":65,"componentType":5122,"count":552,"max":[21031.0,-17508.0,-17183.0],"min":[1585.0,-30263.0,-24278.0],"normalized":true,"type":"VEC3"},{"bufferView":66,"componentType":5120,"count":552,"normalized":true,"type":"VEC3"},{"bufferView":67,"componentType":5123,"count":552,"type":"SCALAR"},{"bufferView":68,"componentType":5122,"count":6345,"max":[32767.0,32767.0,32767.0],"min":[-32767.0,-32767.0,-32767.0],"normalized":true,"type":"VEC3"},{"bufferView":69,"componentType":5120,"count":6345,"normalized":true,"type":"VEC3"},{"bufferView":70,"componentType":5123,"count":6345,"type":"SCALAR"},{"bufferView":71,"componentType":5122,"count":2421,"max":[32714.0,32488.0,32398.0],"min":[-32739.0,-32455.0,-30040.0],"normalized":true,"type":"VEC3"},{"bufferView":72,"componentType":5120,"count":2421,"normalized":true,"type":"VEC3"},{"bufferView":73,"componentType":5123,"count":2421,"type":"SCALAR"},{"bufferView":74,"componentType":5122,"count":210,"max":[32714.0,32610.0,32491.0],"min":[-32739.0,3324.0,-24774.0],"normalized":true,"type":"VEC3"},{"bufferView":75,"componentType":5120,"count":210,"normalized":true,"type":"VEC3"},{"bufferView":76,"componentType":5121,"count":210,"normalized":true,"type":"VEC4"},{"bufferView":77,"componentType":5123,"count":210,"type":"SCALAR"},{"bufferView":78,"componentType":5122,"count":1647,"max":[32767.0,32767.0,32767.0],"min":[-32767.0,-32767.0,-32767.0],"normalized":true,"type":"VEC3"},{"bufferView":79,"componentType":5120,"count":1647,"normalized":true,"type":"VEC3"},{"bufferView":80,"componentType":5123,"count":1647,"type":"SCALAR"},{"bufferView":81,"componentType":5122,"count":42,"max":[32724.0,25052.0,29748.0],"min":[-32759.0,6794.0,-22730.0],"normalized":true,"type":"VEC3"},{"bufferView":82,"componentType":5120,"count":42,"normalized":true,"type":"VEC3"},{"bufferView":83,"componentType":5121,"count":42,"normalized":true,"type":"VEC4"},{"bufferView":84,"componentType":5123,"count":42,"type":"SCALAR"},{"bufferView":85,"componentType":5122,"count":14196,"max":[32767.0,32767.0,32767.0],"min":[-32767.0,-32767.0,-32767.0],"normalized":true,"type":"VEC3"},{"bufferView":86,"componentType":5120,"count":14196,"normalized":true,"type":"VEC3"},{"bufferView":87,"componentType":5123,"count":23556,"type":"SCALAR"},{"bufferView":88,"componentType":5122,"count":10992,"max":[32767.0,32767.0,32767.0],"min":[-32767.0,-32767.0,-32767.0],"normalized":true,"type":"VEC3"},{"bufferView":89,"componentType":5120,"count":10992,"normalized":true,"type":"VEC3"},{"bufferView":90,"componentType":5123,"count":10992,"type":"SCALAR"},{"bufferView":91,"componentType":5122,"count":3270,"max":[32767.0,32767.0,32767.0],"min":[-32767.0,-32767.0,-32767.0],"normalized":true,"type":"VEC3"},{"bufferView":92,"componentType":5120,"count":3270,"normalized":true,"type":"VEC3"},{"bufferView":93,"componentType":5123,"count":3270,"type":"SCALAR"},{"bufferView":94,"componentType":5122,"count":576,"max":[32767.0,32767.0,32767.0],"min":[-32767.0,-32767.0,-32767.0],"normalized":true,"type":"VEC3"},{"bufferView":95,"componentType":5120,"count":576,"normalized":true,"type":"VEC3"},{"bufferView":96,"componentType":5123,"count":576,"type":"SCALAR"},{"bufferView":97,"componentType":5122,"count":452,"max":[17268.0,-8410.0,26294.0],"min":[-16632.0,-32327.0,-11233.0],"normalized":true,"type":"VEC3"},{"bufferView":98,"componentType":5120,"count":452,"normalized":true,"type":"VEC3"},{"bufferView":99,"componentType":5123,"count":708,"type":"SCALAR"},{"bufferView":100,"componentType":5122,"count":70,"max":[10019.0,5029.0,29765.0],"min":[-17967.0,-7323.0,-21034.0],"normalized":true,"type":"VEC3"},{"bufferView":101,"componentType":5120,"count":70,"normalized":true,"type":"VEC3"},{"bufferView":102,"componentType":5123,"count":324,"type":"SCALAR"},{"bufferView":103,"componentType":5122,"count":64,"max":[10019.0,-5470.0,-21595.0],"min":[-17967.0,-9436.0,-22530.0],"normalized":true,"type":"VEC3"},{"bufferView":104,"componentType":5120,"count":64,"normalized":true,"type":"VEC3"},{"bufferView":105,"componentType":5123,"count":270,"type":"SCALAR"},{"bufferView":106,"componentType":5122,"count":22520,"max":[32767.0,32767.0,32767.0],"min":[-32767.0,-32767.0,-32767.0],"normalized":true,"type":"VEC3"},{"bufferView":107,"componentType":5120,"count":22520,"normalized":true,"type":"VEC3"},{"bufferView":108,"componentType":5123,"count":33840,"type":"SCALAR"},{"bufferView":109,"componentType":5122,"count":224,"max":[4195.0,-31630.0,-216.0],"min":[-10416.0,-32505.0,-8482.0],"normalized":true,"type":"VEC3"},{"bufferView":110,"componentType":5120,"count":224,"normalized":true,"type":"VEC3"},{"bufferView":111,"componentType":5123,"count":360,"type":"SCALAR"},{"bufferView":112,"componentType":5122,"count":240,"max":[4961.0,-22364.0,19323.0],"min":[-12561.0,-31286.0,-7986.0],"normalized":true,"type":"VEC3"},{"bufferView":113,"componentType":5120,"count":240,"normalized":true,"type":"VEC3"},{"bufferView":114,"componentType":5123,"count":360,"type":"SCALAR"},{"bufferView":115,"componentType":5122,"count":144,"max":[10020.0,5042.0,29764.0],"min":[-17967.0,-6323.0,-16826.0],"normalized":true,"type":"VEC3"},{"bufferView":116,"componentType":5120,"count":144,"normalized":true,"type":"VEC3"},{"bufferView":117,"componentType":5123,"count":144,"type":"SCALAR"},{"bufferView":118,"componentType":5122,"count":180,"max":[10020.0,-5460.0,-21600.0],"min":[-17967.0,-8767.0,-22535.0],"normalized":true,"type":"VEC3"},{"bufferView":119,"componentType":5120,"count":180,"normalized":true,"type":"VEC3"},{"bufferView":120,"componentType":5123,"count":180,"type":"SCALAR"},{"bufferView":121,"componentType":5122,"count":17031,"max":[32767.0,32767.0,32767.0],"min":[-32767.0,-32767.0,-32767.0],"normalized":true,"type":"VEC3"},{"bufferView":122,"componentType":5120,"count":17031,"normalized":true,"type":"VEC3"},{"bufferView":123,"componentType":5123,"count":17031,"type":"SCALAR"},{"bufferView":124,"componentType":5122,"count":42,"max":[10016.0,3142.0,23861.0],"min":[-15976.0,-5993.0,-18470.0],"normalized":true,"type":"VEC3"},{"bufferView":125,"componentType":5120,"count":42,"normalized":true,"type":"VEC3"},{"bufferView":126,"componentType":5123,"count":42,"type":"SCALAR"},{"bufferView":127,"componentType":5122,"count":4992,"max":[32767.0,32767.0,32767.0],"min":[-32767.0,-32767.0,-32767.0],"normalized":true,"type":"VEC3"},{"bufferView":128,"componentType":5120,"count":4992,"normalized":true,"type":"VEC3"},{"bufferView":129,"componentType":5123,"count":4992,"type":"SCALAR"},{"bufferView":130,"componentType":5122,"count":21,"max":[3462.0,2962.0,23204.0],"min":[-25813.0,-4727.0,-22264.0],"normalized":true,"type":"VEC3"},{"bufferView":131,"componentType":5120,"count":21,"normalized":true,"type":"VEC3"},{"bufferView":132,"componentType":5123,"count":21,"type":"SCALAR"},{"bufferView":133,"componentType":5122,"count":912,"max":[32767.0,32767.0,32767.0],"min":[-32767.0,-32767.0,-32767.0],"normalized":true,"type":"VEC3"},{"bufferView":134,"componentType":5120,"count":912,"normalized":true,"type":"VEC3"},{"bufferView":135,"componentType":5123,"count":912,"type":"SCALAR"},{"bufferView":136,"componentType":5122,"count":112,"normalized":true,"type":"VEC2"},{"bufferView":137,"componentType":5122,"count":96,"normalized":true,"type":"VEC2"},{"bufferView":138,"componentType":5122,"count":1536,"normalized":true,"type":"VEC2"},{"bufferView":139,"componentType":5122,"count":1300,"normalized":true,"type":"VEC2"},{"bufferView":140,"componentType":5122,"count":304,"normalized":true,"type":"VEC2"},{"bufferView":141,"componentType":5122,"count":192,"normalized":true,"type":"VEC2"},{"bufferView":142,"componentType":5122,"count":288,"normalized":true,"type":"VEC2"},{"bufferView":143,"componentType":5122,"count":35260,"normalized":true,"type":"VEC2"},{"bufferView":144,"componentType":5122,"count":200,"normalized":true,"type":"VEC2"},{"bufferView":145,"componentType":5122,"count":40,"normalized":true,"type":"VEC2"},{"bufferView":146,"componentType":5122,"count":4836,"normalized":true,"type":"VEC2"},{"bufferView":147,"componentType":5122,"count":1344,"normalized":true,"type":"VEC2"},{"bufferView":148,"componentType":5122,"count":816,"normalized":true,"type":"VEC2"},{"bufferView":149,"componentType":5122,"count":892,"normalized":true,"type":"VEC2"},{"bufferView":150,"componentType":5122,"count":778,"normalized":true,"type":"VEC2"},{"bufferView":151,"componentType":5122,"count":1044,"normalized":true,"type":"VEC2"},{"bufferView":152,"componentType":5122,"count":23322,"normalized":true,"type":"VEC2"},{"bufferView":153,"componentType":5122,"count":36,"normalized":true,"type":"VEC2"},{"bufferView":154,"componentType":5122,"count":5277,"normalized":true,"type":"VEC2"},{"bufferView":155,"componentType":5122,"count":804,"normalized":true,"type":"VEC2"},{"bufferView":156,"componentType":5122,"count":660,"normalized":true,"type":"VEC2"},{"bufferView":157,"componentType":5122,"count":552,"normalized":true,"type":"VEC2"},{"bufferView":158,"componentType":5122,"count":6345,"normalized":true,"type":"VEC2"},{"bufferView":159,"componentType":5122,"count":2421,"normalized":true,"type":"VEC2"},{"bufferView":160,"componentType":5122,"count":210,"normalized":true,"type":"VEC2"},{"bufferView":161,"componentType":5122,"count":1647,"normalized":true,"type":"VEC2"},{"bufferView":162,"componentType":5122,"count":42,"normalized":true,"type":"VEC2"},{"bufferView":163,"componentType":5122,"count":14196,"normalized":true,"type":"VEC2"},{"bufferView":164,"componentType":5122,"count":10992,"normalized":true,"type":"VEC2"},{"bufferView":165,"componentType":5122,"count":3270,"normalized":true,"type":"VEC2"},{"bufferView":166,"componentType":5122,"count":576,"normalized":true,"type":"VEC2"},{"bufferView":167,"componentType":5122,"count":452,"normalized":true,"type":"VEC2"},{"bufferView":168,"componentType":5122,"count":70,"normalized":true,"type":"VEC2"},{"bufferView":169,"componentType":5122,"count":64,"normalized":true,"type":"VEC2"},{"bufferView":170,"componentType":5122,"count":22520,"normalized":true,"type":"VEC2"},{"bufferView":171,"componentType":5122,"count":224,"normalized":true,"type":"VEC2"},{"bufferView":172,"componentType":5122,"count":240,"normalized":true,"type":"VEC2"},{"bufferView":173,"componentType":5122,"count":144,"normalized":true,"type":"VEC2"},{"bufferView":174,"componentType":5122,"count":180,"normalized":true,"type":"VEC2"},{"bufferView":175,"componentType":5122,"count":17031,"normalized":true,"type":"VEC2"},{"bufferView":176,"componentType":5122,"count":42,"normalized":true,"type":"VEC2"},{"bufferView":177,"componentType":5122,"count":4992,"normalized":true,"type":"VEC2"},{"bufferView":178,"componentType":5122,"count":21,"normalized":true,"type":"VEC2"},{"bufferView":179,"componentType":5122,"count":912,"normalized":true,"type":"VEC2"}],"asset":{"generator":"evermore assetgen","version":"2.0"},"bufferViews":[{"buffer":0,"byteLength":896,"byteOffset":0,"byteStride":8,"target":34962},{"buffer":0,"byteLength":448,"byteOffset":896,"byteStride":4,"target":34962},{"buffer":0,"byteLength":360,"byteOffset":1344,"target":34963},{"buffer":0,"byteLength":768,"byteOffset":1704,"byteStride":8,"target":34962},{"buffer":0,"byteLength":384,"byteOffset":2472,"byteStride":4,"target":34962},{"buffer":0,"byteLength":264,"byteOffset":2856,"target":34963},{"buffer":0,"byteLength":12288,"byteOffset":3120,"byteStride":8,"target":34962},{"buffer":0,"byteLength":6144,"byteOffset":15408,"byteStride":4,"target":34962},{"buffer":0,"byteLength":4224,"byteOffset":21552,"target":34963},{"buffer":0,"byteLength":10400,"byteOffset":25776,"byteStride":8,"target":34962},{"buffer":0,"byteLength":5200,"byteOffset":36176,"byteStride":4,"target":34962},{"buffer":0,"byteLength":3900,"byteOffset":41376,"target":34963},{"buffer":0,"byteLength":2432,"byteOffset":45276,"byteStride":8,"target":34962},{"buffer":0,"byteLength":1216,"byteOffset":47708,"byteStride":4,"target":34962},{"buffer":0,"byteLength":996,"byteOffset":48924,"target":34963},{"buffer":0,"byteLength":1536,"byteOffset":49920,"byteStride":8,"target":34962},{"buffer":0,"byteLength":768,"byteOffset":51456,"byteStride":4,"target":34962},{"buffer":0,"byteLength":528,"byteOffset":52224,"target":34963},{"buffer":0,"byteLength":2304,"byteOffset":52752,"byteStride":8,"target":34962},{"buffer":0,"byteLength":1152,"byteOffset":55056,"byteStride":4,"target":34962},{"buffer":0,"byteLength":792,"byteOffset":56208,"target":34963},{"buffer":0,"byteLength":282080,"byteOffset":57000,"byteStride":8,"target":34962},{"buffer":0,"byteLength":141040,"byteOffset":339080,"byteStride":4,"target":34962},{"buffer":0,"byteLength":101664,"byteOffset":480120,"target":34963},{"buffer":0,"byteLength":1600,"byteOffset":581784,"byteStride":8,"target":34962},{"buffer":0,"byteLength":800,"byteOffset":583384,"byteStride":4,"target":34962},{"buffer":0,"byteLength":600,"byteOffset":584184,"target":34963},{"buffer":0,"byteLength":320,"byteOffset":584784,"byteStride":8,"target":34962},{"buffer":0,"byteLength":160,"byteOffset":585104,"byteStride":4,"target":34962},{"buffer":0,"byteLength":120,"byteOffset":585264,"target":34963},{"buffer":0,"byteLength":38688,"byteOffset":585384,"byteStride":8,"target":34962},{"buffer":0,"byteLength":19344,"byteOffset":624072,"byteStride":4,"target":34962},{"buffer":0,"byteLength":14088,"byteOffset":643416,"target":34963},{"buffer":0,"byteLength":10752,"byteOffset":657504,"byteStride":8,"target":34962},{"buffer":0,"byteLength":5376,"byteOffset":668256,"byteStride":4,"target":34962},{"buffer":0,"byteLength":3696,"byteOffset":673632,"target":34963},{"buffer":0,"byteLength":6528,"byteOffset":677328,"byteStride":8,"target":34962},{"buffer":0,"byteLength":3264,"byteOffset":683856,"byteStride":4,"target":34962},{"buffer":0,"byteLength":2532,"byteOffset":687120,"target":34963},{"buffer":0,"byteLength":7136,"byteOffset":689652,"byteStride":8,"target":34962},{"buffer":0,"byteLength":3568,"byteOffset":696788,"byteStride":4,"target":34962},{"buffer":0,"byteLength":3568,"byteOffset":700356,"byteStride":4,"target":34962},{"buffer":0,"byteLength":2700,"byteOffset":703924,"target":34963},{"buffer":0,"byteLength":6224,"byteOffset":706624,"byteStride":8,"target":34962},{"buffer":0,"byteLength":3112,"byteOffset":712848,"byteStride":4,"target":34962},{"buffer":0,"byteLength":2352,"byteOffset":715960,"target":34963},{"buffer":0,"byteLength":8352,"byteOffset":718312,"byteStride":8,"target":34962},{"buffer":0,"byteLength":4176,"byteOffset":726664,"byteStride":4,"target":34962},{"buffer":0,"byteLength":2088,"byteOffset":730840,"target":34963},{"buffer":0,"byteLength":186576,"byteOffset":732928,"byteStride":8,"target":34962},{"buffer":0,"byteLength":93288,"byteOffset":919504,"byteStride":4,"target":34962},{"buffer":0,"byteLength":46644,"byteOffset":1012792,"target":34963},{"buffer":0,"byteLength":288,"byteOffset":1059436,"byteStride":8,"target":34962},{"buffer":0,"byteLength":144,"byteOffset":1059724,"byteStride":4,"target":34962},{"buffer":0,"byteLength":72,"byteOffset":1059868,"target":34963},{"buffer":0,"byteLength":42216,"byteOffset":1059940,"byteStride":8,"target":34962},{"buffer":0,"byteLength":21108,"byteOffset":1102156,"byteStride":4,"target":34962},{"buffer":0,"byteLength":10554,"byteOffset":1123264,"target":34963},{"buffer":0,"byteLength":6432,"byteOffset":1133820,"byteStride":8,"target":34962},{"buffer":0,"byteLength":3216,"byteOffset":1140252,"byteStride":4,"target":34962},{"buffer":0,"byteLength":1608,"byteOffset":1143468,"target":34963},{"buffer":0,"byteLength":5280,"byteOffset":1145076,"byteStride":8,"target":34962},{"buffer":0,"byteLength":2640,"byteOffset":1150356,"byteStride":4,"target":34962},{"buffer":0,"byteLength":2640,"byteOffset":1152996,"byteStride":4,"target":34962},{"buffer":0,"byteLength":1320,"byteOffset":1155636,"target":34963},{"buffer":0,"byteLength":4416,"byteOffset":1156956,"byteStride":8,"target":34962},{"buffer":0,"byteLength":2208,"byteOffset":1161372,"byteStride":4,"target":34962},{"buffer":0,"byteLength":1104,"byteOffset":1163580,"target":34963},{"buffer":0,"byteLength":50760,"byteOffset":1164684,"byteStride":8,"target":34962},{"buffer":0,"byteLength":25380,"byteOffset":1215444,"byteStride":4,"target":34962},{"buffer":0,"byteLength":12690,"byteOffset":1240824,"target":34963},{"buffer":0,"byteLength":19368,"byteOffset":1253516,"byteStride":8,"target":34962},{"buffer":0,"byteLength":9684,"byteOffset":1272884,"byteStride":4,"target":34962},{"buffer":0,"byteLength":4842,"byteOffset":1282568,"target":34963},{"buffer":0,"byteLength":1680,"byteOffset":1287412,"byteStride":8,"target":34962},{"buffer":0,"byteLength":840,"byteOffset":1289092,"byteStride":4,"target":34962},{"buffer":0,"byteLength":840,"byteOffset":1289932,"byteStride":4,"target":34962},{"buffer":0,"byteLength":420,"byteOffset":1290772,"target":34963},{"buffer":0,"byteLength":13176,"byteOffset":1291192,"byteStride":8,"target":34962},{"buffer":0,"byteLength":6588,"byteOffset":1304368,"byteStride":4,"target":34962},{"buffer":0,"byteLength":3294,"byteOffset":1310956,"target":34963},{"buffer":0,"byteLength":336,"byteOffset":1314252,"byteStride":8,"target":34962},{"buffer":0,"byteLength":168,"byteOffset":1314588,"byteStride":4,"target":34962},{"buffer":0,"byteLength":168,"byteOffset":1314756,"byteStride":4,"target":34962},{"buffer":0,"byteLength":84,"byteOffset":1314924,"target":34963},{"buffer":0,"byteLength":113568,"byteOffset":1315008,"byteStride":8,"target":34962},{"buffer":0,"byteLength":56784,"byteOffset":1428576,"byteStride":4,"target":34962},{"buffer":0,"byteLength":47112,"byteOffset":1485360,"target":34963},{"buffer":0,"byteLength":87936,"byteOffset":1532472,"byteStride":8,"target":34962},{"buffer":0,"byteLength":43968,"byteOffset":1620408,"byteStride":4,"target":34962},{"buffer":0,"byteLength":21984,"byteOffset":1664376,"target":34963},{"buffer":0,"byteLength":26160,"byteOffset":1686360,"byteStride":8,"target":34962},{"buffer":0,"byteLength":13080,"byteOffset":1712520,"byteStride":4,"target":34962},{"buffer":0,"byteLength":6540,"byteOffset":1725600,"target":34963},{"buffer":0,"byteLength":4608,"byteOffset":1732140,"byteStride":8,"target":34962},{"buffer":0,"byteLength":2304,"byteOffset":1736748,"byteStride":4,"target":34962},{"buffer":0,"byteLength":1152,"byteOffset":1739052,"target":34963},{"buffer":0,"byteLength":3616,"byteOffset":1740204,"byteStride":8,"target":34962},{"buffer":0,"byteLength":1808,"byteOffset":1743820,"byteStride":4,"target":34962},{"buffer":0,"byteLength":1416,"byteOffset":1745628,"target":34963},{"buffer":0,"byteLength":560,"byteOffset":1747044,"byteStride":8,"target":34962},{"buffer":0,"byteLength":280,"byteOffset":1747604,"byteStride":4,"target":34962},{"buffer":0,"byteLength":648,"byteOffset":1747884,"target":34963},{"buffer":0,"byteLength":512,"byteOffset":1748532,"byteStride":8,"target":34962},{"buffer":0,"byteLength":256,"byteOffset":1749044,"byteStride":4,"target":34962},{"buffer":0,"byteLength":540,"byteOffset":1749300,"target":34963},{"buffer":0,"byteLength":180160,"byteOffset":1749840,"byteStride":8,"target":34962},{"buffer":0,"byteLength":90080,"byteOffset":1930000,"byteStride":4,"target":34962},{"buffer":0,"byteLength":67680,"byteOffset":2020080,"target":34963},{"buffer":0,"byteLength":1792,"byteOffset":2087760,"byteStride":8,"target":34962},{"buffer":0,"byteLength":896,"byteOffset":2089552,"byteStride":4,"target":34962},{"buffer":0,"byteLength":720,"byteOffset":2090448,"target":34963},{"buffer":0,"byteLength":1920,"byteOffset":2091168,"byteStride":8,"target":34962},{"buffer":0,"byteLength":960,"byteOffset":2093088,"byteStride":4,"target":34962},{"buffer":0,"byteLength":720,"byteOffset":2094048,"target":34963},{"buffer":0,"byteLength":1152,"byteOffset":2094768,"byteStride":8,"target":34962},{"buffer":0,"byteLength":576,"byteOffset":2095920,"byteStride":4,"target":34962},{"buffer":0,"byteLength":288,"byteOffset":2096496,"target":34963},{"buffer":0,"byteLength":1440,"byteOffset":2096784,"byteStride":8,"target":34962},{"buffer":0,"byteLength":720,"byteOffset":2098224,"byteStride":4,"target":34962},{"buffer":0,"byteLength":360,"byteOffset":2098944,"target":34963},{"buffer":0,"byteLength":136248,"byteOffset":2099304,"byteStride":8,"target":34962},{"buffer":0,"byteLength":68124,"byteOffset":2235552,"byteStride":4,"target":34962},{"buffer":0,"byteLength":34062,"byteOffset":2303676,"target":34963},{"buffer":0,"byteLength":336,"byteOffset":2337740,"byteStride":8,"target":34962},{"buffer":0,"byteLength":168,"byteOffset":2338076,"byteStride":4,"target":34962},{"buffer":0,"byteLength":84,"byteOffset":2338244,"target":34963},{"buffer":0,"byteLength":39936,"byteOffset":2338328,"byteStride":8,"target":34962},{"buffer":0,"byteLength":19968,"byteOffset":2378264,"byteStride":4,"target":34962},{"buffer":0,"byteLength":9984,"byteOffset":2398232,"target":34963},{"buffer":0,"byteLength":168,"byteOffset":2408216,"byteStride":8,"target":34962},{"buffer":0,"byteLength":84,"byteOffset":2408384,"byteStride":4,"target":34962},{"buffer":0,"byteLength":42,"byteOffset":2408468,"target":34963},{"buffer":0,"byteLength":7296,"byteOffset":2408512,"byteStride":8,"target":34962},{"buffer":0,"byteLength":3648,"byteOffset":2415808,"byteStride":4,"target":34962},{"buffer":0,"byteLength":1824,"byteOffset":2419456,"target":34963},{"buffer":0,"byteLength":448,"byteOffset":2421280,"byteStride":4,"target":34962},{"buffer":0,"byteLength":384,"byteOffset":2421728,"byteStride":4,"target":34962},{"buffer":0,"byteLength":6144,"byteOffset":2422112,"byteStride":4,"target":34962},{"buffer":0,"byteLength":5200,"byteOffset":2428256,"byteStride":4,"target":34962},{"buffer":0,"byteLength":1216,"byteOffset":2433456,"byteStride":4,"target":34962},{"buffer":0,"byteLength":768,"byteOffset":2434672,"byteStride":4,"target":34962},{"buffer":0,"byteLength":1152,"byteOffset":2435440,"byteStride":4,"target":34962},{"buffer":0,"byteLength":141040,"byteOffset":2436592,"byteStride":4,"target":34962},{"buffer":0,"byteLength":800,"byteOffset":2577632,"byteStride":4,"target":34962},{"buffer":0,"byteLength":160,"byteOffset":2578432,"byteStride":4,"target":34962},{"buffer":0,"byteLength":19344,"byteOffset":2578592,"byteStride":4,"target":34962},{"buffer":0,"byteLength":5376,"byteOffset":2597936,"byteStride":4,"target":34962},{"buffer":0,"byteLength":3264,"byteOffset":2603312,"byteStride":4,"target":34962},{"buffer":0,"byteLength":3568,"byteOffset":2606576,"byteStride":4,"target":34962},{"buffer":0,"byteLength":3112,"byteOffset":2610144,"byteStride":4,"target":34962},{"buffer":0,"byteLength":4176,"byteOffset":2613256,"byteStride":4,"target":34962},{"buffer":0,"byteLength":93288,"byteOffset":2617432,"byteStride":4,"target":34962},{"buffer":0,"byteLength":144,"byteOffset":2710720,"byteStride":4,"target":34962},{"buffer":0,"byteLength":21108,"byteOffset":2710864,"byteStride":4,"target":34962},{"buffer":0,"byteLength":3216,"byteOffset":2731972,"byteStride":4,"target":34962},{"buffer":0,"byteLength":2640,"byteOffset":2735188,"byteStride":4,"target":34962},{"buffer":0,"byteLength":2208,"byteOffset":2737828,"byteStride":4,"target":34962},{"buffer":0,"byteLength":25380,"byteOffset":2740036,"byteStride":4,"target":34962},{"buffer":0,"byteLength":9684,"byteOffset":2765416,"byteStride":4,"target":34962},{"buffer":0,"byteLength":840,"byteOffset":2775100,"byteStride":4,"target":34962},{"buffer":0,"byteLength":6588,"byteOffset":2775940,"byteStride":4,"target":34962},{"buffer":0,"byteLength":168,"byteOffset":2782528,"byteStride":4,"target":34962},{"buffer":0,"byteLength":56784,"byteOffset":2782696,"byteStride":4,"target":34962},{"buffer":0,"byteLength":43968,"byteOffset":2839480,"byteStride":4,"target":34962},{"buffer":0,"byteLength":13080,"byteOffset":2883448,"byteStride":4,"target":34962},{"buffer":0,"byteLength":2304,"byteOffset":2896528,"byteStride":4,"target":34962},{"buffer":0,"byteLength":1808,"byteOffset":2898832,"byteStride":4,"target":34962},{"buffer":0,"byteLength":280,"byteOffset":2900640,"byteStride":4,"target":34962},{"buffer":0,"byteLength":256,"byteOffset":2900920,"byteStride":4,"target":34962},{"buffer":0,"byteLength":90080,"byteOffset":2901176,"byteStride":4,"target":34962},{"buffer":0,"byteLength":896,"byteOffset":2991256,"byteStride":4,"target":34962},{"buffer":0,"byteLength":960,"byteOffset":2992152,"byteStride":4,"target":34962},{"buffer":0,"byteLength":576,"byteOffset":2993112,"byteStride":4,"target":34962},{"buffer":0,"byteLength":720,"byteOffset":2993688,"byteStride":4,"target":34962},{"buffer":0,"byteLength":68124,"byteOffset":2994408,"byteStride":4,"target":34962},{"buffer":0,"byteLength":168,"byteOffset":3062532,"byteStride":4,"target":34962},{"buffer":0,"byteLength":19968,"byteOffset":3062700,"byteStride":4,"target":34962},{"buffer":0,"byteLength":84,"byteOffset":3082668,"byteStride":4,"target":34962},{"buffer":0,"byteLength":3648,"byteOffset":3082752,"byteStride":4,"target":34962}],"buffers":[{"byteLength":3086400,"uri":"chophouse.bin"}],"extensionsRequired":["KHR_mesh_quantization","KHR_texture_transform"],"extensionsUsed":["KHR_mesh_quantization","KHR_texture_transform","MSFT_lod"],"extras":{"hm":{"batching":true,"cellSize":16.0,"cells":[{"cullAt":null,"interior":null,"key":"0_0","lodPrims":[2],"lodTris":[104],"max":[4.83,6.14,4.83],"min":[-4.83,-0.1,-4.83]},{"cullAt":null,"interior":null,"key":"0_n1","lodPrims":[13,7,3,2],"lodTris":[23032,10565,2992,563],"max":[5.375,10.975,5.227],"min":[-5.375,-0.023,-6.838]},{"cullAt":null,"interior":null,"key":"n1_0","lodPrims":[1,1,1,1],"lodTris":[7852,3664,1090,192],"max":[3.837,0.022,8.701],"min":[-3.919,0.001,-6.967]},{"cullAt":null,"interior":null,"key":"n1_n1","lodPrims":[6,3,2,2],"lodTris":[11954,5785,1678,311],"max":[4.277,5.578,-4.526],"min":[-7.9,-0.04,-8.027]}],"instanced":[],"instancing":true,"interiors":[],"lod":true,"lodDistances":[15.0,40.0,100.0],"stats":{"groups":4,"lodPrims":[22,13,8,7],"lodTris":[42942,20118,5864,1170]},"venue":"chophouse"}},"images":[{"uri":"../textures/timber_charred_albedo.png"},{"uri":"../textures/timber_charred_orm.png"},{"uri":"../textures/timber_charred_normal.png"},{"uri":"../textures/rubble_albedo.png"},{"uri":"../textures/rubble_orm.png"},{"uri":"../textures/rubble_normal.png"},{"uri":"../textures/plaster_albedo.png"},{"uri":"../textures/plaster_orm.png"},{"uri":"../textures/plaster_normal.png"},{"uri":"../textures/plaster_shade_albedo.png"},{"uri":"../textures/plaster_shade_orm.png"},{"uri":"../textures/plaster_shade_normal.png"},{"uri":"../textures/kit_albedo.png"},{"uri":"../textures/kit_orm.png"},{"uri":"../textures/kit_normal.png"},{"uri":"../textures/oak_dark_albedo.png"},{"uri":"../textures/oak_dark_orm.png"},{"uri":"../textures/oak_dark_normal.png"},{"uri":"../textures/glass_albedo.png"},{"uri":"../textures/glass_orm.png"},{"uri":"../textures/glass_normal.png"},{"uri":"../textures/glass_emissive.png"},{"uri":"../textures/stone_albedo.png"},{"uri":"../textures/stone_orm.png"},{"uri":"../textures/stone_normal.png"},{"uri":"../textures/glass_lit_albedo.png"},{"uri":"../textures/glass_lit_orm.png"},{"uri":"../textures/glass_lit_normal.png"},{"uri":"../textures/glass_lit_emissive.png"},{"uri":"../textures/terracotta_albedo.png"},{"uri":"../textures/terracotta_orm.png"},{"uri":"../textures/terracotta_normal.png"},{"uri":"../textures/brick_albedo.png"},{"uri":"../textures/brick_orm.png"},{"uri":"../textures/brick_normal.png"},{"uri":"../textures/coal_albedo.png"},{"uri":"../textures/coal_orm.png"},{"uri":"../textures/coal_normal.png"},{"uri":"../textures/coal_emissive.png"},{"uri":"../textures/leather_albedo.png"},{"uri":"../textures/leather_orm.png"},{"uri":"../textures/leather_normal.png"},{"uri":"../textures/canvas_amber_albedo.png"},{"uri":"../textures/canvas_amber_orm.png"},{"uri":"../textures/canvas_amber_normal.png"},{"uri":"../textures/canvas_crimson_albedo.png"},{"uri":"../textures/canvas_crimson_orm.png"},{"uri":"../textures/canvas_crimson_normal.png"},{"uri":"../textures/sugar_albedo.png"},{"uri":"../textures/sugar_orm.png"},{"uri":"../textures/sugar_normal.png"},{"uri":"../textures/water_albedo.png"},{"uri":"../textures/water_orm.png"},{"uri":"../textures/water_normal.png"},{"uri":"../textures/endgrain_albedo.png"},{"uri":"../textures/endgrain_orm.png"},{"uri":"../textures/endgrain_normal.png"},{"uri":"../textures/alabaster_albedo.png"},{"uri":"../textures/alabaster_orm.png"},{"uri":"../textures/alabaster_normal.png"},{"uri":"../textures/mud_wet_albedo.png"},{"uri":"../textures/mud_wet_orm.png"},{"uri":"../textures/mud_wet_normal.png"}],"materials":[{"doubleSided":false,"name":"timber_charred","normalTexture":{"extensions":{"KHR_texture_transform":{"scale":[10.889931932903767,10.889931932903767]}},"index":2,"scale":1.0},"occlusionTexture":{"extensions":{"KHR_texture_transform":{"scale":[10.889931932903767,10.889931932903767]}},"index":1},"pbrMetallicRoughness":{"baseColorFactor":[1,1,1,1],"baseColorTexture":{"extensions":{"KHR_texture_transform":{"scale":[10.889931932903767,10.889931932903767]}},"index":0},"metallicFactor":1.0,"metallicRoughnessTexture":{"extensions":{"KHR_texture_transform":{"scale":[10.889931932903767,10.889931932903767]}},"index":1},"roughnessFactor":1.0}},{"doubleSided":false,"name":"rubble","normalTexture":{"extensions":{"KHR_texture_transform":{"scale":[10.889931932903767,10.889931932903767]}},"index":5,"scale":1.0},"occlusionTexture":{"extensions":{"KHR_texture_transform":{"scale":[10.889931932903767,10.889931932903767]}},"index":4},"pbrMetallicRoughness":{"baseColorFactor":[1,1,1,1],"baseColorTexture":{"extensions":{"KHR_texture_transform":{"scale":[10.889931932903767,10.889931932903767]}},"index":3},"metallicFactor":1.0,"metallicRoughnessTexture":{"extensions":{"KHR_texture_transform":{"scale":[10.889931932903767,10.889931932903767]}},"index":4},"roughnessFactor":1.0}},{"doubleSided":false,"name":"plaster","normalTexture":{"extensions":{"KHR_texture_transform":{"scale":[10.889931932903767,10.889931932903767]}},"index":8,"scale":1.0},"occlusionTexture":{"extensions":{"KHR_texture_transform":{"scale":[10.889931932903767,10.889931932903767]}},"index":7},"pbrMetallicRoughness":{"baseColorFactor":[1,1,1,1],"baseColorTexture":{"extensions":{"KHR_texture_transform":{"scale":[10.889931932903767,10.889931932903767]}},"index":6},"metallicFactor":1.0,"metallicRoughnessTexture":{"extensions":{"KHR_texture_transform":{"scale":[10.889931932903767,10.889931932903767]}},"index":7},"roughnessFactor":1.0}},{"doubleSided":false,"name":"plaster_shade","normalTexture":{"extensions":{"KHR_texture_transform":{"scale":[10.889931932903767,10.889931932903767]}},"index":11,"scale":1.0},"occlusionTexture":{"extensions":{"KHR_texture_transform":{"scale":[10.889931932903767,10.889931932903767]}},"index":10},"pbrMetallicRoughness":{"baseColorFactor":[1,1,1,1],"baseColorTexture":{"extensions":{"KHR_texture_transform":{"scale":[10.889931932903767,10.889931932903767]}},"index":9},"metallicFactor":1.0,"metallicRoughnessTexture":{"extensions":{"KHR_texture_transform":{"scale":[10.889931932903767,10.889931932903767]}},"index":10},"roughnessFactor":1.0}},{"doubleSided":true,"name":"kit","normalTexture":{"extensions":{"KHR_texture_transform":{"scale":[10.889931932903767,10.889931932903767]}},"index":14,"scale":1.0},"occlusionTexture":{"extensions":{"KHR_texture_transform":{"scale":[10.889931932903767,10.889931932903767]}},"index":13},"pbrMetallicRoughness":{"baseColorFactor":[1,1,1,1],"baseColorTexture":{"extensions":{"KHR_texture_transform":{"scale":[10.889931932903767,10.889931932903767]}},"index":12},"metallicFactor":1.0,"metallicRoughnessTexture":{"extensions":{"KHR_texture_transform":{"scale":[10.889931932903767,10.889931932903767]}},"index":13},"roughnessFactor":1.0}},{"doubleSided":false,"name":"oak_dark","normalTexture":{"extensions":{"KHR_texture_transform":{"scale":[10.889931932903767,10.889931932903767]}},"index":17,"scale":1.0},"occlusionTexture":{"extensions":{"KHR_texture_transform":{"scale":[10.889931932903767,10.889931932903767]}},"index":16},"pbrMetallicRoughness":{"baseColorFactor":[1,1,1,1],"baseColorTexture":{"extensions":{"KHR_texture_transform":{"scale":[10.889931932903767,10.889931932903767]}},"index":15},"metallicFactor":1.0,"metallicRoughnessTexture":{"extensions":{"KHR_texture_transform":{"scale":[10.889931932903767,10.889931932903767]}},"index":16},"roughnessFactor":1.0}},{"alphaMode":"BLEND","doubleSided":true,"emissiveFactor":[1.0,1.0,1.0],"emissiveTexture":{"extensions":{"KHR_texture_transform":{"scale":[10.889931932903767,10.889931932903767]}},"index":21},"name":"glass","normalTexture":{"extensions":{"KHR_texture_transform":{"scale":[10.889931932903767,10.889931932903767]}},"index":20,"scale":1.0},"occlusionTexture":{"extensions":{"KHR_texture_transform":{"scale":[10.889931932903767,10.889931932903767]}},"index":19},"pbrMetallicRoughness":{"baseColorFactor":[1,1,1,1],"baseColorTexture":{"extensions":{"KHR_texture_transform":{"scale":[10.889931932903767,10.889931932903767]}},"index":18},"metallicFactor":1.0,"metallicRoughnessTexture":{"extensions":{"KHR_texture_transform":{"scale":[10.889931932903767,10.889931932903767]}},"index":19},"roughnessFactor":1.0}},{"doubleSided":false,"name":"stone","normalTexture":{"extensions":{"KHR_texture_transform":{"scale":[10.889931932903767,10.889931932903767]}},"index":24,"scale":1.0},"occlusionTexture":{"extensions":{"KHR_texture_transform":{"scale":[10.889931932903767,10.889931932903767]}},"index":23},"pbrMetallicRoughness":{"baseColorFactor":[1,1,1,1],"baseColorTexture":{"extensions":{"KHR_texture_transform":{"scale":[10.889931932903767,10.889931932903767]}},"index":22},"metallicFactor":1.0,"metallicRoughnessTexture":{"extensions":{"KHR_texture_transform":{"scale":[10.889931932903767,10.889931932903767]}},"index":23},"roughnessFactor":1.0}},{"doubleSided":true,"emissiveFactor":[1.0,1.0,1.0],"emissiveTexture":{"extensions":{"KHR_texture_transform":{"scale":[10.889931932903767,10.889931932903767]}},"index":28},"name":"glass_lit","normalTexture":{"extensions":{"KHR_texture_transform":{"scale":[10.889931932903767,10.889931932903767]}},"index":27,"scale":1.0},"occlusionTexture":{"extensions":{"KHR_texture_transform":{"scale":[10.889931932903767,10.889931932903767]}},"index":26},"pbrMetallicRoughness":{"baseColorFactor":[1,1,1,1],"baseColorTexture":{"extensions":{"KHR_texture_transform":{"scale":[10.889931932903767,10.889931932903767]}},"index":25},"metallicFactor":1.0,"metallicRoughnessTexture":{"extensions":{"KHR_texture_transform":{"scale":[10.889931932903767,10.889931932903767]}},"index":26},"roughnessFactor":1.0}},{"doubleSided":false,"name":"terracotta","normalTexture":{"extensions":{"KHR_texture_transform":{"scale":[10.889931932903767,10.889931932903767]}},"index":31,"scale":1.0},"occlusionTexture":{"extensions":{"KHR_texture_transform":{"scale":[10.889931932903767,10.889931932903767]}},"index":30},"pbrMetallicRoughness":{"baseColorFactor":[1,1,1,1],"baseColorTexture":{"extensions":{"KHR_texture_transform":{"scale":[10.889931932903767,10.889931932903767]}},"index":29},"metallicFactor":1.0,"metallicRoughnessTexture":{"extensions":{"KHR_texture_transform":{"scale":[10.889931932903767,10.889931932903767]}},"index":30},"roughnessFactor":1.0}},{"doubleSided":false,"name":"brick","normalTexture":{"extensions":{"KHR_texture_transform":{"scale":[10.889931932903767,10.889931932903767]}},"index":34,"scale":1.0},"occlusionTexture":{"extensions":{"KHR_texture_transform":{"scale":[10.889931932903767,10.889931932903767]}},"index":33},"pbrMetallicRoughness":{"baseColorFactor":[1,1,1,1],"baseColorTexture":{"extensions":{"KHR_texture_transform":{"scale":[10.889931932903767,10.889931932903767]}},"index":32},"metallicFactor":1.0,"metallicRoughnessTexture":{"extensions":{"KHR_texture_transform":{"scale":[10.889931932903767,10.889931932903767]}},"index":33},"roughnessFactor":1.0}},{"doubleSided":false,"emissiveFactor":[1.0,1.0,1.0],"emissiveTexture":{"extensions":{"KHR_texture_transform":{"scale":[10.889931932903767,10.889931932903767]}},"index":38},"name":"coal","normalTexture":{"extensions":{"KHR_texture_transform":{"scale":[10.889931932903767,10.889931932903767]}},"index":37,"scale":1.0},"occlusionTexture":{"extensions":{"KHR_texture_transform":{"scale":[10.889931932903767,10.889931932903767]}},"index":36},"pbrMetallicRoughness":{"baseColorFactor":[1,1,1,1],"baseColorTexture":{"extensions":{"KHR_texture_transform":{"scale":[10.889931932903767,10.889931932903767]}},"index":35},"metallicFactor":1.0,"metallicRoughnessTexture":{"extensions":{"KHR_texture_transform":{"scale":[10.889931932903767,10.889931932903767]}},"index":36},"roughnessFactor":1.0}},{"doubleSided":false,"name":"leather","normalTexture":{"extensions":{"KHR_texture_transform":{"scale":[10.889931932903767,10.889931932903767]}},"index":41,"scale":1.0},"occlusionTexture":{"extensions":{"KHR_texture_transform":{"scale":[10.889931932903767,10.889931932903767]}},"index":40},"pbrMetallicRoughness":{"baseColorFactor":[1,1,1,1],"baseColorTexture":{"extensions":{"KHR_texture_transform":{"scale":[10.889931932903767,10.889931932903767]}},"index":39},"metallicFactor":1.0,"metallicRoughnessTexture":{"extensions":{"KHR_texture_transform":{"scale":[10.889931932903767,10.889931932903767]}},"index":40},"roughnessFactor":1.0}},{"doubleSided":true,"name":"canvas_amber","normalTexture":{"extensions":{"KHR_texture_transform":{"scale":[10.889931932903767,10.889931932903767]}},"index":44,"scale":1.0},"occlusionTexture":{"extensions":{"KHR_texture_transform":{"scale":[10.889931932903767,10.889931932903767]}},"index":43},"pbrMetallicRoughness":{"baseColorFactor":[1,1,1,1],"baseColorTexture":{"extensions":{"KHR_texture_transform":{"scale":[10.889931932903767,10.889931932903767]}},"index":42},"metallicFactor":1.0,"metallicRoughnessTexture":{"extensions":{"KHR_texture_transform":{"scale":[10.889931932903767,10.889931932903767]}},"index":43},"roughnessFactor":1.0}},{"doubleSided":true,"name":"canvas_crimson","normalTexture":{"extensions":{"KHR_texture_transform":{"scale":[10.889931932903767,10.889931932903767]}},"index":47,"scale":1.0},"occlusionTexture":{"extensions":{"KHR_texture_transform":{"scale":[10.889931932903767,10.889931932903767]}},"index":46},"pbrMetallicRoughness":{"baseColorFactor":[1,1,1,1],"baseColorTexture":{"extensions":{"KHR_texture_transform":{"scale":[10.889931932903767,10.889931932903767]}},"index":45},"metallicFactor":1.0,"metallicRoughnessTexture":{"extensions":{"KHR_texture_transform":{"scale":[10.889931932903767,10.889931932903767]}},"index":46},"roughnessFactor":1.0}},{"doubleSided":false,"name":"sugar","normalTexture":{"extensions":{"KHR_texture_transform":{"scale":[10.889931932903767,10.889931932903767]}},"index":50,"scale":1.0},"occlusionTexture":{"extensions":{"KHR_texture_transform":{"scale":[10.889931932903767,10.889931932903767]}},"index":49},"pbrMetallicRoughness":{"baseColorFactor":[1,1,1,1],"baseColorTexture":{"extensions":{"KHR_texture_transform":{"scale":[10.889931932903767,10.889931932903767]}},"index":48},"metallicFactor":1.0,"metallicRoughnessTexture":{"extensions":{"KHR_texture_transform":{"scale":[10.889931932903767,10.889931932903767]}},"index":49},"roughnessFactor":1.0}},{"alphaMode":"BLEND","doubleSided":false,"name":"water","normalTexture":{"extensions":{"KHR_texture_transform":{"scale":[10.889931932903767,10.889931932903767]}},"index":53,"scale":1.0},"occlusionTexture":{"extensions":{"KHR_texture_transform":{"scale":[10.889931932903767,10.889931932903767]}},"index":52},"pbrMetallicRoughness":{"baseColorFactor":[1,1,1,1],"baseColorTexture":{"extensions":{"KHR_texture_transform":{"scale":[10.889931932903767,10.889931932903767]}},"index":51},"metallicFactor":1.0,"metallicRoughnessTexture":{"extensions":{"KHR_texture_transform":{"scale":[10.889931932903767,10.889931932903767]}},"index":52},"roughnessFactor":1.0}},{"doubleSided":false,"name":"endgrain","normalTexture":{"extensions":{"KHR_texture_transform":{"scale":[10.889931932903767,10.889931932903767]}},"index":56,"scale":1.0},"occlusionTexture":{"extensions":{"KHR_texture_transform":{"scale":[10.889931932903767,10.889931932903767]}},"index":55},"pbrMetallicRoughness":{"baseColorFactor":[1,1,1,1],"baseColorTexture":{"extensions":{"KHR_texture_transform":{"scale":[10.889931932903767,10.889931932903767]}},"index":54},"metallicFactor":1.0,"metallicRoughnessTexture":{"extensions":{"KHR_texture_transform":{"scale":[10.889931932903767,10.889931932903767]}},"index":55},"roughnessFactor":1.0}},{"doubleSided":false,"name":"alabaster","normalTexture":{"extensions":{"KHR_texture_transform":{"scale":[10.889931932903767,10.889931932903767]}},"index":59,"scale":1.0},"occlusionTexture":{"extensions":{"KHR_texture_transform":{"scale":[10.889931932903767,10.889931932903767]}},"index":58},"pbrMetallicRoughness":{"baseColorFactor":[1,1,1,1],"baseColorTexture":{"extensions":{"KHR_texture_transform":{"scale":[10.889931932903767,10.889931932903767]}},"index":57},"metallicFactor":1.0,"metallicRoughnessTexture":{"extensions":{"KHR_texture_transform":{"scale":[10.889931932903767,10.889931932903767]}},"index":58},"roughnessFactor":1.0}},{"doubleSided":false,"name":"mud_wet","normalTexture":{"extensions":{"KHR_texture_transform":{"scale":[10.889931932903767,10.889931932903767]}},"index":62,"scale":1.0},"occlusionTexture":{"extensions":{"KHR_texture_transform":{"scale":[10.889931932903767,10.889931932903767]}},"index":61},"pbrMetallicRoughness":{"baseColorFactor":[1,1,1,1],"baseColorTexture":{"extensions":{"KHR_texture_transform":{"scale":[10.889931932903767,10.889931932903767]}},"index":60},"metallicFactor":1.0,"metallicRoughnessTexture":{"extensions":{"KHR_texture_transform":{"scale":[10.889931932903767,10.889931932903767]}},"index":61},"roughnessFactor":1.0}}],"meshes":[{"name":"chophouse#0_0","primitives":[{"attributes":{"NORMAL":1,"POSITION":0,"TEXCOORD_0":136},"indices":2,"material":1},{"attributes":{"NORMAL":4,"POSITION":3,"TEXCOORD_0":137},"indices":5,"material":0}]},{"name":"chophouse#0_n1","primitives":[{"attributes":{"NORMAL":7,"POSITION":6,"TEXCOORD_0":138},"indices":8,"material":10},{"attributes":{"NORMAL":10,"POSITION":9,"TEXCOORD_0":139},"indices":11,"material":11},{"attributes":{"NORMAL":13,"POSITION":12,"TEXCOORD_0":140},"indices":14,"material":17},{"attributes":{"NORMAL":16,"POSITION":15,"TEXCOORD_0":141},"indices":17,"material":6},{"attributes":{"NORMAL":19,"POSITION":18,"TEXCOORD_0":142},"indices":20,"material":8},{"attributes":{"NORMAL":22,"POSITION":21,"TEXCOORD_0":143},"indices":23,"material":4},{"attributes":{"NORMAL":25,"POSITION":24,"TEXCOORD_0":144},"indices":26,"material":12},{"attributes":{"NORMAL":28,"POSITION":27,"TEXCOORD_0":145},"indices":29,"material":5},{"attributes":{"NORMAL":31,"POSITION":30,"TEXCOORD_0":146},"indices":32,"material":2},{"attributes":{"NORMAL":34,"POSITION":33,"TEXCOORD_0":147},"indices":35,"material":3},{"attributes":{"NORMAL":37,"POSITION":36,"TEXCOORD_0":148},"indices":38,"material":7},{"attributes":{"COLOR_0":41,"NORMAL":40,"POSITION":39,"TEXCOORD_0":149},"indices":42,"material":9},{"attributes":{"NORMAL":44,"POSITION":43,"TEXCOORD_0":150},"indices":45,"material":0}]},{"name":"chophouse#0_n1$lod1","primitives":[{"attributes":{"NORMAL":47,"POSITION":46,"TEXCOORD_0":151},"indices":48,"material":10},{"attributes":{"NORMAL":50,"POSITION":49,"TEXCOORD_0":152},"indices":51,"material":4},{"attributes":{"NORMAL":53,"POSITION":52,"TEXCOORD_0":153},"indices":54,"material":5},{"attributes":{"NORMAL":56,"POSITION":55,"TEXCOORD_0":154},"indices":57,"material":2},{"attributes":{"NORMAL":59,"POSITION":58,"TEXCOORD_0":155},"indices":60,"material":3},{"attributes":{"COLOR_0":63,"NORMAL":62,"POSITION":61,"TEXCOORD_0":156},"indices":64,"material":9},{"attributes":{"NORMAL":66,"POSITION":65,"TEXCOORD_0":157},"indices":67,"material":0}]},{"name":"chophouse#0_n1$lod2","primitives":[{"attributes":{"NORMAL":69,"POSITION":68,"TEXCOORD_0":158},"indices":70,"material":4},{"attributes":{"NORMAL":72,"POSITION":71,"TEXCOORD_0":159},"indices":73,"material":2},{"attributes":{"COLOR_0":76,"NORMAL":75,"POSITION":74,"TEXCOORD_0":160},"indices":77,"material":9}]},{"name":"chophouse#0_n1$lod3","primitives":[{"attributes":{"NORMAL":79,"POSITION":78,"TEXCOORD_0":161},"indices":80,"material":2},{"attributes":{"COLOR_0":83,"NORMAL":82,"POSITION":81,"TEXCOORD_0":162},"indices":84,"material":9}]},{"name":"chophouse#n1_0","primitives":[{"attributes":{"NORMAL":86,"POSITION":85,"TEXCOORD_0":163},"indices":87,"material":19}]},{"name":"chophouse#n1_0$lod1","primitives":[{"attributes":{"NORMAL":89,"POSITION":88,"TEXCOORD_0":164},"indices":90,"material":19}]},{"name":"chophouse#n1_0$lod2","primitives":[{"attributes":{"NORMAL":92,"POSITION":91,"TEXCOORD_0":165},"indices":93,"material":19}]},{"name":"chophouse#n1_0$lod3","primitives":[{"attributes":{"NORMAL":95,"POSITION":94,"TEXCOORD_0":166},"indices":96,"material":19}]},{"name":"chophouse#n1_n1","primitives":[{"attributes":{"NORMAL":98,"POSITION":97,"TEXCOORD_0":167},"indices":99,"material":18},{"attributes":{"NORMAL":101,"POSITION":100,"TEXCOORD_0":168},"indices":102,"material":13},{"attributes":{"NORMAL":104,"POSITION":103,"TEXCOORD_0":169},"indices":105,"material":14},{"attributes":{"NORMAL":107,"POSITION":106,"TEXCOORD_0":170},"indices":108,"material":4},{"attributes":{"NORMAL":110,"POSITION":109,"TEXCOORD_0":171},"indices":111,"material":15},{"attributes":{"NORMAL":113,"POSITION":112,"TEXCOORD_0":172},"indices":114,"material":16}]},{"name":"chophouse#n1_n1$lod1","primitives":[{"attributes":{"NORMAL":116,"POSITION":115,"TEXCOORD_0":173},"indices":117,"material":13},{"attributes":{"NORMAL":119,"POSITION":118,"TEXCOORD_0":174},"indices":120,"material":14},{"attributes":{"NORMAL":122,"POSITION":121,"TEXCOORD_0":175},"indices":123,"material":4}]},{"name":"chophouse#n1_n1$lod2","primitives":[{"attributes":{"NORMAL":125,"POSITION":124,"TEXCOORD_0":176},"indices":126,"material":13},{"attributes":{"NORMAL":128,"POSITION":127,"TEXCOORD_0":177},"indices":129,"material":4}]},{"name":"chophouse#n1_n1$lod3","primitives":[{"attributes":{"NORMAL":131,"POSITION":130,"TEXCOORD_0":178},"indices":132,"material":13},{"attributes":{"NORMAL":134,"POSITION":133,"TEXCOORD_0":179},"indices":135,"material":4}]}],"nodes":[{"extras":{"hm":{"cell":"0_0","cullAt":null,"interior":null,"lod":0,"max":[4.83,6.14,4.83],"min":[-4.83,-0.1,-4.83],"prims":2,"tris":104,"venue":"chophouse"}},"mesh":0,"name":"chophouse#0_0","scale":[4.829999923706055,3.119999885559082,4.829999923706055],"translation":[0.0,3.0199999809265137,0.0]},{"extensions":{"MSFT_lod":{"ids":[2,3,4]}},"extras":{"MSFT_screencoverage":[1.0,0.46937,0.18775,0.0],"hm":{"cell":"0_n1","cullAt":null,"interior":null,"lod":0,"max":[5.375,10.975,5.227],"min":[-5.375,-0.023,-6.838],"prims":13,"tris":23032,"venue":"chophouse"}},"mesh":1,"name":"chophouse#0_n1","scale":[5.375200271606445,5.499228000640869,6.032320022583008],"translation":[0.0,5.476192951202393,-0.805382251739502]},{"extras":{"hm":{"cell":"0_n1","cullAt":null,"interior":null,"lod":1,"max":[5.375,10.975,5.227],"min":[-5.375,-0.023,-6.838],"prims":7,"tris":10565,"venue":"chophouse"}},"mesh":2,"name":"chophouse#0_n1$lod1","scale":[5.375200271606445,5.4975433349609375,6.019680023193359],"translation":[0.0,5.477476119995117,-0.8132286071777344]},{"extras":{"hm":{"cell":"0_n1","cullAt":null,"interior":null,"lod":2,"max":[5.375,10.975,5.227],"min":[-5.375,-0.023,-6.838],"prims":3,"tris":2992,"venue":"chophouse"}},"mesh":3,"name":"chophouse#0_n1$lod2","scale":[5.351827621459961,5.474185943603516,6.007626533508301],"translation":[0.002039194107055664,5.462005615234375,-0.8022887706756592]},{"extras":{"hm":{"cell":"0_n1","cullAt":null,"interior":null,"lod":3,"max":[5.375,10.975,5.227],"min":[-5.375,-0.023,-6.838],"prims":2,"tris":563,"venue":"chophouse"}},"mesh":4,"name":"chophouse#0_n1$lod3","scale":[5.3493828773498535,5.466022968292236,5.8456315994262695],"translation":[0.0029082298278808594,5.456228733062744,-0.7128925323486328]},{"extensions":{"MSFT_lod":{"ids":[6,7,8]}},"extras":{"MSFT_screencoverage":[1.0,0.4198,0.16792,0.0],"hm":{"cell":"n1_0","cullAt":null,"interior":null,"lod":0,"max":[3.837,0.022,8.701],"min":[-3.919,0.001,-6.967],"prims":1,"tris":7852,"venue":"chophouse"}},"mesh":5,"name":"chophouse#n1_0","scale":[3.8777761459350586,0.010499999858438969,7.8341569900512695],"translation":[-0.04072558879852295,0.011500000022351742,0.8673217296600342]},{"extras":{"hm":{"cell":"n1_0","cullAt":null,"interior":null,"lod":1,"max":[3.837,0.022,8.701],"min":[-3.919,0.001,-6.967],"prims":1,"tris":3664,"venue":"chophouse"}},"mesh":6,"name":"chophouse#n1_0$lod1","scale":[3.8775532245635986,0.010499999858438969,7.833687782287598],"translation":[-0.04050254821777344,0.011500000022351742,0.8672599792480469]},{"extras":{"hm":{"cell":"n1_0","cullAt":null,"interior":null,"lod":2,"max":[3.837,0.022,8.701],"min":[-3.919,0.001,-6.967],"prims":1,"tris":1090,"venue":"chophouse"}},"mesh":7,"name":"chophouse#n1_0$lod2","scale":[3.877068519592285,0.009736363776028156,7.833312034606934],"translation":[-0.04076039791107178,0.012263636104762554,0.8676354885101318]},{"extras":{"hm":{"cell":"n1_0","cullAt":null,"interior":null,"lod":3,"max":[3.837,0.022,8.701],"min":[-3.919,0.001,-6.967],"prims":1,"tris":192,"venue":"chophouse"}},"mesh":8,"name":"chophouse#n1_0$lod3","scale":[3.504240036010742,0.008642317727208138,7.388298034667969],"translation":[-0.41358888149261475,0.01185995526611805,0.5302155017852783]},{"extensions":{"MSFT_lod":{"ids":[10,11,12]}},"extras":{"MSFT_screencoverage":[0.88746,0.3328,0.13312,0.0],"hm":{"cell":"n1_n1","cullAt":null,"interior":null,"lod":0,"max":[4.277,5.578,-4.526],"min":[-7.9,-0.04,-8.027],"prims":6,"tris":11954,"venue":"chophouse"}},"mesh":9,"name":"chophouse#n1_n1","scale":[6.088330268859863,2.8088998794555664,1.750150442123413],"translation":[-1.811669111251831,2.768899917602539,-6.27655029296875]},{"extras":{"hm":{"cell":"n1_n1","cullAt":null,"interior":null,"lod":1,"max":[4.277,5.578,-4.526],"min":[-7.9,-0.04,-8.027],"prims":3,"tris":5785,"venue":"chophouse"}},"mesh":10,"name":"chophouse#n1_n1$lod1","scale":[6.088299751281738,2.8078999519348145,1.7499849796295166],"translation":[-1.8116998672485352,2.767899990081787,-6.276385307312012]},{"extras":{"hm":{"cell":"n1_n1","cullAt":null,"interior":null,"lod":2,"max":[4.277,5.578,-4.526],"min":[-7.9,-0.04,-8.027],"prims":2,"tris":1678,"venue":"chophouse"}},"mesh":11,"name":"chophouse#n1_n1$lod2","scale":[6.087281227111816,2.801845073699951,1.5833511352539062],"translation":[-1.8106813430786133,2.773383617401123,-6.2824907302856445]},{"extras":{"hm":{"cell":"n1_n1","cullAt":null,"interior":null,"lod":3,"max":[4.277,5.578,-4.526],"min":[-7.9,-0.04,-8.027],"prims":2,"tris":311,"venue":"chophouse"}},"mesh":12,"name":"chophouse#n1_n1$lod3","scale":[4.683812141418457,2.7966065406799316,1.473203420639038],"translation":[-0.444932222366333,2.7784523963928223,-6.174013137817383]}],"samplers":[{"magFilter":9729,"minFilter":9987,"wrapS":10497,"wrapT":10497}],"scene":0,"scenes":[{"nodes":[0,1,5,9]}],"textures":[{"sampler":0,"source":0},{"sampler":0,"source":1},{"sampler":0,"source":2},{"sampler":0,"source":3},{"sampler":0,"source":4},{"sampler":0,"source":5},{"sampler":0,"source":6},{"sampler":0,"source":7},{"sampler":0,"source":8},{"sampler":0,"source":9},{"sampler":0,"source":10},{"sampler":0,"source":11},{"sampler":0,"source":12},{"sampler":0,"source":13},{"sampler":0,"source":14},{"sampler":0,"source":15},{"sampler":0,"source":16},{"sampler":0,"source":17},{"sampler":0,"source":18},{"sampler":0,"source":19},{"sampler":0,"source":20},{"sampler":0,"source":21},{"sampler":0,"source":22},{"sampler":0,"source":23},{"sampler":0,"source":24},{"sampler":0,"source":25},{"sampler":0,"source":26},{"sampler":0,"source":27},{"sampler":0,"source":28},{"sampler":0,"source":29},{"sampler":0,"source":30},{"sampler":0,"source":31},{"sampler":0,"source":32},{"sampler":0,"source":33},{"sampler":0,"source":34},{"sampler":0,"source":35},{"sampler":0,"source":36},{"sampler":0,"source":37},{"sampler":0,"source":38},{"sampler":0,"source":39},{"sampler":0,"source":40},{"sampler":0,"source":41},{"sampler":0,"source":42},{"sampler":0,"source":43},{"sampler":0,"source":44},{"sampler":0,"source":45},{"sampler":0,"source":46},{"sampler":0,"source":47},{"sampler":0,"source":48},{"sampler":0,"source":49},{"sampler":0,"source":50},{"sampler":0,"source":51},{"sampler":0,"source":52},{"sampler":0,"source":53},{"sampler":0,"source":54},{"sampler":0,"source":55},{"sampler":0,"source":56},{"sampler":0,"source":57},{"sampler":0,"source":58},{"sampler":0,"source":59},{"sampler":0,"source":60},{"sampler":0,"source":61},{"sampler":0,"source":62}]}