{"accessors":[{"bufferView":0,"componentType":5122,"count":112,"max":[32767.0,-29245.0,27563.0],"min":[-32767.0,-32767.0,-30224.0],"normalized":true,"type":"VEC3"},{"bufferView":1,"componentType":5120,"count":112,"normalized":true,"type":"VEC3"},{"bufferView":2,"componentType":5123,"count":180,"type":"SCALAR"},{"bufferView":3,"componentType":5122,"count":192,"max":[13848.0,32767.0,19831.0],"min":[5253.0,-29245.0,15883.0],"normalized":true,"type":"VEC3"},{"bufferView":4,"componentType":5120,"count":192,"normalized":true,"type":"VEC3"},{"bufferView":5,"componentType":5123,"count":264,"type":"SCALAR"},{"bufferView":6,"componentType":5122,"count":96,"max":[28881.0,7927.0,25475.0],"min":[-28881.0,-29245.0,-28136.0],"normalized":true,"type":"VEC3"},{"bufferView":7,"componentType":5120,"count":96,"normalized":true,"type":"VEC3"},{"bufferView":8,"componentType":5123,"count":132,"type":"SCALAR"},{"bufferView":9,"componentType":5122,"count":5064,"max":[32189.0,-11311.0,32767.0],"min":[-20308.0,-29239.0,-32767.0],"normalized":true,"type":"VEC3"},{"bufferView":10,"componentType":5120,"count":5064,"normalized":true,"type":"VEC3"},{"bufferView":11,"componentType":5123,"count":8064,"type":"SCALAR"},{"bufferView":12,"componentType":5122,"count":84,"max":[32767.0,-29242.0,27464.0],"min":[-32767.0,-32767.0,-30122.0],"normalized":true,"type":"VEC3"},{"bufferView":13,"componentType":5120,"count":84,"normalized":true,"type":"VEC3"},{"bufferView":14,"componentType":5123,"count":84,"type":"SCALAR"},{"bufferView":15,"componentType":5122,"count":120,"max":[13918.0,32767.0,19776.0],"min":[5420.0,-29177.0,15941.0],"normalized":true,"type":"VEC3"},{"bufferView":16,"componentType":5120,"count":120,"normalized":true,"type":"VEC3"},{"bufferView":17,"componentType":5123,"count":120,"type":"SCALAR"},{"bufferView":18,"componentType":5122,"count":3801,"max":[32352.0,7967.0,32767.0],"min":[-28921.0,-29235.0,-32767.0],"normalized":true,"type":"VEC3"},{"bufferView":19,"componentType":5120,"count":3801,"normalized":true,"type":"VEC3"},{"bufferView":20,"componentType":5123,"count":3801,"type":"SCALAR"},{"bufferView":21,"componentType":5122,"count":36,"max":[32767.0,-29344.0,27437.0],"min":[-32767.0,-32767.0,-30100.0],"normalized":true,"type":"VEC3"},{"bufferView":22,"componentType":5120,"count":36,"normalized":true,"type":"VEC3"},{"bufferView":23,"componentType":5123,"count":36,"type":"SCALAR"},{"bufferView":24,"componentType":5122,"count":1149,"max":[32399.0,32767.0,32767.0],"min":[-28918.0,-29254.0,-32767.0],"normalized":true,"type":"VEC3"},{"bufferView":25,"componentType":5120,"count":1149,"normalized":true,"type":"VEC3"},{"bufferView":26,"componentType":5123,"count":1149,"type":"SCALAR"},{"bufferView":27,"componentType":5122,"count":36,"max":[32767.0,-29344.0,27877.0],"min":[-32767.0,-32767.0,-30397.0],"normalized":true,"type":"VEC3"},{"bufferView":28,"componentType":5120,"count":36,"normalized":true,"type":"VEC3"},{"bufferView":29,"componentType":5123,"count":36,"type":"SCALAR"},{"bufferView":30,"componentType":5122,"count":198,"max":[31782.0,32767.0,32767.0],"min":[-28918.0,-29250.0,-32767.0],"normalized":true,"type":"VEC3"},{"bufferView":31,"componentType":5120,"count":198,"normalized":true,"type":"VEC3"},{"bufferView":32,"componentType":5123,"count":198,"type":"SCALAR"},{"bufferView":33,"componentType":5122,"count":264,"max":[27538.0,-12542.0,-25801.0],"min":[-3667.0,-23478.0,-29206.0],"normalized":true,"type":"VEC3"},{"bufferView":34,"componentType":5120,"count":264,"normalized":true,"type":"VEC3"},{"bufferView":35,"componentType":5123,"count":420,"type":"SCALAR"},{"bufferView":36,"componentType":5122,"count":43582,"max":[32767.0,32767.0,32767.0],"min":[-32767.0,-32767.0,-32767.0],"normalized":true,"type":"VEC3"},{"bufferView":37,"componentType":5120,"count":43582,"normalized":true,"type":"VEC3"},{"bufferView":38,"componentType":5123,"count":62466,"type":"SCALAR"},{"bufferView":39,"componentType":5122,"count":40,"max":[32248.0,29089.0,32595.0],"min":[-32248.0,5411.0,-29959.0],"normalized":true,"type":"VEC3"},{"bufferView":40,"componentType":5120,"count":40,"normalized":true,"type":"VEC3"},{"bufferView":41,"componentType":5123,"count":60,"type":"SCALAR"},{"bufferView":42,"componentType":5122,"count":2196,"max":[28630.0,29089.0,31820.0],"min":[-28630.0,-29770.0,-29184.0],"normalized":true,"type":"VEC3"},{"bufferView":43,"componentType":5120,"count":2196,"normalized":true,"type":"VEC3"},{"bufferView":44,"componentType":5123,"count":3264,"type":"SCALAR"},{"bufferView":45,"componentType":5122,"count":864,"max":[28630.0,8687.0,31307.0],"min":[-28630.0,-29770.0,-28670.0],"normalized":true,"type":"VEC3"},{"bufferView":46,"componentType":5120,"count":864,"normalized":true,"type":"VEC3"},{"bufferView":47,"componentType":5123,"count":1188,"type":"SCALAR"},{"bufferView":48,"componentType":5122,"count":2292,"max":[22340.0,-4908.0,-26065.0],"min":[-17121.0,-30583.0,-32750.0],"normalized":true,"type":"VEC3"},{"bufferView":49,"componentType":5120,"count":2292,"normalized":true,"type":"VEC3"},{"bufferView":50,"componentType":5123,"count":3786,"type":"SCALAR"},{"bufferView":51,"componentType":5122,"count":31992,"max":[32767.0,32767.0,32767.0],"min":[-32767.0,-32767.0,-32767.0],"normalized":true,"type":"VEC3"},{"bufferView":52,"componentType":5120,"count":31992,"normalized":true,"type":"VEC3"},{"bufferView":53,"componentType":5123,"count":31992,"type":"SCALAR"},{"bufferView":54,"componentType":5122,"count":12,"max":[32035.0,28936.0,32618.0],"min":[-32035.0,5482.0,-29969.0],"normalized":true,"type":"VEC3"},{"bufferView":55,"componentType":5120,"count":12,"normalized":true,"type":"VEC3"},{"bufferView":56,"componentType":5123,"count":12,"type":"SCALAR"},{"bufferView":57,"componentType":5122,"count":1509,"max":[28539.0,29085.0,31842.0],"min":[-28562.0,-29802.0,-29193.0],"normalized":true,"type":"VEC3"},{"bufferView":58,"componentType":5120,"count":1509,"normalized":true,"type":"VEC3"},{"bufferView":59,"componentType":5123,"count":1509,"type":"SCALAR"},{"bufferView":60,"componentType":5122,"count":516,"max":[28539.0,8613.0,31286.0],"min":[-28539.0,-29786.0,-28637.0],"normalized":true,"type":"VEC3"},{"bufferView":61,"componentType":5120,"count":516,"normalized":true,"type":"VEC3"},{"bufferView":62,"componentType":5123,"count":516,"type":"SCALAR"},{"bufferView":63,"componentType":5122,"count":9648,"max":[32767.0,32767.0,32767.0],"min":[-32767.0,-32767.0,-32767.0],"normalized":true,"type":"VEC3"},{"bufferView":64,"componentType":5120,"count":9648,"normalized":true,"type":"VEC3"},{"bufferView":65,"componentType":5123,"count":9648,"type":"SCALAR"},{"bufferView":66,"componentType":5122,"count":414,"max":[28235.0,27536.0,31253.0],"min":[-28235.0,-29817.0,-29221.0],"normalized":true,"type":"VEC3"},{"bufferView":67,"componentType":5120,"count":414,"normalized":true,"type":"VEC3"},{"bufferView":68,"componentType":5123,"count":414,"type":"SCALAR"},{"bufferView":69,"componentType":5122,"count":156,"max":[27992.0,8575.0,31368.0],"min":[-27992.0,-29823.0,-28455.0],"normalized":true,"type":"VEC3"},{"bufferView":70,"componentType":5120,"count":156,"normalized":true,"type":"VEC3"},{"bufferView":71,"componentType":5123,"count":156,"type":"SCALAR"},{"bufferView":72,"componentType":5122,"count":1815,"max":[32767.0,32767.0,32767.0],"min":[-32767.0,-32767.0,-32767.0],"normalized":true,"type":"VEC3"},{"bufferView":73,"componentType":5120,"count":1815,"normalized":true,"type":"VEC3"},{"bufferView":74,"componentType":5123,"count":1815,"type":"SCALAR"},{"bufferView":75,"componentType":5122,"count":75,"max":[28813.0,27459.0,31190.0],"min":[-28794.0,-24855.0,-29958.0],"normalized":true,"type":"VEC3"},{"bufferView":76,"componentType":5120,"count":75,"normalized":true,"type":"VEC3"},{"bufferView":77,"componentType":5123,"count":75,"type":"SCALAR"},{"bufferView":78,"componentType":5122,"count":56,"max":[924.0,-18621.0,-31640.0],"min":[-19873.0,-20829.0,-31900.0],"normalized":true,"type":"VEC3"},{"bufferView":79,"componentType":5120,"count":56,"normalized":true,"type":"VEC3"},{"bufferView":80,"componentType":5123,"count":234,"type":"SCALAR"},{"bufferView":81,"componentType":5122,"count":192,"max":[9579.0,-10454.0,-28751.0],"min":[-15886.0,-10675.0,-29675.0],"normalized":true,"type":"VEC3"},{"bufferView":82,"componentType":5120,"count":192,"normalized":true,"type":"VEC3"},{"bufferView":83,"componentType":5123,"count":264,"type":"SCALAR"},{"bufferView":84,"componentType":5122,"count":3132,"max":[10354.0,-9472.0,-27282.0],"min":[-17006.0,-10554.0,-31008.0],"normalized":true,"type":"VEC3"},{"bufferView":85,"componentType":5120,"count":3132,"normalized":true,"type":"VEC3"},{"bufferView":86,"componentType":5123,"count":5220,"type":"SCALAR"},{"bufferView":87,"componentType":5122,"count":384,"max":[9489.0,-1698.0,-26295.0],"min":[-20085.0,-32749.0,-32767.0],"normalized":true,"type":"VEC3"},{"bufferView":88,"componentType":5120,"count":384,"normalized":true,"type":"VEC3"},{"bufferView":89,"componentType":5123,"count":528,"type":"SCALAR"},{"bufferView":90,"componentType":5122,"count":2274,"max":[12157.0,21620.0,24352.0],"min":[-20085.0,-32749.0,-30893.0],"normalized":true,"type":"VEC3"},{"bufferView":91,"componentType":5120,"count":2274,"normalized":true,"type":"VEC3"},{"bufferView":92,"componentType":5123,"count":3396,"type":"SCALAR"},{"bufferView":93,"componentType":5122,"count":4256,"max":[-898.0,-23228.0,-23636.0],"min":[-19590.0,-32767.0,-31159.0],"normalized":true,"type":"VEC3"},{"bufferView":94,"componentType":5120,"count":4256,"normalized":true,"type":"VEC3"},{"bufferView":95,"componentType":5123,"count":6636,"type":"SCALAR"},{"bufferView":96,"componentType":5122,"count":96,"max":[973.0,-32579.0,-29560.0],"min":[-2097.0,-32741.0,-30947.0],"normalized":true,"type":"VEC3"},{"bufferView":97,"componentType":5120,"count":96,"normalized":true,"type":"VEC3"},{"bufferView":98,"componentType":5123,"count":132,"type":"SCALAR"},{"bufferView":99,"componentType":5122,"count":668,"max":[32767.0,32767.0,32767.0],"min":[-32767.0,442.0,-30283.0],"normalized":true,"type":"VEC3"},{"bufferView":100,"componentType":5120,"count":668,"normalized":true,"type":"VEC3"},{"bufferView":101,"componentType":5121,"count":668,"normalized":true,"type":"VEC4"},{"bufferView":102,"componentType":5123,"count":1014,"type":"SCALAR"},{"bufferView":103,"componentType":5122,"count":240,"max":[9489.0,-1572.0,-26310.0],"min":[-20061.0,-32729.0,-32767.0],"normalized":true,"type":"VEC3"},{"bufferView":104,"componentType":5120,"count":240,"normalized":true,"type":"VEC3"},{"bufferView":105,"componentType":5123,"count":240,"type":"SCALAR"},{"bufferView":106,"componentType":5122,"count":1590,"max":[12112.0,21865.0,24323.0],"min":[-20072.0,-32737.0,-30878.0],"normalized":true,"type":"VEC3"},{"bufferView":107,"componentType":5120,"count":1590,"normalized":true,"type":"VEC3"},{"bufferView":108,"componentType":5123,"count":1590,"type":"SCALAR"},{"bufferView":109,"componentType":5122,"count":6411,"max":[32767.0,32767.0,32767.0],"min":[-32767.0,-32767.0,-31898.0],"normalized":true,"type":"VEC3"},{"bufferView":110,"componentType":5120,"count":6411,"normalized":true,"type":"VEC3"},{"bufferView":111,"componentType":5121,"count":6411,"normalized":true,"type":"VEC4"},{"bufferView":112,"componentType":5123,"count":6411,"type":"SCALAR"},{"bufferView":113,"componentType":5122,"count":2355,"max":[32767.0,32767.0,32767.0],"min":[-32767.0,-32767.0,-32767.0],"normalized":true,"type":"VEC3"},{"bufferView":114,"componentType":5120,"count":2355,"normalized":true,"type":"VEC3"},{"bufferView":115,"componentType":5121,"count":2355,"normalized":true,"type":"VEC4"},{"bufferView":116,"componentType":5123,"count":2355,"type":"SCALAR"},{"bufferView":117,"componentType":5122,"count":426,"max":[32767.0,32767.0,32767.0],"min":[-32767.0,-32767.0,-32767.0],"normalized":true,"type":"VEC3"},{"bufferView":118,"componentType":5120,"count":426,"normalized":true,"type":"VEC3"},{"bufferView":119,"componentType":5121,"count":426,"normalized":true,"type":"VEC4"},{"bufferView":120,"componentType":5123,"count":426,"type":"SCALAR"},{"bufferView":121,"componentType":5122,"count":112,"normalized":true,"type":"VEC2"},{"bufferView":122,"componentType":5122,"count":192,"normalized":true,"type":"VEC2"},{"bufferView":123,"componentType":5122,"count":96,"normalized":true,"type":"VEC2"},{"bufferView":124,"componentType":5122,"count":5064,"normalized":true,"type":"VEC2"},{"bufferView":125,"componentType":5122,"count":84,"normalized":true,"type":"VEC2"},{"bufferView":126,"componentType":5122,"count":120,"normalized":true,"type":"VEC2"},{"bufferView":127,"componentType":5122,"count":3801,"normalized":true,"type":"VEC2"},{"bufferView":128,"componentType":5122,"count":36,"normalized":true,"type":"VEC2"},{"bufferView":129,"componentType":5122,"count":1149,"normalized":true,"type":"VEC2"},{"bufferView":130,"componentType":5122,"count":36,"normalized":true,"type":"VEC2"},{"bufferView":131,"componentType":5122,"count":198,"normalized":true,"type":"VEC2"},{"bufferView":132,"componentType":5122,"count":264,"normalized":true,"type":"VEC2"},{"bufferView":133,"componentType":5122,"count":43582,"normalized":true,"type":"VEC2"},{"bufferView":134,"componentType":5122,"count":40,"normalized":true,"type":"VEC2"},{"bufferView":135,"componentType":5122,"count":2196,"normalized":true,"type":"VEC2"},{"bufferView":136,"componentType":5122,"count":864,"normalized":true,"type":"VEC2"},{"bufferView":137,"componentType":5122,"count":2292,"normalized":true,"type":"VEC2"},{"bufferView":138,"componentType":5122,"count":31992,"normalized":true,"type":"VEC2"},{"bufferView":139,"componentType":5122,"count":12,"normalized":true,"type":"VEC2"},{"bufferView":140,"componentType":5122,"count":1509,"normalized":true,"type":"VEC2"},{"bufferView":141,"componentType":5122,"count":516,"normalized":true,"type":"VEC2"},{"bufferView":142,"componentType":5122,"count":9648,"normalized":true,"type":"VEC2"},{"bufferView":143,"componentType":5122,"count":414,"normalized":true,"type":"VEC2"},{"bufferView":144,"componentType":5122,"count":156,"normalized":true,"type":"VEC2"},{"bufferView":145,"componentType":5122,"count":1815,"normalized":true,"type":"VEC2"},{"bufferView":146,"componentType":5122,"count":75,"normalized":true,"type":"VEC2"},{"bufferView":147,"componentType":5122,"count":56,"normalized":true,"type":"VEC2"},{"bufferView":148,"componentType":5122,"count":192,"normalized":true,"type":"VEC2"},{"bufferView":149,"componentType":5122,"count":3132,"normalized":true,"type":"VEC2"},{"bufferView":150,"componentType":5122,"count":384,"normalized":true,"type":"VEC2"},{"bufferView":151,"componentType":5122,"count":2274,"normalized":true,"type":"VEC2"},{"bufferView":152,"componentType":5122,"count":4256,"normalized":true,"type":"VEC2"},{"bufferView":153,"componentType":5122,"count":96,"normalized":true,"type":"VEC2"},{"bufferView":154,"componentType":5122,"count":668,"normalized":true,"type":"VEC2"},{"bufferView":155,"componentType":5122,"count":240,"normalized":true,"type":"VEC2"},{"bufferView":156,"componentType":5122,"count":1590,"normalized":true,"type":"VEC2"},{"bufferView":157,"componentType":5122,"count":6411,"normalized":true,"type":"VEC2"},{"bufferView":158,"componentType":5122,"count":2355,"normalized":true,"type":"VEC2"},{"bufferView":159,"componentType":5122,"count":426,"normalized":true,"type":"VEC2"}],"asset":{"generator":"evermore assetgen","version":"2.0"},"bufferViews":[{"buffer":0,"byteLength":896,"byteOffset":0,"byteStride":8,"target":34962},{"buffer":0,"byteLength":448,"byteOffset":896,"byteStride":4,"target":34962},{"buffer":0,"byteLength":360,"byteOffset":1344,"target":34963},{"buffer":0,"byteLength":1536,"byteOffset":1704,"byteStride":8,"target":34962},{"buffer":0,"byteLength":768,"byteOffset":3240,"byteStride":4,"target":34962},{"buffer":0,"byteLength":528,"byteOffset":4008,"target":34963},{"buffer":0,"byteLength":768,"byteOffset":4536,"byteStride":8,"target":34962},{"buffer":0,"byteLength":384,"byteOffset":5304,"byteStride":4,"target":34962},{"buffer":0,"byteLength":264,"byteOffset":5688,"target":34963},{"buffer":0,"byteLength":40512,"byteOffset":5952,"byteStride":8,"target":34962},{"buffer":0,"byteLength":20256,"byteOffset":46464,"byteStride":4,"target":34962},{"buffer":0,"byteLength":16128,"byteOffset":66720,"target":34963},{"buffer":0,"byteLength":672,"byteOffset":82848,"byteStride":8,"target":34962},{"buffer":0,"byteLength":336,"byteOffset":83520,"byteStride":4,"target":34962},{"buffer":0,"byteLength":168,"byteOffset":83856,"target":34963},{"buffer":0,"byteLength":960,"byteOffset":84024,"byteStride":8,"target":34962},{"buffer":0,"byteLength":480,"byteOffset":84984,"byteStride":4,"target":34962},{"buffer":0,"byteLength":240,"byteOffset":85464,"target":34963},{"buffer":0,"byteLength":30408,"byteOffset":85704,"byteStride":8,"target":34962},{"buffer":0,"byteLength":15204,"byteOffset":116112,"byteStride":4,"target":34962},{"buffer":0,"byteLength":7602,"byteOffset":131316,"target":34963},{"buffer":0,"byteLength":288,"byteOffset":138920,"byteStride":8,"target":34962},{"buffer":0,"byteLength":144,"byteOffset":139208,"byteStride":4,"target":34962},{"buffer":0,"byteLength":72,"byteOffset":139352,"target":34963},{"buffer":0,"byteLength":9192,"byteOffset":139424,"byteStride":8,"target":34962},{"buffer":0,"byteLength":4596,"byteOffset":148616,"byteStride":4,"target":34962},{"buffer":0,"byteLength":2298,"byteOffset":153212,"target":34963},{"buffer":0,"byteLength":288,"byteOffset":155512,"byteStride":8,"target":34962},{"buffer":0,"byteLength":144,"byteOffset":155800,"byteStride":4,"target":34962},{"buffer":0,"byteLength":72,"byteOffset":155944,"target":34963},{"buffer":0,"byteLength":1584,"byteOffset":156016,"byteStride":8,"target":34962},{"buffer":0,"byteLength":792,"byteOffset":157600,"byteStride":4,"target":34962},{"buffer":0,"byteLength":396,"byteOffset":158392,"target":34963},{"buffer":0,"byteLength":2112,"byteOffset":158788,"byteStride":8,"target":34962},{"buffer":0,"byteLength":1056,"byteOffset":160900,"byteStride":4,"target":34962},{"buffer":0,"byteLength":840,"byteOffset":161956,"target":34963},{"buffer":0,"byteLength":348656,"byteOffset":162796,"byteStride":8,"target":34962},{"buffer":0,"byteLength":174328,"byteOffset":511452,"byteStride":4,"target":34962},{"buffer":0,"byteLength":124932,"byteOffset":685780,"target":34963},{"buffer":0,"byteLength":320,"byteOffset":810712,"byteStride":8,"target":34962},{"buffer":0,"byteLength":160,"byteOffset":811032,"byteStride":4,"target":34962},{"buffer":0,"byteLength":120,"byteOffset":811192,"target":34963},{"buffer":0,"byteLength":17568,"byteOffset":811312,"byteStride":8,"target":34962},{"buffer":0,"byteLength":8784,"byteOffset":828880,"byteStride":4,"target":34962},{"buffer":0,"byteLength":6528,"byteOffset":837664,"target":34963},{"buffer":0,"byteLength":6912,"byteOffset":844192,"byteStride":8,"target":34962},{"buffer":0,"byteLength":3456,"byteOffset":851104,"byteStride":4,"target":34962},{"buffer":0,"byteLength":2376,"byteOffset":854560,"target":34963},{"buffer":0,"byteLength":18336,"byteOffset":856936,"byteStride":8,"target":34962},{"buffer":0,"byteLength":9168,"byteOffset":875272,"byteStride":4,"target":34962},{"buffer":0,"byteLength":7572,"byteOffset":884440,"target":34963},{"buffer":0,"byteLength":255936,"byteOffset":892012,"byteStride":8,"target":34962},{"buffer":0,"byteLength":127968,"byteOffset":1147948,"byteStride":4,"target":34962},{"buffer":0,"byteLength":63984,"byteOffset":1275916,"target":34963},{"buffer":0,"byteLength":96,"byteOffset":1339900,"byteStride":8,"target":34962},{"buffer":0,"byteLength":48,"byteOffset":1339996,"byteStride":4,"target":34962},{"buffer":0,"byteLength":24,"byteOffset":1340044,"target":34963},{"buffer":0,"byteLength":12072,"byteOffset":1340068,"byteStride":8,"target":34962},{"buffer":0,"byteLength":6036,"byteOffset":1352140,"byteStride":4,"target":34962},{"buffer":0,"byteLength":3018,"byteOffset":1358176,"target":34963},{"buffer":0,"byteLength":4128,"byteOffset":1361196,"byteStride":8,"target":34962},{"buffer":0,"byteLength":2064,"byteOffset":1365324,"byteStride":4,"target":34962},{"buffer":0,"byteLength":1032,"byteOffset":1367388,"target":34963},{"buffer":0,"byteLength":77184,"byteOffset":1368420,"byteStride":8,"target":34962},{"buffer":0,"byteLength":38592,"byteOffset":1445604,"byteStride":4,"target":34962},{"buffer":0,"byteLength":19296,"byteOffset":1484196,"target":34963},{"buffer":0,"byteLength":3312,"byteOffset":1503492,"byteStride":8,"target":34962},{"buffer":0,"byteLength":1656,"byteOffset":1506804,"byteStride":4,"target":34962},{"buffer":0,"byteLength":828,"byteOffset":1508460,"target":34963},{"buffer":0,"byteLength":1248,"byteOffset":1509288,"byteStride":8,"target":34962},{"buffer":0,"byteLength":624,"byteOffset":1510536,"byteStride":4,"target":34962},{"buffer":0,"byteLength":312,"byteOffset":1511160,"target":34963},{"buffer":0,"byteLength":14520,"byteOffset":1511472,"byteStride":8,"target":34962},{"buffer":0,"byteLength":7260,"byteOffset":1525992,"byteStride":4,"target":34962},{"buffer":0,"byteLength":3630,"byteOffset":1533252,"target":34963},{"buffer":0,"byteLength":600,"byteOffset":1536884,"byteStride":8,"target":34962},{"buffer":0,"byteLength":300,"byteOffset":1537484,"byteStride":4,"target":34962},{"buffer":0,"byteLength":150,"byteOffset":1537784,"target":34963},{"buffer":0,"byteLength":448,"byteOffset":1537936,"byteStride":8,"target":34962},{"buffer":0,"byteLength":224,"byteOffset":1538384,"byteStride":4,"target":34962},{"buffer":0,"byteLength":468,"byteOffset":1538608,"target":34963},{"buffer":0,"byteLength":1536,"byteOffset":1539076,"byteStride":8,"target":34962},{"buffer":0,"byteLength":768,"byteOffset":1540612,"byteStride":4,"target":34962},{"buffer":0,"byteLength":528,"byteOffset":1541380,"target":34963},{"buffer":0,"byteLength":25056,"byteOffset":1541908,"byteStride":8,"target":34962},{"buffer":0,"byteLength":12528,"byteOffset":1566964,"byteStride":4,"target":34962},{"buffer":0,"byteLength":10440,"byteOffset":1579492,"target":34963},{"buffer":0,"byteLength":3072,"byteOffset":1589932,"byteStride":8,"target":34962},{"buffer":0,"byteLength":1536,"byteOffset":1593004,"byteStride":4,"target":34962},{"buffer":0,"byteLength":1056,"byteOffset":1594540,"target":34963},{"buffer":0,"byteLength":18192,"byteOffset":1595596,"byteStride":8,"target":34962},{"buffer":0,"byteLength":9096,"byteOffset":1613788,"byteStride":4,"target":34962},{"buffer":0,"byteLength":6792,"byteOffset":1622884,"target":34963},{"buffer":0,"byteLength":34048,"byteOffset":1629676,"byteStride":8,"target":34962},{"buffer":0,"byteLength":17024,"byteOffset":1663724,"byteStride":4,"target":34962},{"buffer":0,"byteLength":13272,"byteOffset":1680748,"target":34963},{"buffer":0,"byteLength":768,"byteOffset":1694020,"byteStride":8,"target":34962},{"buffer":0,"byteLength":384,"byteOffset":1694788,"byteStride":4,"target":34962},{"buffer":0,"byteLength":264,"byteOffset":1695172,"target":34963},{"buffer":0,"byteLength":5344,"byteOffset":1695436,"byteStride":8,"target":34962},{"buffer":0,"byteLength":2672,"byteOffset":1700780,"byteStride":4,"target":34962},{"buffer":0,"byteLength":2672,"byteOffset":1703452,"byteStride":4,"target":34962},{"buffer":0,"byteLength":2028,"byteOffset":1706124,"target":34963},{"buffer":0,"byteLength":1920,"byteOffset":1708152,"byteStride":8,"target":34962},{"buffer":0,"byteLength":960,"byteOffset":1710072,"byteStride":4,"target":34962},{"buffer":0,"byteLength":480,"byteOffset":1711032,"target":34963},{"buffer":0,"byteLength":12720,"byteOffset":1711512,"byteStride":8,"target":34962},{"buffer":0,"byteLength":6360,"byteOffset":1724232,"byteStride":4,"target":34962},{"buffer":0,"byteLength":3180,"byteOffset":1730592,"target":34963},{"buffer":0,"byteLength":51288,"byteOffset":1733772,"byteStride":8,"target":34962},{"buffer":0,"byteLength":25644,"byteOffset":1785060,"byteStride":4,"target":34962},{"buffer":0,"byteLength":25644,"byteOffset":1810704,"byteStride":4,"target":34962},{"buffer":0,"byteLength":12822,"byteOffset":1836348,"target":34963},{"buffer":0,"byteLength":18840,"byteOffset":1849172,"byteStride":8,"target":34962},{"buffer":0,"byteLength":9420,"byteOffset":1868012,"byteStride":4,"target":34962},{"buffer":0,"byteLength":9420,"byteOffset":1877432,"byteStride":4,"target":34962},{"buffer":0,"byteLength":4710,"byteOffset":1886852,"target":34963},{"buffer":0,"byteLength":3408,"byteOffset":1891564,"byteStride":8,"target":34962},{"buffer":0,"byteLength":1704,"byteOffset":1894972,"byteStride":4,"target":34962},{"buffer":0,"byteLength":1704,"byteOffset":1896676,"byteStride":4,"target":34962},{"buffer":0,"byteLength":852,"byteOffset":1898380,"target":34963},{"buffer":0,"byteLength":448,"byteOffset":1899232,"byteStride":4,"target":34962},{"buffer":0,"byteLength":768,"byteOffset":1899680,"byteStride":4,"target":34962},{"buffer":0,"byteLength":384,"byteOffset":1900448,"byteStride":4,"target":34962},{"buffer":0,"byteLength":20256,"byteOffset":1900832,"byteStride":4,"target":34962},{"buffer":0,"byteLength":336,"byteOffset":1921088,"byteStride":4,"target":34962},{"buffer":0,"byteLength":480,"byteOffset":1921424,"byteStride":4,"target":34962},{"buffer":0,"byteLength":15204,"byteOffset":1921904,"byteStride":4,"target":34962},{"buffer":0,"byteLength":144,"byteOffset":1937108,"byteStride":4,"target":34962},{"buffer":0,"byteLength":4596,"byteOffset":1937252,"byteStride":4,"target":34962},{"buffer":0,"byteLength":144,"byteOffset":1941848,"byteStride":4,"target":34962},{"buffer":0,"byteLength":792,"byteOffset":1941992,"byteStride":4,"target":34962},{"buffer":0,"byteLength":1056,"byteOffset":1942784,"byteStride":4,"target":34962},{"buffer":0,"byteLength":174328,"byteOffset":1943840,"byteStride":4,"target":34962},{"buffer":0,"byteLength":160,"byteOffset":2118168,"byteStride":4,"target":34962},{"buffer":0,"byteLength":8784,"byteOffset":2118328,"byteStride":4,"target":34962},{"buffer":0,"byteLength":3456,"byteOffset":2127112,"byteStride":4,"target":34962},{"buffer":0,"byteLength":9168,"byteOffset":2130568,"byteStride":4,"target":34962},{"buffer":0,"byteLength":127968,"byteOffset":2139736,"byteStride":4,"target":34962},{"buffer":0,"byteLength":48,"byteOffset":2267704,"byteStride":4,"target":34962},{"buffer":0,"byteLength":6036,"byteOffset":2267752,"byteStride":4,"target":34962},{"buffer":0,"byteLength":2064,"byteOffset":2273788,"byteStride":4,"target":34962},{"buffer":0,"byteLength":38592,"byteOffset":2275852,"byteStride":4,"target":34962},{"buffer":0,"byteLength":1656,"byteOffset":2314444,"byteStride":4,"target":34962},{"buffer":0,"byteLength":624,"byteOffset":2316100,"byteStride":4,"target":34962},{"buffer":0,"byteLength":7260,"byteOffset":2316724,"byteStride":4,"target":34962},{"buffer":0,"byteLength":300,"byteOffset":2323984,"byteStride":4,"target":34962},{"buffer":0,"byteLength":224,"byteOffset":2324284,"byteStride":4,"target":34962},{"buffer":0,"byteLength":768,"byteOffset":2324508,"byteStride":4,"target":34962},{"buffer":0,"byteLength":12528,"byteOffset":2325276,"byteStride":4,"target":34962},{"buffer":0,"byteLength":1536,"byteOffset":2337804,"byteStride":4,"target":34962},{"buffer":0,"byteLength":9096,"byteOffset":2339340,"byteStride":4,"target":34962},{"buffer":0,"byteLength":17024,"byteOffset":2348436,"byteStride":4,"target":34962},{"buffer":0,"byteLength":384,"byteOffset":2365460,"byteStride":4,"target":34962},{"buffer":0,"byteLength":2672,"byteOffset":2365844,"byteStride":4,"target":34962},{"buffer":0,"byteLength":960,"byteOffset":2368516,"byteStride":4,"target":34962},{"buffer":0,"byteLength":6360,"byteOffset":2369476,"byteStride":4,"target":34962},{"buffer":0,"byteLength":25644,"byteOffset":2375836,"byteStride":4,"target":34962},{"buffer":0,"byteLength":9420,"byteOffset":2401480,"byteStride":4,"target":34962},{"buffer":0,"byteLength":1704,"byteOffset":2410900,"byteStride":4,"target":34962}],"buffers":[{"byteLength":2412604,"uri":"confectioner.bin"}],"extensionsRequired":["KHR_mesh_quantization","KHR_texture_transform"],"extensionsUsed":["KHR_mesh_quantization","KHR_texture_transform","MSFT_lod"],"extras":{"hm":{"batching":true,"cellSize":16.0,"cells":[{"cullAt":null,"interior":null,"key":"0_0","lodPrims":[4,3,2,2],"lodTris":[2880,1335,395,78],"max":[3.12,9.949,6.042],"min":[-3.12,-0.1,-5.571]},{"cullAt":null,"interior":null,"key":"0_n1","lodPrims":[6,4,3,2],"lodTris":[23728,11343,3406,630],"max":[3.617,10.132,5.315],"min":[-3.617,-0.025,-6.115]},{"cullAt":null,"interior":null,"key":"n1_n1","lodPrims":[8,3,1,1],"lodTris":[5808,2747,785,142],"max":[3.628,10.324,5.285],"min":[-3.629,1.418,-6.055]}],"instanced":[],"instancing":true,"interiors":[],"lod":true,"lodDistances":[15.0,40.0,100.0],"stats":{"groups":3,"lodPrims":[18,10,6,5],"lodTris":[32416,15425,4586,850]},"venue":"confectioner"}},"images":[{"uri":"../textures/kit_albedo.png"},{"uri":"../textures/kit_orm.png"},{"uri":"../textures/kit_normal.png"},{"uri":"../textures/ashlar_albedo.png"},{"uri":"../textures/ashlar_orm.png"},{"uri":"../textures/ashlar_normal.png"},{"uri":"../textures/plaster_albedo.png"},{"uri":"../textures/plaster_orm.png"},{"uri":"../textures/plaster_normal.png"},{"uri":"../textures/plaster_shade_albedo.png"},{"uri":"../textures/plaster_shade_orm.png"},{"uri":"../textures/plaster_shade_normal.png"},{"uri":"../textures/oak_dark_albedo.png"},{"uri":"../textures/oak_dark_orm.png"},{"uri":"../textures/oak_dark_normal.png"},{"uri":"../textures/terracotta_albedo.png"},{"uri":"../textures/terracotta_orm.png"},{"uri":"../textures/terracotta_normal.png"},{"uri":"../textures/brick_albedo.png"},{"uri":"../textures/brick_orm.png"},{"uri":"../textures/brick_normal.png"},{"uri":"../textures/glass_albedo.png"},{"uri":"../textures/glass_orm.png"},{"uri":"../textures/glass_normal.png"},{"uri":"../textures/glass_emissive.png"},{"uri":"../textures/canvas_crimson_albedo.png"},{"uri":"../textures/canvas_crimson_orm.png"},{"uri":"../textures/canvas_crimson_normal.png"},{"uri":"../textures/sugar_albedo.png"},{"uri":"../textures/sugar_orm.png"},{"uri":"../textures/sugar_normal.png"},{"uri":"../textures/cloth_blue_albedo.png"},{"uri":"../textures/cloth_blue_orm.png"},{"uri":"../textures/cloth_blue_normal.png"},{"uri":"../textures/pottery_slip_albedo.png"},{"uri":"../textures/pottery_slip_orm.png"},{"uri":"../textures/pottery_slip_normal.png"},{"uri":"../textures/slate_albedo.png"},{"uri":"../textures/slate_orm.png"},{"uri":"../textures/slate_normal.png"},{"uri":"../textures/stone_albedo.png"},{"uri":"../textures/stone_orm.png"},{"uri":"../textures/stone_normal.png"},{"uri":"../textures/earth_albedo.png"},{"uri":"../textures/earth_orm.png"},{"uri":"../textures/earth_normal.png"},{"uri":"../textures/foliage_flower_albedo.png"},{"uri":"../textures/foliage_flower_orm.png"},{"uri":"../textures/foliage_flower_normal.png"}],"materials":[{"doubleSided":true,"name":"kit","normalTexture":{"extensions":{"KHR_texture_transform":{"scale":[9.56229191566658,9.56229191566658]}},"index":2,"scale":1.0},"occlusionTexture":{"extensions":{"KHR_texture_transform":{"scale":[9.56229191566658,9.56229191566658]}},"index":1},"pbrMetallicRoughness":{"baseColorFactor":[1,1,1,1],"baseColorTexture":{"extensions":{"KHR_texture_transform":{"scale":[9.56229191566658,9.56229191566658]}},"index":0},"metallicFactor":1.0,"metallicRoughnessTexture":{"extensions":{"KHR_texture_transform":{"scale":[9.56229191566658,9.56229191566658]}},"index":1},"roughnessFactor":1.0}},{"doubleSided":false,"name":"ashlar","normalTexture":{"extensions":{"KHR_texture_transform":{"scale":[9.56229191566658,9.56229191566658]}},"index":5,"scale":1.0},"occlusionTexture":{"extensions":{"KHR_texture_transform":{"scale":[9.56229191566658,9.56229191566658]}},"index":4},"pbrMetallicRoughness":{"baseColorFactor":[1,1,1,1],"baseColorTexture":{"extensions":{"KHR_texture_transform":{"scale":[9.56229191566658,9.56229191566658]}},"index":3},"metallicFactor":1.0,"metallicRoughnessTexture":{"extensions":{"KHR_texture_transform":{"scale":[9.56229191566658,9.56229191566658]}},"index":4},"roughnessFactor":1.0}},{"doubleSided":false,"name":"plaster","normalTexture":{"extensions":{"KHR_texture_transform":{"scale":[9.56229191566658,9.56229191566658]}},"index":8,"scale":1.0},"occlusionTexture":{"extensions":{"KHR_texture_transform":{"scale":[9.56229191566658,9.56229191566658]}},"index":7},"pbrMetallicRoughness":{"baseColorFactor":[1,1,1,1],"baseColorTexture":{"extensions":{"KHR_texture_transform":{"scale":[9.56229191566658,9.56229191566658]}},"index":6},"metallicFactor":1.0,"metallicRoughnessTexture":{"extensions":{"KHR_texture_transform":{"scale":[9.56229191566658,9.56229191566658]}},"index":7},"roughnessFactor":1.0}},{"doubleSided":false,"name":"plaster_shade","normalTexture":{"extensions":{"KHR_texture_transform":{"scale":[9.56229191566658,9.56229191566658]}},"index":11,"scale":1.0},"occlusionTexture":{"extensions":{"KHR_texture_transform":{"scale":[9.56229191566658,9.56229191566658]}},"index":10},"pbrMetallicRoughness":{"baseColorFactor":[1,1,1,1],"baseColorTexture":{"extensions":{"KHR_texture_transform":{"scale":[9.56229191566658,9.56229191566658]}},"index":9},"metallicFactor":1.0,"metallicRoughnessTexture":{"extensions":{"KHR_texture_transform":{"scale":[9.56229191566658,9.56229191566658]}},"index":10},"roughnessFactor":1.0}},{"doubleSided":false,"name":"oak_dark","normalTexture":{"extensions":{"KHR_texture_transform":{"scale":[9.56229191566658,9.56229191566658]}},"index":14,"scale":1.0},"occlusionTexture":{"extensions":{"KHR_texture_transform":{"scale":[9.56229191566658,9.56229191566658]}},"index":13},"pbrMetallicRoughness":{"baseColorFactor":[1,1,1,1],"baseColorTexture":{"extensions":{"KHR_texture_transform":{"scale":[9.56229191566658,9.56229191566658]}},"index":12},"metallicFactor":1.0,"metallicRoughnessTexture":{"extensions":{"KHR_texture_transform":{"scale":[9.56229191566658,9.56229191566658]}},"index":13},"roughnessFactor":1.0}},{"doubleSided":false,"name":"terracotta","normalTexture":{"extensions":{"KHR_texture_transform":{"scale":[9.56229191566658,9.56229191566658]}},"index":17,"scale":1.0},"occlusionTexture":{"extensions":{"KHR_texture_transform":{"scale":[9.56229191566658,9.56229191566658]}},"index":16},"pbrMetallicRoughness":{"baseColorFactor":[1,1,1,1],"baseColorTexture":{"extensions":{"KHR_texture_transform":{"scale":[9.56229191566658,9.56229191566658]}},"index":15},"metallicFactor":1.0,"metallicRoughnessTexture":{"extensions":{"KHR_texture_transform":{"scale":[9.56229191566658,9.56229191566658]}},"index":16},"roughnessFactor":1.0}},{"doubleSided":false,"name":"brick","normalTexture":{"extensions":{"KHR_texture_transform":{"scale":[9.56229191566658,9.56229191566658]}},"index":20,"scale":1.0},"occlusionTexture":{"extensions":{"KHR_texture_transform":{"scale":[9.56229191566658,9.56229191566658]}},"index":19},"pbrMetallicRoughness":{"baseColorFactor":[1,1,1,1],"baseColorTexture":{"extensions":{"KHR_texture_transform":{"scale":[9.56229191566658,9.56229191566658]}},"index":18},"metallicFactor":1.0,"metallicRoughnessTexture":{"extensions":{"KHR_texture_transform":{"scale":[9.56229191566658,9.56229191566658]}},"index":19},"roughnessFactor":1.0}},{"alphaMode":"BLEND","doubleSided":true,"emissiveFactor":[1.0,1.0,1.0],"emissiveTexture":{"extensions":{"KHR_texture_transform":{"scale":[9.56229191566658,9.56229191566658]}},"index":24},"name":"glass","normalTexture":{"extensions":{"KHR_texture_transform":{"scale":[9.56229191566658,9.56229191566658]}},"index":23,"scale":1.0},"occlusionTexture":{"extensions":{"KHR_texture_transform":{"scale":[9.56229191566658,9.56229191566658]}},"index":22},"pbrMetallicRoughness":{"baseColorFactor":[1,1,1,1],"baseColorTexture":{"extensions":{"KHR_texture_transform":{"scale":[9.56229191566658,9.56229191566658]}},"index":21},"metallicFactor":1.0,"metallicRoughnessTexture":{"extensions":{"KHR_texture_transform":{"scale":[9.56229191566658,9.56229191566658]}},"index":22},"roughnessFactor":1.0}},{"doubleSided":true,"name":"canvas_crimson","normalTexture":{"extensions":{"KHR_texture_transform":{"scale":[9.56229191566658,9.56229191566658]}},"index":27,"scale":1.0},"occlusionTexture":{"extensions":{"KHR_texture_transform":{"scale":[9.56229191566658,9.56229191566658]}},"index":26},"pbrMetallicRoughness":{"baseColorFactor":[1,1,1,1],"baseColorTexture":{"extensions":{"KHR_texture_transform":{"scale":[9.56229191566658,9.56229191566658]}},"index":25},"metallicFactor":1.0,"metallicRoughnessTexture":{"extensions":{"KHR_texture_transform":{"scale":[9.56229191566658,9.56229191566658]}},"index":26},"roughnessFactor":1.0}},{"doubleSided":false,"name":"sugar","normalTexture":{"extensions":{"KHR_texture_transform":{"scale":[9.56229191566658,9.56229191566658]}},"index":30,"scale":1.0},"occlusionTexture":{"extensions":{"KHR_texture_transform":{"scale":[9.56229191566658,9.56229191566658]}},"index":29},"pbrMetallicRoughness":{"baseColorFactor":[1,1,1,1],"baseColorTexture":{"extensions":{"KHR_texture_transform":{"scale":[9.56229191566658,9.56229191566658]}},"index":28},"metallicFactor":1.0,"metallicRoughnessTexture":{"extensions":{"KHR_texture_transform":{"scale":[9.56229191566658,9.56229191566658]}},"index":29},"roughnessFactor":1.0}},{"doubleSided":true,"name":"cloth_blue","normalTexture":{"extensions":{"KHR_texture_transform":{"scale":[9.56229191566658,9.56229191566658]}},"index":33,"scale":1.0},"occlusionTexture":{"extensions":{"KHR_texture_transform":{"scale":[9.56229191566658,9.56229191566658]}},"index":32},"pbrMetallicRoughness":{"baseColorFactor":[1,1,1,1],"baseColorTexture":{"extensions":{"KHR_texture_transform":{"scale":[9.56229191566658,9.56229191566658]}},"index":31},"metallicFactor":1.0,"metallicRoughnessTexture":{"extensions":{"KHR_texture_transform":{"scale":[9.56229191566658,9.56229191566658]}},"index":32},"roughnessFactor":1.0}},{"doubleSided":false,"name":"pottery_slip","normalTexture":{"extensions":{"KHR_texture_transform":{"scale":[9.56229191566658,9.56229191566658]}},"index":36,"scale":1.0},"occlusionTexture":{"extensions":{"KHR_texture_transform":{"scale":[9.56229191566658,9.56229191566658]}},"index":35},"pbrMetallicRoughness":{"baseColorFactor":[1,1,1,1],"baseColorTexture":{"extensions":{"KHR_texture_transform":{"scale":[9.56229191566658,9.56229191566658]}},"index":34},"metallicFactor":1.0,"metallicRoughnessTexture":{"extensions":{"KHR_texture_transform":{"scale":[9.56229191566658,9.56229191566658]}},"index":35},"roughnessFactor":1.0}},{"doubleSided":false,"name":"slate","normalTexture":{"extensions":{"KHR_texture_transform":{"scale":[9.56229191566658,9.56229191566658]}},"index":39,"scale":1.0},"occlusionTexture":{"extensions":{"KHR_texture_transform":{"scale":[9.56229191566658,9.56229191566658]}},"index":38},"pbrMetallicRoughness":{"baseColorFactor":[1,1,1,1],"baseColorTexture":{"extensions":{"KHR_texture_transform":{"scale":[9.56229191566658,9.56229191566658]}},"index":37},"metallicFactor":1.0,"metallicRoughnessTexture":{"extensions":{"KHR_texture_transform":{"scale":[9.56229191566658,9.56229191566658]}},"index":38},"roughnessFactor":1.0}},{"doubleSided":false,"name":"stone","normalTexture":{"extensions":{"KHR_texture_transform":{"scale":[9.56229191566658,9.56229191566658]}},"index":42,"scale":1.0},"occlusionTexture":{"extensions":{"KHR_texture_transform":{"scale":[9.56229191566658,9.56229191566658]}},"index":41},"pbrMetallicRoughness":{"baseColorFactor":[1,1,1,1],"baseColorTexture":{"extensions":{"KHR_texture_transform":{"scale":[9.56229191566658,9.56229191566658]}},"index":40},"metallicFactor":1.0,"metallicRoughnessTexture":{"extensions":{"KHR_texture_transform":{"scale":[9.56229191566658,9.56229191566658]}},"index":41},"roughnessFactor":1.0}},{"doubleSided":false,"name":"earth","normalTexture":{"extensions":{"KHR_texture_transform":{"scale":[9.56229191566658,9.56229191566658]}},"index":45,"scale":1.0},"occlusionTexture":{"extensions":{"KHR_texture_transform":{"scale":[9.56229191566658,9.56229191566658]}},"index":44},"pbrMetallicRoughness":{"baseColorFactor":[1,1,1,1],"baseColorTexture":{"extensions":{"KHR_texture_transform":{"scale":[9.56229191566658,9.56229191566658]}},"index":43},"metallicFactor":1.0,"metallicRoughnessTexture":{"extensions":{"KHR_texture_transform":{"scale":[9.56229191566658,9.56229191566658]}},"index":44},"roughnessFactor":1.0}},{"doubleSided":true,"name":"foliage_flower","normalTexture":{"extensions":{"KHR_texture_transform":{"scale":[9.56229191566658,9.56229191566658]}},"index":48,"scale":1.0},"occlusionTexture":{"extensions":{"KHR_texture_transform":{"scale":[9.56229191566658,9.56229191566658]}},"index":47},"pbrMetallicRoughness":{"baseColorFactor":[1,1,1,1],"baseColorTexture":{"extensions":{"KHR_texture_transform":{"scale":[9.56229191566658,9.56229191566658]}},"index":46},"metallicFactor":1.0,"metallicRoughnessTexture":{"extensions":{"KHR_texture_transform":{"scale":[9.56229191566658,9.56229191566658]}},"index":47},"roughnessFactor":1.0}}],"meshes":[{"name":"confectioner#0_0","primitives":[{"attributes":{"NORMAL":1,"POSITION":0,"TEXCOORD_0":121},"indices":2,"material":1},{"attributes":{"NORMAL":4,"POSITION":3,"TEXCOORD_0":122},"indices":5,"material":6},{"attributes":{"NORMAL":7,"POSITION":6,"TEXCOORD_0":123},"indices":8,"material":0},{"attributes":{"NORMAL":10,"POSITION":9,"TEXCOORD_0":124},"indices":11,"material":9}]},{"name":"confectioner#0_0$lod1","primitives":[{"attributes":{"NORMAL":13,"POSITION":12,"TEXCOORD_0":125},"indices":14,"material":1},{"attributes":{"NORMAL":16,"POSITION":15,"TEXCOORD_0":126},"indices":17,"material":6},{"attributes":{"NORMAL":19,"POSITION":18,"TEXCOORD_0":127},"indices":20,"material":0}]},{"name":"confectioner#0_0$lod2","primitives":[{"attributes":{"NORMAL":22,"POSITION":21,"TEXCOORD_0":128},"indices":23,"material":1},{"attributes":{"NORMAL":25,"POSITION":24,"TEXCOORD_0":129},"indices":26,"material":0}]},{"name":"confectioner#0_0$lod3","primitives":[{"attributes":{"NORMAL":28,"POSITION":27,"TEXCOORD_0":130},"indices":29,"material":1},{"attributes":{"NORMAL":31,"POSITION":30,"TEXCOORD_0":131},"indices":32,"material":0}]},{"name":"confectioner#0_n1","primitives":[{"attributes":{"NORMAL":34,"POSITION":33,"TEXCOORD_0":132},"indices":35,"material":10},{"attributes":{"NORMAL":37,"POSITION":36,"TEXCOORD_0":133},"indices":38,"material":0},{"attributes":{"NORMAL":40,"POSITION":39,"TEXCOORD_0":134},"indices":41,"material":4},{"attributes":{"NORMAL":43,"POSITION":42,"TEXCOORD_0":135},"indices":44,"material":2},{"attributes":{"NORMAL":46,"POSITION":45,"TEXCOORD_0":136},"indices":47,"material":3},{"attributes":{"NORMAL":49,"POSITION":48,"TEXCOORD_0":137},"indices":50,"material":13}]},{"name":"confectioner#0_n1$lod1","primitives":[{"attributes":{"NORMAL":52,"POSITION":51,"TEXCOORD_0":138},"indices":53,"material":0},{"attributes":{"NORMAL":55,"POSITION":54,"TEXCOORD_0":139},"indices":56,"material":4},{"attributes":{"NORMAL":58,"POSITION":57,"TEXCOORD_0":140},"indices":59,"material":2},{"attributes":{"NORMAL":61,"POSITION":60,"TEXCOORD_0":141},"indices":62,"material":3}]},{"name":"confectioner#0_n1$lod2","primitives":[{"attributes":{"NORMAL":64,"POSITION":63,"TEXCOORD_0":142},"indices":65,"material":0},{"attributes":{"NORMAL":67,"POSITION":66,"TEXCOORD_0":143},"indices":68,"material":2},{"attributes":{"NORMAL":70,"POSITION":69,"TEXCOORD_0":144},"indices":71,"material":3}]},{"name":"confectioner#0_n1$lod3","primitives":[{"attributes":{"NORMAL":73,"POSITION":72,"TEXCOORD_0":145},"indices":74,"material":0},{"attributes":{"NORMAL":76,"POSITION":75,"TEXCOORD_0":146},"indices":77,"material":2}]},{"name":"confectioner#n1_n1","primitives":[{"attributes":{"NORMAL":79,"POSITION":78,"TEXCOORD_0":147},"indices":80,"material":8},{"attributes":{"NORMAL":82,"POSITION":81,"TEXCOORD_0":148},"indices":83,"material":14},{"attributes":{"NORMAL":85,"POSITION":84,"TEXCOORD_0":149},"indices":86,"material":15},{"attributes":{"NORMAL":88,"POSITION":87,"TEXCOORD_0":150},"indices":89,"material":7},{"attributes":{"NORMAL":91,"POSITION":90,"TEXCOORD_0":151},"indices":92,"material":0},{"attributes":{"NORMAL":94,"POSITION":93,"TEXCOORD_0":152},"indices":95,"material":11},{"attributes":{"NORMAL":97,"POSITION":96,"TEXCOORD_0":153},"indices":98,"material":12},{"attributes":{"COLOR_0":101,"NORMAL":100,"POSITION":99,"TEXCOORD_0":154},"indices":102,"material":5}]},{"name":"confectioner#n1_n1$lod1","primitives":[{"attributes":{"NORMAL":104,"POSITION":103,"TEXCOORD_0":155},"indices":105,"material":7},{"attributes":{"NORMAL":107,"POSITION":106,"TEXCOORD_0":156},"indices":108,"material":0},{"attributes":{"COLOR_0":111,"NORMAL":110,"POSITION":109,"TEXCOORD_0":157},"indices":112,"material":5}]},{"name":"confectioner#n1_n1$lod2","primitives":[{"attributes":{"COLOR_0":115,"NORMAL":114,"POSITION":113,"TEXCOORD_0":158},"indices":116,"material":5}]},{"name":"confectioner#n1_n1$lod3","primitives":[{"attributes":{"COLOR_0":119,"NORMAL":118,"POSITION":117,"TEXCOORD_0":159},"indices":120,"material":5}]}],"nodes":[{"extensions":{"MSFT_lod":{"ids":[1,2,3]}},"extras":{"MSFT_screencoverage":[1.0,0.39804,0.15921,0.0],"hm":{"cell":"0_0","cullAt":null,"interior":null,"lod":0,"max":[3.12,9.949,6.042],"min":[-3.12,-0.1,-5.571],"prims":4,"tris":2880,"venue":"confectioner"}},"mesh":0,"name":"confectioner#0_0","scale":[3.119999885559082,5.024499893188477,5.806395530700684],"translation":[0.0,4.92449951171875,0.23569488525390625]},{"extras":{"hm":{"cell":"0_0","cullAt":null,"interior":null,"lod":1,"max":[3.12,9.949,6.042],"min":[-3.12,-0.1,-5.571],"prims":3,"tris":1335,"venue":"confectioner"}},"mesh":1,"name":"confectioner#0_0$lod1","scale":[3.1043219566345215,5.019499778747559,5.806236267089844],"translation":[0.0,4.919499397277832,0.2355358600616455]},{"extras":{"hm":{"cell":"0_0","cullAt":null,"interior":null,"lod":2,"max":[3.12,9.949,6.042],"min":[-3.12,-0.1,-5.571],"prims":2,"tris":395,"venue":"confectioner"}},"mesh":2,"name":"confectioner#0_0$lod2","scale":[3.100266456604004,4.97592830657959,5.798289775848389],"translation":[-0.0005289316177368164,4.885997772216797,0.23563003540039062]},{"extras":{"hm":{"cell":"0_0","cullAt":null,"interior":null,"lod":3,"max":[3.12,9.949,6.042],"min":[-3.12,-0.1,-5.571],"prims":2,"tris":78,"venue":"confectioner"}},"mesh":3,"name":"confectioner#0_0$lod3","scale":[3.100266456604004,4.97592830657959,5.724992752075195],"translation":[-0.0005289316177368164,4.885997772216797,0.2200946807861328]},{"extensions":{"MSFT_lod":{"ids":[5,6,7]}},"extras":{"MSFT_screencoverage":[1.0,0.40619,0.16247,0.0],"hm":{"cell":"0_n1","cullAt":null,"interior":null,"lod":0,"max":[3.617,10.132,5.315],"min":[-3.617,-0.025,-6.115],"prims":6,"tris":23728,"venue":"confectioner"}},"mesh":4,"name":"confectioner#0_n1","scale":[3.6172423362731934,5.078271865844727,5.715100288391113],"translation":[0.0,5.053728103637695,-0.3998997211456299]},{"extras":{"hm":{"cell":"0_n1","cullAt":null,"interior":null,"lod":1,"max":[3.617,10.132,5.315],"min":[-3.617,-0.025,-6.115],"prims":4,"tris":11343,"venue":"confectioner"}},"mesh":5,"name":"confectioner#0_n1$lod1","scale":[3.6172423362731934,5.073014736175537,5.712100028991699],"translation":[0.0,5.058985233306885,-0.40089988708496094]},{"extras":{"hm":{"cell":"0_n1","cullAt":null,"interior":null,"lod":2,"max":[3.617,10.132,5.315],"min":[-3.617,-0.025,-6.115],"prims":3,"tris":3406,"venue":"confectioner"}},"mesh":6,"name":"confectioner#0_n1$lod2","scale":[3.6171023845672607,5.068448543548584,5.700407981872559],"translation":[0.0,5.063551425933838,-0.4065415859222412]},{"extras":{"hm":{"cell":"0_n1","cullAt":null,"interior":null,"lod":3,"max":[3.617,10.132,5.315],"min":[-3.617,-0.025,-6.115],"prims":2,"tris":630,"venue":"confectioner"}},"mesh":7,"name":"confectioner#0_n1$lod3","scale":[3.5224945545196533,5.06753396987915,5.590266704559326],"translation":[-0.0007703304290771484,5.0644659996032715,-0.2964000701904297]},{"extensions":{"MSFT_lod":{"ids":[9,10,11]}},"extras":{"MSFT_screencoverage":[1.0,0.38763,0.15505,0.0],"hm":{"cell":"n1_n1","cullAt":null,"interior":null,"lod":0,"max":[3.628,10.324,5.285],"min":[-3.629,1.418,-6.055],"prims":8,"tris":5808,"venue":"confectioner"}},"mesh":8,"name":"confectioner#n1_n1","scale":[3.6285815238952637,4.453249931335449,5.670100212097168],"translation":[-0.0007773637771606445,5.870750427246094,-0.3848998546600342]},{"extras":{"hm":{"cell":"n1_n1","cullAt":null,"interior":null,"lod":1,"max":[3.628,10.324,5.285],"min":[-3.629,1.418,-6.055],"prims":3,"tris":2747,"venue":"confectioner"}},"mesh":9,"name":"confectioner#n1_n1$lod1","scale":[3.6285815238952637,4.433250427246094,5.670100212097168],"translation":[-0.0007773637771606445,5.850749969482422,-0.3848998546600342]},{"extras":{"hm":{"cell":"n1_n1","cullAt":null,"interior":null,"lod":2,"max":[3.628,10.324,5.285],"min":[-3.629,1.418,-6.055],"prims":1,"tris":785,"venue":"confectioner"}},"mesh":10,"name":"confectioner#n1_n1$lod2","scale":[3.6285815238952637,4.431175231933594,5.664655685424805],"translation":[-0.0007773637771606445,5.852825164794922,-0.37945556640625]},{"extras":{"hm":{"cell":"n1_n1","cullAt":null,"interior":null,"lod":3,"max":[3.628,10.324,5.285],"min":[-3.629,1.418,-6.055],"prims":1,"tris":142,"venue":"confectioner"}},"mesh":11,"name":"confectioner#n1_n1$lod3","scale":[3.547426223754883,4.430666923522949,5.664655685424805],"translation":[-0.007428765296936035,5.853333473205566,-0.37945556640625]}],"samplers":[{"magFilter":9729,"minFilter":9987,"wrapS":10497,"wrapT":10497}],"scene":0,"scenes":[{"nodes":[0,4,8]}],"textures":[{"sampler":0,"source":0},{"sampler":0,"source":1},{"sampler":0,"source":2},{"sampler":0,"source":3},{"sampler":0,"source":4},{"sampler":0,"source":5},{"sampler":0,"source":6},{"sampler":0,"source":7},{"sampler":0,"source":8},{"sampler":0,"source":9},{"sampler":0,"source":10},{"sampler":0,"source":11},{"sampler":0,"source":12},{"sampler":0,"source":13},{"sampler":0,"source":14},{"sampler":0,"source":15},{"sampler":0,"source":16},{"sampler":0,"source":17},{"sampler":0,"source":18},{"sampler":0,"source":19},{"sampler":0,"source":20},{"sampler":0,"source":21},{"sampler":0,"source":22},{"sampler":0,"source":23},{"sampler":0,"source":24},{"sampler":0,"source":25},{"sampler":0,"source":26},{"sampler":0,"source":27},{"sampler":0,"source":28},{"sampler":0,"source":29},{"sampler":0,"source":30},{"sampler":0,"source":31},{"sampler":0,"source":32},{"sampler":0,"source":33},{"sampler":0,"source":34},{"sampler":0,"source":35},{"sampler":0,"source":36},{"sampler":0,"source":37},{"sampler":0,"source":38},{"sampler":0,"source":39},{"sampler":0,"source":40},{"sampler":0,"source":41},{"sampler":0,"source":42},{"sampler":0,"source":43},{"sampler":0,"source":44},{"sampler":0,"source":45},{"sampler":0,"source":46},{"sampler":0,"source":47},{"sampler":0,"source":48}]}