{"accessors":[{"bufferView":0,"componentType":5122,"count":1512,"max":[23582.0,-29874.0,7637.0],"min":[16104.0,-29975.0,626.0],"normalized":true,"type":"VEC3"},{"bufferView":1,"componentType":5120,"count":1512,"normalized":true,"type":"VEC3"},{"bufferView":2,"componentType":5123,"count":2508,"type":"SCALAR"},{"bufferView":3,"componentType":5122,"count":392,"max":[12522.0,-11194.0,29964.0],"min":[1523.0,-26422.0,-1349.0],"normalized":true,"type":"VEC3"},{"bufferView":4,"componentType":5120,"count":392,"normalized":true,"type":"VEC3"},{"bufferView":5,"componentType":5123,"count":648,"type":"SCALAR"},{"bufferView":6,"componentType":5122,"count":32,"max":[20409.0,2512.0,21326.0],"min":[19624.0,-2184.0,20542.0],"normalized":true,"type":"VEC3"},{"bufferView":7,"componentType":5120,"count":32,"normalized":true,"type":"VEC3"},{"bufferView":8,"componentType":5123,"count":48,"type":"SCALAR"},{"bufferView":9,"componentType":5122,"count":1512,"max":[22472.0,-30102.0,2048.0],"min":[19193.0,-30204.0,-830.0],"normalized":true,"type":"VEC3"},{"bufferView":10,"componentType":5120,"count":1512,"normalized":true,"type":"VEC3"},{"bufferView":11,"componentType":5123,"count":2508,"type":"SCALAR"},{"bufferView":12,"componentType":5122,"count":10547,"max":[28779.0,32767.0,32767.0],"min":[2076.0,-30923.0,-584.0],"normalized":true,"type":"VEC3"},{"bufferView":13,"componentType":5120,"count":10547,"normalized":true,"type":"VEC3"},{"bufferView":14,"componentType":5123,"count":16488,"type":"SCALAR"},{"bufferView":15,"componentType":5122,"count":902,"max":[15952.0,-22615.0,26239.0],"min":[11573.0,-26458.0,21137.0],"normalized":true,"type":"VEC3"},{"bufferView":16,"componentType":5120,"count":902,"normalized":true,"type":"VEC3"},{"bufferView":17,"componentType":5123,"count":1368,"type":"SCALAR"},{"bufferView":18,"componentType":5122,"count":192,"max":[26151.0,-27691.0,23854.0],"min":[9726.0,-31244.0,19627.0],"normalized":true,"type":"VEC3"},{"bufferView":19,"componentType":5120,"count":192,"normalized":true,"type":"VEC3"},{"bufferView":20,"componentType":5123,"count":264,"type":"SCALAR"},{"bufferView":21,"componentType":5122,"count":48,"max":[12661.0,-1450.0,20125.0],"min":[12261.0,-1450.0,19726.0],"normalized":true,"type":"VEC3"},{"bufferView":22,"componentType":5120,"count":48,"normalized":true,"type":"VEC3"},{"bufferView":23,"componentType":5123,"count":72,"type":"SCALAR"},{"bufferView":24,"componentType":5122,"count":96,"max":[32767.0,-30229.0,24161.0],"min":[-32767.0,-32767.0,-32767.0],"normalized":true,"type":"VEC3"},{"bufferView":25,"componentType":5120,"count":96,"normalized":true,"type":"VEC3"},{"bufferView":26,"componentType":5123,"count":132,"type":"SCALAR"},{"bufferView":27,"componentType":5122,"count":7239,"max":[28779.0,32767.0,32767.0],"min":[2085.0,-31755.0,-575.0],"normalized":true,"type":"VEC3"},{"bufferView":28,"componentType":5120,"count":7239,"normalized":true,"type":"VEC3"},{"bufferView":29,"componentType":5123,"count":7239,"type":"SCALAR"},{"bufferView":30,"componentType":5122,"count":3480,"max":[32767.0,2116.0,29913.0],"min":[-32767.0,-32767.0,-32767.0],"normalized":true,"type":"VEC3"},{"bufferView":31,"componentType":5120,"count":3480,"normalized":true,"type":"VEC3"},{"bufferView":32,"componentType":5123,"count":3480,"type":"SCALAR"},{"bufferView":33,"componentType":5122,"count":3210,"max":[32767.0,32767.0,32767.0],"min":[-32767.0,-32767.0,-32767.0],"normalized":true,"type":"VEC3"},{"bufferView":34,"componentType":5120,"count":3210,"normalized":true,"type":"VEC3"},{"bufferView":35,"componentType":5123,"count":3210,"type":"SCALAR"},{"bufferView":36,"componentType":5122,"count":633,"max":[32767.0,32767.0,32767.0],"min":[-32767.0,-32767.0,-32767.0],"normalized":true,"type":"VEC3"},{"bufferView":37,"componentType":5120,"count":633,"normalized":true,"type":"VEC3"},{"bufferView":38,"componentType":5123,"count":633,"type":"SCALAR"},{"bufferView":39,"componentType":5122,"count":2496,"max":[8826.0,-25527.0,5407.0],"min":[4218.0,-29079.0,-1533.0],"normalized":true,"type":"VEC3"},{"bufferView":40,"componentType":5120,"count":2496,"normalized":true,"type":"VEC3"},{"bufferView":41,"componentType":5123,"count":3432,"type":"SCALAR"},{"bufferView":42,"componentType":5122,"count":96,"max":[32767.0,-28040.0,-15720.0],"min":[-32767.0,-32767.0,-27367.0],"normalized":true,"type":"VEC3"},{"bufferView":43,"componentType":5120,"count":96,"normalized":true,"type":"VEC3"},{"bufferView":44,"componentType":5123,"count":132,"type":"SCALAR"},{"bufferView":45,"componentType":5122,"count":4648,"max":[28287.0,-28622.0,32767.0],"min":[-6252.0,-28767.0,-32767.0],"normalized":true,"type":"VEC3"},{"bufferView":46,"componentType":5120,"count":4648,"normalized":true,"type":"VEC3"},{"bufferView":47,"componentType":5123,"count":7716,"type":"SCALAR"},{"bufferView":48,"componentType":5122,"count":1568,"max":[18467.0,-28949.0,15171.0],"min":[-974.0,-29095.0,-1802.0],"normalized":true,"type":"VEC3"},{"bufferView":49,"componentType":5120,"count":1568,"normalized":true,"type":"VEC3"},{"bufferView":50,"componentType":5123,"count":2604,"type":"SCALAR"},{"bufferView":51,"componentType":5122,"count":20592,"max":[24355.0,32767.0,8213.0],"min":[-1771.0,-30748.0,-15544.0],"normalized":true,"type":"VEC3"},{"bufferView":52,"componentType":5120,"count":20592,"normalized":true,"type":"VEC3"},{"bufferView":53,"componentType":5123,"count":31920,"type":"SCALAR"},{"bufferView":54,"componentType":5122,"count":1512,"max":[29340.0,-7689.0,14144.0],"min":[-3703.0,-30585.0,-15645.0],"normalized":true,"type":"VEC3"},{"bufferView":55,"componentType":5120,"count":1512,"normalized":true,"type":"VEC3"},{"bufferView":56,"componentType":5123,"count":2124,"type":"SCALAR"},{"bufferView":57,"componentType":5122,"count":96,"max":[11986.0,6018.0,8060.0],"min":[10552.0,-20782.0,-12333.0],"normalized":true,"type":"VEC3"},{"bufferView":58,"componentType":5120,"count":96,"normalized":true,"type":"VEC3"},{"bufferView":59,"componentType":5123,"count":144,"type":"SCALAR"},{"bufferView":60,"componentType":5122,"count":60,"max":[32767.0,-28737.0,-15816.0],"min":[-32767.0,-32767.0,-27298.0],"normalized":true,"type":"VEC3"},{"bufferView":61,"componentType":5120,"count":60,"normalized":true,"type":"VEC3"},{"bufferView":62,"componentType":5123,"count":60,"type":"SCALAR"},{"bufferView":63,"componentType":5122,"count":5292,"max":[28278.0,5949.0,32767.0],"min":[-6285.0,-29417.0,-32767.0],"normalized":true,"type":"VEC3"},{"bufferView":64,"componentType":5120,"count":5292,"normalized":true,"type":"VEC3"},{"bufferView":65,"componentType":5123,"count":5292,"type":"SCALAR"},{"bufferView":66,"componentType":5122,"count":1146,"max":[18450.0,-29286.0,15169.0],"min":[-1006.0,-29433.0,-1803.0],"normalized":true,"type":"VEC3"},{"bufferView":67,"componentType":5120,"count":1146,"normalized":true,"type":"VEC3"},{"bufferView":68,"componentType":5123,"count":1146,"type":"SCALAR"},{"bufferView":69,"componentType":5122,"count":14532,"max":[24337.0,32767.0,8149.0],"min":[-1803.0,-30831.0,-15547.0],"normalized":true,"type":"VEC3"},{"bufferView":70,"componentType":5120,"count":14532,"normalized":true,"type":"VEC3"},{"bufferView":71,"componentType":5123,"count":14532,"type":"SCALAR"},{"bufferView":72,"componentType":5122,"count":930,"max":[29337.0,-7864.0,14042.0],"min":[-3670.0,-30935.0,-15647.0],"normalized":true,"type":"VEC3"},{"bufferView":73,"componentType":5120,"count":930,"normalized":true,"type":"VEC3"},{"bufferView":74,"componentType":5123,"count":930,"type":"SCALAR"},{"bufferView":75,"componentType":5122,"count":1872,"max":[32767.0,5998.0,32767.0],"min":[-32767.0,-32767.0,-32767.0],"normalized":true,"type":"VEC3"},{"bufferView":76,"componentType":5120,"count":1872,"normalized":true,"type":"VEC3"},{"bufferView":77,"componentType":5123,"count":1872,"type":"SCALAR"},{"bufferView":78,"componentType":5122,"count":321,"max":[18478.0,-30188.0,15167.0],"min":[-981.0,-30287.0,-1793.0],"normalized":true,"type":"VEC3"},{"bufferView":79,"componentType":5120,"count":321,"normalized":true,"type":"VEC3"},{"bufferView":80,"componentType":5123,"count":321,"type":"SCALAR"},{"bufferView":81,"componentType":5122,"count":4620,"max":[24283.0,32767.0,8094.0],"min":[-1441.0,-30984.0,-15396.0],"normalized":true,"type":"VEC3"},{"bufferView":82,"componentType":5120,"count":4620,"normalized":true,"type":"VEC3"},{"bufferView":83,"componentType":5123,"count":4620,"type":"SCALAR"},{"bufferView":84,"componentType":5122,"count":399,"max":[32767.0,-25353.0,32767.0],"min":[-32767.0,-32767.0,-32767.0],"normalized":true,"type":"VEC3"},{"bufferView":85,"componentType":5120,"count":399,"normalized":true,"type":"VEC3"},{"bufferView":86,"componentType":5123,"count":399,"type":"SCALAR"},{"bufferView":87,"componentType":5122,"count":795,"max":[22714.0,32767.0,8131.0],"min":[-1078.0,-31220.0,-15113.0],"normalized":true,"type":"VEC3"},{"bufferView":88,"componentType":5120,"count":795,"normalized":true,"type":"VEC3"},{"bufferView":89,"componentType":5123,"count":795,"type":"SCALAR"},{"bufferView":90,"componentType":5122,"count":1568,"max":[-863.0,-32337.0,31544.0],"min":[-9370.0,-32369.0,-10198.0],"normalized":true,"type":"VEC3"},{"bufferView":91,"componentType":5120,"count":1568,"normalized":true,"type":"VEC3"},{"bufferView":92,"componentType":5123,"count":2604,"type":"SCALAR"},{"bufferView":93,"componentType":5122,"count":32,"max":[-346.0,-9309.0,-12495.0],"min":[-1256.0,-11001.0,-13887.0],"normalized":true,"type":"VEC3"},{"bufferView":94,"componentType":5120,"count":32,"normalized":true,"type":"VEC3"},{"bufferView":95,"componentType":5123,"count":48,"type":"SCALAR"},{"bufferView":96,"componentType":5122,"count":26280,"max":[32767.0,32748.0,32767.0],"min":[-32767.0,-32453.0,-32767.0],"normalized":true,"type":"VEC3"},{"bufferView":97,"componentType":5120,"count":26280,"normalized":true,"type":"VEC3"},{"bufferView":98,"componentType":5123,"count":38700,"type":"SCALAR"},{"bufferView":99,"componentType":5122,"count":672,"max":[29629.0,10387.0,28485.0],"min":[-29629.0,-23301.0,-28485.0],"normalized":true,"type":"VEC3"},{"bufferView":100,"componentType":5120,"count":672,"normalized":true,"type":"VEC3"},{"bufferView":101,"componentType":5123,"count":924,"type":"SCALAR"},{"bufferView":102,"componentType":5122,"count":288,"max":[-136.0,-31653.0,25083.0],"min":[-30450.0,-32767.0,16359.0],"normalized":true,"type":"VEC3"},{"bufferView":103,"componentType":5120,"count":288,"normalized":true,"type":"VEC3"},{"bufferView":104,"componentType":5123,"count":396,"type":"SCALAR"},{"bufferView":105,"componentType":5122,"count":5472,"max":[32401.0,32767.0,32542.0],"min":[-32389.0,10674.0,-32540.0],"normalized":true,"type":"VEC3"},{"bufferView":106,"componentType":5120,"count":5472,"normalized":true,"type":"VEC3"},{"bufferView":107,"componentType":5121,"count":5472,"normalized":true,"type":"VEC4"},{"bufferView":108,"componentType":5123,"count":7524,"type":"SCALAR"},{"bufferView":109,"componentType":5122,"count":1230,"max":[-864.0,-32337.0,31555.0],"min":[-9367.0,-32369.0,-10203.0],"normalized":true,"type":"VEC3"},{"bufferView":110,"componentType":5120,"count":1230,"normalized":true,"type":"VEC3"},{"bufferView":111,"componentType":5123,"count":1230,"type":"SCALAR"},{"bufferView":112,"componentType":5122,"count":18309,"max":[32767.0,32748.0,32767.0],"min":[-32767.0,-32767.0,-32767.0],"normalized":true,"type":"VEC3"},{"bufferView":113,"componentType":5120,"count":18309,"normalized":true,"type":"VEC3"},{"bufferView":114,"componentType":5123,"count":18309,"type":"SCALAR"},{"bufferView":115,"componentType":5122,"count":408,"max":[29598.0,10387.0,28497.0],"min":[-29598.0,-23277.0,-28451.0],"normalized":true,"type":"VEC3"},{"bufferView":116,"componentType":5120,"count":408,"normalized":true,"type":"VEC3"},{"bufferView":117,"componentType":5123,"count":408,"type":"SCALAR"},{"bufferView":118,"componentType":5122,"count":3432,"max":[32391.0,32767.0,32533.0],"min":[-32378.0,10674.0,-32531.0],"normalized":true,"type":"VEC3"},{"bufferView":119,"componentType":5120,"count":3432,"normalized":true,"type":"VEC3"},{"bufferView":120,"componentType":5121,"count":3432,"normalized":true,"type":"VEC4"},{"bufferView":121,"componentType":5123,"count":3432,"type":"SCALAR"},{"bufferView":122,"componentType":5122,"count":6042,"max":[32767.0,32767.0,32767.0],"min":[-32767.0,-32767.0,-32767.0],"normalized":true,"type":"VEC3"},{"bufferView":123,"componentType":5120,"count":6042,"normalized":true,"type":"VEC3"},{"bufferView":124,"componentType":5123,"count":6042,"type":"SCALAR"},{"bufferView":125,"componentType":5122,"count":1008,"max":[32364.0,32431.0,32406.0],"min":[-32365.0,10676.0,-32427.0],"normalized":true,"type":"VEC3"},{"bufferView":126,"componentType":5120,"count":1008,"normalized":true,"type":"VEC3"},{"bufferView":127,"componentType":5121,"count":1008,"normalized":true,"type":"VEC4"},{"bufferView":128,"componentType":5123,"count":1008,"type":"SCALAR"},{"bufferView":129,"componentType":5122,"count":1029,"max":[32701.0,32767.0,32767.0],"min":[-31808.0,-32767.0,-32676.0],"normalized":true,"type":"VEC3"},{"bufferView":130,"componentType":5120,"count":1029,"normalized":true,"type":"VEC3"},{"bufferView":131,"componentType":5123,"count":1029,"type":"SCALAR"},{"bufferView":132,"componentType":5122,"count":198,"max":[32767.0,31526.0,32730.0],"min":[-32767.0,10682.0,-32767.0],"normalized":true,"type":"VEC3"},{"bufferView":133,"componentType":5120,"count":198,"normalized":true,"type":"VEC3"},{"bufferView":134,"componentType":5121,"count":198,"normalized":true,"type":"VEC4"},{"bufferView":135,"componentType":5123,"count":198,"type":"SCALAR"},{"bufferView":136,"componentType":5122,"count":1568,"max":[12729.0,-30792.0,32767.0],"min":[-20061.0,-30865.0,-21720.0],"normalized":true,"type":"VEC3"},{"bufferView":137,"componentType":5120,"count":1568,"normalized":true,"type":"VEC3"},{"bufferView":138,"componentType":5123,"count":2604,"type":"SCALAR"},{"bufferView":139,"componentType":5122,"count":304,"max":[27145.0,-21766.0,-14055.0],"min":[19474.0,-31229.0,-22347.0],"normalized":true,"type":"VEC3"},{"bufferView":140,"componentType":5120,"count":304,"normalized":true,"type":"VEC3"},{"bufferView":141,"componentType":5123,"count":498,"type":"SCALAR"},{"bufferView":142,"componentType":5122,"count":1568,"max":[26127.0,-30956.0,6980.0],"min":[-8299.0,-31029.0,-4867.0],"normalized":true,"type":"VEC3"},{"bufferView":143,"componentType":5120,"count":1568,"normalized":true,"type":"VEC3"},{"bufferView":144,"componentType":5123,"count":2604,"type":"SCALAR"},{"bufferView":145,"componentType":5122,"count":13740,"max":[32767.0,32767.0,30088.0],"min":[-27346.0,-32767.0,-32767.0],"normalized":true,"type":"VEC3"},{"bufferView":146,"componentType":5120,"count":13740,"normalized":true,"type":"VEC3"},{"bufferView":147,"componentType":5123,"count":21720,"type":"SCALAR"},{"bufferView":148,"componentType":5122,"count":192,"max":[5756.0,-29227.0,12003.0],"min":[-32767.0,-31775.0,1443.0],"normalized":true,"type":"VEC3"},{"bufferView":149,"componentType":5120,"count":192,"normalized":true,"type":"VEC3"},{"bufferView":150,"componentType":5123,"count":264,"type":"SCALAR"},{"bufferView":151,"componentType":5122,"count":1194,"max":[12672.0,-30788.0,32767.0],"min":[-20182.0,-30860.0,-21720.0],"normalized":true,"type":"VEC3"},{"bufferView":152,"componentType":5120,"count":1194,"normalized":true,"type":"VEC3"},{"bufferView":153,"componentType":5123,"count":1194,"type":"SCALAR"},{"bufferView":154,"componentType":5122,"count":234,"max":[26801.0,-21739.0,-14294.0],"min":[19771.0,-30496.0,-22208.0],"normalized":true,"type":"VEC3"},{"bufferView":155,"componentType":5120,"count":234,"normalized":true,"type":"VEC3"},{"bufferView":156,"componentType":5123,"count":234,"type":"SCALAR"},{"bufferView":157,"componentType":5122,"count":1254,"max":[26106.0,-30952.0,6971.0],"min":[-8395.0,-31025.0,-4864.0],"normalized":true,"type":"VEC3"},{"bufferView":158,"componentType":5120,"count":1254,"normalized":true,"type":"VEC3"},{"bufferView":159,"componentType":5123,"count":1254,"type":"SCALAR"},{"bufferView":160,"componentType":5122,"count":9273,"max":[32767.0,32767.0,30087.0],"min":[-27482.0,-32767.0,-32767.0],"normalized":true,"type":"VEC3"},{"bufferView":161,"componentType":5120,"count":9273,"normalized":true,"type":"VEC3"},{"bufferView":162,"componentType":5123,"count":9273,"type":"SCALAR"},{"bufferView":163,"componentType":5122,"count":120,"max":[5566.0,-29219.0,11835.0],"min":[-32767.0,-31773.0,1616.0],"normalized":true,"type":"VEC3"},{"bufferView":164,"componentType":5120,"count":120,"normalized":true,"type":"VEC3"},{"bufferView":165,"componentType":5123,"count":120,"type":"SCALAR"},{"bufferView":166,"componentType":5122,"count":333,"max":[12669.0,-30764.0,32767.0],"min":[-20177.0,-30812.0,-21745.0],"normalized":true,"type":"VEC3"},{"bufferView":167,"componentType":5120,"count":333,"normalized":true,"type":"VEC3"},{"bufferView":168,"componentType":5123,"count":333,"type":"SCALAR"},{"bufferView":169,"componentType":5122,"count":390,"max":[26099.0,-30936.0,6948.0],"min":[-8390.0,-30987.0,-4879.0],"normalized":true,"type":"VEC3"},{"bufferView":170,"componentType":5120,"count":390,"normalized":true,"type":"VEC3"},{"bufferView":171,"componentType":5123,"count":390,"type":"SCALAR"},{"bufferView":172,"componentType":5122,"count":2775,"max":[32767.0,32767.0,30039.0],"min":[-32767.0,-32767.0,-32767.0],"normalized":true,"type":"VEC3"},{"bufferView":173,"componentType":5120,"count":2775,"normalized":true,"type":"VEC3"},{"bufferView":174,"componentType":5123,"count":2775,"type":"SCALAR"},{"bufferView":175,"componentType":5122,"count":60,"max":[17042.0,-32333.0,32767.0],"min":[-15696.0,-32357.0,-21540.0],"normalized":true,"type":"VEC3"},{"bufferView":176,"componentType":5120,"count":60,"normalized":true,"type":"VEC3"},{"bufferView":177,"componentType":5123,"count":60,"type":"SCALAR"},{"bufferView":178,"componentType":5122,"count":567,"max":[32767.0,32767.0,28059.0],"min":[-32767.0,-32767.0,-32767.0],"normalized":true,"type":"VEC3"},{"bufferView":179,"componentType":5120,"count":567,"normalized":true,"type":"VEC3"},{"bufferView":180,"componentType":5123,"count":567,"type":"SCALAR"},{"bufferView":181,"componentType":5122,"count":1512,"normalized":true,"type":"VEC2"},{"bufferView":182,"componentType":5122,"count":392,"normalized":true,"type":"VEC2"},{"bufferView":183,"componentType":5122,"count":32,"normalized":true,"type":"VEC2"},{"bufferView":184,"componentType":5122,"count":1512,"normalized":true,"type":"VEC2"},{"bufferView":185,"componentType":5122,"count":10547,"normalized":true,"type":"VEC2"},{"bufferView":186,"componentType":5122,"count":902,"normalized":true,"type":"VEC2"},{"bufferView":187,"componentType":5122,"count":192,"normalized":true,"type":"VEC2"},{"bufferView":188,"componentType":5122,"count":48,"normalized":true,"type":"VEC2"},{"bufferView":189,"componentType":5122,"count":96,"normalized":true,"type":"VEC2"},{"bufferView":190,"componentType":5122,"count":7239,"normalized":true,"type":"VEC2"},{"bufferView":191,"componentType":5122,"count":3480,"normalized":true,"type":"VEC2"},{"bufferView":192,"componentType":5122,"count":3210,"normalized":true,"type":"VEC2"},{"bufferView":193,"componentType":5122,"count":633,"normalized":true,"type":"VEC2"},{"bufferView":194,"componentType":5122,"count":2496,"normalized":true,"type":"VEC2"},{"bufferView":195,"componentType":5122,"count":96,"normalized":true,"type":"VEC2"},{"bufferView":196,"componentType":5122,"count":4648,"normalized":true,"type":"VEC2"},{"bufferView":197,"componentType":5122,"count":1568,"normalized":true,"type":"VEC2"},{"bufferView":198,"componentType":5122,"count":20592,"normalized":true,"type":"VEC2"},{"bufferView":199,"componentType":5122,"count":1512,"normalized":true,"type":"VEC2"},{"bufferView":200,"componentType":5122,"count":96,"normalized":true,"type":"VEC2"},{"bufferView":201,"componentType":5122,"count":60,"normalized":true,"type":"VEC2"},{"bufferView":202,"componentType":5122,"count":5292,"normalized":true,"type":"VEC2"},{"bufferView":203,"componentType":5122,"count":1146,"normalized":true,"type":"VEC2"},{"bufferView":204,"componentType":5122,"count":14532,"normalized":true,"type":"VEC2"},{"bufferView":205,"componentType":5122,"count":930,"normalized":true,"type":"VEC2"},{"bufferView":206,"componentType":5122,"count":1872,"normalized":true,"type":"VEC2"},{"bufferView":207,"componentType":5122,"count":321,"normalized":true,"type":"VEC2"},{"bufferView":208,"componentType":5122,"count":4620,"normalized":true,"type":"VEC2"},{"bufferView":209,"componentType":5122,"count":399,"normalized":true,"type":"VEC2"},{"bufferView":210,"componentType":5122,"count":795,"normalized":true,"type":"VEC2"},{"bufferView":211,"componentType":5122,"count":1568,"normalized":true,"type":"VEC2"},{"bufferView":212,"componentType":5122,"count":32,"normalized":true,"type":"VEC2"},{"bufferView":213,"componentType":5122,"count":26280,"normalized":true,"type":"VEC2"},{"bufferView":214,"componentType":5122,"count":672,"normalized":true,"type":"VEC2"},{"bufferView":215,"componentType":5122,"count":288,"normalized":true,"type":"VEC2"},{"bufferView":216,"componentType":5122,"count":5472,"normalized":true,"type":"VEC2"},{"bufferView":217,"componentType":5122,"count":1230,"normalized":true,"type":"VEC2"},{"bufferView":218,"componentType":5122,"count":18309,"normalized":true,"type":"VEC2"},{"bufferView":219,"componentType":5122,"count":408,"normalized":true,"type":"VEC2"},{"bufferView":220,"componentType":5122,"count":3432,"normalized":true,"type":"VEC2"},{"bufferView":221,"componentType":5122,"count":6042,"normalized":true,"type":"VEC2"},{"bufferView":222,"componentType":5122,"count":1008,"normalized":true,"type":"VEC2"},{"bufferView":223,"componentType":5122,"count":1029,"normalized":true,"type":"VEC2"},{"bufferView":224,"componentType":5122,"count":198,"normalized":true,"type":"VEC2"},{"bufferView":225,"componentType":5122,"count":1568,"normalized":true,"type":"VEC2"},{"bufferView":226,"componentType":5122,"count":304,"normalized":true,"type":"VEC2"},{"bufferView":227,"componentType":5122,"count":1568,"normalized":true,"type":"VEC2"},{"bufferView":228,"componentType":5122,"count":13740,"normalized":true,"type":"VEC2"},{"bufferView":229,"componentType":5122,"count":192,"normalized":true,"type":"VEC2"},{"bufferView":230,"componentType":5122,"count":1194,"normalized":true,"type":"VEC2"},{"bufferView":231,"componentType":5122,"count":234,"normalized":true,"type":"VEC2"},{"bufferView":232,"componentType":5122,"count":1254,"normalized":true,"type":"VEC2"},{"bufferView":233,"componentType":5122,"count":9273,"normalized":true,"type":"VEC2"},{"bufferView":234,"componentType":5122,"count":120,"normalized":true,"type":"VEC2"},{"bufferView":235,"componentType":5122,"count":333,"normalized":true,"type":"VEC2"},{"bufferView":236,"componentType":5122,"count":390,"normalized":true,"type":"VEC2"},{"bufferView":237,"componentType":5122,"count":2775,"normalized":true,"type":"VEC2"},{"bufferView":238,"componentType":5122,"count":60,"normalized":true,"type":"VEC2"},{"bufferView":239,"componentType":5122,"count":567,"normalized":true,"type":"VEC2"}],"asset":{"generator":"evermore assetgen","version":"2.0"},"bufferViews":[{"buffer":0,"byteLength":12096,"byteOffset":0,"byteStride":8,"target":34962},{"buffer":0,"byteLength":6048,"byteOffset":12096,"byteStride":4,"target":34962},{"buffer":0,"byteLength":5016,"byteOffset":18144,"target":34963},{"buffer":0,"byteLength":3136,"byteOffset":23160,"byteStride":8,"target":34962},{"buffer":0,"byteLength":1568,"byteOffset":26296,"byteStride":4,"target":34962},{"buffer":0,"byteLength":1296,"byteOffset":27864,"target":34963},{"buffer":0,"byteLength":256,"byteOffset":29160,"byteStride":8,"target":34962},{"buffer":0,"byteLength":128,"byteOffset":29416,"byteStride":4,"target":34962},{"buffer":0,"byteLength":96,"byteOffset":29544,"target":34963},{"buffer":0,"byteLength":12096,"byteOffset":29640,"byteStride":8,"target":34962},{"buffer":0,"byteLength":6048,"byteOffset":41736,"byteStride":4,"target":34962},{"buffer":0,"byteLength":5016,"byteOffset":47784,"target":34963},{"buffer":0,"byteLength":84376,"byteOffset":52800,"byteStride":8,"target":34962},{"buffer":0,"byteLength":42188,"byteOffset":137176,"byteStride":4,"target":34962},{"buffer":0,"byteLength":32976,"byteOffset":179364,"target":34963},{"buffer":0,"byteLength":7216,"byteOffset":212340,"byteStride":8,"target":34962},{"buffer":0,"byteLength":3608,"byteOffset":219556,"byteStride":4,"target":34962},{"buffer":0,"byteLength":2736,"byteOffset":223164,"target":34963},{"buffer":0,"byteLength":1536,"byteOffset":225900,"byteStride":8,"target":34962},{"buffer":0,"byteLength":768,"byteOffset":227436,"byteStride":4,"target":34962},{"buffer":0,"byteLength":528,"byteOffset":228204,"target":34963},{"buffer":0,"byteLength":384,"byteOffset":228732,"byteStride":8,"target":34962},{"buffer":0,"byteLength":192,"byteOffset":229116,"byteStride":4,"target":34962},{"buffer":0,"byteLength":144,"byteOffset":229308,"target":34963},{"buffer":0,"byteLength":768,"byteOffset":229452,"byteStride":8,"target":34962},{"buffer":0,"byteLength":384,"byteOffset":230220,"byteStride":4,"target":34962},{"buffer":0,"byteLength":264,"byteOffset":230604,"target":34963},{"buffer":0,"byteLength":57912,"byteOffset":230868,"byteStride":8,"target":34962},{"buffer":0,"byteLength":28956,"byteOffset":288780,"byteStride":4,"target":34962},{"buffer":0,"byteLength":14478,"byteOffset":317736,"target":34963},{"buffer":0,"byteLength":27840,"byteOffset":332216,"byteStride":8,"target":34962},{"buffer":0,"byteLength":13920,"byteOffset":360056,"byteStride":4,"target":34962},{"buffer":0,"byteLength":6960,"byteOffset":373976,"target":34963},{"buffer":0,"byteLength":25680,"byteOffset":380936,"byteStride":8,"target":34962},{"buffer":0,"byteLength":12840,"byteOffset":406616,"byteStride":4,"target":34962},{"buffer":0,"byteLength":6420,"byteOffset":419456,"target":34963},{"buffer":0,"byteLength":5064,"byteOffset":425876,"byteStride":8,"target":34962},{"buffer":0,"byteLength":2532,"byteOffset":430940,"byteStride":4,"target":34962},{"buffer":0,"byteLength":1266,"byteOffset":433472,"target":34963},{"buffer":0,"byteLength":19968,"byteOffset":434740,"byteStride":8,"target":34962},{"buffer":0,"byteLength":9984,"byteOffset":454708,"byteStride":4,"target":34962},{"buffer":0,"byteLength":6864,"byteOffset":464692,"target":34963},{"buffer":0,"byteLength":768,"byteOffset":471556,"byteStride":8,"target":34962},{"buffer":0,"byteLength":384,"byteOffset":472324,"byteStride":4,"target":34962},{"buffer":0,"byteLength":264,"byteOffset":472708,"target":34963},{"buffer":0,"byteLength":37184,"byteOffset":472972,"byteStride":8,"target":34962},{"buffer":0,"byteLength":18592,"byteOffset":510156,"byteStride":4,"target":34962},{"buffer":0,"byteLength":15432,"byteOffset":528748,"target":34963},{"buffer":0,"byteLength":12544,"byteOffset":544180,"byteStride":8,"target":34962},{"buffer":0,"byteLength":6272,"byteOffset":556724,"byteStride":4,"target":34962},{"buffer":0,"byteLength":5208,"byteOffset":562996,"target":34963},{"buffer":0,"byteLength":164736,"byteOffset":568204,"byteStride":8,"target":34962},{"buffer":0,"byteLength":82368,"byteOffset":732940,"byteStride":4,"target":34962},{"buffer":0,"byteLength":63840,"byteOffset":815308,"target":34963},{"buffer":0,"byteLength":12096,"byteOffset":879148,"byteStride":8,"target":34962},{"buffer":0,"byteLength":6048,"byteOffset":891244,"byteStride":4,"target":34962},{"buffer":0,"byteLength":4248,"byteOffset":897292,"target":34963},{"buffer":0,"byteLength":768,"byteOffset":901540,"byteStride":8,"target":34962},{"buffer":0,"byteLength":384,"byteOffset":902308,"byteStride":4,"target":34962},{"buffer":0,"byteLength":288,"byteOffset":902692,"target":34963},{"buffer":0,"byteLength":480,"byteOffset":902980,"byteStride":8,"target":34962},{"buffer":0,"byteLength":240,"byteOffset":903460,"byteStride":4,"target":34962},{"buffer":0,"byteLength":120,"byteOffset":903700,"target":34963},{"buffer":0,"byteLength":42336,"byteOffset":903820,"byteStride":8,"target":34962},{"buffer":0,"byteLength":21168,"byteOffset":946156,"byteStride":4,"target":34962},{"buffer":0,"byteLength":10584,"byteOffset":967324,"target":34963},{"buffer":0,"byteLength":9168,"byteOffset":977908,"byteStride":8,"target":34962},{"buffer":0,"byteLength":4584,"byteOffset":987076,"byteStride":4,"target":34962},{"buffer":0,"byteLength":2292,"byteOffset":991660,"target":34963},{"buffer":0,"byteLength":116256,"byteOffset":993952,"byteStride":8,"target":34962},{"buffer":0,"byteLength":58128,"byteOffset":1110208,"byteStride":4,"target":34962},{"buffer":0,"byteLength":29064,"byteOffset":1168336,"target":34963},{"buffer":0,"byteLength":7440,"byteOffset":1197400,"byteStride":8,"target":34962},{"buffer":0,"byteLength":3720,"byteOffset":1204840,"byteStride":4,"target":34962},{"buffer":0,"byteLength":1860,"byteOffset":1208560,"target":34963},{"buffer":0,"byteLength":14976,"byteOffset":1210420,"byteStride":8,"target":34962},{"buffer":0,"byteLength":7488,"byteOffset":1225396,"byteStride":4,"target":34962},{"buffer":0,"byteLength":3744,"byteOffset":1232884,"target":34963},{"buffer":0,"byteLength":2568,"byteOffset":1236628,"byteStride":8,"target":34962},{"buffer":0,"byteLength":1284,"byteOffset":1239196,"byteStride":4,"target":34962},{"buffer":0,"byteLength":642,"byteOffset":1240480,"target":34963},{"buffer":0,"byteLength":36960,"byteOffset":1241124,"byteStride":8,"target":34962},{"buffer":0,"byteLength":18480,"byteOffset":1278084,"byteStride":4,"target":34962},{"buffer":0,"byteLength":9240,"byteOffset":1296564,"target":34963},{"buffer":0,"byteLength":3192,"byteOffset":1305804,"byteStride":8,"target":34962},{"buffer":0,"byteLength":1596,"byteOffset":1308996,"byteStride":4,"target":34962},{"buffer":0,"byteLength":798,"byteOffset":1310592,"target":34963},{"buffer":0,"byteLength":6360,"byteOffset":1311392,"byteStride":8,"target":34962},{"buffer":0,"byteLength":3180,"byteOffset":1317752,"byteStride":4,"target":34962},{"buffer":0,"byteLength":1590,"byteOffset":1320932,"target":34963},{"buffer":0,"byteLength":12544,"byteOffset":1322524,"byteStride":8,"target":34962},{"buffer":0,"byteLength":6272,"byteOffset":1335068,"byteStride":4,"target":34962},{"buffer":0,"byteLength":5208,"byteOffset":1341340,"target":34963},{"buffer":0,"byteLength":256,"byteOffset":1346548,"byteStride":8,"target":34962},{"buffer":0,"byteLength":128,"byteOffset":1346804,"byteStride":4,"target":34962},{"buffer":0,"byteLength":96,"byteOffset":1346932,"target":34963},{"buffer":0,"byteLength":210240,"byteOffset":1347028,"byteStride":8,"target":34962},{"buffer":0,"byteLength":105120,"byteOffset":1557268,"byteStride":4,"target":34962},{"buffer":0,"byteLength":77400,"byteOffset":1662388,"target":34963},{"buffer":0,"byteLength":5376,"byteOffset":1739788,"byteStride":8,"target":34962},{"buffer":0,"byteLength":2688,"byteOffset":1745164,"byteStride":4,"target":34962},{"buffer":0,"byteLength":1848,"byteOffset":1747852,"target":34963},{"buffer":0,"byteLength":2304,"byteOffset":1749700,"byteStride":8,"target":34962},{"buffer":0,"byteLength":1152,"byteOffset":1752004,"byteStride":4,"target":34962},{"buffer":0,"byteLength":792,"byteOffset":1753156,"target":34963},{"buffer":0,"byteLength":43776,"byteOffset":1753948,"byteStride":8,"target":34962},{"buffer":0,"byteLength":21888,"byteOffset":1797724,"byteStride":4,"target":34962},{"buffer":0,"byteLength":21888,"byteOffset":1819612,"byteStride":4,"target":34962},{"buffer":0,"byteLength":15048,"byteOffset":1841500,"target":34963},{"buffer":0,"byteLength":9840,"byteOffset":1856548,"byteStride":8,"target":34962},{"buffer":0,"byteLength":4920,"byteOffset":1866388,"byteStride":4,"target":34962},{"buffer":0,"byteLength":2460,"byteOffset":1871308,"target":34963},{"buffer":0,"byteLength":146472,"byteOffset":1873768,"byteStride":8,"target":34962},{"buffer":0,"byteLength":73236,"byteOffset":2020240,"byteStride":4,"target":34962},{"buffer":0,"byteLength":36618,"byteOffset":2093476,"target":34963},{"buffer":0,"byteLength":3264,"byteOffset":2130096,"byteStride":8,"target":34962},{"buffer":0,"byteLength":1632,"byteOffset":2133360,"byteStride":4,"target":34962},{"buffer":0,"byteLength":816,"byteOffset":2134992,"target":34963},{"buffer":0,"byteLength":27456,"byteOffset":2135808,"byteStride":8,"target":34962},{"buffer":0,"byteLength":13728,"byteOffset":2163264,"byteStride":4,"target":34962},{"buffer":0,"byteLength":13728,"byteOffset":2176992,"byteStride":4,"target":34962},{"buffer":0,"byteLength":6864,"byteOffset":2190720,"target":34963},{"buffer":0,"byteLength":48336,"byteOffset":2197584,"byteStride":8,"target":34962},{"buffer":0,"byteLength":24168,"byteOffset":2245920,"byteStride":4,"target":34962},{"buffer":0,"byteLength":12084,"byteOffset":2270088,"target":34963},{"buffer":0,"byteLength":8064,"byteOffset":2282172,"byteStride":8,"target":34962},{"buffer":0,"byteLength":4032,"byteOffset":2290236,"byteStride":4,"target":34962},{"buffer":0,"byteLength":4032,"byteOffset":2294268,"byteStride":4,"target":34962},{"buffer":0,"byteLength":2016,"byteOffset":2298300,"target":34963},{"buffer":0,"byteLength":8232,"byteOffset":2300316,"byteStride":8,"target":34962},{"buffer":0,"byteLength":4116,"byteOffset":2308548,"byteStride":4,"target":34962},{"buffer":0,"byteLength":2058,"byteOffset":2312664,"target":34963},{"buffer":0,"byteLength":1584,"byteOffset":2314724,"byteStride":8,"target":34962},{"buffer":0,"byteLength":792,"byteOffset":2316308,"byteStride":4,"target":34962},{"buffer":0,"byteLength":792,"byteOffset":2317100,"byteStride":4,"target":34962},{"buffer":0,"byteLength":396,"byteOffset":2317892,"target":34963},{"buffer":0,"byteLength":12544,"byteOffset":2318288,"byteStride":8,"target":34962},{"buffer":0,"byteLength":6272,"byteOffset":2330832,"byteStride":4,"target":34962},{"buffer":0,"byteLength":5208,"byteOffset":2337104,"target":34963},{"buffer":0,"byteLength":2432,"byteOffset":2342312,"byteStride":8,"target":34962},{"buffer":0,"byteLength":1216,"byteOffset":2344744,"byteStride":4,"target":34962},{"buffer":0,"byteLength":996,"byteOffset":2345960,"target":34963},{"buffer":0,"byteLength":12544,"byteOffset":2346956,"byteStride":8,"target":34962},{"buffer":0,"byteLength":6272,"byteOffset":2359500,"byteStride":4,"target":34962},{"buffer":0,"byteLength":5208,"byteOffset":2365772,"target":34963},{"buffer":0,"byteLength":109920,"byteOffset":2370980,"byteStride":8,"target":34962},{"buffer":0,"byteLength":54960,"byteOffset":2480900,"byteStride":4,"target":34962},{"buffer":0,"byteLength":43440,"byteOffset":2535860,"target":34963},{"buffer":0,"byteLength":1536,"byteOffset":2579300,"byteStride":8,"target":34962},{"buffer":0,"byteLength":768,"byteOffset":2580836,"byteStride":4,"target":34962},{"buffer":0,"byteLength":528,"byteOffset":2581604,"target":34963},{"buffer":0,"byteLength":9552,"byteOffset":2582132,"byteStride":8,"target":34962},{"buffer":0,"byteLength":4776,"byteOffset":2591684,"byteStride":4,"target":34962},{"buffer":0,"byteLength":2388,"byteOffset":2596460,"target":34963},{"buffer":0,"byteLength":1872,"byteOffset":2598848,"byteStride":8,"target":34962},{"buffer":0,"byteLength":936,"byteOffset":2600720,"byteStride":4,"target":34962},{"buffer":0,"byteLength":468,"byteOffset":2601656,"target":34963},{"buffer":0,"byteLength":10032,"byteOffset":2602124,"byteStride":8,"target":34962},{"buffer":0,"byteLength":5016,"byteOffset":2612156,"byteStride":4,"target":34962},{"buffer":0,"byteLength":2508,"byteOffset":2617172,"target":34963},{"buffer":0,"byteLength":74184,"byteOffset":2619680,"byteStride":8,"target":34962},{"buffer":0,"byteLength":37092,"byteOffset":2693864,"byteStride":4,"target":34962},{"buffer":0,"byteLength":18546,"byteOffset":2730956,"target":34963},{"buffer":0,"byteLength":960,"byteOffset":2749504,"byteStride":8,"target":34962},{"buffer":0,"byteLength":480,"byteOffset":2750464,"byteStride":4,"target":34962},{"buffer":0,"byteLength":240,"byteOffset":2750944,"target":34963},{"buffer":0,"byteLength":2664,"byteOffset":2751184,"byteStride":8,"target":34962},{"buffer":0,"byteLength":1332,"byteOffset":2753848,"byteStride":4,"target":34962},{"buffer":0,"byteLength":666,"byteOffset":2755180,"target":34963},{"buffer":0,"byteLength":3120,"byteOffset":2755848,"byteStride":8,"target":34962},{"buffer":0,"byteLength":1560,"byteOffset":2758968,"byteStride":4,"target":34962},{"buffer":0,"byteLength":780,"byteOffset":2760528,"target":34963},{"buffer":0,"byteLength":22200,"byteOffset":2761308,"byteStride":8,"target":34962},{"buffer":0,"byteLength":11100,"byteOffset":2783508,"byteStride":4,"target":34962},{"buffer":0,"byteLength":5550,"byteOffset":2794608,"target":34963},{"buffer":0,"byteLength":480,"byteOffset":2800160,"byteStride":8,"target":34962},{"buffer":0,"byteLength":240,"byteOffset":2800640,"byteStride":4,"target":34962},{"buffer":0,"byteLength":120,"byteOffset":2800880,"target":34963},{"buffer":0,"byteLength":4536,"byteOffset":2801000,"byteStride":8,"target":34962},{"buffer":0,"byteLength":2268,"byteOffset":2805536,"byteStride":4,"target":34962},{"buffer":0,"byteLength":1134,"byteOffset":2807804,"target":34963},{"buffer":0,"byteLength":6048,"byteOffset":2808940,"byteStride":4,"target":34962},{"buffer":0,"byteLength":1568,"byteOffset":2814988,"byteStride":4,"target":34962},{"buffer":0,"byteLength":128,"byteOffset":2816556,"byteStride":4,"target":34962},{"buffer":0,"byteLength":6048,"byteOffset":2816684,"byteStride":4,"target":34962},{"buffer":0,"byteLength":42188,"byteOffset":2822732,"byteStride":4,"target":34962},{"buffer":0,"byteLength":3608,"byteOffset":2864920,"byteStride":4,"target":34962},{"buffer":0,"byteLength":768,"byteOffset":2868528,"byteStride":4,"target":34962},{"buffer":0,"byteLength":192,"byteOffset":2869296,"byteStride":4,"target":34962},{"buffer":0,"byteLength":384,"byteOffset":2869488,"byteStride":4,"target":34962},{"buffer":0,"byteLength":28956,"byteOffset":2869872,"byteStride":4,"target":34962},{"buffer":0,"byteLength":13920,"byteOffset":2898828,"byteStride":4,"target":34962},{"buffer":0,"byteLength":12840,"byteOffset":2912748,"byteStride":4,"target":34962},{"buffer":0,"byteLength":2532,"byteOffset":2925588,"byteStride":4,"target":34962},{"buffer":0,"byteLength":9984,"byteOffset":2928120,"byteStride":4,"target":34962},{"buffer":0,"byteLength":384,"byteOffset":2938104,"byteStride":4,"target":34962},{"buffer":0,"byteLength":18592,"byteOffset":2938488,"byteStride":4,"target":34962},{"buffer":0,"byteLength":6272,"byteOffset":2957080,"byteStride":4,"target":34962},{"buffer":0,"byteLength":82368,"byteOffset":2963352,"byteStride":4,"target":34962},{"buffer":0,"byteLength":6048,"byteOffset":3045720,"byteStride":4,"target":34962},{"buffer":0,"byteLength":384,"byteOffset":3051768,"byteStride":4,"target":34962},{"buffer":0,"byteLength":240,"byteOffset":3052152,"byteStride":4,"target":34962},{"buffer":0,"byteLength":21168,"byteOffset":3052392,"byteStride":4,"target":34962},{"buffer":0,"byteLength":4584,"byteOffset":3073560,"byteStride":4,"target":34962},{"buffer":0,"byteLength":58128,"byteOffset":3078144,"byteStride":4,"target":34962},{"buffer":0,"byteLength":3720,"byteOffset":3136272,"byteStride":4,"target":34962},{"buffer":0,"byteLength":7488,"byteOffset":3139992,"byteStride":4,"target":34962},{"buffer":0,"byteLength":1284,"byteOffset":3147480,"byteStride":4,"target":34962},{"buffer":0,"byteLength":18480,"byteOffset":3148764,"byteStride":4,"target":34962},{"buffer":0,"byteLength":1596,"byteOffset":3167244,"byteStride":4,"target":34962},{"buffer":0,"byteLength":3180,"byteOffset":3168840,"byteStride":4,"target":34962},{"buffer":0,"byteLength":6272,"byteOffset":3172020,"byteStride":4,"target":34962},{"buffer":0,"byteLength":128,"byteOffset":3178292,"byteStride":4,"target":34962},{"buffer":0,"byteLength":105120,"byteOffset":3178420,"byteStride":4,"target":34962},{"buffer":0,"byteLength":2688,"byteOffset":3283540,"byteStride":4,"target":34962},{"buffer":0,"byteLength":1152,"byteOffset":3286228,"byteStride":4,"target":34962},{"buffer":0,"byteLength":21888,"byteOffset":3287380,"byteStride":4,"target":34962},{"buffer":0,"byteLength":4920,"byteOffset":3309268,"byteStride":4,"target":34962},{"buffer":0,"byteLength":73236,"byteOffset":3314188,"byteStride":4,"target":34962},{"buffer":0,"byteLength":1632,"byteOffset":3387424,"byteStride":4,"target":34962},{"buffer":0,"byteLength":13728,"byteOffset":3389056,"byteStride":4,"target":34962},{"buffer":0,"byteLength":24168,"byteOffset":3402784,"byteStride":4,"target":34962},{"buffer":0,"byteLength":4032,"byteOffset":3426952,"byteStride":4,"target":34962},{"buffer":0,"byteLength":4116,"byteOffset":3430984,"byteStride":4,"target":34962},{"buffer":0,"byteLength":792,"byteOffset":3435100,"byteStride":4,"target":34962},{"buffer":0,"byteLength":6272,"byteOffset":3435892,"byteStride":4,"target":34962},{"buffer":0,"byteLength":1216,"byteOffset":3442164,"byteStride":4,"target":34962},{"buffer":0,"byteLength":6272,"byteOffset":3443380,"byteStride":4,"target":34962},{"buffer":0,"byteLength":54960,"byteOffset":3449652,"byteStride":4,"target":34962},{"buffer":0,"byteLength":768,"byteOffset":3504612,"byteStride":4,"target":34962},{"buffer":0,"byteLength":4776,"byteOffset":3505380,"byteStride":4,"target":34962},{"buffer":0,"byteLength":936,"byteOffset":3510156,"byteStride":4,"target":34962},{"buffer":0,"byteLength":5016,"byteOffset":3511092,"byteStride":4,"target":34962},{"buffer":0,"byteLength":37092,"byteOffset":3516108,"byteStride":4,"target":34962},{"buffer":0,"byteLength":480,"byteOffset":3553200,"byteStride":4,"target":34962},{"buffer":0,"byteLength":1332,"byteOffset":3553680,"byteStride":4,"target":34962},{"buffer":0,"byteLength":1560,"byteOffset":3555012,"byteStride":4,"target":34962},{"buffer":0,"byteLength":11100,"byteOffset":3556572,"byteStride":4,"target":34962},{"buffer":0,"byteLength":240,"byteOffset":3567672,"byteStride":4,"target":34962},{"buffer":0,"byteLength":2268,"byteOffset":3567912,"byteStride":4,"target":34962}],"buffers":[{"byteLength":3570180,"uri":"cooper.bin"}],"extensionsRequired":["KHR_mesh_quantization","KHR_texture_transform"],"extensionsUsed":["KHR_mesh_quantization","KHR_texture_transform","MSFT_lod"],"extras":{"hm":{"batching":true,"cellSize":16.0,"cells":[{"cullAt":null,"interior":null,"key":"0_0","lodPrims":[9,2,1,1],"lodTris":[8012,3573,1070,211],"max":[6.816,2.582,7.717],"min":[-6.816,0.0,-5.926]},{"cullAt":null,"interior":null,"key":"0_n1","lodPrims":[7,5,3,2],"lodTris":[16024,7320,2271,398],"max":[6.816,1.802,2.196],"min":[-5.738,0.0,-6.646]},{"cullAt":null,"interior":null,"key":"n1_0","lodPrims":[6,4,2,2],"lodTris":[16732,7793,2350,409],"max":[6.555,8.298,6.304],"min":[-6.952,0.06,-2.525]},{"cullAt":null,"interior":null,"key":"n1_n1","lodPrims":[5,5,3,2],"lodTris":[9230,4025,1166,209],"max":[-0.038,3.607,0.489],"min":[-5.816,0.005,-4.847]}],"instanced":[],"instancing":true,"interiors":[],"lod":true,"lodDistances":[15.0,40.0,100.0],"stats":{"groups":4,"lodPrims":[27,16,9,7],"lodTris":[49998,22711,6857,1227]},"venue":"cooper"}},"images":[{"uri":"../textures/yard_albedo.png"},{"uri":"../textures/yard_orm.png"},{"uri":"../textures/yard_normal.png"},{"uri":"../textures/dirt_albedo.png"},{"uri":"../textures/dirt_orm.png"},{"uri":"../textures/dirt_normal.png"},{"uri":"../textures/cobble_albedo.png"},{"uri":"../textures/cobble_orm.png"},{"uri":"../textures/cobble_normal.png"},{"uri":"../textures/kit_albedo.png"},{"uri":"../textures/kit_orm.png"},{"uri":"../textures/kit_normal.png"},{"uri":"../textures/oak_dark_albedo.png"},{"uri":"../textures/oak_dark_orm.png"},{"uri":"../textures/oak_dark_normal.png"},{"uri":"../textures/terracotta_albedo.png"},{"uri":"../textures/terracotta_orm.png"},{"uri":"../textures/terracotta_normal.png"},{"uri":"../textures/stone_albedo.png"},{"uri":"../textures/stone_orm.png"},{"uri":"../textures/stone_normal.png"},{"uri":"../textures/endgrain_albedo.png"},{"uri":"../textures/endgrain_orm.png"},{"uri":"../textures/endgrain_normal.png"},{"uri":"../textures/glass_lit_albedo.png"},{"uri":"../textures/glass_lit_orm.png"},{"uri":"../textures/glass_lit_normal.png"},{"uri":"../textures/glass_lit_emissive.png"},{"uri":"../textures/coal_albedo.png"},{"uri":"../textures/coal_orm.png"},{"uri":"../textures/coal_normal.png"},{"uri":"../textures/coal_emissive.png"},{"uri":"../textures/glass_albedo.png"},{"uri":"../textures/glass_orm.png"},{"uri":"../textures/glass_normal.png"},{"uri":"../textures/glass_emissive.png"},{"uri":"../textures/water_albedo.png"},{"uri":"../textures/water_orm.png"},{"uri":"../textures/water_normal.png"},{"uri":"../textures/sand_albedo.png"},{"uri":"../textures/sand_orm.png"},{"uri":"../textures/sand_normal.png"},{"uri":"../textures/grass_worn_albedo.png"},{"uri":"../textures/grass_worn_orm.png"},{"uri":"../textures/grass_worn_normal.png"}],"materials":[{"doubleSided":false,"name":"yard","normalTexture":{"extensions":{"KHR_texture_transform":{"scale":[6.50019825,6.50019825]}},"index":2,"scale":1.0},"occlusionTexture":{"extensions":{"KHR_texture_transform":{"scale":[6.50019825,6.50019825]}},"index":1},"pbrMetallicRoughness":{"baseColorFactor":[1,1,1,1],"baseColorTexture":{"extensions":{"KHR_texture_transform":{"scale":[6.50019825,6.50019825]}},"index":0},"metallicFactor":1.0,"metallicRoughnessTexture":{"extensions":{"KHR_texture_transform":{"scale":[6.50019825,6.50019825]}},"index":1},"roughnessFactor":1.0}},{"doubleSided":false,"name":"dirt","normalTexture":{"extensions":{"KHR_texture_transform":{"scale":[6.50019825,6.50019825]}},"index":5,"scale":1.0},"occlusionTexture":{"extensions":{"KHR_texture_transform":{"scale":[6.50019825,6.50019825]}},"index":4},"pbrMetallicRoughness":{"baseColorFactor":[1,1,1,1],"baseColorTexture":{"extensions":{"KHR_texture_transform":{"scale":[6.50019825,6.50019825]}},"index":3},"metallicFactor":1.0,"metallicRoughnessTexture":{"extensions":{"KHR_texture_transform":{"scale":[6.50019825,6.50019825]}},"index":4},"roughnessFactor":1.0}},{"doubleSided":false,"name":"cobble","normalTexture":{"extensions":{"KHR_texture_transform":{"scale":[6.50019825,6.50019825]}},"index":8,"scale":1.0},"occlusionTexture":{"extensions":{"KHR_texture_transform":{"scale":[6.50019825,6.50019825]}},"index":7},"pbrMetallicRoughness":{"baseColorFactor":[1,1,1,1],"baseColorTexture":{"extensions":{"KHR_texture_transform":{"scale":[6.50019825,6.50019825]}},"index":6},"metallicFactor":1.0,"metallicRoughnessTexture":{"extensions":{"KHR_texture_transform":{"scale":[6.50019825,6.50019825]}},"index":7},"roughnessFactor":1.0}},{"doubleSided":true,"name":"kit","normalTexture":{"extensions":{"KHR_texture_transform":{"scale":[6.50019825,6.50019825]}},"index":11,"scale":1.0},"occlusionTexture":{"extensions":{"KHR_texture_transform":{"scale":[6.50019825,6.50019825]}},"index":10},"pbrMetallicRoughness":{"baseColorFactor":[1,1,1,1],"baseColorTexture":{"extensions":{"KHR_texture_transform":{"scale":[6.50019825,6.50019825]}},"index":9},"metallicFactor":1.0,"metallicRoughnessTexture":{"extensions":{"KHR_texture_transform":{"scale":[6.50019825,6.50019825]}},"index":10},"roughnessFactor":1.0}},{"doubleSided":false,"name":"oak_dark","normalTexture":{"extensions":{"KHR_texture_transform":{"scale":[6.50019825,6.50019825]}},"index":14,"scale":1.0},"occlusionTexture":{"extensions":{"KHR_texture_transform":{"scale":[6.50019825,6.50019825]}},"index":13},"pbrMetallicRoughness":{"baseColorFactor":[1,1,1,1],"baseColorTexture":{"extensions":{"KHR_texture_transform":{"scale":[6.50019825,6.50019825]}},"index":12},"metallicFactor":1.0,"metallicRoughnessTexture":{"extensions":{"KHR_texture_transform":{"scale":[6.50019825,6.50019825]}},"index":13},"roughnessFactor":1.0}},{"doubleSided":false,"name":"terracotta","normalTexture":{"extensions":{"KHR_texture_transform":{"scale":[6.50019825,6.50019825]}},"index":17,"scale":1.0},"occlusionTexture":{"extensions":{"KHR_texture_transform":{"scale":[6.50019825,6.50019825]}},"index":16},"pbrMetallicRoughness":{"baseColorFactor":[1,1,1,1],"baseColorTexture":{"extensions":{"KHR_texture_transform":{"scale":[6.50019825,6.50019825]}},"index":15},"metallicFactor":1.0,"metallicRoughnessTexture":{"extensions":{"KHR_texture_transform":{"scale":[6.50019825,6.50019825]}},"index":16},"roughnessFactor":1.0}},{"doubleSided":false,"name":"stone","normalTexture":{"extensions":{"KHR_texture_transform":{"scale":[6.50019825,6.50019825]}},"index":20,"scale":1.0},"occlusionTexture":{"extensions":{"KHR_texture_transform":{"scale":[6.50019825,6.50019825]}},"index":19},"pbrMetallicRoughness":{"baseColorFactor":[1,1,1,1],"baseColorTexture":{"extensions":{"KHR_texture_transform":{"scale":[6.50019825,6.50019825]}},"index":18},"metallicFactor":1.0,"metallicRoughnessTexture":{"extensions":{"KHR_texture_transform":{"scale":[6.50019825,6.50019825]}},"index":19},"roughnessFactor":1.0}},{"doubleSided":false,"name":"endgrain","normalTexture":{"extensions":{"KHR_texture_transform":{"scale":[6.50019825,6.50019825]}},"index":23,"scale":1.0},"occlusionTexture":{"extensions":{"KHR_texture_transform":{"scale":[6.50019825,6.50019825]}},"index":22},"pbrMetallicRoughness":{"baseColorFactor":[1,1,1,1],"baseColorTexture":{"extensions":{"KHR_texture_transform":{"scale":[6.50019825,6.50019825]}},"index":21},"metallicFactor":1.0,"metallicRoughnessTexture":{"extensions":{"KHR_texture_transform":{"scale":[6.50019825,6.50019825]}},"index":22},"roughnessFactor":1.0}},{"doubleSided":true,"emissiveFactor":[1.0,1.0,1.0],"emissiveTexture":{"extensions":{"KHR_texture_transform":{"scale":[6.50019825,6.50019825]}},"index":27},"name":"glass_lit","normalTexture":{"extensions":{"KHR_texture_transform":{"scale":[6.50019825,6.50019825]}},"index":26,"scale":1.0},"occlusionTexture":{"extensions":{"KHR_texture_transform":{"scale":[6.50019825,6.50019825]}},"index":25},"pbrMetallicRoughness":{"baseColorFactor":[1,1,1,1],"baseColorTexture":{"extensions":{"KHR_texture_transform":{"scale":[6.50019825,6.50019825]}},"index":24},"metallicFactor":1.0,"metallicRoughnessTexture":{"extensions":{"KHR_texture_transform":{"scale":[6.50019825,6.50019825]}},"index":25},"roughnessFactor":1.0}},{"doubleSided":false,"emissiveFactor":[1.0,1.0,1.0],"emissiveTexture":{"extensions":{"KHR_texture_transform":{"scale":[6.50019825,6.50019825]}},"index":31},"name":"coal","normalTexture":{"extensions":{"KHR_texture_transform":{"scale":[6.50019825,6.50019825]}},"index":30,"scale":1.0},"occlusionTexture":{"extensions":{"KHR_texture_transform":{"scale":[6.50019825,6.50019825]}},"index":29},"pbrMetallicRoughness":{"baseColorFactor":[1,1,1,1],"baseColorTexture":{"extensions":{"KHR_texture_transform":{"scale":[6.50019825,6.50019825]}},"index":28},"metallicFactor":1.0,"metallicRoughnessTexture":{"extensions":{"KHR_texture_transform":{"scale":[6.50019825,6.50019825]}},"index":29},"roughnessFactor":1.0}},{"alphaMode":"BLEND","doubleSided":true,"emissiveFactor":[1.0,1.0,1.0],"emissiveTexture":{"extensions":{"KHR_texture_transform":{"scale":[6.50019825,6.50019825]}},"index":35},"name":"glass","normalTexture":{"extensions":{"KHR_texture_transform":{"scale":[6.50019825,6.50019825]}},"index":34,"scale":1.0},"occlusionTexture":{"extensions":{"KHR_texture_transform":{"scale":[6.50019825,6.50019825]}},"index":33},"pbrMetallicRoughness":{"baseColorFactor":[1,1,1,1],"baseColorTexture":{"extensions":{"KHR_texture_transform":{"scale":[6.50019825,6.50019825]}},"index":32},"metallicFactor":1.0,"metallicRoughnessTexture":{"extensions":{"KHR_texture_transform":{"scale":[6.50019825,6.50019825]}},"index":33},"roughnessFactor":1.0}},{"alphaMode":"BLEND","doubleSided":false,"name":"water","normalTexture":{"extensions":{"KHR_texture_transform":{"scale":[6.50019825,6.50019825]}},"index":38,"scale":1.0},"occlusionTexture":{"extensions":{"KHR_texture_transform":{"scale":[6.50019825,6.50019825]}},"index":37},"pbrMetallicRoughness":{"baseColorFactor":[1,1,1,1],"baseColorTexture":{"extensions":{"KHR_texture_transform":{"scale":[6.50019825,6.50019825]}},"index":36},"metallicFactor":1.0,"metallicRoughnessTexture":{"extensions":{"KHR_texture_transform":{"scale":[6.50019825,6.50019825]}},"index":37},"roughnessFactor":1.0}},{"doubleSided":false,"name":"sand","normalTexture":{"extensions":{"KHR_texture_transform":{"scale":[6.50019825,6.50019825]}},"index":41,"scale":1.0},"occlusionTexture":{"extensions":{"KHR_texture_transform":{"scale":[6.50019825,6.50019825]}},"index":40},"pbrMetallicRoughness":{"baseColorFactor":[1,1,1,1],"baseColorTexture":{"extensions":{"KHR_texture_transform":{"scale":[6.50019825,6.50019825]}},"index":39},"metallicFactor":1.0,"metallicRoughnessTexture":{"extensions":{"KHR_texture_transform":{"scale":[6.50019825,6.50019825]}},"index":40},"roughnessFactor":1.0}},{"doubleSided":false,"name":"grass_worn","normalTexture":{"extensions":{"KHR_texture_transform":{"scale":[6.50019825,6.50019825]}},"index":44,"scale":1.0},"occlusionTexture":{"extensions":{"KHR_texture_transform":{"scale":[6.50019825,6.50019825]}},"index":43},"pbrMetallicRoughness":{"baseColorFactor":[1,1,1,1],"baseColorTexture":{"extensions":{"KHR_texture_transform":{"scale":[6.50019825,6.50019825]}},"index":42},"metallicFactor":1.0,"metallicRoughnessTexture":{"extensions":{"KHR_texture_transform":{"scale":[6.50019825,6.50019825]}},"index":43},"roughnessFactor":1.0}}],"meshes":[{"name":"cooper#0_0","primitives":[{"attributes":{"NORMAL":1,"POSITION":0,"TEXCOORD_0":181},"indices":2,"material":1},{"attributes":{"NORMAL":4,"POSITION":3,"TEXCOORD_0":182},"indices":5,"material":7},{"attributes":{"NORMAL":7,"POSITION":6,"TEXCOORD_0":183},"indices":8,"material":10},{"attributes":{"NORMAL":10,"POSITION":9,"TEXCOORD_0":184},"indices":11,"material":13},{"attributes":{"NORMAL":13,"POSITION":12,"TEXCOORD_0":185},"indices":14,"material":3},{"attributes":{"NORMAL":16,"POSITION":15,"TEXCOORD_0":186},"indices":17,"material":12},{"attributes":{"NORMAL":19,"POSITION":18,"TEXCOORD_0":187},"indices":20,"material":6},{"attributes":{"NORMAL":22,"POSITION":21,"TEXCOORD_0":188},"indices":23,"material":11},{"attributes":{"NORMAL":25,"POSITION":24,"TEXCOORD_0":189},"indices":26,"material":0}]},{"name":"cooper#0_0$lod1","primitives":[{"attributes":{"NORMAL":28,"POSITION":27,"TEXCOORD_0":190},"indices":29,"material":3},{"attributes":{"NORMAL":31,"POSITION":30,"TEXCOORD_0":191},"indices":32,"material":0}]},{"name":"cooper#0_0$lod2","primitives":[{"attributes":{"NORMAL":34,"POSITION":33,"TEXCOORD_0":192},"indices":35,"material":0}]},{"name":"cooper#0_0$lod3","primitives":[{"attributes":{"NORMAL":37,"POSITION":36,"TEXCOORD_0":193},"indices":38,"material":0}]},{"name":"cooper#0_n1","primitives":[{"attributes":{"NORMAL":40,"POSITION":39,"TEXCOORD_0":194},"indices":41,"material":9},{"attributes":{"NORMAL":43,"POSITION":42,"TEXCOORD_0":195},"indices":44,"material":2},{"attributes":{"NORMAL":46,"POSITION":45,"TEXCOORD_0":196},"indices":47,"material":1},{"attributes":{"NORMAL":49,"POSITION":48,"TEXCOORD_0":197},"indices":50,"material":13},{"attributes":{"NORMAL":52,"POSITION":51,"TEXCOORD_0":198},"indices":53,"material":3},{"attributes":{"NORMAL":55,"POSITION":54,"TEXCOORD_0":199},"indices":56,"material":6},{"attributes":{"NORMAL":58,"POSITION":57,"TEXCOORD_0":200},"indices":59,"material":11}]},{"name":"cooper#0_n1$lod1","primitives":[{"attributes":{"NORMAL":61,"POSITION":60,"TEXCOORD_0":201},"indices":62,"material":2},{"attributes":{"NORMAL":64,"POSITION":63,"TEXCOORD_0":202},"indices":65,"material":1},{"attributes":{"NORMAL":67,"POSITION":66,"TEXCOORD_0":203},"indices":68,"material":13},{"attributes":{"NORMAL":70,"POSITION":69,"TEXCOORD_0":204},"indices":71,"material":3},{"attributes":{"NORMAL":73,"POSITION":72,"TEXCOORD_0":205},"indices":74,"material":6}]},{"name":"cooper#0_n1$lod2","primitives":[{"attributes":{"NORMAL":76,"POSITION":75,"TEXCOORD_0":206},"indices":77,"material":1},{"attributes":{"NORMAL":79,"POSITION":78,"TEXCOORD_0":207},"indices":80,"material":13},{"attributes":{"NORMAL":82,"POSITION":81,"TEXCOORD_0":208},"indices":83,"material":3}]},{"name":"cooper#0_n1$lod3","primitives":[{"attributes":{"NORMAL":85,"POSITION":84,"TEXCOORD_0":209},"indices":86,"material":1},{"attributes":{"NORMAL":88,"POSITION":87,"TEXCOORD_0":210},"indices":89,"material":3}]},{"name":"cooper#n1_0","primitives":[{"attributes":{"NORMAL":91,"POSITION":90,"TEXCOORD_0":211},"indices":92,"material":1},{"attributes":{"NORMAL":94,"POSITION":93,"TEXCOORD_0":212},"indices":95,"material":8},{"attributes":{"NORMAL":97,"POSITION":96,"TEXCOORD_0":213},"indices":98,"material":3},{"attributes":{"NORMAL":100,"POSITION":99,"TEXCOORD_0":214},"indices":101,"material":4},{"attributes":{"NORMAL":103,"POSITION":102,"TEXCOORD_0":215},"indices":104,"material":6},{"attributes":{"COLOR_0":107,"NORMAL":106,"POSITION":105,"TEXCOORD_0":216},"indices":108,"material":5}]},{"name":"cooper#n1_0$lod1","primitives":[{"attributes":{"NORMAL":110,"POSITION":109,"TEXCOORD_0":217},"indices":111,"material":1},{"attributes":{"NORMAL":113,"POSITION":112,"TEXCOORD_0":218},"indices":114,"material":3},{"attributes":{"NORMAL":116,"POSITION":115,"TEXCOORD_0":219},"indices":117,"material":4},{"attributes":{"COLOR_0":120,"NORMAL":119,"POSITION":118,"TEXCOORD_0":220},"indices":121,"material":5}]},{"name":"cooper#n1_0$lod2","primitives":[{"attributes":{"NORMAL":123,"POSITION":122,"TEXCOORD_0":221},"indices":124,"material":3},{"attributes":{"COLOR_0":127,"NORMAL":126,"POSITION":125,"TEXCOORD_0":222},"indices":128,"material":5}]},{"name":"cooper#n1_0$lod3","primitives":[{"attributes":{"NORMAL":130,"POSITION":129,"TEXCOORD_0":223},"indices":131,"material":3},{"attributes":{"COLOR_0":134,"NORMAL":133,"POSITION":132,"TEXCOORD_0":224},"indices":135,"material":5}]},{"name":"cooper#n1_n1","primitives":[{"attributes":{"NORMAL":137,"POSITION":136,"TEXCOORD_0":225},"indices":138,"material":1},{"attributes":{"NORMAL":140,"POSITION":139,"TEXCOORD_0":226},"indices":141,"material":7},{"attributes":{"NORMAL":143,"POSITION":142,"TEXCOORD_0":227},"indices":144,"material":13},{"attributes":{"NORMAL":146,"POSITION":145,"TEXCOORD_0":228},"indices":147,"material":3},{"attributes":{"NORMAL":149,"POSITION":148,"TEXCOORD_0":229},"indices":150,"material":6}]},{"name":"cooper#n1_n1$lod1","primitives":[{"attributes":{"NORMAL":152,"POSITION":151,"TEXCOORD_0":230},"indices":153,"material":1},{"attributes":{"NORMAL":155,"POSITION":154,"TEXCOORD_0":231},"indices":156,"material":7},{"attributes":{"NORMAL":158,"POSITION":157,"TEXCOORD_0":232},"indices":159,"material":13},{"attributes":{"NORMAL":161,"POSITION":160,"TEXCOORD_0":233},"indices":162,"material":3},{"attributes":{"NORMAL":164,"POSITION":163,"TEXCOORD_0":234},"indices":165,"material":6}]},{"name":"cooper#n1_n1$lod2","primitives":[{"attributes":{"NORMAL":167,"POSITION":166,"TEXCOORD_0":235},"indices":168,"material":1},{"attributes":{"NORMAL":170,"POSITION":169,"TEXCOORD_0":236},"indices":171,"material":13},{"attributes":{"NORMAL":173,"POSITION":172,"TEXCOORD_0":237},"indices":174,"material":3}]},{"name":"cooper#n1_n1$lod3","primitives":[{"attributes":{"NORMAL":176,"POSITION":175,"TEXCOORD_0":238},"indices":177,"material":1},{"attributes":{"NORMAL":179,"POSITION":178,"TEXCOORD_0":239},"indices":180,"material":3}]}],"nodes":[{"extensions":{"MSFT_lod":{"ids":[1,2,3]}},"extras":{"MSFT_screencoverage":[1.0,0.46724,0.1869,0.0],"hm":{"cell":"0_0","cullAt":null,"interior":null,"lod":0,"max":[6.816,2.582,7.717],"min":[-6.816,0.0,-5.926],"prims":9,"tris":8012,"venue":"cooper"}},"mesh":0,"name":"cooper#0_0","scale":[6.815830707550049,1.2910362482070923,6.821654319763184],"translation":[0.0,1.2910362482070923,0.8958175182342529]},{"extras":{"hm":{"cell":"0_0","cullAt":null,"interior":null,"lod":1,"max":[6.816,2.582,7.717],"min":[-6.816,0.0,-5.926],"prims":2,"tris":3573,"venue":"cooper"}},"mesh":1,"name":"cooper#0_0$lod1","scale":[6.815830707550049,1.2743695974349976,6.821331977844238],"translation":[0.0,1.307702898979187,0.8954949378967285]},{"extras":{"hm":{"cell":"0_0","cullAt":null,"interior":null,"lod":2,"max":[6.816,2.582,7.717],"min":[-6.816,0.0,-5.926],"prims":1,"tris":1070,"venue":"cooper"}},"mesh":2,"name":"cooper#0_0$lod2","scale":[6.815830707550049,1.2650631666183472,6.524302005767822],"translation":[0.0,1.2983964681625366,0.5984649658203125]},{"extras":{"hm":{"cell":"0_0","cullAt":null,"interior":null,"lod":3,"max":[6.816,2.582,7.717],"min":[-6.816,0.0,-5.926],"prims":1,"tris":211,"venue":"cooper"}},"mesh":3,"name":"cooper#0_0$lod3","scale":[6.7912797927856445,1.2198981046676636,6.498677730560303],"translation":[0.0,1.2798980474472046,0.5975542068481445]},{"extensions":{"MSFT_lod":{"ids":[5,6,7]}},"extras":{"MSFT_screencoverage":[0.98999,0.37125,0.1485,0.0],"hm":{"cell":"0_n1","cullAt":null,"interior":null,"lod":0,"max":[6.816,1.802,2.196],"min":[-5.738,0.0,-6.646],"prims":7,"tris":16024,"venue":"cooper"}},"mesh":4,"name":"cooper#0_n1","scale":[6.276986122131348,0.901199996471405,4.42099666595459],"translation":[0.5393669605255127,0.901199996471405,-2.2250125408172607]},{"extras":{"hm":{"cell":"0_n1","cullAt":null,"interior":null,"lod":1,"max":[6.816,1.802,2.196],"min":[-5.738,0.0,-6.646],"prims":5,"tris":7320,"venue":"cooper"}},"mesh":5,"name":"cooper#0_n1$lod1","scale":[6.270704746246338,0.8943538665771484,4.420404434204102],"translation":[0.5456485748291016,0.9043538570404053,-2.224961996078491]},{"extras":{"hm":{"cell":"0_n1","cullAt":null,"interior":null,"lod":2,"max":[6.816,1.802,2.196],"min":[-5.738,0.0,-6.646],"prims":3,"tris":2271,"venue":"cooper"}},"mesh":6,"name":"cooper#0_n1$lod2","scale":[6.266666412353516,0.8720962405204773,4.420029640197754],"translation":[0.5416102409362793,0.9070962071418762,-2.225194215774536]},{"extras":{"hm":{"cell":"0_n1","cullAt":null,"interior":null,"lod":3,"max":[6.816,1.802,2.196],"min":[-5.738,0.0,-6.646],"prims":2,"tris":398,"venue":"cooper"}},"mesh":7,"name":"cooper#0_n1$lod3","scale":[6.260507583618164,0.8568354845046997,4.366009712219238],"translation":[0.5354514122009277,0.9077445268630981,-2.2792139053344727]},{"extensions":{"MSFT_lod":{"ids":[9,10,11]}},"extras":{"MSFT_screencoverage":[1.0,0.43506,0.17402,0.0],"hm":{"cell":"n1_0","cullAt":null,"interior":null,"lod":0,"max":[6.555,8.298,6.304],"min":[-6.952,0.06,-2.525],"prims":6,"tris":16732,"venue":"cooper"}},"mesh":8,"name":"cooper#n1_0","scale":[6.753786087036133,4.119200229644775,4.414237976074219],"translation":[-0.19860410690307617,4.179200649261475,1.8895915746688843]},{"extras":{"hm":{"cell":"n1_0","cullAt":null,"interior":null,"lod":1,"max":[6.555,8.298,6.304],"min":[-6.952,0.06,-2.525],"prims":4,"tris":7793,"venue":"cooper"}},"mesh":9,"name":"cooper#n1_0$lod1","scale":[6.753786087036133,4.119200229644775,4.412380695343018],"translation":[-0.19860410690307617,4.179200649261475,1.8895915746688843]},{"extras":{"hm":{"cell":"n1_0","cullAt":null,"interior":null,"lod":2,"max":[6.555,8.298,6.304],"min":[-6.952,0.06,-2.525],"prims":2,"tris":2350,"venue":"cooper"}},"mesh":10,"name":"cooper#n1_0$lod2","scale":[6.753786087036133,4.1115264892578125,4.410462379455566],"translation":[-0.19860410690307617,4.182526588439941,1.8915098905563354]},{"extras":{"hm":{"cell":"n1_0","cullAt":null,"interior":null,"lod":3,"max":[6.555,8.298,6.304],"min":[-6.952,0.06,-2.525],"prims":2,"tris":409,"venue":"cooper"}},"mesh":11,"name":"cooper#n1_0$lod3","scale":[6.669280529022217,4.095562934875488,4.36569881439209],"translation":[-0.19725751876831055,4.198490142822266,1.8924965858459473]},{"extensions":{"MSFT_lod":{"ids":[13,14,15]}},"extras":{"MSFT_screencoverage":[0.55387,0.2077,0.08308,0.0],"hm":{"cell":"n1_n1","cullAt":null,"interior":null,"lod":0,"max":[-0.038,3.607,0.489],"min":[-5.816,0.005,-4.847],"prims":5,"tris":9230,"venue":"cooper"}},"mesh":12,"name":"cooper#n1_n1","scale":[2.888833522796631,1.8005589246749878,2.6678833961486816],"translation":[-2.9271092414855957,1.806054711341858,-2.1793079376220703]},{"extras":{"hm":{"cell":"n1_n1","cullAt":null,"interior":null,"lod":1,"max":[-0.038,3.607,0.489],"min":[-5.816,0.005,-4.847],"prims":5,"tris":4025,"venue":"cooper"}},"mesh":13,"name":"cooper#n1_n1$lod1","scale":[2.88171124458313,1.7961101531982422,2.6677069664001465],"translation":[-2.9199869632720947,1.8016059398651123,-2.179131507873535]},{"extras":{"hm":{"cell":"n1_n1","cullAt":null,"interior":null,"lod":2,"max":[-0.038,3.607,0.489],"min":[-5.816,0.005,-4.847],"prims":3,"tris":1166,"venue":"cooper"}},"mesh":14,"name":"cooper#n1_n1$lod2","scale":[2.88171124458313,1.7144614458084106,2.6659095287323],"translation":[-2.9199869632720947,1.7236374616622925,-2.1773340702056885]},{"extras":{"hm":{"cell":"n1_n1","cullAt":null,"interior":null,"lod":3,"max":[-0.038,3.607,0.489],"min":[-5.816,0.005,-4.847],"prims":2,"tris":209,"venue":"cooper"}},"mesh":15,"name":"cooper#n1_n1$lod3","scale":[2.628725290298462,1.5995919704437256,2.615664005279541],"translation":[-3.1729729175567627,1.6915745735168457,-2.2270255088806152]}],"samplers":[{"magFilter":9729,"minFilter":9987,"wrapS":10497,"wrapT":10497}],"scene":0,"scenes":[{"nodes":[0,4,8,12]}],"textures":[{"sampler":0,"source":0},{"sampler":0,"source":1},{"sampler":0,"source":2},{"sampler":0,"source":3},{"sampler":0,"source":4},{"sampler":0,"source":5},{"sampler":0,"source":6},{"sampler":0,"source":7},{"sampler":0,"source":8},{"sampler":0,"source":9},{"sampler":0,"source":10},{"sampler":0,"source":11},{"sampler":0,"source":12},{"sampler":0,"source":13},{"sampler":0,"source":14},{"sampler":0,"source":15},{"sampler":0,"source":16},{"sampler":0,"source":17},{"sampler":0,"source":18},{"sampler":0,"source":19},{"sampler":0,"source":20},{"sampler":0,"source":21},{"sampler":0,"source":22},{"sampler":0,"source":23},{"sampler":0,"source":24},{"sampler":0,"source":25},{"sampler":0,"source":26},{"sampler":0,"source":27},{"sampler":0,"source":28},{"sampler":0,"source":29},{"sampler":0,"source":30},{"sampler":0,"source":31},{"sampler":0,"source":32},{"sampler":0,"source":33},{"sampler":0,"source":34},{"sampler":0,"source":35},{"sampler":0,"source":36},{"sampler":0,"source":37},{"sampler":0,"source":38},{"sampler":0,"source":39},{"sampler":0,"source":40},{"sampler":0,"source":41},{"sampler":0,"source":42},{"sampler":0,"source":43},{"sampler":0,"source":44}]}