{"accessors":[{"bufferView":0,"componentType":5122,"count":3552,"max":[32225.0,-5207.0,32767.0],"min":[-31606.0,-32767.0,-31341.0],"normalized":true,"type":"VEC3"},{"bufferView":1,"componentType":5120,"count":3552,"normalized":true,"type":"VEC3"},{"bufferView":2,"componentType":5123,"count":5052,"type":"SCALAR"},{"bufferView":3,"componentType":5122,"count":210,"max":[32573.0,18733.0,31240.0],"min":[-31606.0,-29107.0,-31341.0],"normalized":true,"type":"VEC3"},{"bufferView":4,"componentType":5120,"count":210,"normalized":true,"type":"VEC3"},{"bufferView":5,"componentType":5123,"count":288,"type":"SCALAR"},{"bufferView":6,"componentType":5122,"count":384,"max":[32767.0,29281.0,31947.0],"min":[-32767.0,-32767.0,-32767.0],"normalized":true,"type":"VEC3"},{"bufferView":7,"componentType":5120,"count":384,"normalized":true,"type":"VEC3"},{"bufferView":8,"componentType":5123,"count":528,"type":"SCALAR"},{"bufferView":9,"componentType":5122,"count":156,"max":[20606.0,32767.0,1559.0],"min":[17606.0,29281.0,-2125.0],"normalized":true,"type":"VEC3"},{"bufferView":10,"componentType":5120,"count":156,"normalized":true,"type":"VEC3"},{"bufferView":11,"componentType":5123,"count":246,"type":"SCALAR"},{"bufferView":12,"componentType":5122,"count":2232,"max":[32312.0,-5257.0,32767.0],"min":[-31689.0,-32767.0,-31535.0],"normalized":true,"type":"VEC3"},{"bufferView":13,"componentType":5120,"count":2232,"normalized":true,"type":"VEC3"},{"bufferView":14,"componentType":5123,"count":2232,"type":"SCALAR"},{"bufferView":15,"componentType":5122,"count":144,"max":[32735.0,18714.0,31116.0],"min":[-31665.0,-29124.0,-31535.0],"normalized":true,"type":"VEC3"},{"bufferView":16,"componentType":5120,"count":144,"normalized":true,"type":"VEC3"},{"bufferView":17,"componentType":5123,"count":144,"type":"SCALAR"},{"bufferView":18,"componentType":5122,"count":384,"max":[32767.0,32767.0,31746.0],"min":[-32767.0,-32767.0,-32767.0],"normalized":true,"type":"VEC3"},{"bufferView":19,"componentType":5120,"count":384,"normalized":true,"type":"VEC3"},{"bufferView":20,"componentType":5123,"count":384,"type":"SCALAR"},{"bufferView":21,"componentType":5122,"count":630,"max":[31768.0,-5327.0,32767.0],"min":[-31665.0,-32767.0,-31408.0],"normalized":true,"type":"VEC3"},{"bufferView":22,"componentType":5120,"count":630,"normalized":true,"type":"VEC3"},{"bufferView":23,"componentType":5123,"count":630,"type":"SCALAR"},{"bufferView":24,"componentType":5122,"count":48,"max":[32735.0,18714.0,31088.0],"min":[-31665.0,-29102.0,-31528.0],"normalized":true,"type":"VEC3"},{"bufferView":25,"componentType":5120,"count":48,"normalized":true,"type":"VEC3"},{"bufferView":26,"componentType":5123,"count":48,"type":"SCALAR"},{"bufferView":27,"componentType":5122,"count":111,"max":[32767.0,32767.0,32125.0],"min":[-32767.0,-32709.0,-32767.0],"normalized":true,"type":"VEC3"},{"bufferView":28,"componentType":5120,"count":111,"normalized":true,"type":"VEC3"},{"bufferView":29,"componentType":5123,"count":111,"type":"SCALAR"},{"bufferView":30,"componentType":5122,"count":24,"max":[32767.0,21683.0,31290.0],"min":[30788.0,-13180.0,-32767.0],"normalized":true,"type":"VEC3"},{"bufferView":31,"componentType":5120,"count":24,"normalized":true,"type":"VEC3"},{"bufferView":32,"componentType":5123,"count":24,"type":"SCALAR"},{"bufferView":33,"componentType":5122,"count":126,"max":[31784.0,32767.0,32767.0],"min":[-32767.0,-32767.0,-26109.0],"normalized":true,"type":"VEC3"},{"bufferView":34,"componentType":5120,"count":126,"normalized":true,"type":"VEC3"},{"bufferView":35,"componentType":5123,"count":126,"type":"SCALAR"},{"bufferView":36,"componentType":5122,"count":1332,"max":[14528.0,-3148.0,32767.0],"min":[5847.0,-6192.0,-8341.0],"normalized":true,"type":"VEC3"},{"bufferView":37,"componentType":5120,"count":1332,"normalized":true,"type":"VEC3"},{"bufferView":38,"componentType":5123,"count":2220,"type":"SCALAR"},{"bufferView":39,"componentType":5122,"count":96,"max":[14340.0,16868.0,19968.0],"min":[6112.0,-8130.0,17661.0],"normalized":true,"type":"VEC3"},{"bufferView":40,"componentType":5120,"count":96,"normalized":true,"type":"VEC3"},{"bufferView":41,"componentType":5123,"count":132,"type":"SCALAR"},{"bufferView":42,"componentType":5122,"count":4428,"max":[32767.0,32767.0,28349.0],"min":[-32767.0,-32767.0,-32767.0],"normalized":true,"type":"VEC3"},{"bufferView":43,"componentType":5120,"count":4428,"normalized":true,"type":"VEC3"},{"bufferView":44,"componentType":5123,"count":6318,"type":"SCALAR"},{"bufferView":45,"componentType":5122,"count":576,"max":[32767.0,32767.0,28080.0],"min":[-32767.0,-32532.0,18776.0],"normalized":true,"type":"VEC3"},{"bufferView":46,"componentType":5120,"count":576,"normalized":true,"type":"VEC3"},{"bufferView":47,"componentType":5123,"count":792,"type":"SCALAR"},{"bufferView":48,"componentType":5122,"count":288,"max":[32767.0,31033.0,28080.0],"min":[-32767.0,-26104.0,18776.0],"normalized":true,"type":"VEC3"},{"bufferView":49,"componentType":5120,"count":288,"normalized":true,"type":"VEC3"},{"bufferView":50,"componentType":5123,"count":396,"type":"SCALAR"},{"bufferView":51,"componentType":5122,"count":96,"max":[15745.0,-9484.0,28966.0],"min":[4708.0,-11537.0,13277.0],"normalized":true,"type":"VEC3"},{"bufferView":52,"componentType":5120,"count":96,"normalized":true,"type":"VEC3"},{"bufferView":53,"componentType":5123,"count":132,"type":"SCALAR"},{"bufferView":54,"componentType":5122,"count":60,"max":[14353.0,16820.0,20025.0],"min":[6147.0,-8082.0,17918.0],"normalized":true,"type":"VEC3"},{"bufferView":55,"componentType":5120,"count":60,"normalized":true,"type":"VEC3"},{"bufferView":56,"componentType":5123,"count":60,"type":"SCALAR"},{"bufferView":57,"componentType":5122,"count":3831,"max":[32767.0,32767.0,32767.0],"min":[-32767.0,-32767.0,-32767.0],"normalized":true,"type":"VEC3"},{"bufferView":58,"componentType":5120,"count":3831,"normalized":true,"type":"VEC3"},{"bufferView":59,"componentType":5123,"count":3831,"type":"SCALAR"},{"bufferView":60,"componentType":5122,"count":336,"max":[32767.0,32529.0,28156.0],"min":[-32767.0,-32294.0,18830.0],"normalized":true,"type":"VEC3"},{"bufferView":61,"componentType":5120,"count":336,"normalized":true,"type":"VEC3"},{"bufferView":62,"componentType":5123,"count":336,"type":"SCALAR"},{"bufferView":63,"componentType":5122,"count":192,"max":[32767.0,30438.0,28156.0],"min":[-32767.0,-25925.0,19408.0],"normalized":true,"type":"VEC3"},{"bufferView":64,"componentType":5120,"count":192,"normalized":true,"type":"VEC3"},{"bufferView":65,"componentType":5123,"count":192,"type":"SCALAR"},{"bufferView":66,"componentType":5122,"count":1137,"max":[32742.0,32767.0,32767.0],"min":[-32742.0,-32767.0,-32767.0],"normalized":true,"type":"VEC3"},{"bufferView":67,"componentType":5120,"count":1137,"normalized":true,"type":"VEC3"},{"bufferView":68,"componentType":5123,"count":1137,"type":"SCALAR"},{"bufferView":69,"componentType":5122,"count":93,"max":[32767.0,32719.0,29581.0],"min":[-32767.0,-32330.0,22445.0],"normalized":true,"type":"VEC3"},{"bufferView":70,"componentType":5120,"count":93,"normalized":true,"type":"VEC3"},{"bufferView":71,"componentType":5123,"count":93,"type":"SCALAR"},{"bufferView":72,"componentType":5122,"count":60,"max":[4643.0,30530.0,31805.0],"min":[-32737.0,-25868.0,23063.0],"normalized":true,"type":"VEC3"},{"bufferView":73,"componentType":5120,"count":60,"normalized":true,"type":"VEC3"},{"bufferView":74,"componentType":5123,"count":60,"type":"SCALAR"},{"bufferView":75,"componentType":5122,"count":207,"max":[32596.0,32767.0,30065.0],"min":[-32471.0,-32767.0,-32767.0],"normalized":true,"type":"VEC3"},{"bufferView":76,"componentType":5120,"count":207,"normalized":true,"type":"VEC3"},{"bufferView":77,"componentType":5123,"count":207,"type":"SCALAR"},{"bufferView":78,"componentType":5122,"count":48,"max":[32767.0,31983.0,32767.0],"min":[-32767.0,-27783.0,27458.0],"normalized":true,"type":"VEC3"},{"bufferView":79,"componentType":5120,"count":48,"normalized":true,"type":"VEC3"},{"bufferView":80,"componentType":5123,"count":48,"type":"SCALAR"},{"bufferView":81,"componentType":5122,"count":3720,"max":[32767.0,31634.0,26771.0],"min":[-32767.0,-32767.0,-29976.0],"normalized":true,"type":"VEC3"},{"bufferView":82,"componentType":5120,"count":3720,"normalized":true,"type":"VEC3"},{"bufferView":83,"componentType":5123,"count":5628,"type":"SCALAR"},{"bufferView":84,"componentType":5122,"count":18,"max":[-26265.0,24114.0,26771.0],"min":[-27933.0,-4349.0,-29976.0],"normalized":true,"type":"VEC3"},{"bufferView":85,"componentType":5120,"count":18,"normalized":true,"type":"VEC3"},{"bufferView":86,"componentType":5123,"count":24,"type":"SCALAR"},{"bufferView":87,"componentType":5122,"count":96,"max":[-26594.0,-4349.0,26771.0],"min":[-27603.0,-32767.0,-29976.0],"normalized":true,"type":"VEC3"},{"bufferView":88,"componentType":5120,"count":96,"normalized":true,"type":"VEC3"},{"bufferView":89,"componentType":5123,"count":132,"type":"SCALAR"},{"bufferView":90,"componentType":5122,"count":348,"max":[31967.0,32767.0,32767.0],"min":[-31750.0,-6318.0,-32767.0],"normalized":true,"type":"VEC3"},{"bufferView":91,"componentType":5120,"count":348,"normalized":true,"type":"VEC3"},{"bufferView":92,"componentType":5123,"count":672,"type":"SCALAR"},{"bufferView":93,"componentType":5122,"count":2664,"max":[32767.0,32261.0,26771.0],"min":[-32767.0,-32767.0,-29976.0],"normalized":true,"type":"VEC3"},{"bufferView":94,"componentType":5120,"count":2664,"normalized":true,"type":"VEC3"},{"bufferView":95,"componentType":5123,"count":2664,"type":"SCALAR"},{"bufferView":96,"componentType":5122,"count":18,"max":[-26265.0,24669.0,26771.0],"min":[-27933.0,-4073.0,-29976.0],"normalized":true,"type":"VEC3"},{"bufferView":97,"componentType":5120,"count":18,"normalized":true,"type":"VEC3"},{"bufferView":98,"componentType":5123,"count":24,"type":"SCALAR"},{"bufferView":99,"componentType":5122,"count":60,"max":[-26657.0,-4177.0,26689.0],"min":[-27541.0,-32767.0,-29895.0],"normalized":true,"type":"VEC3"},{"bufferView":100,"componentType":5120,"count":60,"normalized":true,"type":"VEC3"},{"bufferView":101,"componentType":5123,"count":60,"type":"SCALAR"},{"bufferView":102,"componentType":5122,"count":330,"max":[31954.0,32767.0,32767.0],"min":[-31750.0,-6060.0,-32767.0],"normalized":true,"type":"VEC3"},{"bufferView":103,"componentType":5120,"count":330,"normalized":true,"type":"VEC3"},{"bufferView":104,"componentType":5123,"count":330,"type":"SCALAR"},{"bufferView":105,"componentType":5122,"count":24,"max":[-26950.0,-3930.0,28386.0],"min":[-27611.0,-32767.0,-29813.0],"normalized":true,"type":"VEC3"},{"bufferView":106,"componentType":5120,"count":24,"normalized":true,"type":"VEC3"},{"bufferView":107,"componentType":5123,"count":24,"type":"SCALAR"},{"bufferView":108,"componentType":5122,"count":909,"max":[32767.0,32767.0,32767.0],"min":[-32767.0,-32718.0,-32767.0],"normalized":true,"type":"VEC3"},{"bufferView":109,"componentType":5120,"count":909,"normalized":true,"type":"VEC3"},{"bufferView":110,"componentType":5123,"count":915,"type":"SCALAR"},{"bufferView":111,"componentType":5122,"count":24,"max":[-26950.0,-3912.0,28386.0],"min":[-27611.0,-32767.0,-29813.0],"normalized":true,"type":"VEC3"},{"bufferView":112,"componentType":5120,"count":24,"normalized":true,"type":"VEC3"},{"bufferView":113,"componentType":5123,"count":24,"type":"SCALAR"},{"bufferView":114,"componentType":5122,"count":165,"max":[32767.0,32767.0,32767.0],"min":[-32767.0,-18335.0,-32767.0],"normalized":true,"type":"VEC3"},{"bufferView":115,"componentType":5120,"count":165,"normalized":true,"type":"VEC3"},{"bufferView":116,"componentType":5123,"count":165,"type":"SCALAR"},{"bufferView":117,"componentType":5122,"count":96,"max":[-22245.0,24955.0,28514.0],"min":[-22776.0,3736.0,15111.0],"normalized":true,"type":"VEC3"},{"bufferView":118,"componentType":5120,"count":96,"normalized":true,"type":"VEC3"},{"bufferView":119,"componentType":5123,"count":132,"type":"SCALAR"},{"bufferView":120,"componentType":5122,"count":4598,"max":[32767.0,32767.0,32767.0],"min":[-32767.0,-32767.0,-32767.0],"normalized":true,"type":"VEC3"},{"bufferView":121,"componentType":5120,"count":4598,"normalized":true,"type":"VEC3"},{"bufferView":122,"componentType":5123,"count":6972,"type":"SCALAR"},{"bufferView":123,"componentType":5122,"count":192,"max":[31526.0,2189.0,31540.0],"min":[-24850.0,-31433.0,-28508.0],"normalized":true,"type":"VEC3"},{"bufferView":124,"componentType":5120,"count":192,"normalized":true,"type":"VEC3"},{"bufferView":125,"componentType":5123,"count":264,"type":"SCALAR"},{"bufferView":126,"componentType":5122,"count":60,"max":[-22310.0,24900.0,28542.0],"min":[-22772.0,3790.0,15178.0],"normalized":true,"type":"VEC3"},{"bufferView":127,"componentType":5120,"count":60,"normalized":true,"type":"VEC3"},{"bufferView":128,"componentType":5123,"count":60,"type":"SCALAR"},{"bufferView":129,"componentType":5122,"count":3105,"max":[32767.0,32767.0,32767.0],"min":[-32767.0,-32767.0,-32767.0],"normalized":true,"type":"VEC3"},{"bufferView":130,"componentType":5120,"count":3105,"normalized":true,"type":"VEC3"},{"bufferView":131,"componentType":5123,"count":3105,"type":"SCALAR"},{"bufferView":132,"componentType":5122,"count":108,"max":[31289.0,2051.0,31486.0],"min":[-24882.0,-31071.0,-28271.0],"normalized":true,"type":"VEC3"},{"bufferView":133,"componentType":5120,"count":108,"normalized":true,"type":"VEC3"},{"bufferView":134,"componentType":5123,"count":108,"type":"SCALAR"},{"bufferView":135,"componentType":5122,"count":957,"max":[32767.0,32767.0,32767.0],"min":[-32767.0,-32767.0,-32767.0],"normalized":true,"type":"VEC3"},{"bufferView":136,"componentType":5120,"count":957,"normalized":true,"type":"VEC3"},{"bufferView":137,"componentType":5123,"count":957,"type":"SCALAR"},{"bufferView":138,"componentType":5122,"count":162,"max":[32767.0,32767.0,32767.0],"min":[-32767.0,-32767.0,-32767.0],"normalized":true,"type":"VEC3"},{"bufferView":139,"componentType":5120,"count":162,"normalized":true,"type":"VEC3"},{"bufferView":140,"componentType":5123,"count":162,"type":"SCALAR"},{"bufferView":141,"componentType":5122,"count":3552,"normalized":true,"type":"VEC2"},{"bufferView":142,"componentType":5122,"count":210,"normalized":true,"type":"VEC2"},{"bufferView":143,"componentType":5122,"count":384,"normalized":true,"type":"VEC2"},{"bufferView":144,"componentType":5122,"count":156,"normalized":true,"type":"VEC2"},{"bufferView":145,"componentType":5122,"count":2232,"normalized":true,"type":"VEC2"},{"bufferView":146,"componentType":5122,"count":144,"normalized":true,"type":"VEC2"},{"bufferView":147,"componentType":5122,"count":384,"normalized":true,"type":"VEC2"},{"bufferView":148,"componentType":5122,"count":630,"normalized":true,"type":"VEC2"},{"bufferView":149,"componentType":5122,"count":48,"normalized":true,"type":"VEC2"},{"bufferView":150,"componentType":5122,"count":111,"normalized":true,"type":"VEC2"},{"bufferView":151,"componentType":5122,"count":24,"normalized":true,"type":"VEC2"},{"bufferView":152,"componentType":5122,"count":126,"normalized":true,"type":"VEC2"},{"bufferView":153,"componentType":5122,"count":1332,"normalized":true,"type":"VEC2"},{"bufferView":154,"componentType":5122,"count":96,"normalized":true,"type":"VEC2"},{"bufferView":155,"componentType":5122,"count":4428,"normalized":true,"type":"VEC2"},{"bufferView":156,"componentType":5122,"count":576,"normalized":true,"type":"VEC2"},{"bufferView":157,"componentType":5122,"count":288,"normalized":true,"type":"VEC2"},{"bufferView":158,"componentType":5122,"count":96,"normalized":true,"type":"VEC2"},{"bufferView":159,"componentType":5122,"count":60,"normalized":true,"type":"VEC2"},{"bufferView":160,"componentType":5122,"count":3831,"normalized":true,"type":"VEC2"},{"bufferView":161,"componentType":5122,"count":336,"normalized":true,"type":"VEC2"},{"bufferView":162,"componentType":5122,"count":192,"normalized":true,"type":"VEC2"},{"bufferView":163,"componentType":5122,"count":1137,"normalized":true,"type":"VEC2"},{"bufferView":164,"componentType":5122,"count":93,"normalized":true,"type":"VEC2"},{"bufferView":165,"componentType":5122,"count":60,"normalized":true,"type":"VEC2"},{"bufferView":166,"componentType":5122,"count":207,"normalized":true,"type":"VEC2"},{"bufferView":167,"componentType":5122,"count":48,"normalized":true,"type":"VEC2"},{"bufferView":168,"componentType":5122,"count":3720,"normalized":true,"type":"VEC2"},{"bufferView":169,"componentType":5122,"count":18,"normalized":true,"type":"VEC2"},{"bufferView":170,"componentType":5122,"count":96,"normalized":true,"type":"VEC2"},{"bufferView":171,"componentType":5122,"count":348,"normalized":true,"type":"VEC2"},{"bufferView":172,"componentType":5122,"count":2664,"normalized":true,"type":"VEC2"},{"bufferView":173,"componentType":5122,"count":18,"normalized":true,"type":"VEC2"},{"bufferView":174,"componentType":5122,"count":60,"normalized":true,"type":"VEC2"},{"bufferView":175,"componentType":5122,"count":330,"normalized":true,"type":"VEC2"},{"bufferView":176,"componentType":5122,"count":24,"normalized":true,"type":"VEC2"},{"bufferView":177,"componentType":5122,"count":909,"normalized":true,"type":"VEC2"},{"bufferView":178,"componentType":5122,"count":24,"normalized":true,"type":"VEC2"},{"bufferView":179,"componentType":5122,"count":165,"normalized":true,"type":"VEC2"},{"bufferView":180,"componentType":5122,"count":96,"normalized":true,"type":"VEC2"},{"bufferView":181,"componentType":5122,"count":4598,"normalized":true,"type":"VEC2"},{"bufferView":182,"componentType":5122,"count":192,"normalized":true,"type":"VEC2"},{"bufferView":183,"componentType":5122,"count":60,"normalized":true,"type":"VEC2"},{"bufferView":184,"componentType":5122,"count":3105,"normalized":true,"type":"VEC2"},{"bufferView":185,"componentType":5122,"count":108,"normalized":true,"type":"VEC2"},{"bufferView":186,"componentType":5122,"count":957,"normalized":true,"type":"VEC2"},{"bufferView":187,"componentType":5122,"count":162,"normalized":true,"type":"VEC2"}],"asset":{"generator":"evermore assetgen","version":"2.0"},"bufferViews":[{"buffer":0,"byteLength":28416,"byteOffset":0,"byteStride":8,"target":34962},{"buffer":0,"byteLength":14208,"byteOffset":28416,"byteStride":4,"target":34962},{"buffer":0,"byteLength":10104,"byteOffset":42624,"target":34963},{"buffer":0,"byteLength":1680,"byteOffset":52728,"byteStride":8,"target":34962},{"buffer":0,"byteLength":840,"byteOffset":54408,"byteStride":4,"target":34962},{"buffer":0,"byteLength":576,"byteOffset":55248,"target":34963},{"buffer":0,"byteLength":3072,"byteOffset":55824,"byteStride":8,"target":34962},{"buffer":0,"byteLength":1536,"byteOffset":58896,"byteStride":4,"target":34962},{"buffer":0,"byteLength":1056,"byteOffset":60432,"target":34963},{"buffer":0,"byteLength":1248,"byteOffset":61488,"byteStride":8,"target":34962},{"buffer":0,"byteLength":624,"byteOffset":62736,"byteStride":4,"target":34962},{"buffer":0,"byteLength":492,"byteOffset":63360,"target":34963},{"buffer":0,"byteLength":17856,"byteOffset":63852,"byteStride":8,"target":34962},{"buffer":0,"byteLength":8928,"byteOffset":81708,"byteStride":4,"target":34962},{"buffer":0,"byteLength":4464,"byteOffset":90636,"target":34963},{"buffer":0,"byteLength":1152,"byteOffset":95100,"byteStride":8,"target":34962},{"buffer":0,"byteLength":576,"byteOffset":96252,"byteStride":4,"target":34962},{"buffer":0,"byteLength":288,"byteOffset":96828,"target":34963},{"buffer":0,"byteLength":3072,"byteOffset":97116,"byteStride":8,"target":34962},{"buffer":0,"byteLength":1536,"byteOffset":100188,"byteStride":4,"target":34962},{"buffer":0,"byteLength":768,"byteOffset":101724,"target":34963},{"buffer":0,"byteLength":5040,"byteOffset":102492,"byteStride":8,"target":34962},{"buffer":0,"byteLength":2520,"byteOffset":107532,"byteStride":4,"target":34962},{"buffer":0,"byteLength":1260,"byteOffset":110052,"target":34963},{"buffer":0,"byteLength":384,"byteOffset":111312,"byteStride":8,"target":34962},{"buffer":0,"byteLength":192,"byteOffset":111696,"byteStride":4,"target":34962},{"buffer":0,"byteLength":96,"byteOffset":111888,"target":34963},{"buffer":0,"byteLength":888,"byteOffset":111984,"byteStride":8,"target":34962},{"buffer":0,"byteLength":444,"byteOffset":112872,"byteStride":4,"target":34962},{"buffer":0,"byteLength":222,"byteOffset":113316,"target":34963},{"buffer":0,"byteLength":192,"byteOffset":113540,"byteStride":8,"target":34962},{"buffer":0,"byteLength":96,"byteOffset":113732,"byteStride":4,"target":34962},{"buffer":0,"byteLength":48,"byteOffset":113828,"target":34963},{"buffer":0,"byteLength":1008,"byteOffset":113876,"byteStride":8,"target":34962},{"buffer":0,"byteLength":504,"byteOffset":114884,"byteStride":4,"target":34962},{"buffer":0,"byteLength":252,"byteOffset":115388,"target":34963},{"buffer":0,"byteLength":10656,"byteOffset":115640,"byteStride":8,"target":34962},{"buffer":0,"byteLength":5328,"byteOffset":126296,"byteStride":4,"target":34962},{"buffer":0,"byteLength":4440,"byteOffset":131624,"target":34963},{"buffer":0,"byteLength":768,"byteOffset":136064,"byteStride":8,"target":34962},{"buffer":0,"byteLength":384,"byteOffset":136832,"byteStride":4,"target":34962},{"buffer":0,"byteLength":264,"byteOffset":137216,"target":34963},{"buffer":0,"byteLength":35424,"byteOffset":137480,"byteStride":8,"target":34962},{"buffer":0,"byteLength":17712,"byteOffset":172904,"byteStride":4,"target":34962},{"buffer":0,"byteLength":12636,"byteOffset":190616,"target":34963},{"buffer":0,"byteLength":4608,"byteOffset":203252,"byteStride":8,"target":34962},{"buffer":0,"byteLength":2304,"byteOffset":207860,"byteStride":4,"target":34962},{"buffer":0,"byteLength":1584,"byteOffset":210164,"target":34963},{"buffer":0,"byteLength":2304,"byteOffset":211748,"byteStride":8,"target":34962},{"buffer":0,"byteLength":1152,"byteOffset":214052,"byteStride":4,"target":34962},{"buffer":0,"byteLength":792,"byteOffset":215204,"target":34963},{"buffer":0,"byteLength":768,"byteOffset":215996,"byteStride":8,"target":34962},{"buffer":0,"byteLength":384,"byteOffset":216764,"byteStride":4,"target":34962},{"buffer":0,"byteLength":264,"byteOffset":217148,"target":34963},{"buffer":0,"byteLength":480,"byteOffset":217412,"byteStride":8,"target":34962},{"buffer":0,"byteLength":240,"byteOffset":217892,"byteStride":4,"target":34962},{"buffer":0,"byteLength":120,"byteOffset":218132,"target":34963},{"buffer":0,"byteLength":30648,"byteOffset":218252,"byteStride":8,"target":34962},{"buffer":0,"byteLength":15324,"byteOffset":248900,"byteStride":4,"target":34962},{"buffer":0,"byteLength":7662,"byteOffset":264224,"target":34963},{"buffer":0,"byteLength":2688,"byteOffset":271888,"byteStride":8,"target":34962},{"buffer":0,"byteLength":1344,"byteOffset":274576,"byteStride":4,"target":34962},{"buffer":0,"byteLength":672,"byteOffset":275920,"target":34963},{"buffer":0,"byteLength":1536,"byteOffset":276592,"byteStride":8,"target":34962},{"buffer":0,"byteLength":768,"byteOffset":278128,"byteStride":4,"target":34962},{"buffer":0,"byteLength":384,"byteOffset":278896,"target":34963},{"buffer":0,"byteLength":9096,"byteOffset":279280,"byteStride":8,"target":34962},{"buffer":0,"byteLength":4548,"byteOffset":288376,"byteStride":4,"target":34962},{"buffer":0,"byteLength":2274,"byteOffset":292924,"target":34963},{"buffer":0,"byteLength":744,"byteOffset":295200,"byteStride":8,"target":34962},{"buffer":0,"byteLength":372,"byteOffset":295944,"byteStride":4,"target":34962},{"buffer":0,"byteLength":186,"byteOffset":296316,"target":34963},{"buffer":0,"byteLength":480,"byteOffset":296504,"byteStride":8,"target":34962},{"buffer":0,"byteLength":240,"byteOffset":296984,"byteStride":4,"target":34962},{"buffer":0,"byteLength":120,"byteOffset":297224,"target":34963},{"buffer":0,"byteLength":1656,"byteOffset":297344,"byteStride":8,"target":34962},{"buffer":0,"byteLength":828,"byteOffset":299000,"byteStride":4,"target":34962},{"buffer":0,"byteLength":414,"byteOffset":299828,"target":34963},{"buffer":0,"byteLength":384,"byteOffset":300244,"byteStride":8,"target":34962},{"buffer":0,"byteLength":192,"byteOffset":300628,"byteStride":4,"target":34962},{"buffer":0,"byteLength":96,"byteOffset":300820,"target":34963},{"buffer":0,"byteLength":29760,"byteOffset":300916,"byteStride":8,"target":34962},{"buffer":0,"byteLength":14880,"byteOffset":330676,"byteStride":4,"target":34962},{"buffer":0,"byteLength":11256,"byteOffset":345556,"target":34963},{"buffer":0,"byteLength":144,"byteOffset":356812,"byteStride":8,"target":34962},{"buffer":0,"byteLength":72,"byteOffset":356956,"byteStride":4,"target":34962},{"buffer":0,"byteLength":48,"byteOffset":357028,"target":34963},{"buffer":0,"byteLength":768,"byteOffset":357076,"byteStride":8,"target":34962},{"buffer":0,"byteLength":384,"byteOffset":357844,"byteStride":4,"target":34962},{"buffer":0,"byteLength":264,"byteOffset":358228,"target":34963},{"buffer":0,"byteLength":2784,"byteOffset":358492,"byteStride":8,"target":34962},{"buffer":0,"byteLength":1392,"byteOffset":361276,"byteStride":4,"target":34962},{"buffer":0,"byteLength":1344,"byteOffset":362668,"target":34963},{"buffer":0,"byteLength":21312,"byteOffset":364012,"byteStride":8,"target":34962},{"buffer":0,"byteLength":10656,"byteOffset":385324,"byteStride":4,"target":34962},{"buffer":0,"byteLength":5328,"byteOffset":395980,"target":34963},{"buffer":0,"byteLength":144,"byteOffset":401308,"byteStride":8,"target":34962},{"buffer":0,"byteLength":72,"byteOffset":401452,"byteStride":4,"target":34962},{"buffer":0,"byteLength":48,"byteOffset":401524,"target":34963},{"buffer":0,"byteLength":480,"byteOffset":401572,"byteStride":8,"target":34962},{"buffer":0,"byteLength":240,"byteOffset":402052,"byteStride":4,"target":34962},{"buffer":0,"byteLength":120,"byteOffset":402292,"target":34963},{"buffer":0,"byteLength":2640,"byteOffset":402412,"byteStride":8,"target":34962},{"buffer":0,"byteLength":1320,"byteOffset":405052,"byteStride":4,"target":34962},{"buffer":0,"byteLength":660,"byteOffset":406372,"target":34963},{"buffer":0,"byteLength":192,"byteOffset":407032,"byteStride":8,"target":34962},{"buffer":0,"byteLength":96,"byteOffset":407224,"byteStride":4,"target":34962},{"buffer":0,"byteLength":48,"byteOffset":407320,"target":34963},{"buffer":0,"byteLength":7272,"byteOffset":407368,"byteStride":8,"target":34962},{"buffer":0,"byteLength":3636,"byteOffset":414640,"byteStride":4,"target":34962},{"buffer":0,"byteLength":1830,"byteOffset":418276,"target":34963},{"buffer":0,"byteLength":192,"byteOffset":420108,"byteStride":8,"target":34962},{"buffer":0,"byteLength":96,"byteOffset":420300,"byteStride":4,"target":34962},{"buffer":0,"byteLength":48,"byteOffset":420396,"target":34963},{"buffer":0,"byteLength":1320,"byteOffset":420444,"byteStride":8,"target":34962},{"buffer":0,"byteLength":660,"byteOffset":421764,"byteStride":4,"target":34962},{"buffer":0,"byteLength":330,"byteOffset":422424,"target":34963},{"buffer":0,"byteLength":768,"byteOffset":422756,"byteStride":8,"target":34962},{"buffer":0,"byteLength":384,"byteOffset":423524,"byteStride":4,"target":34962},{"buffer":0,"byteLength":264,"byteOffset":423908,"target":34963},{"buffer":0,"byteLength":36784,"byteOffset":424172,"byteStride":8,"target":34962},{"buffer":0,"byteLength":18392,"byteOffset":460956,"byteStride":4,"target":34962},{"buffer":0,"byteLength":13944,"byteOffset":479348,"target":34963},{"buffer":0,"byteLength":1536,"byteOffset":493292,"byteStride":8,"target":34962},{"buffer":0,"byteLength":768,"byteOffset":494828,"byteStride":4,"target":34962},{"buffer":0,"byteLength":528,"byteOffset":495596,"target":34963},{"buffer":0,"byteLength":480,"byteOffset":496124,"byteStride":8,"target":34962},{"buffer":0,"byteLength":240,"byteOffset":496604,"byteStride":4,"target":34962},{"buffer":0,"byteLength":120,"byteOffset":496844,"target":34963},{"buffer":0,"byteLength":24840,"byteOffset":496964,"byteStride":8,"target":34962},{"buffer":0,"byteLength":12420,"byteOffset":521804,"byteStride":4,"target":34962},{"buffer":0,"byteLength":6210,"byteOffset":534224,"target":34963},{"buffer":0,"byteLength":864,"byteOffset":540436,"byteStride":8,"target":34962},{"buffer":0,"byteLength":432,"byteOffset":541300,"byteStride":4,"target":34962},{"buffer":0,"byteLength":216,"byteOffset":541732,"target":34963},{"buffer":0,"byteLength":7656,"byteOffset":541948,"byteStride":8,"target":34962},{"buffer":0,"byteLength":3828,"byteOffset":549604,"byteStride":4,"target":34962},{"buffer":0,"byteLength":1914,"byteOffset":553432,"target":34963},{"buffer":0,"byteLength":1296,"byteOffset":555348,"byteStride":8,"target":34962},{"buffer":0,"byteLength":648,"byteOffset":556644,"byteStride":4,"target":34962},{"buffer":0,"byteLength":324,"byteOffset":557292,"target":34963},{"buffer":0,"byteLength":14208,"byteOffset":557616,"byteStride":4,"target":34962},{"buffer":0,"byteLength":840,"byteOffset":571824,"byteStride":4,"target":34962},{"buffer":0,"byteLength":1536,"byteOffset":572664,"byteStride":4,"target":34962},{"buffer":0,"byteLength":624,"byteOffset":574200,"byteStride":4,"target":34962},{"buffer":0,"byteLength":8928,"byteOffset":574824,"byteStride":4,"target":34962},{"buffer":0,"byteLength":576,"byteOffset":583752,"byteStride":4,"target":34962},{"buffer":0,"byteLength":1536,"byteOffset":584328,"byteStride":4,"target":34962},{"buffer":0,"byteLength":2520,"byteOffset":585864,"byteStride":4,"target":34962},{"buffer":0,"byteLength":192,"byteOffset":588384,"byteStride":4,"target":34962},{"buffer":0,"byteLength":444,"byteOffset":588576,"byteStride":4,"target":34962},{"buffer":0,"byteLength":96,"byteOffset":589020,"byteStride":4,"target":34962},{"buffer":0,"byteLength":504,"byteOffset":589116,"byteStride":4,"target":34962},{"buffer":0,"byteLength":5328,"byteOffset":589620,"byteStride":4,"target":34962},{"buffer":0,"byteLength":384,"byteOffset":594948,"byteStride":4,"target":34962},{"buffer":0,"byteLength":17712,"byteOffset":595332,"byteStride":4,"target":34962},{"buffer":0,"byteLength":2304,"byteOffset":613044,"byteStride":4,"target":34962},{"buffer":0,"byteLength":1152,"byteOffset":615348,"byteStride":4,"target":34962},{"buffer":0,"byteLength":384,"byteOffset":616500,"byteStride":4,"target":34962},{"buffer":0,"byteLength":240,"byteOffset":616884,"byteStride":4,"target":34962},{"buffer":0,"byteLength":15324,"byteOffset":617124,"byteStride":4,"target":34962},{"buffer":0,"byteLength":1344,"byteOffset":632448,"byteStride":4,"target":34962},{"buffer":0,"byteLength":768,"byteOffset":633792,"byteStride":4,"target":34962},{"buffer":0,"byteLength":4548,"byteOffset":634560,"byteStride":4,"target":34962},{"buffer":0,"byteLength":372,"byteOffset":639108,"byteStride":4,"target":34962},{"buffer":0,"byteLength":240,"byteOffset":639480,"byteStride":4,"target":34962},{"buffer":0,"byteLength":828,"byteOffset":639720,"byteStride":4,"target":34962},{"buffer":0,"byteLength":192,"byteOffset":640548,"byteStride":4,"target":34962},{"buffer":0,"byteLength":14880,"byteOffset":640740,"byteStride":4,"target":34962},{"buffer":0,"byteLength":72,"byteOffset":655620,"byteStride":4,"target":34962},{"buffer":0,"byteLength":384,"byteOffset":655692,"byteStride":4,"target":34962},{"buffer":0,"byteLength":1392,"byteOffset":656076,"byteStride":4,"target":34962},{"buffer":0,"byteLength":10656,"byteOffset":657468,"byteStride":4,"target":34962},{"buffer":0,"byteLength":72,"byteOffset":668124,"byteStride":4,"target":34962},{"buffer":0,"byteLength":240,"byteOffset":668196,"byteStride":4,"target":34962},{"buffer":0,"byteLength":1320,"byteOffset":668436,"byteStride":4,"target":34962},{"buffer":0,"byteLength":96,"byteOffset":669756,"byteStride":4,"target":34962},{"buffer":0,"byteLength":3636,"byteOffset":669852,"byteStride":4,"target":34962},{"buffer":0,"byteLength":96,"byteOffset":673488,"byteStride":4,"target":34962},{"buffer":0,"byteLength":660,"byteOffset":673584,"byteStride":4,"target":34962},{"buffer":0,"byteLength":384,"byteOffset":674244,"byteStride":4,"target":34962},{"buffer":0,"byteLength":18392,"byteOffset":674628,"byteStride":4,"target":34962},{"buffer":0,"byteLength":768,"byteOffset":693020,"byteStride":4,"target":34962},{"buffer":0,"byteLength":240,"byteOffset":693788,"byteStride":4,"target":34962},{"buffer":0,"byteLength":12420,"byteOffset":694028,"byteStride":4,"target":34962},{"buffer":0,"byteLength":432,"byteOffset":706448,"byteStride":4,"target":34962},{"buffer":0,"byteLength":3828,"byteOffset":706880,"byteStride":4,"target":34962},{"buffer":0,"byteLength":648,"byteOffset":710708,"byteStride":4,"target":34962}],"buffers":[{"byteLength":711356,"uri":"cottage.bin"}],"extensionsRequired":["KHR_mesh_quantization","KHR_texture_transform"],"extensionsUsed":["KHR_mesh_quantization","KHR_texture_transform","MSFT_lod"],"extras":{"hm":{"batching":true,"cellSize":16.0,"cells":[{"cullAt":null,"interior":null,"key":"0_0","lodPrims":[4,3,3,2],"lodTris":[2038,920,263,50],"max":[3.386,7.521,2.792],"min":[-3.386,0.0,-2.723]},{"cullAt":null,"interior":null,"key":"0_n1","lodPrims":[6,4,3,2],"lodTris":[3330,1473,430,85],"max":[3.266,3.163,-2.481],"min":[-3.266,0.41,-3.334]},{"cullAt":null,"interior":null,"key":"n1_0","lodPrims":[4,4,2,2],"lodTris":[2152,1026,313,63],"max":[3.912,6.745,3.153],"min":[-3.945,0.42,-2.859]},{"cullAt":null,"interior":null,"key":"n1_n1","lodPrims":[3,3,1,1],"lodTris":[2456,1091,319,54],"max":[-0.287,2.78,-0.011],"min":[-3.984,0.371,-3.043]}],"instanced":[],"instancing":true,"interiors":[],"lod":true,"lodDistances":[15.0,40.0,100.0],"stats":{"groups":4,"lodPrims":[17,14,9,7],"lodTris":[9976,4510,1325,252]},"venue":"cottage"}},"images":[{"uri":"../textures/stone_albedo.png"},{"uri":"../textures/stone_orm.png"},{"uri":"../textures/stone_normal.png"},{"uri":"../textures/plaster_albedo.png"},{"uri":"../textures/plaster_orm.png"},{"uri":"../textures/plaster_normal.png"},{"uri":"../textures/plaster_shade_albedo.png"},{"uri":"../textures/plaster_shade_orm.png"},{"uri":"../textures/plaster_shade_normal.png"},{"uri":"../textures/kit_albedo.png"},{"uri":"../textures/kit_orm.png"},{"uri":"../textures/kit_normal.png"},{"uri":"../textures/thatch_albedo.png"},{"uri":"../textures/thatch_orm.png"},{"uri":"../textures/thatch_normal.png"},{"uri":"../textures/terracotta_albedo.png"},{"uri":"../textures/terracotta_orm.png"},{"uri":"../textures/terracotta_normal.png"},{"uri":"../textures/glass_albedo.png"},{"uri":"../textures/glass_orm.png"},{"uri":"../textures/glass_normal.png"},{"uri":"../textures/glass_emissive.png"},{"uri":"../textures/foliage_flower_albedo.png"},{"uri":"../textures/foliage_flower_orm.png"},{"uri":"../textures/foliage_flower_normal.png"}],"materials":[{"doubleSided":false,"name":"stone","normalTexture":{"extensions":{"KHR_texture_transform":{"scale":[3.8158545811564926,3.8158545811564926]}},"index":2,"scale":1.0},"occlusionTexture":{"extensions":{"KHR_texture_transform":{"scale":[3.8158545811564926,3.8158545811564926]}},"index":1},"pbrMetallicRoughness":{"baseColorFactor":[1,1,1,1],"baseColorTexture":{"extensions":{"KHR_texture_transform":{"scale":[3.8158545811564926,3.8158545811564926]}},"index":0},"metallicFactor":1.0,"metallicRoughnessTexture":{"extensions":{"KHR_texture_transform":{"scale":[3.8158545811564926,3.8158545811564926]}},"index":1},"roughnessFactor":1.0}},{"doubleSided":false,"name":"plaster","normalTexture":{"extensions":{"KHR_texture_transform":{"scale":[3.8158545811564926,3.8158545811564926]}},"index":5,"scale":1.0},"occlusionTexture":{"extensions":{"KHR_texture_transform":{"scale":[3.8158545811564926,3.8158545811564926]}},"index":4},"pbrMetallicRoughness":{"baseColorFactor":[1,1,1,1],"baseColorTexture":{"extensions":{"KHR_texture_transform":{"scale":[3.8158545811564926,3.8158545811564926]}},"index":3},"metallicFactor":1.0,"metallicRoughnessTexture":{"extensions":{"KHR_texture_transform":{"scale":[3.8158545811564926,3.8158545811564926]}},"index":4},"roughnessFactor":1.0}},{"doubleSided":false,"name":"plaster_shade","normalTexture":{"extensions":{"KHR_texture_transform":{"scale":[3.8158545811564926,3.8158545811564926]}},"index":8,"scale":1.0},"occlusionTexture":{"extensions":{"KHR_texture_transform":{"scale":[3.8158545811564926,3.8158545811564926]}},"index":7},"pbrMetallicRoughness":{"baseColorFactor":[1,1,1,1],"baseColorTexture":{"extensions":{"KHR_texture_transform":{"scale":[3.8158545811564926,3.8158545811564926]}},"index":6},"metallicFactor":1.0,"metallicRoughnessTexture":{"extensions":{"KHR_texture_transform":{"scale":[3.8158545811564926,3.8158545811564926]}},"index":7},"roughnessFactor":1.0}},{"doubleSided":true,"name":"kit","normalTexture":{"extensions":{"KHR_texture_transform":{"scale":[3.8158545811564926,3.8158545811564926]}},"index":11,"scale":1.0},"occlusionTexture":{"extensions":{"KHR_texture_transform":{"scale":[3.8158545811564926,3.8158545811564926]}},"index":10},"pbrMetallicRoughness":{"baseColorFactor":[1,1,1,1],"baseColorTexture":{"extensions":{"KHR_texture_transform":{"scale":[3.8158545811564926,3.8158545811564926]}},"index":9},"metallicFactor":1.0,"metallicRoughnessTexture":{"extensions":{"KHR_texture_transform":{"scale":[3.8158545811564926,3.8158545811564926]}},"index":10},"roughnessFactor":1.0}},{"doubleSided":false,"name":"thatch","normalTexture":{"extensions":{"KHR_texture_transform":{"scale":[3.8158545811564926,3.8158545811564926]}},"index":14,"scale":1.0},"occlusionTexture":{"extensions":{"KHR_texture_transform":{"scale":[3.8158545811564926,3.8158545811564926]}},"index":13},"pbrMetallicRoughness":{"baseColorFactor":[1,1,1,1],"baseColorTexture":{"extensions":{"KHR_texture_transform":{"scale":[3.8158545811564926,3.8158545811564926]}},"index":12},"metallicFactor":1.0,"metallicRoughnessTexture":{"extensions":{"KHR_texture_transform":{"scale":[3.8158545811564926,3.8158545811564926]}},"index":13},"roughnessFactor":1.0}},{"doubleSided":false,"name":"terracotta","normalTexture":{"extensions":{"KHR_texture_transform":{"scale":[3.8158545811564926,3.8158545811564926]}},"index":17,"scale":1.0},"occlusionTexture":{"extensions":{"KHR_texture_transform":{"scale":[3.8158545811564926,3.8158545811564926]}},"index":16},"pbrMetallicRoughness":{"baseColorFactor":[1,1,1,1],"baseColorTexture":{"extensions":{"KHR_texture_transform":{"scale":[3.8158545811564926,3.8158545811564926]}},"index":15},"metallicFactor":1.0,"metallicRoughnessTexture":{"extensions":{"KHR_texture_transform":{"scale":[3.8158545811564926,3.8158545811564926]}},"index":16},"roughnessFactor":1.0}},{"alphaMode":"BLEND","doubleSided":true,"emissiveFactor":[1.0,1.0,1.0],"emissiveTexture":{"extensions":{"KHR_texture_transform":{"scale":[3.8158545811564926,3.8158545811564926]}},"index":21},"name":"glass","normalTexture":{"extensions":{"KHR_texture_transform":{"scale":[3.8158545811564926,3.8158545811564926]}},"index":20,"scale":1.0},"occlusionTexture":{"extensions":{"KHR_texture_transform":{"scale":[3.8158545811564926,3.8158545811564926]}},"index":19},"pbrMetallicRoughness":{"baseColorFactor":[1,1,1,1],"baseColorTexture":{"extensions":{"KHR_texture_transform":{"scale":[3.8158545811564926,3.8158545811564926]}},"index":18},"metallicFactor":1.0,"metallicRoughnessTexture":{"extensions":{"KHR_texture_transform":{"scale":[3.8158545811564926,3.8158545811564926]}},"index":19},"roughnessFactor":1.0}},{"doubleSided":true,"name":"foliage_flower","normalTexture":{"extensions":{"KHR_texture_transform":{"scale":[3.8158545811564926,3.8158545811564926]}},"index":24,"scale":1.0},"occlusionTexture":{"extensions":{"KHR_texture_transform":{"scale":[3.8158545811564926,3.8158545811564926]}},"index":23},"pbrMetallicRoughness":{"baseColorFactor":[1,1,1,1],"baseColorTexture":{"extensions":{"KHR_texture_transform":{"scale":[3.8158545811564926,3.8158545811564926]}},"index":22},"metallicFactor":1.0,"metallicRoughnessTexture":{"extensions":{"KHR_texture_transform":{"scale":[3.8158545811564926,3.8158545811564926]}},"index":23},"roughnessFactor":1.0}}],"meshes":[{"name":"cottage#0_0","primitives":[{"attributes":{"NORMAL":1,"POSITION":0,"TEXCOORD_0":141},"indices":2,"material":3},{"attributes":{"NORMAL":4,"POSITION":3,"TEXCOORD_0":142},"indices":5,"material":1},{"attributes":{"NORMAL":7,"POSITION":6,"TEXCOORD_0":143},"indices":8,"material":0},{"attributes":{"NORMAL":10,"POSITION":9,"TEXCOORD_0":144},"indices":11,"material":5}]},{"name":"cottage#0_0$lod1","primitives":[{"attributes":{"NORMAL":13,"POSITION":12,"TEXCOORD_0":145},"indices":14,"material":3},{"attributes":{"NORMAL":16,"POSITION":15,"TEXCOORD_0":146},"indices":17,"material":1},{"attributes":{"NORMAL":19,"POSITION":18,"TEXCOORD_0":147},"indices":20,"material":0}]},{"name":"cottage#0_0$lod2","primitives":[{"attributes":{"NORMAL":22,"POSITION":21,"TEXCOORD_0":148},"indices":23,"material":3},{"attributes":{"NORMAL":25,"POSITION":24,"TEXCOORD_0":149},"indices":26,"material":1},{"attributes":{"NORMAL":28,"POSITION":27,"TEXCOORD_0":150},"indices":29,"material":0}]},{"name":"cottage#0_0$lod3","primitives":[{"attributes":{"NORMAL":31,"POSITION":30,"TEXCOORD_0":151},"indices":32,"material":1},{"attributes":{"NORMAL":34,"POSITION":33,"TEXCOORD_0":152},"indices":35,"material":0}]},{"name":"cottage#0_n1","primitives":[{"attributes":{"NORMAL":37,"POSITION":36,"TEXCOORD_0":153},"indices":38,"material":7},{"attributes":{"NORMAL":40,"POSITION":39,"TEXCOORD_0":154},"indices":41,"material":6},{"attributes":{"NORMAL":43,"POSITION":42,"TEXCOORD_0":155},"indices":44,"material":3},{"attributes":{"NORMAL":46,"POSITION":45,"TEXCOORD_0":156},"indices":47,"material":1},{"attributes":{"NORMAL":49,"POSITION":48,"TEXCOORD_0":157},"indices":50,"material":2},{"attributes":{"NORMAL":52,"POSITION":51,"TEXCOORD_0":158},"indices":53,"material":0}]},{"name":"cottage#0_n1$lod1","primitives":[{"attributes":{"NORMAL":55,"POSITION":54,"TEXCOORD_0":159},"indices":56,"material":6},{"attributes":{"NORMAL":58,"POSITION":57,"TEXCOORD_0":160},"indices":59,"material":3},{"attributes":{"NORMAL":61,"POSITION":60,"TEXCOORD_0":161},"indices":62,"material":1},{"attributes":{"NORMAL":64,"POSITION":63,"TEXCOORD_0":162},"indices":65,"material":2}]},{"name":"cottage#0_n1$lod2","primitives":[{"attributes":{"NORMAL":67,"POSITION":66,"TEXCOORD_0":163},"indices":68,"material":3},{"attributes":{"NORMAL":70,"POSITION":69,"TEXCOORD_0":164},"indices":71,"material":1},{"attributes":{"NORMAL":73,"POSITION":72,"TEXCOORD_0":165},"indices":74,"material":2}]},{"name":"cottage#0_n1$lod3","primitives":[{"attributes":{"NORMAL":76,"POSITION":75,"TEXCOORD_0":166},"indices":77,"material":3},{"attributes":{"NORMAL":79,"POSITION":78,"TEXCOORD_0":167},"indices":80,"material":1}]},{"name":"cottage#n1_0","primitives":[{"attributes":{"NORMAL":82,"POSITION":81,"TEXCOORD_0":168},"indices":83,"material":3},{"attributes":{"NORMAL":85,"POSITION":84,"TEXCOORD_0":169},"indices":86,"material":1},{"attributes":{"NORMAL":88,"POSITION":87,"TEXCOORD_0":170},"indices":89,"material":2},{"attributes":{"NORMAL":91,"POSITION":90,"TEXCOORD_0":171},"indices":92,"material":4}]},{"name":"cottage#n1_0$lod1","primitives":[{"attributes":{"NORMAL":94,"POSITION":93,"TEXCOORD_0":172},"indices":95,"material":3},{"attributes":{"NORMAL":97,"POSITION":96,"TEXCOORD_0":173},"indices":98,"material":1},{"attributes":{"NORMAL":100,"POSITION":99,"TEXCOORD_0":174},"indices":101,"material":2},{"attributes":{"NORMAL":103,"POSITION":102,"TEXCOORD_0":175},"indices":104,"material":4}]},{"name":"cottage#n1_0$lod2","primitives":[{"attributes":{"NORMAL":106,"POSITION":105,"TEXCOORD_0":176},"indices":107,"material":2},{"attributes":{"NORMAL":109,"POSITION":108,"TEXCOORD_0":177},"indices":110,"material":4}]},{"name":"cottage#n1_0$lod3","primitives":[{"attributes":{"NORMAL":112,"POSITION":111,"TEXCOORD_0":178},"indices":113,"material":2},{"attributes":{"NORMAL":115,"POSITION":114,"TEXCOORD_0":179},"indices":116,"material":4}]},{"name":"cottage#n1_n1","primitives":[{"attributes":{"NORMAL":118,"POSITION":117,"TEXCOORD_0":180},"indices":119,"material":6},{"attributes":{"NORMAL":121,"POSITION":120,"TEXCOORD_0":181},"indices":122,"material":3},{"attributes":{"NORMAL":124,"POSITION":123,"TEXCOORD_0":182},"indices":125,"material":0}]},{"name":"cottage#n1_n1$lod1","primitives":[{"attributes":{"NORMAL":127,"POSITION":126,"TEXCOORD_0":183},"indices":128,"material":6},{"attributes":{"NORMAL":130,"POSITION":129,"TEXCOORD_0":184},"indices":131,"material":3},{"attributes":{"NORMAL":133,"POSITION":132,"TEXCOORD_0":185},"indices":134,"material":0}]},{"name":"cottage#n1_n1$lod2","primitives":[{"attributes":{"NORMAL":136,"POSITION":135,"TEXCOORD_0":186},"indices":137,"material":3}]},{"name":"cottage#n1_n1$lod3","primitives":[{"attributes":{"NORMAL":139,"POSITION":138,"TEXCOORD_0":187},"indices":140,"material":3}]}],"nodes":[{"extensions":{"MSFT_lod":{"ids":[1,2,3]}},"extras":{"MSFT_screencoverage":[0.73797,0.27674,0.1107,0.0],"hm":{"cell":"0_0","cullAt":null,"interior":null,"lod":0,"max":[3.386,7.521,2.792],"min":[-3.386,0.0,-2.723],"prims":4,"tris":2038,"venue":"cottage"}},"mesh":0,"name":"cottage#0_0","scale":[3.3857383728027344,3.7603392601013184,2.7572808265686035],"translation":[0.0,3.7603392601013184,0.03450000286102295]},{"extras":{"hm":{"cell":"0_0","cullAt":null,"interior":null,"lod":1,"max":[3.386,7.521,2.792],"min":[-3.386,0.0,-2.723],"prims":3,"tris":920,"venue":"cottage"}},"mesh":1,"name":"cottage#0_0$lod1","scale":[3.3690717220306396,3.7553391456604004,2.7489476203918457],"translation":[0.0,3.7653393745422363,0.04283332824707031]},{"extras":{"hm":{"cell":"0_0","cullAt":null,"interior":null,"lod":2,"max":[3.386,7.521,2.792],"min":[-3.386,0.0,-2.723],"prims":3,"tris":263,"venue":"cottage"}},"mesh":2,"name":"cottage#0_0$lod2","scale":[3.3690717220306396,3.7553391456604004,2.7328920364379883],"translation":[0.0,3.7653393745422363,0.02677774429321289]},{"extras":{"hm":{"cell":"0_0","cullAt":null,"interior":null,"lod":3,"max":[3.386,7.521,2.792],"min":[-3.386,0.0,-2.723],"prims":2,"tris":50,"venue":"cottage"}},"mesh":3,"name":"cottage#0_0$lod3","scale":[3.3107380867004395,3.55057954788208,2.66278076171875],"translation":[0.0549999475479126,3.560579299926758,0.060000061988830566]},{"extensions":{"MSFT_lod":{"ids":[5,6,7]}},"extras":{"MSFT_screencoverage":[0.45712,0.17142,0.06857,0.0],"hm":{"cell":"0_n1","cullAt":null,"interior":null,"lod":0,"max":[3.266,3.163,-2.481],"min":[-3.266,0.41,-3.334],"prims":6,"tris":3330,"venue":"cottage"}},"mesh":4,"name":"cottage#0_n1","scale":[3.2657382488250732,1.376352071762085,0.42615795135498047],"translation":[0.0,1.7864799499511719,-2.9074795246124268]},{"extras":{"hm":{"cell":"0_n1","cullAt":null,"interior":null,"lod":1,"max":[3.266,3.163,-2.481],"min":[-3.266,0.41,-3.334],"prims":4,"tris":1473,"venue":"cottage"}},"mesh":5,"name":"cottage#0_n1$lod1","scale":[3.2582383155822754,1.3763519525527954,0.4251359701156616],"translation":[0.0,1.7864798307418823,-2.907595157623291]},{"extras":{"hm":{"cell":"0_n1","cullAt":null,"interior":null,"lod":2,"max":[3.266,3.163,-2.481],"min":[-3.266,0.41,-3.334],"prims":3,"tris":430,"venue":"cottage"}},"mesh":6,"name":"cottage#0_n1$lod2","scale":[3.2582383155822754,1.371558666229248,0.39730584621429443],"translation":[0.0,1.7832732200622559,-2.935425281524658]},{"extras":{"hm":{"cell":"0_n1","cullAt":null,"interior":null,"lod":3,"max":[3.266,3.163,-2.481],"min":[-3.266,0.41,-3.334],"prims":2,"tris":85,"venue":"cottage"}},"mesh":7,"name":"cottage#0_n1$lod3","scale":[3.256067991256714,1.3482909202575684,0.37916886806488037],"translation":[0.00032973289489746094,1.7615280151367188,-2.9506497383117676]},{"extensions":{"MSFT_lod":{"ids":[9,10,11]}},"extras":{"MSFT_screencoverage":[0.75189,0.28196,0.11278,0.0],"hm":{"cell":"n1_0","cullAt":null,"interior":null,"lod":0,"max":[3.912,6.745,3.153],"min":[-3.945,0.42,-2.859],"prims":4,"tris":2152,"venue":"cottage"}},"mesh":8,"name":"cottage#n1_0","scale":[3.9285223484039307,3.16264009475708,3.0057735443115234],"translation":[-0.01681065559387207,3.5826401710510254,0.14700734615325928]},{"extras":{"hm":{"cell":"n1_0","cullAt":null,"interior":null,"lod":1,"max":[3.912,6.745,3.153],"min":[-3.945,0.42,-2.859],"prims":4,"tris":1026,"venue":"cottage"}},"mesh":9,"name":"cottage#n1_0$lod1","scale":[3.9285223484039307,3.1321208477020264,3.0057735443115234],"translation":[-0.01681065559387207,3.5521209239959717,0.14700734615325928]},{"extras":{"hm":{"cell":"n1_0","cullAt":null,"interior":null,"lod":2,"max":[3.912,6.745,3.153],"min":[-3.945,0.42,-2.859],"prims":2,"tris":313,"venue":"cottage"}},"mesh":10,"name":"cottage#n1_0$lod2","scale":[3.9186818599700928,3.0992116928100586,2.9224069118499756],"translation":[-0.01669907569885254,3.524568557739258,0.06364083290100098]},{"extras":{"hm":{"cell":"n1_0","cullAt":null,"interior":null,"lod":3,"max":[3.912,6.745,3.153],"min":[-3.945,0.42,-2.859],"prims":2,"tris":63,"venue":"cottage"}},"mesh":11,"name":"cottage#n1_0$lod3","scale":[3.9186818599700928,3.097261428833008,2.9224069118499756],"translation":[-0.01669907569885254,3.5226187705993652,0.06364083290100098]},{"extensions":{"MSFT_lod":{"ids":[13,14,15]}},"extras":{"MSFT_screencoverage":[0.34282,0.12856,0.05142,0.0],"hm":{"cell":"n1_n1","cullAt":null,"interior":null,"lod":0,"max":[-0.287,2.78,-0.011],"min":[-3.984,0.371,-3.043],"prims":3,"tris":2456,"venue":"cottage"}},"mesh":12,"name":"cottage#n1_n1","scale":[1.848685383796692,1.2045143842697144,1.5157735347747803],"translation":[-2.1357223987579346,1.5754855871200562,-1.5270073413848877]},{"extras":{"hm":{"cell":"n1_n1","cullAt":null,"interior":null,"lod":1,"max":[-0.287,2.78,-0.011],"min":[-3.984,0.371,-3.043],"prims":3,"tris":1091,"venue":"cottage"}},"mesh":13,"name":"cottage#n1_n1$lod1","scale":[1.8476614952087402,1.2045143842697144,1.5136460065841675],"translation":[-2.1346983909606934,1.5754855871200562,-1.5264681577682495]},{"extras":{"hm":{"cell":"n1_n1","cullAt":null,"interior":null,"lod":2,"max":[-0.287,2.78,-0.011],"min":[-3.984,0.371,-3.043],"prims":1,"tris":319,"venue":"cottage"}},"mesh":14,"name":"cottage#n1_n1$lod2","scale":[1.8432590961456299,1.2000243663787842,1.492879867553711],"translation":[-2.13779616355896,1.5724756717681885,-1.547234296798706]},{"extras":{"hm":{"cell":"n1_n1","cullAt":null,"interior":null,"lod":3,"max":[-0.287,2.78,-0.011],"min":[-3.984,0.371,-3.043],"prims":1,"tris":54,"venue":"cottage"}},"mesh":15,"name":"cottage#n1_n1$lod3","scale":[1.7462395429611206,1.0971238613128662,1.4008556604385376],"translation":[-2.2249953746795654,1.5203425884246826,-1.5510765314102173]}],"samplers":[{"magFilter":9729,"minFilter":9987,"wrapS":10497,"wrapT":10497}],"scene":0,"scenes":[{"nodes":[0,4,8,12]}],"textures":[{"sampler":0,"source":0},{"sampler":0,"source":1},{"sampler":0,"source":2},{"sampler":0,"source":3},{"sampler":0,"source":4},{"sampler":0,"source":5},{"sampler":0,"source":6},{"sampler":0,"source":7},{"sampler":0,"source":8},{"sampler":0,"source":9},{"sampler":0,"source":10},{"sampler":0,"source":11},{"sampler":0,"source":12},{"sampler":0,"source":13},{"sampler":0,"source":14},{"sampler":0,"source":15},{"sampler":0,"source":16},{"sampler":0,"source":17},{"sampler":0,"source":18},{"sampler":0,"source":19},{"sampler":0,"source":20},{"sampler":0,"source":21},{"sampler":0,"source":22},{"sampler":0,"source":23},{"sampler":0,"source":24}]}