{"accessors":[{"bufferView":0,"componentType":5122,"count":1244,"max":[27927.0,10839.0,13001.0],"min":[-32767.0,-32767.0,-28721.0],"normalized":true,"type":"VEC3"},{"bufferView":1,"componentType":5120,"count":1244,"normalized":true,"type":"VEC3"},{"bufferView":2,"componentType":5123,"count":1848,"type":"SCALAR"},{"bufferView":3,"componentType":5122,"count":9600,"max":[22116.0,-5044.0,9530.0],"min":[-2600.0,-25066.0,-437.0],"normalized":true,"type":"VEC3"},{"bufferView":4,"componentType":5120,"count":9600,"normalized":true,"type":"VEC3"},{"bufferView":5,"componentType":5123,"count":13200,"type":"SCALAR"},{"bufferView":6,"componentType":5122,"count":1568,"max":[28216.0,-32459.0,32767.0],"min":[-26247.0,-32490.0,-32767.0],"normalized":true,"type":"VEC3"},{"bufferView":7,"componentType":5120,"count":1568,"normalized":true,"type":"VEC3"},{"bufferView":8,"componentType":5123,"count":2604,"type":"SCALAR"},{"bufferView":9,"componentType":5122,"count":14198,"max":[23259.0,-29417.0,29399.0],"min":[-13389.0,-32545.0,5897.0],"normalized":true,"type":"VEC3"},{"bufferView":10,"componentType":5120,"count":14198,"normalized":true,"type":"VEC3"},{"bufferView":11,"componentType":5123,"count":19560,"type":"SCALAR"},{"bufferView":12,"componentType":5122,"count":5422,"max":[32767.0,32767.0,15386.0],"min":[-7347.0,-32621.0,-11242.0],"normalized":true,"type":"VEC3"},{"bufferView":13,"componentType":5120,"count":5422,"normalized":true,"type":"VEC3"},{"bufferView":14,"componentType":5123,"count":8136,"type":"SCALAR"},{"bufferView":15,"componentType":5122,"count":21696,"max":[23213.0,6430.0,8098.0],"min":[-3704.0,-26760.0,-2778.0],"normalized":true,"type":"VEC3"},{"bufferView":16,"componentType":5120,"count":21696,"normalized":true,"type":"VEC3"},{"bufferView":17,"componentType":5123,"count":29832,"type":"SCALAR"},{"bufferView":18,"componentType":5122,"count":104,"max":[26521.0,14978.0,12034.0],"min":[-31360.0,14208.0,-27754.0],"normalized":true,"type":"VEC3"},{"bufferView":19,"componentType":5120,"count":104,"normalized":true,"type":"VEC3"},{"bufferView":20,"componentType":5123,"count":156,"type":"SCALAR"},{"bufferView":21,"componentType":5122,"count":858,"max":[27124.0,14978.0,12449.0],"min":[-31963.0,-32767.0,-28169.0],"normalized":true,"type":"VEC3"},{"bufferView":22,"componentType":5120,"count":858,"normalized":true,"type":"VEC3"},{"bufferView":23,"componentType":5123,"count":1320,"type":"SCALAR"},{"bufferView":24,"componentType":5122,"count":200,"max":[19687.0,-30457.0,15368.0],"min":[-24527.0,-32305.0,-23057.0],"normalized":true,"type":"VEC3"},{"bufferView":25,"componentType":5120,"count":200,"normalized":true,"type":"VEC3"},{"bufferView":26,"componentType":5123,"count":288,"type":"SCALAR"},{"bufferView":27,"componentType":5122,"count":4776,"max":[26470.0,29995.0,12000.0],"min":[-31310.0,14978.0,-27720.0],"normalized":true,"type":"VEC3"},{"bufferView":28,"componentType":5120,"count":4776,"normalized":true,"type":"VEC3"},{"bufferView":29,"componentType":5123,"count":7164,"type":"SCALAR"},{"bufferView":30,"componentType":5122,"count":816,"max":[27931.0,10666.0,13000.0],"min":[-32767.0,-32767.0,-28726.0],"normalized":true,"type":"VEC3"},{"bufferView":31,"componentType":5120,"count":816,"normalized":true,"type":"VEC3"},{"bufferView":32,"componentType":5123,"count":816,"type":"SCALAR"},{"bufferView":33,"componentType":5122,"count":5640,"max":[22099.0,-5044.0,9528.0],"min":[-2579.0,-25066.0,-426.0],"normalized":true,"type":"VEC3"},{"bufferView":34,"componentType":5120,"count":5640,"normalized":true,"type":"VEC3"},{"bufferView":35,"componentType":5123,"count":5640,"type":"SCALAR"},{"bufferView":36,"componentType":5122,"count":1128,"max":[28216.0,-32459.0,32767.0],"min":[-26241.0,-32490.0,-32767.0],"normalized":true,"type":"VEC3"},{"bufferView":37,"componentType":5120,"count":1128,"normalized":true,"type":"VEC3"},{"bufferView":38,"componentType":5123,"count":1128,"type":"SCALAR"},{"bufferView":39,"componentType":5122,"count":3639,"max":[32767.0,32767.0,15382.0],"min":[-7346.0,-32613.0,-11245.0],"normalized":true,"type":"VEC3"},{"bufferView":40,"componentType":5120,"count":3639,"normalized":true,"type":"VEC3"},{"bufferView":41,"componentType":5123,"count":3639,"type":"SCALAR"},{"bufferView":42,"componentType":5122,"count":13389,"max":[23216.0,6415.0,8086.0],"min":[-3688.0,-26756.0,-2780.0],"normalized":true,"type":"VEC3"},{"bufferView":43,"componentType":5120,"count":13389,"normalized":true,"type":"VEC3"},{"bufferView":44,"componentType":5123,"count":13389,"type":"SCALAR"},{"bufferView":45,"componentType":5122,"count":9105,"max":[27127.0,14978.0,29398.0],"min":[-31963.0,-32545.0,-28173.0],"normalized":true,"type":"VEC3"},{"bufferView":46,"componentType":5120,"count":9105,"normalized":true,"type":"VEC3"},{"bufferView":47,"componentType":5123,"count":9105,"type":"SCALAR"},{"bufferView":48,"componentType":5122,"count":126,"max":[19690.0,-30457.0,15294.0],"min":[-24527.0,-32228.0,-23061.0],"normalized":true,"type":"VEC3"},{"bufferView":49,"componentType":5120,"count":126,"normalized":true,"type":"VEC3"},{"bufferView":50,"componentType":5123,"count":126,"type":"SCALAR"},{"bufferView":51,"componentType":5122,"count":3138,"max":[26197.0,29995.0,11808.0],"min":[-31033.0,14978.0,-27534.0],"normalized":true,"type":"VEC3"},{"bufferView":52,"componentType":5120,"count":3138,"normalized":true,"type":"VEC3"},{"bufferView":53,"componentType":5123,"count":3138,"type":"SCALAR"},{"bufferView":54,"componentType":5122,"count":237,"max":[32466.0,9511.0,13006.0],"min":[-32767.0,-32012.0,-28725.0],"normalized":true,"type":"VEC3"},{"bufferView":55,"componentType":5120,"count":237,"normalized":true,"type":"VEC3"},{"bufferView":56,"componentType":5123,"count":237,"type":"SCALAR"},{"bufferView":57,"componentType":5122,"count":357,"max":[32767.0,-32674.0,32767.0],"min":[-25744.0,-32697.0,-32767.0],"normalized":true,"type":"VEC3"},{"bufferView":58,"componentType":5120,"count":357,"normalized":true,"type":"VEC3"},{"bufferView":59,"componentType":5123,"count":357,"type":"SCALAR"},{"bufferView":60,"componentType":5122,"count":10725,"max":[31602.0,32767.0,29401.0],"min":[-31903.0,-32767.0,-28172.0],"normalized":true,"type":"VEC3"},{"bufferView":61,"componentType":5120,"count":10725,"normalized":true,"type":"VEC3"},{"bufferView":62,"componentType":5123,"count":10725,"type":"SCALAR"},{"bufferView":63,"componentType":5122,"count":48,"max":[32767.0,8786.0,14956.0],"min":[-32767.0,-32030.0,-28556.0],"normalized":true,"type":"VEC3"},{"bufferView":64,"componentType":5120,"count":48,"normalized":true,"type":"VEC3"},{"bufferView":65,"componentType":5123,"count":48,"type":"SCALAR"},{"bufferView":66,"componentType":5122,"count":2034,"max":[29076.0,32767.0,32767.0],"min":[-28861.0,-32767.0,-32767.0],"normalized":true,"type":"VEC3"},{"bufferView":67,"componentType":5120,"count":2034,"normalized":true,"type":"VEC3"},{"bufferView":68,"componentType":5123,"count":2034,"type":"SCALAR"},{"bufferView":69,"componentType":5122,"count":672,"max":[16232.0,15538.0,30871.0],"min":[-30901.0,12406.0,-12434.0],"normalized":true,"type":"VEC3"},{"bufferView":70,"componentType":5120,"count":672,"normalized":true,"type":"VEC3"},{"bufferView":71,"componentType":5123,"count":924,"type":"SCALAR"},{"bufferView":72,"componentType":5122,"count":1380,"max":[32767.0,32767.0,32767.0],"min":[-32767.0,-32767.0,-32767.0],"normalized":true,"type":"VEC3"},{"bufferView":73,"componentType":5120,"count":1380,"normalized":true,"type":"VEC3"},{"bufferView":74,"componentType":5123,"count":1980,"type":"SCALAR"},{"bufferView":75,"componentType":5122,"count":576,"max":[10176.0,10625.0,17177.0],"min":[-21663.0,-2193.0,-8464.0],"normalized":true,"type":"VEC3"},{"bufferView":76,"componentType":5120,"count":576,"normalized":true,"type":"VEC3"},{"bufferView":77,"componentType":5123,"count":792,"type":"SCALAR"},{"bufferView":78,"componentType":5122,"count":402,"max":[16171.0,15536.0,30911.0],"min":[-30950.0,12403.0,-12384.0],"normalized":true,"type":"VEC3"},{"bufferView":79,"componentType":5120,"count":402,"normalized":true,"type":"VEC3"},{"bufferView":80,"componentType":5123,"count":402,"type":"SCALAR"},{"bufferView":81,"componentType":5122,"count":891,"max":[32767.0,32767.0,32767.0],"min":[-32767.0,-32767.0,-32767.0],"normalized":true,"type":"VEC3"},{"bufferView":82,"componentType":5120,"count":891,"normalized":true,"type":"VEC3"},{"bufferView":83,"componentType":5123,"count":891,"type":"SCALAR"},{"bufferView":84,"componentType":5122,"count":384,"max":[10124.0,10622.0,17188.0],"min":[-21663.0,-2198.0,-8423.0],"normalized":true,"type":"VEC3"},{"bufferView":85,"componentType":5120,"count":384,"normalized":true,"type":"VEC3"},{"bufferView":86,"componentType":5123,"count":384,"type":"SCALAR"},{"bufferView":87,"componentType":5122,"count":66,"max":[31366.0,218.0,16431.0],"min":[-32767.0,-5061.0,-32767.0],"normalized":true,"type":"VEC3"},{"bufferView":88,"componentType":5120,"count":66,"normalized":true,"type":"VEC3"},{"bufferView":89,"componentType":5123,"count":66,"type":"SCALAR"},{"bufferView":90,"componentType":5122,"count":258,"max":[32767.0,32767.0,32767.0],"min":[-31899.0,-4629.0,-31635.0],"normalized":true,"type":"VEC3"},{"bufferView":91,"componentType":5120,"count":258,"normalized":true,"type":"VEC3"},{"bufferView":92,"componentType":5123,"count":258,"type":"SCALAR"},{"bufferView":93,"componentType":5122,"count":108,"max":[24987.0,-8775.0,10083.0],"min":[-19679.0,-32767.0,-26951.0],"normalized":true,"type":"VEC3"},{"bufferView":94,"componentType":5120,"count":108,"normalized":true,"type":"VEC3"},{"bufferView":95,"componentType":5123,"count":108,"type":"SCALAR"},{"bufferView":96,"componentType":5122,"count":45,"max":[32767.0,32767.0,32767.0],"min":[-30097.0,-4629.0,-31635.0],"normalized":true,"type":"VEC3"},{"bufferView":97,"componentType":5120,"count":45,"normalized":true,"type":"VEC3"},{"bufferView":98,"componentType":5123,"count":45,"type":"SCALAR"},{"bufferView":99,"componentType":5122,"count":48,"max":[25643.0,218.0,10083.0],"min":[-32767.0,-32767.0,-32767.0],"normalized":true,"type":"VEC3"},{"bufferView":100,"componentType":5120,"count":48,"normalized":true,"type":"VEC3"},{"bufferView":101,"componentType":5123,"count":48,"type":"SCALAR"},{"bufferView":102,"componentType":5122,"count":672,"max":[4621.0,15641.0,20223.0],"min":[-19179.0,12527.0,-5396.0],"normalized":true,"type":"VEC3"},{"bufferView":103,"componentType":5120,"count":672,"normalized":true,"type":"VEC3"},{"bufferView":104,"componentType":5123,"count":924,"type":"SCALAR"},{"bufferView":105,"componentType":5122,"count":4800,"max":[6118.0,-1954.0,21530.0],"min":[-3952.0,-24135.0,8615.0],"normalized":true,"type":"VEC3"},{"bufferView":106,"componentType":5120,"count":4800,"normalized":true,"type":"VEC3"},{"bufferView":107,"componentType":5123,"count":6600,"type":"SCALAR"},{"bufferView":108,"componentType":5122,"count":1512,"max":[32767.0,-32410.0,27138.0],"min":[-28491.0,-32444.0,-32767.0],"normalized":true,"type":"VEC3"},{"bufferView":109,"componentType":5120,"count":1512,"normalized":true,"type":"VEC3"},{"bufferView":110,"componentType":5123,"count":2508,"type":"SCALAR"},{"bufferView":111,"componentType":5122,"count":3658,"max":[10758.0,32767.0,32767.0],"min":[-32767.0,-32767.0,-6518.0],"normalized":true,"type":"VEC3"},{"bufferView":112,"componentType":5120,"count":3658,"normalized":true,"type":"VEC3"},{"bufferView":113,"componentType":5123,"count":5472,"type":"SCALAR"},{"bufferView":114,"componentType":5122,"count":11520,"max":[4703.0,10757.0,20821.0],"min":[-16465.0,-26012.0,1749.0],"normalized":true,"type":"VEC3"},{"bufferView":115,"componentType":5120,"count":11520,"normalized":true,"type":"VEC3"},{"bufferView":116,"componentType":5123,"count":15840,"type":"SCALAR"},{"bufferView":117,"componentType":5122,"count":2940,"max":[6119.0,-1958.0,21514.0],"min":[-3941.0,-24141.0,8638.0],"normalized":true,"type":"VEC3"},{"bufferView":118,"componentType":5120,"count":2940,"normalized":true,"type":"VEC3"},{"bufferView":119,"componentType":5123,"count":2940,"type":"SCALAR"},{"bufferView":120,"componentType":5122,"count":1494,"max":[32767.0,15639.0,27134.0],"min":[-28494.0,-32451.0,-32767.0],"normalized":true,"type":"VEC3"},{"bufferView":121,"componentType":5120,"count":1494,"normalized":true,"type":"VEC3"},{"bufferView":122,"componentType":5123,"count":1494,"type":"SCALAR"},{"bufferView":123,"componentType":5122,"count":2472,"max":[10759.0,32767.0,32767.0],"min":[-32767.0,-32767.0,-6485.0],"normalized":true,"type":"VEC3"},{"bufferView":124,"componentType":5120,"count":2472,"normalized":true,"type":"VEC3"},{"bufferView":125,"componentType":5123,"count":2472,"type":"SCALAR"},{"bufferView":126,"componentType":5122,"count":7245,"max":[4695.0,10755.0,20815.0],"min":[-16467.0,-26011.0,1769.0],"normalized":true,"type":"VEC3"},{"bufferView":127,"componentType":5120,"count":7245,"normalized":true,"type":"VEC3"},{"bufferView":128,"componentType":5123,"count":7245,"type":"SCALAR"},{"bufferView":129,"componentType":5122,"count":927,"max":[5931.0,-1998.0,21513.0],"min":[-3163.0,-23541.0,8635.0],"normalized":true,"type":"VEC3"},{"bufferView":130,"componentType":5120,"count":927,"normalized":true,"type":"VEC3"},{"bufferView":131,"componentType":5123,"count":927,"type":"SCALAR"},{"bufferView":132,"componentType":5122,"count":1149,"max":[32767.0,32767.0,32767.0],"min":[-32767.0,-32767.0,-32767.0],"normalized":true,"type":"VEC3"},{"bufferView":133,"componentType":5120,"count":1149,"normalized":true,"type":"VEC3"},{"bufferView":134,"componentType":5123,"count":1149,"type":"SCALAR"},{"bufferView":135,"componentType":5122,"count":2247,"max":[4697.0,10741.0,20813.0],"min":[-16382.0,-26041.0,1851.0],"normalized":true,"type":"VEC3"},{"bufferView":136,"componentType":5120,"count":2247,"normalized":true,"type":"VEC3"},{"bufferView":137,"componentType":5123,"count":2247,"type":"SCALAR"},{"bufferView":138,"componentType":5122,"count":387,"max":[32767.0,32767.0,32767.0],"min":[-32767.0,-32767.0,-32767.0],"normalized":true,"type":"VEC3"},{"bufferView":139,"componentType":5120,"count":387,"normalized":true,"type":"VEC3"},{"bufferView":140,"componentType":5123,"count":387,"type":"SCALAR"},{"bufferView":141,"componentType":5122,"count":432,"max":[2314.0,10738.0,19479.0],"min":[-20473.0,-26041.0,1986.0],"normalized":true,"type":"VEC3"},{"bufferView":142,"componentType":5120,"count":432,"normalized":true,"type":"VEC3"},{"bufferView":143,"componentType":5123,"count":432,"type":"SCALAR"},{"bufferView":144,"componentType":5122,"count":672,"max":[32767.0,15538.0,32767.0],"min":[-24935.0,12406.0,-23786.0],"normalized":true,"type":"VEC3"},{"bufferView":145,"componentType":5120,"count":672,"normalized":true,"type":"VEC3"},{"bufferView":146,"componentType":5123,"count":924,"type":"SCALAR"},{"bufferView":147,"componentType":5122,"count":1284,"max":[32442.0,32767.0,32293.0],"min":[-32767.0,-32767.0,-32767.0],"normalized":true,"type":"VEC3"},{"bufferView":148,"componentType":5120,"count":1284,"normalized":true,"type":"VEC3"},{"bufferView":149,"componentType":5123,"count":1848,"type":"SCALAR"},{"bufferView":150,"componentType":5122,"count":192,"max":[24480.0,10625.0,5264.0],"min":[-12157.0,-476.0,-19411.0],"normalized":true,"type":"VEC3"},{"bufferView":151,"componentType":5120,"count":192,"normalized":true,"type":"VEC3"},{"bufferView":152,"componentType":5123,"count":264,"type":"SCALAR"},{"bufferView":153,"componentType":5122,"count":462,"max":[32767.0,15510.0,32767.0],"min":[-24854.0,12403.0,-23713.0],"normalized":true,"type":"VEC3"},{"bufferView":154,"componentType":5120,"count":462,"normalized":true,"type":"VEC3"},{"bufferView":155,"componentType":5123,"count":462,"type":"SCALAR"},{"bufferView":156,"componentType":5122,"count":846,"max":[32526.0,32767.0,32364.0],"min":[-32767.0,-32767.0,-32767.0],"normalized":true,"type":"VEC3"},{"bufferView":157,"componentType":5120,"count":846,"normalized":true,"type":"VEC3"},{"bufferView":158,"componentType":5123,"count":846,"type":"SCALAR"},{"bufferView":159,"componentType":5122,"count":132,"max":[24518.0,10622.0,5310.0],"min":[-12130.0,-480.0,-19365.0],"normalized":true,"type":"VEC3"},{"bufferView":160,"componentType":5120,"count":132,"normalized":true,"type":"VEC3"},{"bufferView":161,"componentType":5123,"count":132,"type":"SCALAR"},{"bufferView":162,"componentType":5122,"count":138,"max":[32767.0,-1474.0,32767.0],"min":[-32766.0,-7381.0,-32767.0],"normalized":true,"type":"VEC3"},{"bufferView":163,"componentType":5120,"count":138,"normalized":true,"type":"VEC3"},{"bufferView":164,"componentType":5123,"count":138,"type":"SCALAR"},{"bufferView":165,"componentType":5122,"count":264,"max":[32076.0,32767.0,32200.0],"min":[-32767.0,-6584.0,-32496.0],"normalized":true,"type":"VEC3"},{"bufferView":166,"componentType":5120,"count":264,"normalized":true,"type":"VEC3"},{"bufferView":167,"componentType":5123,"count":264,"type":"SCALAR"},{"bufferView":168,"componentType":5122,"count":36,"max":[23406.0,-10942.0,583.0],"min":[-18773.0,-32767.0,-28348.0],"normalized":true,"type":"VEC3"},{"bufferView":169,"componentType":5120,"count":36,"normalized":true,"type":"VEC3"},{"bufferView":170,"componentType":5123,"count":36,"type":"SCALAR"},{"bufferView":171,"componentType":5122,"count":45,"max":[30381.0,32767.0,30597.0],"min":[-32462.0,18226.0,-32346.0],"normalized":true,"type":"VEC3"},{"bufferView":172,"componentType":5120,"count":45,"normalized":true,"type":"VEC3"},{"bufferView":173,"componentType":5123,"count":45,"type":"SCALAR"},{"bufferView":174,"componentType":5122,"count":45,"max":[32767.0,25521.0,32767.0],"min":[-32767.0,-32767.0,-32767.0],"normalized":true,"type":"VEC3"},{"bufferView":175,"componentType":5120,"count":45,"normalized":true,"type":"VEC3"},{"bufferView":176,"componentType":5123,"count":45,"type":"SCALAR"},{"bufferView":177,"componentType":5122,"count":1244,"normalized":true,"type":"VEC2"},{"bufferView":178,"componentType":5122,"count":9600,"normalized":true,"type":"VEC2"},{"bufferView":179,"componentType":5122,"count":1568,"normalized":true,"type":"VEC2"},{"bufferView":180,"componentType":5122,"count":14198,"normalized":true,"type":"VEC2"},{"bufferView":181,"componentType":5122,"count":5422,"normalized":true,"type":"VEC2"},{"bufferView":182,"componentType":5122,"count":21696,"normalized":true,"type":"VEC2"},{"bufferView":183,"componentType":5122,"count":104,"normalized":true,"type":"VEC2"},{"bufferView":184,"componentType":5122,"count":858,"normalized":true,"type":"VEC2"},{"bufferView":185,"componentType":5122,"count":200,"normalized":true,"type":"VEC2"},{"bufferView":186,"componentType":5122,"count":4776,"normalized":true,"type":"VEC2"},{"bufferView":187,"componentType":5122,"count":816,"normalized":true,"type":"VEC2"},{"bufferView":188,"componentType":5122,"count":5640,"normalized":true,"type":"VEC2"},{"bufferView":189,"componentType":5122,"count":1128,"normalized":true,"type":"VEC2"},{"bufferView":190,"componentType":5122,"count":3639,"normalized":true,"type":"VEC2"},{"bufferView":191,"componentType":5122,"count":13389,"normalized":true,"type":"VEC2"},{"bufferView":192,"componentType":5122,"count":9105,"normalized":true,"type":"VEC2"},{"bufferView":193,"componentType":5122,"count":126,"normalized":true,"type":"VEC2"},{"bufferView":194,"componentType":5122,"count":3138,"normalized":true,"type":"VEC2"},{"bufferView":195,"componentType":5122,"count":237,"normalized":true,"type":"VEC2"},{"bufferView":196,"componentType":5122,"count":357,"normalized":true,"type":"VEC2"},{"bufferView":197,"componentType":5122,"count":10725,"normalized":true,"type":"VEC2"},{"bufferView":198,"componentType":5122,"count":48,"normalized":true,"type":"VEC2"},{"bufferView":199,"componentType":5122,"count":2034,"normalized":true,"type":"VEC2"},{"bufferView":200,"componentType":5122,"count":672,"normalized":true,"type":"VEC2"},{"bufferView":201,"componentType":5122,"count":1380,"normalized":true,"type":"VEC2"},{"bufferView":202,"componentType":5122,"count":576,"normalized":true,"type":"VEC2"},{"bufferView":203,"componentType":5122,"count":402,"normalized":true,"type":"VEC2"},{"bufferView":204,"componentType":5122,"count":891,"normalized":true,"type":"VEC2"},{"bufferView":205,"componentType":5122,"count":384,"normalized":true,"type":"VEC2"},{"bufferView":206,"componentType":5122,"count":66,"normalized":true,"type":"VEC2"},{"bufferView":207,"componentType":5122,"count":258,"normalized":true,"type":"VEC2"},{"bufferView":208,"componentType":5122,"count":108,"normalized":true,"type":"VEC2"},{"bufferView":209,"componentType":5122,"count":45,"normalized":true,"type":"VEC2"},{"bufferView":210,"componentType":5122,"count":48,"normalized":true,"type":"VEC2"},{"bufferView":211,"componentType":5122,"count":672,"normalized":true,"type":"VEC2"},{"bufferView":212,"componentType":5122,"count":4800,"normalized":true,"type":"VEC2"},{"bufferView":213,"componentType":5122,"count":1512,"normalized":true,"type":"VEC2"},{"bufferView":214,"componentType":5122,"count":3658,"normalized":true,"type":"VEC2"},{"bufferView":215,"componentType":5122,"count":11520,"normalized":true,"type":"VEC2"},{"bufferView":216,"componentType":5122,"count":2940,"normalized":true,"type":"VEC2"},{"bufferView":217,"componentType":5122,"count":1494,"normalized":true,"type":"VEC2"},{"bufferView":218,"componentType":5122,"count":2472,"normalized":true,"type":"VEC2"},{"bufferView":219,"componentType":5122,"count":7245,"normalized":true,"type":"VEC2"},{"bufferView":220,"componentType":5122,"count":927,"normalized":true,"type":"VEC2"},{"bufferView":221,"componentType":5122,"count":1149,"normalized":true,"type":"VEC2"},{"bufferView":222,"componentType":5122,"count":2247,"normalized":true,"type":"VEC2"},{"bufferView":223,"componentType":5122,"count":387,"normalized":true,"type":"VEC2"},{"bufferView":224,"componentType":5122,"count":432,"normalized":true,"type":"VEC2"},{"bufferView":225,"componentType":5122,"count":672,"normalized":true,"type":"VEC2"},{"bufferView":226,"componentType":5122,"count":1284,"normalized":true,"type":"VEC2"},{"bufferView":227,"componentType":5122,"count":192,"normalized":true,"type":"VEC2"},{"bufferView":228,"componentType":5122,"count":462,"normalized":true,"type":"VEC2"},{"bufferView":229,"componentType":5122,"count":846,"normalized":true,"type":"VEC2"},{"bufferView":230,"componentType":5122,"count":132,"normalized":true,"type":"VEC2"},{"bufferView":231,"componentType":5122,"count":138,"normalized":true,"type":"VEC2"},{"bufferView":232,"componentType":5122,"count":264,"normalized":true,"type":"VEC2"},{"bufferView":233,"componentType":5122,"count":36,"normalized":true,"type":"VEC2"},{"bufferView":234,"componentType":5122,"count":45,"normalized":true,"type":"VEC2"},{"bufferView":235,"componentType":5122,"count":45,"normalized":true,"type":"VEC2"}],"asset":{"generator":"evermore assetgen","version":"2.0"},"bufferViews":[{"buffer":0,"byteLength":9952,"byteOffset":0,"byteStride":8,"target":34962},{"buffer":0,"byteLength":4976,"byteOffset":9952,"byteStride":4,"target":34962},{"buffer":0,"byteLength":3696,"byteOffset":14928,"target":34963},{"buffer":0,"byteLength":76800,"byteOffset":18624,"byteStride":8,"target":34962},{"buffer":0,"byteLength":38400,"byteOffset":95424,"byteStride":4,"target":34962},{"buffer":0,"byteLength":26400,"byteOffset":133824,"target":34963},{"buffer":0,"byteLength":12544,"byteOffset":160224,"byteStride":8,"target":34962},{"buffer":0,"byteLength":6272,"byteOffset":172768,"byteStride":4,"target":34962},{"buffer":0,"byteLength":5208,"byteOffset":179040,"target":34963},{"buffer":0,"byteLength":113584,"byteOffset":184248,"byteStride":8,"target":34962},{"buffer":0,"byteLength":56792,"byteOffset":297832,"byteStride":4,"target":34962},{"buffer":0,"byteLength":39120,"byteOffset":354624,"target":34963},{"buffer":0,"byteLength":43376,"byteOffset":393744,"byteStride":8,"target":34962},{"buffer":0,"byteLength":21688,"byteOffset":437120,"byteStride":4,"target":34962},{"buffer":0,"byteLength":16272,"byteOffset":458808,"target":34963},{"buffer":0,"byteLength":173568,"byteOffset":475080,"byteStride":8,"target":34962},{"buffer":0,"byteLength":86784,"byteOffset":648648,"byteStride":4,"target":34962},{"buffer":0,"byteLength":59664,"byteOffset":735432,"target":34963},{"buffer":0,"byteLength":832,"byteOffset":795096,"byteStride":8,"target":34962},{"buffer":0,"byteLength":416,"byteOffset":795928,"byteStride":4,"target":34962},{"buffer":0,"byteLength":312,"byteOffset":796344,"target":34963},{"buffer":0,"byteLength":6864,"byteOffset":796656,"byteStride":8,"target":34962},{"buffer":0,"byteLength":3432,"byteOffset":803520,"byteStride":4,"target":34962},{"buffer":0,"byteLength":2640,"byteOffset":806952,"target":34963},{"buffer":0,"byteLength":1600,"byteOffset":809592,"byteStride":8,"target":34962},{"buffer":0,"byteLength":800,"byteOffset":811192,"byteStride":4,"target":34962},{"buffer":0,"byteLength":576,"byteOffset":811992,"target":34963},{"buffer":0,"byteLength":38208,"byteOffset":812568,"byteStride":8,"target":34962},{"buffer":0,"byteLength":19104,"byteOffset":850776,"byteStride":4,"target":34962},{"buffer":0,"byteLength":14328,"byteOffset":869880,"target":34963},{"buffer":0,"byteLength":6528,"byteOffset":884208,"byteStride":8,"target":34962},{"buffer":0,"byteLength":3264,"byteOffset":890736,"byteStride":4,"target":34962},{"buffer":0,"byteLength":1632,"byteOffset":894000,"target":34963},{"buffer":0,"byteLength":45120,"byteOffset":895632,"byteStride":8,"target":34962},{"buffer":0,"byteLength":22560,"byteOffset":940752,"byteStride":4,"target":34962},{"buffer":0,"byteLength":11280,"byteOffset":963312,"target":34963},{"buffer":0,"byteLength":9024,"byteOffset":974592,"byteStride":8,"target":34962},{"buffer":0,"byteLength":4512,"byteOffset":983616,"byteStride":4,"target":34962},{"buffer":0,"byteLength":2256,"byteOffset":988128,"target":34963},{"buffer":0,"byteLength":29112,"byteOffset":990384,"byteStride":8,"target":34962},{"buffer":0,"byteLength":14556,"byteOffset":1019496,"byteStride":4,"target":34962},{"buffer":0,"byteLength":7278,"byteOffset":1034052,"target":34963},{"buffer":0,"byteLength":107112,"byteOffset":1041332,"byteStride":8,"target":34962},{"buffer":0,"byteLength":53556,"byteOffset":1148444,"byteStride":4,"target":34962},{"buffer":0,"byteLength":26778,"byteOffset":1202000,"target":34963},{"buffer":0,"byteLength":72840,"byteOffset":1228780,"byteStride":8,"target":34962},{"buffer":0,"byteLength":36420,"byteOffset":1301620,"byteStride":4,"target":34962},{"buffer":0,"byteLength":18210,"byteOffset":1338040,"target":34963},{"buffer":0,"byteLength":1008,"byteOffset":1356252,"byteStride":8,"target":34962},{"buffer":0,"byteLength":504,"byteOffset":1357260,"byteStride":4,"target":34962},{"buffer":0,"byteLength":252,"byteOffset":1357764,"target":34963},{"buffer":0,"byteLength":25104,"byteOffset":1358016,"byteStride":8,"target":34962},{"buffer":0,"byteLength":12552,"byteOffset":1383120,"byteStride":4,"target":34962},{"buffer":0,"byteLength":6276,"byteOffset":1395672,"target":34963},{"buffer":0,"byteLength":1896,"byteOffset":1401948,"byteStride":8,"target":34962},{"buffer":0,"byteLength":948,"byteOffset":1403844,"byteStride":4,"target":34962},{"buffer":0,"byteLength":474,"byteOffset":1404792,"target":34963},{"buffer":0,"byteLength":2856,"byteOffset":1405268,"byteStride":8,"target":34962},{"buffer":0,"byteLength":1428,"byteOffset":1408124,"byteStride":4,"target":34962},{"buffer":0,"byteLength":714,"byteOffset":1409552,"target":34963},{"buffer":0,"byteLength":85800,"byteOffset":1410268,"byteStride":8,"target":34962},{"buffer":0,"byteLength":42900,"byteOffset":1496068,"byteStride":4,"target":34962},{"buffer":0,"byteLength":21450,"byteOffset":1538968,"target":34963},{"buffer":0,"byteLength":384,"byteOffset":1560420,"byteStride":8,"target":34962},{"buffer":0,"byteLength":192,"byteOffset":1560804,"byteStride":4,"target":34962},{"buffer":0,"byteLength":96,"byteOffset":1560996,"target":34963},{"buffer":0,"byteLength":16272,"byteOffset":1561092,"byteStride":8,"target":34962},{"buffer":0,"byteLength":8136,"byteOffset":1577364,"byteStride":4,"target":34962},{"buffer":0,"byteLength":4068,"byteOffset":1585500,"target":34963},{"buffer":0,"byteLength":5376,"byteOffset":1589568,"byteStride":8,"target":34962},{"buffer":0,"byteLength":2688,"byteOffset":1594944,"byteStride":4,"target":34962},{"buffer":0,"byteLength":1848,"byteOffset":1597632,"target":34963},{"buffer":0,"byteLength":11040,"byteOffset":1599480,"byteStride":8,"target":34962},{"buffer":0,"byteLength":5520,"byteOffset":1610520,"byteStride":4,"target":34962},{"buffer":0,"byteLength":3960,"byteOffset":1616040,"target":34963},{"buffer":0,"byteLength":4608,"byteOffset":1620000,"byteStride":8,"target":34962},{"buffer":0,"byteLength":2304,"byteOffset":1624608,"byteStride":4,"target":34962},{"buffer":0,"byteLength":1584,"byteOffset":1626912,"target":34963},{"buffer":0,"byteLength":3216,"byteOffset":1628496,"byteStride":8,"target":34962},{"buffer":0,"byteLength":1608,"byteOffset":1631712,"byteStride":4,"target":34962},{"buffer":0,"byteLength":804,"byteOffset":1633320,"target":34963},{"buffer":0,"byteLength":7128,"byteOffset":1634124,"byteStride":8,"target":34962},{"buffer":0,"byteLength":3564,"byteOffset":1641252,"byteStride":4,"target":34962},{"buffer":0,"byteLength":1782,"byteOffset":1644816,"target":34963},{"buffer":0,"byteLength":3072,"byteOffset":1646600,"byteStride":8,"target":34962},{"buffer":0,"byteLength":1536,"byteOffset":1649672,"byteStride":4,"target":34962},{"buffer":0,"byteLength":768,"byteOffset":1651208,"target":34963},{"buffer":0,"byteLength":528,"byteOffset":1651976,"byteStride":8,"target":34962},{"buffer":0,"byteLength":264,"byteOffset":1652504,"byteStride":4,"target":34962},{"buffer":0,"byteLength":132,"byteOffset":1652768,"target":34963},{"buffer":0,"byteLength":2064,"byteOffset":1652900,"byteStride":8,"target":34962},{"buffer":0,"byteLength":1032,"byteOffset":1654964,"byteStride":4,"target":34962},{"buffer":0,"byteLength":516,"byteOffset":1655996,"target":34963},{"buffer":0,"byteLength":864,"byteOffset":1656512,"byteStride":8,"target":34962},{"buffer":0,"byteLength":432,"byteOffset":1657376,"byteStride":4,"target":34962},{"buffer":0,"byteLength":216,"byteOffset":1657808,"target":34963},{"buffer":0,"byteLength":360,"byteOffset":1658024,"byteStride":8,"target":34962},{"buffer":0,"byteLength":180,"byteOffset":1658384,"byteStride":4,"target":34962},{"buffer":0,"byteLength":90,"byteOffset":1658564,"target":34963},{"buffer":0,"byteLength":384,"byteOffset":1658656,"byteStride":8,"target":34962},{"buffer":0,"byteLength":192,"byteOffset":1659040,"byteStride":4,"target":34962},{"buffer":0,"byteLength":96,"byteOffset":1659232,"target":34963},{"buffer":0,"byteLength":5376,"byteOffset":1659328,"byteStride":8,"target":34962},{"buffer":0,"byteLength":2688,"byteOffset":1664704,"byteStride":4,"target":34962},{"buffer":0,"byteLength":1848,"byteOffset":1667392,"target":34963},{"buffer":0,"byteLength":38400,"byteOffset":1669240,"byteStride":8,"target":34962},{"buffer":0,"byteLength":19200,"byteOffset":1707640,"byteStride":4,"target":34962},{"buffer":0,"byteLength":13200,"byteOffset":1726840,"target":34963},{"buffer":0,"byteLength":12096,"byteOffset":1740040,"byteStride":8,"target":34962},{"buffer":0,"byteLength":6048,"byteOffset":1752136,"byteStride":4,"target":34962},{"buffer":0,"byteLength":5016,"byteOffset":1758184,"target":34963},{"buffer":0,"byteLength":29264,"byteOffset":1763200,"byteStride":8,"target":34962},{"buffer":0,"byteLength":14632,"byteOffset":1792464,"byteStride":4,"target":34962},{"buffer":0,"byteLength":10944,"byteOffset":1807096,"target":34963},{"buffer":0,"byteLength":92160,"byteOffset":1818040,"byteStride":8,"target":34962},{"buffer":0,"byteLength":46080,"byteOffset":1910200,"byteStride":4,"target":34962},{"buffer":0,"byteLength":31680,"byteOffset":1956280,"target":34963},{"buffer":0,"byteLength":23520,"byteOffset":1987960,"byteStride":8,"target":34962},{"buffer":0,"byteLength":11760,"byteOffset":2011480,"byteStride":4,"target":34962},{"buffer":0,"byteLength":5880,"byteOffset":2023240,"target":34963},{"buffer":0,"byteLength":11952,"byteOffset":2029120,"byteStride":8,"target":34962},{"buffer":0,"byteLength":5976,"byteOffset":2041072,"byteStride":4,"target":34962},{"buffer":0,"byteLength":2988,"byteOffset":2047048,"target":34963},{"buffer":0,"byteLength":19776,"byteOffset":2050036,"byteStride":8,"target":34962},{"buffer":0,"byteLength":9888,"byteOffset":2069812,"byteStride":4,"target":34962},{"buffer":0,"byteLength":4944,"byteOffset":2079700,"target":34963},{"buffer":0,"byteLength":57960,"byteOffset":2084644,"byteStride":8,"target":34962},{"buffer":0,"byteLength":28980,"byteOffset":2142604,"byteStride":4,"target":34962},{"buffer":0,"byteLength":14490,"byteOffset":2171584,"target":34963},{"buffer":0,"byteLength":7416,"byteOffset":2186076,"byteStride":8,"target":34962},{"buffer":0,"byteLength":3708,"byteOffset":2193492,"byteStride":4,"target":34962},{"buffer":0,"byteLength":1854,"byteOffset":2197200,"target":34963},{"buffer":0,"byteLength":9192,"byteOffset":2199056,"byteStride":8,"target":34962},{"buffer":0,"byteLength":4596,"byteOffset":2208248,"byteStride":4,"target":34962},{"buffer":0,"byteLength":2298,"byteOffset":2212844,"target":34963},{"buffer":0,"byteLength":17976,"byteOffset":2215144,"byteStride":8,"target":34962},{"buffer":0,"byteLength":8988,"byteOffset":2233120,"byteStride":4,"target":34962},{"buffer":0,"byteLength":4494,"byteOffset":2242108,"target":34963},{"buffer":0,"byteLength":3096,"byteOffset":2246604,"byteStride":8,"target":34962},{"buffer":0,"byteLength":1548,"byteOffset":2249700,"byteStride":4,"target":34962},{"buffer":0,"byteLength":774,"byteOffset":2251248,"target":34963},{"buffer":0,"byteLength":3456,"byteOffset":2252024,"byteStride":8,"target":34962},{"buffer":0,"byteLength":1728,"byteOffset":2255480,"byteStride":4,"target":34962},{"buffer":0,"byteLength":864,"byteOffset":2257208,"target":34963},{"buffer":0,"byteLength":5376,"byteOffset":2258072,"byteStride":8,"target":34962},{"buffer":0,"byteLength":2688,"byteOffset":2263448,"byteStride":4,"target":34962},{"buffer":0,"byteLength":1848,"byteOffset":2266136,"target":34963},{"buffer":0,"byteLength":10272,"byteOffset":2267984,"byteStride":8,"target":34962},{"buffer":0,"byteLength":5136,"byteOffset":2278256,"byteStride":4,"target":34962},{"buffer":0,"byteLength":3696,"byteOffset":2283392,"target":34963},{"buffer":0,"byteLength":1536,"byteOffset":2287088,"byteStride":8,"target":34962},{"buffer":0,"byteLength":768,"byteOffset":2288624,"byteStride":4,"target":34962},{"buffer":0,"byteLength":528,"byteOffset":2289392,"target":34963},{"buffer":0,"byteLength":3696,"byteOffset":2289920,"byteStride":8,"target":34962},{"buffer":0,"byteLength":1848,"byteOffset":2293616,"byteStride":4,"target":34962},{"buffer":0,"byteLength":924,"byteOffset":2295464,"target":34963},{"buffer":0,"byteLength":6768,"byteOffset":2296388,"byteStride":8,"target":34962},{"buffer":0,"byteLength":3384,"byteOffset":2303156,"byteStride":4,"target":34962},{"buffer":0,"byteLength":1692,"byteOffset":2306540,"target":34963},{"buffer":0,"byteLength":1056,"byteOffset":2308232,"byteStride":8,"target":34962},{"buffer":0,"byteLength":528,"byteOffset":2309288,"byteStride":4,"target":34962},{"buffer":0,"byteLength":264,"byteOffset":2309816,"target":34963},{"buffer":0,"byteLength":1104,"byteOffset":2310080,"byteStride":8,"target":34962},{"buffer":0,"byteLength":552,"byteOffset":2311184,"byteStride":4,"target":34962},{"buffer":0,"byteLength":276,"byteOffset":2311736,"target":34963},{"buffer":0,"byteLength":2112,"byteOffset":2312012,"byteStride":8,"target":34962},{"buffer":0,"byteLength":1056,"byteOffset":2314124,"byteStride":4,"target":34962},{"buffer":0,"byteLength":528,"byteOffset":2315180,"target":34963},{"buffer":0,"byteLength":288,"byteOffset":2315708,"byteStride":8,"target":34962},{"buffer":0,"byteLength":144,"byteOffset":2315996,"byteStride":4,"target":34962},{"buffer":0,"byteLength":72,"byteOffset":2316140,"target":34963},{"buffer":0,"byteLength":360,"byteOffset":2316212,"byteStride":8,"target":34962},{"buffer":0,"byteLength":180,"byteOffset":2316572,"byteStride":4,"target":34962},{"buffer":0,"byteLength":90,"byteOffset":2316752,"target":34963},{"buffer":0,"byteLength":360,"byteOffset":2316844,"byteStride":8,"target":34962},{"buffer":0,"byteLength":180,"byteOffset":2317204,"byteStride":4,"target":34962},{"buffer":0,"byteLength":90,"byteOffset":2317384,"target":34963},{"buffer":0,"byteLength":4976,"byteOffset":2317476,"byteStride":4,"target":34962},{"buffer":0,"byteLength":38400,"byteOffset":2322452,"byteStride":4,"target":34962},{"buffer":0,"byteLength":6272,"byteOffset":2360852,"byteStride":4,"target":34962},{"buffer":0,"byteLength":56792,"byteOffset":2367124,"byteStride":4,"target":34962},{"buffer":0,"byteLength":21688,"byteOffset":2423916,"byteStride":4,"target":34962},{"buffer":0,"byteLength":86784,"byteOffset":2445604,"byteStride":4,"target":34962},{"buffer":0,"byteLength":416,"byteOffset":2532388,"byteStride":4,"target":34962},{"buffer":0,"byteLength":3432,"byteOffset":2532804,"byteStride":4,"target":34962},{"buffer":0,"byteLength":800,"byteOffset":2536236,"byteStride":4,"target":34962},{"buffer":0,"byteLength":19104,"byteOffset":2537036,"byteStride":4,"target":34962},{"buffer":0,"byteLength":3264,"byteOffset":2556140,"byteStride":4,"target":34962},{"buffer":0,"byteLength":22560,"byteOffset":2559404,"byteStride":4,"target":34962},{"buffer":0,"byteLength":4512,"byteOffset":2581964,"byteStride":4,"target":34962},{"buffer":0,"byteLength":14556,"byteOffset":2586476,"byteStride":4,"target":34962},{"buffer":0,"byteLength":53556,"byteOffset":2601032,"byteStride":4,"target":34962},{"buffer":0,"byteLength":36420,"byteOffset":2654588,"byteStride":4,"target":34962},{"buffer":0,"byteLength":504,"byteOffset":2691008,"byteStride":4,"target":34962},{"buffer":0,"byteLength":12552,"byteOffset":2691512,"byteStride":4,"target":34962},{"buffer":0,"byteLength":948,"byteOffset":2704064,"byteStride":4,"target":34962},{"buffer":0,"byteLength":1428,"byteOffset":2705012,"byteStride":4,"target":34962},{"buffer":0,"byteLength":42900,"byteOffset":2706440,"byteStride":4,"target":34962},{"buffer":0,"byteLength":192,"byteOffset":2749340,"byteStride":4,"target":34962},{"buffer":0,"byteLength":8136,"byteOffset":2749532,"byteStride":4,"target":34962},{"buffer":0,"byteLength":2688,"byteOffset":2757668,"byteStride":4,"target":34962},{"buffer":0,"byteLength":5520,"byteOffset":2760356,"byteStride":4,"target":34962},{"buffer":0,"byteLength":2304,"byteOffset":2765876,"byteStride":4,"target":34962},{"buffer":0,"byteLength":1608,"byteOffset":2768180,"byteStride":4,"target":34962},{"buffer":0,"byteLength":3564,"byteOffset":2769788,"byteStride":4,"target":34962},{"buffer":0,"byteLength":1536,"byteOffset":2773352,"byteStride":4,"target":34962},{"buffer":0,"byteLength":264,"byteOffset":2774888,"byteStride":4,"target":34962},{"buffer":0,"byteLength":1032,"byteOffset":2775152,"byteStride":4,"target":34962},{"buffer":0,"byteLength":432,"byteOffset":2776184,"byteStride":4,"target":34962},{"buffer":0,"byteLength":180,"byteOffset":2776616,"byteStride":4,"target":34962},{"buffer":0,"byteLength":192,"byteOffset":2776796,"byteStride":4,"target":34962},{"buffer":0,"byteLength":2688,"byteOffset":2776988,"byteStride":4,"target":34962},{"buffer":0,"byteLength":19200,"byteOffset":2779676,"byteStride":4,"target":34962},{"buffer":0,"byteLength":6048,"byteOffset":2798876,"byteStride":4,"target":34962},{"buffer":0,"byteLength":14632,"byteOffset":2804924,"byteStride":4,"target":34962},{"buffer":0,"byteLength":46080,"byteOffset":2819556,"byteStride":4,"target":34962},{"buffer":0,"byteLength":11760,"byteOffset":2865636,"byteStride":4,"target":34962},{"buffer":0,"byteLength":5976,"byteOffset":2877396,"byteStride":4,"target":34962},{"buffer":0,"byteLength":9888,"byteOffset":2883372,"byteStride":4,"target":34962},{"buffer":0,"byteLength":28980,"byteOffset":2893260,"byteStride":4,"target":34962},{"buffer":0,"byteLength":3708,"byteOffset":2922240,"byteStride":4,"target":34962},{"buffer":0,"byteLength":4596,"byteOffset":2925948,"byteStride":4,"target":34962},{"buffer":0,"byteLength":8988,"byteOffset":2930544,"byteStride":4,"target":34962},{"buffer":0,"byteLength":1548,"byteOffset":2939532,"byteStride":4,"target":34962},{"buffer":0,"byteLength":1728,"byteOffset":2941080,"byteStride":4,"target":34962},{"buffer":0,"byteLength":2688,"byteOffset":2942808,"byteStride":4,"target":34962},{"buffer":0,"byteLength":5136,"byteOffset":2945496,"byteStride":4,"target":34962},{"buffer":0,"byteLength":768,"byteOffset":2950632,"byteStride":4,"target":34962},{"buffer":0,"byteLength":1848,"byteOffset":2951400,"byteStride":4,"target":34962},{"buffer":0,"byteLength":3384,"byteOffset":2953248,"byteStride":4,"target":34962},{"buffer":0,"byteLength":528,"byteOffset":2956632,"byteStride":4,"target":34962},{"buffer":0,"byteLength":552,"byteOffset":2957160,"byteStride":4,"target":34962},{"buffer":0,"byteLength":1056,"byteOffset":2957712,"byteStride":4,"target":34962},{"buffer":0,"byteLength":144,"byteOffset":2958768,"byteStride":4,"target":34962},{"buffer":0,"byteLength":180,"byteOffset":2958912,"byteStride":4,"target":34962},{"buffer":0,"byteLength":180,"byteOffset":2959092,"byteStride":4,"target":34962}],"buffers":[{"byteLength":2959272,"uri":"dovecote.bin"}],"extensionsRequired":["KHR_mesh_quantization","KHR_texture_transform"],"extensionsUsed":["KHR_mesh_quantization","KHR_texture_transform","MSFT_lod"],"extras":{"hm":{"batching":true,"cellSize":16.0,"cells":[{"cullAt":null,"interior":null,"key":"0_0","lodPrims":[10,8,3,2],"lodTris":[28036,12327,3773,694],"max":[3.492,8.51,5.874],"min":[-3.012,0.0,-3.601]},{"cullAt":null,"interior":null,"key":"0_n1","lodPrims":[3,3,3,2],"lodTris":[1232,559,144,31],"max":[3.537,7.67,0.038],"min":[0.09,0.034,-3.874]},{"cullAt":null,"interior":null,"key":"n1_0","lodPrims":[5,4,3,2],"lodTris":[10448,4717,1441,273],"max":[2.743,7.67,3.926],"min":[-4.082,-0.012,-2.686]},{"cullAt":null,"interior":null,"key":"n1_n1","lodPrims":[3,3,3,2],"lodTris":[1012,480,146,30],"max":[-0.076,7.67,-0.188],"min":[-3.011,0.034,-3.061]}],"instanced":[],"instancing":true,"interiors":[],"lod":true,"lodDistances":[15.0,40.0,100.0],"stats":{"groups":4,"lodPrims":[21,18,12,8],"lodTris":[40728,18083,5504,1028]},"venue":"dovecote"}},"images":[{"uri":"../textures/grass_worn_albedo.png"},{"uri":"../textures/grass_worn_orm.png"},{"uri":"../textures/grass_worn_normal.png"},{"uri":"../textures/dirt_albedo.png"},{"uri":"../textures/dirt_orm.png"},{"uri":"../textures/dirt_normal.png"},{"uri":"../textures/rubble_albedo.png"},{"uri":"../textures/rubble_orm.png"},{"uri":"../textures/rubble_normal.png"},{"uri":"../textures/stone_albedo.png"},{"uri":"../textures/stone_orm.png"},{"uri":"../textures/stone_normal.png"},{"uri":"../textures/ashlar_albedo.png"},{"uri":"../textures/ashlar_orm.png"},{"uri":"../textures/ashlar_normal.png"},{"uri":"../textures/kit_albedo.png"},{"uri":"../textures/kit_orm.png"},{"uri":"../textures/kit_normal.png"},{"uri":"../textures/limewash_albedo.png"},{"uri":"../textures/limewash_orm.png"},{"uri":"../textures/limewash_normal.png"},{"uri":"../textures/cinder_albedo.png"},{"uri":"../textures/cinder_orm.png"},{"uri":"../textures/cinder_normal.png"},{"uri":"../textures/terracotta_albedo.png"},{"uri":"../textures/terracotta_orm.png"},{"uri":"../textures/terracotta_normal.png"},{"uri":"../textures/oak_dark_albedo.png"},{"uri":"../textures/oak_dark_orm.png"},{"uri":"../textures/oak_dark_normal.png"},{"uri":"../textures/flour_albedo.png"},{"uri":"../textures/flour_orm.png"},{"uri":"../textures/flour_normal.png"}],"materials":[{"doubleSided":false,"name":"grass_worn","normalTexture":{"extensions":{"KHR_texture_transform":{"scale":[15.77755982943821,15.77755982943821]}},"index":2,"scale":1.0},"occlusionTexture":{"extensions":{"KHR_texture_transform":{"scale":[15.77755982943821,15.77755982943821]}},"index":1},"pbrMetallicRoughness":{"baseColorFactor":[1,1,1,1],"baseColorTexture":{"extensions":{"KHR_texture_transform":{"scale":[15.77755982943821,15.77755982943821]}},"index":0},"metallicFactor":1.0,"metallicRoughnessTexture":{"extensions":{"KHR_texture_transform":{"scale":[15.77755982943821,15.77755982943821]}},"index":1},"roughnessFactor":1.0}},{"doubleSided":false,"name":"dirt","normalTexture":{"extensions":{"KHR_texture_transform":{"scale":[15.77755982943821,15.77755982943821]}},"index":5,"scale":1.0},"occlusionTexture":{"extensions":{"KHR_texture_transform":{"scale":[15.77755982943821,15.77755982943821]}},"index":4},"pbrMetallicRoughness":{"baseColorFactor":[1,1,1,1],"baseColorTexture":{"extensions":{"KHR_texture_transform":{"scale":[15.77755982943821,15.77755982943821]}},"index":3},"metallicFactor":1.0,"metallicRoughnessTexture":{"extensions":{"KHR_texture_transform":{"scale":[15.77755982943821,15.77755982943821]}},"index":4},"roughnessFactor":1.0}},{"doubleSided":false,"name":"rubble","normalTexture":{"extensions":{"KHR_texture_transform":{"scale":[15.77755982943821,15.77755982943821]}},"index":8,"scale":1.0},"occlusionTexture":{"extensions":{"KHR_texture_transform":{"scale":[15.77755982943821,15.77755982943821]}},"index":7},"pbrMetallicRoughness":{"baseColorFactor":[1,1,1,1],"baseColorTexture":{"extensions":{"KHR_texture_transform":{"scale":[15.77755982943821,15.77755982943821]}},"index":6},"metallicFactor":1.0,"metallicRoughnessTexture":{"extensions":{"KHR_texture_transform":{"scale":[15.77755982943821,15.77755982943821]}},"index":7},"roughnessFactor":1.0}},{"doubleSided":false,"name":"stone","normalTexture":{"extensions":{"KHR_texture_transform":{"scale":[15.77755982943821,15.77755982943821]}},"index":11,"scale":1.0},"occlusionTexture":{"extensions":{"KHR_texture_transform":{"scale":[15.77755982943821,15.77755982943821]}},"index":10},"pbrMetallicRoughness":{"baseColorFactor":[1,1,1,1],"baseColorTexture":{"extensions":{"KHR_texture_transform":{"scale":[15.77755982943821,15.77755982943821]}},"index":9},"metallicFactor":1.0,"metallicRoughnessTexture":{"extensions":{"KHR_texture_transform":{"scale":[15.77755982943821,15.77755982943821]}},"index":10},"roughnessFactor":1.0}},{"doubleSided":false,"name":"ashlar","normalTexture":{"extensions":{"KHR_texture_transform":{"scale":[15.77755982943821,15.77755982943821]}},"index":14,"scale":1.0},"occlusionTexture":{"extensions":{"KHR_texture_transform":{"scale":[15.77755982943821,15.77755982943821]}},"index":13},"pbrMetallicRoughness":{"baseColorFactor":[1,1,1,1],"baseColorTexture":{"extensions":{"KHR_texture_transform":{"scale":[15.77755982943821,15.77755982943821]}},"index":12},"metallicFactor":1.0,"metallicRoughnessTexture":{"extensions":{"KHR_texture_transform":{"scale":[15.77755982943821,15.77755982943821]}},"index":13},"roughnessFactor":1.0}},{"doubleSided":true,"name":"kit","normalTexture":{"extensions":{"KHR_texture_transform":{"scale":[15.77755982943821,15.77755982943821]}},"index":17,"scale":1.0},"occlusionTexture":{"extensions":{"KHR_texture_transform":{"scale":[15.77755982943821,15.77755982943821]}},"index":16},"pbrMetallicRoughness":{"baseColorFactor":[1,1,1,1],"baseColorTexture":{"extensions":{"KHR_texture_transform":{"scale":[15.77755982943821,15.77755982943821]}},"index":15},"metallicFactor":1.0,"metallicRoughnessTexture":{"extensions":{"KHR_texture_transform":{"scale":[15.77755982943821,15.77755982943821]}},"index":16},"roughnessFactor":1.0}},{"doubleSided":false,"name":"limewash","normalTexture":{"extensions":{"KHR_texture_transform":{"scale":[15.77755982943821,15.77755982943821]}},"index":20,"scale":1.0},"occlusionTexture":{"extensions":{"KHR_texture_transform":{"scale":[15.77755982943821,15.77755982943821]}},"index":19},"pbrMetallicRoughness":{"baseColorFactor":[1,1,1,1],"baseColorTexture":{"extensions":{"KHR_texture_transform":{"scale":[15.77755982943821,15.77755982943821]}},"index":18},"metallicFactor":1.0,"metallicRoughnessTexture":{"extensions":{"KHR_texture_transform":{"scale":[15.77755982943821,15.77755982943821]}},"index":19},"roughnessFactor":1.0}},{"doubleSided":false,"name":"cinder","normalTexture":{"extensions":{"KHR_texture_transform":{"scale":[15.77755982943821,15.77755982943821]}},"index":23,"scale":1.0},"occlusionTexture":{"extensions":{"KHR_texture_transform":{"scale":[15.77755982943821,15.77755982943821]}},"index":22},"pbrMetallicRoughness":{"baseColorFactor":[1,1,1,1],"baseColorTexture":{"extensions":{"KHR_texture_transform":{"scale":[15.77755982943821,15.77755982943821]}},"index":21},"metallicFactor":1.0,"metallicRoughnessTexture":{"extensions":{"KHR_texture_transform":{"scale":[15.77755982943821,15.77755982943821]}},"index":22},"roughnessFactor":1.0}},{"doubleSided":false,"name":"terracotta","normalTexture":{"extensions":{"KHR_texture_transform":{"scale":[15.77755982943821,15.77755982943821]}},"index":26,"scale":1.0},"occlusionTexture":{"extensions":{"KHR_texture_transform":{"scale":[15.77755982943821,15.77755982943821]}},"index":25},"pbrMetallicRoughness":{"baseColorFactor":[1,1,1,1],"baseColorTexture":{"extensions":{"KHR_texture_transform":{"scale":[15.77755982943821,15.77755982943821]}},"index":24},"metallicFactor":1.0,"metallicRoughnessTexture":{"extensions":{"KHR_texture_transform":{"scale":[15.77755982943821,15.77755982943821]}},"index":25},"roughnessFactor":1.0}},{"doubleSided":false,"name":"oak_dark","normalTexture":{"extensions":{"KHR_texture_transform":{"scale":[15.77755982943821,15.77755982943821]}},"index":29,"scale":1.0},"occlusionTexture":{"extensions":{"KHR_texture_transform":{"scale":[15.77755982943821,15.77755982943821]}},"index":28},"pbrMetallicRoughness":{"baseColorFactor":[1,1,1,1],"baseColorTexture":{"extensions":{"KHR_texture_transform":{"scale":[15.77755982943821,15.77755982943821]}},"index":27},"metallicFactor":1.0,"metallicRoughnessTexture":{"extensions":{"KHR_texture_transform":{"scale":[15.77755982943821,15.77755982943821]}},"index":28},"roughnessFactor":1.0}},{"doubleSided":false,"name":"flour","normalTexture":{"extensions":{"KHR_texture_transform":{"scale":[15.77755982943821,15.77755982943821]}},"index":32,"scale":1.0},"occlusionTexture":{"extensions":{"KHR_texture_transform":{"scale":[15.77755982943821,15.77755982943821]}},"index":31},"pbrMetallicRoughness":{"baseColorFactor":[1,1,1,1],"baseColorTexture":{"extensions":{"KHR_texture_transform":{"scale":[15.77755982943821,15.77755982943821]}},"index":30},"metallicFactor":1.0,"metallicRoughnessTexture":{"extensions":{"KHR_texture_transform":{"scale":[15.77755982943821,15.77755982943821]}},"index":31},"roughnessFactor":1.0}}],"meshes":[{"name":"dovecote#0_0","primitives":[{"attributes":{"NORMAL":1,"POSITION":0,"TEXCOORD_0":177},"indices":2,"material":4},{"attributes":{"NORMAL":4,"POSITION":3,"TEXCOORD_0":178},"indices":5,"material":7},{"attributes":{"NORMAL":7,"POSITION":6,"TEXCOORD_0":179},"indices":8,"material":1},{"attributes":{"NORMAL":10,"POSITION":9,"TEXCOORD_0":180},"indices":11,"material":10},{"attributes":{"NORMAL":13,"POSITION":12,"TEXCOORD_0":181},"indices":14,"material":5},{"attributes":{"NORMAL":16,"POSITION":15,"TEXCOORD_0":182},"indices":17,"material":6},{"attributes":{"NORMAL":19,"POSITION":18,"TEXCOORD_0":183},"indices":20,"material":9},{"attributes":{"NORMAL":22,"POSITION":21,"TEXCOORD_0":184},"indices":23,"material":2},{"attributes":{"NORMAL":25,"POSITION":24,"TEXCOORD_0":185},"indices":26,"material":3},{"attributes":{"NORMAL":28,"POSITION":27,"TEXCOORD_0":186},"indices":29,"material":8}]},{"name":"dovecote#0_0$lod1","primitives":[{"attributes":{"NORMAL":31,"POSITION":30,"TEXCOORD_0":187},"indices":32,"material":4},{"attributes":{"NORMAL":34,"POSITION":33,"TEXCOORD_0":188},"indices":35,"material":7},{"attributes":{"NORMAL":37,"POSITION":36,"TEXCOORD_0":189},"indices":38,"material":1},{"attributes":{"NORMAL":40,"POSITION":39,"TEXCOORD_0":190},"indices":41,"material":5},{"attributes":{"NORMAL":43,"POSITION":42,"TEXCOORD_0":191},"indices":44,"material":6},{"attributes":{"NORMAL":46,"POSITION":45,"TEXCOORD_0":192},"indices":47,"material":2},{"attributes":{"NORMAL":49,"POSITION":48,"TEXCOORD_0":193},"indices":50,"material":3},{"attributes":{"NORMAL":52,"POSITION":51,"TEXCOORD_0":194},"indices":53,"material":8}]},{"name":"dovecote#0_0$lod2","primitives":[{"attributes":{"NORMAL":55,"POSITION":54,"TEXCOORD_0":195},"indices":56,"material":4},{"attributes":{"NORMAL":58,"POSITION":57,"TEXCOORD_0":196},"indices":59,"material":1},{"attributes":{"NORMAL":61,"POSITION":60,"TEXCOORD_0":197},"indices":62,"material":2}]},{"name":"dovecote#0_0$lod3","primitives":[{"attributes":{"NORMAL":64,"POSITION":63,"TEXCOORD_0":198},"indices":65,"material":4},{"attributes":{"NORMAL":67,"POSITION":66,"TEXCOORD_0":199},"indices":68,"material":2}]},{"name":"dovecote#0_n1","primitives":[{"attributes":{"NORMAL":70,"POSITION":69,"TEXCOORD_0":200},"indices":71,"material":4},{"attributes":{"NORMAL":73,"POSITION":72,"TEXCOORD_0":201},"indices":74,"material":5},{"attributes":{"NORMAL":76,"POSITION":75,"TEXCOORD_0":202},"indices":77,"material":6}]},{"name":"dovecote#0_n1$lod1","primitives":[{"attributes":{"NORMAL":79,"POSITION":78,"TEXCOORD_0":203},"indices":80,"material":4},{"attributes":{"NORMAL":82,"POSITION":81,"TEXCOORD_0":204},"indices":83,"material":5},{"attributes":{"NORMAL":85,"POSITION":84,"TEXCOORD_0":205},"indices":86,"material":6}]},{"name":"dovecote#0_n1$lod2","primitives":[{"attributes":{"NORMAL":88,"POSITION":87,"TEXCOORD_0":206},"indices":89,"material":4},{"attributes":{"NORMAL":91,"POSITION":90,"TEXCOORD_0":207},"indices":92,"material":5},{"attributes":{"NORMAL":94,"POSITION":93,"TEXCOORD_0":208},"indices":95,"material":6}]},{"name":"dovecote#0_n1$lod3","primitives":[{"attributes":{"NORMAL":97,"POSITION":96,"TEXCOORD_0":209},"indices":98,"material":5},{"attributes":{"NORMAL":100,"POSITION":99,"TEXCOORD_0":210},"indices":101,"material":6}]},{"name":"dovecote#n1_0","primitives":[{"attributes":{"NORMAL":103,"POSITION":102,"TEXCOORD_0":211},"indices":104,"material":4},{"attributes":{"NORMAL":106,"POSITION":105,"TEXCOORD_0":212},"indices":107,"material":7},{"attributes":{"NORMAL":109,"POSITION":108,"TEXCOORD_0":213},"indices":110,"material":0},{"attributes":{"NORMAL":112,"POSITION":111,"TEXCOORD_0":214},"indices":113,"material":5},{"attributes":{"NORMAL":115,"POSITION":114,"TEXCOORD_0":215},"indices":116,"material":6}]},{"name":"dovecote#n1_0$lod1","primitives":[{"attributes":{"NORMAL":118,"POSITION":117,"TEXCOORD_0":216},"indices":119,"material":7},{"attributes":{"NORMAL":121,"POSITION":120,"TEXCOORD_0":217},"indices":122,"material":0},{"attributes":{"NORMAL":124,"POSITION":123,"TEXCOORD_0":218},"indices":125,"material":5},{"attributes":{"NORMAL":127,"POSITION":126,"TEXCOORD_0":219},"indices":128,"material":6}]},{"name":"dovecote#n1_0$lod2","primitives":[{"attributes":{"NORMAL":130,"POSITION":129,"TEXCOORD_0":220},"indices":131,"material":7},{"attributes":{"NORMAL":133,"POSITION":132,"TEXCOORD_0":221},"indices":134,"material":0},{"attributes":{"NORMAL":136,"POSITION":135,"TEXCOORD_0":222},"indices":137,"material":6}]},{"name":"dovecote#n1_0$lod3","primitives":[{"attributes":{"NORMAL":139,"POSITION":138,"TEXCOORD_0":223},"indices":140,"material":0},{"attributes":{"NORMAL":142,"POSITION":141,"TEXCOORD_0":224},"indices":143,"material":6}]},{"name":"dovecote#n1_n1","primitives":[{"attributes":{"NORMAL":145,"POSITION":144,"TEXCOORD_0":225},"indices":146,"material":4},{"attributes":{"NORMAL":148,"POSITION":147,"TEXCOORD_0":226},"indices":149,"material":5},{"attributes":{"NORMAL":151,"POSITION":150,"TEXCOORD_0":227},"indices":152,"material":6}]},{"name":"dovecote#n1_n1$lod1","primitives":[{"attributes":{"NORMAL":154,"POSITION":153,"TEXCOORD_0":228},"indices":155,"material":4},{"attributes":{"NORMAL":157,"POSITION":156,"TEXCOORD_0":229},"indices":158,"material":5},{"attributes":{"NORMAL":160,"POSITION":159,"TEXCOORD_0":230},"indices":161,"material":6}]},{"name":"dovecote#n1_n1$lod2","primitives":[{"attributes":{"NORMAL":163,"POSITION":162,"TEXCOORD_0":231},"indices":164,"material":4},{"attributes":{"NORMAL":166,"POSITION":165,"TEXCOORD_0":232},"indices":167,"material":5},{"attributes":{"NORMAL":169,"POSITION":168,"TEXCOORD_0":233},"indices":170,"material":6}]},{"name":"dovecote#n1_n1$lod3","primitives":[{"attributes":{"NORMAL":172,"POSITION":171,"TEXCOORD_0":234},"indices":173,"material":5},{"attributes":{"NORMAL":175,"POSITION":174,"TEXCOORD_0":235},"indices":176,"material":6}]}],"nodes":[{"extensions":{"MSFT_lod":{"ids":[1,2,3]}},"extras":{"MSFT_screencoverage":[0.91574,0.3434,0.13736,0.0],"hm":{"cell":"0_0","cullAt":null,"interior":null,"lod":0,"max":[3.492,8.51,5.874],"min":[-3.012,0.0,-3.601],"prims":10,"tris":28036,"venue":"dovecote"}},"mesh":0,"name":"dovecote#0_0","scale":[3.25223970413208,4.255000114440918,4.737961769104004],"translation":[0.2401726245880127,4.255000114440918,1.1365158557891846]},{"extras":{"hm":{"cell":"0_0","cullAt":null,"interior":null,"lod":1,"max":[3.492,8.51,5.874],"min":[-3.012,0.0,-3.601],"prims":8,"tris":12327,"venue":"dovecote"}},"mesh":1,"name":"dovecote#0_0$lod1","scale":[3.252060890197754,4.255000114440918,4.7376298904418945],"translation":[0.23999392986297607,4.255000114440918,1.1368472576141357]},{"extras":{"hm":{"cell":"0_0","cullAt":null,"interior":null,"lod":2,"max":[3.492,8.51,5.874],"min":[-3.012,0.0,-3.601],"prims":3,"tris":3773,"venue":"dovecote"}},"mesh":2,"name":"dovecote#0_0$lod2","scale":[3.025984525680542,4.241000175476074,4.736968994140625],"translation":[0.01391744613647461,4.269000053405762,1.136185884475708]},{"extras":{"hm":{"cell":"0_0","cullAt":null,"interior":null,"lod":3,"max":[3.492,8.51,5.874],"min":[-3.012,0.0,-3.601],"prims":2,"tris":694,"venue":"dovecote"}},"mesh":3,"name":"dovecote#0_0$lod3","scale":[3.0120670795440674,4.1609625816345215,4.543103218078613],"translation":[0.0,4.193037509918213,0.9428073167800903]},{"extensions":{"MSFT_lod":{"ids":[5,6,7]}},"extras":{"MSFT_screencoverage":[0.59203,0.22201,0.08881,0.0],"hm":{"cell":"0_n1","cullAt":null,"interior":null,"lod":0,"max":[3.537,7.67,0.038],"min":[0.09,0.034,-3.874],"prims":3,"tris":1232,"venue":"dovecote"}},"mesh":4,"name":"dovecote#0_n1","scale":[1.7232544422149658,3.818000078201294,1.9556338787078857],"translation":[1.813514232635498,3.8519999980926514,-1.9181339740753174]},{"extras":{"hm":{"cell":"0_n1","cullAt":null,"interior":null,"lod":1,"max":[3.537,7.67,0.038],"min":[0.09,0.034,-3.874],"prims":3,"tris":559,"venue":"dovecote"}},"mesh":5,"name":"dovecote#0_n1$lod1","scale":[1.7218221426010132,3.817500114440918,1.9540996551513672],"translation":[1.8147372007369995,3.8524999618530273,-1.9190995693206787]},{"extras":{"hm":{"cell":"0_n1","cullAt":null,"interior":null,"lod":2,"max":[3.537,7.67,0.038],"min":[0.09,0.034,-3.874],"prims":3,"tris":144,"venue":"dovecote"}},"mesh":6,"name":"dovecote#0_n1$lod2","scale":[1.2174350023269653,2.0338845252990723,1.344807505607605],"translation":[1.410190463066101,5.632647514343262,-1.3108075857162476]},{"extras":{"hm":{"cell":"0_n1","cullAt":null,"interior":null,"lod":3,"max":[3.537,7.67,0.038],"min":[0.09,0.034,-3.874],"prims":2,"tris":31,"venue":"dovecote"}},"mesh":7,"name":"dovecote#0_n1$lod3","scale":[1.2147247791290283,2.033881664276123,1.344807505607605],"translation":[1.407480239868164,5.632645130157471,-1.3108075857162476]},{"extensions":{"MSFT_lod":{"ids":[9,10,11]}},"extras":{"MSFT_screencoverage":[0.78242,0.29341,0.11736,0.0],"hm":{"cell":"n1_0","cullAt":null,"interior":null,"lod":0,"max":[2.743,7.67,3.926],"min":[-4.082,-0.012,-2.686],"prims":5,"tris":10448,"venue":"dovecote"}},"mesh":8,"name":"dovecote#n1_0","scale":[3.4126791954040527,3.8409264087677,3.3056697845458984],"translation":[-0.6696830987930298,3.829073667526245,0.6200575828552246]},{"extras":{"hm":{"cell":"n1_0","cullAt":null,"interior":null,"lod":1,"max":[2.743,7.67,3.926],"min":[-4.082,-0.012,-2.686],"prims":4,"tris":4717,"venue":"dovecote"}},"mesh":9,"name":"dovecote#n1_0$lod1","scale":[3.412283420562744,3.8404951095581055,3.3051493167877197],"translation":[-0.6696949005126953,3.82950496673584,0.6199436187744141]},{"extras":{"hm":{"cell":"n1_0","cullAt":null,"interior":null,"lod":2,"max":[2.743,7.67,3.926],"min":[-4.082,-0.012,-2.686],"prims":3,"tris":1441,"venue":"dovecote"}},"mesh":10,"name":"dovecote#n1_0$lod2","scale":[3.411919593811035,3.836732864379883,3.3047430515289307],"translation":[-0.6700586080551147,3.8302669525146484,0.6203498840332031]},{"extras":{"hm":{"cell":"n1_0","cullAt":null,"interior":null,"lod":3,"max":[2.743,7.67,3.926],"min":[-4.082,-0.012,-2.686],"prims":2,"tris":273,"venue":"dovecote"}},"mesh":11,"name":"dovecote#n1_0$lod3","scale":[3.1469058990478516,3.8365116119384766,3.2946465015411377],"translation":[-0.40504467487335205,3.8301548957824707,0.6102533340454102]},{"extensions":{"MSFT_lod":{"ids":[13,14,15]}},"extras":{"MSFT_screencoverage":[0.55519,0.2082,0.08328,0.0],"hm":{"cell":"n1_n1","cullAt":null,"interior":null,"lod":0,"max":[-0.076,7.67,-0.188],"min":[-3.011,0.034,-3.061],"prims":3,"tris":1012,"venue":"dovecote"}},"mesh":12,"name":"dovecote#n1_n1","scale":[1.4676579236984253,3.818000078201294,1.4361932277679443],"translation":[-1.5433460474014282,3.8519999980926514,-1.624610424041748]},{"extras":{"hm":{"cell":"n1_n1","cullAt":null,"interior":null,"lod":1,"max":[-0.076,7.67,-0.188],"min":[-3.011,0.034,-3.061],"prims":3,"tris":480,"venue":"dovecote"}},"mesh":13,"name":"dovecote#n1_n1$lod1","scale":[1.4654486179351807,3.817500114440918,1.4341703653335571],"translation":[-1.5449414253234863,3.8524999618530273,-1.626283049583435]},{"extras":{"hm":{"cell":"n1_n1","cullAt":null,"interior":null,"lod":2,"max":[-0.076,7.67,-0.188],"min":[-3.011,0.034,-3.061],"prims":3,"tris":146,"venue":"dovecote"}},"mesh":14,"name":"dovecote#n1_n1$lod2","scale":[1.2650642395019531,1.9340145587921143,1.2169328927993774],"translation":[-1.352839469909668,5.733152389526367,-1.4202674627304077]},{"extras":{"hm":{"cell":"n1_n1","cullAt":null,"interior":null,"lod":3,"max":[-0.076,7.67,-0.188],"min":[-3.011,0.034,-3.061],"prims":2,"tris":30,"venue":"dovecote"}},"mesh":15,"name":"dovecote#n1_n1$lod3","scale":[1.2650504112243652,1.0383148193359375,1.2169328927993774],"translation":[-1.35282564163208,4.837452411651611,-1.4202674627304077]}],"samplers":[{"magFilter":9729,"minFilter":9987,"wrapS":10497,"wrapT":10497}],"scene":0,"scenes":[{"nodes":[0,4,8,12]}],"textures":[{"sampler":0,"source":0},{"sampler":0,"source":1},{"sampler":0,"source":2},{"sampler":0,"source":3},{"sampler":0,"source":4},{"sampler":0,"source":5},{"sampler":0,"source":6},{"sampler":0,"source":7},{"sampler":0,"source":8},{"sampler":0,"source":9},{"sampler":0,"source":10},{"sampler":0,"source":11},{"sampler":0,"source":12},{"sampler":0,"source":13},{"sampler":0,"source":14},{"sampler":0,"source":15},{"sampler":0,"source":16},{"sampler":0,"source":17},{"sampler":0,"source":18},{"sampler":0,"source":19},{"sampler":0,"source":20},{"sampler":0,"source":21},{"sampler":0,"source":22},{"sampler":0,"source":23},{"sampler":0,"source":24},{"sampler":0,"source":25},{"sampler":0,"source":26},{"sampler":0,"source":27},{"sampler":0,"source":28},{"sampler":0,"source":29},{"sampler":0,"source":30},{"sampler":0,"source":31},{"sampler":0,"source":32}]}