{"accessors":[{"bufferView":0,"componentType":5122,"count":192,"max":[11545.0,31851.0,30586.0],"min":[7630.0,-9771.0,25402.0],"normalized":true,"type":"VEC3"},{"bufferView":1,"componentType":5120,"count":192,"normalized":true,"type":"VEC3"},{"bufferView":2,"componentType":5123,"count":264,"type":"SCALAR"},{"bufferView":3,"componentType":5122,"count":8534,"max":[32767.0,32767.0,32767.0],"min":[-32767.0,-32767.0,-32767.0],"normalized":true,"type":"VEC3"},{"bufferView":4,"componentType":5120,"count":8534,"normalized":true,"type":"VEC3"},{"bufferView":5,"componentType":5123,"count":12348,"type":"SCALAR"},{"bufferView":6,"componentType":5122,"count":192,"max":[9740.0,19639.0,31409.0],"min":[-292.0,-11694.0,24010.0],"normalized":true,"type":"VEC3"},{"bufferView":7,"componentType":5120,"count":192,"normalized":true,"type":"VEC3"},{"bufferView":8,"componentType":5123,"count":264,"type":"SCALAR"},{"bufferView":9,"componentType":5122,"count":120,"max":[11495.0,31816.0,30585.0],"min":[7651.0,-9771.0,25415.0],"normalized":true,"type":"VEC3"},{"bufferView":10,"componentType":5120,"count":120,"normalized":true,"type":"VEC3"},{"bufferView":11,"componentType":5123,"count":120,"type":"SCALAR"},{"bufferView":12,"componentType":5122,"count":5313,"max":[32767.0,32767.0,32767.0],"min":[-32767.0,-32767.0,-32767.0],"normalized":true,"type":"VEC3"},{"bufferView":13,"componentType":5120,"count":5313,"normalized":true,"type":"VEC3"},{"bufferView":14,"componentType":5123,"count":5313,"type":"SCALAR"},{"bufferView":15,"componentType":5122,"count":120,"max":[9524.0,19639.0,31349.0],"min":[-161.0,-11612.0,24067.0],"normalized":true,"type":"VEC3"},{"bufferView":16,"componentType":5120,"count":120,"normalized":true,"type":"VEC3"},{"bufferView":17,"componentType":5123,"count":120,"type":"SCALAR"},{"bufferView":18,"componentType":5122,"count":36,"max":[14091.0,31867.0,30584.0],"min":[10277.0,-9735.0,25440.0],"normalized":true,"type":"VEC3"},{"bufferView":19,"componentType":5120,"count":36,"normalized":true,"type":"VEC3"},{"bufferView":20,"componentType":5123,"count":36,"type":"SCALAR"},{"bufferView":21,"componentType":5122,"count":1581,"max":[32767.0,32767.0,32767.0],"min":[-32767.0,-32767.0,-32767.0],"normalized":true,"type":"VEC3"},{"bufferView":22,"componentType":5120,"count":1581,"normalized":true,"type":"VEC3"},{"bufferView":23,"componentType":5123,"count":1581,"type":"SCALAR"},{"bufferView":24,"componentType":5122,"count":24,"max":[21507.0,32001.0,30402.0],"min":[16988.0,-9687.0,24768.0],"normalized":true,"type":"VEC3"},{"bufferView":25,"componentType":5120,"count":24,"normalized":true,"type":"VEC3"},{"bufferView":26,"componentType":5123,"count":24,"type":"SCALAR"},{"bufferView":27,"componentType":5122,"count":273,"max":[32767.0,32767.0,32767.0],"min":[-32767.0,-32767.0,-32767.0],"normalized":true,"type":"VEC3"},{"bufferView":28,"componentType":5120,"count":273,"normalized":true,"type":"VEC3"},{"bufferView":29,"componentType":5123,"count":273,"type":"SCALAR"},{"bufferView":30,"componentType":5122,"count":2208,"max":[9908.0,-30385.0,11511.0],"min":[-1088.0,-32387.0,-2397.0],"normalized":true,"type":"VEC3"},{"bufferView":31,"componentType":5120,"count":2208,"normalized":true,"type":"VEC3"},{"bufferView":32,"componentType":5123,"count":3036,"type":"SCALAR"},{"bufferView":33,"componentType":5122,"count":288,"max":[1213.0,-30763.0,10078.0],"min":[-3175.0,-31975.0,266.0],"normalized":true,"type":"VEC3"},{"bufferView":34,"componentType":5120,"count":288,"normalized":true,"type":"VEC3"},{"bufferView":35,"componentType":5123,"count":396,"type":"SCALAR"},{"bufferView":36,"componentType":5122,"count":192,"max":[7286.0,23183.0,-30927.0],"min":[-103.0,-18583.0,-32767.0],"normalized":true,"type":"VEC3"},{"bufferView":37,"componentType":5120,"count":192,"normalized":true,"type":"VEC3"},{"bufferView":38,"componentType":5123,"count":264,"type":"SCALAR"},{"bufferView":39,"componentType":5122,"count":2640,"max":[10115.0,24103.0,-18153.0],"min":[-10909.0,-32767.0,-32568.0],"normalized":true,"type":"VEC3"},{"bufferView":40,"componentType":5120,"count":2640,"normalized":true,"type":"VEC3"},{"bufferView":41,"componentType":5123,"count":3852,"type":"SCALAR"},{"bufferView":42,"componentType":5122,"count":288,"max":[29256.0,10929.0,28935.0],"min":[-20391.0,-32767.0,-31984.0],"normalized":true,"type":"VEC3"},{"bufferView":43,"componentType":5120,"count":288,"normalized":true,"type":"VEC3"},{"bufferView":44,"componentType":5123,"count":396,"type":"SCALAR"},{"bufferView":45,"componentType":5122,"count":288,"max":[32767.0,32767.0,32767.0],"min":[-23901.0,-1613.0,-22985.0],"normalized":true,"type":"VEC3"},{"bufferView":46,"componentType":5120,"count":288,"normalized":true,"type":"VEC3"},{"bufferView":47,"componentType":5123,"count":396,"type":"SCALAR"},{"bufferView":48,"componentType":5122,"count":6528,"max":[29785.0,30863.0,32224.0],"min":[-32767.0,-32767.0,-22442.0],"normalized":true,"type":"VEC3"},{"bufferView":49,"componentType":5120,"count":6528,"normalized":true,"type":"VEC3"},{"bufferView":50,"componentType":5123,"count":9024,"type":"SCALAR"},{"bufferView":51,"componentType":5122,"count":1878,"max":[10127.0,24177.0,-18173.0],"min":[-10878.0,-32767.0,-32561.0],"normalized":true,"type":"VEC3"},{"bufferView":52,"componentType":5120,"count":1878,"normalized":true,"type":"VEC3"},{"bufferView":53,"componentType":5123,"count":1878,"type":"SCALAR"},{"bufferView":54,"componentType":5122,"count":180,"max":[29244.0,10532.0,28803.0],"min":[-20388.0,-32767.0,-31893.0],"normalized":true,"type":"VEC3"},{"bufferView":55,"componentType":5120,"count":180,"normalized":true,"type":"VEC3"},{"bufferView":56,"componentType":5123,"count":180,"type":"SCALAR"},{"bufferView":57,"componentType":5122,"count":174,"max":[32767.0,32767.0,32767.0],"min":[-23793.0,-1550.0,-22946.0],"normalized":true,"type":"VEC3"},{"bufferView":58,"componentType":5120,"count":174,"normalized":true,"type":"VEC3"},{"bufferView":59,"componentType":5123,"count":174,"type":"SCALAR"},{"bufferView":60,"componentType":5122,"count":5901,"max":[29891.0,30938.0,32224.0],"min":[-32767.0,-32767.0,-32767.0],"normalized":true,"type":"VEC3"},{"bufferView":61,"componentType":5120,"count":5901,"normalized":true,"type":"VEC3"},{"bufferView":62,"componentType":5123,"count":5901,"type":"SCALAR"},{"bufferView":63,"componentType":5122,"count":36,"max":[29264.0,-18835.0,29035.0],"min":[-20273.0,-28622.0,-19000.0],"normalized":true,"type":"VEC3"},{"bufferView":64,"componentType":5120,"count":36,"normalized":true,"type":"VEC3"},{"bufferView":65,"componentType":5123,"count":36,"type":"SCALAR"},{"bufferView":66,"componentType":5122,"count":45,"max":[32767.0,32767.0,32767.0],"min":[-23842.0,-1207.0,-22597.0],"normalized":true,"type":"VEC3"},{"bufferView":67,"componentType":5120,"count":45,"normalized":true,"type":"VEC3"},{"bufferView":68,"componentType":5123,"count":45,"type":"SCALAR"},{"bufferView":69,"componentType":5122,"count":2331,"max":[29965.0,31450.0,32524.0],"min":[-32767.0,-32767.0,-32767.0],"normalized":true,"type":"VEC3"},{"bufferView":70,"componentType":5120,"count":2331,"normalized":true,"type":"VEC3"},{"bufferView":71,"componentType":5123,"count":2331,"type":"SCALAR"},{"bufferView":72,"componentType":5122,"count":24,"max":[32767.0,20821.0,32767.0],"min":[-32767.0,102.0,-23379.0],"normalized":true,"type":"VEC3"},{"bufferView":73,"componentType":5120,"count":24,"normalized":true,"type":"VEC3"},{"bufferView":74,"componentType":5123,"count":24,"type":"SCALAR"},{"bufferView":75,"componentType":5122,"count":447,"max":[28837.0,32767.0,28422.0],"min":[-28712.0,-32767.0,-32767.0],"normalized":true,"type":"VEC3"},{"bufferView":76,"componentType":5120,"count":447,"normalized":true,"type":"VEC3"},{"bufferView":77,"componentType":5123,"count":447,"type":"SCALAR"},{"bufferView":78,"componentType":5122,"count":144,"max":[30732.0,-9429.0,-9771.0],"min":[-19373.0,-16504.0,-31747.0],"normalized":true,"type":"VEC3"},{"bufferView":79,"componentType":5120,"count":144,"normalized":true,"type":"VEC3"},{"bufferView":80,"componentType":5123,"count":672,"type":"SCALAR"},{"bufferView":81,"componentType":5122,"count":384,"max":[23470.0,-1775.0,6569.0],"min":[12301.0,-21100.0,-11470.0],"normalized":true,"type":"VEC3"},{"bufferView":82,"componentType":5120,"count":384,"normalized":true,"type":"VEC3"},{"bufferView":83,"componentType":5123,"count":528,"type":"SCALAR"},{"bufferView":84,"componentType":5122,"count":1512,"max":[-17248.0,-31705.0,-28681.0],"min":[-19474.0,-31730.0,-30270.0],"normalized":true,"type":"VEC3"},{"bufferView":85,"componentType":5120,"count":1512,"normalized":true,"type":"VEC3"},{"bufferView":86,"componentType":5123,"count":2508,"type":"SCALAR"},{"bufferView":87,"componentType":5122,"count":54104,"max":[32767.0,25712.0,32767.0],"min":[-32767.0,-32767.0,-32767.0],"normalized":true,"type":"VEC3"},{"bufferView":88,"componentType":5120,"count":54104,"normalized":true,"type":"VEC3"},{"bufferView":89,"componentType":5123,"count":79896,"type":"SCALAR"},{"bufferView":90,"componentType":5122,"count":90,"max":[28923.0,25192.0,22460.0],"min":[-28321.0,-290.0,-18787.0],"normalized":true,"type":"VEC3"},{"bufferView":91,"componentType":5120,"count":90,"normalized":true,"type":"VEC3"},{"bufferView":92,"componentType":5123,"count":138,"type":"SCALAR"},{"bufferView":93,"componentType":5122,"count":4152,"max":[28111.0,16942.0,21326.0],"min":[-27509.0,-28088.0,-17652.0],"normalized":true,"type":"VEC3"},{"bufferView":94,"componentType":5120,"count":4152,"normalized":true,"type":"VEC3"},{"bufferView":95,"componentType":5123,"count":6048,"type":"SCALAR"},{"bufferView":96,"componentType":5122,"count":1652,"max":[27921.0,30488.0,25531.0],"min":[-27318.0,-30158.0,-20674.0],"normalized":true,"type":"VEC3"},{"bufferView":97,"componentType":5120,"count":1652,"normalized":true,"type":"VEC3"},{"bufferView":98,"componentType":5123,"count":2274,"type":"SCALAR"},{"bufferView":99,"componentType":5122,"count":448,"max":[25309.0,-27313.0,-15214.0],"min":[-12185.0,-32630.0,-28930.0],"normalized":true,"type":"VEC3"},{"bufferView":100,"componentType":5120,"count":448,"normalized":true,"type":"VEC3"},{"bufferView":101,"componentType":5123,"count":720,"type":"SCALAR"},{"bufferView":102,"componentType":5122,"count":1012,"max":[28982.0,32767.0,22710.0],"min":[-28381.0,-47.0,-19033.0],"normalized":true,"type":"VEC3"},{"bufferView":103,"componentType":5120,"count":1012,"normalized":true,"type":"VEC3"},{"bufferView":104,"componentType":5121,"count":1012,"normalized":true,"type":"VEC4"},{"bufferView":105,"componentType":5123,"count":1542,"type":"SCALAR"},{"bufferView":106,"componentType":5122,"count":548,"max":[28320.0,-18852.0,-10047.0],"min":[-32468.0,-31998.0,-28264.0],"normalized":true,"type":"VEC3"},{"bufferView":107,"componentType":5120,"count":548,"normalized":true,"type":"VEC3"},{"bufferView":108,"componentType":5121,"count":548,"normalized":true,"type":"VEC4"},{"bufferView":109,"componentType":5123,"count":822,"type":"SCALAR"},{"bufferView":110,"componentType":5122,"count":238,"max":[16087.0,-26782.0,-23189.0],"min":[14451.0,-30792.0,-25079.0],"normalized":true,"type":"VEC3"},{"bufferView":111,"componentType":5120,"count":238,"normalized":true,"type":"VEC3"},{"bufferView":112,"componentType":5123,"count":756,"type":"SCALAR"},{"bufferView":113,"componentType":5122,"count":321,"max":[30737.0,-9429.0,-9771.0],"min":[-18157.0,-16504.0,-31595.0],"normalized":true,"type":"VEC3"},{"bufferView":114,"componentType":5120,"count":321,"normalized":true,"type":"VEC3"},{"bufferView":115,"componentType":5123,"count":321,"type":"SCALAR"},{"bufferView":116,"componentType":5122,"count":37419,"max":[32767.0,25712.0,32767.0],"min":[-32767.0,-32767.0,-32767.0],"normalized":true,"type":"VEC3"},{"bufferView":117,"componentType":5120,"count":37419,"normalized":true,"type":"VEC3"},{"bufferView":118,"componentType":5123,"count":37419,"type":"SCALAR"},{"bufferView":119,"componentType":5122,"count":63,"max":[28908.0,25111.0,22374.0],"min":[-28300.0,-193.0,-18701.0],"normalized":true,"type":"VEC3"},{"bufferView":120,"componentType":5120,"count":63,"normalized":true,"type":"VEC3"},{"bufferView":121,"componentType":5123,"count":63,"type":"SCALAR"},{"bufferView":122,"componentType":5122,"count":5268,"max":[28326.0,16942.0,20912.0],"min":[-32468.0,-32630.0,-30266.0],"normalized":true,"type":"VEC3"},{"bufferView":123,"componentType":5120,"count":5268,"normalized":true,"type":"VEC3"},{"bufferView":124,"componentType":5121,"count":5268,"normalized":true,"type":"VEC4"},{"bufferView":125,"componentType":5123,"count":5268,"type":"SCALAR"},{"bufferView":126,"componentType":5122,"count":1125,"max":[27926.0,30407.0,25531.0],"min":[-27318.0,-30158.0,-20629.0],"normalized":true,"type":"VEC3"},{"bufferView":127,"componentType":5120,"count":1125,"normalized":true,"type":"VEC3"},{"bufferView":128,"componentType":5123,"count":1125,"type":"SCALAR"},{"bufferView":129,"componentType":5122,"count":717,"max":[28917.0,32767.0,22523.0],"min":[-28321.0,511.0,-18786.0],"normalized":true,"type":"VEC3"},{"bufferView":130,"componentType":5120,"count":717,"normalized":true,"type":"VEC3"},{"bufferView":131,"componentType":5121,"count":717,"normalized":true,"type":"VEC4"},{"bufferView":132,"componentType":5123,"count":717,"type":"SCALAR"},{"bufferView":133,"componentType":5122,"count":11109,"max":[32767.0,25685.0,32767.0],"min":[-32767.0,-32767.0,-32767.0],"normalized":true,"type":"VEC3"},{"bufferView":134,"componentType":5120,"count":11109,"normalized":true,"type":"VEC3"},{"bufferView":135,"componentType":5123,"count":11109,"type":"SCALAR"},{"bufferView":136,"componentType":5122,"count":2028,"max":[30888.0,30398.0,25487.0],"min":[-32107.0,-29962.0,-31606.0],"normalized":true,"type":"VEC3"},{"bufferView":137,"componentType":5120,"count":2028,"normalized":true,"type":"VEC3"},{"bufferView":138,"componentType":5121,"count":2028,"normalized":true,"type":"VEC4"},{"bufferView":139,"componentType":5123,"count":2028,"type":"SCALAR"},{"bufferView":140,"componentType":5122,"count":219,"max":[28771.0,32767.0,22320.0],"min":[-28207.0,391.0,-18795.0],"normalized":true,"type":"VEC3"},{"bufferView":141,"componentType":5120,"count":219,"normalized":true,"type":"VEC3"},{"bufferView":142,"componentType":5121,"count":219,"normalized":true,"type":"VEC4"},{"bufferView":143,"componentType":5123,"count":219,"type":"SCALAR"},{"bufferView":144,"componentType":5122,"count":2397,"max":[32767.0,32767.0,32767.0],"min":[-32767.0,-32767.0,-32767.0],"normalized":true,"type":"VEC3"},{"bufferView":145,"componentType":5120,"count":2397,"normalized":true,"type":"VEC3"},{"bufferView":146,"componentType":5121,"count":2397,"normalized":true,"type":"VEC4"},{"bufferView":147,"componentType":5123,"count":2397,"type":"SCALAR"},{"bufferView":148,"componentType":5122,"count":39,"max":[28798.0,22307.0,19094.0],"min":[-28138.0,3479.0,-15419.0],"normalized":true,"type":"VEC3"},{"bufferView":149,"componentType":5120,"count":39,"normalized":true,"type":"VEC3"},{"bufferView":150,"componentType":5121,"count":39,"normalized":true,"type":"VEC4"},{"bufferView":151,"componentType":5123,"count":39,"type":"SCALAR"},{"bufferView":152,"componentType":5126,"count":1056,"max":[0.30894729495048523,0.8561012148857117,0.30894729495048523],"min":[-0.30894729495048523,0.0,-0.30894729495048523],"type":"VEC3"},{"bufferView":153,"componentType":5120,"count":1056,"normalized":true,"type":"VEC3"},{"bufferView":154,"componentType":5123,"count":1620,"type":"SCALAR"},{"bufferView":155,"componentType":5126,"count":768,"max":[0.3080463409423828,0.8194018006324768,0.3080463111400604],"min":[-0.3080463409423828,0.055268544703722,-0.3080463111400604],"type":"VEC3"},{"bufferView":156,"componentType":5120,"count":768,"normalized":true,"type":"VEC3"},{"bufferView":157,"componentType":5123,"count":768,"type":"SCALAR"},{"bufferView":158,"componentType":5126,"count":216,"max":[0.2978953719139099,0.8194018006324768,0.2978953719139099],"min":[-0.2978953719139099,0.09305617213249207,-0.2978953719139099],"type":"VEC3"},{"bufferView":159,"componentType":5120,"count":216,"normalized":true,"type":"VEC3"},{"bufferView":160,"componentType":5123,"count":216,"type":"SCALAR"},{"bufferView":161,"componentType":5126,"count":36,"max":[0.19629067182540894,0.7222859263420105,0.1986241191625595],"min":[-0.20436319708824158,0.2749495804309845,-0.19998595118522644],"type":"VEC3"},{"bufferView":162,"componentType":5120,"count":36,"normalized":true,"type":"VEC3"},{"bufferView":163,"componentType":5123,"count":36,"type":"SCALAR"},{"bufferView":164,"componentType":5126,"count":2688,"max":[0.3395596146583557,0.5683813095092773,0.3395596444606781],"min":[-0.3395596146583557,-0.013000011444091797,-0.3395596444606781],"type":"VEC3"},{"bufferView":165,"componentType":5120,"count":2688,"normalized":true,"type":"VEC3"},{"bufferView":166,"componentType":5123,"count":3696,"type":"SCALAR"},{"bufferView":167,"componentType":5126,"count":1644,"max":[0.3395596146583557,0.5683813095092773,0.3395596444606781],"min":[-0.3395596146583557,-0.011000007390975952,-0.3395596444606781],"type":"VEC3"},{"bufferView":168,"componentType":5120,"count":1644,"normalized":true,"type":"VEC3"},{"bufferView":169,"componentType":5123,"count":1644,"type":"SCALAR"},{"bufferView":170,"componentType":5126,"count":504,"max":[0.32160940766334534,0.555480420589447,0.3185214400291443],"min":[-0.32160940766334534,-0.010208339430391788,-0.3185214400291443],"type":"VEC3"},{"bufferView":171,"componentType":5120,"count":504,"normalized":true,"type":"VEC3"},{"bufferView":172,"componentType":5123,"count":504,"type":"SCALAR"},{"bufferView":173,"componentType":5126,"count":90,"max":[0.30515748262405396,0.5548898577690125,0.21883869171142578],"min":[-0.30515748262405396,-0.008568904362618923,-0.21883869171142578],"type":"VEC3"},{"bufferView":174,"componentType":5120,"count":90,"normalized":true,"type":"VEC3"},{"bufferView":175,"componentType":5123,"count":90,"type":"SCALAR"},{"bufferView":176,"componentType":5126,"count":96,"max":[0.3400000035762787,0.4399999976158142,0.14750000834465027],"min":[-0.3400000035762787,-0.4399999976158142,0.12250000238418579],"type":"VEC3"},{"bufferView":177,"componentType":5120,"count":96,"normalized":true,"type":"VEC3"},{"bufferView":178,"componentType":5123,"count":132,"type":"SCALAR"},{"bufferView":179,"componentType":5126,"count":912,"max":[0.6812744140625,0.5099999904632568,0.1899999976158142],"min":[-0.687931478023529,-0.5099999904632568,-0.23818841576576233],"type":"VEC3"},{"bufferView":180,"componentType":5120,"count":912,"normalized":true,"type":"VEC3"},{"bufferView":181,"componentType":5123,"count":1296,"type":"SCALAR"},{"bufferView":182,"componentType":5126,"count":96,"max":[0.4699999988079071,-0.49310335516929626,0.05179654434323311],"min":[-0.4699999988079071,-0.5868966579437256,-0.1717965453863144],"type":"VEC3"},{"bufferView":183,"componentType":5120,"count":96,"normalized":true,"type":"VEC3"},{"bufferView":184,"componentType":5123,"count":132,"type":"SCALAR"},{"bufferView":185,"componentType":5126,"count":60,"max":[0.33799999952316284,0.43799999356269836,0.14750000834465027],"min":[-0.33799999952316284,-0.43799999356269836,0.12250000238418579],"type":"VEC3"},{"bufferView":186,"componentType":5120,"count":60,"normalized":true,"type":"VEC3"},{"bufferView":187,"componentType":5123,"count":60,"type":"SCALAR"},{"bufferView":188,"componentType":5126,"count":588,"max":[0.6783660650253296,0.5059999823570251,0.18666666746139526],"min":[-0.687931478023529,-0.5059999823570251,-0.23818841576576233],"type":"VEC3"},{"bufferView":189,"componentType":5120,"count":588,"normalized":true,"type":"VEC3"},{"bufferView":190,"componentType":5123,"count":588,"type":"SCALAR"},{"bufferView":191,"componentType":5126,"count":60,"max":[0.46299999952316284,-0.5192363858222961,0.04034367576241493],"min":[-0.46299999952316284,-0.5799316167831421,-0.1717965453863144],"type":"VEC3"},{"bufferView":192,"componentType":5120,"count":60,"normalized":true,"type":"VEC3"},{"bufferView":193,"componentType":5123,"count":60,"type":"SCALAR"},{"bufferView":194,"componentType":5126,"count":36,"max":[0.33719998598098755,0.43719998002052307,0.14750000834465027],"min":[-0.33719998598098755,-0.43719998002052307,0.12931819260120392],"type":"VEC3"},{"bufferView":195,"componentType":5120,"count":36,"normalized":true,"type":"VEC3"},{"bufferView":196,"componentType":5123,"count":36,"type":"SCALAR"},{"bufferView":197,"componentType":5126,"count":168,"max":[0.6219480037689209,0.5059999823570251,0.15133333206176758],"min":[-0.63800048828125,-0.5059999823570251,-0.19794398546218872],"type":"VEC3"},{"bufferView":198,"componentType":5120,"count":168,"normalized":true,"type":"VEC3"},{"bufferView":199,"componentType":5123,"count":168,"type":"SCALAR"},{"bufferView":200,"componentType":5126,"count":24,"max":[0.46008333563804626,-0.5229531526565552,0.039863888174295425],"min":[-0.4602000117301941,-0.577704668045044,-0.16457951068878174],"type":"VEC3"},{"bufferView":201,"componentType":5120,"count":24,"normalized":true,"type":"VEC3"},{"bufferView":202,"componentType":5123,"count":24,"type":"SCALAR"},{"bufferView":203,"componentType":5126,"count":36,"max":[0.33719998598098755,0.43719998002052307,0.14750000834465027],"min":[-0.33719998598098755,-0.43719998002052307,0.12931819260120392],"type":"VEC3"},{"bufferView":204,"componentType":5120,"count":36,"normalized":true,"type":"VEC3"},{"bufferView":205,"componentType":5123,"count":36,"type":"SCALAR"},{"bufferView":206,"componentType":5126,"count":90,"max":[0.46008333563804626,0.43899646401405334,0.09184285998344421],"min":[-0.4602000117301941,-0.577704668045044,-0.16457951068878174],"type":"VEC3"},{"bufferView":207,"componentType":5120,"count":90,"normalized":true,"type":"VEC3"},{"bufferView":208,"componentType":5123,"count":90,"type":"SCALAR"},{"bufferView":209,"componentType":5126,"count":96,"max":[0.3400000035762787,0.4399999976158142,0.14750000834465027],"min":[-0.3400000035762787,-0.4399999976158142,0.12250000238418579],"type":"VEC3"},{"bufferView":210,"componentType":5120,"count":96,"normalized":true,"type":"VEC3"},{"bufferView":211,"componentType":5123,"count":132,"type":"SCALAR"},{"bufferView":212,"componentType":5126,"count":912,"max":[0.6843212842941284,0.5099999904632568,0.1899999976158142],"min":[-0.6877710819244385,-0.5099999904632568,-0.22612756490707397],"type":"VEC3"},{"bufferView":213,"componentType":5120,"count":912,"normalized":true,"type":"VEC3"},{"bufferView":214,"componentType":5123,"count":1296,"type":"SCALAR"},{"bufferView":215,"componentType":5126,"count":96,"max":[0.4699999988079071,-0.49310335516929626,0.05179654434323311],"min":[-0.4699999988079071,-0.5868966579437256,-0.1717965453863144],"type":"VEC3"},{"bufferView":216,"componentType":5120,"count":96,"normalized":true,"type":"VEC3"},{"bufferView":217,"componentType":5123,"count":132,"type":"SCALAR"},{"bufferView":218,"componentType":5126,"count":60,"max":[0.33799999952316284,0.43799999356269836,0.14750000834465027],"min":[-0.33799999952316284,-0.43799999356269836,0.12250000238418579],"type":"VEC3"},{"bufferView":219,"componentType":5120,"count":60,"normalized":true,"type":"VEC3"},{"bufferView":220,"componentType":5123,"count":60,"type":"SCALAR"},{"bufferView":221,"componentType":5126,"count":612,"max":[0.6843212842941284,0.5059999823570251,0.18666666746139526],"min":[-0.6877710819244385,-0.5059999823570251,-0.22612756490707397],"type":"VEC3"},{"bufferView":222,"componentType":5120,"count":612,"normalized":true,"type":"VEC3"},{"bufferView":223,"componentType":5123,"count":612,"type":"SCALAR"},{"bufferView":224,"componentType":5126,"count":60,"max":[0.46299999952316284,-0.5192363858222961,0.04034367576241493],"min":[-0.46299999952316284,-0.5799316167831421,-0.1717965453863144],"type":"VEC3"},{"bufferView":225,"componentType":5120,"count":60,"normalized":true,"type":"VEC3"},{"bufferView":226,"componentType":5123,"count":60,"type":"SCALAR"},{"bufferView":227,"componentType":5126,"count":36,"max":[0.33719998598098755,0.43719998002052307,0.14750000834465027],"min":[-0.33719998598098755,-0.43719998002052307,0.12931819260120392],"type":"VEC3"},{"bufferView":228,"componentType":5120,"count":36,"normalized":true,"type":"VEC3"},{"bufferView":229,"componentType":5123,"count":36,"type":"SCALAR"},{"bufferView":230,"componentType":5126,"count":168,"max":[0.637451708316803,0.5059999823570251,0.15133333206176758],"min":[-0.6378004550933838,-0.5059999823570251,-0.18682880699634552],"type":"VEC3"},{"bufferView":231,"componentType":5120,"count":168,"normalized":true,"type":"VEC3"},{"bufferView":232,"componentType":5123,"count":168,"type":"SCALAR"},{"bufferView":233,"componentType":5126,"count":24,"max":[0.46008333563804626,-0.5229531526565552,0.039863888174295425],"min":[-0.4602000117301941,-0.577704668045044,-0.16457951068878174],"type":"VEC3"},{"bufferView":234,"componentType":5120,"count":24,"normalized":true,"type":"VEC3"},{"bufferView":235,"componentType":5123,"count":24,"type":"SCALAR"},{"bufferView":236,"componentType":5126,"count":36,"max":[0.33719998598098755,0.43719998002052307,0.14750000834465027],"min":[-0.33719998598098755,-0.43719998002052307,0.12931819260120392],"type":"VEC3"},{"bufferView":237,"componentType":5120,"count":36,"normalized":true,"type":"VEC3"},{"bufferView":238,"componentType":5123,"count":36,"type":"SCALAR"},{"bufferView":239,"componentType":5126,"count":90,"max":[0.46008333563804626,0.43899646401405334,0.09184285998344421],"min":[-0.4602000117301941,-0.577704668045044,-0.16457951068878174],"type":"VEC3"},{"bufferView":240,"componentType":5120,"count":90,"normalized":true,"type":"VEC3"},{"bufferView":241,"componentType":5123,"count":90,"type":"SCALAR"},{"bufferView":242,"componentType":5126,"count":96,"max":[0.3400000035762787,0.4399999976158142,0.14750000834465027],"min":[-0.3400000035762787,-0.4399999976158142,0.12250000238418579],"type":"VEC3"},{"bufferView":243,"componentType":5120,"count":96,"normalized":true,"type":"VEC3"},{"bufferView":244,"componentType":5123,"count":132,"type":"SCALAR"},{"bufferView":245,"componentType":5126,"count":672,"max":[0.4099999964237213,0.5099999904632568,0.1899999976158142],"min":[-0.4099999964237213,-0.5099999904632568,-0.06499999761581421],"type":"VEC3"},{"bufferView":246,"componentType":5120,"count":672,"normalized":true,"type":"VEC3"},{"bufferView":247,"componentType":5123,"count":936,"type":"SCALAR"},{"bufferView":248,"componentType":5126,"count":96,"max":[0.4699999988079071,-0.49310335516929626,0.05179654434323311],"min":[-0.4699999988079071,-0.5868966579437256,-0.1717965453863144],"type":"VEC3"},{"bufferView":249,"componentType":5120,"count":96,"normalized":true,"type":"VEC3"},{"bufferView":250,"componentType":5123,"count":132,"type":"SCALAR"},{"bufferView":251,"componentType":5126,"count":60,"max":[0.33799999952316284,0.43799999356269836,0.14750000834465027],"min":[-0.33799999952316284,-0.43799999356269836,0.12250000238418579],"type":"VEC3"},{"bufferView":252,"componentType":5120,"count":60,"normalized":true,"type":"VEC3"},{"bufferView":253,"componentType":5123,"count":60,"type":"SCALAR"},{"bufferView":254,"componentType":5126,"count":456,"max":[0.40700000524520874,0.5099999904632568,0.1899999976158142],"min":[-0.40700000524520874,-0.5099999904632568,-0.06199999898672104],"type":"VEC3"},{"bufferView":255,"componentType":5120,"count":456,"normalized":true,"type":"VEC3"},{"bufferView":256,"componentType":5123,"count":456,"type":"SCALAR"},{"bufferView":257,"componentType":5126,"count":60,"max":[0.46299999952316284,-0.5192363858222961,0.04034367576241493],"min":[-0.46299999952316284,-0.5799316167831421,-0.1717965453863144],"type":"VEC3"},{"bufferView":258,"componentType":5120,"count":60,"normalized":true,"type":"VEC3"},{"bufferView":259,"componentType":5123,"count":60,"type":"SCALAR"},{"bufferView":260,"componentType":5126,"count":36,"max":[0.33719998598098755,0.43719998002052307,0.14750000834465027],"min":[-0.33719998598098755,-0.43719998002052307,0.12931819260120392],"type":"VEC3"},{"bufferView":261,"componentType":5120,"count":36,"normalized":true,"type":"VEC3"},{"bufferView":262,"componentType":5123,"count":36,"type":"SCALAR"},{"bufferView":263,"componentType":5126,"count":144,"max":[0.389090895652771,0.5007272958755493,0.17657142877578735],"min":[-0.389090895652771,-0.5007272958755493,-0.060818180441856384],"type":"VEC3"},{"bufferView":264,"componentType":5120,"count":144,"normalized":true,"type":"VEC3"},{"bufferView":265,"componentType":5123,"count":144,"type":"SCALAR"},{"bufferView":266,"componentType":5126,"count":24,"max":[0.46008333563804626,-0.5229531526565552,0.039863888174295425],"min":[-0.4602000117301941,-0.577704668045044,-0.16457951068878174],"type":"VEC3"},{"bufferView":267,"componentType":5120,"count":24,"normalized":true,"type":"VEC3"},{"bufferView":268,"componentType":5123,"count":24,"type":"SCALAR"},{"bufferView":269,"componentType":5126,"count":36,"max":[0.33719998598098755,0.43719998002052307,0.14750000834465027],"min":[-0.33719998598098755,-0.43719998002052307,0.12931819260120392],"type":"VEC3"},{"bufferView":270,"componentType":5120,"count":36,"normalized":true,"type":"VEC3"},{"bufferView":271,"componentType":5123,"count":36,"type":"SCALAR"},{"bufferView":272,"componentType":5126,"count":90,"max":[0.46008333563804626,0.4757373631000519,0.11294636875391006],"min":[-0.4602000117301941,-0.577704668045044,-0.16457951068878174],"type":"VEC3"},{"bufferView":273,"componentType":5120,"count":90,"normalized":true,"type":"VEC3"},{"bufferView":274,"componentType":5123,"count":90,"type":"SCALAR"},{"bufferView":275,"componentType":5122,"count":192,"normalized":true,"type":"VEC2"},{"bufferView":276,"componentType":5122,"count":8534,"normalized":true,"type":"VEC2"},{"bufferView":277,"componentType":5122,"count":192,"normalized":true,"type":"VEC2"},{"bufferView":278,"componentType":5122,"count":120,"normalized":true,"type":"VEC2"},{"bufferView":279,"componentType":5122,"count":5313,"normalized":true,"type":"VEC2"},{"bufferView":280,"componentType":5122,"count":120,"normalized":true,"type":"VEC2"},{"bufferView":281,"componentType":5122,"count":36,"normalized":true,"type":"VEC2"},{"bufferView":282,"componentType":5122,"count":1581,"normalized":true,"type":"VEC2"},{"bufferView":283,"componentType":5122,"count":24,"normalized":true,"type":"VEC2"},{"bufferView":284,"componentType":5122,"count":273,"normalized":true,"type":"VEC2"},{"bufferView":285,"componentType":5122,"count":2208,"normalized":true,"type":"VEC2"},{"bufferView":286,"componentType":5122,"count":288,"normalized":true,"type":"VEC2"},{"bufferView":287,"componentType":5122,"count":192,"normalized":true,"type":"VEC2"},{"bufferView":288,"componentType":5122,"count":2640,"normalized":true,"type":"VEC2"},{"bufferView":289,"componentType":5122,"count":288,"normalized":true,"type":"VEC2"},{"bufferView":290,"componentType":5122,"count":288,"normalized":true,"type":"VEC2"},{"bufferView":291,"componentType":5122,"count":6528,"normalized":true,"type":"VEC2"},{"bufferView":292,"componentType":5122,"count":1878,"normalized":true,"type":"VEC2"},{"bufferView":293,"componentType":5122,"count":180,"normalized":true,"type":"VEC2"},{"bufferView":294,"componentType":5122,"count":174,"normalized":true,"type":"VEC2"},{"bufferView":295,"componentType":5122,"count":5901,"normalized":true,"type":"VEC2"},{"bufferView":296,"componentType":5122,"count":36,"normalized":true,"type":"VEC2"},{"bufferView":297,"componentType":5122,"count":45,"normalized":true,"type":"VEC2"},{"bufferView":298,"componentType":5122,"count":2331,"normalized":true,"type":"VEC2"},{"bufferView":299,"componentType":5122,"count":24,"normalized":true,"type":"VEC2"},{"bufferView":300,"componentType":5122,"count":447,"normalized":true,"type":"VEC2"},{"bufferView":301,"componentType":5122,"count":144,"normalized":true,"type":"VEC2"},{"bufferView":302,"componentType":5122,"count":384,"normalized":true,"type":"VEC2"},{"bufferView":303,"componentType":5122,"count":1512,"normalized":true,"type":"VEC2"},{"bufferView":304,"componentType":5122,"count":54104,"normalized":true,"type":"VEC2"},{"bufferView":305,"componentType":5122,"count":90,"normalized":true,"type":"VEC2"},{"bufferView":306,"componentType":5122,"count":4152,"normalized":true,"type":"VEC2"},{"bufferView":307,"componentType":5122,"count":1652,"normalized":true,"type":"VEC2"},{"bufferView":308,"componentType":5122,"count":448,"normalized":true,"type":"VEC2"},{"bufferView":309,"componentType":5122,"count":1012,"normalized":true,"type":"VEC2"},{"bufferView":310,"componentType":5122,"count":548,"normalized":true,"type":"VEC2"},{"bufferView":311,"componentType":5122,"count":238,"normalized":true,"type":"VEC2"},{"bufferView":312,"componentType":5122,"count":321,"normalized":true,"type":"VEC2"},{"bufferView":313,"componentType":5122,"count":37419,"normalized":true,"type":"VEC2"},{"bufferView":314,"componentType":5122,"count":63,"normalized":true,"type":"VEC2"},{"bufferView":315,"componentType":5122,"count":5268,"normalized":true,"type":"VEC2"},{"bufferView":316,"componentType":5122,"count":1125,"normalized":true,"type":"VEC2"},{"bufferView":317,"componentType":5122,"count":717,"normalized":true,"type":"VEC2"},{"bufferView":318,"componentType":5122,"count":11109,"normalized":true,"type":"VEC2"},{"bufferView":319,"componentType":5122,"count":2028,"normalized":true,"type":"VEC2"},{"bufferView":320,"componentType":5122,"count":219,"normalized":true,"type":"VEC2"},{"bufferView":321,"componentType":5122,"count":2397,"normalized":true,"type":"VEC2"},{"bufferView":322,"componentType":5122,"count":39,"normalized":true,"type":"VEC2"},{"bufferView":323,"componentType":5122,"count":1056,"normalized":true,"type":"VEC2"},{"bufferView":324,"componentType":5122,"count":768,"normalized":true,"type":"VEC2"},{"bufferView":325,"componentType":5122,"count":216,"normalized":true,"type":"VEC2"},{"bufferView":326,"componentType":5122,"count":36,"normalized":true,"type":"VEC2"},{"bufferView":327,"componentType":5122,"count":2688,"normalized":true,"type":"VEC2"},{"bufferView":328,"componentType":5122,"count":1644,"normalized":true,"type":"VEC2"},{"bufferView":329,"componentType":5122,"count":504,"normalized":true,"type":"VEC2"},{"bufferView":330,"componentType":5122,"count":90,"normalized":true,"type":"VEC2"},{"bufferView":331,"componentType":5122,"count":96,"normalized":true,"type":"VEC2"},{"bufferView":332,"componentType":5122,"count":912,"normalized":true,"type":"VEC2"},{"bufferView":333,"componentType":5122,"count":96,"normalized":true,"type":"VEC2"},{"bufferView":334,"componentType":5122,"count":60,"normalized":true,"type":"VEC2"},{"bufferView":335,"componentType":5122,"count":588,"normalized":true,"type":"VEC2"},{"bufferView":336,"componentType":5122,"count":60,"normalized":true,"type":"VEC2"},{"bufferView":337,"componentType":5122,"count":36,"normalized":true,"type":"VEC2"},{"bufferView":338,"componentType":5122,"count":168,"normalized":true,"type":"VEC2"},{"bufferView":339,"componentType":5122,"count":24,"normalized":true,"type":"VEC2"},{"bufferView":340,"componentType":5122,"count":36,"normalized":true,"type":"VEC2"},{"bufferView":341,"componentType":5122,"count":90,"normalized":true,"type":"VEC2"},{"bufferView":342,"componentType":5122,"count":96,"normalized":true,"type":"VEC2"},{"bufferView":343,"componentType":5122,"count":912,"normalized":true,"type":"VEC2"},{"bufferView":344,"componentType":5122,"count":96,"normalized":true,"type":"VEC2"},{"bufferView":345,"componentType":5122,"count":60,"normalized":true,"type":"VEC2"},{"bufferView":346,"componentType":5122,"count":612,"normalized":true,"type":"VEC2"},{"bufferView":347,"componentType":5122,"count":60,"normalized":true,"type":"VEC2"},{"bufferView":348,"componentType":5122,"count":36,"normalized":true,"type":"VEC2"},{"bufferView":349,"componentType":5122,"count":168,"normalized":true,"type":"VEC2"},{"bufferView":350,"componentType":5122,"count":24,"normalized":true,"type":"VEC2"},{"bufferView":351,"componentType":5122,"count":36,"normalized":true,"type":"VEC2"},{"bufferView":352,"componentType":5122,"count":90,"normalized":true,"type":"VEC2"},{"bufferView":353,"componentType":5122,"count":96,"normalized":true,"type":"VEC2"},{"bufferView":354,"componentType":5122,"count":672,"normalized":true,"type":"VEC2"},{"bufferView":355,"componentType":5122,"count":96,"normalized":true,"type":"VEC2"},{"bufferView":356,"componentType":5122,"count":60,"normalized":true,"type":"VEC2"},{"bufferView":357,"componentType":5122,"count":456,"normalized":true,"type":"VEC2"},{"bufferView":358,"componentType":5122,"count":60,"normalized":true,"type":"VEC2"},{"bufferView":359,"componentType":5122,"count":36,"normalized":true,"type":"VEC2"},{"bufferView":360,"componentType":5122,"count":144,"normalized":true,"type":"VEC2"},{"bufferView":361,"componentType":5122,"count":24,"normalized":true,"type":"VEC2"},{"bufferView":362,"componentType":5122,"count":36,"normalized":true,"type":"VEC2"},{"bufferView":363,"componentType":5122,"count":90,"normalized":true,"type":"VEC2"}],"asset":{"generator":"evermore assetgen","version":"2.0"},"bufferViews":[{"buffer":0,"byteLength":1536,"byteOffset":0,"byteStride":8,"target":34962},{"buffer":0,"byteLength":768,"byteOffset":1536,"byteStride":4,"target":34962},{"buffer":0,"byteLength":528,"byteOffset":2304,"target":34963},{"buffer":0,"byteLength":68272,"byteOffset":2832,"byteStride":8,"target":34962},{"buffer":0,"byteLength":34136,"byteOffset":71104,"byteStride":4,"target":34962},{"buffer":0,"byteLength":24696,"byteOffset":105240,"target":34963},{"buffer":0,"byteLength":1536,"byteOffset":129936,"byteStride":8,"target":34962},{"buffer":0,"byteLength":768,"byteOffset":131472,"byteStride":4,"target":34962},{"buffer":0,"byteLength":528,"byteOffset":132240,"target":34963},{"buffer":0,"byteLength":960,"byteOffset":132768,"byteStride":8,"target":34962},{"buffer":0,"byteLength":480,"byteOffset":133728,"byteStride":4,"target":34962},{"buffer":0,"byteLength":240,"byteOffset":134208,"target":34963},{"buffer":0,"byteLength":42504,"byteOffset":134448,"byteStride":8,"target":34962},{"buffer":0,"byteLength":21252,"byteOffset":176952,"byteStride":4,"target":34962},{"buffer":0,"byteLength":10626,"byteOffset":198204,"target":34963},{"buffer":0,"byteLength":960,"byteOffset":208832,"byteStride":8,"target":34962},{"buffer":0,"byteLength":480,"byteOffset":209792,"byteStride":4,"target":34962},{"buffer":0,"byteLength":240,"byteOffset":210272,"target":34963},{"buffer":0,"byteLength":288,"byteOffset":210512,"byteStride":8,"target":34962},{"buffer":0,"byteLength":144,"byteOffset":210800,"byteStride":4,"target":34962},{"buffer":0,"byteLength":72,"byteOffset":210944,"target":34963},{"buffer":0,"byteLength":12648,"byteOffset":211016,"byteStride":8,"target":34962},{"buffer":0,"byteLength":6324,"byteOffset":223664,"byteStride":4,"target":34962},{"buffer":0,"byteLength":3162,"byteOffset":229988,"target":34963},{"buffer":0,"byteLength":192,"byteOffset":233152,"byteStride":8,"target":34962},{"buffer":0,"byteLength":96,"byteOffset":233344,"byteStride":4,"target":34962},{"buffer":0,"byteLength":48,"byteOffset":233440,"target":34963},{"buffer":0,"byteLength":2184,"byteOffset":233488,"byteStride":8,"target":34962},{"buffer":0,"byteLength":1092,"byteOffset":235672,"byteStride":4,"target":34962},{"buffer":0,"byteLength":546,"byteOffset":236764,"target":34963},{"buffer":0,"byteLength":17664,"byteOffset":237312,"byteStride":8,"target":34962},{"buffer":0,"byteLength":8832,"byteOffset":254976,"byteStride":4,"target":34962},{"buffer":0,"byteLength":6072,"byteOffset":263808,"target":34963},{"buffer":0,"byteLength":2304,"byteOffset":269880,"byteStride":8,"target":34962},{"buffer":0,"byteLength":1152,"byteOffset":272184,"byteStride":4,"target":34962},{"buffer":0,"byteLength":792,"byteOffset":273336,"target":34963},{"buffer":0,"byteLength":1536,"byteOffset":274128,"byteStride":8,"target":34962},{"buffer":0,"byteLength":768,"byteOffset":275664,"byteStride":4,"target":34962},{"buffer":0,"byteLength":528,"byteOffset":276432,"target":34963},{"buffer":0,"byteLength":21120,"byteOffset":276960,"byteStride":8,"target":34962},{"buffer":0,"byteLength":10560,"byteOffset":298080,"byteStride":4,"target":34962},{"buffer":0,"byteLength":7704,"byteOffset":308640,"target":34963},{"buffer":0,"byteLength":2304,"byteOffset":316344,"byteStride":8,"target":34962},{"buffer":0,"byteLength":1152,"byteOffset":318648,"byteStride":4,"target":34962},{"buffer":0,"byteLength":792,"byteOffset":319800,"target":34963},{"buffer":0,"byteLength":2304,"byteOffset":320592,"byteStride":8,"target":34962},{"buffer":0,"byteLength":1152,"byteOffset":322896,"byteStride":4,"target":34962},{"buffer":0,"byteLength":792,"byteOffset":324048,"target":34963},{"buffer":0,"byteLength":52224,"byteOffset":324840,"byteStride":8,"target":34962},{"buffer":0,"byteLength":26112,"byteOffset":377064,"byteStride":4,"target":34962},{"buffer":0,"byteLength":18048,"byteOffset":403176,"target":34963},{"buffer":0,"byteLength":15024,"byteOffset":421224,"byteStride":8,"target":34962},{"buffer":0,"byteLength":7512,"byteOffset":436248,"byteStride":4,"target":34962},{"buffer":0,"byteLength":3756,"byteOffset":443760,"target":34963},{"buffer":0,"byteLength":1440,"byteOffset":447516,"byteStride":8,"target":34962},{"buffer":0,"byteLength":720,"byteOffset":448956,"byteStride":4,"target":34962},{"buffer":0,"byteLength":360,"byteOffset":449676,"target":34963},{"buffer":0,"byteLength":1392,"byteOffset":450036,"byteStride":8,"target":34962},{"buffer":0,"byteLength":696,"byteOffset":451428,"byteStride":4,"target":34962},{"buffer":0,"byteLength":348,"byteOffset":452124,"target":34963},{"buffer":0,"byteLength":47208,"byteOffset":452472,"byteStride":8,"target":34962},{"buffer":0,"byteLength":23604,"byteOffset":499680,"byteStride":4,"target":34962},{"buffer":0,"byteLength":11802,"byteOffset":523284,"target":34963},{"buffer":0,"byteLength":288,"byteOffset":535088,"byteStride":8,"target":34962},{"buffer":0,"byteLength":144,"byteOffset":535376,"byteStride":4,"target":34962},{"buffer":0,"byteLength":72,"byteOffset":535520,"target":34963},{"buffer":0,"byteLength":360,"byteOffset":535592,"byteStride":8,"target":34962},{"buffer":0,"byteLength":180,"byteOffset":535952,"byteStride":4,"target":34962},{"buffer":0,"byteLength":90,"byteOffset":536132,"target":34963},{"buffer":0,"byteLength":18648,"byteOffset":536224,"byteStride":8,"target":34962},{"buffer":0,"byteLength":9324,"byteOffset":554872,"byteStride":4,"target":34962},{"buffer":0,"byteLength":4662,"byteOffset":564196,"target":34963},{"buffer":0,"byteLength":192,"byteOffset":568860,"byteStride":8,"target":34962},{"buffer":0,"byteLength":96,"byteOffset":569052,"byteStride":4,"target":34962},{"buffer":0,"byteLength":48,"byteOffset":569148,"target":34963},{"buffer":0,"byteLength":3576,"byteOffset":569196,"byteStride":8,"target":34962},{"buffer":0,"byteLength":1788,"byteOffset":572772,"byteStride":4,"target":34962},{"buffer":0,"byteLength":894,"byteOffset":574560,"target":34963},{"buffer":0,"byteLength":1152,"byteOffset":575456,"byteStride":8,"target":34962},{"buffer":0,"byteLength":576,"byteOffset":576608,"byteStride":4,"target":34962},{"buffer":0,"byteLength":1344,"byteOffset":577184,"target":34963},{"buffer":0,"byteLength":3072,"byteOffset":578528,"byteStride":8,"target":34962},{"buffer":0,"byteLength":1536,"byteOffset":581600,"byteStride":4,"target":34962},{"buffer":0,"byteLength":1056,"byteOffset":583136,"target":34963},{"buffer":0,"byteLength":12096,"byteOffset":584192,"byteStride":8,"target":34962},{"buffer":0,"byteLength":6048,"byteOffset":596288,"byteStride":4,"target":34962},{"buffer":0,"byteLength":5016,"byteOffset":602336,"target":34963},{"buffer":0,"byteLength":432832,"byteOffset":607352,"byteStride":8,"target":34962},{"buffer":0,"byteLength":216416,"byteOffset":1040184,"byteStride":4,"target":34962},{"buffer":0,"byteLength":159792,"byteOffset":1256600,"target":34963},{"buffer":0,"byteLength":720,"byteOffset":1416392,"byteStride":8,"target":34962},{"buffer":0,"byteLength":360,"byteOffset":1417112,"byteStride":4,"target":34962},{"buffer":0,"byteLength":276,"byteOffset":1417472,"target":34963},{"buffer":0,"byteLength":33216,"byteOffset":1417748,"byteStride":8,"target":34962},{"buffer":0,"byteLength":16608,"byteOffset":1450964,"byteStride":4,"target":34962},{"buffer":0,"byteLength":12096,"byteOffset":1467572,"target":34963},{"buffer":0,"byteLength":13216,"byteOffset":1479668,"byteStride":8,"target":34962},{"buffer":0,"byteLength":6608,"byteOffset":1492884,"byteStride":4,"target":34962},{"buffer":0,"byteLength":4548,"byteOffset":1499492,"target":34963},{"buffer":0,"byteLength":3584,"byteOffset":1504040,"byteStride":8,"target":34962},{"buffer":0,"byteLength":1792,"byteOffset":1507624,"byteStride":4,"target":34962},{"buffer":0,"byteLength":1440,"byteOffset":1509416,"target":34963},{"buffer":0,"byteLength":8096,"byteOffset":1510856,"byteStride":8,"target":34962},{"buffer":0,"byteLength":4048,"byteOffset":1518952,"byteStride":4,"target":34962},{"buffer":0,"byteLength":4048,"byteOffset":1523000,"byteStride":4,"target":34962},{"buffer":0,"byteLength":3084,"byteOffset":1527048,"target":34963},{"buffer":0,"byteLength":4384,"byteOffset":1530132,"byteStride":8,"target":34962},{"buffer":0,"byteLength":2192,"byteOffset":1534516,"byteStride":4,"target":34962},{"buffer":0,"byteLength":2192,"byteOffset":1536708,"byteStride":4,"target":34962},{"buffer":0,"byteLength":1644,"byteOffset":1538900,"target":34963},{"buffer":0,"byteLength":1904,"byteOffset":1540544,"byteStride":8,"target":34962},{"buffer":0,"byteLength":952,"byteOffset":1542448,"byteStride":4,"target":34962},{"buffer":0,"byteLength":1512,"byteOffset":1543400,"target":34963},{"buffer":0,"byteLength":2568,"byteOffset":1544912,"byteStride":8,"target":34962},{"buffer":0,"byteLength":1284,"byteOffset":1547480,"byteStride":4,"target":34962},{"buffer":0,"byteLength":642,"byteOffset":1548764,"target":34963},{"buffer":0,"byteLength":299352,"byteOffset":1549408,"byteStride":8,"target":34962},{"buffer":0,"byteLength":149676,"byteOffset":1848760,"byteStride":4,"target":34962},{"buffer":0,"byteLength":74838,"byteOffset":1998436,"target":34963},{"buffer":0,"byteLength":504,"byteOffset":2073276,"byteStride":8,"target":34962},{"buffer":0,"byteLength":252,"byteOffset":2073780,"byteStride":4,"target":34962},{"buffer":0,"byteLength":126,"byteOffset":2074032,"target":34963},{"buffer":0,"byteLength":42144,"byteOffset":2074160,"byteStride":8,"target":34962},{"buffer":0,"byteLength":21072,"byteOffset":2116304,"byteStride":4,"target":34962},{"buffer":0,"byteLength":21072,"byteOffset":2137376,"byteStride":4,"target":34962},{"buffer":0,"byteLength":10536,"byteOffset":2158448,"target":34963},{"buffer":0,"byteLength":9000,"byteOffset":2168984,"byteStride":8,"target":34962},{"buffer":0,"byteLength":4500,"byteOffset":2177984,"byteStride":4,"target":34962},{"buffer":0,"byteLength":2250,"byteOffset":2182484,"target":34963},{"buffer":0,"byteLength":5736,"byteOffset":2184736,"byteStride":8,"target":34962},{"buffer":0,"byteLength":2868,"byteOffset":2190472,"byteStride":4,"target":34962},{"buffer":0,"byteLength":2868,"byteOffset":2193340,"byteStride":4,"target":34962},{"buffer":0,"byteLength":1434,"byteOffset":2196208,"target":34963},{"buffer":0,"byteLength":88872,"byteOffset":2197644,"byteStride":8,"target":34962},{"buffer":0,"byteLength":44436,"byteOffset":2286516,"byteStride":4,"target":34962},{"buffer":0,"byteLength":22218,"byteOffset":2330952,"target":34963},{"buffer":0,"byteLength":16224,"byteOffset":2353172,"byteStride":8,"target":34962},{"buffer":0,"byteLength":8112,"byteOffset":2369396,"byteStride":4,"target":34962},{"buffer":0,"byteLength":8112,"byteOffset":2377508,"byteStride":4,"target":34962},{"buffer":0,"byteLength":4056,"byteOffset":2385620,"target":34963},{"buffer":0,"byteLength":1752,"byteOffset":2389676,"byteStride":8,"target":34962},{"buffer":0,"byteLength":876,"byteOffset":2391428,"byteStride":4,"target":34962},{"buffer":0,"byteLength":876,"byteOffset":2392304,"byteStride":4,"target":34962},{"buffer":0,"byteLength":438,"byteOffset":2393180,"target":34963},{"buffer":0,"byteLength":19176,"byteOffset":2393620,"byteStride":8,"target":34962},{"buffer":0,"byteLength":9588,"byteOffset":2412796,"byteStride":4,"target":34962},{"buffer":0,"byteLength":9588,"byteOffset":2422384,"byteStride":4,"target":34962},{"buffer":0,"byteLength":4794,"byteOffset":2431972,"target":34963},{"buffer":0,"byteLength":312,"byteOffset":2436768,"byteStride":8,"target":34962},{"buffer":0,"byteLength":156,"byteOffset":2437080,"byteStride":4,"target":34962},{"buffer":0,"byteLength":156,"byteOffset":2437236,"byteStride":4,"target":34962},{"buffer":0,"byteLength":78,"byteOffset":2437392,"target":34963},{"buffer":0,"byteLength":12672,"byteOffset":2437472,"target":34962},{"buffer":0,"byteLength":4224,"byteOffset":2450144,"byteStride":4,"target":34962},{"buffer":0,"byteLength":3240,"byteOffset":2454368,"target":34963},{"buffer":0,"byteLength":9216,"byteOffset":2457608,"target":34962},{"buffer":0,"byteLength":3072,"byteOffset":2466824,"byteStride":4,"target":34962},{"buffer":0,"byteLength":1536,"byteOffset":2469896,"target":34963},{"buffer":0,"byteLength":2592,"byteOffset":2471432,"target":34962},{"buffer":0,"byteLength":864,"byteOffset":2474024,"byteStride":4,"target":34962},{"buffer":0,"byteLength":432,"byteOffset":2474888,"target":34963},{"buffer":0,"byteLength":432,"byteOffset":2475320,"target":34962},{"buffer":0,"byteLength":144,"byteOffset":2475752,"byteStride":4,"target":34962},{"buffer":0,"byteLength":72,"byteOffset":2475896,"target":34963},{"buffer":0,"byteLength":32256,"byteOffset":2475968,"target":34962},{"buffer":0,"byteLength":10752,"byteOffset":2508224,"byteStride":4,"target":34962},{"buffer":0,"byteLength":7392,"byteOffset":2518976,"target":34963},{"buffer":0,"byteLength":19728,"byteOffset":2526368,"target":34962},{"buffer":0,"byteLength":6576,"byteOffset":2546096,"byteStride":4,"target":34962},{"buffer":0,"byteLength":3288,"byteOffset":2552672,"target":34963},{"buffer":0,"byteLength":6048,"byteOffset":2555960,"target":34962},{"buffer":0,"byteLength":2016,"byteOffset":2562008,"byteStride":4,"target":34962},{"buffer":0,"byteLength":1008,"byteOffset":2564024,"target":34963},{"buffer":0,"byteLength":1080,"byteOffset":2565032,"target":34962},{"buffer":0,"byteLength":360,"byteOffset":2566112,"byteStride":4,"target":34962},{"buffer":0,"byteLength":180,"byteOffset":2566472,"target":34963},{"buffer":0,"byteLength":1152,"byteOffset":2566652,"target":34962},{"buffer":0,"byteLength":384,"byteOffset":2567804,"byteStride":4,"target":34962},{"buffer":0,"byteLength":264,"byteOffset":2568188,"target":34963},{"buffer":0,"byteLength":10944,"byteOffset":2568452,"target":34962},{"buffer":0,"byteLength":3648,"byteOffset":2579396,"byteStride":4,"target":34962},{"buffer":0,"byteLength":2592,"byteOffset":2583044,"target":34963},{"buffer":0,"byteLength":1152,"byteOffset":2585636,"target":34962},{"buffer":0,"byteLength":384,"byteOffset":2586788,"byteStride":4,"target":34962},{"buffer":0,"byteLength":264,"byteOffset":2587172,"target":34963},{"buffer":0,"byteLength":720,"byteOffset":2587436,"target":34962},{"buffer":0,"byteLength":240,"byteOffset":2588156,"byteStride":4,"target":34962},{"buffer":0,"byteLength":120,"byteOffset":2588396,"target":34963},{"buffer":0,"byteLength":7056,"byteOffset":2588516,"target":34962},{"buffer":0,"byteLength":2352,"byteOffset":2595572,"byteStride":4,"target":34962},{"buffer":0,"byteLength":1176,"byteOffset":2597924,"target":34963},{"buffer":0,"byteLength":720,"byteOffset":2599100,"target":34962},{"buffer":0,"byteLength":240,"byteOffset":2599820,"byteStride":4,"target":34962},{"buffer":0,"byteLength":120,"byteOffset":2600060,"target":34963},{"buffer":0,"byteLength":432,"byteOffset":2600180,"target":34962},{"buffer":0,"byteLength":144,"byteOffset":2600612,"byteStride":4,"target":34962},{"buffer":0,"byteLength":72,"byteOffset":2600756,"target":34963},{"buffer":0,"byteLength":2016,"byteOffset":2600828,"target":34962},{"buffer":0,"byteLength":672,"byteOffset":2602844,"byteStride":4,"target":34962},{"buffer":0,"byteLength":336,"byteOffset":2603516,"target":34963},{"buffer":0,"byteLength":288,"byteOffset":2603852,"target":34962},{"buffer":0,"byteLength":96,"byteOffset":2604140,"byteStride":4,"target":34962},{"buffer":0,"byteLength":48,"byteOffset":2604236,"target":34963},{"buffer":0,"byteLength":432,"byteOffset":2604284,"target":34962},{"buffer":0,"byteLength":144,"byteOffset":2604716,"byteStride":4,"target":34962},{"buffer":0,"byteLength":72,"byteOffset":2604860,"target":34963},{"buffer":0,"byteLength":1080,"byteOffset":2604932,"target":34962},{"buffer":0,"byteLength":360,"byteOffset":2606012,"byteStride":4,"target":34962},{"buffer":0,"byteLength":180,"byteOffset":2606372,"target":34963},{"buffer":0,"byteLength":1152,"byteOffset":2606552,"target":34962},{"buffer":0,"byteLength":384,"byteOffset":2607704,"byteStride":4,"target":34962},{"buffer":0,"byteLength":264,"byteOffset":2608088,"target":34963},{"buffer":0,"byteLength":10944,"byteOffset":2608352,"target":34962},{"buffer":0,"byteLength":3648,"byteOffset":2619296,"byteStride":4,"target":34962},{"buffer":0,"byteLength":2592,"byteOffset":2622944,"target":34963},{"buffer":0,"byteLength":1152,"byteOffset":2625536,"target":34962},{"buffer":0,"byteLength":384,"byteOffset":2626688,"byteStride":4,"target":34962},{"buffer":0,"byteLength":264,"byteOffset":2627072,"target":34963},{"buffer":0,"byteLength":720,"byteOffset":2627336,"target":34962},{"buffer":0,"byteLength":240,"byteOffset":2628056,"byteStride":4,"target":34962},{"buffer":0,"byteLength":120,"byteOffset":2628296,"target":34963},{"buffer":0,"byteLength":7344,"byteOffset":2628416,"target":34962},{"buffer":0,"byteLength":2448,"byteOffset":2635760,"byteStride":4,"target":34962},{"buffer":0,"byteLength":1224,"byteOffset":2638208,"target":34963},{"buffer":0,"byteLength":720,"byteOffset":2639432,"target":34962},{"buffer":0,"byteLength":240,"byteOffset":2640152,"byteStride":4,"target":34962},{"buffer":0,"byteLength":120,"byteOffset":2640392,"target":34963},{"buffer":0,"byteLength":432,"byteOffset":2640512,"target":34962},{"buffer":0,"byteLength":144,"byteOffset":2640944,"byteStride":4,"target":34962},{"buffer":0,"byteLength":72,"byteOffset":2641088,"target":34963},{"buffer":0,"byteLength":2016,"byteOffset":2641160,"target":34962},{"buffer":0,"byteLength":672,"byteOffset":2643176,"byteStride":4,"target":34962},{"buffer":0,"byteLength":336,"byteOffset":2643848,"target":34963},{"buffer":0,"byteLength":288,"byteOffset":2644184,"target":34962},{"buffer":0,"byteLength":96,"byteOffset":2644472,"byteStride":4,"target":34962},{"buffer":0,"byteLength":48,"byteOffset":2644568,"target":34963},{"buffer":0,"byteLength":432,"byteOffset":2644616,"target":34962},{"buffer":0,"byteLength":144,"byteOffset":2645048,"byteStride":4,"target":34962},{"buffer":0,"byteLength":72,"byteOffset":2645192,"target":34963},{"buffer":0,"byteLength":1080,"byteOffset":2645264,"target":34962},{"buffer":0,"byteLength":360,"byteOffset":2646344,"byteStride":4,"target":34962},{"buffer":0,"byteLength":180,"byteOffset":2646704,"target":34963},{"buffer":0,"byteLength":1152,"byteOffset":2646884,"target":34962},{"buffer":0,"byteLength":384,"byteOffset":2648036,"byteStride":4,"target":34962},{"buffer":0,"byteLength":264,"byteOffset":2648420,"target":34963},{"buffer":0,"byteLength":8064,"byteOffset":2648684,"target":34962},{"buffer":0,"byteLength":2688,"byteOffset":2656748,"byteStride":4,"target":34962},{"buffer":0,"byteLength":1872,"byteOffset":2659436,"target":34963},{"buffer":0,"byteLength":1152,"byteOffset":2661308,"target":34962},{"buffer":0,"byteLength":384,"byteOffset":2662460,"byteStride":4,"target":34962},{"buffer":0,"byteLength":264,"byteOffset":2662844,"target":34963},{"buffer":0,"byteLength":720,"byteOffset":2663108,"target":34962},{"buffer":0,"byteLength":240,"byteOffset":2663828,"byteStride":4,"target":34962},{"buffer":0,"byteLength":120,"byteOffset":2664068,"target":34963},{"buffer":0,"byteLength":5472,"byteOffset":2664188,"target":34962},{"buffer":0,"byteLength":1824,"byteOffset":2669660,"byteStride":4,"target":34962},{"buffer":0,"byteLength":912,"byteOffset":2671484,"target":34963},{"buffer":0,"byteLength":720,"byteOffset":2672396,"target":34962},{"buffer":0,"byteLength":240,"byteOffset":2673116,"byteStride":4,"target":34962},{"buffer":0,"byteLength":120,"byteOffset":2673356,"target":34963},{"buffer":0,"byteLength":432,"byteOffset":2673476,"target":34962},{"buffer":0,"byteLength":144,"byteOffset":2673908,"byteStride":4,"target":34962},{"buffer":0,"byteLength":72,"byteOffset":2674052,"target":34963},{"buffer":0,"byteLength":1728,"byteOffset":2674124,"target":34962},{"buffer":0,"byteLength":576,"byteOffset":2675852,"byteStride":4,"target":34962},{"buffer":0,"byteLength":288,"byteOffset":2676428,"target":34963},{"buffer":0,"byteLength":288,"byteOffset":2676716,"target":34962},{"buffer":0,"byteLength":96,"byteOffset":2677004,"byteStride":4,"target":34962},{"buffer":0,"byteLength":48,"byteOffset":2677100,"target":34963},{"buffer":0,"byteLength":432,"byteOffset":2677148,"target":34962},{"buffer":0,"byteLength":144,"byteOffset":2677580,"byteStride":4,"target":34962},{"buffer":0,"byteLength":72,"byteOffset":2677724,"target":34963},{"buffer":0,"byteLength":1080,"byteOffset":2677796,"target":34962},{"buffer":0,"byteLength":360,"byteOffset":2678876,"byteStride":4,"target":34962},{"buffer":0,"byteLength":180,"byteOffset":2679236,"target":34963},{"buffer":0,"byteLength":768,"byteOffset":2679416,"byteStride":4,"target":34962},{"buffer":0,"byteLength":34136,"byteOffset":2680184,"byteStride":4,"target":34962},{"buffer":0,"byteLength":768,"byteOffset":2714320,"byteStride":4,"target":34962},{"buffer":0,"byteLength":480,"byteOffset":2715088,"byteStride":4,"target":34962},{"buffer":0,"byteLength":21252,"byteOffset":2715568,"byteStride":4,"target":34962},{"buffer":0,"byteLength":480,"byteOffset":2736820,"byteStride":4,"target":34962},{"buffer":0,"byteLength":144,"byteOffset":2737300,"byteStride":4,"target":34962},{"buffer":0,"byteLength":6324,"byteOffset":2737444,"byteStride":4,"target":34962},{"buffer":0,"byteLength":96,"byteOffset":2743768,"byteStride":4,"target":34962},{"buffer":0,"byteLength":1092,"byteOffset":2743864,"byteStride":4,"target":34962},{"buffer":0,"byteLength":8832,"byteOffset":2744956,"byteStride":4,"target":34962},{"buffer":0,"byteLength":1152,"byteOffset":2753788,"byteStride":4,"target":34962},{"buffer":0,"byteLength":768,"byteOffset":2754940,"byteStride":4,"target":34962},{"buffer":0,"byteLength":10560,"byteOffset":2755708,"byteStride":4,"target":34962},{"buffer":0,"byteLength":1152,"byteOffset":2766268,"byteStride":4,"target":34962},{"buffer":0,"byteLength":1152,"byteOffset":2767420,"byteStride":4,"target":34962},{"buffer":0,"byteLength":26112,"byteOffset":2768572,"byteStride":4,"target":34962},{"buffer":0,"byteLength":7512,"byteOffset":2794684,"byteStride":4,"target":34962},{"buffer":0,"byteLength":720,"byteOffset":2802196,"byteStride":4,"target":34962},{"buffer":0,"byteLength":696,"byteOffset":2802916,"byteStride":4,"target":34962},{"buffer":0,"byteLength":23604,"byteOffset":2803612,"byteStride":4,"target":34962},{"buffer":0,"byteLength":144,"byteOffset":2827216,"byteStride":4,"target":34962},{"buffer":0,"byteLength":180,"byteOffset":2827360,"byteStride":4,"target":34962},{"buffer":0,"byteLength":9324,"byteOffset":2827540,"byteStride":4,"target":34962},{"buffer":0,"byteLength":96,"byteOffset":2836864,"byteStride":4,"target":34962},{"buffer":0,"byteLength":1788,"byteOffset":2836960,"byteStride":4,"target":34962},{"buffer":0,"byteLength":576,"byteOffset":2838748,"byteStride":4,"target":34962},{"buffer":0,"byteLength":1536,"byteOffset":2839324,"byteStride":4,"target":34962},{"buffer":0,"byteLength":6048,"byteOffset":2840860,"byteStride":4,"target":34962},{"buffer":0,"byteLength":216416,"byteOffset":2846908,"byteStride":4,"target":34962},{"buffer":0,"byteLength":360,"byteOffset":3063324,"byteStride":4,"target":34962},{"buffer":0,"byteLength":16608,"byteOffset":3063684,"byteStride":4,"target":34962},{"buffer":0,"byteLength":6608,"byteOffset":3080292,"byteStride":4,"target":34962},{"buffer":0,"byteLength":1792,"byteOffset":3086900,"byteStride":4,"target":34962},{"buffer":0,"byteLength":4048,"byteOffset":3088692,"byteStride":4,"target":34962},{"buffer":0,"byteLength":2192,"byteOffset":3092740,"byteStride":4,"target":34962},{"buffer":0,"byteLength":952,"byteOffset":3094932,"byteStride":4,"target":34962},{"buffer":0,"byteLength":1284,"byteOffset":3095884,"byteStride":4,"target":34962},{"buffer":0,"byteLength":149676,"byteOffset":3097168,"byteStride":4,"target":34962},{"buffer":0,"byteLength":252,"byteOffset":3246844,"byteStride":4,"target":34962},{"buffer":0,"byteLength":21072,"byteOffset":3247096,"byteStride":4,"target":34962},{"buffer":0,"byteLength":4500,"byteOffset":3268168,"byteStride":4,"target":34962},{"buffer":0,"byteLength":2868,"byteOffset":3272668,"byteStride":4,"target":34962},{"buffer":0,"byteLength":44436,"byteOffset":3275536,"byteStride":4,"target":34962},{"buffer":0,"byteLength":8112,"byteOffset":3319972,"byteStride":4,"target":34962},{"buffer":0,"byteLength":876,"byteOffset":3328084,"byteStride":4,"target":34962},{"buffer":0,"byteLength":9588,"byteOffset":3328960,"byteStride":4,"target":34962},{"buffer":0,"byteLength":156,"byteOffset":3338548,"byteStride":4,"target":34962},{"buffer":0,"byteLength":4224,"byteOffset":3338704,"byteStride":4,"target":34962},{"buffer":0,"byteLength":3072,"byteOffset":3342928,"byteStride":4,"target":34962},{"buffer":0,"byteLength":864,"byteOffset":3346000,"byteStride":4,"target":34962},{"buffer":0,"byteLength":144,"byteOffset":3346864,"byteStride":4,"target":34962},{"buffer":0,"byteLength":10752,"byteOffset":3347008,"byteStride":4,"target":34962},{"buffer":0,"byteLength":6576,"byteOffset":3357760,"byteStride":4,"target":34962},{"buffer":0,"byteLength":2016,"byteOffset":3364336,"byteStride":4,"target":34962},{"buffer":0,"byteLength":360,"byteOffset":3366352,"byteStride":4,"target":34962},{"buffer":0,"byteLength":384,"byteOffset":3366712,"byteStride":4,"target":34962},{"buffer":0,"byteLength":3648,"byteOffset":3367096,"byteStride":4,"target":34962},{"buffer":0,"byteLength":384,"byteOffset":3370744,"byteStride":4,"target":34962},{"buffer":0,"byteLength":240,"byteOffset":3371128,"byteStride":4,"target":34962},{"buffer":0,"byteLength":2352,"byteOffset":3371368,"byteStride":4,"target":34962},{"buffer":0,"byteLength":240,"byteOffset":3373720,"byteStride":4,"target":34962},{"buffer":0,"byteLength":144,"byteOffset":3373960,"byteStride":4,"target":34962},{"buffer":0,"byteLength":672,"byteOffset":3374104,"byteStride":4,"target":34962},{"buffer":0,"byteLength":96,"byteOffset":3374776,"byteStride":4,"target":34962},{"buffer":0,"byteLength":144,"byteOffset":3374872,"byteStride":4,"target":34962},{"buffer":0,"byteLength":360,"byteOffset":3375016,"byteStride":4,"target":34962},{"buffer":0,"byteLength":384,"byteOffset":3375376,"byteStride":4,"target":34962},{"buffer":0,"byteLength":3648,"byteOffset":3375760,"byteStride":4,"target":34962},{"buffer":0,"byteLength":384,"byteOffset":3379408,"byteStride":4,"target":34962},{"buffer":0,"byteLength":240,"byteOffset":3379792,"byteStride":4,"target":34962},{"buffer":0,"byteLength":2448,"byteOffset":3380032,"byteStride":4,"target":34962},{"buffer":0,"byteLength":240,"byteOffset":3382480,"byteStride":4,"target":34962},{"buffer":0,"byteLength":144,"byteOffset":3382720,"byteStride":4,"target":34962},{"buffer":0,"byteLength":672,"byteOffset":3382864,"byteStride":4,"target":34962},{"buffer":0,"byteLength":96,"byteOffset":3383536,"byteStride":4,"target":34962},{"buffer":0,"byteLength":144,"byteOffset":3383632,"byteStride":4,"target":34962},{"buffer":0,"byteLength":360,"byteOffset":3383776,"byteStride":4,"target":34962},{"buffer":0,"byteLength":384,"byteOffset":3384136,"byteStride":4,"target":34962},{"buffer":0,"byteLength":2688,"byteOffset":3384520,"byteStride":4,"target":34962},{"buffer":0,"byteLength":384,"byteOffset":3387208,"byteStride":4,"target":34962},{"buffer":0,"byteLength":240,"byteOffset":3387592,"byteStride":4,"target":34962},{"buffer":0,"byteLength":1824,"byteOffset":3387832,"byteStride":4,"target":34962},{"buffer":0,"byteLength":240,"byteOffset":3389656,"byteStride":4,"target":34962},{"buffer":0,"byteLength":144,"byteOffset":3389896,"byteStride":4,"target":34962},{"buffer":0,"byteLength":576,"byteOffset":3390040,"byteStride":4,"target":34962},{"buffer":0,"byteLength":96,"byteOffset":3390616,"byteStride":4,"target":34962},{"buffer":0,"byteLength":144,"byteOffset":3390712,"byteStride":4,"target":34962},{"buffer":0,"byteLength":360,"byteOffset":3390856,"byteStride":4,"target":34962}],"buffers":[{"byteLength":3391216,"uri":"fish_eatery.bin"}],"extensionsRequired":["KHR_mesh_quantization","KHR_texture_transform"],"extensionsUsed":["KHR_mesh_quantization","KHR_texture_transform","MSFT_lod"],"extras":{"hm":{"batching":true,"cellSize":16.0,"cells":[{"cullAt":null,"interior":null,"key":"1_n4","lodPrims":[3,3,2,2],"lodTris":[4292,1851,539,99],"max":[32.566,3.28,-51.945],"min":[29.987,-1.727,-60.509]},{"cullAt":null,"interior":null,"key":"2_n3","lodPrims":[7,4,3,2],"lodTris":[5788,2711,804,157],"max":[38.632,3.94,-41.958],"min":[32.039,-1.05,-47.903]},{"cullAt":null,"interior":null,"key":"2_n4","lodPrims":[11,6,3,2],"lodTris":[31968,14971,4452,812],"max":[43.203,8.895,-43.604],"min":[29.47,-1.89,-60.545]}],"instanced":[],"instancing":true,"interiors":[],"lod":true,"lodDistances":[15.0,40.0,100.0],"stats":{"groups":3,"lodPrims":[21,13,8,6],"lodTris":[42048,19533,5795,1068]},"venue":"fish_eatery"}},"images":[{"uri":"../textures/kit_albedo.png"},{"uri":"../textures/kit_orm.png"},{"uri":"../textures/kit_normal.png"},{"uri":"../textures/glass_albedo.png"},{"uri":"../textures/glass_orm.png"},{"uri":"../textures/glass_normal.png"},{"uri":"../textures/glass_emissive.png"},{"uri":"../textures/stone_albedo.png"},{"uri":"../textures/stone_orm.png"},{"uri":"../textures/stone_normal.png"},{"uri":"../textures/rubble_albedo.png"},{"uri":"../textures/rubble_orm.png"},{"uri":"../textures/rubble_normal.png"},{"uri":"../textures/oak_dark_albedo.png"},{"uri":"../textures/oak_dark_orm.png"},{"uri":"../textures/oak_dark_normal.png"},{"uri":"../textures/terracotta_albedo.png"},{"uri":"../textures/terracotta_orm.png"},{"uri":"../textures/terracotta_normal.png"},{"uri":"../textures/canvas_slate_albedo.png"},{"uri":"../textures/canvas_slate_orm.png"},{"uri":"../textures/canvas_slate_normal.png"},{"uri":"../textures/sugar_albedo.png"},{"uri":"../textures/sugar_orm.png"},{"uri":"../textures/sugar_normal.png"},{"uri":"../textures/water_albedo.png"},{"uri":"../textures/water_orm.png"},{"uri":"../textures/water_normal.png"},{"uri":"../textures/wool_crimson_albedo.png"},{"uri":"../textures/wool_crimson_orm.png"},{"uri":"../textures/wool_crimson_normal.png"},{"uri":"../textures/timber_charred_albedo.png"},{"uri":"../textures/timber_charred_orm.png"},{"uri":"../textures/timber_charred_normal.png"},{"uri":"../textures/coal_albedo.png"},{"uri":"../textures/coal_orm.png"},{"uri":"../textures/coal_normal.png"},{"uri":"../textures/coal_emissive.png"},{"uri":"../textures/cinder_albedo.png"},{"uri":"../textures/cinder_orm.png"},{"uri":"../textures/cinder_normal.png"},{"uri":"../textures/grass_worn_albedo.png"},{"uri":"../textures/grass_worn_orm.png"},{"uri":"../textures/grass_worn_normal.png"}],"materials":[{"doubleSided":true,"name":"kit","normalTexture":{"extensions":{"KHR_texture_transform":{"scale":[56.93293833647347,56.93293833647347]}},"index":2,"scale":1.0},"occlusionTexture":{"extensions":{"KHR_texture_transform":{"scale":[56.93293833647347,56.93293833647347]}},"index":1},"pbrMetallicRoughness":{"baseColorFactor":[1,1,1,1],"baseColorTexture":{"extensions":{"KHR_texture_transform":{"scale":[56.93293833647347,56.93293833647347]}},"index":0},"metallicFactor":1.0,"metallicRoughnessTexture":{"extensions":{"KHR_texture_transform":{"scale":[56.93293833647347,56.93293833647347]}},"index":1},"roughnessFactor":1.0}},{"alphaMode":"BLEND","doubleSided":true,"emissiveFactor":[1.0,1.0,1.0],"emissiveTexture":{"extensions":{"KHR_texture_transform":{"scale":[56.93293833647347,56.93293833647347]}},"index":6},"name":"glass","normalTexture":{"extensions":{"KHR_texture_transform":{"scale":[56.93293833647347,56.93293833647347]}},"index":5,"scale":1.0},"occlusionTexture":{"extensions":{"KHR_texture_transform":{"scale":[56.93293833647347,56.93293833647347]}},"index":4},"pbrMetallicRoughness":{"baseColorFactor":[1,1,1,1],"baseColorTexture":{"extensions":{"KHR_texture_transform":{"scale":[56.93293833647347,56.93293833647347]}},"index":3},"metallicFactor":1.0,"metallicRoughnessTexture":{"extensions":{"KHR_texture_transform":{"scale":[56.93293833647347,56.93293833647347]}},"index":4},"roughnessFactor":1.0}},{"doubleSided":false,"name":"stone","normalTexture":{"extensions":{"KHR_texture_transform":{"scale":[56.93293833647347,56.93293833647347]}},"index":9,"scale":1.0},"occlusionTexture":{"extensions":{"KHR_texture_transform":{"scale":[56.93293833647347,56.93293833647347]}},"index":8},"pbrMetallicRoughness":{"baseColorFactor":[1,1,1,1],"baseColorTexture":{"extensions":{"KHR_texture_transform":{"scale":[56.93293833647347,56.93293833647347]}},"index":7},"metallicFactor":1.0,"metallicRoughnessTexture":{"extensions":{"KHR_texture_transform":{"scale":[56.93293833647347,56.93293833647347]}},"index":8},"roughnessFactor":1.0}},{"doubleSided":false,"name":"rubble","normalTexture":{"extensions":{"KHR_texture_transform":{"scale":[56.93293833647347,56.93293833647347]}},"index":12,"scale":1.0},"occlusionTexture":{"extensions":{"KHR_texture_transform":{"scale":[56.93293833647347,56.93293833647347]}},"index":11},"pbrMetallicRoughness":{"baseColorFactor":[1,1,1,1],"baseColorTexture":{"extensions":{"KHR_texture_transform":{"scale":[56.93293833647347,56.93293833647347]}},"index":10},"metallicFactor":1.0,"metallicRoughnessTexture":{"extensions":{"KHR_texture_transform":{"scale":[56.93293833647347,56.93293833647347]}},"index":11},"roughnessFactor":1.0}},{"doubleSided":false,"name":"oak_dark","normalTexture":{"extensions":{"KHR_texture_transform":{"scale":[56.93293833647347,56.93293833647347]}},"index":15,"scale":1.0},"occlusionTexture":{"extensions":{"KHR_texture_transform":{"scale":[56.93293833647347,56.93293833647347]}},"index":14},"pbrMetallicRoughness":{"baseColorFactor":[1,1,1,1],"baseColorTexture":{"extensions":{"KHR_texture_transform":{"scale":[56.93293833647347,56.93293833647347]}},"index":13},"metallicFactor":1.0,"metallicRoughnessTexture":{"extensions":{"KHR_texture_transform":{"scale":[56.93293833647347,56.93293833647347]}},"index":14},"roughnessFactor":1.0}},{"doubleSided":false,"name":"terracotta","normalTexture":{"extensions":{"KHR_texture_transform":{"scale":[56.93293833647347,56.93293833647347]}},"index":18,"scale":1.0},"occlusionTexture":{"extensions":{"KHR_texture_transform":{"scale":[56.93293833647347,56.93293833647347]}},"index":17},"pbrMetallicRoughness":{"baseColorFactor":[1,1,1,1],"baseColorTexture":{"extensions":{"KHR_texture_transform":{"scale":[56.93293833647347,56.93293833647347]}},"index":16},"metallicFactor":1.0,"metallicRoughnessTexture":{"extensions":{"KHR_texture_transform":{"scale":[56.93293833647347,56.93293833647347]}},"index":17},"roughnessFactor":1.0}},{"doubleSided":true,"name":"canvas_slate","normalTexture":{"extensions":{"KHR_texture_transform":{"scale":[56.93293833647347,56.93293833647347]}},"index":21,"scale":1.0},"occlusionTexture":{"extensions":{"KHR_texture_transform":{"scale":[56.93293833647347,56.93293833647347]}},"index":20},"pbrMetallicRoughness":{"baseColorFactor":[1,1,1,1],"baseColorTexture":{"extensions":{"KHR_texture_transform":{"scale":[56.93293833647347,56.93293833647347]}},"index":19},"metallicFactor":1.0,"metallicRoughnessTexture":{"extensions":{"KHR_texture_transform":{"scale":[56.93293833647347,56.93293833647347]}},"index":20},"roughnessFactor":1.0}},{"doubleSided":false,"name":"sugar","normalTexture":{"extensions":{"KHR_texture_transform":{"scale":[56.93293833647347,56.93293833647347]}},"index":24,"scale":1.0},"occlusionTexture":{"extensions":{"KHR_texture_transform":{"scale":[56.93293833647347,56.93293833647347]}},"index":23},"pbrMetallicRoughness":{"baseColorFactor":[1,1,1,1],"baseColorTexture":{"extensions":{"KHR_texture_transform":{"scale":[56.93293833647347,56.93293833647347]}},"index":22},"metallicFactor":1.0,"metallicRoughnessTexture":{"extensions":{"KHR_texture_transform":{"scale":[56.93293833647347,56.93293833647347]}},"index":23},"roughnessFactor":1.0}},{"alphaMode":"BLEND","doubleSided":false,"name":"water","normalTexture":{"extensions":{"KHR_texture_transform":{"scale":[56.93293833647347,56.93293833647347]}},"index":27,"scale":1.0},"occlusionTexture":{"extensions":{"KHR_texture_transform":{"scale":[56.93293833647347,56.93293833647347]}},"index":26},"pbrMetallicRoughness":{"baseColorFactor":[1,1,1,1],"baseColorTexture":{"extensions":{"KHR_texture_transform":{"scale":[56.93293833647347,56.93293833647347]}},"index":25},"metallicFactor":1.0,"metallicRoughnessTexture":{"extensions":{"KHR_texture_transform":{"scale":[56.93293833647347,56.93293833647347]}},"index":26},"roughnessFactor":1.0}},{"doubleSided":false,"name":"wool_crimson","normalTexture":{"extensions":{"KHR_texture_transform":{"scale":[56.93293833647347,56.93293833647347]}},"index":30,"scale":1.0},"occlusionTexture":{"extensions":{"KHR_texture_transform":{"scale":[56.93293833647347,56.93293833647347]}},"index":29},"pbrMetallicRoughness":{"baseColorFactor":[1,1,1,1],"baseColorTexture":{"extensions":{"KHR_texture_transform":{"scale":[56.93293833647347,56.93293833647347]}},"index":28},"metallicFactor":1.0,"metallicRoughnessTexture":{"extensions":{"KHR_texture_transform":{"scale":[56.93293833647347,56.93293833647347]}},"index":29},"roughnessFactor":1.0}},{"doubleSided":false,"name":"timber_charred","normalTexture":{"extensions":{"KHR_texture_transform":{"scale":[56.93293833647347,56.93293833647347]}},"index":33,"scale":1.0},"occlusionTexture":{"extensions":{"KHR_texture_transform":{"scale":[56.93293833647347,56.93293833647347]}},"index":32},"pbrMetallicRoughness":{"baseColorFactor":[1,1,1,1],"baseColorTexture":{"extensions":{"KHR_texture_transform":{"scale":[56.93293833647347,56.93293833647347]}},"index":31},"metallicFactor":1.0,"metallicRoughnessTexture":{"extensions":{"KHR_texture_transform":{"scale":[56.93293833647347,56.93293833647347]}},"index":32},"roughnessFactor":1.0}},{"doubleSided":false,"emissiveFactor":[1.0,1.0,1.0],"emissiveTexture":{"extensions":{"KHR_texture_transform":{"scale":[56.93293833647347,56.93293833647347]}},"index":37},"name":"coal","normalTexture":{"extensions":{"KHR_texture_transform":{"scale":[56.93293833647347,56.93293833647347]}},"index":36,"scale":1.0},"occlusionTexture":{"extensions":{"KHR_texture_transform":{"scale":[56.93293833647347,56.93293833647347]}},"index":35},"pbrMetallicRoughness":{"baseColorFactor":[1,1,1,1],"baseColorTexture":{"extensions":{"KHR_texture_transform":{"scale":[56.93293833647347,56.93293833647347]}},"index":34},"metallicFactor":1.0,"metallicRoughnessTexture":{"extensions":{"KHR_texture_transform":{"scale":[56.93293833647347,56.93293833647347]}},"index":35},"roughnessFactor":1.0}},{"doubleSided":false,"name":"cinder","normalTexture":{"extensions":{"KHR_texture_transform":{"scale":[56.93293833647347,56.93293833647347]}},"index":40,"scale":1.0},"occlusionTexture":{"extensions":{"KHR_texture_transform":{"scale":[56.93293833647347,56.93293833647347]}},"index":39},"pbrMetallicRoughness":{"baseColorFactor":[1,1,1,1],"baseColorTexture":{"extensions":{"KHR_texture_transform":{"scale":[56.93293833647347,56.93293833647347]}},"index":38},"metallicFactor":1.0,"metallicRoughnessTexture":{"extensions":{"KHR_texture_transform":{"scale":[56.93293833647347,56.93293833647347]}},"index":39},"roughnessFactor":1.0}},{"doubleSided":false,"name":"grass_worn","normalTexture":{"extensions":{"KHR_texture_transform":{"scale":[56.93293833647347,56.93293833647347]}},"index":43,"scale":1.0},"occlusionTexture":{"extensions":{"KHR_texture_transform":{"scale":[56.93293833647347,56.93293833647347]}},"index":42},"pbrMetallicRoughness":{"baseColorFactor":[1,1,1,1],"baseColorTexture":{"extensions":{"KHR_texture_transform":{"scale":[56.93293833647347,56.93293833647347]}},"index":41},"metallicFactor":1.0,"metallicRoughnessTexture":{"extensions":{"KHR_texture_transform":{"scale":[56.93293833647347,56.93293833647347]}},"index":42},"roughnessFactor":1.0}}],"meshes":[{"name":"fish_eatery#1_n4","primitives":[{"attributes":{"NORMAL":1,"POSITION":0,"TEXCOORD_0":275},"indices":2,"material":1},{"attributes":{"NORMAL":4,"POSITION":3,"TEXCOORD_0":276},"indices":5,"material":0},{"attributes":{"NORMAL":7,"POSITION":6,"TEXCOORD_0":277},"indices":8,"material":2}]},{"name":"fish_eatery#1_n4$lod1","primitives":[{"attributes":{"NORMAL":10,"POSITION":9,"TEXCOORD_0":278},"indices":11,"material":1},{"attributes":{"NORMAL":13,"POSITION":12,"TEXCOORD_0":279},"indices":14,"material":0},{"attributes":{"NORMAL":16,"POSITION":15,"TEXCOORD_0":280},"indices":17,"material":2}]},{"name":"fish_eatery#1_n4$lod2","primitives":[{"attributes":{"NORMAL":19,"POSITION":18,"TEXCOORD_0":281},"indices":20,"material":1},{"attributes":{"NORMAL":22,"POSITION":21,"TEXCOORD_0":282},"indices":23,"material":0}]},{"name":"fish_eatery#1_n4$lod3","primitives":[{"attributes":{"NORMAL":25,"POSITION":24,"TEXCOORD_0":283},"indices":26,"material":1},{"attributes":{"NORMAL":28,"POSITION":27,"TEXCOORD_0":284},"indices":29,"material":0}]},{"name":"fish_eatery#2_n3","primitives":[{"attributes":{"NORMAL":31,"POSITION":30,"TEXCOORD_0":285},"indices":32,"material":12},{"attributes":{"NORMAL":34,"POSITION":33,"TEXCOORD_0":286},"indices":35,"material":11},{"attributes":{"NORMAL":37,"POSITION":36,"TEXCOORD_0":287},"indices":38,"material":1},{"attributes":{"NORMAL":40,"POSITION":39,"TEXCOORD_0":288},"indices":41,"material":0},{"attributes":{"NORMAL":43,"POSITION":42,"TEXCOORD_0":289},"indices":44,"material":2},{"attributes":{"NORMAL":46,"POSITION":45,"TEXCOORD_0":290},"indices":47,"material":5},{"attributes":{"NORMAL":49,"POSITION":48,"TEXCOORD_0":291},"indices":50,"material":10}]},{"name":"fish_eatery#2_n3$lod1","primitives":[{"attributes":{"NORMAL":52,"POSITION":51,"TEXCOORD_0":292},"indices":53,"material":0},{"attributes":{"NORMAL":55,"POSITION":54,"TEXCOORD_0":293},"indices":56,"material":2},{"attributes":{"NORMAL":58,"POSITION":57,"TEXCOORD_0":294},"indices":59,"material":5},{"attributes":{"NORMAL":61,"POSITION":60,"TEXCOORD_0":295},"indices":62,"material":10}]},{"name":"fish_eatery#2_n3$lod2","primitives":[{"attributes":{"NORMAL":64,"POSITION":63,"TEXCOORD_0":296},"indices":65,"material":2},{"attributes":{"NORMAL":67,"POSITION":66,"TEXCOORD_0":297},"indices":68,"material":5},{"attributes":{"NORMAL":70,"POSITION":69,"TEXCOORD_0":298},"indices":71,"material":10}]},{"name":"fish_eatery#2_n3$lod3","primitives":[{"attributes":{"NORMAL":73,"POSITION":72,"TEXCOORD_0":299},"indices":74,"material":5},{"attributes":{"NORMAL":76,"POSITION":75,"TEXCOORD_0":300},"indices":77,"material":10}]},{"name":"fish_eatery#2_n4","primitives":[{"attributes":{"NORMAL":79,"POSITION":78,"TEXCOORD_0":301},"indices":80,"material":6},{"attributes":{"NORMAL":82,"POSITION":81,"TEXCOORD_0":302},"indices":83,"material":1},{"attributes":{"NORMAL":85,"POSITION":84,"TEXCOORD_0":303},"indices":86,"material":13},{"attributes":{"NORMAL":88,"POSITION":87,"TEXCOORD_0":304},"indices":89,"material":0},{"attributes":{"NORMAL":91,"POSITION":90,"TEXCOORD_0":305},"indices":92,"material":4},{"attributes":{"NORMAL":94,"POSITION":93,"TEXCOORD_0":306},"indices":95,"material":3},{"attributes":{"NORMAL":97,"POSITION":96,"TEXCOORD_0":307},"indices":98,"material":2},{"attributes":{"NORMAL":100,"POSITION":99,"TEXCOORD_0":308},"indices":101,"material":7},{"attributes":{"COLOR_0":104,"NORMAL":103,"POSITION":102,"TEXCOORD_0":309},"indices":105,"material":5},{"attributes":{"COLOR_0":108,"NORMAL":107,"POSITION":106,"TEXCOORD_0":310},"indices":109,"material":8},{"attributes":{"NORMAL":111,"POSITION":110,"TEXCOORD_0":311},"indices":112,"material":9}]},{"name":"fish_eatery#2_n4$lod1","primitives":[{"attributes":{"NORMAL":114,"POSITION":113,"TEXCOORD_0":312},"indices":115,"material":6},{"attributes":{"NORMAL":117,"POSITION":116,"TEXCOORD_0":313},"indices":118,"material":0},{"attributes":{"NORMAL":120,"POSITION":119,"TEXCOORD_0":314},"indices":121,"material":4},{"attributes":{"COLOR_0":124,"NORMAL":123,"POSITION":122,"TEXCOORD_0":315},"indices":125,"material":3},{"attributes":{"NORMAL":127,"POSITION":126,"TEXCOORD_0":316},"indices":128,"material":2},{"attributes":{"COLOR_0":131,"NORMAL":130,"POSITION":129,"TEXCOORD_0":317},"indices":132,"material":5}]},{"name":"fish_eatery#2_n4$lod2","primitives":[{"attributes":{"NORMAL":134,"POSITION":133,"TEXCOORD_0":318},"indices":135,"material":0},{"attributes":{"COLOR_0":138,"NORMAL":137,"POSITION":136,"TEXCOORD_0":319},"indices":139,"material":3},{"attributes":{"COLOR_0":142,"NORMAL":141,"POSITION":140,"TEXCOORD_0":320},"indices":143,"material":5}]},{"name":"fish_eatery#2_n4$lod3","primitives":[{"attributes":{"COLOR_0":146,"NORMAL":145,"POSITION":144,"TEXCOORD_0":321},"indices":147,"material":3},{"attributes":{"COLOR_0":150,"NORMAL":149,"POSITION":148,"TEXCOORD_0":322},"indices":151,"material":5}]},{"name":"fish_eatery:hm.kit.prop.barrel","primitives":[{"attributes":{"NORMAL":153,"POSITION":152,"TEXCOORD_0":323},"indices":154,"material":0}]},{"name":"fish_eatery:hm.kit.prop.barrel$lod1","primitives":[{"attributes":{"NORMAL":156,"POSITION":155,"TEXCOORD_0":324},"indices":157,"material":0}]},{"name":"fish_eatery:hm.kit.prop.barrel$lod2","primitives":[{"attributes":{"NORMAL":159,"POSITION":158,"TEXCOORD_0":325},"indices":160,"material":0}]},{"name":"fish_eatery:hm.kit.prop.barrel$lod3","primitives":[{"attributes":{"NORMAL":162,"POSITION":161,"TEXCOORD_0":326},"indices":163,"material":0}]},{"name":"fish_eatery:hm.kit.prop.crate","primitives":[{"attributes":{"NORMAL":165,"POSITION":164,"TEXCOORD_0":327},"indices":166,"material":0}]},{"name":"fish_eatery:hm.kit.prop.crate$lod1","primitives":[{"attributes":{"NORMAL":168,"POSITION":167,"TEXCOORD_0":328},"indices":169,"material":0}]},{"name":"fish_eatery:hm.kit.prop.crate$lod2","primitives":[{"attributes":{"NORMAL":171,"POSITION":170,"TEXCOORD_0":329},"indices":172,"material":0}]},{"name":"fish_eatery:hm.kit.prop.crate$lod3","primitives":[{"attributes":{"NORMAL":174,"POSITION":173,"TEXCOORD_0":330},"indices":175,"material":0}]},{"name":"fish_eatery:hm.kit.window.small.0.glass","primitives":[{"attributes":{"NORMAL":177,"POSITION":176,"TEXCOORD_0":331},"indices":178,"material":1},{"attributes":{"NORMAL":180,"POSITION":179,"TEXCOORD_0":332},"indices":181,"material":0},{"attributes":{"NORMAL":183,"POSITION":182,"TEXCOORD_0":333},"indices":184,"material":2}]},{"name":"fish_eatery:hm.kit.window.small.0.glass$lod1","primitives":[{"attributes":{"NORMAL":186,"POSITION":185,"TEXCOORD_0":334},"indices":187,"material":1},{"attributes":{"NORMAL":189,"POSITION":188,"TEXCOORD_0":335},"indices":190,"material":0},{"attributes":{"NORMAL":192,"POSITION":191,"TEXCOORD_0":336},"indices":193,"material":2}]},{"name":"fish_eatery:hm.kit.window.small.0.glass$lod2","primitives":[{"attributes":{"NORMAL":195,"POSITION":194,"TEXCOORD_0":337},"indices":196,"material":1},{"attributes":{"NORMAL":198,"POSITION":197,"TEXCOORD_0":338},"indices":199,"material":0},{"attributes":{"NORMAL":201,"POSITION":200,"TEXCOORD_0":339},"indices":202,"material":2}]},{"name":"fish_eatery:hm.kit.window.small.0.glass$lod3","primitives":[{"attributes":{"NORMAL":204,"POSITION":203,"TEXCOORD_0":340},"indices":205,"material":1},{"attributes":{"NORMAL":207,"POSITION":206,"TEXCOORD_0":341},"indices":208,"material":0}]},{"name":"fish_eatery:hm.kit.window.small.1.glass","primitives":[{"attributes":{"NORMAL":210,"POSITION":209,"TEXCOORD_0":342},"indices":211,"material":1},{"attributes":{"NORMAL":213,"POSITION":212,"TEXCOORD_0":343},"indices":214,"material":0},{"attributes":{"NORMAL":216,"POSITION":215,"TEXCOORD_0":344},"indices":217,"material":2}]},{"name":"fish_eatery:hm.kit.window.small.1.glass$lod1","primitives":[{"attributes":{"NORMAL":219,"POSITION":218,"TEXCOORD_0":345},"indices":220,"material":1},{"attributes":{"NORMAL":222,"POSITION":221,"TEXCOORD_0":346},"indices":223,"material":0},{"attributes":{"NORMAL":225,"POSITION":224,"TEXCOORD_0":347},"indices":226,"material":2}]},{"name":"fish_eatery:hm.kit.window.small.1.glass$lod2","primitives":[{"attributes":{"NORMAL":228,"POSITION":227,"TEXCOORD_0":348},"indices":229,"material":1},{"attributes":{"NORMAL":231,"POSITION":230,"TEXCOORD_0":349},"indices":232,"material":0},{"attributes":{"NORMAL":234,"POSITION":233,"TEXCOORD_0":350},"indices":235,"material":2}]},{"name":"fish_eatery:hm.kit.window.small.1.glass$lod3","primitives":[{"attributes":{"NORMAL":237,"POSITION":236,"TEXCOORD_0":351},"indices":238,"material":1},{"attributes":{"NORMAL":240,"POSITION":239,"TEXCOORD_0":352},"indices":241,"material":0}]},{"name":"fish_eatery:hm.kit.window.small.2.glass","primitives":[{"attributes":{"NORMAL":243,"POSITION":242,"TEXCOORD_0":353},"indices":244,"material":1},{"attributes":{"NORMAL":246,"POSITION":245,"TEXCOORD_0":354},"indices":247,"material":0},{"attributes":{"NORMAL":249,"POSITION":248,"TEXCOORD_0":355},"indices":250,"material":2}]},{"name":"fish_eatery:hm.kit.window.small.2.glass$lod1","primitives":[{"attributes":{"NORMAL":252,"POSITION":251,"TEXCOORD_0":356},"indices":253,"material":1},{"attributes":{"NORMAL":255,"POSITION":254,"TEXCOORD_0":357},"indices":256,"material":0},{"attributes":{"NORMAL":258,"POSITION":257,"TEXCOORD_0":358},"indices":259,"material":2}]},{"name":"fish_eatery:hm.kit.window.small.2.glass$lod2","primitives":[{"attributes":{"NORMAL":261,"POSITION":260,"TEXCOORD_0":359},"indices":262,"material":1},{"attributes":{"NORMAL":264,"POSITION":263,"TEXCOORD_0":360},"indices":265,"material":0},{"attributes":{"NORMAL":267,"POSITION":266,"TEXCOORD_0":361},"indices":268,"material":2}]},{"name":"fish_eatery:hm.kit.window.small.2.glass$lod3","primitives":[{"attributes":{"NORMAL":270,"POSITION":269,"TEXCOORD_0":362},"indices":271,"material":1},{"attributes":{"NORMAL":273,"POSITION":272,"TEXCOORD_0":363},"indices":274,"material":0}]}],"nodes":[{"extensions":{"MSFT_lod":{"ids":[1,2,3]}},"extras":{"MSFT_screencoverage":[0.65631,0.24612,0.09845,0.0],"hm":{"cell":"1_n4","cullAt":null,"interior":null,"lod":0,"max":[32.566,3.28,-51.945],"min":[29.987,-1.727,-60.509],"prims":3,"tris":4292,"venue":"fish_eatery"}},"mesh":0,"name":"fish_eatery#1_n4","scale":[1.2895917892456055,2.503674268722534,4.281635284423828],"translation":[31.276226043701172,0.7765862345695496,-56.2269172668457]},{"extras":{"hm":{"cell":"1_n4","cullAt":null,"interior":null,"lod":1,"max":[32.566,3.28,-51.945],"min":[29.987,-1.727,-60.509],"prims":3,"tris":1851,"venue":"fish_eatery"}},"mesh":1,"name":"fish_eatery#1_n4$lod1","scale":[1.2886133193969727,2.503674268722534,4.279010772705078],"translation":[31.277206420898438,0.7765862345695496,-56.22429275512695]},{"extras":{"hm":{"cell":"1_n4","cullAt":null,"interior":null,"lod":2,"max":[32.566,3.28,-51.945],"min":[29.987,-1.727,-60.509],"prims":2,"tris":539,"venue":"fish_eatery"}},"mesh":2,"name":"fish_eatery#1_n4$lod2","scale":[1.2164926528930664,2.500777006149292,4.277187347412109],"translation":[31.20508575439453,0.7754836082458496,-56.22611618041992]},{"extras":{"hm":{"cell":"1_n4","cullAt":null,"interior":null,"lod":3,"max":[32.566,3.28,-51.945],"min":[29.987,-1.727,-60.509],"prims":2,"tris":99,"venue":"fish_eatery"}},"mesh":3,"name":"fish_eatery#1_n4$lod3","scale":[0.987940788269043,2.495621681213379,3.8975257873535156],"translation":[31.07443618774414,0.7703282833099365,-55.85005187988281]},{"extensions":{"MSFT_lod":{"ids":[5,6,7]}},"extras":{"MSFT_screencoverage":[0.65207,0.24453,0.09781,0.0],"hm":{"cell":"2_n3","cullAt":null,"interior":null,"lod":0,"max":[38.632,3.94,-41.958],"min":[32.039,-1.05,-47.903],"prims":7,"tris":5788,"venue":"fish_eatery"}},"mesh":4,"name":"fish_eatery#2_n3","scale":[3.296449661254883,2.494999885559082,2.9721851348876953],"translation":[35.335304260253906,1.4449999332427979,-44.93061065673828]},{"extras":{"hm":{"cell":"2_n3","cullAt":null,"interior":null,"lod":1,"max":[38.632,3.94,-41.958],"min":[32.039,-1.05,-47.903],"prims":4,"tris":2711,"venue":"fish_eatery"}},"mesh":5,"name":"fish_eatery#2_n3$lod1","scale":[3.2896251678466797,2.489999771118164,2.9710044860839844],"translation":[35.330810546875,1.4399999380111694,-44.9294319152832]},{"extras":{"hm":{"cell":"2_n3","cullAt":null,"interior":null,"lod":2,"max":[38.632,3.94,-41.958],"min":[32.039,-1.05,-47.903],"prims":3,"tris":804,"venue":"fish_eatery"}},"mesh":6,"name":"fish_eatery#2_n3$lod2","scale":[3.2821388244628906,2.4694442749023438,2.954122543334961],"translation":[35.33028030395508,1.4194444417953491,-44.93988037109375]},{"extras":{"hm":{"cell":"2_n3","cullAt":null,"interior":null,"lod":3,"max":[38.632,3.94,-41.958],"min":[32.039,-1.05,-47.903],"prims":2,"tris":157,"venue":"fish_eatery"}},"mesh":7,"name":"fish_eatery#2_n3$lod3","scale":[2.831624984741211,2.3938088417053223,2.9130077362060547],"translation":[35.780792236328125,1.3469409942626953,-44.898765563964844]},{"extensions":{"MSFT_lod":{"ids":[9,10,11]}},"extras":{"MSFT_screencoverage":[1.0,0.58419,0.23368,0.0],"hm":{"cell":"2_n4","cullAt":null,"interior":null,"lod":0,"max":[43.203,8.895,-43.604],"min":[29.47,-1.89,-60.545],"prims":11,"tris":31968,"venue":"fish_eatery"}},"mesh":8,"name":"fish_eatery#2_n4","scale":[6.8665361404418945,5.392330169677734,8.470314025878906],"translation":[36.336883544921875,3.5023300647735596,-52.07474899291992]},{"extras":{"hm":{"cell":"2_n4","cullAt":null,"interior":null,"lod":1,"max":[43.203,8.895,-43.604],"min":[29.47,-1.89,-60.545],"prims":6,"tris":14971,"venue":"fish_eatery"}},"mesh":9,"name":"fish_eatery#2_n4$lod1","scale":[6.865927696228027,5.392330169677734,8.470314025878906],"translation":[36.336273193359375,3.5023300647735596,-52.07474899291992]},{"extras":{"hm":{"cell":"2_n4","cullAt":null,"interior":null,"lod":2,"max":[43.203,8.895,-43.604],"min":[29.47,-1.89,-60.545],"prims":3,"tris":4452,"venue":"fish_eatery"}},"mesh":10,"name":"fish_eatery#2_n4$lod2","scale":[6.8497209548950195,5.372330188751221,8.468870162963867],"translation":[36.320068359375,3.5223300457000732,-52.07330322265625]},{"extras":{"hm":{"cell":"2_n4","cullAt":null,"interior":null,"lod":3,"max":[43.203,8.895,-43.604],"min":[29.47,-1.89,-60.545],"prims":2,"tris":812,"venue":"fish_eatery"}},"mesh":11,"name":"fish_eatery#2_n4$lod3","scale":[6.756289482116699,5.127442359924316,8.332040786743164],"translation":[36.25153350830078,3.277442216873169,-52.078094482421875]}],"samplers":[{"magFilter":9729,"minFilter":9987,"wrapS":10497,"wrapT":10497}],"scene":0,"scenes":[{"nodes":[0,4,8]}],"textures":[{"sampler":0,"source":0},{"sampler":0,"source":1},{"sampler":0,"source":2},{"sampler":0,"source":3},{"sampler":0,"source":4},{"sampler":0,"source":5},{"sampler":0,"source":6},{"sampler":0,"source":7},{"sampler":0,"source":8},{"sampler":0,"source":9},{"sampler":0,"source":10},{"sampler":0,"source":11},{"sampler":0,"source":12},{"sampler":0,"source":13},{"sampler":0,"source":14},{"sampler":0,"source":15},{"sampler":0,"source":16},{"sampler":0,"source":17},{"sampler":0,"source":18},{"sampler":0,"source":19},{"sampler":0,"source":20},{"sampler":0,"source":21},{"sampler":0,"source":22},{"sampler":0,"source":23},{"sampler":0,"source":24},{"sampler":0,"source":25},{"sampler":0,"source":26},{"sampler":0,"source":27},{"sampler":0,"source":28},{"sampler":0,"source":29},{"sampler":0,"source":30},{"sampler":0,"source":31},{"sampler":0,"source":32},{"sampler":0,"source":33},{"sampler":0,"source":34},{"sampler":0,"source":35},{"sampler":0,"source":36},{"sampler":0,"source":37},{"sampler":0,"source":38},{"sampler":0,"source":39},{"sampler":0,"source":40},{"sampler":0,"source":41},{"sampler":0,"source":42},{"sampler":0,"source":43}]}