{"accessors":[{"bufferView":0,"componentType":5122,"count":1728,"max":[32767.0,-23475.0,16370.0],"min":[18120.0,-26629.0,4008.0],"normalized":true,"type":"VEC3"},{"bufferView":1,"componentType":5120,"count":1728,"normalized":true,"type":"VEC3"},{"bufferView":2,"componentType":5123,"count":2376,"type":"SCALAR"},{"bufferView":3,"componentType":5122,"count":30822,"max":[30912.0,32073.0,32767.0],"min":[-32767.0,-32767.0,-32750.0],"normalized":true,"type":"VEC3"},{"bufferView":4,"componentType":5120,"count":30822,"normalized":true,"type":"VEC3"},{"bufferView":5,"componentType":5123,"count":42552,"type":"SCALAR"},{"bufferView":6,"componentType":5122,"count":2808,"max":[20871.0,-15212.0,29008.0],"min":[-10934.0,-21211.0,8705.0],"normalized":true,"type":"VEC3"},{"bufferView":7,"componentType":5120,"count":2808,"normalized":true,"type":"VEC3"},{"bufferView":8,"componentType":5123,"count":4512,"type":"SCALAR"},{"bufferView":9,"componentType":5122,"count":64,"max":[13800.0,-4788.0,20393.0],"min":[-14972.0,-5715.0,19410.0],"normalized":true,"type":"VEC3"},{"bufferView":10,"componentType":5120,"count":64,"normalized":true,"type":"VEC3"},{"bufferView":11,"componentType":5123,"count":96,"type":"SCALAR"},{"bufferView":12,"componentType":5122,"count":7854,"max":[26662.0,14263.0,31075.0],"min":[-28159.0,-16576.0,18536.0],"normalized":true,"type":"VEC3"},{"bufferView":13,"componentType":5120,"count":7854,"normalized":true,"type":"VEC3"},{"bufferView":14,"componentType":5123,"count":11520,"type":"SCALAR"},{"bufferView":15,"componentType":5122,"count":7944,"max":[23345.0,-12914.0,22068.0],"min":[-22702.0,-21563.0,-32767.0],"normalized":true,"type":"VEC3"},{"bufferView":16,"componentType":5120,"count":7944,"normalized":true,"type":"VEC3"},{"bufferView":17,"componentType":5123,"count":11076,"type":"SCALAR"},{"bufferView":18,"componentType":5122,"count":10744,"max":[32607.0,32767.0,32767.0],"min":[-32767.0,-26401.0,-32767.0],"normalized":true,"type":"VEC3"},{"bufferView":19,"componentType":5120,"count":10744,"normalized":true,"type":"VEC3"},{"bufferView":20,"componentType":5123,"count":15456,"type":"SCALAR"},{"bufferView":21,"componentType":5122,"count":24120,"max":[32767.0,32073.0,32767.0],"min":[-32767.0,-32767.0,-32737.0],"normalized":true,"type":"VEC3"},{"bufferView":22,"componentType":5120,"count":24120,"normalized":true,"type":"VEC3"},{"bufferView":23,"componentType":5123,"count":24120,"type":"SCALAR"},{"bufferView":24,"componentType":5122,"count":5565,"max":[26662.0,14263.0,31045.0],"min":[-28159.0,-16576.0,18541.0],"normalized":true,"type":"VEC3"},{"bufferView":25,"componentType":5120,"count":5565,"normalized":true,"type":"VEC3"},{"bufferView":26,"componentType":5123,"count":5565,"type":"SCALAR"},{"bufferView":27,"componentType":5122,"count":4746,"max":[23271.0,-12914.0,22068.0],"min":[-22702.0,-21255.0,-32767.0],"normalized":true,"type":"VEC3"},{"bufferView":28,"componentType":5120,"count":4746,"normalized":true,"type":"VEC3"},{"bufferView":29,"componentType":5123,"count":4746,"type":"SCALAR"},{"bufferView":30,"componentType":5122,"count":7368,"max":[32550.0,32767.0,32735.0],"min":[-32706.0,-26360.0,-32767.0],"normalized":true,"type":"VEC3"},{"bufferView":31,"componentType":5120,"count":7368,"normalized":true,"type":"VEC3"},{"bufferView":32,"componentType":5123,"count":7368,"type":"SCALAR"},{"bufferView":33,"componentType":5122,"count":8451,"max":[31792.0,32061.0,32767.0],"min":[-32767.0,-32767.0,-32767.0],"normalized":true,"type":"VEC3"},{"bufferView":34,"componentType":5120,"count":8451,"normalized":true,"type":"VEC3"},{"bufferView":35,"componentType":5123,"count":8451,"type":"SCALAR"},{"bufferView":36,"componentType":5122,"count":1476,"max":[20584.0,-13731.0,22063.0],"min":[-22667.0,-22212.0,-32097.0],"normalized":true,"type":"VEC3"},{"bufferView":37,"componentType":5120,"count":1476,"normalized":true,"type":"VEC3"},{"bufferView":38,"componentType":5123,"count":1476,"type":"SCALAR"},{"bufferView":39,"componentType":5122,"count":2079,"max":[32767.0,32767.0,32735.0],"min":[-32398.0,-27388.0,-32535.0],"normalized":true,"type":"VEC3"},{"bufferView":40,"componentType":5120,"count":2079,"normalized":true,"type":"VEC3"},{"bufferView":41,"componentType":5123,"count":2079,"type":"SCALAR"},{"bufferView":42,"componentType":5122,"count":1935,"max":[32767.0,32767.0,32767.0],"min":[-32767.0,-32767.0,-32767.0],"normalized":true,"type":"VEC3"},{"bufferView":43,"componentType":5120,"count":1935,"normalized":true,"type":"VEC3"},{"bufferView":44,"componentType":5123,"count":1935,"type":"SCALAR"},{"bufferView":45,"componentType":5122,"count":279,"max":[21981.0,-15556.0,21504.0],"min":[-22754.0,-23422.0,-30983.0],"normalized":true,"type":"VEC3"},{"bufferView":46,"componentType":5120,"count":279,"normalized":true,"type":"VEC3"},{"bufferView":47,"componentType":5123,"count":279,"type":"SCALAR"},{"bufferView":48,"componentType":5122,"count":2496,"max":[32767.0,32767.0,32767.0],"min":[-32767.0,-32767.0,-32767.0],"normalized":true,"type":"VEC3"},{"bufferView":49,"componentType":5120,"count":2496,"normalized":true,"type":"VEC3"},{"bufferView":50,"componentType":5123,"count":3432,"type":"SCALAR"},{"bufferView":51,"componentType":5122,"count":1686,"max":[32767.0,32767.0,32767.0],"min":[-32767.0,-32767.0,-32767.0],"normalized":true,"type":"VEC3"},{"bufferView":52,"componentType":5120,"count":1686,"normalized":true,"type":"VEC3"},{"bufferView":53,"componentType":5123,"count":1686,"type":"SCALAR"},{"bufferView":54,"componentType":5122,"count":516,"max":[32767.0,32767.0,32767.0],"min":[-32767.0,-32767.0,-32767.0],"normalized":true,"type":"VEC3"},{"bufferView":55,"componentType":5120,"count":516,"normalized":true,"type":"VEC3"},{"bufferView":56,"componentType":5123,"count":516,"type":"SCALAR"},{"bufferView":57,"componentType":5122,"count":96,"max":[32767.0,32767.0,32767.0],"min":[-32767.0,-32767.0,-32767.0],"normalized":true,"type":"VEC3"},{"bufferView":58,"componentType":5120,"count":96,"normalized":true,"type":"VEC3"},{"bufferView":59,"componentType":5123,"count":96,"type":"SCALAR"},{"bufferView":60,"componentType":5122,"count":324,"max":[-25707.0,-14632.0,4494.0],"min":[-28822.0,-15265.0,2232.0],"normalized":true,"type":"VEC3"},{"bufferView":61,"componentType":5120,"count":324,"normalized":true,"type":"VEC3"},{"bufferView":62,"componentType":5123,"count":486,"type":"SCALAR"},{"bufferView":63,"componentType":5122,"count":3672,"max":[32767.0,-12444.0,24190.0],"min":[-20862.0,-32767.0,-32767.0],"normalized":true,"type":"VEC3"},{"bufferView":64,"componentType":5120,"count":3672,"normalized":true,"type":"VEC3"},{"bufferView":65,"componentType":5123,"count":5508,"type":"SCALAR"},{"bufferView":66,"componentType":5122,"count":64,"max":[3248.0,32767.0,32767.0],"min":[-32767.0,26937.0,21980.0],"normalized":true,"type":"VEC3"},{"bufferView":67,"componentType":5120,"count":64,"normalized":true,"type":"VEC3"},{"bufferView":68,"componentType":5123,"count":96,"type":"SCALAR"},{"bufferView":69,"componentType":5122,"count":2601,"max":[32767.0,-12446.0,24059.0],"min":[-29899.0,-32767.0,-32767.0],"normalized":true,"type":"VEC3"},{"bufferView":70,"componentType":5120,"count":2601,"normalized":true,"type":"VEC3"},{"bufferView":71,"componentType":5123,"count":2601,"type":"SCALAR"},{"bufferView":72,"componentType":5122,"count":30,"max":[2464.0,32767.0,32767.0],"min":[-32767.0,26937.0,22614.0],"normalized":true,"type":"VEC3"},{"bufferView":73,"componentType":5120,"count":30,"normalized":true,"type":"VEC3"},{"bufferView":74,"componentType":5123,"count":30,"type":"SCALAR"},{"bufferView":75,"componentType":5122,"count":792,"max":[32767.0,32767.0,32767.0],"min":[-32767.0,-32767.0,-32767.0],"normalized":true,"type":"VEC3"},{"bufferView":76,"componentType":5120,"count":792,"normalized":true,"type":"VEC3"},{"bufferView":77,"componentType":5123,"count":792,"type":"SCALAR"},{"bufferView":78,"componentType":5122,"count":153,"max":[32767.0,32767.0,32767.0],"min":[-32767.0,-32767.0,-32767.0],"normalized":true,"type":"VEC3"},{"bufferView":79,"componentType":5120,"count":153,"normalized":true,"type":"VEC3"},{"bufferView":80,"componentType":5123,"count":153,"type":"SCALAR"},{"bufferView":81,"componentType":5122,"count":1728,"normalized":true,"type":"VEC2"},{"bufferView":82,"componentType":5122,"count":30822,"normalized":true,"type":"VEC2"},{"bufferView":83,"componentType":5122,"count":2808,"normalized":true,"type":"VEC2"},{"bufferView":84,"componentType":5122,"count":64,"normalized":true,"type":"VEC2"},{"bufferView":85,"componentType":5122,"count":7854,"normalized":true,"type":"VEC2"},{"bufferView":86,"componentType":5122,"count":7944,"normalized":true,"type":"VEC2"},{"bufferView":87,"componentType":5122,"count":10744,"normalized":true,"type":"VEC2"},{"bufferView":88,"componentType":5122,"count":24120,"normalized":true,"type":"VEC2"},{"bufferView":89,"componentType":5122,"count":5565,"normalized":true,"type":"VEC2"},{"bufferView":90,"componentType":5122,"count":4746,"normalized":true,"type":"VEC2"},{"bufferView":91,"componentType":5122,"count":7368,"normalized":true,"type":"VEC2"},{"bufferView":92,"componentType":5122,"count":8451,"normalized":true,"type":"VEC2"},{"bufferView":93,"componentType":5122,"count":1476,"normalized":true,"type":"VEC2"},{"bufferView":94,"componentType":5122,"count":2079,"normalized":true,"type":"VEC2"},{"bufferView":95,"componentType":5122,"count":1935,"normalized":true,"type":"VEC2"},{"bufferView":96,"componentType":5122,"count":279,"normalized":true,"type":"VEC2"},{"bufferView":97,"componentType":5122,"count":2496,"normalized":true,"type":"VEC2"},{"bufferView":98,"componentType":5122,"count":1686,"normalized":true,"type":"VEC2"},{"bufferView":99,"componentType":5122,"count":516,"normalized":true,"type":"VEC2"},{"bufferView":100,"componentType":5122,"count":96,"normalized":true,"type":"VEC2"},{"bufferView":101,"componentType":5122,"count":324,"normalized":true,"type":"VEC2"},{"bufferView":102,"componentType":5122,"count":3672,"normalized":true,"type":"VEC2"},{"bufferView":103,"componentType":5122,"count":64,"normalized":true,"type":"VEC2"},{"bufferView":104,"componentType":5122,"count":2601,"normalized":true,"type":"VEC2"},{"bufferView":105,"componentType":5122,"count":30,"normalized":true,"type":"VEC2"},{"bufferView":106,"componentType":5122,"count":792,"normalized":true,"type":"VEC2"},{"bufferView":107,"componentType":5122,"count":153,"normalized":true,"type":"VEC2"}],"asset":{"generator":"evermore assetgen","version":"2.0"},"bufferViews":[{"buffer":0,"byteLength":13824,"byteOffset":0,"byteStride":8,"target":34962},{"buffer":0,"byteLength":6912,"byteOffset":13824,"byteStride":4,"target":34962},{"buffer":0,"byteLength":4752,"byteOffset":20736,"target":34963},{"buffer":0,"byteLength":246576,"byteOffset":25488,"byteStride":8,"target":34962},{"buffer":0,"byteLength":123288,"byteOffset":272064,"byteStride":4,"target":34962},{"buffer":0,"byteLength":85104,"byteOffset":395352,"target":34963},{"buffer":0,"byteLength":22464,"byteOffset":480456,"byteStride":8,"target":34962},{"buffer":0,"byteLength":11232,"byteOffset":502920,"byteStride":4,"target":34962},{"buffer":0,"byteLength":9024,"byteOffset":514152,"target":34963},{"buffer":0,"byteLength":512,"byteOffset":523176,"byteStride":8,"target":34962},{"buffer":0,"byteLength":256,"byteOffset":523688,"byteStride":4,"target":34962},{"buffer":0,"byteLength":192,"byteOffset":523944,"target":34963},{"buffer":0,"byteLength":62832,"byteOffset":524136,"byteStride":8,"target":34962},{"buffer":0,"byteLength":31416,"byteOffset":586968,"byteStride":4,"target":34962},{"buffer":0,"byteLength":23040,"byteOffset":618384,"target":34963},{"buffer":0,"byteLength":63552,"byteOffset":641424,"byteStride":8,"target":34962},{"buffer":0,"byteLength":31776,"byteOffset":704976,"byteStride":4,"target":34962},{"buffer":0,"byteLength":22152,"byteOffset":736752,"target":34963},{"buffer":0,"byteLength":85952,"byteOffset":758904,"byteStride":8,"target":34962},{"buffer":0,"byteLength":42976,"byteOffset":844856,"byteStride":4,"target":34962},{"buffer":0,"byteLength":30912,"byteOffset":887832,"target":34963},{"buffer":0,"byteLength":192960,"byteOffset":918744,"byteStride":8,"target":34962},{"buffer":0,"byteLength":96480,"byteOffset":1111704,"byteStride":4,"target":34962},{"buffer":0,"byteLength":48240,"byteOffset":1208184,"target":34963},{"buffer":0,"byteLength":44520,"byteOffset":1256424,"byteStride":8,"target":34962},{"buffer":0,"byteLength":22260,"byteOffset":1300944,"byteStride":4,"target":34962},{"buffer":0,"byteLength":11130,"byteOffset":1323204,"target":34963},{"buffer":0,"byteLength":37968,"byteOffset":1334336,"byteStride":8,"target":34962},{"buffer":0,"byteLength":18984,"byteOffset":1372304,"byteStride":4,"target":34962},{"buffer":0,"byteLength":9492,"byteOffset":1391288,"target":34963},{"buffer":0,"byteLength":58944,"byteOffset":1400780,"byteStride":8,"target":34962},{"buffer":0,"byteLength":29472,"byteOffset":1459724,"byteStride":4,"target":34962},{"buffer":0,"byteLength":14736,"byteOffset":1489196,"target":34963},{"buffer":0,"byteLength":67608,"byteOffset":1503932,"byteStride":8,"target":34962},{"buffer":0,"byteLength":33804,"byteOffset":1571540,"byteStride":4,"target":34962},{"buffer":0,"byteLength":16902,"byteOffset":1605344,"target":34963},{"buffer":0,"byteLength":11808,"byteOffset":1622248,"byteStride":8,"target":34962},{"buffer":0,"byteLength":5904,"byteOffset":1634056,"byteStride":4,"target":34962},{"buffer":0,"byteLength":2952,"byteOffset":1639960,"target":34963},{"buffer":0,"byteLength":16632,"byteOffset":1642912,"byteStride":8,"target":34962},{"buffer":0,"byteLength":8316,"byteOffset":1659544,"byteStride":4,"target":34962},{"buffer":0,"byteLength":4158,"byteOffset":1667860,"target":34963},{"buffer":0,"byteLength":15480,"byteOffset":1672020,"byteStride":8,"target":34962},{"buffer":0,"byteLength":7740,"byteOffset":1687500,"byteStride":4,"target":34962},{"buffer":0,"byteLength":3870,"byteOffset":1695240,"target":34963},{"buffer":0,"byteLength":2232,"byteOffset":1699112,"byteStride":8,"target":34962},{"buffer":0,"byteLength":1116,"byteOffset":1701344,"byteStride":4,"target":34962},{"buffer":0,"byteLength":558,"byteOffset":1702460,"target":34963},{"buffer":0,"byteLength":19968,"byteOffset":1703020,"byteStride":8,"target":34962},{"buffer":0,"byteLength":9984,"byteOffset":1722988,"byteStride":4,"target":34962},{"buffer":0,"byteLength":6864,"byteOffset":1732972,"target":34963},{"buffer":0,"byteLength":13488,"byteOffset":1739836,"byteStride":8,"target":34962},{"buffer":0,"byteLength":6744,"byteOffset":1753324,"byteStride":4,"target":34962},{"buffer":0,"byteLength":3372,"byteOffset":1760068,"target":34963},{"buffer":0,"byteLength":4128,"byteOffset":1763440,"byteStride":8,"target":34962},{"buffer":0,"byteLength":2064,"byteOffset":1767568,"byteStride":4,"target":34962},{"buffer":0,"byteLength":1032,"byteOffset":1769632,"target":34963},{"buffer":0,"byteLength":768,"byteOffset":1770664,"byteStride":8,"target":34962},{"buffer":0,"byteLength":384,"byteOffset":1771432,"byteStride":4,"target":34962},{"buffer":0,"byteLength":192,"byteOffset":1771816,"target":34963},{"buffer":0,"byteLength":2592,"byteOffset":1772008,"byteStride":8,"target":34962},{"buffer":0,"byteLength":1296,"byteOffset":1774600,"byteStride":4,"target":34962},{"buffer":0,"byteLength":972,"byteOffset":1775896,"target":34963},{"buffer":0,"byteLength":29376,"byteOffset":1776868,"byteStride":8,"target":34962},{"buffer":0,"byteLength":14688,"byteOffset":1806244,"byteStride":4,"target":34962},{"buffer":0,"byteLength":11016,"byteOffset":1820932,"target":34963},{"buffer":0,"byteLength":512,"byteOffset":1831948,"byteStride":8,"target":34962},{"buffer":0,"byteLength":256,"byteOffset":1832460,"byteStride":4,"target":34962},{"buffer":0,"byteLength":192,"byteOffset":1832716,"target":34963},{"buffer":0,"byteLength":20808,"byteOffset":1832908,"byteStride":8,"target":34962},{"buffer":0,"byteLength":10404,"byteOffset":1853716,"byteStride":4,"target":34962},{"buffer":0,"byteLength":5202,"byteOffset":1864120,"target":34963},{"buffer":0,"byteLength":240,"byteOffset":1869324,"byteStride":8,"target":34962},{"buffer":0,"byteLength":120,"byteOffset":1869564,"byteStride":4,"target":34962},{"buffer":0,"byteLength":60,"byteOffset":1869684,"target":34963},{"buffer":0,"byteLength":6336,"byteOffset":1869744,"byteStride":8,"target":34962},{"buffer":0,"byteLength":3168,"byteOffset":1876080,"byteStride":4,"target":34962},{"buffer":0,"byteLength":1584,"byteOffset":1879248,"target":34963},{"buffer":0,"byteLength":1224,"byteOffset":1880832,"byteStride":8,"target":34962},{"buffer":0,"byteLength":612,"byteOffset":1882056,"byteStride":4,"target":34962},{"buffer":0,"byteLength":306,"byteOffset":1882668,"target":34963},{"buffer":0,"byteLength":6912,"byteOffset":1882976,"byteStride":4,"target":34962},{"buffer":0,"byteLength":123288,"byteOffset":1889888,"byteStride":4,"target":34962},{"buffer":0,"byteLength":11232,"byteOffset":2013176,"byteStride":4,"target":34962},{"buffer":0,"byteLength":256,"byteOffset":2024408,"byteStride":4,"target":34962},{"buffer":0,"byteLength":31416,"byteOffset":2024664,"byteStride":4,"target":34962},{"buffer":0,"byteLength":31776,"byteOffset":2056080,"byteStride":4,"target":34962},{"buffer":0,"byteLength":42976,"byteOffset":2087856,"byteStride":4,"target":34962},{"buffer":0,"byteLength":96480,"byteOffset":2130832,"byteStride":4,"target":34962},{"buffer":0,"byteLength":22260,"byteOffset":2227312,"byteStride":4,"target":34962},{"buffer":0,"byteLength":18984,"byteOffset":2249572,"byteStride":4,"target":34962},{"buffer":0,"byteLength":29472,"byteOffset":2268556,"byteStride":4,"target":34962},{"buffer":0,"byteLength":33804,"byteOffset":2298028,"byteStride":4,"target":34962},{"buffer":0,"byteLength":5904,"byteOffset":2331832,"byteStride":4,"target":34962},{"buffer":0,"byteLength":8316,"byteOffset":2337736,"byteStride":4,"target":34962},{"buffer":0,"byteLength":7740,"byteOffset":2346052,"byteStride":4,"target":34962},{"buffer":0,"byteLength":1116,"byteOffset":2353792,"byteStride":4,"target":34962},{"buffer":0,"byteLength":9984,"byteOffset":2354908,"byteStride":4,"target":34962},{"buffer":0,"byteLength":6744,"byteOffset":2364892,"byteStride":4,"target":34962},{"buffer":0,"byteLength":2064,"byteOffset":2371636,"byteStride":4,"target":34962},{"buffer":0,"byteLength":384,"byteOffset":2373700,"byteStride":4,"target":34962},{"buffer":0,"byteLength":1296,"byteOffset":2374084,"byteStride":4,"target":34962},{"buffer":0,"byteLength":14688,"byteOffset":2375380,"byteStride":4,"target":34962},{"buffer":0,"byteLength":256,"byteOffset":2390068,"byteStride":4,"target":34962},{"buffer":0,"byteLength":10404,"byteOffset":2390324,"byteStride":4,"target":34962},{"buffer":0,"byteLength":120,"byteOffset":2400728,"byteStride":4,"target":34962},{"buffer":0,"byteLength":3168,"byteOffset":2400848,"byteStride":4,"target":34962},{"buffer":0,"byteLength":612,"byteOffset":2404016,"byteStride":4,"target":34962}],"buffers":[{"byteLength":2404628,"uri":"gatehouse.bin"}],"extensionsRequired":["KHR_mesh_quantization","KHR_texture_transform"],"extensionsUsed":["KHR_mesh_quantization","KHR_texture_transform","MSFT_lod"],"extras":{"hm":{"batching":true,"cellSize":16.0,"cells":[{"cullAt":null,"interior":null,"key":"0_n1","lodPrims":[7,4,3,2],"lodTris":[29196,13933,4002,738],"max":[7.319,12.8,3.039],"min":[-6.916,-4.2,-24.15]},{"cullAt":null,"interior":null,"key":"n1_0","lodPrims":[1,1,1,1],"lodTris":[1144,562,172,32],"max":[2.204,14.746,2.319],"min":[-5.782,0.0,-1.932]},{"cullAt":null,"interior":null,"key":"n1_n1","lodPrims":[3,2,1,1],"lodTris":[2030,877,264,51],"max":[1.708,15.47,2.026],"min":[-6.132,-4.2,-24.15]}],"instanced":[],"instancing":true,"interiors":[],"lod":true,"lodDistances":[15.0,40.0,100.0],"stats":{"groups":3,"lodPrims":[11,7,5,4],"lodTris":[32370,15372,4438,821]},"venue":"gatehouse"}},"images":[{"uri":"../textures/ashlar_albedo.png"},{"uri":"../textures/ashlar_orm.png"},{"uri":"../textures/ashlar_normal.png"},{"uri":"../textures/rubble_albedo.png"},{"uri":"../textures/rubble_orm.png"},{"uri":"../textures/rubble_normal.png"},{"uri":"../textures/sett_albedo.png"},{"uri":"../textures/sett_orm.png"},{"uri":"../textures/sett_normal.png"},{"uri":"../textures/stone_albedo.png"},{"uri":"../textures/stone_orm.png"},{"uri":"../textures/stone_normal.png"},{"uri":"../textures/kit_albedo.png"},{"uri":"../textures/kit_orm.png"},{"uri":"../textures/kit_normal.png"},{"uri":"../textures/foliage_albedo.png"},{"uri":"../textures/foliage_orm.png"},{"uri":"../textures/foliage_normal.png"},{"uri":"../textures/algae_albedo.png"},{"uri":"../textures/algae_orm.png"},{"uri":"../textures/algae_normal.png"},{"uri":"../textures/glass_albedo.png"},{"uri":"../textures/glass_orm.png"},{"uri":"../textures/glass_normal.png"},{"uri":"../textures/glass_emissive.png"},{"uri":"../textures/slate_albedo.png"},{"uri":"../textures/slate_orm.png"},{"uri":"../textures/slate_normal.png"}],"materials":[{"doubleSided":false,"name":"ashlar","normalTexture":{"extensions":{"KHR_texture_transform":{"scale":[11.3753469375,11.3753469375]}},"index":2,"scale":1.0},"occlusionTexture":{"extensions":{"KHR_texture_transform":{"scale":[11.3753469375,11.3753469375]}},"index":1},"pbrMetallicRoughness":{"baseColorFactor":[1,1,1,1],"baseColorTexture":{"extensions":{"KHR_texture_transform":{"scale":[11.3753469375,11.3753469375]}},"index":0},"metallicFactor":1.0,"metallicRoughnessTexture":{"extensions":{"KHR_texture_transform":{"scale":[11.3753469375,11.3753469375]}},"index":1},"roughnessFactor":1.0}},{"doubleSided":false,"name":"rubble","normalTexture":{"extensions":{"KHR_texture_transform":{"scale":[11.3753469375,11.3753469375]}},"index":5,"scale":1.0},"occlusionTexture":{"extensions":{"KHR_texture_transform":{"scale":[11.3753469375,11.3753469375]}},"index":4},"pbrMetallicRoughness":{"baseColorFactor":[1,1,1,1],"baseColorTexture":{"extensions":{"KHR_texture_transform":{"scale":[11.3753469375,11.3753469375]}},"index":3},"metallicFactor":1.0,"metallicRoughnessTexture":{"extensions":{"KHR_texture_transform":{"scale":[11.3753469375,11.3753469375]}},"index":4},"roughnessFactor":1.0}},{"doubleSided":false,"name":"sett","normalTexture":{"extensions":{"KHR_texture_transform":{"scale":[11.3753469375,11.3753469375]}},"index":8,"scale":1.0},"occlusionTexture":{"extensions":{"KHR_texture_transform":{"scale":[11.3753469375,11.3753469375]}},"index":7},"pbrMetallicRoughness":{"baseColorFactor":[1,1,1,1],"baseColorTexture":{"extensions":{"KHR_texture_transform":{"scale":[11.3753469375,11.3753469375]}},"index":6},"metallicFactor":1.0,"metallicRoughnessTexture":{"extensions":{"KHR_texture_transform":{"scale":[11.3753469375,11.3753469375]}},"index":7},"roughnessFactor":1.0}},{"doubleSided":false,"name":"stone","normalTexture":{"extensions":{"KHR_texture_transform":{"scale":[11.3753469375,11.3753469375]}},"index":11,"scale":1.0},"occlusionTexture":{"extensions":{"KHR_texture_transform":{"scale":[11.3753469375,11.3753469375]}},"index":10},"pbrMetallicRoughness":{"baseColorFactor":[1,1,1,1],"baseColorTexture":{"extensions":{"KHR_texture_transform":{"scale":[11.3753469375,11.3753469375]}},"index":9},"metallicFactor":1.0,"metallicRoughnessTexture":{"extensions":{"KHR_texture_transform":{"scale":[11.3753469375,11.3753469375]}},"index":10},"roughnessFactor":1.0}},{"doubleSided":true,"name":"kit","normalTexture":{"extensions":{"KHR_texture_transform":{"scale":[11.3753469375,11.3753469375]}},"index":14,"scale":1.0},"occlusionTexture":{"extensions":{"KHR_texture_transform":{"scale":[11.3753469375,11.3753469375]}},"index":13},"pbrMetallicRoughness":{"baseColorFactor":[1,1,1,1],"baseColorTexture":{"extensions":{"KHR_texture_transform":{"scale":[11.3753469375,11.3753469375]}},"index":12},"metallicFactor":1.0,"metallicRoughnessTexture":{"extensions":{"KHR_texture_transform":{"scale":[11.3753469375,11.3753469375]}},"index":13},"roughnessFactor":1.0}},{"doubleSided":true,"name":"foliage","normalTexture":{"extensions":{"KHR_texture_transform":{"scale":[11.3753469375,11.3753469375]}},"index":17,"scale":1.0},"occlusionTexture":{"extensions":{"KHR_texture_transform":{"scale":[11.3753469375,11.3753469375]}},"index":16},"pbrMetallicRoughness":{"baseColorFactor":[1,1,1,1],"baseColorTexture":{"extensions":{"KHR_texture_transform":{"scale":[11.3753469375,11.3753469375]}},"index":15},"metallicFactor":1.0,"metallicRoughnessTexture":{"extensions":{"KHR_texture_transform":{"scale":[11.3753469375,11.3753469375]}},"index":16},"roughnessFactor":1.0}},{"doubleSided":false,"name":"algae","normalTexture":{"extensions":{"KHR_texture_transform":{"scale":[11.3753469375,11.3753469375]}},"index":20,"scale":1.0},"occlusionTexture":{"extensions":{"KHR_texture_transform":{"scale":[11.3753469375,11.3753469375]}},"index":19},"pbrMetallicRoughness":{"baseColorFactor":[1,1,1,1],"baseColorTexture":{"extensions":{"KHR_texture_transform":{"scale":[11.3753469375,11.3753469375]}},"index":18},"metallicFactor":1.0,"metallicRoughnessTexture":{"extensions":{"KHR_texture_transform":{"scale":[11.3753469375,11.3753469375]}},"index":19},"roughnessFactor":1.0}},{"alphaMode":"BLEND","doubleSided":true,"emissiveFactor":[1.0,1.0,1.0],"emissiveTexture":{"extensions":{"KHR_texture_transform":{"scale":[11.3753469375,11.3753469375]}},"index":24},"name":"glass","normalTexture":{"extensions":{"KHR_texture_transform":{"scale":[11.3753469375,11.3753469375]}},"index":23,"scale":1.0},"occlusionTexture":{"extensions":{"KHR_texture_transform":{"scale":[11.3753469375,11.3753469375]}},"index":22},"pbrMetallicRoughness":{"baseColorFactor":[1,1,1,1],"baseColorTexture":{"extensions":{"KHR_texture_transform":{"scale":[11.3753469375,11.3753469375]}},"index":21},"metallicFactor":1.0,"metallicRoughnessTexture":{"extensions":{"KHR_texture_transform":{"scale":[11.3753469375,11.3753469375]}},"index":22},"roughnessFactor":1.0}},{"doubleSided":false,"name":"slate","normalTexture":{"extensions":{"KHR_texture_transform":{"scale":[11.3753469375,11.3753469375]}},"index":27,"scale":1.0},"occlusionTexture":{"extensions":{"KHR_texture_transform":{"scale":[11.3753469375,11.3753469375]}},"index":26},"pbrMetallicRoughness":{"baseColorFactor":[1,1,1,1],"baseColorTexture":{"extensions":{"KHR_texture_transform":{"scale":[11.3753469375,11.3753469375]}},"index":25},"metallicFactor":1.0,"metallicRoughnessTexture":{"extensions":{"KHR_texture_transform":{"scale":[11.3753469375,11.3753469375]}},"index":26},"roughnessFactor":1.0}}],"meshes":[{"name":"gatehouse#0_n1","primitives":[{"attributes":{"NORMAL":1,"POSITION":0,"TEXCOORD_0":81},"indices":2,"material":6},{"attributes":{"NORMAL":4,"POSITION":3,"TEXCOORD_0":82},"indices":5,"material":0},{"attributes":{"NORMAL":7,"POSITION":6,"TEXCOORD_0":83},"indices":8,"material":5},{"attributes":{"NORMAL":10,"POSITION":9,"TEXCOORD_0":84},"indices":11,"material":7},{"attributes":{"NORMAL":13,"POSITION":12,"TEXCOORD_0":85},"indices":14,"material":4},{"attributes":{"NORMAL":16,"POSITION":15,"TEXCOORD_0":86},"indices":17,"material":2},{"attributes":{"NORMAL":19,"POSITION":18,"TEXCOORD_0":87},"indices":20,"material":3}]},{"name":"gatehouse#0_n1$lod1","primitives":[{"attributes":{"NORMAL":22,"POSITION":21,"TEXCOORD_0":88},"indices":23,"material":0},{"attributes":{"NORMAL":25,"POSITION":24,"TEXCOORD_0":89},"indices":26,"material":4},{"attributes":{"NORMAL":28,"POSITION":27,"TEXCOORD_0":90},"indices":29,"material":2},{"attributes":{"NORMAL":31,"POSITION":30,"TEXCOORD_0":91},"indices":32,"material":3}]},{"name":"gatehouse#0_n1$lod2","primitives":[{"attributes":{"NORMAL":34,"POSITION":33,"TEXCOORD_0":92},"indices":35,"material":0},{"attributes":{"NORMAL":37,"POSITION":36,"TEXCOORD_0":93},"indices":38,"material":2},{"attributes":{"NORMAL":40,"POSITION":39,"TEXCOORD_0":94},"indices":41,"material":3}]},{"name":"gatehouse#0_n1$lod3","primitives":[{"attributes":{"NORMAL":43,"POSITION":42,"TEXCOORD_0":95},"indices":44,"material":0},{"attributes":{"NORMAL":46,"POSITION":45,"TEXCOORD_0":96},"indices":47,"material":2}]},{"name":"gatehouse#n1_0","primitives":[{"attributes":{"NORMAL":49,"POSITION":48,"TEXCOORD_0":97},"indices":50,"material":4}]},{"name":"gatehouse#n1_0$lod1","primitives":[{"attributes":{"NORMAL":52,"POSITION":51,"TEXCOORD_0":98},"indices":53,"material":4}]},{"name":"gatehouse#n1_0$lod2","primitives":[{"attributes":{"NORMAL":55,"POSITION":54,"TEXCOORD_0":99},"indices":56,"material":4}]},{"name":"gatehouse#n1_0$lod3","primitives":[{"attributes":{"NORMAL":58,"POSITION":57,"TEXCOORD_0":100},"indices":59,"material":4}]},{"name":"gatehouse#n1_n1","primitives":[{"attributes":{"NORMAL":61,"POSITION":60,"TEXCOORD_0":101},"indices":62,"material":4},{"attributes":{"NORMAL":64,"POSITION":63,"TEXCOORD_0":102},"indices":65,"material":1},{"attributes":{"NORMAL":67,"POSITION":66,"TEXCOORD_0":103},"indices":68,"material":8}]},{"name":"gatehouse#n1_n1$lod1","primitives":[{"attributes":{"NORMAL":70,"POSITION":69,"TEXCOORD_0":104},"indices":71,"material":1},{"attributes":{"NORMAL":73,"POSITION":72,"TEXCOORD_0":105},"indices":74,"material":8}]},{"name":"gatehouse#n1_n1$lod2","primitives":[{"attributes":{"NORMAL":76,"POSITION":75,"TEXCOORD_0":106},"indices":77,"material":1}]},{"name":"gatehouse#n1_n1$lod3","primitives":[{"attributes":{"NORMAL":79,"POSITION":78,"TEXCOORD_0":107},"indices":80,"material":1}]}],"nodes":[{"extensions":{"MSFT_lod":{"ids":[1,2,3]}},"extras":{"MSFT_screencoverage":[1.0,0.84244,0.33698,0.0],"hm":{"cell":"0_n1","cullAt":null,"interior":null,"lod":0,"max":[7.319,12.8,3.039],"min":[-6.916,-4.2,-24.15],"prims":7,"tris":29196,"venue":"gatehouse"}},"mesh":0,"name":"gatehouse#0_n1","scale":[7.117832660675049,8.5,13.594306945800781],"translation":[0.2014303207397461,4.300000190734863,-10.555694580078125]},{"extras":{"hm":{"cell":"0_n1","cullAt":null,"interior":null,"lod":1,"max":[7.319,12.8,3.039],"min":[-6.916,-4.2,-24.15],"prims":4,"tris":13933,"venue":"gatehouse"}},"mesh":1,"name":"gatehouse#0_n1$lod1","scale":[7.117832660675049,8.5,13.594306945800781],"translation":[0.2014303207397461,4.300000190734863,-10.555694580078125]},{"extras":{"hm":{"cell":"0_n1","cullAt":null,"interior":null,"lod":2,"max":[7.319,12.8,3.039],"min":[-6.916,-4.2,-24.15],"prims":3,"tris":4002,"venue":"gatehouse"}},"mesh":2,"name":"gatehouse#0_n1$lod2","scale":[7.093142509460449,8.351335525512695,13.587804794311523],"translation":[0.17674016952514648,4.448665142059326,-10.549192428588867]},{"extras":{"hm":{"cell":"0_n1","cullAt":null,"interior":null,"lod":3,"max":[7.319,12.8,3.039],"min":[-6.916,-4.2,-24.15],"prims":2,"tris":738,"venue":"gatehouse"}},"mesh":3,"name":"gatehouse#0_n1$lod3","scale":[6.811586856842041,8.058609962463379,13.579573631286621],"translation":[0.0,4.561389923095703,-10.557421684265137]},{"extensions":{"MSFT_lod":{"ids":[5,6,7]}},"extras":{"MSFT_screencoverage":[1.0,0.41541,0.16617,0.0],"hm":{"cell":"n1_0","cullAt":null,"interior":null,"lod":0,"max":[2.204,14.746,2.319],"min":[-5.782,0.0,-1.932],"prims":1,"tris":1144,"venue":"gatehouse"}},"mesh":4,"name":"gatehouse#n1_0","scale":[3.993267297744751,7.372973442077637,2.125171661376953],"translation":[-1.7891876697540283,7.372973442077637,0.19364547729492188]},{"extras":{"hm":{"cell":"n1_0","cullAt":null,"interior":null,"lod":1,"max":[2.204,14.746,2.319],"min":[-5.782,0.0,-1.932],"prims":1,"tris":562,"venue":"gatehouse"}},"mesh":5,"name":"gatehouse#n1_0$lod1","scale":[3.990518569946289,7.372973442077637,2.120046615600586],"translation":[-1.7880663871765137,7.372973442077637,0.1957721710205078]},{"extras":{"hm":{"cell":"n1_0","cullAt":null,"interior":null,"lod":2,"max":[2.204,14.746,2.319],"min":[-5.782,0.0,-1.932],"prims":1,"tris":172,"venue":"gatehouse"}},"mesh":6,"name":"gatehouse#n1_0$lod2","scale":[3.972735643386841,7.367627143859863,2.1167755126953125],"translation":[-1.7988593578338623,7.370802879333496,0.1968536376953125]},{"extras":{"hm":{"cell":"n1_0","cullAt":null,"interior":null,"lod":3,"max":[2.204,14.746,2.319],"min":[-5.782,0.0,-1.932],"prims":1,"tris":32,"venue":"gatehouse"}},"mesh":7,"name":"gatehouse#n1_0$lod3","scale":[3.3725578784942627,7.365703582763672,2.116506576538086],"translation":[-1.257122278213501,7.368987083435059,0.19712257385253906]},{"extensions":{"MSFT_lod":{"ids":[9,10,11]}},"extras":{"MSFT_screencoverage":[1.0,0.80846,0.32338,0.0],"hm":{"cell":"n1_n1","cullAt":null,"interior":null,"lod":0,"max":[1.708,15.47,2.026],"min":[-6.132,-4.2,-24.15],"prims":3,"tris":2030,"venue":"gatehouse"}},"mesh":8,"name":"gatehouse#n1_n1","scale":[3.920154333114624,9.835000038146973,13.088027954101562],"translation":[-2.2121541500091553,5.635000228881836,-11.061973571777344]},{"extras":{"hm":{"cell":"n1_n1","cullAt":null,"interior":null,"lod":1,"max":[1.708,15.47,2.026],"min":[-6.132,-4.2,-24.15],"prims":2,"tris":877,"venue":"gatehouse"}},"mesh":9,"name":"gatehouse#n1_n1$lod1","scale":[3.8224637508392334,9.835000038146973,13.01933765411377],"translation":[-2.1724636554718018,5.635000228881836,-11.130663871765137]},{"extras":{"hm":{"cell":"n1_n1","cullAt":null,"interior":null,"lod":2,"max":[1.708,15.47,2.026],"min":[-6.132,-4.2,-24.15],"prims":1,"tris":264,"venue":"gatehouse"}},"mesh":10,"name":"gatehouse#n1_n1$lod2","scale":[3.8224637508392334,9.835000038146973,13.01933765411377],"translation":[-2.1724636554718018,5.635000228881836,-11.130663871765137]},{"extras":{"hm":{"cell":"n1_n1","cullAt":null,"interior":null,"lod":3,"max":[1.708,15.47,2.026],"min":[-6.132,-4.2,-24.15],"prims":1,"tris":51,"venue":"gatehouse"}},"mesh":11,"name":"gatehouse#n1_n1$lod3","scale":[3.8224637508392334,8.750419616699219,12.14412784576416],"translation":[-2.1724636554718018,6.71958065032959,-10.64929485321045]}],"samplers":[{"magFilter":9729,"minFilter":9987,"wrapS":10497,"wrapT":10497}],"scene":0,"scenes":[{"nodes":[0,4,8]}],"textures":[{"sampler":0,"source":0},{"sampler":0,"source":1},{"sampler":0,"source":2},{"sampler":0,"source":3},{"sampler":0,"source":4},{"sampler":0,"source":5},{"sampler":0,"source":6},{"sampler":0,"source":7},{"sampler":0,"source":8},{"sampler":0,"source":9},{"sampler":0,"source":10},{"sampler":0,"source":11},{"sampler":0,"source":12},{"sampler":0,"source":13},{"sampler":0,"source":14},{"sampler":0,"source":15},{"sampler":0,"source":16},{"sampler":0,"source":17},{"sampler":0,"source":18},{"sampler":0,"source":19},{"sampler":0,"source":20},{"sampler":0,"source":21},{"sampler":0,"source":22},{"sampler":0,"source":23},{"sampler":0,"source":24},{"sampler":0,"source":25},{"sampler":0,"source":26},{"sampler":0,"source":27}]}