{"accessors":[{"bufferView":0,"componentType":5122,"count":1136,"max":[24226.0,-13788.0,29538.0],"min":[402.0,-28491.0,1245.0],"normalized":true,"type":"VEC3"},{"bufferView":1,"componentType":5120,"count":1136,"normalized":true,"type":"VEC3"},{"bufferView":2,"componentType":5123,"count":1728,"type":"SCALAR"},{"bufferView":3,"componentType":5122,"count":324,"max":[1368.0,-28388.0,1521.0],"min":[439.0,-28396.0,1290.0],"normalized":true,"type":"VEC3"},{"bufferView":4,"componentType":5120,"count":324,"normalized":true,"type":"VEC3"},{"bufferView":5,"componentType":5123,"count":540,"type":"SCALAR"},{"bufferView":6,"componentType":5122,"count":56,"max":[18028.0,3761.0,32767.0],"min":[14746.0,145.0,32068.0],"normalized":true,"type":"VEC3"},{"bufferView":7,"componentType":5120,"count":56,"normalized":true,"type":"VEC3"},{"bufferView":8,"componentType":5123,"count":252,"type":"SCALAR"},{"bufferView":9,"componentType":5122,"count":56,"max":[11167.0,3803.0,32705.0],"min":[8757.0,-167.0,32117.0],"normalized":true,"type":"VEC3"},{"bufferView":10,"componentType":5120,"count":56,"normalized":true,"type":"VEC3"},{"bufferView":11,"componentType":5123,"count":252,"type":"SCALAR"},{"bufferView":12,"componentType":5122,"count":1764,"max":[6083.0,-32619.0,32600.0],"min":[-779.0,-32638.0,29947.0],"normalized":true,"type":"VEC3"},{"bufferView":13,"componentType":5120,"count":1764,"normalized":true,"type":"VEC3"},{"bufferView":14,"componentType":5123,"count":2916,"type":"SCALAR"},{"bufferView":15,"componentType":5122,"count":1512,"max":[-2208.0,-32619.0,30100.0],"min":[-4087.0,-32638.0,28274.0],"normalized":true,"type":"VEC3"},{"bufferView":16,"componentType":5120,"count":1512,"normalized":true,"type":"VEC3"},{"bufferView":17,"componentType":5123,"count":2508,"type":"SCALAR"},{"bufferView":18,"componentType":5122,"count":16934,"max":[32767.0,32767.0,32738.0],"min":[-32767.0,-32767.0,-32767.0],"normalized":true,"type":"VEC3"},{"bufferView":19,"componentType":5120,"count":16934,"normalized":true,"type":"VEC3"},{"bufferView":20,"componentType":5123,"count":26514,"type":"SCALAR"},{"bufferView":21,"componentType":5122,"count":96,"max":[26687.0,-13216.0,29376.0],"min":[20098.0,-17387.0,29282.0],"normalized":true,"type":"VEC3"},{"bufferView":22,"componentType":5120,"count":96,"normalized":true,"type":"VEC3"},{"bufferView":23,"componentType":5123,"count":132,"type":"SCALAR"},{"bufferView":24,"componentType":5122,"count":112,"max":[6097.0,-32307.0,11559.0],"min":[5549.0,-32654.0,11143.0],"normalized":true,"type":"VEC3"},{"bufferView":25,"componentType":5120,"count":112,"normalized":true,"type":"VEC3"},{"bufferView":26,"componentType":5123,"count":180,"type":"SCALAR"},{"bufferView":27,"componentType":5122,"count":238,"max":[1392.0,-28209.0,16388.0],"min":[-1102.0,-31257.0,15282.0],"normalized":true,"type":"VEC3"},{"bufferView":28,"componentType":5120,"count":238,"normalized":true,"type":"VEC3"},{"bufferView":29,"componentType":5123,"count":756,"type":"SCALAR"},{"bufferView":30,"componentType":5122,"count":17529,"max":[32767.0,32767.0,32767.0],"min":[-32767.0,-32767.0,-32767.0],"normalized":true,"type":"VEC3"},{"bufferView":31,"componentType":5120,"count":17529,"normalized":true,"type":"VEC3"},{"bufferView":32,"componentType":5123,"count":17529,"type":"SCALAR"},{"bufferView":33,"componentType":5122,"count":60,"max":[26681.0,-13223.0,29381.0],"min":[20119.0,-17382.0,29287.0],"normalized":true,"type":"VEC3"},{"bufferView":34,"componentType":5120,"count":60,"normalized":true,"type":"VEC3"},{"bufferView":35,"componentType":5123,"count":60,"type":"SCALAR"},{"bufferView":36,"componentType":5122,"count":5505,"max":[32767.0,32767.0,32767.0],"min":[-32767.0,-32767.0,-32767.0],"normalized":true,"type":"VEC3"},{"bufferView":37,"componentType":5120,"count":5505,"normalized":true,"type":"VEC3"},{"bufferView":38,"componentType":5123,"count":5505,"type":"SCALAR"},{"bufferView":39,"componentType":5122,"count":999,"max":[32767.0,32767.0,32767.0],"min":[-32767.0,-32767.0,-32767.0],"normalized":true,"type":"VEC3"},{"bufferView":40,"componentType":5120,"count":999,"normalized":true,"type":"VEC3"},{"bufferView":41,"componentType":5123,"count":999,"type":"SCALAR"},{"bufferView":42,"componentType":5122,"count":1248,"max":[28194.0,-31184.0,-23004.0],"min":[15889.0,-32021.0,-26711.0],"normalized":true,"type":"VEC3"},{"bufferView":43,"componentType":5120,"count":1248,"normalized":true,"type":"VEC3"},{"bufferView":44,"componentType":5123,"count":1716,"type":"SCALAR"},{"bufferView":45,"componentType":5122,"count":4004,"max":[-19165.0,-15357.0,-26661.0],"min":[-32570.0,-18953.0,-28967.0],"normalized":true,"type":"VEC3"},{"bufferView":46,"componentType":5120,"count":4004,"normalized":true,"type":"VEC3"},{"bufferView":47,"componentType":5123,"count":6216,"type":"SCALAR"},{"bufferView":48,"componentType":5122,"count":96,"max":[32624.0,32767.0,32767.0],"min":[-32767.0,-32121.0,-29062.0],"normalized":true,"type":"VEC3"},{"bufferView":49,"componentType":5120,"count":96,"normalized":true,"type":"VEC3"},{"bufferView":50,"componentType":5123,"count":132,"type":"SCALAR"},{"bufferView":51,"componentType":5122,"count":112,"max":[32624.0,-32315.0,32767.0],"min":[-32767.0,-32767.0,-29062.0],"normalized":true,"type":"VEC3"},{"bufferView":52,"componentType":5120,"count":112,"normalized":true,"type":"VEC3"},{"bufferView":53,"componentType":5123,"count":180,"type":"SCALAR"},{"bufferView":54,"componentType":5122,"count":294,"max":[-16394.0,-23785.0,-31145.0],"min":[-19329.0,-26052.0,-32767.0],"normalized":true,"type":"VEC3"},{"bufferView":55,"componentType":5120,"count":294,"normalized":true,"type":"VEC3"},{"bufferView":56,"componentType":5123,"count":456,"type":"SCALAR"},{"bufferView":57,"componentType":5122,"count":516,"max":[32767.0,-23922.0,-22993.0],"min":[13872.0,-32315.0,-26562.0],"normalized":true,"type":"VEC3"},{"bufferView":58,"componentType":5120,"count":516,"normalized":true,"type":"VEC3"},{"bufferView":59,"componentType":5123,"count":792,"type":"SCALAR"},{"bufferView":60,"componentType":5122,"count":4176,"max":[32767.0,32767.0,32741.0],"min":[-32719.0,-32255.0,-32767.0],"normalized":true,"type":"VEC3"},{"bufferView":61,"componentType":5120,"count":4176,"normalized":true,"type":"VEC3"},{"bufferView":62,"componentType":5123,"count":4176,"type":"SCALAR"},{"bufferView":63,"componentType":5122,"count":84,"max":[32595.0,-32315.0,32767.0],"min":[-32767.0,-32767.0,-29034.0],"normalized":true,"type":"VEC3"},{"bufferView":64,"componentType":5120,"count":84,"normalized":true,"type":"VEC3"},{"bufferView":65,"componentType":5123,"count":84,"type":"SCALAR"},{"bufferView":66,"componentType":5122,"count":1176,"max":[32767.0,32767.0,32766.0],"min":[-32739.0,-32516.0,-32767.0],"normalized":true,"type":"VEC3"},{"bufferView":67,"componentType":5120,"count":1176,"normalized":true,"type":"VEC3"},{"bufferView":68,"componentType":5123,"count":1176,"type":"SCALAR"},{"bufferView":69,"componentType":5122,"count":12,"max":[32609.0,-32714.0,32767.0],"min":[-32767.0,-32767.0,-29014.0],"normalized":true,"type":"VEC3"},{"bufferView":70,"componentType":5120,"count":12,"normalized":true,"type":"VEC3"},{"bufferView":71,"componentType":5123,"count":12,"type":"SCALAR"},{"bufferView":72,"componentType":5122,"count":231,"max":[32767.0,32767.0,32748.0],"min":[-32707.0,-32516.0,-32767.0],"normalized":true,"type":"VEC3"},{"bufferView":73,"componentType":5120,"count":231,"normalized":true,"type":"VEC3"},{"bufferView":74,"componentType":5123,"count":231,"type":"SCALAR"},{"bufferView":75,"componentType":5122,"count":12,"max":[32609.0,-32714.0,32767.0],"min":[-32767.0,-32767.0,-29289.0],"normalized":true,"type":"VEC3"},{"bufferView":76,"componentType":5120,"count":12,"normalized":true,"type":"VEC3"},{"bufferView":77,"componentType":5123,"count":12,"type":"SCALAR"},{"bufferView":78,"componentType":5122,"count":320,"max":[-10657.0,-28741.0,18289.0],"min":[-29374.0,-30299.0,1158.0],"normalized":true,"type":"VEC3"},{"bufferView":79,"componentType":5120,"count":320,"normalized":true,"type":"VEC3"},{"bufferView":80,"componentType":5123,"count":456,"type":"SCALAR"},{"bufferView":81,"componentType":5122,"count":252,"max":[-25541.0,-30172.0,12879.0],"min":[-29542.0,-32593.0,6182.0],"normalized":true,"type":"VEC3"},{"bufferView":82,"componentType":5120,"count":252,"normalized":true,"type":"VEC3"},{"bufferView":83,"componentType":5123,"count":378,"type":"SCALAR"},{"bufferView":84,"componentType":5122,"count":1632,"max":[30900.0,17495.0,28194.0],"min":[-28369.0,-25602.0,-30835.0],"normalized":true,"type":"VEC3"},{"bufferView":85,"componentType":5120,"count":1632,"normalized":true,"type":"VEC3"},{"bufferView":86,"componentType":5123,"count":2256,"type":"SCALAR"},{"bufferView":87,"componentType":5122,"count":1728,"max":[29601.0,14506.0,28194.0],"min":[-31174.0,-26486.0,-30835.0],"normalized":true,"type":"VEC3"},{"bufferView":88,"componentType":5120,"count":1728,"normalized":true,"type":"VEC3"},{"bufferView":89,"componentType":5123,"count":2376,"type":"SCALAR"},{"bufferView":90,"componentType":5122,"count":456,"max":[-16507.0,-26894.0,29622.0],"min":[-24969.0,-31994.0,22466.0],"normalized":true,"type":"VEC3"},{"bufferView":91,"componentType":5120,"count":456,"normalized":true,"type":"VEC3"},{"bufferView":92,"componentType":5123,"count":684,"type":"SCALAR"},{"bufferView":93,"componentType":5122,"count":124099,"max":[32706.0,26082.0,32767.0],"min":[-32697.0,-32767.0,-32767.0],"normalized":true,"type":"VEC3"},{"bufferView":94,"componentType":5120,"count":124099,"normalized":true,"type":"VEC3"},{"bufferView":95,"componentType":5125,"count":180237,"type":"SCALAR"},{"bufferView":96,"componentType":5122,"count":288,"max":[-11961.0,-28694.0,3682.0],"min":[-12730.0,-28710.0,2387.0],"normalized":true,"type":"VEC3"},{"bufferView":97,"componentType":5120,"count":288,"normalized":true,"type":"VEC3"},{"bufferView":98,"componentType":5123,"count":396,"type":"SCALAR"},{"bufferView":99,"componentType":5122,"count":3136,"max":[-7960.0,-31857.0,32527.0],"min":[-23779.0,-31872.0,2867.0],"normalized":true,"type":"VEC3"},{"bufferView":100,"componentType":5120,"count":3136,"normalized":true,"type":"VEC3"},{"bufferView":101,"componentType":5123,"count":5208,"type":"SCALAR"},{"bufferView":102,"componentType":5122,"count":7392,"max":[7470.0,-30375.0,29462.0],"min":[-15077.0,-31948.0,2851.0],"normalized":true,"type":"VEC3"},{"bufferView":103,"componentType":5120,"count":7392,"normalized":true,"type":"VEC3"},{"bufferView":104,"componentType":5123,"count":10164,"type":"SCALAR"},{"bufferView":105,"componentType":5122,"count":240,"max":[32506.0,23700.0,28971.0],"min":[-32495.0,-15763.0,-31879.0],"normalized":true,"type":"VEC3"},{"bufferView":106,"componentType":5120,"count":240,"normalized":true,"type":"VEC3"},{"bufferView":107,"componentType":5123,"count":360,"type":"SCALAR"},{"bufferView":108,"componentType":5122,"count":9872,"max":[30719.0,23700.0,28483.0],"min":[-31034.0,-30981.0,-31124.0],"normalized":true,"type":"VEC3"},{"bufferView":109,"componentType":5120,"count":9872,"normalized":true,"type":"VEC3"},{"bufferView":110,"componentType":5123,"count":14604,"type":"SCALAR"},{"bufferView":111,"componentType":5122,"count":2304,"max":[30719.0,8590.0,27905.0],"min":[-31034.0,-30981.0,-30815.0],"normalized":true,"type":"VEC3"},{"bufferView":112,"componentType":5120,"count":2304,"normalized":true,"type":"VEC3"},{"bufferView":113,"componentType":5123,"count":3168,"type":"SCALAR"},{"bufferView":114,"componentType":5122,"count":112,"max":[-3551.0,-31941.0,28971.0],"min":[-31195.0,-32287.0,1877.0],"normalized":true,"type":"VEC3"},{"bufferView":115,"componentType":5120,"count":112,"normalized":true,"type":"VEC3"},{"bufferView":116,"componentType":5123,"count":180,"type":"SCALAR"},{"bufferView":117,"componentType":5122,"count":4590,"max":[31375.0,31230.0,28447.0],"min":[-31650.0,-31941.0,-31088.0],"normalized":true,"type":"VEC3"},{"bufferView":118,"componentType":5120,"count":4590,"normalized":true,"type":"VEC3"},{"bufferView":119,"componentType":5123,"count":6486,"type":"SCALAR"},{"bufferView":120,"componentType":5122,"count":182,"max":[-15987.0,-30059.0,10263.0],"min":[-25060.0,-32133.0,598.0],"normalized":true,"type":"VEC3"},{"bufferView":121,"componentType":5120,"count":182,"normalized":true,"type":"VEC3"},{"bufferView":122,"componentType":5123,"count":288,"type":"SCALAR"},{"bufferView":123,"componentType":5122,"count":1400,"max":[32767.0,32767.0,28971.0],"min":[-32767.0,-15610.0,-31879.0],"normalized":true,"type":"VEC3"},{"bufferView":124,"componentType":5120,"count":1400,"normalized":true,"type":"VEC3"},{"bufferView":125,"componentType":5121,"count":1400,"normalized":true,"type":"VEC4"},{"bufferView":126,"componentType":5123,"count":2124,"type":"SCALAR"},{"bufferView":127,"componentType":5122,"count":83292,"max":[32706.0,26082.0,32767.0],"min":[-32767.0,-32767.0,-32767.0],"normalized":true,"type":"VEC3"},{"bufferView":128,"componentType":5120,"count":83292,"normalized":true,"type":"VEC3"},{"bufferView":129,"componentType":5125,"count":83292,"type":"SCALAR"},{"bufferView":130,"componentType":5122,"count":180,"max":[32417.0,23605.0,28977.0],"min":[-32473.0,-15702.0,-31879.0],"normalized":true,"type":"VEC3"},{"bufferView":131,"componentType":5120,"count":180,"normalized":true,"type":"VEC3"},{"bufferView":132,"componentType":5123,"count":180,"type":"SCALAR"},{"bufferView":133,"componentType":5122,"count":17430,"max":[30890.0,23700.0,32531.0],"min":[-31235.0,-32593.0,-31123.0],"normalized":true,"type":"VEC3"},{"bufferView":134,"componentType":5120,"count":17430,"normalized":true,"type":"VEC3"},{"bufferView":135,"componentType":5123,"count":17430,"type":"SCALAR"},{"bufferView":136,"componentType":5122,"count":1464,"max":[30686.0,8561.0,27911.0],"min":[-31072.0,-30942.0,-30781.0],"normalized":true,"type":"VEC3"},{"bufferView":137,"componentType":5120,"count":1464,"normalized":true,"type":"VEC3"},{"bufferView":138,"componentType":5123,"count":1464,"type":"SCALAR"},{"bufferView":139,"componentType":5122,"count":81,"max":[-3603.0,-31941.0,28947.0],"min":[-31250.0,-32287.0,1881.0],"normalized":true,"type":"VEC3"},{"bufferView":140,"componentType":5120,"count":81,"normalized":true,"type":"VEC3"},{"bufferView":141,"componentType":5123,"count":81,"type":"SCALAR"},{"bufferView":142,"componentType":5122,"count":3213,"max":[31344.0,31230.0,28436.0],"min":[-31704.0,-31941.0,-31072.0],"normalized":true,"type":"VEC3"},{"bufferView":143,"componentType":5120,"count":3213,"normalized":true,"type":"VEC3"},{"bufferView":144,"componentType":5123,"count":3213,"type":"SCALAR"},{"bufferView":145,"componentType":5122,"count":1047,"max":[32767.0,32767.0,28977.0],"min":[-32640.0,-15248.0,-31879.0],"normalized":true,"type":"VEC3"},{"bufferView":146,"componentType":5120,"count":1047,"normalized":true,"type":"VEC3"},{"bufferView":147,"componentType":5121,"count":1047,"normalized":true,"type":"VEC4"},{"bufferView":148,"componentType":5123,"count":1047,"type":"SCALAR"},{"bufferView":149,"componentType":5122,"count":26109,"max":[32767.0,27448.0,32767.0],"min":[-32767.0,-32767.0,-32767.0],"normalized":true,"type":"VEC3"},{"bufferView":150,"componentType":5120,"count":26109,"normalized":true,"type":"VEC3"},{"bufferView":151,"componentType":5123,"count":26109,"type":"SCALAR"},{"bufferView":152,"componentType":5122,"count":6570,"max":[32488.0,32425.0,32534.0],"min":[-32487.0,-32589.0,-31914.0],"normalized":true,"type":"VEC3"},{"bufferView":153,"componentType":5120,"count":6570,"normalized":true,"type":"VEC3"},{"bufferView":154,"componentType":5123,"count":6570,"type":"SCALAR"},{"bufferView":155,"componentType":5122,"count":312,"max":[32529.0,32767.0,28980.0],"min":[-32595.0,-14827.0,-31914.0],"normalized":true,"type":"VEC3"},{"bufferView":156,"componentType":5120,"count":312,"normalized":true,"type":"VEC3"},{"bufferView":157,"componentType":5121,"count":312,"normalized":true,"type":"VEC4"},{"bufferView":158,"componentType":5123,"count":312,"type":"SCALAR"},{"bufferView":159,"componentType":5122,"count":6231,"max":[32767.0,32767.0,32767.0],"min":[-32767.0,-32767.0,-32767.0],"normalized":true,"type":"VEC3"},{"bufferView":160,"componentType":5120,"count":6231,"normalized":true,"type":"VEC3"},{"bufferView":161,"componentType":5123,"count":6231,"type":"SCALAR"},{"bufferView":162,"componentType":5122,"count":60,"max":[31164.0,26076.0,28989.0],"min":[-30106.0,-12251.0,-31913.0],"normalized":true,"type":"VEC3"},{"bufferView":163,"componentType":5120,"count":60,"normalized":true,"type":"VEC3"},{"bufferView":164,"componentType":5121,"count":60,"normalized":true,"type":"VEC4"},{"bufferView":165,"componentType":5123,"count":60,"type":"SCALAR"},{"bufferView":166,"componentType":5122,"count":504,"max":[2130.0,30417.0,-27850.0],"min":[-35.0,23057.0,-29792.0],"normalized":true,"type":"VEC3"},{"bufferView":167,"componentType":5120,"count":504,"normalized":true,"type":"VEC3"},{"bufferView":168,"componentType":5123,"count":840,"type":"SCALAR"},{"bufferView":169,"componentType":5122,"count":392,"max":[32767.0,32767.0,32767.0],"min":[-32767.0,-32767.0,-32767.0],"normalized":true,"type":"VEC3"},{"bufferView":170,"componentType":5120,"count":392,"normalized":true,"type":"VEC3"},{"bufferView":171,"componentType":5123,"count":636,"type":"SCALAR"},{"bufferView":172,"componentType":5122,"count":299,"max":[24556.0,1535.0,24612.0],"min":[-30339.0,-19534.0,-25951.0],"normalized":true,"type":"VEC3"},{"bufferView":173,"componentType":5120,"count":299,"normalized":true,"type":"VEC3"},{"bufferView":174,"componentType":5121,"count":299,"normalized":true,"type":"VEC4"},{"bufferView":175,"componentType":5123,"count":636,"type":"SCALAR"},{"bufferView":176,"componentType":5122,"count":1020,"max":[32767.0,32767.0,32767.0],"min":[-32767.0,-32767.0,-32767.0],"normalized":true,"type":"VEC3"},{"bufferView":177,"componentType":5120,"count":1020,"normalized":true,"type":"VEC3"},{"bufferView":178,"componentType":5121,"count":1020,"normalized":true,"type":"VEC4"},{"bufferView":179,"componentType":5123,"count":1020,"type":"SCALAR"},{"bufferView":180,"componentType":5122,"count":309,"max":[32767.0,32767.0,32767.0],"min":[-32767.0,-32767.0,-32767.0],"normalized":true,"type":"VEC3"},{"bufferView":181,"componentType":5120,"count":309,"normalized":true,"type":"VEC3"},{"bufferView":182,"componentType":5121,"count":309,"normalized":true,"type":"VEC4"},{"bufferView":183,"componentType":5123,"count":309,"type":"SCALAR"},{"bufferView":184,"componentType":5122,"count":63,"max":[32767.0,32767.0,32767.0],"min":[-32767.0,-32767.0,-32767.0],"normalized":true,"type":"VEC3"},{"bufferView":185,"componentType":5120,"count":63,"normalized":true,"type":"VEC3"},{"bufferView":186,"componentType":5121,"count":63,"normalized":true,"type":"VEC4"},{"bufferView":187,"componentType":5123,"count":63,"type":"SCALAR"},{"bufferView":188,"componentType":5122,"count":1136,"normalized":true,"type":"VEC2"},{"bufferView":189,"componentType":5122,"count":324,"normalized":true,"type":"VEC2"},{"bufferView":190,"componentType":5122,"count":56,"normalized":true,"type":"VEC2"},{"bufferView":191,"componentType":5122,"count":56,"normalized":true,"type":"VEC2"},{"bufferView":192,"componentType":5122,"count":1764,"normalized":true,"type":"VEC2"},{"bufferView":193,"componentType":5122,"count":1512,"normalized":true,"type":"VEC2"},{"bufferView":194,"componentType":5122,"count":16934,"normalized":true,"type":"VEC2"},{"bufferView":195,"componentType":5122,"count":96,"normalized":true,"type":"VEC2"},{"bufferView":196,"componentType":5122,"count":112,"normalized":true,"type":"VEC2"},{"bufferView":197,"componentType":5122,"count":238,"normalized":true,"type":"VEC2"},{"bufferView":198,"componentType":5122,"count":17529,"normalized":true,"type":"VEC2"},{"bufferView":199,"componentType":5122,"count":60,"normalized":true,"type":"VEC2"},{"bufferView":200,"componentType":5122,"count":5505,"normalized":true,"type":"VEC2"},{"bufferView":201,"componentType":5122,"count":999,"normalized":true,"type":"VEC2"},{"bufferView":202,"componentType":5122,"count":1248,"normalized":true,"type":"VEC2"},{"bufferView":203,"componentType":5122,"count":4004,"normalized":true,"type":"VEC2"},{"bufferView":204,"componentType":5122,"count":96,"normalized":true,"type":"VEC2"},{"bufferView":205,"componentType":5122,"count":112,"normalized":true,"type":"VEC2"},{"bufferView":206,"componentType":5122,"count":294,"normalized":true,"type":"VEC2"},{"bufferView":207,"componentType":5122,"count":516,"normalized":true,"type":"VEC2"},{"bufferView":208,"componentType":5122,"count":4176,"normalized":true,"type":"VEC2"},{"bufferView":209,"componentType":5122,"count":84,"normalized":true,"type":"VEC2"},{"bufferView":210,"componentType":5122,"count":1176,"normalized":true,"type":"VEC2"},{"bufferView":211,"componentType":5122,"count":12,"normalized":true,"type":"VEC2"},{"bufferView":212,"componentType":5122,"count":231,"normalized":true,"type":"VEC2"},{"bufferView":213,"componentType":5122,"count":12,"normalized":true,"type":"VEC2"},{"bufferView":214,"componentType":5122,"count":320,"normalized":true,"type":"VEC2"},{"bufferView":215,"componentType":5122,"count":252,"normalized":true,"type":"VEC2"},{"bufferView":216,"componentType":5122,"count":1632,"normalized":true,"type":"VEC2"},{"bufferView":217,"componentType":5122,"count":1728,"normalized":true,"type":"VEC2"},{"bufferView":218,"componentType":5122,"count":456,"normalized":true,"type":"VEC2"},{"bufferView":219,"componentType":5122,"count":124099,"normalized":true,"type":"VEC2"},{"bufferView":220,"componentType":5122,"count":288,"normalized":true,"type":"VEC2"},{"bufferView":221,"componentType":5122,"count":3136,"normalized":true,"type":"VEC2"},{"bufferView":222,"componentType":5122,"count":7392,"normalized":true,"type":"VEC2"},{"bufferView":223,"componentType":5122,"count":240,"normalized":true,"type":"VEC2"},{"bufferView":224,"componentType":5122,"count":9872,"normalized":true,"type":"VEC2"},{"bufferView":225,"componentType":5122,"count":2304,"normalized":true,"type":"VEC2"},{"bufferView":226,"componentType":5122,"count":112,"normalized":true,"type":"VEC2"},{"bufferView":227,"componentType":5122,"count":4590,"normalized":true,"type":"VEC2"},{"bufferView":228,"componentType":5122,"count":182,"normalized":true,"type":"VEC2"},{"bufferView":229,"componentType":5122,"count":1400,"normalized":true,"type":"VEC2"},{"bufferView":230,"componentType":5122,"count":83292,"normalized":true,"type":"VEC2"},{"bufferView":231,"componentType":5122,"count":180,"normalized":true,"type":"VEC2"},{"bufferView":232,"componentType":5122,"count":17430,"normalized":true,"type":"VEC2"},{"bufferView":233,"componentType":5122,"count":1464,"normalized":true,"type":"VEC2"},{"bufferView":234,"componentType":5122,"count":81,"normalized":true,"type":"VEC2"},{"bufferView":235,"componentType":5122,"count":3213,"normalized":true,"type":"VEC2"},{"bufferView":236,"componentType":5122,"count":1047,"normalized":true,"type":"VEC2"},{"bufferView":237,"componentType":5122,"count":26109,"normalized":true,"type":"VEC2"},{"bufferView":238,"componentType":5122,"count":6570,"normalized":true,"type":"VEC2"},{"bufferView":239,"componentType":5122,"count":312,"normalized":true,"type":"VEC2"},{"bufferView":240,"componentType":5122,"count":6231,"normalized":true,"type":"VEC2"},{"bufferView":241,"componentType":5122,"count":60,"normalized":true,"type":"VEC2"},{"bufferView":242,"componentType":5122,"count":504,"normalized":true,"type":"VEC2"},{"bufferView":243,"componentType":5122,"count":392,"normalized":true,"type":"VEC2"},{"bufferView":244,"componentType":5122,"count":299,"normalized":true,"type":"VEC2"},{"bufferView":245,"componentType":5122,"count":1020,"normalized":true,"type":"VEC2"},{"bufferView":246,"componentType":5122,"count":309,"normalized":true,"type":"VEC2"},{"bufferView":247,"componentType":5122,"count":63,"normalized":true,"type":"VEC2"}],"asset":{"generator":"evermore assetgen","version":"2.0"},"bufferViews":[{"buffer":0,"byteLength":9088,"byteOffset":0,"byteStride":8,"target":34962},{"buffer":0,"byteLength":4544,"byteOffset":9088,"byteStride":4,"target":34962},{"buffer":0,"byteLength":3456,"byteOffset":13632,"target":34963},{"buffer":0,"byteLength":2592,"byteOffset":17088,"byteStride":8,"target":34962},{"buffer":0,"byteLength":1296,"byteOffset":19680,"byteStride":4,"target":34962},{"buffer":0,"byteLength":1080,"byteOffset":20976,"target":34963},{"buffer":0,"byteLength":448,"byteOffset":22056,"byteStride":8,"target":34962},{"buffer":0,"byteLength":224,"byteOffset":22504,"byteStride":4,"target":34962},{"buffer":0,"byteLength":504,"byteOffset":22728,"target":34963},{"buffer":0,"byteLength":448,"byteOffset":23232,"byteStride":8,"target":34962},{"buffer":0,"byteLength":224,"byteOffset":23680,"byteStride":4,"target":34962},{"buffer":0,"byteLength":504,"byteOffset":23904,"target":34963},{"buffer":0,"byteLength":14112,"byteOffset":24408,"byteStride":8,"target":34962},{"buffer":0,"byteLength":7056,"byteOffset":38520,"byteStride":4,"target":34962},{"buffer":0,"byteLength":5832,"byteOffset":45576,"target":34963},{"buffer":0,"byteLength":12096,"byteOffset":51408,"byteStride":8,"target":34962},{"buffer":0,"byteLength":6048,"byteOffset":63504,"byteStride":4,"target":34962},{"buffer":0,"byteLength":5016,"byteOffset":69552,"target":34963},{"buffer":0,"byteLength":135472,"byteOffset":74568,"byteStride":8,"target":34962},{"buffer":0,"byteLength":67736,"byteOffset":210040,"byteStride":4,"target":34962},{"buffer":0,"byteLength":53028,"byteOffset":277776,"target":34963},{"buffer":0,"byteLength":768,"byteOffset":330804,"byteStride":8,"target":34962},{"buffer":0,"byteLength":384,"byteOffset":331572,"byteStride":4,"target":34962},{"buffer":0,"byteLength":264,"byteOffset":331956,"target":34963},{"buffer":0,"byteLength":896,"byteOffset":332220,"byteStride":8,"target":34962},{"buffer":0,"byteLength":448,"byteOffset":333116,"byteStride":4,"target":34962},{"buffer":0,"byteLength":360,"byteOffset":333564,"target":34963},{"buffer":0,"byteLength":1904,"byteOffset":333924,"byteStride":8,"target":34962},{"buffer":0,"byteLength":952,"byteOffset":335828,"byteStride":4,"target":34962},{"buffer":0,"byteLength":1512,"byteOffset":336780,"target":34963},{"buffer":0,"byteLength":140232,"byteOffset":338292,"byteStride":8,"target":34962},{"buffer":0,"byteLength":70116,"byteOffset":478524,"byteStride":4,"target":34962},{"buffer":0,"byteLength":35058,"byteOffset":548640,"target":34963},{"buffer":0,"byteLength":480,"byteOffset":583700,"byteStride":8,"target":34962},{"buffer":0,"byteLength":240,"byteOffset":584180,"byteStride":4,"target":34962},{"buffer":0,"byteLength":120,"byteOffset":584420,"target":34963},{"buffer":0,"byteLength":44040,"byteOffset":584540,"byteStride":8,"target":34962},{"buffer":0,"byteLength":22020,"byteOffset":628580,"byteStride":4,"target":34962},{"buffer":0,"byteLength":11010,"byteOffset":650600,"target":34963},{"buffer":0,"byteLength":7992,"byteOffset":661612,"byteStride":8,"target":34962},{"buffer":0,"byteLength":3996,"byteOffset":669604,"byteStride":4,"target":34962},{"buffer":0,"byteLength":1998,"byteOffset":673600,"target":34963},{"buffer":0,"byteLength":9984,"byteOffset":675600,"byteStride":8,"target":34962},{"buffer":0,"byteLength":4992,"byteOffset":685584,"byteStride":4,"target":34962},{"buffer":0,"byteLength":3432,"byteOffset":690576,"target":34963},{"buffer":0,"byteLength":32032,"byteOffset":694008,"byteStride":8,"target":34962},{"buffer":0,"byteLength":16016,"byteOffset":726040,"byteStride":4,"target":34962},{"buffer":0,"byteLength":12432,"byteOffset":742056,"target":34963},{"buffer":0,"byteLength":768,"byteOffset":754488,"byteStride":8,"target":34962},{"buffer":0,"byteLength":384,"byteOffset":755256,"byteStride":4,"target":34962},{"buffer":0,"byteLength":264,"byteOffset":755640,"target":34963},{"buffer":0,"byteLength":896,"byteOffset":755904,"byteStride":8,"target":34962},{"buffer":0,"byteLength":448,"byteOffset":756800,"byteStride":4,"target":34962},{"buffer":0,"byteLength":360,"byteOffset":757248,"target":34963},{"buffer":0,"byteLength":2352,"byteOffset":757608,"byteStride":8,"target":34962},{"buffer":0,"byteLength":1176,"byteOffset":759960,"byteStride":4,"target":34962},{"buffer":0,"byteLength":912,"byteOffset":761136,"target":34963},{"buffer":0,"byteLength":4128,"byteOffset":762048,"byteStride":8,"target":34962},{"buffer":0,"byteLength":2064,"byteOffset":766176,"byteStride":4,"target":34962},{"buffer":0,"byteLength":1584,"byteOffset":768240,"target":34963},{"buffer":0,"byteLength":33408,"byteOffset":769824,"byteStride":8,"target":34962},{"buffer":0,"byteLength":16704,"byteOffset":803232,"byteStride":4,"target":34962},{"buffer":0,"byteLength":8352,"byteOffset":819936,"target":34963},{"buffer":0,"byteLength":672,"byteOffset":828288,"byteStride":8,"target":34962},{"buffer":0,"byteLength":336,"byteOffset":828960,"byteStride":4,"target":34962},{"buffer":0,"byteLength":168,"byteOffset":829296,"target":34963},{"buffer":0,"byteLength":9408,"byteOffset":829464,"byteStride":8,"target":34962},{"buffer":0,"byteLength":4704,"byteOffset":838872,"byteStride":4,"target":34962},{"buffer":0,"byteLength":2352,"byteOffset":843576,"target":34963},{"buffer":0,"byteLength":96,"byteOffset":845928,"byteStride":8,"target":34962},{"buffer":0,"byteLength":48,"byteOffset":846024,"byteStride":4,"target":34962},{"buffer":0,"byteLength":24,"byteOffset":846072,"target":34963},{"buffer":0,"byteLength":1848,"byteOffset":846096,"byteStride":8,"target":34962},{"buffer":0,"byteLength":924,"byteOffset":847944,"byteStride":4,"target":34962},{"buffer":0,"byteLength":462,"byteOffset":848868,"target":34963},{"buffer":0,"byteLength":96,"byteOffset":849332,"byteStride":8,"target":34962},{"buffer":0,"byteLength":48,"byteOffset":849428,"byteStride":4,"target":34962},{"buffer":0,"byteLength":24,"byteOffset":849476,"target":34963},{"buffer":0,"byteLength":2560,"byteOffset":849500,"byteStride":8,"target":34962},{"buffer":0,"byteLength":1280,"byteOffset":852060,"byteStride":4,"target":34962},{"buffer":0,"byteLength":912,"byteOffset":853340,"target":34963},{"buffer":0,"byteLength":2016,"byteOffset":854252,"byteStride":8,"target":34962},{"buffer":0,"byteLength":1008,"byteOffset":856268,"byteStride":4,"target":34962},{"buffer":0,"byteLength":756,"byteOffset":857276,"target":34963},{"buffer":0,"byteLength":13056,"byteOffset":858032,"byteStride":8,"target":34962},{"buffer":0,"byteLength":6528,"byteOffset":871088,"byteStride":4,"target":34962},{"buffer":0,"byteLength":4512,"byteOffset":877616,"target":34963},{"buffer":0,"byteLength":13824,"byteOffset":882128,"byteStride":8,"target":34962},{"buffer":0,"byteLength":6912,"byteOffset":895952,"byteStride":4,"target":34962},{"buffer":0,"byteLength":4752,"byteOffset":902864,"target":34963},{"buffer":0,"byteLength":3648,"byteOffset":907616,"byteStride":8,"target":34962},{"buffer":0,"byteLength":1824,"byteOffset":911264,"byteStride":4,"target":34962},{"buffer":0,"byteLength":1368,"byteOffset":913088,"target":34963},{"buffer":0,"byteLength":992792,"byteOffset":914456,"byteStride":8,"target":34962},{"buffer":0,"byteLength":496396,"byteOffset":1907248,"byteStride":4,"target":34962},{"buffer":0,"byteLength":720948,"byteOffset":2403644,"target":34963},{"buffer":0,"byteLength":2304,"byteOffset":3124592,"byteStride":8,"target":34962},{"buffer":0,"byteLength":1152,"byteOffset":3126896,"byteStride":4,"target":34962},{"buffer":0,"byteLength":792,"byteOffset":3128048,"target":34963},{"buffer":0,"byteLength":25088,"byteOffset":3128840,"byteStride":8,"target":34962},{"buffer":0,"byteLength":12544,"byteOffset":3153928,"byteStride":4,"target":34962},{"buffer":0,"byteLength":10416,"byteOffset":3166472,"target":34963},{"buffer":0,"byteLength":59136,"byteOffset":3176888,"byteStride":8,"target":34962},{"buffer":0,"byteLength":29568,"byteOffset":3236024,"byteStride":4,"target":34962},{"buffer":0,"byteLength":20328,"byteOffset":3265592,"target":34963},{"buffer":0,"byteLength":1920,"byteOffset":3285920,"byteStride":8,"target":34962},{"buffer":0,"byteLength":960,"byteOffset":3287840,"byteStride":4,"target":34962},{"buffer":0,"byteLength":720,"byteOffset":3288800,"target":34963},{"buffer":0,"byteLength":78976,"byteOffset":3289520,"byteStride":8,"target":34962},{"buffer":0,"byteLength":39488,"byteOffset":3368496,"byteStride":4,"target":34962},{"buffer":0,"byteLength":29208,"byteOffset":3407984,"target":34963},{"buffer":0,"byteLength":18432,"byteOffset":3437192,"byteStride":8,"target":34962},{"buffer":0,"byteLength":9216,"byteOffset":3455624,"byteStride":4,"target":34962},{"buffer":0,"byteLength":6336,"byteOffset":3464840,"target":34963},{"buffer":0,"byteLength":896,"byteOffset":3471176,"byteStride":8,"target":34962},{"buffer":0,"byteLength":448,"byteOffset":3472072,"byteStride":4,"target":34962},{"buffer":0,"byteLength":360,"byteOffset":3472520,"target":34963},{"buffer":0,"byteLength":36720,"byteOffset":3472880,"byteStride":8,"target":34962},{"buffer":0,"byteLength":18360,"byteOffset":3509600,"byteStride":4,"target":34962},{"buffer":0,"byteLength":12972,"byteOffset":3527960,"target":34963},{"buffer":0,"byteLength":1456,"byteOffset":3540932,"byteStride":8,"target":34962},{"buffer":0,"byteLength":728,"byteOffset":3542388,"byteStride":4,"target":34962},{"buffer":0,"byteLength":576,"byteOffset":3543116,"target":34963},{"buffer":0,"byteLength":11200,"byteOffset":3543692,"byteStride":8,"target":34962},{"buffer":0,"byteLength":5600,"byteOffset":3554892,"byteStride":4,"target":34962},{"buffer":0,"byteLength":5600,"byteOffset":3560492,"byteStride":4,"target":34962},{"buffer":0,"byteLength":4248,"byteOffset":3566092,"target":34963},{"buffer":0,"byteLength":666336,"byteOffset":3570340,"byteStride":8,"target":34962},{"buffer":0,"byteLength":333168,"byteOffset":4236676,"byteStride":4,"target":34962},{"buffer":0,"byteLength":333168,"byteOffset":4569844,"target":34963},{"buffer":0,"byteLength":1440,"byteOffset":4903012,"byteStride":8,"target":34962},{"buffer":0,"byteLength":720,"byteOffset":4904452,"byteStride":4,"target":34962},{"buffer":0,"byteLength":360,"byteOffset":4905172,"target":34963},{"buffer":0,"byteLength":139440,"byteOffset":4905532,"byteStride":8,"target":34962},{"buffer":0,"byteLength":69720,"byteOffset":5044972,"byteStride":4,"target":34962},{"buffer":0,"byteLength":34860,"byteOffset":5114692,"target":34963},{"buffer":0,"byteLength":11712,"byteOffset":5149552,"byteStride":8,"target":34962},{"buffer":0,"byteLength":5856,"byteOffset":5161264,"byteStride":4,"target":34962},{"buffer":0,"byteLength":2928,"byteOffset":5167120,"target":34963},{"buffer":0,"byteLength":648,"byteOffset":5170048,"byteStride":8,"target":34962},{"buffer":0,"byteLength":324,"byteOffset":5170696,"byteStride":4,"target":34962},{"buffer":0,"byteLength":162,"byteOffset":5171020,"target":34963},{"buffer":0,"byteLength":25704,"byteOffset":5171184,"byteStride":8,"target":34962},{"buffer":0,"byteLength":12852,"byteOffset":5196888,"byteStride":4,"target":34962},{"buffer":0,"byteLength":6426,"byteOffset":5209740,"target":34963},{"buffer":0,"byteLength":8376,"byteOffset":5216168,"byteStride":8,"target":34962},{"buffer":0,"byteLength":4188,"byteOffset":5224544,"byteStride":4,"target":34962},{"buffer":0,"byteLength":4188,"byteOffset":5228732,"byteStride":4,"target":34962},{"buffer":0,"byteLength":2094,"byteOffset":5232920,"target":34963},{"buffer":0,"byteLength":208872,"byteOffset":5235016,"byteStride":8,"target":34962},{"buffer":0,"byteLength":104436,"byteOffset":5443888,"byteStride":4,"target":34962},{"buffer":0,"byteLength":52218,"byteOffset":5548324,"target":34963},{"buffer":0,"byteLength":52560,"byteOffset":5600544,"byteStride":8,"target":34962},{"buffer":0,"byteLength":26280,"byteOffset":5653104,"byteStride":4,"target":34962},{"buffer":0,"byteLength":13140,"byteOffset":5679384,"target":34963},{"buffer":0,"byteLength":2496,"byteOffset":5692524,"byteStride":8,"target":34962},{"buffer":0,"byteLength":1248,"byteOffset":5695020,"byteStride":4,"target":34962},{"buffer":0,"byteLength":1248,"byteOffset":5696268,"byteStride":4,"target":34962},{"buffer":0,"byteLength":624,"byteOffset":5697516,"target":34963},{"buffer":0,"byteLength":49848,"byteOffset":5698140,"byteStride":8,"target":34962},{"buffer":0,"byteLength":24924,"byteOffset":5747988,"byteStride":4,"target":34962},{"buffer":0,"byteLength":12462,"byteOffset":5772912,"target":34963},{"buffer":0,"byteLength":480,"byteOffset":5785376,"byteStride":8,"target":34962},{"buffer":0,"byteLength":240,"byteOffset":5785856,"byteStride":4,"target":34962},{"buffer":0,"byteLength":240,"byteOffset":5786096,"byteStride":4,"target":34962},{"buffer":0,"byteLength":120,"byteOffset":5786336,"target":34963},{"buffer":0,"byteLength":4032,"byteOffset":5786456,"byteStride":8,"target":34962},{"buffer":0,"byteLength":2016,"byteOffset":5790488,"byteStride":4,"target":34962},{"buffer":0,"byteLength":1680,"byteOffset":5792504,"target":34963},{"buffer":0,"byteLength":3136,"byteOffset":5794184,"byteStride":8,"target":34962},{"buffer":0,"byteLength":1568,"byteOffset":5797320,"byteStride":4,"target":34962},{"buffer":0,"byteLength":1272,"byteOffset":5798888,"target":34963},{"buffer":0,"byteLength":2392,"byteOffset":5800160,"byteStride":8,"target":34962},{"buffer":0,"byteLength":1196,"byteOffset":5802552,"byteStride":4,"target":34962},{"buffer":0,"byteLength":1196,"byteOffset":5803748,"byteStride":4,"target":34962},{"buffer":0,"byteLength":1272,"byteOffset":5804944,"target":34963},{"buffer":0,"byteLength":8160,"byteOffset":5806216,"byteStride":8,"target":34962},{"buffer":0,"byteLength":4080,"byteOffset":5814376,"byteStride":4,"target":34962},{"buffer":0,"byteLength":4080,"byteOffset":5818456,"byteStride":4,"target":34962},{"buffer":0,"byteLength":2040,"byteOffset":5822536,"target":34963},{"buffer":0,"byteLength":2472,"byteOffset":5824576,"byteStride":8,"target":34962},{"buffer":0,"byteLength":1236,"byteOffset":5827048,"byteStride":4,"target":34962},{"buffer":0,"byteLength":1236,"byteOffset":5828284,"byteStride":4,"target":34962},{"buffer":0,"byteLength":618,"byteOffset":5829520,"target":34963},{"buffer":0,"byteLength":504,"byteOffset":5830140,"byteStride":8,"target":34962},{"buffer":0,"byteLength":252,"byteOffset":5830644,"byteStride":4,"target":34962},{"buffer":0,"byteLength":252,"byteOffset":5830896,"byteStride":4,"target":34962},{"buffer":0,"byteLength":126,"byteOffset":5831148,"target":34963},{"buffer":0,"byteLength":4544,"byteOffset":5831276,"byteStride":4,"target":34962},{"buffer":0,"byteLength":1296,"byteOffset":5835820,"byteStride":4,"target":34962},{"buffer":0,"byteLength":224,"byteOffset":5837116,"byteStride":4,"target":34962},{"buffer":0,"byteLength":224,"byteOffset":5837340,"byteStride":4,"target":34962},{"buffer":0,"byteLength":7056,"byteOffset":5837564,"byteStride":4,"target":34962},{"buffer":0,"byteLength":6048,"byteOffset":5844620,"byteStride":4,"target":34962},{"buffer":0,"byteLength":67736,"byteOffset":5850668,"byteStride":4,"target":34962},{"buffer":0,"byteLength":384,"byteOffset":5918404,"byteStride":4,"target":34962},{"buffer":0,"byteLength":448,"byteOffset":5918788,"byteStride":4,"target":34962},{"buffer":0,"byteLength":952,"byteOffset":5919236,"byteStride":4,"target":34962},{"buffer":0,"byteLength":70116,"byteOffset":5920188,"byteStride":4,"target":34962},{"buffer":0,"byteLength":240,"byteOffset":5990304,"byteStride":4,"target":34962},{"buffer":0,"byteLength":22020,"byteOffset":5990544,"byteStride":4,"target":34962},{"buffer":0,"byteLength":3996,"byteOffset":6012564,"byteStride":4,"target":34962},{"buffer":0,"byteLength":4992,"byteOffset":6016560,"byteStride":4,"target":34962},{"buffer":0,"byteLength":16016,"byteOffset":6021552,"byteStride":4,"target":34962},{"buffer":0,"byteLength":384,"byteOffset":6037568,"byteStride":4,"target":34962},{"buffer":0,"byteLength":448,"byteOffset":6037952,"byteStride":4,"target":34962},{"buffer":0,"byteLength":1176,"byteOffset":6038400,"byteStride":4,"target":34962},{"buffer":0,"byteLength":2064,"byteOffset":6039576,"byteStride":4,"target":34962},{"buffer":0,"byteLength":16704,"byteOffset":6041640,"byteStride":4,"target":34962},{"buffer":0,"byteLength":336,"byteOffset":6058344,"byteStride":4,"target":34962},{"buffer":0,"byteLength":4704,"byteOffset":6058680,"byteStride":4,"target":34962},{"buffer":0,"byteLength":48,"byteOffset":6063384,"byteStride":4,"target":34962},{"buffer":0,"byteLength":924,"byteOffset":6063432,"byteStride":4,"target":34962},{"buffer":0,"byteLength":48,"byteOffset":6064356,"byteStride":4,"target":34962},{"buffer":0,"byteLength":1280,"byteOffset":6064404,"byteStride":4,"target":34962},{"buffer":0,"byteLength":1008,"byteOffset":6065684,"byteStride":4,"target":34962},{"buffer":0,"byteLength":6528,"byteOffset":6066692,"byteStride":4,"target":34962},{"buffer":0,"byteLength":6912,"byteOffset":6073220,"byteStride":4,"target":34962},{"buffer":0,"byteLength":1824,"byteOffset":6080132,"byteStride":4,"target":34962},{"buffer":0,"byteLength":496396,"byteOffset":6081956,"byteStride":4,"target":34962},{"buffer":0,"byteLength":1152,"byteOffset":6578352,"byteStride":4,"target":34962},{"buffer":0,"byteLength":12544,"byteOffset":6579504,"byteStride":4,"target":34962},{"buffer":0,"byteLength":29568,"byteOffset":6592048,"byteStride":4,"target":34962},{"buffer":0,"byteLength":960,"byteOffset":6621616,"byteStride":4,"target":34962},{"buffer":0,"byteLength":39488,"byteOffset":6622576,"byteStride":4,"target":34962},{"buffer":0,"byteLength":9216,"byteOffset":6662064,"byteStride":4,"target":34962},{"buffer":0,"byteLength":448,"byteOffset":6671280,"byteStride":4,"target":34962},{"buffer":0,"byteLength":18360,"byteOffset":6671728,"byteStride":4,"target":34962},{"buffer":0,"byteLength":728,"byteOffset":6690088,"byteStride":4,"target":34962},{"buffer":0,"byteLength":5600,"byteOffset":6690816,"byteStride":4,"target":34962},{"buffer":0,"byteLength":333168,"byteOffset":6696416,"byteStride":4,"target":34962},{"buffer":0,"byteLength":720,"byteOffset":7029584,"byteStride":4,"target":34962},{"buffer":0,"byteLength":69720,"byteOffset":7030304,"byteStride":4,"target":34962},{"buffer":0,"byteLength":5856,"byteOffset":7100024,"byteStride":4,"target":34962},{"buffer":0,"byteLength":324,"byteOffset":7105880,"byteStride":4,"target":34962},{"buffer":0,"byteLength":12852,"byteOffset":7106204,"byteStride":4,"target":34962},{"buffer":0,"byteLength":4188,"byteOffset":7119056,"byteStride":4,"target":34962},{"buffer":0,"byteLength":104436,"byteOffset":7123244,"byteStride":4,"target":34962},{"buffer":0,"byteLength":26280,"byteOffset":7227680,"byteStride":4,"target":34962},{"buffer":0,"byteLength":1248,"byteOffset":7253960,"byteStride":4,"target":34962},{"buffer":0,"byteLength":24924,"byteOffset":7255208,"byteStride":4,"target":34962},{"buffer":0,"byteLength":240,"byteOffset":7280132,"byteStride":4,"target":34962},{"buffer":0,"byteLength":2016,"byteOffset":7280372,"byteStride":4,"target":34962},{"buffer":0,"byteLength":1568,"byteOffset":7282388,"byteStride":4,"target":34962},{"buffer":0,"byteLength":1196,"byteOffset":7283956,"byteStride":4,"target":34962},{"buffer":0,"byteLength":4080,"byteOffset":7285152,"byteStride":4,"target":34962},{"buffer":0,"byteLength":1236,"byteOffset":7289232,"byteStride":4,"target":34962},{"buffer":0,"byteLength":252,"byteOffset":7290468,"byteStride":4,"target":34962}],"buffers":[{"byteLength":7290720,"uri":"inn.bin"}],"extensionsRequired":["KHR_mesh_quantization","KHR_texture_transform"],"extensionsUsed":["KHR_mesh_quantization","KHR_texture_transform","MSFT_lod"],"extras":{"hm":{"batching":true,"cellSize":16.0,"cells":[{"cullAt":null,"interior":null,"key":"0_0","lodPrims":[10,2,1,1],"lodTris":[11926,5863,1835,333],"max":[6.693,14.619,7.273],"min":[-5.48,0.428,-6.742]},{"cullAt":null,"interior":null,"key":"0_n1","lodPrims":[6,2,2,2],"lodTris":[3164,1420,396,81],"max":[6.115,10.55,5.65],"min":[-0.7,0.4,-6.804]},{"cullAt":null,"interior":null,"key":"n1_0","lodPrims":[16,7,3,2],"lodTris":[76455,35569,10997,2097],"max":[7.734,16.893,7.855],"min":[-8.387,-0.165,-6.9]},{"cullAt":null,"interior":null,"key":"n1_n1","lodPrims":[3,1,1,1],"lodTris":[704,340,103,21],"max":[6.62,3.02,6.17],"min":[-8.08,-0.1,-6.62]}],"instanced":[],"instancing":true,"interiors":[],"lod":true,"lodDistances":[15.0,40.0,100.0],"stats":{"groups":4,"lodPrims":[35,12,7,6],"lodTris":[92249,43192,13331,2532]},"venue":"inn"}},"images":[{"uri":"../textures/kit_albedo.png"},{"uri":"../textures/kit_orm.png"},{"uri":"../textures/kit_normal.png"},{"uri":"../textures/rubble_albedo.png"},{"uri":"../textures/rubble_orm.png"},{"uri":"../textures/rubble_normal.png"},{"uri":"../textures/plaster_shade_albedo.png"},{"uri":"../textures/plaster_shade_orm.png"},{"uri":"../textures/plaster_shade_normal.png"},{"uri":"../textures/plaster_albedo.png"},{"uri":"../textures/plaster_orm.png"},{"uri":"../textures/plaster_normal.png"},{"uri":"../textures/oak_dark_albedo.png"},{"uri":"../textures/oak_dark_orm.png"},{"uri":"../textures/oak_dark_normal.png"},{"uri":"../textures/stone_albedo.png"},{"uri":"../textures/stone_orm.png"},{"uri":"../textures/stone_normal.png"},{"uri":"../textures/iron_albedo.png"},{"uri":"../textures/iron_orm.png"},{"uri":"../textures/iron_normal.png"},{"uri":"../textures/glass_lit_albedo.png"},{"uri":"../textures/glass_lit_orm.png"},{"uri":"../textures/glass_lit_normal.png"},{"uri":"../textures/glass_lit_emissive.png"},{"uri":"../textures/glass_albedo.png"},{"uri":"../textures/glass_orm.png"},{"uri":"../textures/glass_normal.png"},{"uri":"../textures/glass_emissive.png"},{"uri":"../textures/oak_weathered_albedo.png"},{"uri":"../textures/oak_weathered_orm.png"},{"uri":"../textures/oak_weathered_normal.png"},{"uri":"../textures/cloth_blue_albedo.png"},{"uri":"../textures/cloth_blue_orm.png"},{"uri":"../textures/cloth_blue_normal.png"},{"uri":"../textures/cloth_green_albedo.png"},{"uri":"../textures/cloth_green_orm.png"},{"uri":"../textures/cloth_green_normal.png"},{"uri":"../textures/terracotta_albedo.png"},{"uri":"../textures/terracotta_orm.png"},{"uri":"../textures/terracotta_normal.png"},{"uri":"../textures/limewash_albedo.png"},{"uri":"../textures/limewash_orm.png"},{"uri":"../textures/limewash_normal.png"},{"uri":"../textures/alabaster_albedo.png"},{"uri":"../textures/alabaster_orm.png"},{"uri":"../textures/alabaster_normal.png"},{"uri":"../textures/timber_charred_albedo.png"},{"uri":"../textures/timber_charred_orm.png"},{"uri":"../textures/timber_charred_normal.png"},{"uri":"../textures/coal_albedo.png"},{"uri":"../textures/coal_orm.png"},{"uri":"../textures/coal_normal.png"},{"uri":"../textures/coal_emissive.png"},{"uri":"../textures/sugar_albedo.png"},{"uri":"../textures/sugar_orm.png"},{"uri":"../textures/sugar_normal.png"},{"uri":"../textures/water_albedo.png"},{"uri":"../textures/water_orm.png"},{"uri":"../textures/water_normal.png"},{"uri":"../textures/wool_crimson_albedo.png"},{"uri":"../textures/wool_crimson_orm.png"},{"uri":"../textures/wool_crimson_normal.png"},{"uri":"../textures/cinder_albedo.png"},{"uri":"../textures/cinder_orm.png"},{"uri":"../textures/cinder_normal.png"},{"uri":"../textures/pottery_slip_albedo.png"},{"uri":"../textures/pottery_slip_orm.png"},{"uri":"../textures/pottery_slip_normal.png"},{"uri":"../textures/grass_dry_albedo.png"},{"uri":"../textures/grass_dry_orm.png"},{"uri":"../textures/grass_dry_normal.png"},{"uri":"../textures/foliage_albedo.png"},{"uri":"../textures/foliage_orm.png"},{"uri":"../textures/foliage_normal.png"},{"uri":"../textures/straw_albedo.png"},{"uri":"../textures/straw_orm.png"},{"uri":"../textures/straw_normal.png"},{"uri":"../textures/dirt_albedo.png"},{"uri":"../textures/dirt_orm.png"},{"uri":"../textures/dirt_normal.png"},{"uri":"../textures/sett_albedo.png"},{"uri":"../textures/sett_orm.png"},{"uri":"../textures/sett_normal.png"},{"uri":"../textures/mud_albedo.png"},{"uri":"../textures/mud_orm.png"},{"uri":"../textures/mud_normal.png"},{"uri":"../textures/algae_albedo.png"},{"uri":"../textures/algae_orm.png"},{"uri":"../textures/algae_normal.png"},{"uri":"../textures/leaf_oak_albedo.png"},{"uri":"../textures/leaf_oak_orm.png"},{"uri":"../textures/leaf_oak_normal.png"},{"uri":"../textures/mud_wet_albedo.png"},{"uri":"../textures/mud_wet_orm.png"},{"uri":"../textures/mud_wet_normal.png"},{"uri":"../textures/cobble_albedo.png"},{"uri":"../textures/cobble_orm.png"},{"uri":"../textures/cobble_normal.png"},{"uri":"../textures/grass_worn_albedo.png"},{"uri":"../textures/grass_worn_orm.png"},{"uri":"../textures/grass_worn_normal.png"}],"materials":[{"doubleSided":true,"name":"kit","normalTexture":{"extensions":{"KHR_texture_transform":{"scale":[14.533603471042158,14.533603471042158]}},"index":2,"scale":1.0},"occlusionTexture":{"extensions":{"KHR_texture_transform":{"scale":[14.533603471042158,14.533603471042158]}},"index":1},"pbrMetallicRoughness":{"baseColorFactor":[1,1,1,1],"baseColorTexture":{"extensions":{"KHR_texture_transform":{"scale":[14.533603471042158,14.533603471042158]}},"index":0},"metallicFactor":1.0,"metallicRoughnessTexture":{"extensions":{"KHR_texture_transform":{"scale":[14.533603471042158,14.533603471042158]}},"index":1},"roughnessFactor":1.0}},{"doubleSided":false,"name":"rubble","normalTexture":{"extensions":{"KHR_texture_transform":{"scale":[14.533603471042158,14.533603471042158]}},"index":5,"scale":1.0},"occlusionTexture":{"extensions":{"KHR_texture_transform":{"scale":[14.533603471042158,14.533603471042158]}},"index":4},"pbrMetallicRoughness":{"baseColorFactor":[1,1,1,1],"baseColorTexture":{"extensions":{"KHR_texture_transform":{"scale":[14.533603471042158,14.533603471042158]}},"index":3},"metallicFactor":1.0,"metallicRoughnessTexture":{"extensions":{"KHR_texture_transform":{"scale":[14.533603471042158,14.533603471042158]}},"index":4},"roughnessFactor":1.0}},{"doubleSided":false,"name":"plaster_shade","normalTexture":{"extensions":{"KHR_texture_transform":{"scale":[14.533603471042158,14.533603471042158]}},"index":8,"scale":1.0},"occlusionTexture":{"extensions":{"KHR_texture_transform":{"scale":[14.533603471042158,14.533603471042158]}},"index":7},"pbrMetallicRoughness":{"baseColorFactor":[1,1,1,1],"baseColorTexture":{"extensions":{"KHR_texture_transform":{"scale":[14.533603471042158,14.533603471042158]}},"index":6},"metallicFactor":1.0,"metallicRoughnessTexture":{"extensions":{"KHR_texture_transform":{"scale":[14.533603471042158,14.533603471042158]}},"index":7},"roughnessFactor":1.0}},{"doubleSided":false,"name":"plaster","normalTexture":{"extensions":{"KHR_texture_transform":{"scale":[14.533603471042158,14.533603471042158]}},"index":11,"scale":1.0},"occlusionTexture":{"extensions":{"KHR_texture_transform":{"scale":[14.533603471042158,14.533603471042158]}},"index":10},"pbrMetallicRoughness":{"baseColorFactor":[1,1,1,1],"baseColorTexture":{"extensions":{"KHR_texture_transform":{"scale":[14.533603471042158,14.533603471042158]}},"index":9},"metallicFactor":1.0,"metallicRoughnessTexture":{"extensions":{"KHR_texture_transform":{"scale":[14.533603471042158,14.533603471042158]}},"index":10},"roughnessFactor":1.0}},{"doubleSided":false,"name":"oak_dark","normalTexture":{"extensions":{"KHR_texture_transform":{"scale":[14.533603471042158,14.533603471042158]}},"index":14,"scale":1.0},"occlusionTexture":{"extensions":{"KHR_texture_transform":{"scale":[14.533603471042158,14.533603471042158]}},"index":13},"pbrMetallicRoughness":{"baseColorFactor":[1,1,1,1],"baseColorTexture":{"extensions":{"KHR_texture_transform":{"scale":[14.533603471042158,14.533603471042158]}},"index":12},"metallicFactor":1.0,"metallicRoughnessTexture":{"extensions":{"KHR_texture_transform":{"scale":[14.533603471042158,14.533603471042158]}},"index":13},"roughnessFactor":1.0}},{"doubleSided":false,"name":"stone","normalTexture":{"extensions":{"KHR_texture_transform":{"scale":[14.533603471042158,14.533603471042158]}},"index":17,"scale":1.0},"occlusionTexture":{"extensions":{"KHR_texture_transform":{"scale":[14.533603471042158,14.533603471042158]}},"index":16},"pbrMetallicRoughness":{"baseColorFactor":[1,1,1,1],"baseColorTexture":{"extensions":{"KHR_texture_transform":{"scale":[14.533603471042158,14.533603471042158]}},"index":15},"metallicFactor":1.0,"metallicRoughnessTexture":{"extensions":{"KHR_texture_transform":{"scale":[14.533603471042158,14.533603471042158]}},"index":16},"roughnessFactor":1.0}},{"doubleSided":false,"name":"iron","normalTexture":{"extensions":{"KHR_texture_transform":{"scale":[14.533603471042158,14.533603471042158]}},"index":20,"scale":1.0},"occlusionTexture":{"extensions":{"KHR_texture_transform":{"scale":[14.533603471042158,14.533603471042158]}},"index":19},"pbrMetallicRoughness":{"baseColorFactor":[1,1,1,1],"baseColorTexture":{"extensions":{"KHR_texture_transform":{"scale":[14.533603471042158,14.533603471042158]}},"index":18},"metallicFactor":1.0,"metallicRoughnessTexture":{"extensions":{"KHR_texture_transform":{"scale":[14.533603471042158,14.533603471042158]}},"index":19},"roughnessFactor":1.0}},{"doubleSided":true,"emissiveFactor":[1.0,1.0,1.0],"emissiveTexture":{"extensions":{"KHR_texture_transform":{"scale":[14.533603471042158,14.533603471042158]}},"index":24},"name":"glass_lit","normalTexture":{"extensions":{"KHR_texture_transform":{"scale":[14.533603471042158,14.533603471042158]}},"index":23,"scale":1.0},"occlusionTexture":{"extensions":{"KHR_texture_transform":{"scale":[14.533603471042158,14.533603471042158]}},"index":22},"pbrMetallicRoughness":{"baseColorFactor":[1,1,1,1],"baseColorTexture":{"extensions":{"KHR_texture_transform":{"scale":[14.533603471042158,14.533603471042158]}},"index":21},"metallicFactor":1.0,"metallicRoughnessTexture":{"extensions":{"KHR_texture_transform":{"scale":[14.533603471042158,14.533603471042158]}},"index":22},"roughnessFactor":1.0}},{"alphaMode":"BLEND","doubleSided":true,"emissiveFactor":[1.0,1.0,1.0],"emissiveTexture":{"extensions":{"KHR_texture_transform":{"scale":[14.533603471042158,14.533603471042158]}},"index":28},"name":"glass","normalTexture":{"extensions":{"KHR_texture_transform":{"scale":[14.533603471042158,14.533603471042158]}},"index":27,"scale":1.0},"occlusionTexture":{"extensions":{"KHR_texture_transform":{"scale":[14.533603471042158,14.533603471042158]}},"index":26},"pbrMetallicRoughness":{"baseColorFactor":[1,1,1,1],"baseColorTexture":{"extensions":{"KHR_texture_transform":{"scale":[14.533603471042158,14.533603471042158]}},"index":25},"metallicFactor":1.0,"metallicRoughnessTexture":{"extensions":{"KHR_texture_transform":{"scale":[14.533603471042158,14.533603471042158]}},"index":26},"roughnessFactor":1.0}},{"doubleSided":false,"name":"oak_weathered","normalTexture":{"extensions":{"KHR_texture_transform":{"scale":[14.533603471042158,14.533603471042158]}},"index":31,"scale":1.0},"occlusionTexture":{"extensions":{"KHR_texture_transform":{"scale":[14.533603471042158,14.533603471042158]}},"index":30},"pbrMetallicRoughness":{"baseColorFactor":[1,1,1,1],"baseColorTexture":{"extensions":{"KHR_texture_transform":{"scale":[14.533603471042158,14.533603471042158]}},"index":29},"metallicFactor":1.0,"metallicRoughnessTexture":{"extensions":{"KHR_texture_transform":{"scale":[14.533603471042158,14.533603471042158]}},"index":30},"roughnessFactor":1.0}},{"doubleSided":true,"name":"cloth_blue","normalTexture":{"extensions":{"KHR_texture_transform":{"scale":[14.533603471042158,14.533603471042158]}},"index":34,"scale":1.0},"occlusionTexture":{"extensions":{"KHR_texture_transform":{"scale":[14.533603471042158,14.533603471042158]}},"index":33},"pbrMetallicRoughness":{"baseColorFactor":[1,1,1,1],"baseColorTexture":{"extensions":{"KHR_texture_transform":{"scale":[14.533603471042158,14.533603471042158]}},"index":32},"metallicFactor":1.0,"metallicRoughnessTexture":{"extensions":{"KHR_texture_transform":{"scale":[14.533603471042158,14.533603471042158]}},"index":33},"roughnessFactor":1.0}},{"doubleSided":true,"name":"cloth_green","normalTexture":{"extensions":{"KHR_texture_transform":{"scale":[14.533603471042158,14.533603471042158]}},"index":37,"scale":1.0},"occlusionTexture":{"extensions":{"KHR_texture_transform":{"scale":[14.533603471042158,14.533603471042158]}},"index":36},"pbrMetallicRoughness":{"baseColorFactor":[1,1,1,1],"baseColorTexture":{"extensions":{"KHR_texture_transform":{"scale":[14.533603471042158,14.533603471042158]}},"index":35},"metallicFactor":1.0,"metallicRoughnessTexture":{"extensions":{"KHR_texture_transform":{"scale":[14.533603471042158,14.533603471042158]}},"index":36},"roughnessFactor":1.0}},{"doubleSided":false,"name":"terracotta","normalTexture":{"extensions":{"KHR_texture_transform":{"scale":[14.533603471042158,14.533603471042158]}},"index":40,"scale":1.0},"occlusionTexture":{"extensions":{"KHR_texture_transform":{"scale":[14.533603471042158,14.533603471042158]}},"index":39},"pbrMetallicRoughness":{"baseColorFactor":[1,1,1,1],"baseColorTexture":{"extensions":{"KHR_texture_transform":{"scale":[14.533603471042158,14.533603471042158]}},"index":38},"metallicFactor":1.0,"metallicRoughnessTexture":{"extensions":{"KHR_texture_transform":{"scale":[14.533603471042158,14.533603471042158]}},"index":39},"roughnessFactor":1.0}},{"doubleSided":false,"name":"limewash","normalTexture":{"extensions":{"KHR_texture_transform":{"scale":[14.533603471042158,14.533603471042158]}},"index":43,"scale":1.0},"occlusionTexture":{"extensions":{"KHR_texture_transform":{"scale":[14.533603471042158,14.533603471042158]}},"index":42},"pbrMetallicRoughness":{"baseColorFactor":[1,1,1,1],"baseColorTexture":{"extensions":{"KHR_texture_transform":{"scale":[14.533603471042158,14.533603471042158]}},"index":41},"metallicFactor":1.0,"metallicRoughnessTexture":{"extensions":{"KHR_texture_transform":{"scale":[14.533603471042158,14.533603471042158]}},"index":42},"roughnessFactor":1.0}},{"doubleSided":false,"name":"alabaster","normalTexture":{"extensions":{"KHR_texture_transform":{"scale":[14.533603471042158,14.533603471042158]}},"index":46,"scale":1.0},"occlusionTexture":{"extensions":{"KHR_texture_transform":{"scale":[14.533603471042158,14.533603471042158]}},"index":45},"pbrMetallicRoughness":{"baseColorFactor":[1,1,1,1],"baseColorTexture":{"extensions":{"KHR_texture_transform":{"scale":[14.533603471042158,14.533603471042158]}},"index":44},"metallicFactor":1.0,"metallicRoughnessTexture":{"extensions":{"KHR_texture_transform":{"scale":[14.533603471042158,14.533603471042158]}},"index":45},"roughnessFactor":1.0}},{"doubleSided":false,"name":"timber_charred","normalTexture":{"extensions":{"KHR_texture_transform":{"scale":[14.533603471042158,14.533603471042158]}},"index":49,"scale":1.0},"occlusionTexture":{"extensions":{"KHR_texture_transform":{"scale":[14.533603471042158,14.533603471042158]}},"index":48},"pbrMetallicRoughness":{"baseColorFactor":[1,1,1,1],"baseColorTexture":{"extensions":{"KHR_texture_transform":{"scale":[14.533603471042158,14.533603471042158]}},"index":47},"metallicFactor":1.0,"metallicRoughnessTexture":{"extensions":{"KHR_texture_transform":{"scale":[14.533603471042158,14.533603471042158]}},"index":48},"roughnessFactor":1.0}},{"doubleSided":false,"emissiveFactor":[1.0,1.0,1.0],"emissiveTexture":{"extensions":{"KHR_texture_transform":{"scale":[14.533603471042158,14.533603471042158]}},"index":53},"name":"coal","normalTexture":{"extensions":{"KHR_texture_transform":{"scale":[14.533603471042158,14.533603471042158]}},"index":52,"scale":1.0},"occlusionTexture":{"extensions":{"KHR_texture_transform":{"scale":[14.533603471042158,14.533603471042158]}},"index":51},"pbrMetallicRoughness":{"baseColorFactor":[1,1,1,1],"baseColorTexture":{"extensions":{"KHR_texture_transform":{"scale":[14.533603471042158,14.533603471042158]}},"index":50},"metallicFactor":1.0,"metallicRoughnessTexture":{"extensions":{"KHR_texture_transform":{"scale":[14.533603471042158,14.533603471042158]}},"index":51},"roughnessFactor":1.0}},{"doubleSided":false,"name":"sugar","normalTexture":{"extensions":{"KHR_texture_transform":{"scale":[14.533603471042158,14.533603471042158]}},"index":56,"scale":1.0},"occlusionTexture":{"extensions":{"KHR_texture_transform":{"scale":[14.533603471042158,14.533603471042158]}},"index":55},"pbrMetallicRoughness":{"baseColorFactor":[1,1,1,1],"baseColorTexture":{"extensions":{"KHR_texture_transform":{"scale":[14.533603471042158,14.533603471042158]}},"index":54},"metallicFactor":1.0,"metallicRoughnessTexture":{"extensions":{"KHR_texture_transform":{"scale":[14.533603471042158,14.533603471042158]}},"index":55},"roughnessFactor":1.0}},{"alphaMode":"BLEND","doubleSided":false,"name":"water","normalTexture":{"extensions":{"KHR_texture_transform":{"scale":[14.533603471042158,14.533603471042158]}},"index":59,"scale":1.0},"occlusionTexture":{"extensions":{"KHR_texture_transform":{"scale":[14.533603471042158,14.533603471042158]}},"index":58},"pbrMetallicRoughness":{"baseColorFactor":[1,1,1,1],"baseColorTexture":{"extensions":{"KHR_texture_transform":{"scale":[14.533603471042158,14.533603471042158]}},"index":57},"metallicFactor":1.0,"metallicRoughnessTexture":{"extensions":{"KHR_texture_transform":{"scale":[14.533603471042158,14.533603471042158]}},"index":58},"roughnessFactor":1.0}},{"doubleSided":false,"name":"wool_crimson","normalTexture":{"extensions":{"KHR_texture_transform":{"scale":[14.533603471042158,14.533603471042158]}},"index":62,"scale":1.0},"occlusionTexture":{"extensions":{"KHR_texture_transform":{"scale":[14.533603471042158,14.533603471042158]}},"index":61},"pbrMetallicRoughness":{"baseColorFactor":[1,1,1,1],"baseColorTexture":{"extensions":{"KHR_texture_transform":{"scale":[14.533603471042158,14.533603471042158]}},"index":60},"metallicFactor":1.0,"metallicRoughnessTexture":{"extensions":{"KHR_texture_transform":{"scale":[14.533603471042158,14.533603471042158]}},"index":61},"roughnessFactor":1.0}},{"doubleSided":false,"name":"cinder","normalTexture":{"extensions":{"KHR_texture_transform":{"scale":[14.533603471042158,14.533603471042158]}},"index":65,"scale":1.0},"occlusionTexture":{"extensions":{"KHR_texture_transform":{"scale":[14.533603471042158,14.533603471042158]}},"index":64},"pbrMetallicRoughness":{"baseColorFactor":[1,1,1,1],"baseColorTexture":{"extensions":{"KHR_texture_transform":{"scale":[14.533603471042158,14.533603471042158]}},"index":63},"metallicFactor":1.0,"metallicRoughnessTexture":{"extensions":{"KHR_texture_transform":{"scale":[14.533603471042158,14.533603471042158]}},"index":64},"roughnessFactor":1.0}},{"doubleSided":false,"name":"pottery_slip","normalTexture":{"extensions":{"KHR_texture_transform":{"scale":[14.533603471042158,14.533603471042158]}},"index":68,"scale":1.0},"occlusionTexture":{"extensions":{"KHR_texture_transform":{"scale":[14.533603471042158,14.533603471042158]}},"index":67},"pbrMetallicRoughness":{"baseColorFactor":[1,1,1,1],"baseColorTexture":{"extensions":{"KHR_texture_transform":{"scale":[14.533603471042158,14.533603471042158]}},"index":66},"metallicFactor":1.0,"metallicRoughnessTexture":{"extensions":{"KHR_texture_transform":{"scale":[14.533603471042158,14.533603471042158]}},"index":67},"roughnessFactor":1.0}},{"doubleSided":false,"name":"grass_dry","normalTexture":{"extensions":{"KHR_texture_transform":{"scale":[14.533603471042158,14.533603471042158]}},"index":71,"scale":1.0},"occlusionTexture":{"extensions":{"KHR_texture_transform":{"scale":[14.533603471042158,14.533603471042158]}},"index":70},"pbrMetallicRoughness":{"baseColorFactor":[1,1,1,1],"baseColorTexture":{"extensions":{"KHR_texture_transform":{"scale":[14.533603471042158,14.533603471042158]}},"index":69},"metallicFactor":1.0,"metallicRoughnessTexture":{"extensions":{"KHR_texture_transform":{"scale":[14.533603471042158,14.533603471042158]}},"index":70},"roughnessFactor":1.0}},{"doubleSided":true,"name":"foliage","normalTexture":{"extensions":{"KHR_texture_transform":{"scale":[14.533603471042158,14.533603471042158]}},"index":74,"scale":1.0},"occlusionTexture":{"extensions":{"KHR_texture_transform":{"scale":[14.533603471042158,14.533603471042158]}},"index":73},"pbrMetallicRoughness":{"baseColorFactor":[1,1,1,1],"baseColorTexture":{"extensions":{"KHR_texture_transform":{"scale":[14.533603471042158,14.533603471042158]}},"index":72},"metallicFactor":1.0,"metallicRoughnessTexture":{"extensions":{"KHR_texture_transform":{"scale":[14.533603471042158,14.533603471042158]}},"index":73},"roughnessFactor":1.0}},{"doubleSided":false,"name":"straw","normalTexture":{"extensions":{"KHR_texture_transform":{"scale":[14.533603471042158,14.533603471042158]}},"index":77,"scale":1.0},"occlusionTexture":{"extensions":{"KHR_texture_transform":{"scale":[14.533603471042158,14.533603471042158]}},"index":76},"pbrMetallicRoughness":{"baseColorFactor":[1,1,1,1],"baseColorTexture":{"extensions":{"KHR_texture_transform":{"scale":[14.533603471042158,14.533603471042158]}},"index":75},"metallicFactor":1.0,"metallicRoughnessTexture":{"extensions":{"KHR_texture_transform":{"scale":[14.533603471042158,14.533603471042158]}},"index":76},"roughnessFactor":1.0}},{"doubleSided":false,"name":"dirt","normalTexture":{"extensions":{"KHR_texture_transform":{"scale":[14.533603471042158,14.533603471042158]}},"index":80,"scale":1.0},"occlusionTexture":{"extensions":{"KHR_texture_transform":{"scale":[14.533603471042158,14.533603471042158]}},"index":79},"pbrMetallicRoughness":{"baseColorFactor":[1,1,1,1],"baseColorTexture":{"extensions":{"KHR_texture_transform":{"scale":[14.533603471042158,14.533603471042158]}},"index":78},"metallicFactor":1.0,"metallicRoughnessTexture":{"extensions":{"KHR_texture_transform":{"scale":[14.533603471042158,14.533603471042158]}},"index":79},"roughnessFactor":1.0}},{"doubleSided":false,"name":"sett","normalTexture":{"extensions":{"KHR_texture_transform":{"scale":[14.533603471042158,14.533603471042158]}},"index":83,"scale":1.0},"occlusionTexture":{"extensions":{"KHR_texture_transform":{"scale":[14.533603471042158,14.533603471042158]}},"index":82},"pbrMetallicRoughness":{"baseColorFactor":[1,1,1,1],"baseColorTexture":{"extensions":{"KHR_texture_transform":{"scale":[14.533603471042158,14.533603471042158]}},"index":81},"metallicFactor":1.0,"metallicRoughnessTexture":{"extensions":{"KHR_texture_transform":{"scale":[14.533603471042158,14.533603471042158]}},"index":82},"roughnessFactor":1.0}},{"doubleSided":false,"name":"mud","normalTexture":{"extensions":{"KHR_texture_transform":{"scale":[14.533603471042158,14.533603471042158]}},"index":86,"scale":1.0},"occlusionTexture":{"extensions":{"KHR_texture_transform":{"scale":[14.533603471042158,14.533603471042158]}},"index":85},"pbrMetallicRoughness":{"baseColorFactor":[1,1,1,1],"baseColorTexture":{"extensions":{"KHR_texture_transform":{"scale":[14.533603471042158,14.533603471042158]}},"index":84},"metallicFactor":1.0,"metallicRoughnessTexture":{"extensions":{"KHR_texture_transform":{"scale":[14.533603471042158,14.533603471042158]}},"index":85},"roughnessFactor":1.0}},{"doubleSided":false,"name":"algae","normalTexture":{"extensions":{"KHR_texture_transform":{"scale":[14.533603471042158,14.533603471042158]}},"index":89,"scale":1.0},"occlusionTexture":{"extensions":{"KHR_texture_transform":{"scale":[14.533603471042158,14.533603471042158]}},"index":88},"pbrMetallicRoughness":{"baseColorFactor":[1,1,1,1],"baseColorTexture":{"extensions":{"KHR_texture_transform":{"scale":[14.533603471042158,14.533603471042158]}},"index":87},"metallicFactor":1.0,"metallicRoughnessTexture":{"extensions":{"KHR_texture_transform":{"scale":[14.533603471042158,14.533603471042158]}},"index":88},"roughnessFactor":1.0}},{"alphaCutoff":0.5,"alphaMode":"MASK","doubleSided":true,"name":"leaf_oak","normalTexture":{"extensions":{"KHR_texture_transform":{"scale":[14.533603471042158,14.533603471042158]}},"index":92,"scale":1.0},"occlusionTexture":{"extensions":{"KHR_texture_transform":{"scale":[14.533603471042158,14.533603471042158]}},"index":91},"pbrMetallicRoughness":{"baseColorFactor":[1,1,1,1],"baseColorTexture":{"extensions":{"KHR_texture_transform":{"scale":[14.533603471042158,14.533603471042158]}},"index":90},"metallicFactor":1.0,"metallicRoughnessTexture":{"extensions":{"KHR_texture_transform":{"scale":[14.533603471042158,14.533603471042158]}},"index":91},"roughnessFactor":1.0}},{"doubleSided":false,"name":"mud_wet","normalTexture":{"extensions":{"KHR_texture_transform":{"scale":[14.533603471042158,14.533603471042158]}},"index":95,"scale":1.0},"occlusionTexture":{"extensions":{"KHR_texture_transform":{"scale":[14.533603471042158,14.533603471042158]}},"index":94},"pbrMetallicRoughness":{"baseColorFactor":[1,1,1,1],"baseColorTexture":{"extensions":{"KHR_texture_transform":{"scale":[14.533603471042158,14.533603471042158]}},"index":93},"metallicFactor":1.0,"metallicRoughnessTexture":{"extensions":{"KHR_texture_transform":{"scale":[14.533603471042158,14.533603471042158]}},"index":94},"roughnessFactor":1.0}},{"doubleSided":false,"name":"cobble","normalTexture":{"extensions":{"KHR_texture_transform":{"scale":[14.533603471042158,14.533603471042158]}},"index":98,"scale":1.0},"occlusionTexture":{"extensions":{"KHR_texture_transform":{"scale":[14.533603471042158,14.533603471042158]}},"index":97},"pbrMetallicRoughness":{"baseColorFactor":[1,1,1,1],"baseColorTexture":{"extensions":{"KHR_texture_transform":{"scale":[14.533603471042158,14.533603471042158]}},"index":96},"metallicFactor":1.0,"metallicRoughnessTexture":{"extensions":{"KHR_texture_transform":{"scale":[14.533603471042158,14.533603471042158]}},"index":97},"roughnessFactor":1.0}},{"doubleSided":false,"name":"grass_worn","normalTexture":{"extensions":{"KHR_texture_transform":{"scale":[14.533603471042158,14.533603471042158]}},"index":101,"scale":1.0},"occlusionTexture":{"extensions":{"KHR_texture_transform":{"scale":[14.533603471042158,14.533603471042158]}},"index":100},"pbrMetallicRoughness":{"baseColorFactor":[1,1,1,1],"baseColorTexture":{"extensions":{"KHR_texture_transform":{"scale":[14.533603471042158,14.533603471042158]}},"index":99},"metallicFactor":1.0,"metallicRoughnessTexture":{"extensions":{"KHR_texture_transform":{"scale":[14.533603471042158,14.533603471042158]}},"index":100},"roughnessFactor":1.0}}],"meshes":[{"name":"inn#0_0","primitives":[{"attributes":{"NORMAL":1,"POSITION":0,"TEXCOORD_0":188},"indices":2,"material":14},{"attributes":{"NORMAL":4,"POSITION":3,"TEXCOORD_0":189},"indices":5,"material":20},{"attributes":{"NORMAL":7,"POSITION":6,"TEXCOORD_0":190},"indices":8,"material":10},{"attributes":{"NORMAL":10,"POSITION":9,"TEXCOORD_0":191},"indices":11,"material":11},{"attributes":{"NORMAL":13,"POSITION":12,"TEXCOORD_0":192},"indices":14,"material":31},{"attributes":{"NORMAL":16,"POSITION":15,"TEXCOORD_0":193},"indices":17,"material":32},{"attributes":{"NORMAL":19,"POSITION":18,"TEXCOORD_0":194},"indices":20,"material":0},{"attributes":{"NORMAL":22,"POSITION":21,"TEXCOORD_0":195},"indices":23,"material":13},{"attributes":{"NORMAL":25,"POSITION":24,"TEXCOORD_0":196},"indices":26,"material":17},{"attributes":{"NORMAL":28,"POSITION":27,"TEXCOORD_0":197},"indices":29,"material":19}]},{"name":"inn#0_0$lod1","primitives":[{"attributes":{"NORMAL":31,"POSITION":30,"TEXCOORD_0":198},"indices":32,"material":0},{"attributes":{"NORMAL":34,"POSITION":33,"TEXCOORD_0":199},"indices":35,"material":13}]},{"name":"inn#0_0$lod2","primitives":[{"attributes":{"NORMAL":37,"POSITION":36,"TEXCOORD_0":200},"indices":38,"material":0}]},{"name":"inn#0_0$lod3","primitives":[{"attributes":{"NORMAL":40,"POSITION":39,"TEXCOORD_0":201},"indices":41,"material":0}]},{"name":"inn#0_n1","primitives":[{"attributes":{"NORMAL":43,"POSITION":42,"TEXCOORD_0":202},"indices":44,"material":16},{"attributes":{"NORMAL":46,"POSITION":45,"TEXCOORD_0":203},"indices":47,"material":22},{"attributes":{"NORMAL":49,"POSITION":48,"TEXCOORD_0":204},"indices":50,"material":0},{"attributes":{"NORMAL":52,"POSITION":51,"TEXCOORD_0":205},"indices":53,"material":9},{"attributes":{"NORMAL":55,"POSITION":54,"TEXCOORD_0":206},"indices":56,"material":21},{"attributes":{"NORMAL":58,"POSITION":57,"TEXCOORD_0":207},"indices":59,"material":15}]},{"name":"inn#0_n1$lod1","primitives":[{"attributes":{"NORMAL":61,"POSITION":60,"TEXCOORD_0":208},"indices":62,"material":0},{"attributes":{"NORMAL":64,"POSITION":63,"TEXCOORD_0":209},"indices":65,"material":9}]},{"name":"inn#0_n1$lod2","primitives":[{"attributes":{"NORMAL":67,"POSITION":66,"TEXCOORD_0":210},"indices":68,"material":0},{"attributes":{"NORMAL":70,"POSITION":69,"TEXCOORD_0":211},"indices":71,"material":9}]},{"name":"inn#0_n1$lod3","primitives":[{"attributes":{"NORMAL":73,"POSITION":72,"TEXCOORD_0":212},"indices":74,"material":0},{"attributes":{"NORMAL":76,"POSITION":75,"TEXCOORD_0":213},"indices":77,"material":9}]},{"name":"inn#n1_0","primitives":[{"attributes":{"NORMAL":79,"POSITION":78,"TEXCOORD_0":214},"indices":80,"material":28},{"attributes":{"NORMAL":82,"POSITION":81,"TEXCOORD_0":215},"indices":83,"material":25},{"attributes":{"NORMAL":85,"POSITION":84,"TEXCOORD_0":216},"indices":86,"material":8},{"attributes":{"NORMAL":88,"POSITION":87,"TEXCOORD_0":217},"indices":89,"material":7},{"attributes":{"NORMAL":91,"POSITION":90,"TEXCOORD_0":218},"indices":92,"material":6},{"attributes":{"NORMAL":94,"POSITION":93,"TEXCOORD_0":219},"indices":95,"material":0},{"attributes":{"NORMAL":97,"POSITION":96,"TEXCOORD_0":220},"indices":98,"material":29},{"attributes":{"NORMAL":100,"POSITION":99,"TEXCOORD_0":221},"indices":101,"material":27},{"attributes":{"NORMAL":103,"POSITION":102,"TEXCOORD_0":222},"indices":104,"material":30},{"attributes":{"NORMAL":106,"POSITION":105,"TEXCOORD_0":223},"indices":107,"material":4},{"attributes":{"NORMAL":109,"POSITION":108,"TEXCOORD_0":224},"indices":110,"material":3},{"attributes":{"NORMAL":112,"POSITION":111,"TEXCOORD_0":225},"indices":113,"material":2},{"attributes":{"NORMAL":115,"POSITION":114,"TEXCOORD_0":226},"indices":116,"material":26},{"attributes":{"NORMAL":118,"POSITION":117,"TEXCOORD_0":227},"indices":119,"material":5},{"attributes":{"NORMAL":121,"POSITION":120,"TEXCOORD_0":228},"indices":122,"material":24},{"attributes":{"COLOR_0":125,"NORMAL":124,"POSITION":123,"TEXCOORD_0":229},"indices":126,"material":12}]},{"name":"inn#n1_0$lod1","primitives":[{"attributes":{"NORMAL":128,"POSITION":127,"TEXCOORD_0":230},"indices":129,"material":0},{"attributes":{"NORMAL":131,"POSITION":130,"TEXCOORD_0":231},"indices":132,"material":4},{"attributes":{"NORMAL":134,"POSITION":133,"TEXCOORD_0":232},"indices":135,"material":3},{"attributes":{"NORMAL":137,"POSITION":136,"TEXCOORD_0":233},"indices":138,"material":2},{"attributes":{"NORMAL":140,"POSITION":139,"TEXCOORD_0":234},"indices":141,"material":26},{"attributes":{"NORMAL":143,"POSITION":142,"TEXCOORD_0":235},"indices":144,"material":5},{"attributes":{"COLOR_0":147,"NORMAL":146,"POSITION":145,"TEXCOORD_0":236},"indices":148,"material":12}]},{"name":"inn#n1_0$lod2","primitives":[{"attributes":{"NORMAL":150,"POSITION":149,"TEXCOORD_0":237},"indices":151,"material":0},{"attributes":{"NORMAL":153,"POSITION":152,"TEXCOORD_0":238},"indices":154,"material":3},{"attributes":{"COLOR_0":157,"NORMAL":156,"POSITION":155,"TEXCOORD_0":239},"indices":158,"material":12}]},{"name":"inn#n1_0$lod3","primitives":[{"attributes":{"NORMAL":160,"POSITION":159,"TEXCOORD_0":240},"indices":161,"material":3},{"attributes":{"COLOR_0":164,"NORMAL":163,"POSITION":162,"TEXCOORD_0":241},"indices":165,"material":12}]},{"name":"inn#n1_n1","primitives":[{"attributes":{"NORMAL":167,"POSITION":166,"TEXCOORD_0":242},"indices":168,"material":23},{"attributes":{"NORMAL":170,"POSITION":169,"TEXCOORD_0":243},"indices":171,"material":1},{"attributes":{"COLOR_0":174,"NORMAL":173,"POSITION":172,"TEXCOORD_0":244},"indices":175,"material":18}]},{"name":"inn#n1_n1$lod1","primitives":[{"attributes":{"COLOR_0":178,"NORMAL":177,"POSITION":176,"TEXCOORD_0":245},"indices":179,"material":1}]},{"name":"inn#n1_n1$lod2","primitives":[{"attributes":{"COLOR_0":182,"NORMAL":181,"POSITION":180,"TEXCOORD_0":246},"indices":183,"material":1}]},{"name":"inn#n1_n1$lod3","primitives":[{"attributes":{"COLOR_0":186,"NORMAL":185,"POSITION":184,"TEXCOORD_0":247},"indices":187,"material":1}]}],"nodes":[{"extensions":{"MSFT_lod":{"ids":[1,2,3]}},"extras":{"MSFT_screencoverage":[1.0,0.56108,0.22443,0.0],"hm":{"cell":"0_0","cullAt":null,"interior":null,"lod":0,"max":[6.693,14.619,7.273],"min":[-5.48,0.428,-6.742],"prims":10,"tris":11926,"venue":"inn"}},"mesh":0,"name":"inn#0_0","scale":[6.086496353149414,7.09547233581543,7.007598400115967],"translation":[0.6064960956573486,7.523442268371582,0.2656874656677246]},{"extras":{"hm":{"cell":"0_0","cullAt":null,"interior":null,"lod":1,"max":[6.693,14.619,7.273],"min":[-5.48,0.428,-6.742],"prims":2,"tris":5863,"venue":"inn"}},"mesh":1,"name":"inn#0_0$lod1","scale":[6.085705757141113,7.094457149505615,7.007044792175293],"translation":[0.605705738067627,7.5244574546813965,0.2651338577270508]},{"extras":{"hm":{"cell":"0_0","cullAt":null,"interior":null,"lod":2,"max":[6.693,14.619,7.273],"min":[-5.48,0.428,-6.742],"prims":1,"tris":1835,"venue":"inn"}},"mesh":2,"name":"inn#0_0$lod2","scale":[6.085705757141113,7.0911455154418945,6.998573303222656],"translation":[0.605705738067627,7.521145820617676,0.2736055850982666]},{"extras":{"hm":{"cell":"0_0","cullAt":null,"interior":null,"lod":3,"max":[6.693,14.619,7.273],"min":[-5.48,0.428,-6.742],"prims":1,"tris":333,"venue":"inn"}},"mesh":3,"name":"inn#0_0$lod3","scale":[6.040721893310547,7.053640365600586,6.977889060974121],"translation":[0.5607218742370605,7.5117902755737305,0.28211140632629395]},{"extensions":{"MSFT_lod":{"ids":[5,6,7]}},"extras":{"MSFT_screencoverage":[1.0,0.41906,0.16762,0.0],"hm":{"cell":"0_n1","cullAt":null,"interior":null,"lod":0,"max":[6.115,10.55,5.65],"min":[-0.7,0.4,-6.804],"prims":6,"tris":3164,"venue":"inn"}},"mesh":4,"name":"inn#0_n1","scale":[3.4074277877807617,5.075000286102295,6.22707462310791],"translation":[2.707427501678467,5.474999904632568,-0.5770747661590576]},{"extras":{"hm":{"cell":"0_n1","cullAt":null,"interior":null,"lod":1,"max":[6.115,10.55,5.65],"min":[-0.7,0.4,-6.804],"prims":2,"tris":1420,"venue":"inn"}},"mesh":5,"name":"inn#0_n1$lod1","scale":[3.4039559364318848,5.075000286102295,6.224575042724609],"translation":[2.708955764770508,5.474999904632568,-0.5795748233795166]},{"extras":{"hm":{"cell":"0_n1","cullAt":null,"interior":null,"lod":2,"max":[6.115,10.55,5.65],"min":[-0.7,0.4,-6.804],"prims":2,"tris":396,"venue":"inn"}},"mesh":6,"name":"inn#0_n1$lod2","scale":[3.401103973388672,5.054672718048096,6.222177505493164],"translation":[2.708160400390625,5.495327472686768,-0.5819718837738037]},{"extras":{"hm":{"cell":"0_n1","cullAt":null,"interior":null,"lod":3,"max":[6.115,10.55,5.65],"min":[-0.7,0.4,-6.804],"prims":2,"tris":81,"venue":"inn"}},"mesh":7,"name":"inn#0_n1$lod3","scale":[3.401103973388672,5.049673080444336,6.194626808166504],"translation":[2.708160400390625,5.490327835083008,-0.5544207096099854]},{"extensions":{"MSFT_lod":{"ids":[9,10,11]}},"extras":{"MSFT_screencoverage":[1.0,0.66569,0.26627,0.0],"hm":{"cell":"n1_0","cullAt":null,"interior":null,"lod":0,"max":[7.734,16.893,7.855],"min":[-8.387,-0.165,-6.9],"prims":16,"tris":76455,"venue":"inn"}},"mesh":8,"name":"inn#n1_0","scale":[8.060317993164062,8.529053688049316,7.377305030822754],"translation":[-0.32649779319763184,8.364106178283691,0.47730517387390137]},{"extras":{"hm":{"cell":"n1_0","cullAt":null,"interior":null,"lod":1,"max":[7.734,16.893,7.855],"min":[-8.387,-0.165,-6.9],"prims":7,"tris":35569,"venue":"inn"}},"mesh":9,"name":"inn#n1_0$lod1","scale":[8.05168342590332,8.529053688049316,7.376652240753174],"translation":[-0.31786274909973145,8.364106178283691,0.4766526222229004]},{"extras":{"hm":{"cell":"n1_0","cullAt":null,"interior":null,"lod":2,"max":[7.734,16.893,7.855],"min":[-8.387,-0.165,-6.9],"prims":3,"tris":10997,"venue":"inn"}},"mesh":10,"name":"inn#n1_0$lod2","scale":[8.041115760803223,8.335644721984863,7.37203311920166],"translation":[-0.32487988471984863,8.170697212219238,0.48003339767456055]},{"extras":{"hm":{"cell":"n1_0","cullAt":null,"interior":null,"lod":3,"max":[7.734,16.893,7.855],"min":[-8.387,-0.165,-6.9],"prims":2,"tris":2097,"venue":"inn"}},"mesh":11,"name":"inn#n1_0$lod3","scale":[8.006153106689453,8.23619556427002,7.37091064453125],"translation":[-0.29111719131469727,8.120965003967285,0.4789106845855713]},{"extensions":{"MSFT_lod":{"ids":[13,14,15]}},"extras":{"MSFT_screencoverage":[1.0,0.47384,0.18954,0.0],"hm":{"cell":"n1_n1","cullAt":null,"interior":null,"lod":0,"max":[6.62,3.02,6.17],"min":[-8.08,-0.1,-6.62],"prims":3,"tris":704,"venue":"inn"}},"mesh":12,"name":"inn#n1_n1","scale":[7.349999904632568,1.559999942779541,6.394999980926514],"translation":[-0.7300000190734863,1.4600000381469727,-0.22499990463256836]},{"extras":{"hm":{"cell":"n1_n1","cullAt":null,"interior":null,"lod":1,"max":[6.62,3.02,6.17],"min":[-8.08,-0.1,-6.62],"prims":1,"tris":340,"venue":"inn"}},"mesh":13,"name":"inn#n1_n1$lod1","scale":[7.349999904632568,1.5522305965423584,6.387499809265137],"translation":[-0.7300000190734863,1.45223069190979,-0.2174999713897705]},{"extras":{"hm":{"cell":"n1_n1","cullAt":null,"interior":null,"lod":2,"max":[6.62,3.02,6.17],"min":[-8.08,-0.1,-6.62],"prims":1,"tris":103,"venue":"inn"}},"mesh":14,"name":"inn#n1_n1$lod2","scale":[7.331246376037598,1.5522305965423584,6.373294830322266],"translation":[-0.7308914661407471,1.45223069190979,-0.22147059440612793]},{"extras":{"hm":{"cell":"n1_n1","cullAt":null,"interior":null,"lod":3,"max":[6.62,3.02,6.17],"min":[-8.08,-0.1,-6.62],"prims":1,"tris":21,"venue":"inn"}},"mesh":15,"name":"inn#n1_n1$lod3","scale":[7.331246376037598,0.8286249041557312,6.373294830322266],"translation":[-0.7308914661407471,0.7286248803138733,-0.22147059440612793]}],"samplers":[{"magFilter":9729,"minFilter":9987,"wrapS":10497,"wrapT":10497}],"scene":0,"scenes":[{"nodes":[0,4,8,12]}],"textures":[{"sampler":0,"source":0},{"sampler":0,"source":1},{"sampler":0,"source":2},{"sampler":0,"source":3},{"sampler":0,"source":4},{"sampler":0,"source":5},{"sampler":0,"source":6},{"sampler":0,"source":7},{"sampler":0,"source":8},{"sampler":0,"source":9},{"sampler":0,"source":10},{"sampler":0,"source":11},{"sampler":0,"source":12},{"sampler":0,"source":13},{"sampler":0,"source":14},{"sampler":0,"source":15},{"sampler":0,"source":16},{"sampler":0,"source":17},{"sampler":0,"source":18},{"sampler":0,"source":19},{"sampler":0,"source":20},{"sampler":0,"source":21},{"sampler":0,"source":22},{"sampler":0,"source":23},{"sampler":0,"source":24},{"sampler":0,"source":25},{"sampler":0,"source":26},{"sampler":0,"source":27},{"sampler":0,"source":28},{"sampler":0,"source":29},{"sampler":0,"source":30},{"sampler":0,"source":31},{"sampler":0,"source":32},{"sampler":0,"source":33},{"sampler":0,"source":34},{"sampler":0,"source":35},{"sampler":0,"source":36},{"sampler":0,"source":37},{"sampler":0,"source":38},{"sampler":0,"source":39},{"sampler":0,"source":40},{"sampler":0,"source":41},{"sampler":0,"source":42},{"sampler":0,"source":43},{"sampler":0,"source":44},{"sampler":0,"source":45},{"sampler":0,"source":46},{"sampler":0,"source":47},{"sampler":0,"source":48},{"sampler":0,"source":49},{"sampler":0,"source":50},{"sampler":0,"source":51},{"sampler":0,"source":52},{"sampler":0,"source":53},{"sampler":0,"source":54},{"sampler":0,"source":55},{"sampler":0,"source":56},{"sampler":0,"source":57},{"sampler":0,"source":58},{"sampler":0,"source":59},{"sampler":0,"source":60},{"sampler":0,"source":61},{"sampler":0,"source":62},{"sampler":0,"source":63},{"sampler":0,"source":64},{"sampler":0,"source":65},{"sampler":0,"source":66},{"sampler":0,"source":67},{"sampler":0,"source":68},{"sampler":0,"source":69},{"sampler":0,"source":70},{"sampler":0,"source":71},{"sampler":0,"source":72},{"sampler":0,"source":73},{"sampler":0,"source":74},{"sampler":0,"source":75},{"sampler":0,"source":76},{"sampler":0,"source":77},{"sampler":0,"source":78},{"sampler":0,"source":79},{"sampler":0,"source":80},{"sampler":0,"source":81},{"sampler":0,"source":82},{"sampler":0,"source":83},{"sampler":0,"source":84},{"sampler":0,"source":85},{"sampler":0,"source":86},{"sampler":0,"source":87},{"sampler":0,"source":88},{"sampler":0,"source":89},{"sampler":0,"source":90},{"sampler":0,"source":91},{"sampler":0,"source":92},{"sampler":0,"source":93},{"sampler":0,"source":94},{"sampler":0,"source":95},{"sampler":0,"source":96},{"sampler":0,"source":97},{"sampler":0,"source":98},{"sampler":0,"source":99},{"sampler":0,"source":100},{"sampler":0,"source":101}]}