{"accessors":[{"bufferView":0,"componentType":5122,"count":1080,"max":[-5168.0,-22100.0,-6546.0],"min":[-29656.0,-30573.0,-29867.0],"normalized":true,"type":"VEC3"},{"bufferView":1,"componentType":5120,"count":1080,"normalized":true,"type":"VEC3"},{"bufferView":2,"componentType":5123,"count":1800,"type":"SCALAR"},{"bufferView":3,"componentType":5122,"count":5223,"max":[-14418.0,32767.0,-15355.0],"min":[-20406.0,-15942.0,-21058.0],"normalized":true,"type":"VEC3"},{"bufferView":4,"componentType":5120,"count":5223,"normalized":true,"type":"VEC3"},{"bufferView":5,"componentType":5123,"count":8331,"type":"SCALAR"},{"bufferView":6,"componentType":5122,"count":6597,"max":[32767.0,-18639.0,32767.0],"min":[-17412.0,-32767.0,-18309.0],"normalized":true,"type":"VEC3"},{"bufferView":7,"componentType":5120,"count":6597,"normalized":true,"type":"VEC3"},{"bufferView":8,"componentType":5123,"count":9087,"type":"SCALAR"},{"bufferView":9,"componentType":5122,"count":1452,"max":[16496.0,-25151.0,1360.0],"min":[-2258.0,-32387.0,-7598.0],"normalized":true,"type":"VEC3"},{"bufferView":10,"componentType":5120,"count":1452,"normalized":true,"type":"VEC3"},{"bufferView":11,"componentType":5123,"count":2238,"type":"SCALAR"},{"bufferView":12,"componentType":5122,"count":288,"max":[-3864.0,-30573.0,-5304.0],"min":[-30961.0,-32363.0,-31109.0],"normalized":true,"type":"VEC3"},{"bufferView":13,"componentType":5120,"count":288,"normalized":true,"type":"VEC3"},{"bufferView":14,"componentType":5123,"count":474,"type":"SCALAR"},{"bufferView":15,"componentType":5122,"count":2292,"max":[-3747.0,-20190.0,-5192.0],"min":[-31078.0,-31110.0,-31221.0],"normalized":true,"type":"VEC3"},{"bufferView":16,"componentType":5120,"count":2292,"normalized":true,"type":"VEC3"},{"bufferView":17,"componentType":5123,"count":3738,"type":"SCALAR"},{"bufferView":18,"componentType":5122,"count":476,"max":[-2057.0,-30453.0,-3646.0],"min":[-32767.0,-32363.0,-32767.0],"normalized":true,"type":"VEC3"},{"bufferView":19,"componentType":5120,"count":476,"normalized":true,"type":"VEC3"},{"bufferView":20,"componentType":5123,"count":804,"type":"SCALAR"},{"bufferView":21,"componentType":5122,"count":176,"max":[-8547.0,-2528.0,-9800.0],"min":[-26277.0,-21145.0,-26613.0],"normalized":true,"type":"VEC3"},{"bufferView":22,"componentType":5120,"count":176,"normalized":true,"type":"VEC3"},{"bufferView":23,"componentType":5121,"count":176,"normalized":true,"type":"VEC4"},{"bufferView":24,"componentType":5123,"count":870,"type":"SCALAR"},{"bufferView":25,"componentType":5122,"count":801,"max":[-5188.0,-23241.0,-6546.0],"min":[-29688.0,-29617.0,-29867.0],"normalized":true,"type":"VEC3"},{"bufferView":26,"componentType":5120,"count":801,"normalized":true,"type":"VEC3"},{"bufferView":27,"componentType":5123,"count":801,"type":"SCALAR"},{"bufferView":28,"componentType":5122,"count":4215,"max":[32767.0,-18633.0,32767.0],"min":[-17438.0,-32767.0,-18309.0],"normalized":true,"type":"VEC3"},{"bufferView":29,"componentType":5120,"count":4215,"normalized":true,"type":"VEC3"},{"bufferView":30,"componentType":5123,"count":4215,"type":"SCALAR"},{"bufferView":31,"componentType":5122,"count":186,"max":[-3883.0,-30572.0,-5304.0],"min":[-30993.0,-31467.0,-31109.0],"normalized":true,"type":"VEC3"},{"bufferView":32,"componentType":5120,"count":186,"normalized":true,"type":"VEC3"},{"bufferView":33,"componentType":5123,"count":186,"type":"SCALAR"},{"bufferView":34,"componentType":5122,"count":6609,"max":[16487.0,32767.0,1360.0],"min":[-31060.0,-32363.0,-31173.0],"normalized":true,"type":"VEC3"},{"bufferView":35,"componentType":5120,"count":6609,"normalized":true,"type":"VEC3"},{"bufferView":36,"componentType":5123,"count":6609,"type":"SCALAR"},{"bufferView":37,"componentType":5122,"count":360,"max":[-2109.0,-30691.0,-3646.0],"min":[-32767.0,-31694.0,-32767.0],"normalized":true,"type":"VEC3"},{"bufferView":38,"componentType":5120,"count":360,"normalized":true,"type":"VEC3"},{"bufferView":39,"componentType":5123,"count":360,"type":"SCALAR"},{"bufferView":40,"componentType":5122,"count":414,"max":[-8644.0,-2515.0,-9800.0],"min":[-26232.0,-21140.0,-26613.0],"normalized":true,"type":"VEC3"},{"bufferView":41,"componentType":5120,"count":414,"normalized":true,"type":"VEC3"},{"bufferView":42,"componentType":5121,"count":414,"normalized":true,"type":"VEC4"},{"bufferView":43,"componentType":5123,"count":414,"type":"SCALAR"},{"bufferView":44,"componentType":5122,"count":234,"max":[-6826.0,-25622.0,-8119.0],"min":[-29019.0,-29757.0,-28829.0],"normalized":true,"type":"VEC3"},{"bufferView":45,"componentType":5120,"count":234,"normalized":true,"type":"VEC3"},{"bufferView":46,"componentType":5123,"count":234,"type":"SCALAR"},{"bufferView":47,"componentType":5122,"count":1242,"max":[32767.0,-18862.0,32767.0],"min":[-18063.0,-32767.0,-18578.0],"normalized":true,"type":"VEC3"},{"bufferView":48,"componentType":5120,"count":1242,"normalized":true,"type":"VEC3"},{"bufferView":49,"componentType":5123,"count":1242,"type":"SCALAR"},{"bufferView":50,"componentType":5122,"count":2163,"max":[16229.0,32767.0,1086.0],"min":[-32767.0,-32545.0,-32767.0],"normalized":true,"type":"VEC3"},{"bufferView":51,"componentType":5120,"count":2163,"normalized":true,"type":"VEC3"},{"bufferView":52,"componentType":5121,"count":2163,"normalized":true,"type":"VEC4"},{"bufferView":53,"componentType":5123,"count":2163,"type":"SCALAR"},{"bufferView":54,"componentType":5122,"count":219,"max":[32767.0,-17544.0,32767.0],"min":[-20310.0,-32767.0,-18474.0],"normalized":true,"type":"VEC3"},{"bufferView":55,"componentType":5120,"count":219,"normalized":true,"type":"VEC3"},{"bufferView":56,"componentType":5123,"count":219,"type":"SCALAR"},{"bufferView":57,"componentType":5122,"count":453,"max":[-4768.0,32767.0,-4181.0],"min":[-32767.0,-31708.0,-32767.0],"normalized":true,"type":"VEC3"},{"bufferView":58,"componentType":5120,"count":453,"normalized":true,"type":"VEC3"},{"bufferView":59,"componentType":5121,"count":453,"normalized":true,"type":"VEC4"},{"bufferView":60,"componentType":5123,"count":453,"type":"SCALAR"},{"bufferView":61,"componentType":5122,"count":192,"max":[32767.0,32767.0,32767.0],"min":[-32767.0,-32767.0,-32767.0],"normalized":true,"type":"VEC3"},{"bufferView":62,"componentType":5120,"count":192,"normalized":true,"type":"VEC3"},{"bufferView":63,"componentType":5123,"count":264,"type":"SCALAR"},{"bufferView":64,"componentType":5122,"count":7921,"max":[32767.0,-19124.0,32767.0],"min":[-26575.0,-32236.0,-32570.0],"normalized":true,"type":"VEC3"},{"bufferView":65,"componentType":5120,"count":7921,"normalized":true,"type":"VEC3"},{"bufferView":66,"componentType":5123,"count":10905,"type":"SCALAR"},{"bufferView":67,"componentType":5122,"count":3136,"max":[-3533.0,-15924.0,-9929.0],"min":[-32767.0,-32767.0,-32767.0],"normalized":true,"type":"VEC3"},{"bufferView":68,"componentType":5120,"count":3136,"normalized":true,"type":"VEC3"},{"bufferView":69,"componentType":5123,"count":5208,"type":"SCALAR"},{"bufferView":70,"componentType":5122,"count":104,"max":[-10358.0,-14840.0,13223.0],"min":[-26558.0,-16408.0,-3869.0],"normalized":true,"type":"VEC3"},{"bufferView":71,"componentType":5120,"count":104,"normalized":true,"type":"VEC3"},{"bufferView":72,"componentType":5123,"count":156,"type":"SCALAR"},{"bufferView":73,"componentType":5122,"count":25502,"max":[19692.0,32767.0,26176.0],"min":[-25075.0,-28509.0,-20197.0],"normalized":true,"type":"VEC3"},{"bufferView":74,"componentType":5120,"count":25502,"normalized":true,"type":"VEC3"},{"bufferView":75,"componentType":5123,"count":37206,"type":"SCALAR"},{"bufferView":76,"componentType":5122,"count":1764,"max":[-1245.0,-15924.0,28440.0],"min":[-10650.0,-16010.0,24526.0],"normalized":true,"type":"VEC3"},{"bufferView":77,"componentType":5120,"count":1764,"normalized":true,"type":"VEC3"},{"bufferView":78,"componentType":5123,"count":2916,"type":"SCALAR"},{"bufferView":79,"componentType":5122,"count":480,"max":[-2219.0,20666.0,-14916.0],"min":[-3163.0,-146.0,-15183.0],"normalized":true,"type":"VEC3"},{"bufferView":80,"componentType":5120,"count":480,"normalized":true,"type":"VEC3"},{"bufferView":81,"componentType":5123,"count":660,"type":"SCALAR"},{"bufferView":82,"componentType":5122,"count":360,"max":[-2553.0,20571.0,-15059.0],"min":[-2902.0,3381.0,-15164.0],"normalized":true,"type":"VEC3"},{"bufferView":83,"componentType":5120,"count":360,"normalized":true,"type":"VEC3"},{"bufferView":84,"componentType":5123,"count":570,"type":"SCALAR"},{"bufferView":85,"componentType":5122,"count":6651,"max":[32767.0,20640.0,32767.0],"min":[-26577.0,-32107.0,-32570.0],"normalized":true,"type":"VEC3"},{"bufferView":86,"componentType":5120,"count":6651,"normalized":true,"type":"VEC3"},{"bufferView":87,"componentType":5123,"count":6651,"type":"SCALAR"},{"bufferView":88,"componentType":5122,"count":2214,"max":[-3537.0,-15924.0,-9934.0],"min":[-32767.0,-32767.0,-32767.0],"normalized":true,"type":"VEC3"},{"bufferView":89,"componentType":5120,"count":2214,"normalized":true,"type":"VEC3"},{"bufferView":90,"componentType":5123,"count":2214,"type":"SCALAR"},{"bufferView":91,"componentType":5122,"count":17751,"max":[19675.0,32767.0,26176.0],"min":[-25077.0,-28509.0,-20197.0],"normalized":true,"type":"VEC3"},{"bufferView":92,"componentType":5120,"count":17751,"normalized":true,"type":"VEC3"},{"bufferView":93,"componentType":5123,"count":17751,"type":"SCALAR"},{"bufferView":94,"componentType":5122,"count":1887,"max":[32767.0,20429.0,32767.0],"min":[-26560.0,-32143.0,-32574.0],"normalized":true,"type":"VEC3"},{"bufferView":95,"componentType":5120,"count":1887,"normalized":true,"type":"VEC3"},{"bufferView":96,"componentType":5123,"count":1887,"type":"SCALAR"},{"bufferView":97,"componentType":5122,"count":615,"max":[-3539.0,-15982.0,-9927.0],"min":[-32767.0,-32767.0,-32767.0],"normalized":true,"type":"VEC3"},{"bufferView":98,"componentType":5120,"count":615,"normalized":true,"type":"VEC3"},{"bufferView":99,"componentType":5123,"count":615,"type":"SCALAR"},{"bufferView":100,"componentType":5122,"count":5370,"max":[19675.0,32767.0,26196.0],"min":[-25077.0,-28375.0,-20195.0],"normalized":true,"type":"VEC3"},{"bufferView":101,"componentType":5120,"count":5370,"normalized":true,"type":"VEC3"},{"bufferView":102,"componentType":5123,"count":5370,"type":"SCALAR"},{"bufferView":103,"componentType":5122,"count":1344,"max":[32767.0,32767.0,32767.0],"min":[-27276.0,-32667.0,-32767.0],"normalized":true,"type":"VEC3"},{"bufferView":104,"componentType":5120,"count":1344,"normalized":true,"type":"VEC3"},{"bufferView":105,"componentType":5123,"count":1344,"type":"SCALAR"},{"bufferView":106,"componentType":5122,"count":120,"max":[-3978.0,-15454.0,-10534.0],"min":[-32767.0,-32767.0,-31347.0],"normalized":true,"type":"VEC3"},{"bufferView":107,"componentType":5120,"count":120,"normalized":true,"type":"VEC3"},{"bufferView":108,"componentType":5123,"count":120,"type":"SCALAR"},{"bufferView":109,"componentType":5122,"count":96,"max":[32767.0,32767.0,32767.0],"min":[-32767.0,-32767.0,-32767.0],"normalized":true,"type":"VEC3"},{"bufferView":110,"componentType":5120,"count":96,"normalized":true,"type":"VEC3"},{"bufferView":111,"componentType":5123,"count":132,"type":"SCALAR"},{"bufferView":112,"componentType":5122,"count":7920,"max":[26737.0,-13574.0,32767.0],"min":[-32767.0,-32767.0,-23586.0],"normalized":true,"type":"VEC3"},{"bufferView":113,"componentType":5120,"count":7920,"normalized":true,"type":"VEC3"},{"bufferView":114,"componentType":5123,"count":10908,"type":"SCALAR"},{"bufferView":115,"componentType":5122,"count":432,"max":[18684.0,-15135.0,-17054.0],"min":[16258.0,-15642.0,-21014.0],"normalized":true,"type":"VEC3"},{"bufferView":116,"componentType":5120,"count":432,"normalized":true,"type":"VEC3"},{"bufferView":117,"componentType":5123,"count":636,"type":"SCALAR"},{"bufferView":118,"componentType":5122,"count":1344,"max":[16032.0,-29504.0,5978.0],"min":[-2413.0,-31274.0,-10372.0],"normalized":true,"type":"VEC3"},{"bufferView":119,"componentType":5120,"count":1344,"normalized":true,"type":"VEC3"},{"bufferView":120,"componentType":5123,"count":2016,"type":"SCALAR"},{"bufferView":121,"componentType":5122,"count":5744,"max":[32767.0,32767.0,380.0],"min":[-16536.0,-32290.0,-32767.0],"normalized":true,"type":"VEC3"},{"bufferView":122,"componentType":5120,"count":5744,"normalized":true,"type":"VEC3"},{"bufferView":123,"componentType":5123,"count":8598,"type":"SCALAR"},{"bufferView":124,"componentType":5122,"count":6456,"max":[26870.0,-13479.0,32767.0],"min":[-32767.0,-32767.0,-23631.0],"normalized":true,"type":"VEC3"},{"bufferView":125,"componentType":5120,"count":6456,"normalized":true,"type":"VEC3"},{"bufferView":126,"componentType":5123,"count":6456,"type":"SCALAR"},{"bufferView":127,"componentType":5122,"count":3738,"max":[32767.0,32767.0,237.0],"min":[-16496.0,-32115.0,-32767.0],"normalized":true,"type":"VEC3"},{"bufferView":128,"componentType":5120,"count":3738,"normalized":true,"type":"VEC3"},{"bufferView":129,"componentType":5123,"count":3738,"type":"SCALAR"},{"bufferView":130,"componentType":5122,"count":1965,"max":[27497.0,-13370.0,32767.0],"min":[-32767.0,-32767.0,-27801.0],"normalized":true,"type":"VEC3"},{"bufferView":131,"componentType":5120,"count":1965,"normalized":true,"type":"VEC3"},{"bufferView":132,"componentType":5123,"count":1965,"type":"SCALAR"},{"bufferView":133,"componentType":5122,"count":1155,"max":[32767.0,32767.0,-2302.0],"min":[-16209.0,-31678.0,-32767.0],"normalized":true,"type":"VEC3"},{"bufferView":134,"componentType":5120,"count":1155,"normalized":true,"type":"VEC3"},{"bufferView":135,"componentType":5123,"count":1155,"type":"SCALAR"},{"bufferView":136,"componentType":5122,"count":351,"max":[27650.0,-12118.0,32767.0],"min":[-32767.0,-32767.0,-27910.0],"normalized":true,"type":"VEC3"},{"bufferView":137,"componentType":5120,"count":351,"normalized":true,"type":"VEC3"},{"bufferView":138,"componentType":5123,"count":351,"type":"SCALAR"},{"bufferView":139,"componentType":5122,"count":201,"max":[32767.0,32767.0,-10661.0],"min":[-15985.0,-27673.0,-32767.0],"normalized":true,"type":"VEC3"},{"bufferView":140,"componentType":5120,"count":201,"normalized":true,"type":"VEC3"},{"bufferView":141,"componentType":5123,"count":201,"type":"SCALAR"},{"bufferView":142,"componentType":5122,"count":96,"max":[32767.0,32767.0,32767.0],"min":[-32767.0,-32767.0,-32767.0],"normalized":true,"type":"VEC3"},{"bufferView":143,"componentType":5120,"count":96,"normalized":true,"type":"VEC3"},{"bufferView":144,"componentType":5123,"count":132,"type":"SCALAR"},{"bufferView":145,"componentType":5122,"count":52,"max":[32767.0,-14165.0,18279.0],"min":[17578.0,-22845.0,14378.0],"normalized":true,"type":"VEC3"},{"bufferView":146,"componentType":5120,"count":52,"normalized":true,"type":"VEC3"},{"bufferView":147,"componentType":5123,"count":78,"type":"SCALAR"},{"bufferView":148,"componentType":5122,"count":8096,"max":[25728.0,-30619.0,25548.0],"min":[-32767.0,-32767.0,-32767.0],"normalized":true,"type":"VEC3"},{"bufferView":149,"componentType":5120,"count":8096,"normalized":true,"type":"VEC3"},{"bufferView":150,"componentType":5123,"count":11148,"type":"SCALAR"},{"bufferView":151,"componentType":5122,"count":3136,"max":[18005.0,-28137.0,-9064.0],"min":[-6000.0,-28205.0,-28423.0],"normalized":true,"type":"VEC3"},{"bufferView":152,"componentType":5120,"count":3136,"normalized":true,"type":"VEC3"},{"bufferView":153,"componentType":5123,"count":5208,"type":"SCALAR"},{"bufferView":154,"componentType":5122,"count":15838,"max":[24453.0,-6688.0,18649.0],"min":[-22298.0,-32091.0,-25636.0],"normalized":true,"type":"VEC3"},{"bufferView":155,"componentType":5120,"count":15838,"normalized":true,"type":"VEC3"},{"bufferView":156,"componentType":5123,"count":23916,"type":"SCALAR"},{"bufferView":157,"componentType":5122,"count":288,"max":[-2616.0,-21576.0,-9661.0],"min":[-10745.0,-32007.0,-13595.0],"normalized":true,"type":"VEC3"},{"bufferView":158,"componentType":5120,"count":288,"normalized":true,"type":"VEC3"},{"bufferView":159,"componentType":5123,"count":396,"type":"SCALAR"},{"bufferView":160,"componentType":5122,"count":52,"max":[16086.0,-22690.0,18575.0],"min":[-10230.0,-23427.0,-13047.0],"normalized":true,"type":"VEC3"},{"bufferView":161,"componentType":5120,"count":52,"normalized":true,"type":"VEC3"},{"bufferView":162,"componentType":5121,"count":52,"normalized":true,"type":"VEC4"},{"bufferView":163,"componentType":5123,"count":78,"type":"SCALAR"},{"bufferView":164,"componentType":5122,"count":2152,"max":[32189.0,32767.0,32767.0],"min":[18883.0,-15856.0,18222.0],"normalized":true,"type":"VEC3"},{"bufferView":165,"componentType":5120,"count":2152,"normalized":true,"type":"VEC3"},{"bufferView":166,"componentType":5123,"count":3228,"type":"SCALAR"},{"bufferView":167,"componentType":5122,"count":5571,"max":[32298.0,-5782.0,25548.0],"min":[-32767.0,-32767.0,-32767.0],"normalized":true,"type":"VEC3"},{"bufferView":168,"componentType":5120,"count":5571,"normalized":true,"type":"VEC3"},{"bufferView":169,"componentType":5121,"count":5571,"normalized":true,"type":"VEC4"},{"bufferView":170,"componentType":5123,"count":5571,"type":"SCALAR"},{"bufferView":171,"componentType":5122,"count":2298,"max":[18457.0,-26051.0,-9066.0],"min":[-5759.0,-26149.0,-28422.0],"normalized":true,"type":"VEC3"},{"bufferView":172,"componentType":5120,"count":2298,"normalized":true,"type":"VEC3"},{"bufferView":173,"componentType":5123,"count":2298,"type":"SCALAR"},{"bufferView":174,"componentType":5122,"count":10515,"max":[23338.0,5005.0,18649.0],"min":[-22192.0,-31786.0,-25625.0],"normalized":true,"type":"VEC3"},{"bufferView":175,"componentType":5120,"count":10515,"normalized":true,"type":"VEC3"},{"bufferView":176,"componentType":5123,"count":10515,"type":"SCALAR"},{"bufferView":177,"componentType":5122,"count":180,"max":[-2395.0,-16899.0,-9661.0],"min":[-10550.0,-31664.0,-13546.0],"normalized":true,"type":"VEC3"},{"bufferView":178,"componentType":5120,"count":180,"normalized":true,"type":"VEC3"},{"bufferView":179,"componentType":5123,"count":180,"type":"SCALAR"},{"bufferView":180,"componentType":5122,"count":1404,"max":[32767.0,32767.0,32767.0],"min":[19343.0,-7991.0,18222.0],"normalized":true,"type":"VEC3"},{"bufferView":181,"componentType":5120,"count":1404,"normalized":true,"type":"VEC3"},{"bufferView":182,"componentType":5123,"count":1404,"type":"SCALAR"},{"bufferView":183,"componentType":5122,"count":5448,"max":[32767.0,32767.0,32767.0],"min":[-32767.0,-32767.0,-32767.0],"normalized":true,"type":"VEC3"},{"bufferView":184,"componentType":5120,"count":5448,"normalized":true,"type":"VEC3"},{"bufferView":185,"componentType":5121,"count":5448,"normalized":true,"type":"VEC4"},{"bufferView":186,"componentType":5123,"count":5448,"type":"SCALAR"},{"bufferView":187,"componentType":5122,"count":1023,"max":[32767.0,32767.0,32767.0],"min":[-32767.0,-32767.0,-32767.0],"normalized":true,"type":"VEC3"},{"bufferView":188,"componentType":5120,"count":1023,"normalized":true,"type":"VEC3"},{"bufferView":189,"componentType":5121,"count":1023,"normalized":true,"type":"VEC4"},{"bufferView":190,"componentType":5123,"count":1023,"type":"SCALAR"},{"bufferView":191,"componentType":5122,"count":96,"max":[32767.0,32767.0,32767.0],"min":[-32767.0,-32767.0,-32767.0],"normalized":true,"type":"VEC3"},{"bufferView":192,"componentType":5120,"count":96,"normalized":true,"type":"VEC3"},{"bufferView":193,"componentType":5123,"count":132,"type":"SCALAR"},{"bufferView":194,"componentType":5126,"count":1404,"max":[0.24591457843780518,0.27907443046569824,0.24119143187999725],"min":[-0.24591457843780518,-0.0010744337923824787,-0.24119143187999725],"type":"VEC3"},{"bufferView":195,"componentType":5120,"count":1404,"normalized":true,"type":"VEC3"},{"bufferView":196,"componentType":5123,"count":2118,"type":"SCALAR"},{"bufferView":197,"componentType":5126,"count":1035,"max":[0.24005506932735443,0.277840256690979,0.24119143187999725],"min":[-0.24004754424095154,-0.0010744337923824787,-0.24119143187999725],"type":"VEC3"},{"bufferView":198,"componentType":5120,"count":1035,"normalized":true,"type":"VEC3"},{"bufferView":199,"componentType":5123,"count":1035,"type":"SCALAR"},{"bufferView":200,"componentType":5126,"count":282,"max":[0.22884653508663177,0.2721068859100342,0.2258482128381729],"min":[-0.2288406640291214,-0.000966990424785763,-0.22564303874969482],"type":"VEC3"},{"bufferView":201,"componentType":5120,"count":282,"normalized":true,"type":"VEC3"},{"bufferView":202,"componentType":5123,"count":282,"type":"SCALAR"},{"bufferView":203,"componentType":5122,"count":1080,"normalized":true,"type":"VEC2"},{"bufferView":204,"componentType":5122,"count":5223,"normalized":true,"type":"VEC2"},{"bufferView":205,"componentType":5122,"count":6597,"normalized":true,"type":"VEC2"},{"bufferView":206,"componentType":5122,"count":1452,"normalized":true,"type":"VEC2"},{"bufferView":207,"componentType":5122,"count":288,"normalized":true,"type":"VEC2"},{"bufferView":208,"componentType":5122,"count":2292,"normalized":true,"type":"VEC2"},{"bufferView":209,"componentType":5122,"count":476,"normalized":true,"type":"VEC2"},{"bufferView":210,"componentType":5122,"count":176,"normalized":true,"type":"VEC2"},{"bufferView":211,"componentType":5122,"count":801,"normalized":true,"type":"VEC2"},{"bufferView":212,"componentType":5122,"count":4215,"normalized":true,"type":"VEC2"},{"bufferView":213,"componentType":5122,"count":186,"normalized":true,"type":"VEC2"},{"bufferView":214,"componentType":5122,"count":6609,"normalized":true,"type":"VEC2"},{"bufferView":215,"componentType":5122,"count":360,"normalized":true,"type":"VEC2"},{"bufferView":216,"componentType":5122,"count":414,"normalized":true,"type":"VEC2"},{"bufferView":217,"componentType":5122,"count":234,"normalized":true,"type":"VEC2"},{"bufferView":218,"componentType":5122,"count":1242,"normalized":true,"type":"VEC2"},{"bufferView":219,"componentType":5122,"count":2163,"normalized":true,"type":"VEC2"},{"bufferView":220,"componentType":5122,"count":219,"normalized":true,"type":"VEC2"},{"bufferView":221,"componentType":5122,"count":453,"normalized":true,"type":"VEC2"},{"bufferView":222,"componentType":5122,"count":192,"normalized":true,"type":"VEC2"},{"bufferView":223,"componentType":5122,"count":7921,"normalized":true,"type":"VEC2"},{"bufferView":224,"componentType":5122,"count":3136,"normalized":true,"type":"VEC2"},{"bufferView":225,"componentType":5122,"count":104,"normalized":true,"type":"VEC2"},{"bufferView":226,"componentType":5122,"count":25502,"normalized":true,"type":"VEC2"},{"bufferView":227,"componentType":5122,"count":1764,"normalized":true,"type":"VEC2"},{"bufferView":228,"componentType":5122,"count":480,"normalized":true,"type":"VEC2"},{"bufferView":229,"componentType":5122,"count":360,"normalized":true,"type":"VEC2"},{"bufferView":230,"componentType":5122,"count":6651,"normalized":true,"type":"VEC2"},{"bufferView":231,"componentType":5122,"count":2214,"normalized":true,"type":"VEC2"},{"bufferView":232,"componentType":5122,"count":17751,"normalized":true,"type":"VEC2"},{"bufferView":233,"componentType":5122,"count":1887,"normalized":true,"type":"VEC2"},{"bufferView":234,"componentType":5122,"count":615,"normalized":true,"type":"VEC2"},{"bufferView":235,"componentType":5122,"count":5370,"normalized":true,"type":"VEC2"},{"bufferView":236,"componentType":5122,"count":1344,"normalized":true,"type":"VEC2"},{"bufferView":237,"componentType":5122,"count":120,"normalized":true,"type":"VEC2"},{"bufferView":238,"componentType":5122,"count":96,"normalized":true,"type":"VEC2"},{"bufferView":239,"componentType":5122,"count":7920,"normalized":true,"type":"VEC2"},{"bufferView":240,"componentType":5122,"count":432,"normalized":true,"type":"VEC2"},{"bufferView":241,"componentType":5122,"count":1344,"normalized":true,"type":"VEC2"},{"bufferView":242,"componentType":5122,"count":5744,"normalized":true,"type":"VEC2"},{"bufferView":243,"componentType":5122,"count":6456,"normalized":true,"type":"VEC2"},{"bufferView":244,"componentType":5122,"count":3738,"normalized":true,"type":"VEC2"},{"bufferView":245,"componentType":5122,"count":1965,"normalized":true,"type":"VEC2"},{"bufferView":246,"componentType":5122,"count":1155,"normalized":true,"type":"VEC2"},{"bufferView":247,"componentType":5122,"count":351,"normalized":true,"type":"VEC2"},{"bufferView":248,"componentType":5122,"count":201,"normalized":true,"type":"VEC2"},{"bufferView":249,"componentType":5122,"count":96,"normalized":true,"type":"VEC2"},{"bufferView":250,"componentType":5122,"count":52,"normalized":true,"type":"VEC2"},{"bufferView":251,"componentType":5122,"count":8096,"normalized":true,"type":"VEC2"},{"bufferView":252,"componentType":5122,"count":3136,"normalized":true,"type":"VEC2"},{"bufferView":253,"componentType":5122,"count":15838,"normalized":true,"type":"VEC2"},{"bufferView":254,"componentType":5122,"count":288,"normalized":true,"type":"VEC2"},{"bufferView":255,"componentType":5122,"count":52,"normalized":true,"type":"VEC2"},{"bufferView":256,"componentType":5122,"count":2152,"normalized":true,"type":"VEC2"},{"bufferView":257,"componentType":5122,"count":5571,"normalized":true,"type":"VEC2"},{"bufferView":258,"componentType":5122,"count":2298,"normalized":true,"type":"VEC2"},{"bufferView":259,"componentType":5122,"count":10515,"normalized":true,"type":"VEC2"},{"bufferView":260,"componentType":5122,"count":180,"normalized":true,"type":"VEC2"},{"bufferView":261,"componentType":5122,"count":1404,"normalized":true,"type":"VEC2"},{"bufferView":262,"componentType":5122,"count":5448,"normalized":true,"type":"VEC2"},{"bufferView":263,"componentType":5122,"count":1023,"normalized":true,"type":"VEC2"},{"bufferView":264,"componentType":5122,"count":96,"normalized":true,"type":"VEC2"},{"bufferView":265,"componentType":5122,"count":1404,"normalized":true,"type":"VEC2"},{"bufferView":266,"componentType":5122,"count":1035,"normalized":true,"type":"VEC2"},{"bufferView":267,"componentType":5122,"count":282,"normalized":true,"type":"VEC2"}],"asset":{"generator":"evermore assetgen","version":"2.0"},"bufferViews":[{"buffer":0,"byteLength":8640,"byteOffset":0,"byteStride":8,"target":34962},{"buffer":0,"byteLength":4320,"byteOffset":8640,"byteStride":4,"target":34962},{"buffer":0,"byteLength":3600,"byteOffset":12960,"target":34963},{"buffer":0,"byteLength":41784,"byteOffset":16560,"byteStride":8,"target":34962},{"buffer":0,"byteLength":20892,"byteOffset":58344,"byteStride":4,"target":34962},{"buffer":0,"byteLength":16662,"byteOffset":79236,"target":34963},{"buffer":0,"byteLength":52776,"byteOffset":95900,"byteStride":8,"target":34962},{"buffer":0,"byteLength":26388,"byteOffset":148676,"byteStride":4,"target":34962},{"buffer":0,"byteLength":18174,"byteOffset":175064,"target":34963},{"buffer":0,"byteLength":11616,"byteOffset":193240,"byteStride":8,"target":34962},{"buffer":0,"byteLength":5808,"byteOffset":204856,"byteStride":4,"target":34962},{"buffer":0,"byteLength":4476,"byteOffset":210664,"target":34963},{"buffer":0,"byteLength":2304,"byteOffset":215140,"byteStride":8,"target":34962},{"buffer":0,"byteLength":1152,"byteOffset":217444,"byteStride":4,"target":34962},{"buffer":0,"byteLength":948,"byteOffset":218596,"target":34963},{"buffer":0,"byteLength":18336,"byteOffset":219544,"byteStride":8,"target":34962},{"buffer":0,"byteLength":9168,"byteOffset":237880,"byteStride":4,"target":34962},{"buffer":0,"byteLength":7476,"byteOffset":247048,"target":34963},{"buffer":0,"byteLength":3808,"byteOffset":254524,"byteStride":8,"target":34962},{"buffer":0,"byteLength":1904,"byteOffset":258332,"byteStride":4,"target":34962},{"buffer":0,"byteLength":1608,"byteOffset":260236,"target":34963},{"buffer":0,"byteLength":1408,"byteOffset":261844,"byteStride":8,"target":34962},{"buffer":0,"byteLength":704,"byteOffset":263252,"byteStride":4,"target":34962},{"buffer":0,"byteLength":704,"byteOffset":263956,"byteStride":4,"target":34962},{"buffer":0,"byteLength":1740,"byteOffset":264660,"target":34963},{"buffer":0,"byteLength":6408,"byteOffset":266400,"byteStride":8,"target":34962},{"buffer":0,"byteLength":3204,"byteOffset":272808,"byteStride":4,"target":34962},{"buffer":0,"byteLength":1602,"byteOffset":276012,"target":34963},{"buffer":0,"byteLength":33720,"byteOffset":277616,"byteStride":8,"target":34962},{"buffer":0,"byteLength":16860,"byteOffset":311336,"byteStride":4,"target":34962},{"buffer":0,"byteLength":8430,"byteOffset":328196,"target":34963},{"buffer":0,"byteLength":1488,"byteOffset":336628,"byteStride":8,"target":34962},{"buffer":0,"byteLength":744,"byteOffset":338116,"byteStride":4,"target":34962},{"buffer":0,"byteLength":372,"byteOffset":338860,"target":34963},{"buffer":0,"byteLength":52872,"byteOffset":339232,"byteStride":8,"target":34962},{"buffer":0,"byteLength":26436,"byteOffset":392104,"byteStride":4,"target":34962},{"buffer":0,"byteLength":13218,"byteOffset":418540,"target":34963},{"buffer":0,"byteLength":2880,"byteOffset":431760,"byteStride":8,"target":34962},{"buffer":0,"byteLength":1440,"byteOffset":434640,"byteStride":4,"target":34962},{"buffer":0,"byteLength":720,"byteOffset":436080,"target":34963},{"buffer":0,"byteLength":3312,"byteOffset":436800,"byteStride":8,"target":34962},{"buffer":0,"byteLength":1656,"byteOffset":440112,"byteStride":4,"target":34962},{"buffer":0,"byteLength":1656,"byteOffset":441768,"byteStride":4,"target":34962},{"buffer":0,"byteLength":828,"byteOffset":443424,"target":34963},{"buffer":0,"byteLength":1872,"byteOffset":444252,"byteStride":8,"target":34962},{"buffer":0,"byteLength":936,"byteOffset":446124,"byteStride":4,"target":34962},{"buffer":0,"byteLength":468,"byteOffset":447060,"target":34963},{"buffer":0,"byteLength":9936,"byteOffset":447528,"byteStride":8,"target":34962},{"buffer":0,"byteLength":4968,"byteOffset":457464,"byteStride":4,"target":34962},{"buffer":0,"byteLength":2484,"byteOffset":462432,"target":34963},{"buffer":0,"byteLength":17304,"byteOffset":464916,"byteStride":8,"target":34962},{"buffer":0,"byteLength":8652,"byteOffset":482220,"byteStride":4,"target":34962},{"buffer":0,"byteLength":8652,"byteOffset":490872,"byteStride":4,"target":34962},{"buffer":0,"byteLength":4326,"byteOffset":499524,"target":34963},{"buffer":0,"byteLength":1752,"byteOffset":503852,"byteStride":8,"target":34962},{"buffer":0,"byteLength":876,"byteOffset":505604,"byteStride":4,"target":34962},{"buffer":0,"byteLength":438,"byteOffset":506480,"target":34963},{"buffer":0,"byteLength":3624,"byteOffset":506920,"byteStride":8,"target":34962},{"buffer":0,"byteLength":1812,"byteOffset":510544,"byteStride":4,"target":34962},{"buffer":0,"byteLength":1812,"byteOffset":512356,"byteStride":4,"target":34962},{"buffer":0,"byteLength":906,"byteOffset":514168,"target":34963},{"buffer":0,"byteLength":1536,"byteOffset":515076,"byteStride":8,"target":34962},{"buffer":0,"byteLength":768,"byteOffset":516612,"byteStride":4,"target":34962},{"buffer":0,"byteLength":528,"byteOffset":517380,"target":34963},{"buffer":0,"byteLength":63368,"byteOffset":517908,"byteStride":8,"target":34962},{"buffer":0,"byteLength":31684,"byteOffset":581276,"byteStride":4,"target":34962},{"buffer":0,"byteLength":21810,"byteOffset":612960,"target":34963},{"buffer":0,"byteLength":25088,"byteOffset":634772,"byteStride":8,"target":34962},{"buffer":0,"byteLength":12544,"byteOffset":659860,"byteStride":4,"target":34962},{"buffer":0,"byteLength":10416,"byteOffset":672404,"target":34963},{"buffer":0,"byteLength":832,"byteOffset":682820,"byteStride":8,"target":34962},{"buffer":0,"byteLength":416,"byteOffset":683652,"byteStride":4,"target":34962},{"buffer":0,"byteLength":312,"byteOffset":684068,"target":34963},{"buffer":0,"byteLength":204016,"byteOffset":684380,"byteStride":8,"target":34962},{"buffer":0,"byteLength":102008,"byteOffset":888396,"byteStride":4,"target":34962},{"buffer":0,"byteLength":74412,"byteOffset":990404,"target":34963},{"buffer":0,"byteLength":14112,"byteOffset":1064816,"byteStride":8,"target":34962},{"buffer":0,"byteLength":7056,"byteOffset":1078928,"byteStride":4,"target":34962},{"buffer":0,"byteLength":5832,"byteOffset":1085984,"target":34963},{"buffer":0,"byteLength":3840,"byteOffset":1091816,"byteStride":8,"target":34962},{"buffer":0,"byteLength":1920,"byteOffset":1095656,"byteStride":4,"target":34962},{"buffer":0,"byteLength":1320,"byteOffset":1097576,"target":34963},{"buffer":0,"byteLength":2880,"byteOffset":1098896,"byteStride":8,"target":34962},{"buffer":0,"byteLength":1440,"byteOffset":1101776,"byteStride":4,"target":34962},{"buffer":0,"byteLength":1140,"byteOffset":1103216,"target":34963},{"buffer":0,"byteLength":53208,"byteOffset":1104356,"byteStride":8,"target":34962},{"buffer":0,"byteLength":26604,"byteOffset":1157564,"byteStride":4,"target":34962},{"buffer":0,"byteLength":13302,"byteOffset":1184168,"target":34963},{"buffer":0,"byteLength":17712,"byteOffset":1197472,"byteStride":8,"target":34962},{"buffer":0,"byteLength":8856,"byteOffset":1215184,"byteStride":4,"target":34962},{"buffer":0,"byteLength":4428,"byteOffset":1224040,"target":34963},{"buffer":0,"byteLength":142008,"byteOffset":1228468,"byteStride":8,"target":34962},{"buffer":0,"byteLength":71004,"byteOffset":1370476,"byteStride":4,"target":34962},{"buffer":0,"byteLength":35502,"byteOffset":1441480,"target":34963},{"buffer":0,"byteLength":15096,"byteOffset":1476984,"byteStride":8,"target":34962},{"buffer":0,"byteLength":7548,"byteOffset":1492080,"byteStride":4,"target":34962},{"buffer":0,"byteLength":3774,"byteOffset":1499628,"target":34963},{"buffer":0,"byteLength":4920,"byteOffset":1503404,"byteStride":8,"target":34962},{"buffer":0,"byteLength":2460,"byteOffset":1508324,"byteStride":4,"target":34962},{"buffer":0,"byteLength":1230,"byteOffset":1510784,"target":34963},{"buffer":0,"byteLength":42960,"byteOffset":1512016,"byteStride":8,"target":34962},{"buffer":0,"byteLength":21480,"byteOffset":1554976,"byteStride":4,"target":34962},{"buffer":0,"byteLength":10740,"byteOffset":1576456,"target":34963},{"buffer":0,"byteLength":10752,"byteOffset":1587196,"byteStride":8,"target":34962},{"buffer":0,"byteLength":5376,"byteOffset":1597948,"byteStride":4,"target":34962},{"buffer":0,"byteLength":2688,"byteOffset":1603324,"target":34963},{"buffer":0,"byteLength":960,"byteOffset":1606012,"byteStride":8,"target":34962},{"buffer":0,"byteLength":480,"byteOffset":1606972,"byteStride":4,"target":34962},{"buffer":0,"byteLength":240,"byteOffset":1607452,"target":34963},{"buffer":0,"byteLength":768,"byteOffset":1607692,"byteStride":8,"target":34962},{"buffer":0,"byteLength":384,"byteOffset":1608460,"byteStride":4,"target":34962},{"buffer":0,"byteLength":264,"byteOffset":1608844,"target":34963},{"buffer":0,"byteLength":63360,"byteOffset":1609108,"byteStride":8,"target":34962},{"buffer":0,"byteLength":31680,"byteOffset":1672468,"byteStride":4,"target":34962},{"buffer":0,"byteLength":21816,"byteOffset":1704148,"target":34963},{"buffer":0,"byteLength":3456,"byteOffset":1725964,"byteStride":8,"target":34962},{"buffer":0,"byteLength":1728,"byteOffset":1729420,"byteStride":4,"target":34962},{"buffer":0,"byteLength":1272,"byteOffset":1731148,"target":34963},{"buffer":0,"byteLength":10752,"byteOffset":1732420,"byteStride":8,"target":34962},{"buffer":0,"byteLength":5376,"byteOffset":1743172,"byteStride":4,"target":34962},{"buffer":0,"byteLength":4032,"byteOffset":1748548,"target":34963},{"buffer":0,"byteLength":45952,"byteOffset":1752580,"byteStride":8,"target":34962},{"buffer":0,"byteLength":22976,"byteOffset":1798532,"byteStride":4,"target":34962},{"buffer":0,"byteLength":17196,"byteOffset":1821508,"target":34963},{"buffer":0,"byteLength":51648,"byteOffset":1838704,"byteStride":8,"target":34962},{"buffer":0,"byteLength":25824,"byteOffset":1890352,"byteStride":4,"target":34962},{"buffer":0,"byteLength":12912,"byteOffset":1916176,"target":34963},{"buffer":0,"byteLength":29904,"byteOffset":1929088,"byteStride":8,"target":34962},{"buffer":0,"byteLength":14952,"byteOffset":1958992,"byteStride":4,"target":34962},{"buffer":0,"byteLength":7476,"byteOffset":1973944,"target":34963},{"buffer":0,"byteLength":15720,"byteOffset":1981420,"byteStride":8,"target":34962},{"buffer":0,"byteLength":7860,"byteOffset":1997140,"byteStride":4,"target":34962},{"buffer":0,"byteLength":3930,"byteOffset":2005000,"target":34963},{"buffer":0,"byteLength":9240,"byteOffset":2008932,"byteStride":8,"target":34962},{"buffer":0,"byteLength":4620,"byteOffset":2018172,"byteStride":4,"target":34962},{"buffer":0,"byteLength":2310,"byteOffset":2022792,"target":34963},{"buffer":0,"byteLength":2808,"byteOffset":2025104,"byteStride":8,"target":34962},{"buffer":0,"byteLength":1404,"byteOffset":2027912,"byteStride":4,"target":34962},{"buffer":0,"byteLength":702,"byteOffset":2029316,"target":34963},{"buffer":0,"byteLength":1608,"byteOffset":2030020,"byteStride":8,"target":34962},{"buffer":0,"byteLength":804,"byteOffset":2031628,"byteStride":4,"target":34962},{"buffer":0,"byteLength":402,"byteOffset":2032432,"target":34963},{"buffer":0,"byteLength":768,"byteOffset":2032836,"byteStride":8,"target":34962},{"buffer":0,"byteLength":384,"byteOffset":2033604,"byteStride":4,"target":34962},{"buffer":0,"byteLength":264,"byteOffset":2033988,"target":34963},{"buffer":0,"byteLength":416,"byteOffset":2034252,"byteStride":8,"target":34962},{"buffer":0,"byteLength":208,"byteOffset":2034668,"byteStride":4,"target":34962},{"buffer":0,"byteLength":156,"byteOffset":2034876,"target":34963},{"buffer":0,"byteLength":64768,"byteOffset":2035032,"byteStride":8,"target":34962},{"buffer":0,"byteLength":32384,"byteOffset":2099800,"byteStride":4,"target":34962},{"buffer":0,"byteLength":22296,"byteOffset":2132184,"target":34963},{"buffer":0,"byteLength":25088,"byteOffset":2154480,"byteStride":8,"target":34962},{"buffer":0,"byteLength":12544,"byteOffset":2179568,"byteStride":4,"target":34962},{"buffer":0,"byteLength":10416,"byteOffset":2192112,"target":34963},{"buffer":0,"byteLength":126704,"byteOffset":2202528,"byteStride":8,"target":34962},{"buffer":0,"byteLength":63352,"byteOffset":2329232,"byteStride":4,"target":34962},{"buffer":0,"byteLength":47832,"byteOffset":2392584,"target":34963},{"buffer":0,"byteLength":2304,"byteOffset":2440416,"byteStride":8,"target":34962},{"buffer":0,"byteLength":1152,"byteOffset":2442720,"byteStride":4,"target":34962},{"buffer":0,"byteLength":792,"byteOffset":2443872,"target":34963},{"buffer":0,"byteLength":416,"byteOffset":2444664,"byteStride":8,"target":34962},{"buffer":0,"byteLength":208,"byteOffset":2445080,"byteStride":4,"target":34962},{"buffer":0,"byteLength":208,"byteOffset":2445288,"byteStride":4,"target":34962},{"buffer":0,"byteLength":156,"byteOffset":2445496,"target":34963},{"buffer":0,"byteLength":17216,"byteOffset":2445652,"byteStride":8,"target":34962},{"buffer":0,"byteLength":8608,"byteOffset":2462868,"byteStride":4,"target":34962},{"buffer":0,"byteLength":6456,"byteOffset":2471476,"target":34963},{"buffer":0,"byteLength":44568,"byteOffset":2477932,"byteStride":8,"target":34962},{"buffer":0,"byteLength":22284,"byteOffset":2522500,"byteStride":4,"target":34962},{"buffer":0,"byteLength":22284,"byteOffset":2544784,"byteStride":4,"target":34962},{"buffer":0,"byteLength":11142,"byteOffset":2567068,"target":34963},{"buffer":0,"byteLength":18384,"byteOffset":2578212,"byteStride":8,"target":34962},{"buffer":0,"byteLength":9192,"byteOffset":2596596,"byteStride":4,"target":34962},{"buffer":0,"byteLength":4596,"byteOffset":2605788,"target":34963},{"buffer":0,"byteLength":84120,"byteOffset":2610384,"byteStride":8,"target":34962},{"buffer":0,"byteLength":42060,"byteOffset":2694504,"byteStride":4,"target":34962},{"buffer":0,"byteLength":21030,"byteOffset":2736564,"target":34963},{"buffer":0,"byteLength":1440,"byteOffset":2757596,"byteStride":8,"target":34962},{"buffer":0,"byteLength":720,"byteOffset":2759036,"byteStride":4,"target":34962},{"buffer":0,"byteLength":360,"byteOffset":2759756,"target":34963},{"buffer":0,"byteLength":11232,"byteOffset":2760116,"byteStride":8,"target":34962},{"buffer":0,"byteLength":5616,"byteOffset":2771348,"byteStride":4,"target":34962},{"buffer":0,"byteLength":2808,"byteOffset":2776964,"target":34963},{"buffer":0,"byteLength":43584,"byteOffset":2779772,"byteStride":8,"target":34962},{"buffer":0,"byteLength":21792,"byteOffset":2823356,"byteStride":4,"target":34962},{"buffer":0,"byteLength":21792,"byteOffset":2845148,"byteStride":4,"target":34962},{"buffer":0,"byteLength":10896,"byteOffset":2866940,"target":34963},{"buffer":0,"byteLength":8184,"byteOffset":2877836,"byteStride":8,"target":34962},{"buffer":0,"byteLength":4092,"byteOffset":2886020,"byteStride":4,"target":34962},{"buffer":0,"byteLength":4092,"byteOffset":2890112,"byteStride":4,"target":34962},{"buffer":0,"byteLength":2046,"byteOffset":2894204,"target":34963},{"buffer":0,"byteLength":768,"byteOffset":2896252,"byteStride":8,"target":34962},{"buffer":0,"byteLength":384,"byteOffset":2897020,"byteStride":4,"target":34962},{"buffer":0,"byteLength":264,"byteOffset":2897404,"target":34963},{"buffer":0,"byteLength":16848,"byteOffset":2897668,"target":34962},{"buffer":0,"byteLength":5616,"byteOffset":2914516,"byteStride":4,"target":34962},{"buffer":0,"byteLength":4236,"byteOffset":2920132,"target":34963},{"buffer":0,"byteLength":12420,"byteOffset":2924368,"target":34962},{"buffer":0,"byteLength":4140,"byteOffset":2936788,"byteStride":4,"target":34962},{"buffer":0,"byteLength":2070,"byteOffset":2940928,"target":34963},{"buffer":0,"byteLength":3384,"byteOffset":2943000,"target":34962},{"buffer":0,"byteLength":1128,"byteOffset":2946384,"byteStride":4,"target":34962},{"buffer":0,"byteLength":564,"byteOffset":2947512,"target":34963},{"buffer":0,"byteLength":4320,"byteOffset":2948076,"byteStride":4,"target":34962},{"buffer":0,"byteLength":20892,"byteOffset":2952396,"byteStride":4,"target":34962},{"buffer":0,"byteLength":26388,"byteOffset":2973288,"byteStride":4,"target":34962},{"buffer":0,"byteLength":5808,"byteOffset":2999676,"byteStride":4,"target":34962},{"buffer":0,"byteLength":1152,"byteOffset":3005484,"byteStride":4,"target":34962},{"buffer":0,"byteLength":9168,"byteOffset":3006636,"byteStride":4,"target":34962},{"buffer":0,"byteLength":1904,"byteOffset":3015804,"byteStride":4,"target":34962},{"buffer":0,"byteLength":704,"byteOffset":3017708,"byteStride":4,"target":34962},{"buffer":0,"byteLength":3204,"byteOffset":3018412,"byteStride":4,"target":34962},{"buffer":0,"byteLength":16860,"byteOffset":3021616,"byteStride":4,"target":34962},{"buffer":0,"byteLength":744,"byteOffset":3038476,"byteStride":4,"target":34962},{"buffer":0,"byteLength":26436,"byteOffset":3039220,"byteStride":4,"target":34962},{"buffer":0,"byteLength":1440,"byteOffset":3065656,"byteStride":4,"target":34962},{"buffer":0,"byteLength":1656,"byteOffset":3067096,"byteStride":4,"target":34962},{"buffer":0,"byteLength":936,"byteOffset":3068752,"byteStride":4,"target":34962},{"buffer":0,"byteLength":4968,"byteOffset":3069688,"byteStride":4,"target":34962},{"buffer":0,"byteLength":8652,"byteOffset":3074656,"byteStride":4,"target":34962},{"buffer":0,"byteLength":876,"byteOffset":3083308,"byteStride":4,"target":34962},{"buffer":0,"byteLength":1812,"byteOffset":3084184,"byteStride":4,"target":34962},{"buffer":0,"byteLength":768,"byteOffset":3085996,"byteStride":4,"target":34962},{"buffer":0,"byteLength":31684,"byteOffset":3086764,"byteStride":4,"target":34962},{"buffer":0,"byteLength":12544,"byteOffset":3118448,"byteStride":4,"target":34962},{"buffer":0,"byteLength":416,"byteOffset":3130992,"byteStride":4,"target":34962},{"buffer":0,"byteLength":102008,"byteOffset":3131408,"byteStride":4,"target":34962},{"buffer":0,"byteLength":7056,"byteOffset":3233416,"byteStride":4,"target":34962},{"buffer":0,"byteLength":1920,"byteOffset":3240472,"byteStride":4,"target":34962},{"buffer":0,"byteLength":1440,"byteOffset":3242392,"byteStride":4,"target":34962},{"buffer":0,"byteLength":26604,"byteOffset":3243832,"byteStride":4,"target":34962},{"buffer":0,"byteLength":8856,"byteOffset":3270436,"byteStride":4,"target":34962},{"buffer":0,"byteLength":71004,"byteOffset":3279292,"byteStride":4,"target":34962},{"buffer":0,"byteLength":7548,"byteOffset":3350296,"byteStride":4,"target":34962},{"buffer":0,"byteLength":2460,"byteOffset":3357844,"byteStride":4,"target":34962},{"buffer":0,"byteLength":21480,"byteOffset":3360304,"byteStride":4,"target":34962},{"buffer":0,"byteLength":5376,"byteOffset":3381784,"byteStride":4,"target":34962},{"buffer":0,"byteLength":480,"byteOffset":3387160,"byteStride":4,"target":34962},{"buffer":0,"byteLength":384,"byteOffset":3387640,"byteStride":4,"target":34962},{"buffer":0,"byteLength":31680,"byteOffset":3388024,"byteStride":4,"target":34962},{"buffer":0,"byteLength":1728,"byteOffset":3419704,"byteStride":4,"target":34962},{"buffer":0,"byteLength":5376,"byteOffset":3421432,"byteStride":4,"target":34962},{"buffer":0,"byteLength":22976,"byteOffset":3426808,"byteStride":4,"target":34962},{"buffer":0,"byteLength":25824,"byteOffset":3449784,"byteStride":4,"target":34962},{"buffer":0,"byteLength":14952,"byteOffset":3475608,"byteStride":4,"target":34962},{"buffer":0,"byteLength":7860,"byteOffset":3490560,"byteStride":4,"target":34962},{"buffer":0,"byteLength":4620,"byteOffset":3498420,"byteStride":4,"target":34962},{"buffer":0,"byteLength":1404,"byteOffset":3503040,"byteStride":4,"target":34962},{"buffer":0,"byteLength":804,"byteOffset":3504444,"byteStride":4,"target":34962},{"buffer":0,"byteLength":384,"byteOffset":3505248,"byteStride":4,"target":34962},{"buffer":0,"byteLength":208,"byteOffset":3505632,"byteStride":4,"target":34962},{"buffer":0,"byteLength":32384,"byteOffset":3505840,"byteStride":4,"target":34962},{"buffer":0,"byteLength":12544,"byteOffset":3538224,"byteStride":4,"target":34962},{"buffer":0,"byteLength":63352,"byteOffset":3550768,"byteStride":4,"target":34962},{"buffer":0,"byteLength":1152,"byteOffset":3614120,"byteStride":4,"target":34962},{"buffer":0,"byteLength":208,"byteOffset":3615272,"byteStride":4,"target":34962},{"buffer":0,"byteLength":8608,"byteOffset":3615480,"byteStride":4,"target":34962},{"buffer":0,"byteLength":22284,"byteOffset":3624088,"byteStride":4,"target":34962},{"buffer":0,"byteLength":9192,"byteOffset":3646372,"byteStride":4,"target":34962},{"buffer":0,"byteLength":42060,"byteOffset":3655564,"byteStride":4,"target":34962},{"buffer":0,"byteLength":720,"byteOffset":3697624,"byteStride":4,"target":34962},{"buffer":0,"byteLength":5616,"byteOffset":3698344,"byteStride":4,"target":34962},{"buffer":0,"byteLength":21792,"byteOffset":3703960,"byteStride":4,"target":34962},{"buffer":0,"byteLength":4092,"byteOffset":3725752,"byteStride":4,"target":34962},{"buffer":0,"byteLength":384,"byteOffset":3729844,"byteStride":4,"target":34962},{"buffer":0,"byteLength":5616,"byteOffset":3730228,"byteStride":4,"target":34962},{"buffer":0,"byteLength":4140,"byteOffset":3735844,"byteStride":4,"target":34962},{"buffer":0,"byteLength":1128,"byteOffset":3739984,"byteStride":4,"target":34962}],"buffers":[{"byteLength":3741112,"uri":"market_square.bin"}],"extensionsRequired":["KHR_mesh_quantization","KHR_texture_transform"],"extensionsUsed":["KHR_mesh_quantization","KHR_texture_transform","MSFT_lod"],"extras":{"hm":{"batching":true,"cellSize":16.0,"cells":[{"cullAt":null,"interior":null,"key":"0_0","lodPrims":[8,6,3,2],"lodTris":[9114,4195,1213,224],"max":[15.0,5.678,16.0],"min":[-4.59,0.186,-4.57]},{"cullAt":null,"interior":null,"key":"0_1","lodPrims":[1],"lodTris":[88],"max":[1.943,1.423,16.742],"min":[0.838,1.159,16.141]},{"cullAt":null,"interior":null,"key":"0_n1","lodPrims":[7,3,3,2],"lodTris":[19207,8872,2624,488],"max":[17.0,2.722,0.024],"min":[-1.814,-0.336,-16.048]},{"cullAt":40.0,"interior":null,"key":"0_n2","lodPrims":[1],"lodTris":[44],"max":[2.977,-0.265,-16.126],"min":[2.787,-0.332,-16.332]},{"cullAt":null,"interior":null,"key":"n1_0","lodPrims":[4,2,2,2],"lodTris":[7386,3398,1040,184],"max":[1.52,4.25,16.0],"min":[-15.0,0.177,-2.607]},{"cullAt":40.0,"interior":null,"key":"n1_1","lodPrims":[1],"lodTris":[44],"max":[-1.534,1.416,16.595],"min":[-1.752,1.349,16.395]},{"cullAt":null,"interior":null,"key":"n1_n1","lodPrims":[7,5,1,1],"lodTris":[14684,6656,1816,341],"max":[2.093,4.07,1.981],"min":[-17.0,0.175,-16.0]},{"cullAt":40.0,"interior":null,"key":"n1_n2","lodPrims":[1],"lodTris":[44],"max":[-2.947,0.255,-16.003],"min":[-3.116,0.177,-16.165]}],"instanced":[],"instancing":true,"interiors":[],"lod":true,"lodDistances":[15.0,40.0,100.0],"stats":{"groups":8,"lodPrims":[30,17,10,8],"lodTris":[50611,23209,6781,1325]},"venue":"market_square"}},"images":[{"uri":"../textures/cobble_albedo.png"},{"uri":"../textures/cobble_orm.png"},{"uri":"../textures/cobble_normal.png"},{"uri":"../textures/stone_albedo.png"},{"uri":"../textures/stone_orm.png"},{"uri":"../textures/stone_normal.png"},{"uri":"../textures/rubble_albedo.png"},{"uri":"../textures/rubble_orm.png"},{"uri":"../textures/rubble_normal.png"},{"uri":"../textures/kit_albedo.png"},{"uri":"../textures/kit_orm.png"},{"uri":"../textures/kit_normal.png"},{"uri":"../textures/sandstone_albedo.png"},{"uri":"../textures/sandstone_orm.png"},{"uri":"../textures/sandstone_normal.png"},{"uri":"../textures/ashlar_civic_albedo.png"},{"uri":"../textures/ashlar_civic_orm.png"},{"uri":"../textures/ashlar_civic_normal.png"},{"uri":"../textures/algae_albedo.png"},{"uri":"../textures/algae_orm.png"},{"uri":"../textures/algae_normal.png"},{"uri":"../textures/bronze_albedo.png"},{"uri":"../textures/bronze_orm.png"},{"uri":"../textures/bronze_normal.png"},{"uri":"../textures/water_fall_albedo.png"},{"uri":"../textures/water_fall_orm.png"},{"uri":"../textures/water_fall_normal.png"},{"uri":"../textures/water_albedo.png"},{"uri":"../textures/water_orm.png"},{"uri":"../textures/water_normal.png"},{"uri":"../textures/parchment_albedo.png"},{"uri":"../textures/parchment_orm.png"},{"uri":"../textures/parchment_normal.png"},{"uri":"../textures/wax_albedo.png"},{"uri":"../textures/wax_orm.png"},{"uri":"../textures/wax_normal.png"},{"uri":"../textures/foliage_flower_albedo.png"},{"uri":"../textures/foliage_flower_orm.png"},{"uri":"../textures/foliage_flower_normal.png"},{"uri":"../textures/flour_albedo.png"},{"uri":"../textures/flour_orm.png"},{"uri":"../textures/flour_normal.png"},{"uri":"../textures/foliage_albedo.png"},{"uri":"../textures/foliage_orm.png"},{"uri":"../textures/foliage_normal.png"},{"uri":"../textures/mud_wet_albedo.png"},{"uri":"../textures/mud_wet_orm.png"},{"uri":"../textures/mud_wet_normal.png"},{"uri":"../textures/dirt_albedo.png"},{"uri":"../textures/dirt_orm.png"},{"uri":"../textures/dirt_normal.png"}],"materials":[{"doubleSided":false,"name":"cobble","normalTexture":{"extensions":{"KHR_texture_transform":{"scale":[14.420350238176347,14.420350238176347]}},"index":2,"scale":1.0},"occlusionTexture":{"extensions":{"KHR_texture_transform":{"scale":[14.420350238176347,14.420350238176347]}},"index":1},"pbrMetallicRoughness":{"baseColorFactor":[1,1,1,1],"baseColorTexture":{"extensions":{"KHR_texture_transform":{"scale":[14.420350238176347,14.420350238176347]}},"index":0},"metallicFactor":1.0,"metallicRoughnessTexture":{"extensions":{"KHR_texture_transform":{"scale":[14.420350238176347,14.420350238176347]}},"index":1},"roughnessFactor":1.0}},{"doubleSided":false,"name":"stone","normalTexture":{"extensions":{"KHR_texture_transform":{"scale":[14.420350238176347,14.420350238176347]}},"index":5,"scale":1.0},"occlusionTexture":{"extensions":{"KHR_texture_transform":{"scale":[14.420350238176347,14.420350238176347]}},"index":4},"pbrMetallicRoughness":{"baseColorFactor":[1,1,1,1],"baseColorTexture":{"extensions":{"KHR_texture_transform":{"scale":[14.420350238176347,14.420350238176347]}},"index":3},"metallicFactor":1.0,"metallicRoughnessTexture":{"extensions":{"KHR_texture_transform":{"scale":[14.420350238176347,14.420350238176347]}},"index":4},"roughnessFactor":1.0}},{"doubleSided":false,"name":"rubble","normalTexture":{"extensions":{"KHR_texture_transform":{"scale":[14.420350238176347,14.420350238176347]}},"index":8,"scale":1.0},"occlusionTexture":{"extensions":{"KHR_texture_transform":{"scale":[14.420350238176347,14.420350238176347]}},"index":7},"pbrMetallicRoughness":{"baseColorFactor":[1,1,1,1],"baseColorTexture":{"extensions":{"KHR_texture_transform":{"scale":[14.420350238176347,14.420350238176347]}},"index":6},"metallicFactor":1.0,"metallicRoughnessTexture":{"extensions":{"KHR_texture_transform":{"scale":[14.420350238176347,14.420350238176347]}},"index":7},"roughnessFactor":1.0}},{"doubleSided":true,"name":"kit","normalTexture":{"extensions":{"KHR_texture_transform":{"scale":[14.420350238176347,14.420350238176347]}},"index":11,"scale":1.0},"occlusionTexture":{"extensions":{"KHR_texture_transform":{"scale":[14.420350238176347,14.420350238176347]}},"index":10},"pbrMetallicRoughness":{"baseColorFactor":[1,1,1,1],"baseColorTexture":{"extensions":{"KHR_texture_transform":{"scale":[14.420350238176347,14.420350238176347]}},"index":9},"metallicFactor":1.0,"metallicRoughnessTexture":{"extensions":{"KHR_texture_transform":{"scale":[14.420350238176347,14.420350238176347]}},"index":10},"roughnessFactor":1.0}},{"doubleSided":false,"name":"sandstone","normalTexture":{"extensions":{"KHR_texture_transform":{"scale":[14.420350238176347,14.420350238176347]}},"index":14,"scale":1.0},"occlusionTexture":{"extensions":{"KHR_texture_transform":{"scale":[14.420350238176347,14.420350238176347]}},"index":13},"pbrMetallicRoughness":{"baseColorFactor":[1,1,1,1],"baseColorTexture":{"extensions":{"KHR_texture_transform":{"scale":[14.420350238176347,14.420350238176347]}},"index":12},"metallicFactor":1.0,"metallicRoughnessTexture":{"extensions":{"KHR_texture_transform":{"scale":[14.420350238176347,14.420350238176347]}},"index":13},"roughnessFactor":1.0}},{"doubleSided":false,"name":"ashlar_civic","normalTexture":{"extensions":{"KHR_texture_transform":{"scale":[14.420350238176347,14.420350238176347]}},"index":17,"scale":1.0},"occlusionTexture":{"extensions":{"KHR_texture_transform":{"scale":[14.420350238176347,14.420350238176347]}},"index":16},"pbrMetallicRoughness":{"baseColorFactor":[1,1,1,1],"baseColorTexture":{"extensions":{"KHR_texture_transform":{"scale":[14.420350238176347,14.420350238176347]}},"index":15},"metallicFactor":1.0,"metallicRoughnessTexture":{"extensions":{"KHR_texture_transform":{"scale":[14.420350238176347,14.420350238176347]}},"index":16},"roughnessFactor":1.0}},{"doubleSided":false,"name":"algae","normalTexture":{"extensions":{"KHR_texture_transform":{"scale":[14.420350238176347,14.420350238176347]}},"index":20,"scale":1.0},"occlusionTexture":{"extensions":{"KHR_texture_transform":{"scale":[14.420350238176347,14.420350238176347]}},"index":19},"pbrMetallicRoughness":{"baseColorFactor":[1,1,1,1],"baseColorTexture":{"extensions":{"KHR_texture_transform":{"scale":[14.420350238176347,14.420350238176347]}},"index":18},"metallicFactor":1.0,"metallicRoughnessTexture":{"extensions":{"KHR_texture_transform":{"scale":[14.420350238176347,14.420350238176347]}},"index":19},"roughnessFactor":1.0}},{"doubleSided":false,"name":"bronze","normalTexture":{"extensions":{"KHR_texture_transform":{"scale":[14.420350238176347,14.420350238176347]}},"index":23,"scale":1.0},"occlusionTexture":{"extensions":{"KHR_texture_transform":{"scale":[14.420350238176347,14.420350238176347]}},"index":22},"pbrMetallicRoughness":{"baseColorFactor":[1,1,1,1],"baseColorTexture":{"extensions":{"KHR_texture_transform":{"scale":[14.420350238176347,14.420350238176347]}},"index":21},"metallicFactor":1.0,"metallicRoughnessTexture":{"extensions":{"KHR_texture_transform":{"scale":[14.420350238176347,14.420350238176347]}},"index":22},"roughnessFactor":1.0}},{"alphaMode":"BLEND","doubleSided":true,"name":"water_fall","normalTexture":{"extensions":{"KHR_texture_transform":{"scale":[14.420350238176347,14.420350238176347]}},"index":26,"scale":1.0},"occlusionTexture":{"extensions":{"KHR_texture_transform":{"scale":[14.420350238176347,14.420350238176347]}},"index":25},"pbrMetallicRoughness":{"baseColorFactor":[1,1,1,1],"baseColorTexture":{"extensions":{"KHR_texture_transform":{"scale":[14.420350238176347,14.420350238176347]}},"index":24},"metallicFactor":1.0,"metallicRoughnessTexture":{"extensions":{"KHR_texture_transform":{"scale":[14.420350238176347,14.420350238176347]}},"index":25},"roughnessFactor":1.0}},{"alphaMode":"BLEND","doubleSided":false,"name":"water","normalTexture":{"extensions":{"KHR_texture_transform":{"scale":[14.420350238176347,14.420350238176347]}},"index":29,"scale":1.0},"occlusionTexture":{"extensions":{"KHR_texture_transform":{"scale":[14.420350238176347,14.420350238176347]}},"index":28},"pbrMetallicRoughness":{"baseColorFactor":[1,1,1,1],"baseColorTexture":{"extensions":{"KHR_texture_transform":{"scale":[14.420350238176347,14.420350238176347]}},"index":27},"metallicFactor":1.0,"metallicRoughnessTexture":{"extensions":{"KHR_texture_transform":{"scale":[14.420350238176347,14.420350238176347]}},"index":28},"roughnessFactor":1.0}},{"doubleSided":false,"name":"parchment","normalTexture":{"extensions":{"KHR_texture_transform":{"scale":[14.420350238176347,14.420350238176347]}},"index":32,"scale":1.0},"occlusionTexture":{"extensions":{"KHR_texture_transform":{"scale":[14.420350238176347,14.420350238176347]}},"index":31},"pbrMetallicRoughness":{"baseColorFactor":[1,1,1,1],"baseColorTexture":{"extensions":{"KHR_texture_transform":{"scale":[14.420350238176347,14.420350238176347]}},"index":30},"metallicFactor":1.0,"metallicRoughnessTexture":{"extensions":{"KHR_texture_transform":{"scale":[14.420350238176347,14.420350238176347]}},"index":31},"roughnessFactor":1.0}},{"doubleSided":false,"name":"wax","normalTexture":{"extensions":{"KHR_texture_transform":{"scale":[14.420350238176347,14.420350238176347]}},"index":35,"scale":1.0},"occlusionTexture":{"extensions":{"KHR_texture_transform":{"scale":[14.420350238176347,14.420350238176347]}},"index":34},"pbrMetallicRoughness":{"baseColorFactor":[1,1,1,1],"baseColorTexture":{"extensions":{"KHR_texture_transform":{"scale":[14.420350238176347,14.420350238176347]}},"index":33},"metallicFactor":1.0,"metallicRoughnessTexture":{"extensions":{"KHR_texture_transform":{"scale":[14.420350238176347,14.420350238176347]}},"index":34},"roughnessFactor":1.0}},{"doubleSided":true,"name":"foliage_flower","normalTexture":{"extensions":{"KHR_texture_transform":{"scale":[14.420350238176347,14.420350238176347]}},"index":38,"scale":1.0},"occlusionTexture":{"extensions":{"KHR_texture_transform":{"scale":[14.420350238176347,14.420350238176347]}},"index":37},"pbrMetallicRoughness":{"baseColorFactor":[1,1,1,1],"baseColorTexture":{"extensions":{"KHR_texture_transform":{"scale":[14.420350238176347,14.420350238176347]}},"index":36},"metallicFactor":1.0,"metallicRoughnessTexture":{"extensions":{"KHR_texture_transform":{"scale":[14.420350238176347,14.420350238176347]}},"index":37},"roughnessFactor":1.0}},{"doubleSided":false,"name":"flour","normalTexture":{"extensions":{"KHR_texture_transform":{"scale":[14.420350238176347,14.420350238176347]}},"index":41,"scale":1.0},"occlusionTexture":{"extensions":{"KHR_texture_transform":{"scale":[14.420350238176347,14.420350238176347]}},"index":40},"pbrMetallicRoughness":{"baseColorFactor":[1,1,1,1],"baseColorTexture":{"extensions":{"KHR_texture_transform":{"scale":[14.420350238176347,14.420350238176347]}},"index":39},"metallicFactor":1.0,"metallicRoughnessTexture":{"extensions":{"KHR_texture_transform":{"scale":[14.420350238176347,14.420350238176347]}},"index":40},"roughnessFactor":1.0}},{"doubleSided":true,"name":"foliage","normalTexture":{"extensions":{"KHR_texture_transform":{"scale":[14.420350238176347,14.420350238176347]}},"index":44,"scale":1.0},"occlusionTexture":{"extensions":{"KHR_texture_transform":{"scale":[14.420350238176347,14.420350238176347]}},"index":43},"pbrMetallicRoughness":{"baseColorFactor":[1,1,1,1],"baseColorTexture":{"extensions":{"KHR_texture_transform":{"scale":[14.420350238176347,14.420350238176347]}},"index":42},"metallicFactor":1.0,"metallicRoughnessTexture":{"extensions":{"KHR_texture_transform":{"scale":[14.420350238176347,14.420350238176347]}},"index":43},"roughnessFactor":1.0}},{"doubleSided":false,"name":"mud_wet","normalTexture":{"extensions":{"KHR_texture_transform":{"scale":[14.420350238176347,14.420350238176347]}},"index":47,"scale":1.0},"occlusionTexture":{"extensions":{"KHR_texture_transform":{"scale":[14.420350238176347,14.420350238176347]}},"index":46},"pbrMetallicRoughness":{"baseColorFactor":[1,1,1,1],"baseColorTexture":{"extensions":{"KHR_texture_transform":{"scale":[14.420350238176347,14.420350238176347]}},"index":45},"metallicFactor":1.0,"metallicRoughnessTexture":{"extensions":{"KHR_texture_transform":{"scale":[14.420350238176347,14.420350238176347]}},"index":46},"roughnessFactor":1.0}},{"doubleSided":false,"name":"dirt","normalTexture":{"extensions":{"KHR_texture_transform":{"scale":[14.420350238176347,14.420350238176347]}},"index":50,"scale":1.0},"occlusionTexture":{"extensions":{"KHR_texture_transform":{"scale":[14.420350238176347,14.420350238176347]}},"index":49},"pbrMetallicRoughness":{"baseColorFactor":[1,1,1,1],"baseColorTexture":{"extensions":{"KHR_texture_transform":{"scale":[14.420350238176347,14.420350238176347]}},"index":48},"metallicFactor":1.0,"metallicRoughnessTexture":{"extensions":{"KHR_texture_transform":{"scale":[14.420350238176347,14.420350238176347]}},"index":49},"roughnessFactor":1.0}}],"meshes":[{"name":"market_square#0_0","primitives":[{"attributes":{"NORMAL":1,"POSITION":0,"TEXCOORD_0":203},"indices":2,"material":5},{"attributes":{"NORMAL":4,"POSITION":3,"TEXCOORD_0":204},"indices":5,"material":7},{"attributes":{"NORMAL":7,"POSITION":6,"TEXCOORD_0":205},"indices":8,"material":0},{"attributes":{"NORMAL":10,"POSITION":9,"TEXCOORD_0":206},"indices":11,"material":3},{"attributes":{"NORMAL":13,"POSITION":12,"TEXCOORD_0":207},"indices":14,"material":2},{"attributes":{"NORMAL":16,"POSITION":15,"TEXCOORD_0":208},"indices":17,"material":4},{"attributes":{"NORMAL":19,"POSITION":18,"TEXCOORD_0":209},"indices":20,"material":1},{"attributes":{"COLOR_0":23,"NORMAL":22,"POSITION":21,"TEXCOORD_0":210},"indices":24,"material":9}]},{"name":"market_square#0_0$lod1","primitives":[{"attributes":{"NORMAL":26,"POSITION":25,"TEXCOORD_0":211},"indices":27,"material":5},{"attributes":{"NORMAL":29,"POSITION":28,"TEXCOORD_0":212},"indices":30,"material":0},{"attributes":{"NORMAL":32,"POSITION":31,"TEXCOORD_0":213},"indices":33,"material":2},{"attributes":{"NORMAL":35,"POSITION":34,"TEXCOORD_0":214},"indices":36,"material":4},{"attributes":{"NORMAL":38,"POSITION":37,"TEXCOORD_0":215},"indices":39,"material":1},{"attributes":{"COLOR_0":42,"NORMAL":41,"POSITION":40,"TEXCOORD_0":216},"indices":43,"material":9}]},{"name":"market_square#0_0$lod2","primitives":[{"attributes":{"NORMAL":45,"POSITION":44,"TEXCOORD_0":217},"indices":46,"material":5},{"attributes":{"NORMAL":48,"POSITION":47,"TEXCOORD_0":218},"indices":49,"material":0},{"attributes":{"COLOR_0":52,"NORMAL":51,"POSITION":50,"TEXCOORD_0":219},"indices":53,"material":4}]},{"name":"market_square#0_0$lod3","primitives":[{"attributes":{"NORMAL":55,"POSITION":54,"TEXCOORD_0":220},"indices":56,"material":0},{"attributes":{"COLOR_0":59,"NORMAL":58,"POSITION":57,"TEXCOORD_0":221},"indices":60,"material":4}]},{"name":"market_square#0_1","primitives":[{"attributes":{"NORMAL":62,"POSITION":61,"TEXCOORD_0":222},"indices":63,"material":0}]},{"name":"market_square#0_n1","primitives":[{"attributes":{"NORMAL":65,"POSITION":64,"TEXCOORD_0":223},"indices":66,"material":0},{"attributes":{"NORMAL":68,"POSITION":67,"TEXCOORD_0":224},"indices":69,"material":16},{"attributes":{"NORMAL":71,"POSITION":70,"TEXCOORD_0":225},"indices":72,"material":14},{"attributes":{"NORMAL":74,"POSITION":73,"TEXCOORD_0":226},"indices":75,"material":3},{"attributes":{"NORMAL":77,"POSITION":76,"TEXCOORD_0":227},"indices":78,"material":15},{"attributes":{"NORMAL":80,"POSITION":79,"TEXCOORD_0":228},"indices":81,"material":10},{"attributes":{"NORMAL":83,"POSITION":82,"TEXCOORD_0":229},"indices":84,"material":11}]},{"name":"market_square#0_n1$lod1","primitives":[{"attributes":{"NORMAL":86,"POSITION":85,"TEXCOORD_0":230},"indices":87,"material":0},{"attributes":{"NORMAL":89,"POSITION":88,"TEXCOORD_0":231},"indices":90,"material":16},{"attributes":{"NORMAL":92,"POSITION":91,"TEXCOORD_0":232},"indices":93,"material":3}]},{"name":"market_square#0_n1$lod2","primitives":[{"attributes":{"NORMAL":95,"POSITION":94,"TEXCOORD_0":233},"indices":96,"material":0},{"attributes":{"NORMAL":98,"POSITION":97,"TEXCOORD_0":234},"indices":99,"material":16},{"attributes":{"NORMAL":101,"POSITION":100,"TEXCOORD_0":235},"indices":102,"material":3}]},{"name":"market_square#0_n1$lod3","primitives":[{"attributes":{"NORMAL":104,"POSITION":103,"TEXCOORD_0":236},"indices":105,"material":0},{"attributes":{"NORMAL":107,"POSITION":106,"TEXCOORD_0":237},"indices":108,"material":16}]},{"name":"market_square#0_n2","primitives":[{"attributes":{"NORMAL":110,"POSITION":109,"TEXCOORD_0":238},"indices":111,"material":0}]},{"name":"market_square#n1_0","primitives":[{"attributes":{"NORMAL":113,"POSITION":112,"TEXCOORD_0":239},"indices":114,"material":0},{"attributes":{"NORMAL":116,"POSITION":115,"TEXCOORD_0":240},"indices":117,"material":13},{"attributes":{"NORMAL":119,"POSITION":118,"TEXCOORD_0":241},"indices":120,"material":12},{"attributes":{"NORMAL":122,"POSITION":121,"TEXCOORD_0":242},"indices":123,"material":3}]},{"name":"market_square#n1_0$lod1","primitives":[{"attributes":{"NORMAL":125,"POSITION":124,"TEXCOORD_0":243},"indices":126,"material":0},{"attributes":{"NORMAL":128,"POSITION":127,"TEXCOORD_0":244},"indices":129,"material":3}]},{"name":"market_square#n1_0$lod2","primitives":[{"attributes":{"NORMAL":131,"POSITION":130,"TEXCOORD_0":245},"indices":132,"material":0},{"attributes":{"NORMAL":134,"POSITION":133,"TEXCOORD_0":246},"indices":135,"material":3}]},{"name":"market_square#n1_0$lod3","primitives":[{"attributes":{"NORMAL":137,"POSITION":136,"TEXCOORD_0":247},"indices":138,"material":0},{"attributes":{"NORMAL":140,"POSITION":139,"TEXCOORD_0":248},"indices":141,"material":3}]},{"name":"market_square#n1_1","primitives":[{"attributes":{"NORMAL":143,"POSITION":142,"TEXCOORD_0":249},"indices":144,"material":0}]},{"name":"market_square#n1_n1","primitives":[{"attributes":{"NORMAL":146,"POSITION":145,"TEXCOORD_0":250},"indices":147,"material":6},{"attributes":{"NORMAL":149,"POSITION":148,"TEXCOORD_0":251},"indices":150,"material":0},{"attributes":{"NORMAL":152,"POSITION":151,"TEXCOORD_0":252},"indices":153,"material":16},{"attributes":{"NORMAL":155,"POSITION":154,"TEXCOORD_0":253},"indices":156,"material":3},{"attributes":{"NORMAL":158,"POSITION":157,"TEXCOORD_0":254},"indices":159,"material":1},{"attributes":{"COLOR_0":162,"NORMAL":161,"POSITION":160,"TEXCOORD_0":255},"indices":163,"material":9},{"attributes":{"NORMAL":165,"POSITION":164,"TEXCOORD_0":256},"indices":166,"material":8}]},{"name":"market_square#n1_n1$lod1","primitives":[{"attributes":{"COLOR_0":169,"NORMAL":168,"POSITION":167,"TEXCOORD_0":257},"indices":170,"material":0},{"attributes":{"NORMAL":172,"POSITION":171,"TEXCOORD_0":258},"indices":173,"material":16},{"attributes":{"NORMAL":175,"POSITION":174,"TEXCOORD_0":259},"indices":176,"material":3},{"attributes":{"NORMAL":178,"POSITION":177,"TEXCOORD_0":260},"indices":179,"material":1},{"attributes":{"NORMAL":181,"POSITION":180,"TEXCOORD_0":261},"indices":182,"material":8}]},{"name":"market_square#n1_n1$lod2","primitives":[{"attributes":{"COLOR_0":185,"NORMAL":184,"POSITION":183,"TEXCOORD_0":262},"indices":186,"material":0}]},{"name":"market_square#n1_n1$lod3","primitives":[{"attributes":{"COLOR_0":189,"NORMAL":188,"POSITION":187,"TEXCOORD_0":263},"indices":190,"material":0}]},{"name":"market_square#n1_n2","primitives":[{"attributes":{"NORMAL":192,"POSITION":191,"TEXCOORD_0":264},"indices":193,"material":0}]},{"name":"market_square:market_basket","primitives":[{"attributes":{"NORMAL":195,"POSITION":194,"TEXCOORD_0":265},"indices":196,"material":3}]},{"name":"market_square:market_basket$lod1","primitives":[{"attributes":{"NORMAL":198,"POSITION":197,"TEXCOORD_0":266},"indices":199,"material":3}]},{"name":"market_square:market_basket$lod2","primitives":[{"attributes":{"NORMAL":201,"POSITION":200,"TEXCOORD_0":267},"indices":202,"material":3}]}],"nodes":[{"extensions":{"MSFT_lod":{"ids":[1,2,3]}},"extras":{"MSFT_screencoverage":[1.0,0.69473,0.27789,0.0],"hm":{"cell":"0_0","cullAt":null,"interior":null,"lod":0,"max":[15.0,5.678,16.0],"min":[-4.59,0.186,-4.57],"prims":8,"tris":9114,"venue":"market_square"}},"mesh":0,"name":"market_square#0_0","scale":[9.795000076293945,2.7457261085510254,10.285209655761719],"translation":[5.204999923706055,2.931858539581299,5.714790344238281]},{"extras":{"hm":{"cell":"0_0","cullAt":null,"interior":null,"lod":1,"max":[15.0,5.678,16.0],"min":[-4.59,0.186,-4.57],"prims":6,"tris":4195,"venue":"market_square"}},"mesh":1,"name":"market_square#0_0$lod1","scale":[9.789999961853027,2.744523525238037,10.285209655761719],"translation":[5.210000038146973,2.9306559562683105,5.714790344238281]},{"extras":{"hm":{"cell":"0_0","cullAt":null,"interior":null,"lod":2,"max":[15.0,5.678,16.0],"min":[-4.59,0.186,-4.57],"prims":3,"tris":1213,"venue":"market_square"}},"mesh":2,"name":"market_square#0_0$lod2","scale":[9.669661521911621,2.732358932495117,10.23147201538086],"translation":[5.330338478088379,2.9428205490112305,5.768527984619141]},{"extras":{"hm":{"cell":"0_0","cullAt":null,"interior":null,"lod":3,"max":[15.0,5.678,16.0],"min":[-4.59,0.186,-4.57],"prims":2,"tris":224,"venue":"market_square"}},"mesh":3,"name":"market_square#0_0$lod3","scale":[9.260297775268555,2.4753494262695312,10.23147201538086],"translation":[5.739702224731445,2.6953492164611816,5.768527984619141]},{"extras":{"hm":{"cell":"0_1","cullAt":null,"interior":null,"lod":0,"max":[1.943,1.423,16.742],"min":[0.838,1.159,16.141],"prims":1,"tris":88,"venue":"market_square"}},"mesh":4,"name":"market_square#0_1","scale":[0.552625834941864,0.13229787349700928,0.30028724670410156],"translation":[1.390871524810791,1.2911312580108643,16.44151496887207]},{"extensions":{"MSFT_lod":{"ids":[6,7,8]}},"extras":{"MSFT_screencoverage":[1.0,0.59869,0.23948,0.0],"hm":{"cell":"0_n1","cullAt":null,"interior":null,"lod":0,"max":[17.0,2.722,0.024],"min":[-1.814,-0.336,-16.048],"prims":7,"tris":19207,"venue":"market_square"}},"mesh":5,"name":"market_square#0_n1","scale":[9.40709114074707,1.528722882270813,8.036246299743652],"translation":[7.5929083824157715,1.1929436922073364,-8.012076377868652]},{"extras":{"hm":{"cell":"0_n1","cullAt":null,"interior":null,"lod":1,"max":[17.0,2.722,0.024],"min":[-1.814,-0.336,-16.048],"prims":3,"tris":8872,"venue":"market_square"}},"mesh":6,"name":"market_square#0_n1$lod1","scale":[9.40677261352539,1.528722882270813,8.036246299743652],"translation":[7.593226909637451,1.1929436922073364,-8.012076377868652]},{"extras":{"hm":{"cell":"0_n1","cullAt":null,"interior":null,"lod":2,"max":[17.0,2.722,0.024],"min":[-1.814,-0.336,-16.048],"prims":3,"tris":2624,"venue":"market_square"}},"mesh":7,"name":"market_square#0_n1$lod2","scale":[9.40676498413086,1.5278898477554321,8.032500267028809],"translation":[7.593235492706299,1.1937767267227173,-8.014845848083496]},{"extras":{"hm":{"cell":"0_n1","cullAt":null,"interior":null,"lod":3,"max":[17.0,2.722,0.024],"min":[-1.814,-0.336,-16.048],"prims":2,"tris":488,"venue":"market_square"}},"mesh":8,"name":"market_square#0_n1$lod3","scale":[9.294533729553223,1.4341554641723633,8.0],"translation":[7.705466270446777,1.1247968673706055,-8.0]},{"extras":{"hm":{"cell":"0_n2","cullAt":40.0,"interior":null,"lod":0,"max":[2.977,-0.265,-16.126],"min":[2.787,-0.332,-16.332],"prims":1,"tris":44,"venue":"market_square"}},"mesh":9,"name":"market_square#0_n2","scale":[0.09528470039367676,0.033687323331832886,0.10297012329101562],"translation":[2.8818092346191406,-0.2986873984336853,-16.22935676574707]},{"extensions":{"MSFT_lod":{"ids":[11,12,13]}},"extras":{"MSFT_screencoverage":[1.0,0.60543,0.24217,0.0],"hm":{"cell":"n1_0","cullAt":null,"interior":null,"lod":0,"max":[1.52,4.25,16.0],"min":[-15.0,0.177,-2.607],"prims":4,"tris":7386,"venue":"market_square"}},"mesh":10,"name":"market_square#n1_0","scale":[8.259986877441406,2.036402702331543,9.303399085998535],"translation":[-6.7400126457214355,2.213597297668457,6.696600914001465]},{"extras":{"hm":{"cell":"n1_0","cullAt":null,"interior":null,"lod":1,"max":[1.52,4.25,16.0],"min":[-15.0,0.177,-2.607],"prims":2,"tris":3398,"venue":"market_square"}},"mesh":11,"name":"market_square#n1_0$lod1","scale":[8.241615295410156,2.026402711868286,9.296004295349121],"translation":[-6.758384704589844,2.2035973072052,6.703995227813721]},{"extras":{"hm":{"cell":"n1_0","cullAt":null,"interior":null,"lod":2,"max":[1.52,4.25,16.0],"min":[-15.0,0.177,-2.607],"prims":2,"tris":1040,"venue":"market_square"}},"mesh":12,"name":"market_square#n1_0$lod2","scale":[8.155903816223145,1.987984538078308,8.65588665008545],"translation":[-6.8440961837768555,2.1811819076538086,7.344112873077393]},{"extras":{"hm":{"cell":"n1_0","cullAt":null,"interior":null,"lod":3,"max":[1.52,4.25,16.0],"min":[-15.0,0.177,-2.607],"prims":2,"tris":184,"venue":"market_square"}},"mesh":13,"name":"market_square#n1_0$lod3","scale":[8.135248184204102,1.8426721096038818,8.640401840209961],"translation":[-6.864752292633057,2.0514395236968994,7.359598159790039]},{"extras":{"hm":{"cell":"n1_1","cullAt":40.0,"interior":null,"lod":0,"max":[-1.534,1.416,16.595],"min":[-1.752,1.349,16.395],"prims":1,"tris":44,"venue":"market_square"}},"mesh":14,"name":"market_square#n1_1","scale":[0.10934162139892578,0.03365510702133179,0.10035514831542969],"translation":[-1.6428908109664917,1.3825747966766357,16.49496841430664]},{"extensions":{"MSFT_lod":{"ids":[16,17,18]}},"extras":{"MSFT_screencoverage":[1.0,0.63667,0.25467,0.0],"hm":{"cell":"n1_n1","cullAt":null,"interior":null,"lod":0,"max":[2.093,4.07,1.981],"min":[-17.0,0.175,-16.0],"prims":7,"tris":14684,"venue":"market_square"}},"mesh":15,"name":"market_square#n1_n1","scale":[9.546385765075684,1.9475873708724976,8.990413665771484],"translation":[-7.453614234924316,2.1224122047424316,-7.009585857391357]},{"extras":{"hm":{"cell":"n1_n1","cullAt":null,"interior":null,"lod":1,"max":[2.093,4.07,1.981],"min":[-17.0,0.175,-16.0],"prims":5,"tris":6656,"venue":"market_square"}},"mesh":16,"name":"market_square#n1_n1$lod1","scale":[9.462234497070312,1.3425875902175903,8.990413665771484],"translation":[-7.537765979766846,1.517412543296814,-7.009585857391357]},{"extras":{"hm":{"cell":"n1_n1","cullAt":null,"interior":null,"lod":2,"max":[2.093,4.07,1.981],"min":[-17.0,0.175,-16.0],"prims":1,"tris":1816,"venue":"market_square"}},"mesh":17,"name":"market_square#n1_n1$lod2","scale":[9.462234497070312,1.341178059577942,8.990413665771484],"translation":[-7.537765979766846,1.5188220739364624,-7.009585857391357]},{"extras":{"hm":{"cell":"n1_n1","cullAt":null,"interior":null,"lod":3,"max":[2.093,4.07,1.981],"min":[-17.0,0.175,-16.0],"prims":1,"tris":341,"venue":"market_square"}},"mesh":18,"name":"market_square#n1_n1$lod3","scale":[9.462234497070312,1.1982362270355225,8.990413665771484],"translation":[-7.537765979766846,1.4171764850616455,-7.009585857391357]},{"extras":{"hm":{"cell":"n1_n2","cullAt":40.0,"interior":null,"lod":0,"max":[-2.947,0.255,-16.003],"min":[-3.116,0.177,-16.165],"prims":1,"tris":44,"venue":"market_square"}},"mesh":19,"name":"market_square#n1_n2","scale":[0.08438825607299805,0.038640327751636505,0.08078575134277344],"translation":[-3.0314321517944336,0.21589481830596924,-16.084083557128906]}],"samplers":[{"magFilter":9729,"minFilter":9987,"wrapS":10497,"wrapT":10497}],"scene":0,"scenes":[{"nodes":[0,4,5,9,10,14,15,19]}],"textures":[{"sampler":0,"source":0},{"sampler":0,"source":1},{"sampler":0,"source":2},{"sampler":0,"source":3},{"sampler":0,"source":4},{"sampler":0,"source":5},{"sampler":0,"source":6},{"sampler":0,"source":7},{"sampler":0,"source":8},{"sampler":0,"source":9},{"sampler":0,"source":10},{"sampler":0,"source":11},{"sampler":0,"source":12},{"sampler":0,"source":13},{"sampler":0,"source":14},{"sampler":0,"source":15},{"sampler":0,"source":16},{"sampler":0,"source":17},{"sampler":0,"source":18},{"sampler":0,"source":19},{"sampler":0,"source":20},{"sampler":0,"source":21},{"sampler":0,"source":22},{"sampler":0,"source":23},{"sampler":0,"source":24},{"sampler":0,"source":25},{"sampler":0,"source":26},{"sampler":0,"source":27},{"sampler":0,"source":28},{"sampler":0,"source":29},{"sampler":0,"source":30},{"sampler":0,"source":31},{"sampler":0,"source":32},{"sampler":0,"source":33},{"sampler":0,"source":34},{"sampler":0,"source":35},{"sampler":0,"source":36},{"sampler":0,"source":37},{"sampler":0,"source":38},{"sampler":0,"source":39},{"sampler":0,"source":40},{"sampler":0,"source":41},{"sampler":0,"source":42},{"sampler":0,"source":43},{"sampler":0,"source":44},{"sampler":0,"source":45},{"sampler":0,"source":46},{"sampler":0,"source":47},{"sampler":0,"source":48},{"sampler":0,"source":49},{"sampler":0,"source":50}]}