{"accessors":[{"bufferView":0,"componentType":5122,"count":4160,"max":[32767.0,-11854.0,27114.0],"min":[-19341.0,-24498.0,-27114.0],"normalized":true,"type":"VEC3"},{"bufferView":1,"componentType":5120,"count":4160,"normalized":true,"type":"VEC3"},{"bufferView":2,"componentType":5123,"count":5772,"type":"SCALAR"},{"bufferView":3,"componentType":5122,"count":112,"max":[25629.0,-23763.0,31726.0],"min":[-31455.0,-25674.0,-31726.0],"normalized":true,"type":"VEC3"},{"bufferView":4,"componentType":5120,"count":112,"normalized":true,"type":"VEC3"},{"bufferView":5,"componentType":5123,"count":180,"type":"SCALAR"},{"bufferView":6,"componentType":5122,"count":288,"max":[12025.0,-3106.0,24429.0],"min":[-17851.0,-8620.0,-23690.0],"normalized":true,"type":"VEC3"},{"bufferView":7,"componentType":5120,"count":288,"normalized":true,"type":"VEC3"},{"bufferView":8,"componentType":5123,"count":396,"type":"SCALAR"},{"bufferView":9,"componentType":5122,"count":67782,"max":[30927.0,32767.0,32767.0],"min":[-32767.0,-32767.0,-32767.0],"normalized":true,"type":"VEC3"},{"bufferView":10,"componentType":5120,"count":67782,"normalized":true,"type":"VEC3"},{"bufferView":11,"componentType":5125,"count":96738,"type":"SCALAR"},{"bufferView":12,"componentType":5122,"count":40,"max":[26813.0,16753.0,32631.0],"min":[-32639.0,-824.0,-32631.0],"normalized":true,"type":"VEC3"},{"bufferView":13,"componentType":5120,"count":40,"normalized":true,"type":"VEC3"},{"bufferView":14,"componentType":5123,"count":60,"type":"SCALAR"},{"bufferView":15,"componentType":5122,"count":3828,"max":[24794.0,16753.0,31103.0],"min":[-30620.0,-11854.0,-31103.0],"normalized":true,"type":"VEC3"},{"bufferView":16,"componentType":5120,"count":3828,"normalized":true,"type":"VEC3"},{"bufferView":17,"componentType":5123,"count":5628,"type":"SCALAR"},{"bufferView":18,"componentType":5122,"count":672,"max":[24681.0,-3070.0,30703.0],"min":[-30507.0,-11854.0,-30703.0],"normalized":true,"type":"VEC3"},{"bufferView":19,"componentType":5120,"count":672,"normalized":true,"type":"VEC3"},{"bufferView":20,"componentType":5123,"count":924,"type":"SCALAR"},{"bufferView":21,"componentType":5122,"count":784,"max":[26185.0,-10949.0,25967.0],"min":[-27342.0,-24131.0,-7961.0],"normalized":true,"type":"VEC3"},{"bufferView":22,"componentType":5120,"count":784,"normalized":true,"type":"VEC3"},{"bufferView":23,"componentType":5123,"count":1260,"type":"SCALAR"},{"bufferView":24,"componentType":5122,"count":10696,"max":[26443.0,-8167.0,32433.0],"min":[-32167.0,-24282.0,-32433.0],"normalized":true,"type":"VEC3"},{"bufferView":25,"componentType":5120,"count":10696,"normalized":true,"type":"VEC3"},{"bufferView":26,"componentType":5123,"count":17136,"type":"SCALAR"},{"bufferView":27,"componentType":5122,"count":56,"max":[24672.0,-13003.0,5203.0],"min":[22792.0,-16855.0,2451.0],"normalized":true,"type":"VEC3"},{"bufferView":28,"componentType":5120,"count":56,"normalized":true,"type":"VEC3"},{"bufferView":29,"componentType":5123,"count":252,"type":"SCALAR"},{"bufferView":30,"componentType":5122,"count":2862,"max":[32767.0,-11891.0,27089.0],"min":[-19312.0,-24498.0,-27089.0],"normalized":true,"type":"VEC3"},{"bufferView":31,"componentType":5120,"count":2862,"normalized":true,"type":"VEC3"},{"bufferView":32,"componentType":5123,"count":2862,"type":"SCALAR"},{"bufferView":33,"componentType":5122,"count":84,"max":[25593.0,-23815.0,31677.0],"min":[-31407.0,-25623.0,-31677.0],"normalized":true,"type":"VEC3"},{"bufferView":34,"componentType":5120,"count":84,"normalized":true,"type":"VEC3"},{"bufferView":35,"componentType":5123,"count":84,"type":"SCALAR"},{"bufferView":36,"componentType":5122,"count":43704,"max":[30931.0,32767.0,32767.0],"min":[-32767.0,-32767.0,-32767.0],"normalized":true,"type":"VEC3"},{"bufferView":37,"componentType":5120,"count":43704,"normalized":true,"type":"VEC3"},{"bufferView":38,"componentType":5123,"count":43704,"type":"SCALAR"},{"bufferView":39,"componentType":5122,"count":24,"max":[26751.0,16666.0,32639.0],"min":[-32566.0,-824.0,-32639.0],"normalized":true,"type":"VEC3"},{"bufferView":40,"componentType":5120,"count":24,"normalized":true,"type":"VEC3"},{"bufferView":41,"componentType":5123,"count":24,"type":"SCALAR"},{"bufferView":42,"componentType":5122,"count":2604,"max":[24794.0,16753.0,31089.0],"min":[-30609.0,-11827.0,-31089.0],"normalized":true,"type":"VEC3"},{"bufferView":43,"componentType":5120,"count":2604,"normalized":true,"type":"VEC3"},{"bufferView":44,"componentType":5123,"count":2604,"type":"SCALAR"},{"bufferView":45,"componentType":5122,"count":423,"max":[24672.0,-3070.0,30692.0],"min":[-30487.0,-11854.0,-30687.0],"normalized":true,"type":"VEC3"},{"bufferView":46,"componentType":5120,"count":423,"normalized":true,"type":"VEC3"},{"bufferView":47,"componentType":5123,"count":423,"type":"SCALAR"},{"bufferView":48,"componentType":5122,"count":537,"max":[26163.0,-10949.0,25954.0],"min":[-27277.0,-24131.0,-7954.0],"normalized":true,"type":"VEC3"},{"bufferView":49,"componentType":5120,"count":537,"normalized":true,"type":"VEC3"},{"bufferView":50,"componentType":5123,"count":537,"type":"SCALAR"},{"bufferView":51,"componentType":5122,"count":8127,"max":[26455.0,-8167.0,32440.0],"min":[-32168.0,-24282.0,-32440.0],"normalized":true,"type":"VEC3"},{"bufferView":52,"componentType":5120,"count":8127,"normalized":true,"type":"VEC3"},{"bufferView":53,"componentType":5123,"count":8127,"type":"SCALAR"},{"bufferView":54,"componentType":5122,"count":36,"max":[25605.0,-23879.0,31767.0],"min":[-31384.0,-25650.0,-31770.0],"normalized":true,"type":"VEC3"},{"bufferView":55,"componentType":5120,"count":36,"normalized":true,"type":"VEC3"},{"bufferView":56,"componentType":5123,"count":36,"type":"SCALAR"},{"bufferView":57,"componentType":5122,"count":16656,"max":[32767.0,32767.0,32767.0],"min":[-32767.0,-32767.0,-32767.0],"normalized":true,"type":"VEC3"},{"bufferView":58,"componentType":5120,"count":16656,"normalized":true,"type":"VEC3"},{"bufferView":59,"componentType":5123,"count":16656,"type":"SCALAR"},{"bufferView":60,"componentType":5122,"count":807,"max":[24565.0,16193.0,31145.0],"min":[-30336.0,-11818.0,-31145.0],"normalized":true,"type":"VEC3"},{"bufferView":61,"componentType":5120,"count":807,"normalized":true,"type":"VEC3"},{"bufferView":62,"componentType":5123,"count":807,"type":"SCALAR"},{"bufferView":63,"componentType":5122,"count":36,"max":[25595.0,-23879.0,31777.0],"min":[-31474.0,-25650.0,-31781.0],"normalized":true,"type":"VEC3"},{"bufferView":64,"componentType":5120,"count":36,"normalized":true,"type":"VEC3"},{"bufferView":65,"componentType":5123,"count":36,"type":"SCALAR"},{"bufferView":66,"componentType":5122,"count":2976,"max":[32767.0,32767.0,32767.0],"min":[-32767.0,-32767.0,-32767.0],"normalized":true,"type":"VEC3"},{"bufferView":67,"componentType":5120,"count":2976,"normalized":true,"type":"VEC3"},{"bufferView":68,"componentType":5123,"count":2976,"type":"SCALAR"},{"bufferView":69,"componentType":5122,"count":192,"max":[17110.0,31861.0,4438.0],"min":[16398.0,23682.0,2716.0],"normalized":true,"type":"VEC3"},{"bufferView":70,"componentType":5120,"count":192,"normalized":true,"type":"VEC3"},{"bufferView":71,"componentType":5123,"count":294,"type":"SCALAR"},{"bufferView":72,"componentType":5122,"count":576,"max":[19981.0,32767.0,32767.0],"min":[-32767.0,18537.0,-27461.0],"normalized":true,"type":"VEC3"},{"bufferView":73,"componentType":5120,"count":576,"normalized":true,"type":"VEC3"},{"bufferView":74,"componentType":5123,"count":792,"type":"SCALAR"},{"bufferView":75,"componentType":5122,"count":14332,"max":[30366.0,31344.0,22902.0],"min":[-14134.0,-32767.0,-32767.0],"normalized":true,"type":"VEC3"},{"bufferView":76,"componentType":5120,"count":14332,"normalized":true,"type":"VEC3"},{"bufferView":77,"componentType":5123,"count":21930,"type":"SCALAR"},{"bufferView":78,"componentType":5122,"count":1512,"max":[32452.0,-27131.0,-2897.0],"min":[26785.0,-27175.0,-12048.0],"normalized":true,"type":"VEC3"},{"bufferView":79,"componentType":5120,"count":1512,"normalized":true,"type":"VEC3"},{"bufferView":80,"componentType":5123,"count":2508,"type":"SCALAR"},{"bufferView":81,"componentType":5122,"count":182,"max":[243.0,-22238.0,117.0],"min":[-7732.0,-27328.0,-12806.0],"normalized":true,"type":"VEC3"},{"bufferView":82,"componentType":5120,"count":182,"normalized":true,"type":"VEC3"},{"bufferView":83,"componentType":5123,"count":288,"type":"SCALAR"},{"bufferView":84,"componentType":5122,"count":1568,"max":[10537.0,-17867.0,5440.0],"min":[-16109.0,-20432.0,-31170.0],"normalized":true,"type":"VEC3"},{"bufferView":85,"componentType":5120,"count":1568,"normalized":true,"type":"VEC3"},{"bufferView":86,"componentType":5123,"count":2352,"type":"SCALAR"},{"bufferView":87,"componentType":5122,"count":360,"max":[32767.0,-25829.0,-3667.0],"min":[26788.0,-27233.0,-12060.0],"normalized":true,"type":"VEC3"},{"bufferView":88,"componentType":5120,"count":360,"normalized":true,"type":"VEC3"},{"bufferView":89,"componentType":5123,"count":480,"type":"SCALAR"},{"bufferView":90,"componentType":5122,"count":723,"max":[32767.0,32767.0,32767.0],"min":[-32767.0,-27259.0,-27461.0],"normalized":true,"type":"VEC3"},{"bufferView":91,"componentType":5120,"count":723,"normalized":true,"type":"VEC3"},{"bufferView":92,"componentType":5123,"count":723,"type":"SCALAR"},{"bufferView":93,"componentType":5122,"count":10554,"max":[30338.0,31365.0,22902.0],"min":[-14135.0,-32767.0,-32767.0],"normalized":true,"type":"VEC3"},{"bufferView":94,"componentType":5120,"count":10554,"normalized":true,"type":"VEC3"},{"bufferView":95,"componentType":5123,"count":10554,"type":"SCALAR"},{"bufferView":96,"componentType":5122,"count":1080,"max":[32456.0,-27158.0,-2903.0],"min":[26789.0,-27202.0,-12042.0],"normalized":true,"type":"VEC3"},{"bufferView":97,"componentType":5120,"count":1080,"normalized":true,"type":"VEC3"},{"bufferView":98,"componentType":5123,"count":1080,"type":"SCALAR"},{"bufferView":99,"componentType":5122,"count":132,"max":[245.0,-22261.0,117.0],"min":[-7732.0,-27355.0,-12806.0],"normalized":true,"type":"VEC3"},{"bufferView":100,"componentType":5120,"count":132,"normalized":true,"type":"VEC3"},{"bufferView":101,"componentType":5123,"count":132,"type":"SCALAR"},{"bufferView":102,"componentType":5122,"count":1098,"max":[10540.0,-17887.0,5366.0],"min":[-16110.0,-20454.0,-31155.0],"normalized":true,"type":"VEC3"},{"bufferView":103,"componentType":5120,"count":1098,"normalized":true,"type":"VEC3"},{"bufferView":104,"componentType":5123,"count":1098,"type":"SCALAR"},{"bufferView":105,"componentType":5122,"count":843,"max":[32767.0,32767.0,32767.0],"min":[-32767.0,-27388.0,-31435.0],"normalized":true,"type":"VEC3"},{"bufferView":106,"componentType":5120,"count":843,"normalized":true,"type":"VEC3"},{"bufferView":107,"componentType":5123,"count":843,"type":"SCALAR"},{"bufferView":108,"componentType":5122,"count":3051,"max":[30590.0,31307.0,22783.0],"min":[-13944.0,-32767.0,-32767.0],"normalized":true,"type":"VEC3"},{"bufferView":109,"componentType":5120,"count":3051,"normalized":true,"type":"VEC3"},{"bufferView":110,"componentType":5123,"count":3051,"type":"SCALAR"},{"bufferView":111,"componentType":5122,"count":36,"max":[403.0,-23977.0,-1106.0],"min":[-7537.0,-27497.0,-11129.0],"normalized":true,"type":"VEC3"},{"bufferView":112,"componentType":5120,"count":36,"normalized":true,"type":"VEC3"},{"bufferView":113,"componentType":5123,"count":36,"type":"SCALAR"},{"bufferView":114,"componentType":5122,"count":177,"max":[32767.0,32767.0,32767.0],"min":[-32767.0,-27638.0,-32767.0],"normalized":true,"type":"VEC3"},{"bufferView":115,"componentType":5120,"count":177,"normalized":true,"type":"VEC3"},{"bufferView":116,"componentType":5123,"count":177,"type":"SCALAR"},{"bufferView":117,"componentType":5122,"count":549,"max":[30854.0,31246.0,21671.0],"min":[-13399.0,-32767.0,-25907.0],"normalized":true,"type":"VEC3"},{"bufferView":118,"componentType":5120,"count":549,"normalized":true,"type":"VEC3"},{"bufferView":119,"componentType":5123,"count":549,"type":"SCALAR"},{"bufferView":120,"componentType":5122,"count":662,"max":[26295.0,24333.0,32767.0],"min":[1532.0,-27944.0,18574.0],"normalized":true,"type":"VEC3"},{"bufferView":121,"componentType":5120,"count":662,"normalized":true,"type":"VEC3"},{"bufferView":122,"componentType":5123,"count":1008,"type":"SCALAR"},{"bufferView":123,"componentType":5122,"count":966,"max":[32767.0,32767.0,32596.0],"min":[-6401.0,-29313.0,-32767.0],"normalized":true,"type":"VEC3"},{"bufferView":124,"componentType":5120,"count":966,"normalized":true,"type":"VEC3"},{"bufferView":125,"componentType":5123,"count":1530,"type":"SCALAR"},{"bufferView":126,"componentType":5122,"count":112,"max":[-15870.0,-27905.0,12667.0],"min":[-32767.0,-32767.0,-13490.0],"normalized":true,"type":"VEC3"},{"bufferView":127,"componentType":5120,"count":112,"normalized":true,"type":"VEC3"},{"bufferView":128,"componentType":5123,"count":180,"type":"SCALAR"},{"bufferView":129,"componentType":5122,"count":492,"max":[26101.0,24333.0,32767.0],"min":[1519.0,-27944.0,18601.0],"normalized":true,"type":"VEC3"},{"bufferView":130,"componentType":5120,"count":492,"normalized":true,"type":"VEC3"},{"bufferView":131,"componentType":5123,"count":492,"type":"SCALAR"},{"bufferView":132,"componentType":5122,"count":687,"max":[32767.0,32767.0,32638.0],"min":[-6381.0,-29310.0,-32767.0],"normalized":true,"type":"VEC3"},{"bufferView":133,"componentType":5120,"count":687,"normalized":true,"type":"VEC3"},{"bufferView":134,"componentType":5123,"count":687,"type":"SCALAR"},{"bufferView":135,"componentType":5122,"count":87,"max":[-15947.0,-27905.0,12686.0],"min":[-32767.0,-32767.0,-13387.0],"normalized":true,"type":"VEC3"},{"bufferView":136,"componentType":5120,"count":87,"normalized":true,"type":"VEC3"},{"bufferView":137,"componentType":5123,"count":87,"type":"SCALAR"},{"bufferView":138,"componentType":5122,"count":345,"max":[32767.0,32767.0,32767.0],"min":[-7075.0,-30983.0,-32767.0],"normalized":true,"type":"VEC3"},{"bufferView":139,"componentType":5120,"count":345,"normalized":true,"type":"VEC3"},{"bufferView":140,"componentType":5123,"count":345,"type":"SCALAR"},{"bufferView":141,"componentType":5122,"count":18,"max":[-16927.0,-29607.0,12147.0],"min":[-32767.0,-32767.0,-13340.0],"normalized":true,"type":"VEC3"},{"bufferView":142,"componentType":5120,"count":18,"normalized":true,"type":"VEC3"},{"bufferView":143,"componentType":5123,"count":18,"type":"SCALAR"},{"bufferView":144,"componentType":5122,"count":63,"max":[32767.0,32767.0,32767.0],"min":[-2505.0,-27946.0,1802.0],"normalized":true,"type":"VEC3"},{"bufferView":145,"componentType":5120,"count":63,"normalized":true,"type":"VEC3"},{"bufferView":146,"componentType":5123,"count":63,"type":"SCALAR"},{"bufferView":147,"componentType":5122,"count":18,"max":[-14110.0,-29607.0,3842.0],"min":[-32767.0,-32767.0,-32767.0],"normalized":true,"type":"VEC3"},{"bufferView":148,"componentType":5120,"count":18,"normalized":true,"type":"VEC3"},{"bufferView":149,"componentType":5123,"count":18,"type":"SCALAR"},{"bufferView":150,"componentType":5122,"count":1128,"max":[167.0,-27537.0,-16217.0],"min":[-2740.0,-32767.0,-19220.0],"normalized":true,"type":"VEC3"},{"bufferView":151,"componentType":5120,"count":1128,"normalized":true,"type":"VEC3"},{"bufferView":152,"componentType":5123,"count":1710,"type":"SCALAR"},{"bufferView":153,"componentType":5122,"count":688,"max":[32767.0,32767.0,32767.0],"min":[-32767.0,4445.0,-32767.0],"normalized":true,"type":"VEC3"},{"bufferView":154,"componentType":5120,"count":688,"normalized":true,"type":"VEC3"},{"bufferView":155,"componentType":5121,"count":688,"normalized":true,"type":"VEC4"},{"bufferView":156,"componentType":5123,"count":1032,"type":"SCALAR"},{"bufferView":157,"componentType":5122,"count":1317,"max":[32767.0,32767.0,32767.0],"min":[-32767.0,-32767.0,-32767.0],"normalized":true,"type":"VEC3"},{"bufferView":158,"componentType":5120,"count":1317,"normalized":true,"type":"VEC3"},{"bufferView":159,"componentType":5121,"count":1317,"normalized":true,"type":"VEC4"},{"bufferView":160,"componentType":5123,"count":1317,"type":"SCALAR"},{"bufferView":161,"componentType":5122,"count":402,"max":[32767.0,32767.0,32767.0],"min":[-32767.0,-32767.0,-32767.0],"normalized":true,"type":"VEC3"},{"bufferView":162,"componentType":5120,"count":402,"normalized":true,"type":"VEC3"},{"bufferView":163,"componentType":5121,"count":402,"normalized":true,"type":"VEC4"},{"bufferView":164,"componentType":5123,"count":402,"type":"SCALAR"},{"bufferView":165,"componentType":5122,"count":72,"max":[32767.0,32767.0,32767.0],"min":[-32767.0,-32767.0,-32767.0],"normalized":true,"type":"VEC3"},{"bufferView":166,"componentType":5120,"count":72,"normalized":true,"type":"VEC3"},{"bufferView":167,"componentType":5121,"count":72,"normalized":true,"type":"VEC4"},{"bufferView":168,"componentType":5123,"count":72,"type":"SCALAR"},{"bufferView":169,"componentType":5122,"count":4160,"normalized":true,"type":"VEC2"},{"bufferView":170,"componentType":5122,"count":112,"normalized":true,"type":"VEC2"},{"bufferView":171,"componentType":5122,"count":288,"normalized":true,"type":"VEC2"},{"bufferView":172,"componentType":5122,"count":67782,"normalized":true,"type":"VEC2"},{"bufferView":173,"componentType":5122,"count":40,"normalized":true,"type":"VEC2"},{"bufferView":174,"componentType":5122,"count":3828,"normalized":true,"type":"VEC2"},{"bufferView":175,"componentType":5122,"count":672,"normalized":true,"type":"VEC2"},{"bufferView":176,"componentType":5122,"count":784,"normalized":true,"type":"VEC2"},{"bufferView":177,"componentType":5122,"count":10696,"normalized":true,"type":"VEC2"},{"bufferView":178,"componentType":5122,"count":56,"normalized":true,"type":"VEC2"},{"bufferView":179,"componentType":5122,"count":2862,"normalized":true,"type":"VEC2"},{"bufferView":180,"componentType":5122,"count":84,"normalized":true,"type":"VEC2"},{"bufferView":181,"componentType":5122,"count":43704,"normalized":true,"type":"VEC2"},{"bufferView":182,"componentType":5122,"count":24,"normalized":true,"type":"VEC2"},{"bufferView":183,"componentType":5122,"count":2604,"normalized":true,"type":"VEC2"},{"bufferView":184,"componentType":5122,"count":423,"normalized":true,"type":"VEC2"},{"bufferView":185,"componentType":5122,"count":537,"normalized":true,"type":"VEC2"},{"bufferView":186,"componentType":5122,"count":8127,"normalized":true,"type":"VEC2"},{"bufferView":187,"componentType":5122,"count":36,"normalized":true,"type":"VEC2"},{"bufferView":188,"componentType":5122,"count":16656,"normalized":true,"type":"VEC2"},{"bufferView":189,"componentType":5122,"count":807,"normalized":true,"type":"VEC2"},{"bufferView":190,"componentType":5122,"count":36,"normalized":true,"type":"VEC2"},{"bufferView":191,"componentType":5122,"count":2976,"normalized":true,"type":"VEC2"},{"bufferView":192,"componentType":5122,"count":192,"normalized":true,"type":"VEC2"},{"bufferView":193,"componentType":5122,"count":576,"normalized":true,"type":"VEC2"},{"bufferView":194,"componentType":5122,"count":14332,"normalized":true,"type":"VEC2"},{"bufferView":195,"componentType":5122,"count":1512,"normalized":true,"type":"VEC2"},{"bufferView":196,"componentType":5122,"count":182,"normalized":true,"type":"VEC2"},{"bufferView":197,"componentType":5122,"count":1568,"normalized":true,"type":"VEC2"},{"bufferView":198,"componentType":5122,"count":360,"normalized":true,"type":"VEC2"},{"bufferView":199,"componentType":5122,"count":723,"normalized":true,"type":"VEC2"},{"bufferView":200,"componentType":5122,"count":10554,"normalized":true,"type":"VEC2"},{"bufferView":201,"componentType":5122,"count":1080,"normalized":true,"type":"VEC2"},{"bufferView":202,"componentType":5122,"count":132,"normalized":true,"type":"VEC2"},{"bufferView":203,"componentType":5122,"count":1098,"normalized":true,"type":"VEC2"},{"bufferView":204,"componentType":5122,"count":843,"normalized":true,"type":"VEC2"},{"bufferView":205,"componentType":5122,"count":3051,"normalized":true,"type":"VEC2"},{"bufferView":206,"componentType":5122,"count":36,"normalized":true,"type":"VEC2"},{"bufferView":207,"componentType":5122,"count":177,"normalized":true,"type":"VEC2"},{"bufferView":208,"componentType":5122,"count":549,"normalized":true,"type":"VEC2"},{"bufferView":209,"componentType":5122,"count":662,"normalized":true,"type":"VEC2"},{"bufferView":210,"componentType":5122,"count":966,"normalized":true,"type":"VEC2"},{"bufferView":211,"componentType":5122,"count":112,"normalized":true,"type":"VEC2"},{"bufferView":212,"componentType":5122,"count":492,"normalized":true,"type":"VEC2"},{"bufferView":213,"componentType":5122,"count":687,"normalized":true,"type":"VEC2"},{"bufferView":214,"componentType":5122,"count":87,"normalized":true,"type":"VEC2"},{"bufferView":215,"componentType":5122,"count":345,"normalized":true,"type":"VEC2"},{"bufferView":216,"componentType":5122,"count":18,"normalized":true,"type":"VEC2"},{"bufferView":217,"componentType":5122,"count":63,"normalized":true,"type":"VEC2"},{"bufferView":218,"componentType":5122,"count":18,"normalized":true,"type":"VEC2"},{"bufferView":219,"componentType":5122,"count":1128,"normalized":true,"type":"VEC2"},{"bufferView":220,"componentType":5122,"count":688,"normalized":true,"type":"VEC2"},{"bufferView":221,"componentType":5122,"count":1317,"normalized":true,"type":"VEC2"},{"bufferView":222,"componentType":5122,"count":402,"normalized":true,"type":"VEC2"},{"bufferView":223,"componentType":5122,"count":72,"normalized":true,"type":"VEC2"}],"asset":{"generator":"evermore assetgen","version":"2.0"},"bufferViews":[{"buffer":0,"byteLength":33280,"byteOffset":0,"byteStride":8,"target":34962},{"buffer":0,"byteLength":16640,"byteOffset":33280,"byteStride":4,"target":34962},{"buffer":0,"byteLength":11544,"byteOffset":49920,"target":34963},{"buffer":0,"byteLength":896,"byteOffset":61464,"byteStride":8,"target":34962},{"buffer":0,"byteLength":448,"byteOffset":62360,"byteStride":4,"target":34962},{"buffer":0,"byteLength":360,"byteOffset":62808,"target":34963},{"buffer":0,"byteLength":2304,"byteOffset":63168,"byteStride":8,"target":34962},{"buffer":0,"byteLength":1152,"byteOffset":65472,"byteStride":4,"target":34962},{"buffer":0,"byteLength":792,"byteOffset":66624,"target":34963},{"buffer":0,"byteLength":542256,"byteOffset":67416,"byteStride":8,"target":34962},{"buffer":0,"byteLength":271128,"byteOffset":609672,"byteStride":4,"target":34962},{"buffer":0,"byteLength":386952,"byteOffset":880800,"target":34963},{"buffer":0,"byteLength":320,"byteOffset":1267752,"byteStride":8,"target":34962},{"buffer":0,"byteLength":160,"byteOffset":1268072,"byteStride":4,"target":34962},{"buffer":0,"byteLength":120,"byteOffset":1268232,"target":34963},{"buffer":0,"byteLength":30624,"byteOffset":1268352,"byteStride":8,"target":34962},{"buffer":0,"byteLength":15312,"byteOffset":1298976,"byteStride":4,"target":34962},{"buffer":0,"byteLength":11256,"byteOffset":1314288,"target":34963},{"buffer":0,"byteLength":5376,"byteOffset":1325544,"byteStride":8,"target":34962},{"buffer":0,"byteLength":2688,"byteOffset":1330920,"byteStride":4,"target":34962},{"buffer":0,"byteLength":1848,"byteOffset":1333608,"target":34963},{"buffer":0,"byteLength":6272,"byteOffset":1335456,"byteStride":8,"target":34962},{"buffer":0,"byteLength":3136,"byteOffset":1341728,"byteStride":4,"target":34962},{"buffer":0,"byteLength":2520,"byteOffset":1344864,"target":34963},{"buffer":0,"byteLength":85568,"byteOffset":1347384,"byteStride":8,"target":34962},{"buffer":0,"byteLength":42784,"byteOffset":1432952,"byteStride":4,"target":34962},{"buffer":0,"byteLength":34272,"byteOffset":1475736,"target":34963},{"buffer":0,"byteLength":448,"byteOffset":1510008,"byteStride":8,"target":34962},{"buffer":0,"byteLength":224,"byteOffset":1510456,"byteStride":4,"target":34962},{"buffer":0,"byteLength":504,"byteOffset":1510680,"target":34963},{"buffer":0,"byteLength":22896,"byteOffset":1511184,"byteStride":8,"target":34962},{"buffer":0,"byteLength":11448,"byteOffset":1534080,"byteStride":4,"target":34962},{"buffer":0,"byteLength":5724,"byteOffset":1545528,"target":34963},{"buffer":0,"byteLength":672,"byteOffset":1551252,"byteStride":8,"target":34962},{"buffer":0,"byteLength":336,"byteOffset":1551924,"byteStride":4,"target":34962},{"buffer":0,"byteLength":168,"byteOffset":1552260,"target":34963},{"buffer":0,"byteLength":349632,"byteOffset":1552428,"byteStride":8,"target":34962},{"buffer":0,"byteLength":174816,"byteOffset":1902060,"byteStride":4,"target":34962},{"buffer":0,"byteLength":87408,"byteOffset":2076876,"target":34963},{"buffer":0,"byteLength":192,"byteOffset":2164284,"byteStride":8,"target":34962},{"buffer":0,"byteLength":96,"byteOffset":2164476,"byteStride":4,"target":34962},{"buffer":0,"byteLength":48,"byteOffset":2164572,"target":34963},{"buffer":0,"byteLength":20832,"byteOffset":2164620,"byteStride":8,"target":34962},{"buffer":0,"byteLength":10416,"byteOffset":2185452,"byteStride":4,"target":34962},{"buffer":0,"byteLength":5208,"byteOffset":2195868,"target":34963},{"buffer":0,"byteLength":3384,"byteOffset":2201076,"byteStride":8,"target":34962},{"buffer":0,"byteLength":1692,"byteOffset":2204460,"byteStride":4,"target":34962},{"buffer":0,"byteLength":846,"byteOffset":2206152,"target":34963},{"buffer":0,"byteLength":4296,"byteOffset":2207000,"byteStride":8,"target":34962},{"buffer":0,"byteLength":2148,"byteOffset":2211296,"byteStride":4,"target":34962},{"buffer":0,"byteLength":1074,"byteOffset":2213444,"target":34963},{"buffer":0,"byteLength":65016,"byteOffset":2214520,"byteStride":8,"target":34962},{"buffer":0,"byteLength":32508,"byteOffset":2279536,"byteStride":4,"target":34962},{"buffer":0,"byteLength":16254,"byteOffset":2312044,"target":34963},{"buffer":0,"byteLength":288,"byteOffset":2328300,"byteStride":8,"target":34962},{"buffer":0,"byteLength":144,"byteOffset":2328588,"byteStride":4,"target":34962},{"buffer":0,"byteLength":72,"byteOffset":2328732,"target":34963},{"buffer":0,"byteLength":133248,"byteOffset":2328804,"byteStride":8,"target":34962},{"buffer":0,"byteLength":66624,"byteOffset":2462052,"byteStride":4,"target":34962},{"buffer":0,"byteLength":33312,"byteOffset":2528676,"target":34963},{"buffer":0,"byteLength":6456,"byteOffset":2561988,"byteStride":8,"target":34962},{"buffer":0,"byteLength":3228,"byteOffset":2568444,"byteStride":4,"target":34962},{"buffer":0,"byteLength":1614,"byteOffset":2571672,"target":34963},{"buffer":0,"byteLength":288,"byteOffset":2573288,"byteStride":8,"target":34962},{"buffer":0,"byteLength":144,"byteOffset":2573576,"byteStride":4,"target":34962},{"buffer":0,"byteLength":72,"byteOffset":2573720,"target":34963},{"buffer":0,"byteLength":23808,"byteOffset":2573792,"byteStride":8,"target":34962},{"buffer":0,"byteLength":11904,"byteOffset":2597600,"byteStride":4,"target":34962},{"buffer":0,"byteLength":5952,"byteOffset":2609504,"target":34963},{"buffer":0,"byteLength":1536,"byteOffset":2615456,"byteStride":8,"target":34962},{"buffer":0,"byteLength":768,"byteOffset":2616992,"byteStride":4,"target":34962},{"buffer":0,"byteLength":588,"byteOffset":2617760,"target":34963},{"buffer":0,"byteLength":4608,"byteOffset":2618348,"byteStride":8,"target":34962},{"buffer":0,"byteLength":2304,"byteOffset":2622956,"byteStride":4,"target":34962},{"buffer":0,"byteLength":1584,"byteOffset":2625260,"target":34963},{"buffer":0,"byteLength":114656,"byteOffset":2626844,"byteStride":8,"target":34962},{"buffer":0,"byteLength":57328,"byteOffset":2741500,"byteStride":4,"target":34962},{"buffer":0,"byteLength":43860,"byteOffset":2798828,"target":34963},{"buffer":0,"byteLength":12096,"byteOffset":2842688,"byteStride":8,"target":34962},{"buffer":0,"byteLength":6048,"byteOffset":2854784,"byteStride":4,"target":34962},{"buffer":0,"byteLength":5016,"byteOffset":2860832,"target":34963},{"buffer":0,"byteLength":1456,"byteOffset":2865848,"byteStride":8,"target":34962},{"buffer":0,"byteLength":728,"byteOffset":2867304,"byteStride":4,"target":34962},{"buffer":0,"byteLength":576,"byteOffset":2868032,"target":34963},{"buffer":0,"byteLength":12544,"byteOffset":2868608,"byteStride":8,"target":34962},{"buffer":0,"byteLength":6272,"byteOffset":2881152,"byteStride":4,"target":34962},{"buffer":0,"byteLength":4704,"byteOffset":2887424,"target":34963},{"buffer":0,"byteLength":2880,"byteOffset":2892128,"byteStride":8,"target":34962},{"buffer":0,"byteLength":1440,"byteOffset":2895008,"byteStride":4,"target":34962},{"buffer":0,"byteLength":960,"byteOffset":2896448,"target":34963},{"buffer":0,"byteLength":5784,"byteOffset":2897408,"byteStride":8,"target":34962},{"buffer":0,"byteLength":2892,"byteOffset":2903192,"byteStride":4,"target":34962},{"buffer":0,"byteLength":1446,"byteOffset":2906084,"target":34963},{"buffer":0,"byteLength":84432,"byteOffset":2907532,"byteStride":8,"target":34962},{"buffer":0,"byteLength":42216,"byteOffset":2991964,"byteStride":4,"target":34962},{"buffer":0,"byteLength":21108,"byteOffset":3034180,"target":34963},{"buffer":0,"byteLength":8640,"byteOffset":3055288,"byteStride":8,"target":34962},{"buffer":0,"byteLength":4320,"byteOffset":3063928,"byteStride":4,"target":34962},{"buffer":0,"byteLength":2160,"byteOffset":3068248,"target":34963},{"buffer":0,"byteLength":1056,"byteOffset":3070408,"byteStride":8,"target":34962},{"buffer":0,"byteLength":528,"byteOffset":3071464,"byteStride":4,"target":34962},{"buffer":0,"byteLength":264,"byteOffset":3071992,"target":34963},{"buffer":0,"byteLength":8784,"byteOffset":3072256,"byteStride":8,"target":34962},{"buffer":0,"byteLength":4392,"byteOffset":3081040,"byteStride":4,"target":34962},{"buffer":0,"byteLength":2196,"byteOffset":3085432,"target":34963},{"buffer":0,"byteLength":6744,"byteOffset":3087628,"byteStride":8,"target":34962},{"buffer":0,"byteLength":3372,"byteOffset":3094372,"byteStride":4,"target":34962},{"buffer":0,"byteLength":1686,"byteOffset":3097744,"target":34963},{"buffer":0,"byteLength":24408,"byteOffset":3099432,"byteStride":8,"target":34962},{"buffer":0,"byteLength":12204,"byteOffset":3123840,"byteStride":4,"target":34962},{"buffer":0,"byteLength":6102,"byteOffset":3136044,"target":34963},{"buffer":0,"byteLength":288,"byteOffset":3142148,"byteStride":8,"target":34962},{"buffer":0,"byteLength":144,"byteOffset":3142436,"byteStride":4,"target":34962},{"buffer":0,"byteLength":72,"byteOffset":3142580,"target":34963},{"buffer":0,"byteLength":1416,"byteOffset":3142652,"byteStride":8,"target":34962},{"buffer":0,"byteLength":708,"byteOffset":3144068,"byteStride":4,"target":34962},{"buffer":0,"byteLength":354,"byteOffset":3144776,"target":34963},{"buffer":0,"byteLength":4392,"byteOffset":3145132,"byteStride":8,"target":34962},{"buffer":0,"byteLength":2196,"byteOffset":3149524,"byteStride":4,"target":34962},{"buffer":0,"byteLength":1098,"byteOffset":3151720,"target":34963},{"buffer":0,"byteLength":5296,"byteOffset":3152820,"byteStride":8,"target":34962},{"buffer":0,"byteLength":2648,"byteOffset":3158116,"byteStride":4,"target":34962},{"buffer":0,"byteLength":2016,"byteOffset":3160764,"target":34963},{"buffer":0,"byteLength":7728,"byteOffset":3162780,"byteStride":8,"target":34962},{"buffer":0,"byteLength":3864,"byteOffset":3170508,"byteStride":4,"target":34962},{"buffer":0,"byteLength":3060,"byteOffset":3174372,"target":34963},{"buffer":0,"byteLength":896,"byteOffset":3177432,"byteStride":8,"target":34962},{"buffer":0,"byteLength":448,"byteOffset":3178328,"byteStride":4,"target":34962},{"buffer":0,"byteLength":360,"byteOffset":3178776,"target":34963},{"buffer":0,"byteLength":3936,"byteOffset":3179136,"byteStride":8,"target":34962},{"buffer":0,"byteLength":1968,"byteOffset":3183072,"byteStride":4,"target":34962},{"buffer":0,"byteLength":984,"byteOffset":3185040,"target":34963},{"buffer":0,"byteLength":5496,"byteOffset":3186024,"byteStride":8,"target":34962},{"buffer":0,"byteLength":2748,"byteOffset":3191520,"byteStride":4,"target":34962},{"buffer":0,"byteLength":1374,"byteOffset":3194268,"target":34963},{"buffer":0,"byteLength":696,"byteOffset":3195644,"byteStride":8,"target":34962},{"buffer":0,"byteLength":348,"byteOffset":3196340,"byteStride":4,"target":34962},{"buffer":0,"byteLength":174,"byteOffset":3196688,"target":34963},{"buffer":0,"byteLength":2760,"byteOffset":3196864,"byteStride":8,"target":34962},{"buffer":0,"byteLength":1380,"byteOffset":3199624,"byteStride":4,"target":34962},{"buffer":0,"byteLength":690,"byteOffset":3201004,"target":34963},{"buffer":0,"byteLength":144,"byteOffset":3201696,"byteStride":8,"target":34962},{"buffer":0,"byteLength":72,"byteOffset":3201840,"byteStride":4,"target":34962},{"buffer":0,"byteLength":36,"byteOffset":3201912,"target":34963},{"buffer":0,"byteLength":504,"byteOffset":3201948,"byteStride":8,"target":34962},{"buffer":0,"byteLength":252,"byteOffset":3202452,"byteStride":4,"target":34962},{"buffer":0,"byteLength":126,"byteOffset":3202704,"target":34963},{"buffer":0,"byteLength":144,"byteOffset":3202832,"byteStride":8,"target":34962},{"buffer":0,"byteLength":72,"byteOffset":3202976,"byteStride":4,"target":34962},{"buffer":0,"byteLength":36,"byteOffset":3203048,"target":34963},{"buffer":0,"byteLength":9024,"byteOffset":3203084,"byteStride":8,"target":34962},{"buffer":0,"byteLength":4512,"byteOffset":3212108,"byteStride":4,"target":34962},{"buffer":0,"byteLength":3420,"byteOffset":3216620,"target":34963},{"buffer":0,"byteLength":5504,"byteOffset":3220040,"byteStride":8,"target":34962},{"buffer":0,"byteLength":2752,"byteOffset":3225544,"byteStride":4,"target":34962},{"buffer":0,"byteLength":2752,"byteOffset":3228296,"byteStride":4,"target":34962},{"buffer":0,"byteLength":2064,"byteOffset":3231048,"target":34963},{"buffer":0,"byteLength":10536,"byteOffset":3233112,"byteStride":8,"target":34962},{"buffer":0,"byteLength":5268,"byteOffset":3243648,"byteStride":4,"target":34962},{"buffer":0,"byteLength":5268,"byteOffset":3248916,"byteStride":4,"target":34962},{"buffer":0,"byteLength":2634,"byteOffset":3254184,"target":34963},{"buffer":0,"byteLength":3216,"byteOffset":3256820,"byteStride":8,"target":34962},{"buffer":0,"byteLength":1608,"byteOffset":3260036,"byteStride":4,"target":34962},{"buffer":0,"byteLength":1608,"byteOffset":3261644,"byteStride":4,"target":34962},{"buffer":0,"byteLength":804,"byteOffset":3263252,"target":34963},{"buffer":0,"byteLength":576,"byteOffset":3264056,"byteStride":8,"target":34962},{"buffer":0,"byteLength":288,"byteOffset":3264632,"byteStride":4,"target":34962},{"buffer":0,"byteLength":288,"byteOffset":3264920,"byteStride":4,"target":34962},{"buffer":0,"byteLength":144,"byteOffset":3265208,"target":34963},{"buffer":0,"byteLength":16640,"byteOffset":3265352,"byteStride":4,"target":34962},{"buffer":0,"byteLength":448,"byteOffset":3281992,"byteStride":4,"target":34962},{"buffer":0,"byteLength":1152,"byteOffset":3282440,"byteStride":4,"target":34962},{"buffer":0,"byteLength":271128,"byteOffset":3283592,"byteStride":4,"target":34962},{"buffer":0,"byteLength":160,"byteOffset":3554720,"byteStride":4,"target":34962},{"buffer":0,"byteLength":15312,"byteOffset":3554880,"byteStride":4,"target":34962},{"buffer":0,"byteLength":2688,"byteOffset":3570192,"byteStride":4,"target":34962},{"buffer":0,"byteLength":3136,"byteOffset":3572880,"byteStride":4,"target":34962},{"buffer":0,"byteLength":42784,"byteOffset":3576016,"byteStride":4,"target":34962},{"buffer":0,"byteLength":224,"byteOffset":3618800,"byteStride":4,"target":34962},{"buffer":0,"byteLength":11448,"byteOffset":3619024,"byteStride":4,"target":34962},{"buffer":0,"byteLength":336,"byteOffset":3630472,"byteStride":4,"target":34962},{"buffer":0,"byteLength":174816,"byteOffset":3630808,"byteStride":4,"target":34962},{"buffer":0,"byteLength":96,"byteOffset":3805624,"byteStride":4,"target":34962},{"buffer":0,"byteLength":10416,"byteOffset":3805720,"byteStride":4,"target":34962},{"buffer":0,"byteLength":1692,"byteOffset":3816136,"byteStride":4,"target":34962},{"buffer":0,"byteLength":2148,"byteOffset":3817828,"byteStride":4,"target":34962},{"buffer":0,"byteLength":32508,"byteOffset":3819976,"byteStride":4,"target":34962},{"buffer":0,"byteLength":144,"byteOffset":3852484,"byteStride":4,"target":34962},{"buffer":0,"byteLength":66624,"byteOffset":3852628,"byteStride":4,"target":34962},{"buffer":0,"byteLength":3228,"byteOffset":3919252,"byteStride":4,"target":34962},{"buffer":0,"byteLength":144,"byteOffset":3922480,"byteStride":4,"target":34962},{"buffer":0,"byteLength":11904,"byteOffset":3922624,"byteStride":4,"target":34962},{"buffer":0,"byteLength":768,"byteOffset":3934528,"byteStride":4,"target":34962},{"buffer":0,"byteLength":2304,"byteOffset":3935296,"byteStride":4,"target":34962},{"buffer":0,"byteLength":57328,"byteOffset":3937600,"byteStride":4,"target":34962},{"buffer":0,"byteLength":6048,"byteOffset":3994928,"byteStride":4,"target":34962},{"buffer":0,"byteLength":728,"byteOffset":4000976,"byteStride":4,"target":34962},{"buffer":0,"byteLength":6272,"byteOffset":4001704,"byteStride":4,"target":34962},{"buffer":0,"byteLength":1440,"byteOffset":4007976,"byteStride":4,"target":34962},{"buffer":0,"byteLength":2892,"byteOffset":4009416,"byteStride":4,"target":34962},{"buffer":0,"byteLength":42216,"byteOffset":4012308,"byteStride":4,"target":34962},{"buffer":0,"byteLength":4320,"byteOffset":4054524,"byteStride":4,"target":34962},{"buffer":0,"byteLength":528,"byteOffset":4058844,"byteStride":4,"target":34962},{"buffer":0,"byteLength":4392,"byteOffset":4059372,"byteStride":4,"target":34962},{"buffer":0,"byteLength":3372,"byteOffset":4063764,"byteStride":4,"target":34962},{"buffer":0,"byteLength":12204,"byteOffset":4067136,"byteStride":4,"target":34962},{"buffer":0,"byteLength":144,"byteOffset":4079340,"byteStride":4,"target":34962},{"buffer":0,"byteLength":708,"byteOffset":4079484,"byteStride":4,"target":34962},{"buffer":0,"byteLength":2196,"byteOffset":4080192,"byteStride":4,"target":34962},{"buffer":0,"byteLength":2648,"byteOffset":4082388,"byteStride":4,"target":34962},{"buffer":0,"byteLength":3864,"byteOffset":4085036,"byteStride":4,"target":34962},{"buffer":0,"byteLength":448,"byteOffset":4088900,"byteStride":4,"target":34962},{"buffer":0,"byteLength":1968,"byteOffset":4089348,"byteStride":4,"target":34962},{"buffer":0,"byteLength":2748,"byteOffset":4091316,"byteStride":4,"target":34962},{"buffer":0,"byteLength":348,"byteOffset":4094064,"byteStride":4,"target":34962},{"buffer":0,"byteLength":1380,"byteOffset":4094412,"byteStride":4,"target":34962},{"buffer":0,"byteLength":72,"byteOffset":4095792,"byteStride":4,"target":34962},{"buffer":0,"byteLength":252,"byteOffset":4095864,"byteStride":4,"target":34962},{"buffer":0,"byteLength":72,"byteOffset":4096116,"byteStride":4,"target":34962},{"buffer":0,"byteLength":4512,"byteOffset":4096188,"byteStride":4,"target":34962},{"buffer":0,"byteLength":2752,"byteOffset":4100700,"byteStride":4,"target":34962},{"buffer":0,"byteLength":5268,"byteOffset":4103452,"byteStride":4,"target":34962},{"buffer":0,"byteLength":1608,"byteOffset":4108720,"byteStride":4,"target":34962},{"buffer":0,"byteLength":288,"byteOffset":4110328,"byteStride":4,"target":34962}],"buffers":[{"byteLength":4110616,"uri":"moot_hall.bin"}],"extensionsRequired":["KHR_mesh_quantization","KHR_texture_transform"],"extensionsUsed":["KHR_mesh_quantization","KHR_texture_transform","MSFT_lod"],"extras":{"hm":{"batching":true,"cellSize":16.0,"cells":[{"cullAt":null,"interior":null,"key":"0_0","lodPrims":[10,8,3,2],"lodTris":[42782,19455,5833,1004],"max":[9.481,15.8,8.779],"min":[-7.933,-2.03,-8.779]},{"cullAt":null,"interior":null,"key":"0_n1","lodPrims":[7,5,3,2],"lodTris":[9548,4529,1310,242],"max":[9.554,5.91,3.522],"min":[-6.062,-0.077,-6.197]},{"cullAt":null,"interior":null,"key":"n1_0","lodPrims":[3,3,2,2],"lodTris":[906,422,121,27],"max":[1.581,15.35,6.586],"min":[-8.295,0.12,-3.141]},{"cullAt":null,"interior":null,"key":"n1_n1","lodPrims":[2,1,1,1],"lodTris":[914,439,134,24],"max":[7.955,11.481,8.774],"min":[-7.957,0.42,-8.776]}],"instanced":[],"instancing":true,"interiors":[],"lod":true,"lodDistances":[15.0,40.0,100.0],"stats":{"groups":4,"lodPrims":[22,17,9,7],"lodTris":[54150,24845,7398,1297]},"venue":"moot_hall"}},"images":[{"uri":"../textures/ashlar_civic_albedo.png"},{"uri":"../textures/ashlar_civic_orm.png"},{"uri":"../textures/ashlar_civic_normal.png"},{"uri":"../textures/stone_albedo.png"},{"uri":"../textures/stone_orm.png"},{"uri":"../textures/stone_normal.png"},{"uri":"../textures/rubble_albedo.png"},{"uri":"../textures/rubble_orm.png"},{"uri":"../textures/rubble_normal.png"},{"uri":"../textures/kit_albedo.png"},{"uri":"../textures/kit_orm.png"},{"uri":"../textures/kit_normal.png"},{"uri":"../textures/ashlar_albedo.png"},{"uri":"../textures/ashlar_orm.png"},{"uri":"../textures/ashlar_normal.png"},{"uri":"../textures/oak_dark_albedo.png"},{"uri":"../textures/oak_dark_orm.png"},{"uri":"../textures/oak_dark_normal.png"},{"uri":"../textures/bronze_albedo.png"},{"uri":"../textures/bronze_orm.png"},{"uri":"../textures/bronze_normal.png"},{"uri":"../textures/wax_albedo.png"},{"uri":"../textures/wax_orm.png"},{"uri":"../textures/wax_normal.png"},{"uri":"../textures/straw_albedo.png"},{"uri":"../textures/straw_orm.png"},{"uri":"../textures/straw_normal.png"},{"uri":"../textures/plaster_albedo.png"},{"uri":"../textures/plaster_orm.png"},{"uri":"../textures/plaster_normal.png"},{"uri":"../textures/plaster_shade_albedo.png"},{"uri":"../textures/plaster_shade_orm.png"},{"uri":"../textures/plaster_shade_normal.png"},{"uri":"../textures/glass_albedo.png"},{"uri":"../textures/glass_orm.png"},{"uri":"../textures/glass_normal.png"},{"uri":"../textures/glass_emissive.png"},{"uri":"../textures/glass_lit_albedo.png"},{"uri":"../textures/glass_lit_orm.png"},{"uri":"../textures/glass_lit_normal.png"},{"uri":"../textures/glass_lit_emissive.png"},{"uri":"../textures/alabaster_albedo.png"},{"uri":"../textures/alabaster_orm.png"},{"uri":"../textures/alabaster_normal.png"},{"uri":"../textures/slate_albedo.png"},{"uri":"../textures/slate_orm.png"},{"uri":"../textures/slate_normal.png"},{"uri":"../textures/wool_crimson_albedo.png"},{"uri":"../textures/wool_crimson_orm.png"},{"uri":"../textures/wool_crimson_normal.png"},{"uri":"../textures/moss_albedo.png"},{"uri":"../textures/moss_orm.png"},{"uri":"../textures/moss_normal.png"},{"uri":"../textures/weeds_albedo.png"},{"uri":"../textures/weeds_orm.png"},{"uri":"../textures/weeds_normal.png"}],"materials":[{"doubleSided":false,"name":"ashlar_civic","normalTexture":{"extensions":{"KHR_texture_transform":{"scale":[11.443549128992558,11.443549128992558]}},"index":2,"scale":1.0},"occlusionTexture":{"extensions":{"KHR_texture_transform":{"scale":[11.443549128992558,11.443549128992558]}},"index":1},"pbrMetallicRoughness":{"baseColorFactor":[1,1,1,1],"baseColorTexture":{"extensions":{"KHR_texture_transform":{"scale":[11.443549128992558,11.443549128992558]}},"index":0},"metallicFactor":1.0,"metallicRoughnessTexture":{"extensions":{"KHR_texture_transform":{"scale":[11.443549128992558,11.443549128992558]}},"index":1},"roughnessFactor":1.0}},{"doubleSided":false,"name":"stone","normalTexture":{"extensions":{"KHR_texture_transform":{"scale":[11.443549128992558,11.443549128992558]}},"index":5,"scale":1.0},"occlusionTexture":{"extensions":{"KHR_texture_transform":{"scale":[11.443549128992558,11.443549128992558]}},"index":4},"pbrMetallicRoughness":{"baseColorFactor":[1,1,1,1],"baseColorTexture":{"extensions":{"KHR_texture_transform":{"scale":[11.443549128992558,11.443549128992558]}},"index":3},"metallicFactor":1.0,"metallicRoughnessTexture":{"extensions":{"KHR_texture_transform":{"scale":[11.443549128992558,11.443549128992558]}},"index":4},"roughnessFactor":1.0}},{"doubleSided":false,"name":"rubble","normalTexture":{"extensions":{"KHR_texture_transform":{"scale":[11.443549128992558,11.443549128992558]}},"index":8,"scale":1.0},"occlusionTexture":{"extensions":{"KHR_texture_transform":{"scale":[11.443549128992558,11.443549128992558]}},"index":7},"pbrMetallicRoughness":{"baseColorFactor":[1,1,1,1],"baseColorTexture":{"extensions":{"KHR_texture_transform":{"scale":[11.443549128992558,11.443549128992558]}},"index":6},"metallicFactor":1.0,"metallicRoughnessTexture":{"extensions":{"KHR_texture_transform":{"scale":[11.443549128992558,11.443549128992558]}},"index":7},"roughnessFactor":1.0}},{"doubleSided":true,"name":"kit","normalTexture":{"extensions":{"KHR_texture_transform":{"scale":[11.443549128992558,11.443549128992558]}},"index":11,"scale":1.0},"occlusionTexture":{"extensions":{"KHR_texture_transform":{"scale":[11.443549128992558,11.443549128992558]}},"index":10},"pbrMetallicRoughness":{"baseColorFactor":[1,1,1,1],"baseColorTexture":{"extensions":{"KHR_texture_transform":{"scale":[11.443549128992558,11.443549128992558]}},"index":9},"metallicFactor":1.0,"metallicRoughnessTexture":{"extensions":{"KHR_texture_transform":{"scale":[11.443549128992558,11.443549128992558]}},"index":10},"roughnessFactor":1.0}},{"doubleSided":false,"name":"ashlar","normalTexture":{"extensions":{"KHR_texture_transform":{"scale":[11.443549128992558,11.443549128992558]}},"index":14,"scale":1.0},"occlusionTexture":{"extensions":{"KHR_texture_transform":{"scale":[11.443549128992558,11.443549128992558]}},"index":13},"pbrMetallicRoughness":{"baseColorFactor":[1,1,1,1],"baseColorTexture":{"extensions":{"KHR_texture_transform":{"scale":[11.443549128992558,11.443549128992558]}},"index":12},"metallicFactor":1.0,"metallicRoughnessTexture":{"extensions":{"KHR_texture_transform":{"scale":[11.443549128992558,11.443549128992558]}},"index":13},"roughnessFactor":1.0}},{"doubleSided":false,"name":"oak_dark","normalTexture":{"extensions":{"KHR_texture_transform":{"scale":[11.443549128992558,11.443549128992558]}},"index":17,"scale":1.0},"occlusionTexture":{"extensions":{"KHR_texture_transform":{"scale":[11.443549128992558,11.443549128992558]}},"index":16},"pbrMetallicRoughness":{"baseColorFactor":[1,1,1,1],"baseColorTexture":{"extensions":{"KHR_texture_transform":{"scale":[11.443549128992558,11.443549128992558]}},"index":15},"metallicFactor":1.0,"metallicRoughnessTexture":{"extensions":{"KHR_texture_transform":{"scale":[11.443549128992558,11.443549128992558]}},"index":16},"roughnessFactor":1.0}},{"doubleSided":false,"name":"bronze","normalTexture":{"extensions":{"KHR_texture_transform":{"scale":[11.443549128992558,11.443549128992558]}},"index":20,"scale":1.0},"occlusionTexture":{"extensions":{"KHR_texture_transform":{"scale":[11.443549128992558,11.443549128992558]}},"index":19},"pbrMetallicRoughness":{"baseColorFactor":[1,1,1,1],"baseColorTexture":{"extensions":{"KHR_texture_transform":{"scale":[11.443549128992558,11.443549128992558]}},"index":18},"metallicFactor":1.0,"metallicRoughnessTexture":{"extensions":{"KHR_texture_transform":{"scale":[11.443549128992558,11.443549128992558]}},"index":19},"roughnessFactor":1.0}},{"doubleSided":false,"name":"wax","normalTexture":{"extensions":{"KHR_texture_transform":{"scale":[11.443549128992558,11.443549128992558]}},"index":23,"scale":1.0},"occlusionTexture":{"extensions":{"KHR_texture_transform":{"scale":[11.443549128992558,11.443549128992558]}},"index":22},"pbrMetallicRoughness":{"baseColorFactor":[1,1,1,1],"baseColorTexture":{"extensions":{"KHR_texture_transform":{"scale":[11.443549128992558,11.443549128992558]}},"index":21},"metallicFactor":1.0,"metallicRoughnessTexture":{"extensions":{"KHR_texture_transform":{"scale":[11.443549128992558,11.443549128992558]}},"index":22},"roughnessFactor":1.0}},{"doubleSided":false,"name":"straw","normalTexture":{"extensions":{"KHR_texture_transform":{"scale":[11.443549128992558,11.443549128992558]}},"index":26,"scale":1.0},"occlusionTexture":{"extensions":{"KHR_texture_transform":{"scale":[11.443549128992558,11.443549128992558]}},"index":25},"pbrMetallicRoughness":{"baseColorFactor":[1,1,1,1],"baseColorTexture":{"extensions":{"KHR_texture_transform":{"scale":[11.443549128992558,11.443549128992558]}},"index":24},"metallicFactor":1.0,"metallicRoughnessTexture":{"extensions":{"KHR_texture_transform":{"scale":[11.443549128992558,11.443549128992558]}},"index":25},"roughnessFactor":1.0}},{"doubleSided":false,"name":"plaster","normalTexture":{"extensions":{"KHR_texture_transform":{"scale":[11.443549128992558,11.443549128992558]}},"index":29,"scale":1.0},"occlusionTexture":{"extensions":{"KHR_texture_transform":{"scale":[11.443549128992558,11.443549128992558]}},"index":28},"pbrMetallicRoughness":{"baseColorFactor":[1,1,1,1],"baseColorTexture":{"extensions":{"KHR_texture_transform":{"scale":[11.443549128992558,11.443549128992558]}},"index":27},"metallicFactor":1.0,"metallicRoughnessTexture":{"extensions":{"KHR_texture_transform":{"scale":[11.443549128992558,11.443549128992558]}},"index":28},"roughnessFactor":1.0}},{"doubleSided":false,"name":"plaster_shade","normalTexture":{"extensions":{"KHR_texture_transform":{"scale":[11.443549128992558,11.443549128992558]}},"index":32,"scale":1.0},"occlusionTexture":{"extensions":{"KHR_texture_transform":{"scale":[11.443549128992558,11.443549128992558]}},"index":31},"pbrMetallicRoughness":{"baseColorFactor":[1,1,1,1],"baseColorTexture":{"extensions":{"KHR_texture_transform":{"scale":[11.443549128992558,11.443549128992558]}},"index":30},"metallicFactor":1.0,"metallicRoughnessTexture":{"extensions":{"KHR_texture_transform":{"scale":[11.443549128992558,11.443549128992558]}},"index":31},"roughnessFactor":1.0}},{"alphaMode":"BLEND","doubleSided":true,"emissiveFactor":[1.0,1.0,1.0],"emissiveTexture":{"extensions":{"KHR_texture_transform":{"scale":[11.443549128992558,11.443549128992558]}},"index":36},"name":"glass","normalTexture":{"extensions":{"KHR_texture_transform":{"scale":[11.443549128992558,11.443549128992558]}},"index":35,"scale":1.0},"occlusionTexture":{"extensions":{"KHR_texture_transform":{"scale":[11.443549128992558,11.443549128992558]}},"index":34},"pbrMetallicRoughness":{"baseColorFactor":[1,1,1,1],"baseColorTexture":{"extensions":{"KHR_texture_transform":{"scale":[11.443549128992558,11.443549128992558]}},"index":33},"metallicFactor":1.0,"metallicRoughnessTexture":{"extensions":{"KHR_texture_transform":{"scale":[11.443549128992558,11.443549128992558]}},"index":34},"roughnessFactor":1.0}},{"doubleSided":true,"emissiveFactor":[1.0,1.0,1.0],"emissiveTexture":{"extensions":{"KHR_texture_transform":{"scale":[11.443549128992558,11.443549128992558]}},"index":40},"name":"glass_lit","normalTexture":{"extensions":{"KHR_texture_transform":{"scale":[11.443549128992558,11.443549128992558]}},"index":39,"scale":1.0},"occlusionTexture":{"extensions":{"KHR_texture_transform":{"scale":[11.443549128992558,11.443549128992558]}},"index":38},"pbrMetallicRoughness":{"baseColorFactor":[1,1,1,1],"baseColorTexture":{"extensions":{"KHR_texture_transform":{"scale":[11.443549128992558,11.443549128992558]}},"index":37},"metallicFactor":1.0,"metallicRoughnessTexture":{"extensions":{"KHR_texture_transform":{"scale":[11.443549128992558,11.443549128992558]}},"index":38},"roughnessFactor":1.0}},{"doubleSided":false,"name":"alabaster","normalTexture":{"extensions":{"KHR_texture_transform":{"scale":[11.443549128992558,11.443549128992558]}},"index":43,"scale":1.0},"occlusionTexture":{"extensions":{"KHR_texture_transform":{"scale":[11.443549128992558,11.443549128992558]}},"index":42},"pbrMetallicRoughness":{"baseColorFactor":[1,1,1,1],"baseColorTexture":{"extensions":{"KHR_texture_transform":{"scale":[11.443549128992558,11.443549128992558]}},"index":41},"metallicFactor":1.0,"metallicRoughnessTexture":{"extensions":{"KHR_texture_transform":{"scale":[11.443549128992558,11.443549128992558]}},"index":42},"roughnessFactor":1.0}},{"doubleSided":false,"name":"slate","normalTexture":{"extensions":{"KHR_texture_transform":{"scale":[11.443549128992558,11.443549128992558]}},"index":46,"scale":1.0},"occlusionTexture":{"extensions":{"KHR_texture_transform":{"scale":[11.443549128992558,11.443549128992558]}},"index":45},"pbrMetallicRoughness":{"baseColorFactor":[1,1,1,1],"baseColorTexture":{"extensions":{"KHR_texture_transform":{"scale":[11.443549128992558,11.443549128992558]}},"index":44},"metallicFactor":1.0,"metallicRoughnessTexture":{"extensions":{"KHR_texture_transform":{"scale":[11.443549128992558,11.443549128992558]}},"index":45},"roughnessFactor":1.0}},{"doubleSided":false,"name":"wool_crimson","normalTexture":{"extensions":{"KHR_texture_transform":{"scale":[11.443549128992558,11.443549128992558]}},"index":49,"scale":1.0},"occlusionTexture":{"extensions":{"KHR_texture_transform":{"scale":[11.443549128992558,11.443549128992558]}},"index":48},"pbrMetallicRoughness":{"baseColorFactor":[1,1,1,1],"baseColorTexture":{"extensions":{"KHR_texture_transform":{"scale":[11.443549128992558,11.443549128992558]}},"index":47},"metallicFactor":1.0,"metallicRoughnessTexture":{"extensions":{"KHR_texture_transform":{"scale":[11.443549128992558,11.443549128992558]}},"index":48},"roughnessFactor":1.0}},{"doubleSided":false,"name":"moss","normalTexture":{"extensions":{"KHR_texture_transform":{"scale":[11.443549128992558,11.443549128992558]}},"index":52,"scale":1.0},"occlusionTexture":{"extensions":{"KHR_texture_transform":{"scale":[11.443549128992558,11.443549128992558]}},"index":51},"pbrMetallicRoughness":{"baseColorFactor":[1,1,1,1],"baseColorTexture":{"extensions":{"KHR_texture_transform":{"scale":[11.443549128992558,11.443549128992558]}},"index":50},"metallicFactor":1.0,"metallicRoughnessTexture":{"extensions":{"KHR_texture_transform":{"scale":[11.443549128992558,11.443549128992558]}},"index":51},"roughnessFactor":1.0}},{"alphaCutoff":0.5,"alphaMode":"MASK","doubleSided":true,"name":"weeds","normalTexture":{"extensions":{"KHR_texture_transform":{"scale":[11.443549128992558,11.443549128992558]}},"index":55,"scale":1.0},"occlusionTexture":{"extensions":{"KHR_texture_transform":{"scale":[11.443549128992558,11.443549128992558]}},"index":54},"pbrMetallicRoughness":{"baseColorFactor":[1,1,1,1],"baseColorTexture":{"extensions":{"KHR_texture_transform":{"scale":[11.443549128992558,11.443549128992558]}},"index":53},"metallicFactor":1.0,"metallicRoughnessTexture":{"extensions":{"KHR_texture_transform":{"scale":[11.443549128992558,11.443549128992558]}},"index":54},"roughnessFactor":1.0}}],"meshes":[{"name":"moot_hall#0_0","primitives":[{"attributes":{"NORMAL":1,"POSITION":0,"TEXCOORD_0":169},"indices":2,"material":4},{"attributes":{"NORMAL":4,"POSITION":3,"TEXCOORD_0":170},"indices":5,"material":0},{"attributes":{"NORMAL":7,"POSITION":6,"TEXCOORD_0":171},"indices":8,"material":12},{"attributes":{"NORMAL":10,"POSITION":9,"TEXCOORD_0":172},"indices":11,"material":3},{"attributes":{"NORMAL":13,"POSITION":12,"TEXCOORD_0":173},"indices":14,"material":5},{"attributes":{"NORMAL":16,"POSITION":15,"TEXCOORD_0":174},"indices":17,"material":9},{"attributes":{"NORMAL":19,"POSITION":18,"TEXCOORD_0":175},"indices":20,"material":10},{"attributes":{"NORMAL":22,"POSITION":21,"TEXCOORD_0":176},"indices":23,"material":2},{"attributes":{"NORMAL":25,"POSITION":24,"TEXCOORD_0":177},"indices":26,"material":1},{"attributes":{"NORMAL":28,"POSITION":27,"TEXCOORD_0":178},"indices":29,"material":15}]},{"name":"moot_hall#0_0$lod1","primitives":[{"attributes":{"NORMAL":31,"POSITION":30,"TEXCOORD_0":179},"indices":32,"material":4},{"attributes":{"NORMAL":34,"POSITION":33,"TEXCOORD_0":180},"indices":35,"material":0},{"attributes":{"NORMAL":37,"POSITION":36,"TEXCOORD_0":181},"indices":38,"material":3},{"attributes":{"NORMAL":40,"POSITION":39,"TEXCOORD_0":182},"indices":41,"material":5},{"attributes":{"NORMAL":43,"POSITION":42,"TEXCOORD_0":183},"indices":44,"material":9},{"attributes":{"NORMAL":46,"POSITION":45,"TEXCOORD_0":184},"indices":47,"material":10},{"attributes":{"NORMAL":49,"POSITION":48,"TEXCOORD_0":185},"indices":50,"material":2},{"attributes":{"NORMAL":52,"POSITION":51,"TEXCOORD_0":186},"indices":53,"material":1}]},{"name":"moot_hall#0_0$lod2","primitives":[{"attributes":{"NORMAL":55,"POSITION":54,"TEXCOORD_0":187},"indices":56,"material":0},{"attributes":{"NORMAL":58,"POSITION":57,"TEXCOORD_0":188},"indices":59,"material":3},{"attributes":{"NORMAL":61,"POSITION":60,"TEXCOORD_0":189},"indices":62,"material":9}]},{"name":"moot_hall#0_0$lod3","primitives":[{"attributes":{"NORMAL":64,"POSITION":63,"TEXCOORD_0":190},"indices":65,"material":0},{"attributes":{"NORMAL":67,"POSITION":66,"TEXCOORD_0":191},"indices":68,"material":3}]},{"name":"moot_hall#0_n1","primitives":[{"attributes":{"NORMAL":70,"POSITION":69,"TEXCOORD_0":192},"indices":71,"material":13},{"attributes":{"NORMAL":73,"POSITION":72,"TEXCOORD_0":193},"indices":74,"material":11},{"attributes":{"NORMAL":76,"POSITION":75,"TEXCOORD_0":194},"indices":77,"material":3},{"attributes":{"NORMAL":79,"POSITION":78,"TEXCOORD_0":195},"indices":80,"material":16},{"attributes":{"NORMAL":82,"POSITION":81,"TEXCOORD_0":196},"indices":83,"material":8},{"attributes":{"NORMAL":85,"POSITION":84,"TEXCOORD_0":197},"indices":86,"material":7},{"attributes":{"NORMAL":88,"POSITION":87,"TEXCOORD_0":198},"indices":89,"material":17}]},{"name":"moot_hall#0_n1$lod1","primitives":[{"attributes":{"NORMAL":91,"POSITION":90,"TEXCOORD_0":199},"indices":92,"material":11},{"attributes":{"NORMAL":94,"POSITION":93,"TEXCOORD_0":200},"indices":95,"material":3},{"attributes":{"NORMAL":97,"POSITION":96,"TEXCOORD_0":201},"indices":98,"material":16},{"attributes":{"NORMAL":100,"POSITION":99,"TEXCOORD_0":202},"indices":101,"material":8},{"attributes":{"NORMAL":103,"POSITION":102,"TEXCOORD_0":203},"indices":104,"material":7}]},{"name":"moot_hall#0_n1$lod2","primitives":[{"attributes":{"NORMAL":106,"POSITION":105,"TEXCOORD_0":204},"indices":107,"material":11},{"attributes":{"NORMAL":109,"POSITION":108,"TEXCOORD_0":205},"indices":110,"material":3},{"attributes":{"NORMAL":112,"POSITION":111,"TEXCOORD_0":206},"indices":113,"material":8}]},{"name":"moot_hall#0_n1$lod3","primitives":[{"attributes":{"NORMAL":115,"POSITION":114,"TEXCOORD_0":207},"indices":116,"material":11},{"attributes":{"NORMAL":118,"POSITION":117,"TEXCOORD_0":208},"indices":119,"material":3}]},{"name":"moot_hall#n1_0","primitives":[{"attributes":{"NORMAL":121,"POSITION":120,"TEXCOORD_0":209},"indices":122,"material":6},{"attributes":{"NORMAL":124,"POSITION":123,"TEXCOORD_0":210},"indices":125,"material":3},{"attributes":{"NORMAL":127,"POSITION":126,"TEXCOORD_0":211},"indices":128,"material":2}]},{"name":"moot_hall#n1_0$lod1","primitives":[{"attributes":{"NORMAL":130,"POSITION":129,"TEXCOORD_0":212},"indices":131,"material":6},{"attributes":{"NORMAL":133,"POSITION":132,"TEXCOORD_0":213},"indices":134,"material":3},{"attributes":{"NORMAL":136,"POSITION":135,"TEXCOORD_0":214},"indices":137,"material":2}]},{"name":"moot_hall#n1_0$lod2","primitives":[{"attributes":{"NORMAL":139,"POSITION":138,"TEXCOORD_0":215},"indices":140,"material":3},{"attributes":{"NORMAL":142,"POSITION":141,"TEXCOORD_0":216},"indices":143,"material":2}]},{"name":"moot_hall#n1_0$lod3","primitives":[{"attributes":{"NORMAL":145,"POSITION":144,"TEXCOORD_0":217},"indices":146,"material":3},{"attributes":{"NORMAL":148,"POSITION":147,"TEXCOORD_0":218},"indices":149,"material":2}]},{"name":"moot_hall#n1_n1","primitives":[{"attributes":{"NORMAL":151,"POSITION":150,"TEXCOORD_0":219},"indices":152,"material":3},{"attributes":{"COLOR_0":155,"NORMAL":154,"POSITION":153,"TEXCOORD_0":220},"indices":156,"material":14}]},{"name":"moot_hall#n1_n1$lod1","primitives":[{"attributes":{"COLOR_0":159,"NORMAL":158,"POSITION":157,"TEXCOORD_0":221},"indices":160,"material":14}]},{"name":"moot_hall#n1_n1$lod2","primitives":[{"attributes":{"COLOR_0":163,"NORMAL":162,"POSITION":161,"TEXCOORD_0":222},"indices":164,"material":14}]},{"name":"moot_hall#n1_n1$lod3","primitives":[{"attributes":{"COLOR_0":167,"NORMAL":166,"POSITION":165,"TEXCOORD_0":223},"indices":168,"material":14}]}],"nodes":[{"extensions":{"MSFT_lod":{"ids":[1,2,3]}},"extras":{"MSFT_screencoverage":[1.0,0.73205,0.29282,0.0],"hm":{"cell":"0_0","cullAt":null,"interior":null,"lod":0,"max":[9.481,15.8,8.779],"min":[-7.933,-2.03,-8.779],"prims":10,"tris":42782,"venue":"moot_hall"}},"mesh":0,"name":"moot_hall#0_0","scale":[8.707340240478516,8.914827346801758,8.778557777404785],"translation":[0.7740838527679443,6.8851728439331055,0.0]},{"extras":{"hm":{"cell":"0_0","cullAt":null,"interior":null,"lod":1,"max":[9.481,15.8,8.779],"min":[-7.933,-2.03,-8.779],"prims":8,"tris":19455,"venue":"moot_hall"}},"mesh":1,"name":"moot_hall#0_0$lod1","scale":[8.705360412597656,8.914827346801758,8.776507377624512],"translation":[0.7724034786224365,6.8851728439331055,0.0]},{"extras":{"hm":{"cell":"0_0","cullAt":null,"interior":null,"lod":2,"max":[9.481,15.8,8.779],"min":[-7.933,-2.03,-8.779],"prims":3,"tris":5833,"venue":"moot_hall"}},"mesh":2,"name":"moot_hall#0_0$lod2","scale":[8.700409889221191,8.883615493774414,8.746484756469727],"translation":[0.7674529552459717,6.874024391174316,0.0]},{"extras":{"hm":{"cell":"0_0","cullAt":null,"interior":null,"lod":3,"max":[9.481,15.8,8.779],"min":[-7.933,-2.03,-8.779],"prims":2,"tris":1004,"venue":"moot_hall"}},"mesh":3,"name":"moot_hall#0_0$lod3","scale":[8.688335418701172,8.883615493774414,8.743563652038574],"translation":[0.7795274257659912,6.874024391174316,0.0]},{"extensions":{"MSFT_lod":{"ids":[5,6,7]}},"extras":{"MSFT_screencoverage":[1.0,0.46448,0.18579,0.0],"hm":{"cell":"0_n1","cullAt":null,"interior":null,"lod":0,"max":[9.554,5.91,3.522],"min":[-6.062,-0.077,-6.197],"prims":7,"tris":9548,"venue":"moot_hall"}},"mesh":4,"name":"moot_hall#0_n1","scale":[7.807967185974121,2.9934332370758057,4.859673500061035],"translation":[1.7458431720733643,2.916567087173462,-1.3374558687210083]},{"extras":{"hm":{"cell":"0_n1","cullAt":null,"interior":null,"lod":1,"max":[9.554,5.91,3.522],"min":[-6.062,-0.077,-6.197],"prims":5,"tris":4529,"venue":"moot_hall"}},"mesh":5,"name":"moot_hall#0_n1$lod1","scale":[7.806989669799805,2.990983724594116,4.859673500061035],"translation":[1.7455978393554688,2.9170162677764893,-1.3374558687210083]},{"extras":{"hm":{"cell":"0_n1","cullAt":null,"interior":null,"lod":2,"max":[9.554,5.91,3.522],"min":[-6.062,-0.077,-6.197],"prims":3,"tris":1310,"venue":"moot_hall"}},"mesh":6,"name":"moot_hall#0_n1$lod2","scale":[7.769637107849121,2.9835798740386963,4.834792137145996],"translation":[1.7082452774047852,2.923753499984741,-1.3197895288467407]},{"extras":{"hm":{"cell":"0_n1","cullAt":null,"interior":null,"lod":3,"max":[9.554,5.91,3.522],"min":[-6.062,-0.077,-6.197],"prims":2,"tris":242,"venue":"moot_hall"}},"mesh":7,"name":"moot_hall#0_n1$lod3","scale":[7.730096817016602,2.9766359329223633,4.673516273498535],"translation":[1.67673659324646,2.930697441101074,-1.1585139036178589]},{"extensions":{"MSFT_lod":{"ids":[9,10,11]}},"extras":{"MSFT_screencoverage":[1.0,0.4945,0.1978,0.0],"hm":{"cell":"n1_0","cullAt":null,"interior":null,"lod":0,"max":[1.581,15.35,6.586],"min":[-8.295,0.12,-3.141],"prims":3,"tris":906,"venue":"moot_hall"}},"mesh":8,"name":"moot_hall#n1_0","scale":[4.937785625457764,7.615000247955322,4.863473415374756],"translation":[-3.3570046424865723,7.735000133514404,1.7228714227676392]},{"extras":{"hm":{"cell":"n1_0","cullAt":null,"interior":null,"lod":1,"max":[1.581,15.35,6.586],"min":[-8.295,0.12,-3.141],"prims":3,"tris":422,"venue":"moot_hall"}},"mesh":9,"name":"moot_hall#n1_0$lod1","scale":[4.9344305992126465,7.615000247955322,4.8571977615356445],"translation":[-3.3548691272735596,7.735000133514404,1.7224761247634888]},{"extras":{"hm":{"cell":"n1_0","cullAt":null,"interior":null,"lod":2,"max":[1.581,15.35,6.586],"min":[-8.295,0.12,-3.141],"prims":2,"tris":121,"venue":"moot_hall"}},"mesh":10,"name":"moot_hall#n1_0$lod2","scale":[4.790902137756348,7.40720796585083,4.839777946472168],"translation":[-3.2813665866851807,7.9427924156188965,1.7083165645599365]},{"extras":{"hm":{"cell":"n1_0","cullAt":null,"interior":null,"lod":3,"max":[1.581,15.35,6.586],"min":[-8.295,0.12,-3.141],"prims":2,"tris":27,"venue":"moot_hall"}},"mesh":11,"name":"moot_hall#n1_0$lod3","scale":[4.067386150360107,7.40720796585083,3.3693723678588867],"translation":[-4.004882335662842,7.9427924156188965,3.10737943649292]},{"extensions":{"MSFT_lod":{"ids":[13,14,15]}},"extras":{"MSFT_screencoverage":[1.0,0.62781,0.25112,0.0],"hm":{"cell":"n1_n1","cullAt":null,"interior":null,"lod":0,"max":[7.955,11.481,8.774],"min":[-7.957,0.42,-8.776],"prims":2,"tris":914,"venue":"moot_hall"}},"mesh":12,"name":"moot_hall#n1_n1","scale":[7.9564008712768555,5.530607223510742,8.775032043457031],"translation":[-0.0010519027709960938,5.9506072998046875,-0.0006070137023925781]},{"extras":{"hm":{"cell":"n1_n1","cullAt":null,"interior":null,"lod":1,"max":[7.955,11.481,8.774],"min":[-7.957,0.42,-8.776],"prims":1,"tris":439,"venue":"moot_hall"}},"mesh":13,"name":"moot_hall#n1_n1$lod1","scale":[7.868526458740234,5.502076625823975,8.775032043457031],"translation":[-0.0002682209014892578,5.92207670211792,-0.0006070137023925781]},{"extras":{"hm":{"cell":"n1_n1","cullAt":null,"interior":null,"lod":2,"max":[7.955,11.481,8.774],"min":[-7.957,0.42,-8.776],"prims":1,"tris":134,"venue":"moot_hall"}},"mesh":14,"name":"moot_hall#n1_n1$lod2","scale":[7.802420139312744,5.425816535949707,8.724296569824219],"translation":[-0.0002913475036621094,5.9983367919921875,-0.00015497207641601562]},{"extras":{"hm":{"cell":"n1_n1","cullAt":null,"interior":null,"lod":3,"max":[7.955,11.481,8.774],"min":[-7.957,0.42,-8.776],"prims":1,"tris":24,"venue":"moot_hall"}},"mesh":15,"name":"moot_hall#n1_n1$lod3","scale":[7.25153923034668,2.0849063396453857,8.583390235900879],"translation":[3.695487976074219e-05,9.190619468688965,-2.86102294921875e-06]}],"samplers":[{"magFilter":9729,"minFilter":9987,"wrapS":10497,"wrapT":10497}],"scene":0,"scenes":[{"nodes":[0,4,8,12]}],"textures":[{"sampler":0,"source":0},{"sampler":0,"source":1},{"sampler":0,"source":2},{"sampler":0,"source":3},{"sampler":0,"source":4},{"sampler":0,"source":5},{"sampler":0,"source":6},{"sampler":0,"source":7},{"sampler":0,"source":8},{"sampler":0,"source":9},{"sampler":0,"source":10},{"sampler":0,"source":11},{"sampler":0,"source":12},{"sampler":0,"source":13},{"sampler":0,"source":14},{"sampler":0,"source":15},{"sampler":0,"source":16},{"sampler":0,"source":17},{"sampler":0,"source":18},{"sampler":0,"source":19},{"sampler":0,"source":20},{"sampler":0,"source":21},{"sampler":0,"source":22},{"sampler":0,"source":23},{"sampler":0,"source":24},{"sampler":0,"source":25},{"sampler":0,"source":26},{"sampler":0,"source":27},{"sampler":0,"source":28},{"sampler":0,"source":29},{"sampler":0,"source":30},{"sampler":0,"source":31},{"sampler":0,"source":32},{"sampler":0,"source":33},{"sampler":0,"source":34},{"sampler":0,"source":35},{"sampler":0,"source":36},{"sampler":0,"source":37},{"sampler":0,"source":38},{"sampler":0,"source":39},{"sampler":0,"source":40},{"sampler":0,"source":41},{"sampler":0,"source":42},{"sampler":0,"source":43},{"sampler":0,"source":44},{"sampler":0,"source":45},{"sampler":0,"source":46},{"sampler":0,"source":47},{"sampler":0,"source":48},{"sampler":0,"source":49},{"sampler":0,"source":50},{"sampler":0,"source":51},{"sampler":0,"source":52},{"sampler":0,"source":53},{"sampler":0,"source":54},{"sampler":0,"source":55}]}