{"accessors":[{"bufferView":0,"componentType":5122,"count":96,"max":[32767.0,32767.0,14842.0],"min":[-32767.0,-21140.0,-14842.0],"normalized":true,"type":"VEC3"},{"bufferView":1,"componentType":5120,"count":96,"normalized":true,"type":"VEC3"},{"bufferView":2,"componentType":5123,"count":132,"type":"SCALAR"},{"bufferView":3,"componentType":5122,"count":96,"max":[32767.0,-21140.0,32767.0],"min":[-32767.0,-32767.0,-32767.0],"normalized":true,"type":"VEC3"},{"bufferView":4,"componentType":5120,"count":96,"normalized":true,"type":"VEC3"},{"bufferView":5,"componentType":5123,"count":132,"type":"SCALAR"},{"bufferView":6,"componentType":5122,"count":128,"max":[18989.0,13673.0,26897.0],"min":[14223.0,12628.0,22131.0],"normalized":true,"type":"VEC3"},{"bufferView":7,"componentType":5120,"count":128,"normalized":true,"type":"VEC3"},{"bufferView":8,"componentType":5123,"count":192,"type":"SCALAR"},{"bufferView":9,"componentType":5122,"count":56,"max":[19523.0,29391.0,9152.0],"min":[17070.0,24633.0,8242.0],"normalized":true,"type":"VEC3"},{"bufferView":10,"componentType":5120,"count":56,"normalized":true,"type":"VEC3"},{"bufferView":11,"componentType":5123,"count":252,"type":"SCALAR"},{"bufferView":12,"componentType":5122,"count":1764,"max":[21832.0,8146.0,-1048.0],"min":[15112.0,8109.0,-3693.0],"normalized":true,"type":"VEC3"},{"bufferView":13,"componentType":5120,"count":1764,"normalized":true,"type":"VEC3"},{"bufferView":14,"componentType":5123,"count":2916,"type":"SCALAR"},{"bufferView":15,"componentType":5122,"count":256,"max":[32767.0,11787.0,32767.0],"min":[-32767.0,-32767.0,-32767.0],"normalized":true,"type":"VEC3"},{"bufferView":16,"componentType":5120,"count":256,"normalized":true,"type":"VEC3"},{"bufferView":17,"componentType":5123,"count":384,"type":"SCALAR"},{"bufferView":18,"componentType":5122,"count":504,"max":[8508.0,23975.0,27337.0],"min":[5945.0,20486.0,25400.0],"normalized":true,"type":"VEC3"},{"bufferView":19,"componentType":5120,"count":504,"normalized":true,"type":"VEC3"},{"bufferView":20,"componentType":5123,"count":840,"type":"SCALAR"},{"bufferView":21,"componentType":5122,"count":3360,"max":[8120.0,25739.0,27582.0],"min":[2979.0,21105.0,25313.0],"normalized":true,"type":"VEC3"},{"bufferView":22,"componentType":5120,"count":3360,"normalized":true,"type":"VEC3"},{"bufferView":23,"componentType":5123,"count":5208,"type":"SCALAR"},{"bufferView":24,"componentType":5122,"count":4592,"max":[20770.0,8146.0,25101.0],"min":[-2551.0,5959.0,-6171.0],"normalized":true,"type":"VEC3"},{"bufferView":25,"componentType":5120,"count":4592,"normalized":true,"type":"VEC3"},{"bufferView":26,"componentType":5123,"count":7620,"type":"SCALAR"},{"bufferView":27,"componentType":5122,"count":7988,"max":[23850.0,32767.0,28120.0],"min":[-23196.0,5903.0,-6935.0],"normalized":true,"type":"VEC3"},{"bufferView":28,"componentType":5120,"count":7988,"normalized":true,"type":"VEC3"},{"bufferView":29,"componentType":5123,"count":11994,"type":"SCALAR"},{"bufferView":30,"componentType":5122,"count":288,"max":[17013.0,13786.0,24733.0],"min":[15920.0,13749.0,23762.0],"normalized":true,"type":"VEC3"},{"bufferView":31,"componentType":5120,"count":288,"normalized":true,"type":"VEC3"},{"bufferView":32,"componentType":5123,"count":396,"type":"SCALAR"},{"bufferView":33,"componentType":5122,"count":7392,"max":[20606.0,8126.0,23896.0],"min":[12421.0,5887.0,-6552.0],"normalized":true,"type":"VEC3"},{"bufferView":34,"componentType":5120,"count":7392,"normalized":true,"type":"VEC3"},{"bufferView":35,"componentType":5123,"count":10164,"type":"SCALAR"},{"bufferView":36,"componentType":5122,"count":96,"max":[23602.0,31489.0,27941.0],"min":[22790.0,8981.0,-5799.0],"normalized":true,"type":"VEC3"},{"bufferView":37,"componentType":5120,"count":96,"normalized":true,"type":"VEC3"},{"bufferView":38,"componentType":5123,"count":132,"type":"SCALAR"},{"bufferView":39,"componentType":5122,"count":96,"max":[24092.0,8981.0,27941.0],"min":[22300.0,2572.0,-5799.0],"normalized":true,"type":"VEC3"},{"bufferView":40,"componentType":5120,"count":96,"normalized":true,"type":"VEC3"},{"bufferView":41,"componentType":5123,"count":132,"type":"SCALAR"},{"bufferView":42,"componentType":5122,"count":55,"max":[18333.0,13738.0,26215.0],"min":[14879.0,13738.0,22813.0],"normalized":true,"type":"VEC3"},{"bufferView":43,"componentType":5120,"count":55,"normalized":true,"type":"VEC3"},{"bufferView":44,"componentType":5121,"count":55,"normalized":true,"type":"VEC4"},{"bufferView":45,"componentType":5123,"count":270,"type":"SCALAR"},{"bufferView":46,"componentType":5122,"count":9615,"max":[32767.0,29193.0,32767.0],"min":[-32767.0,-32767.0,-32767.0],"normalized":true,"type":"VEC3"},{"bufferView":47,"componentType":5120,"count":9615,"normalized":true,"type":"VEC3"},{"bufferView":48,"componentType":5121,"count":9615,"normalized":true,"type":"VEC4"},{"bufferView":49,"componentType":5123,"count":9615,"type":"SCALAR"},{"bufferView":50,"componentType":5122,"count":3714,"max":[20767.0,8190.0,25099.0],"min":[-2549.0,6000.0,-6171.0],"normalized":true,"type":"VEC3"},{"bufferView":51,"componentType":5120,"count":3714,"normalized":true,"type":"VEC3"},{"bufferView":52,"componentType":5123,"count":3714,"type":"SCALAR"},{"bufferView":53,"componentType":5122,"count":5703,"max":[23793.0,32767.0,28120.0],"min":[-23196.0,5944.0,-6891.0],"normalized":true,"type":"VEC3"},{"bufferView":54,"componentType":5120,"count":5703,"normalized":true,"type":"VEC3"},{"bufferView":55,"componentType":5123,"count":5703,"type":"SCALAR"},{"bufferView":56,"componentType":5122,"count":60,"max":[23562.0,31488.0,27941.0],"min":[22830.0,9096.0,-5746.0],"normalized":true,"type":"VEC3"},{"bufferView":57,"componentType":5120,"count":60,"normalized":true,"type":"VEC3"},{"bufferView":58,"componentType":5123,"count":60,"type":"SCALAR"},{"bufferView":59,"componentType":5122,"count":60,"max":[24026.0,8909.0,27941.0],"min":[22366.0,2727.0,-5711.0],"normalized":true,"type":"VEC3"},{"bufferView":60,"componentType":5120,"count":60,"normalized":true,"type":"VEC3"},{"bufferView":61,"componentType":5123,"count":60,"type":"SCALAR"},{"bufferView":62,"componentType":5122,"count":3882,"max":[32767.0,29219.0,32767.0],"min":[-32767.0,-32767.0,-32767.0],"normalized":true,"type":"VEC3"},{"bufferView":63,"componentType":5120,"count":3882,"normalized":true,"type":"VEC3"},{"bufferView":64,"componentType":5121,"count":3882,"normalized":true,"type":"VEC4"},{"bufferView":65,"componentType":5123,"count":3882,"type":"SCALAR"},{"bufferView":66,"componentType":5122,"count":1608,"max":[23425.0,32767.0,28067.0],"min":[-23152.0,5961.0,-6302.0],"normalized":true,"type":"VEC3"},{"bufferView":67,"componentType":5120,"count":1608,"normalized":true,"type":"VEC3"},{"bufferView":68,"componentType":5123,"count":1608,"type":"SCALAR"},{"bufferView":69,"componentType":5122,"count":24,"max":[23314.0,31515.0,27941.0],"min":[23078.0,9113.0,-5746.0],"normalized":true,"type":"VEC3"},{"bufferView":70,"componentType":5120,"count":24,"normalized":true,"type":"VEC3"},{"bufferView":71,"componentType":5123,"count":24,"type":"SCALAR"},{"bufferView":72,"componentType":5122,"count":996,"max":[32767.0,32767.0,32767.0],"min":[-32767.0,-32767.0,-32767.0],"normalized":true,"type":"VEC3"},{"bufferView":73,"componentType":5120,"count":996,"normalized":true,"type":"VEC3"},{"bufferView":74,"componentType":5121,"count":996,"normalized":true,"type":"VEC4"},{"bufferView":75,"componentType":5123,"count":996,"type":"SCALAR"},{"bufferView":76,"componentType":5122,"count":24,"max":[23314.0,31852.0,27941.0],"min":[23078.0,9333.0,-5746.0],"normalized":true,"type":"VEC3"},{"bufferView":77,"componentType":5120,"count":24,"normalized":true,"type":"VEC3"},{"bufferView":78,"componentType":5123,"count":24,"type":"SCALAR"},{"bufferView":79,"componentType":5122,"count":192,"max":[-11857.0,-11848.0,-1020.0],"min":[-24584.0,-23172.0,-27414.0],"normalized":true,"type":"VEC3"},{"bufferView":80,"componentType":5120,"count":192,"normalized":true,"type":"VEC3"},{"bufferView":81,"componentType":5123,"count":264,"type":"SCALAR"},{"bufferView":82,"componentType":5122,"count":56,"max":[-8405.0,17825.0,17226.0],"min":[-11745.0,2912.0,15967.0],"normalized":true,"type":"VEC3"},{"bufferView":83,"componentType":5120,"count":56,"normalized":true,"type":"VEC3"},{"bufferView":84,"componentType":5123,"count":252,"type":"SCALAR"},{"bufferView":85,"componentType":5122,"count":500,"max":[-19350.0,-17016.0,25809.0],"min":[-30391.0,-28541.0,2835.0],"normalized":true,"type":"VEC3"},{"bufferView":86,"componentType":5120,"count":500,"normalized":true,"type":"VEC3"},{"bufferView":87,"componentType":5123,"count":822,"type":"SCALAR"},{"bufferView":88,"componentType":5122,"count":32,"max":[-16939.0,-6643.0,-11571.0],"min":[-18031.0,-10196.0,-12672.0],"normalized":true,"type":"VEC3"},{"bufferView":89,"componentType":5120,"count":32,"normalized":true,"type":"VEC3"},{"bufferView":90,"componentType":5123,"count":48,"type":"SCALAR"},{"bufferView":91,"componentType":5122,"count":53294,"max":[32767.0,32767.0,32767.0],"min":[-32767.0,-29337.0,-32767.0],"normalized":true,"type":"VEC3"},{"bufferView":92,"componentType":5120,"count":53294,"normalized":true,"type":"VEC3"},{"bufferView":93,"componentType":5123,"count":82266,"type":"SCALAR"},{"bufferView":94,"componentType":5122,"count":96,"max":[-26361.0,26781.0,32767.0],"min":[-27386.0,-22202.0,-10176.0],"normalized":true,"type":"VEC3"},{"bufferView":95,"componentType":5120,"count":96,"normalized":true,"type":"VEC3"},{"bufferView":96,"componentType":5123,"count":132,"type":"SCALAR"},{"bufferView":97,"componentType":5122,"count":902,"max":[-10904.0,-25660.0,-13031.0],"min":[-19588.0,-28569.0,-17642.0],"normalized":true,"type":"VEC3"},{"bufferView":98,"componentType":5120,"count":902,"normalized":true,"type":"VEC3"},{"bufferView":99,"componentType":5123,"count":1368,"type":"SCALAR"},{"bufferView":100,"componentType":5122,"count":96,"max":[-25741.0,-22202.0,32767.0],"min":[-28005.0,-32767.0,-10176.0],"normalized":true,"type":"VEC3"},{"bufferView":101,"componentType":5120,"count":96,"normalized":true,"type":"VEC3"},{"bufferView":102,"componentType":5123,"count":132,"type":"SCALAR"},{"bufferView":103,"componentType":5122,"count":48,"max":[-3831.0,-9670.0,-11963.0],"min":[-4392.0,-9670.0,-12528.0],"normalized":true,"type":"VEC3"},{"bufferView":104,"componentType":5120,"count":48,"normalized":true,"type":"VEC3"},{"bufferView":105,"componentType":5123,"count":72,"type":"SCALAR"},{"bufferView":106,"componentType":5122,"count":36429,"max":[32767.0,32767.0,32767.0],"min":[-32767.0,-29555.0,-32767.0],"normalized":true,"type":"VEC3"},{"bufferView":107,"componentType":5120,"count":36429,"normalized":true,"type":"VEC3"},{"bufferView":108,"componentType":5123,"count":36429,"type":"SCALAR"},{"bufferView":109,"componentType":5122,"count":60,"max":[-26414.0,26615.0,32767.0],"min":[-27340.0,-22260.0,-10109.0],"normalized":true,"type":"VEC3"},{"bufferView":110,"componentType":5120,"count":60,"normalized":true,"type":"VEC3"},{"bufferView":111,"componentType":5123,"count":60,"type":"SCALAR"},{"bufferView":112,"componentType":5122,"count":60,"max":[-25828.0,-22645.0,32767.0],"min":[-27926.0,-32767.0,-10064.0],"normalized":true,"type":"VEC3"},{"bufferView":113,"componentType":5120,"count":60,"normalized":true,"type":"VEC3"},{"bufferView":114,"componentType":5123,"count":60,"type":"SCALAR"},{"bufferView":115,"componentType":5122,"count":11199,"max":[32767.0,32767.0,32767.0],"min":[-32767.0,-32767.0,-32767.0],"normalized":true,"type":"VEC3"},{"bufferView":116,"componentType":5120,"count":11199,"normalized":true,"type":"VEC3"},{"bufferView":117,"componentType":5123,"count":11199,"type":"SCALAR"},{"bufferView":118,"componentType":5122,"count":24,"max":[-27082.0,26719.0,32767.0],"min":[-27381.0,-22241.0,-10138.0],"normalized":true,"type":"VEC3"},{"bufferView":119,"componentType":5120,"count":24,"normalized":true,"type":"VEC3"},{"bufferView":120,"componentType":5123,"count":24,"type":"SCALAR"},{"bufferView":121,"componentType":5122,"count":2061,"max":[32767.0,32767.0,32767.0],"min":[-32767.0,-32767.0,-32767.0],"normalized":true,"type":"VEC3"},{"bufferView":122,"componentType":5120,"count":2061,"normalized":true,"type":"VEC3"},{"bufferView":123,"componentType":5123,"count":2061,"type":"SCALAR"},{"bufferView":124,"componentType":5122,"count":24,"max":[-29128.0,26719.0,32767.0],"min":[-29438.0,-22241.0,-10138.0],"normalized":true,"type":"VEC3"},{"bufferView":125,"componentType":5120,"count":24,"normalized":true,"type":"VEC3"},{"bufferView":126,"componentType":5123,"count":24,"type":"SCALAR"},{"bufferView":127,"componentType":5122,"count":96,"normalized":true,"type":"VEC2"},{"bufferView":128,"componentType":5122,"count":96,"normalized":true,"type":"VEC2"},{"bufferView":129,"componentType":5122,"count":128,"normalized":true,"type":"VEC2"},{"bufferView":130,"componentType":5122,"count":56,"normalized":true,"type":"VEC2"},{"bufferView":131,"componentType":5122,"count":1764,"normalized":true,"type":"VEC2"},{"bufferView":132,"componentType":5122,"count":256,"normalized":true,"type":"VEC2"},{"bufferView":133,"componentType":5122,"count":504,"normalized":true,"type":"VEC2"},{"bufferView":134,"componentType":5122,"count":3360,"normalized":true,"type":"VEC2"},{"bufferView":135,"componentType":5122,"count":4592,"normalized":true,"type":"VEC2"},{"bufferView":136,"componentType":5122,"count":7988,"normalized":true,"type":"VEC2"},{"bufferView":137,"componentType":5122,"count":288,"normalized":true,"type":"VEC2"},{"bufferView":138,"componentType":5122,"count":7392,"normalized":true,"type":"VEC2"},{"bufferView":139,"componentType":5122,"count":96,"normalized":true,"type":"VEC2"},{"bufferView":140,"componentType":5122,"count":96,"normalized":true,"type":"VEC2"},{"bufferView":141,"componentType":5122,"count":55,"normalized":true,"type":"VEC2"},{"bufferView":142,"componentType":5122,"count":9615,"normalized":true,"type":"VEC2"},{"bufferView":143,"componentType":5122,"count":3714,"normalized":true,"type":"VEC2"},{"bufferView":144,"componentType":5122,"count":5703,"normalized":true,"type":"VEC2"},{"bufferView":145,"componentType":5122,"count":60,"normalized":true,"type":"VEC2"},{"bufferView":146,"componentType":5122,"count":60,"normalized":true,"type":"VEC2"},{"bufferView":147,"componentType":5122,"count":3882,"normalized":true,"type":"VEC2"},{"bufferView":148,"componentType":5122,"count":1608,"normalized":true,"type":"VEC2"},{"bufferView":149,"componentType":5122,"count":24,"normalized":true,"type":"VEC2"},{"bufferView":150,"componentType":5122,"count":996,"normalized":true,"type":"VEC2"},{"bufferView":151,"componentType":5122,"count":24,"normalized":true,"type":"VEC2"},{"bufferView":152,"componentType":5122,"count":192,"normalized":true,"type":"VEC2"},{"bufferView":153,"componentType":5122,"count":56,"normalized":true,"type":"VEC2"},{"bufferView":154,"componentType":5122,"count":500,"normalized":true,"type":"VEC2"},{"bufferView":155,"componentType":5122,"count":32,"normalized":true,"type":"VEC2"},{"bufferView":156,"componentType":5122,"count":53294,"normalized":true,"type":"VEC2"},{"bufferView":157,"componentType":5122,"count":96,"normalized":true,"type":"VEC2"},{"bufferView":158,"componentType":5122,"count":902,"normalized":true,"type":"VEC2"},{"bufferView":159,"componentType":5122,"count":96,"normalized":true,"type":"VEC2"},{"bufferView":160,"componentType":5122,"count":48,"normalized":true,"type":"VEC2"},{"bufferView":161,"componentType":5122,"count":36429,"normalized":true,"type":"VEC2"},{"bufferView":162,"componentType":5122,"count":60,"normalized":true,"type":"VEC2"},{"bufferView":163,"componentType":5122,"count":60,"normalized":true,"type":"VEC2"},{"bufferView":164,"componentType":5122,"count":11199,"normalized":true,"type":"VEC2"},{"bufferView":165,"componentType":5122,"count":24,"normalized":true,"type":"VEC2"},{"bufferView":166,"componentType":5122,"count":2061,"normalized":true,"type":"VEC2"},{"bufferView":167,"componentType":5122,"count":24,"normalized":true,"type":"VEC2"}],"asset":{"generator":"evermore assetgen","version":"2.0"},"bufferViews":[{"buffer":0,"byteLength":768,"byteOffset":0,"byteStride":8,"target":34962},{"buffer":0,"byteLength":384,"byteOffset":768,"byteStride":4,"target":34962},{"buffer":0,"byteLength":264,"byteOffset":1152,"target":34963},{"buffer":0,"byteLength":768,"byteOffset":1416,"byteStride":8,"target":34962},{"buffer":0,"byteLength":384,"byteOffset":2184,"byteStride":4,"target":34962},{"buffer":0,"byteLength":264,"byteOffset":2568,"target":34963},{"buffer":0,"byteLength":1024,"byteOffset":2832,"byteStride":8,"target":34962},{"buffer":0,"byteLength":512,"byteOffset":3856,"byteStride":4,"target":34962},{"buffer":0,"byteLength":384,"byteOffset":4368,"target":34963},{"buffer":0,"byteLength":448,"byteOffset":4752,"byteStride":8,"target":34962},{"buffer":0,"byteLength":224,"byteOffset":5200,"byteStride":4,"target":34962},{"buffer":0,"byteLength":504,"byteOffset":5424,"target":34963},{"buffer":0,"byteLength":14112,"byteOffset":5928,"byteStride":8,"target":34962},{"buffer":0,"byteLength":7056,"byteOffset":20040,"byteStride":4,"target":34962},{"buffer":0,"byteLength":5832,"byteOffset":27096,"target":34963},{"buffer":0,"byteLength":2048,"byteOffset":32928,"byteStride":8,"target":34962},{"buffer":0,"byteLength":1024,"byteOffset":34976,"byteStride":4,"target":34962},{"buffer":0,"byteLength":768,"byteOffset":36000,"target":34963},{"buffer":0,"byteLength":4032,"byteOffset":36768,"byteStride":8,"target":34962},{"buffer":0,"byteLength":2016,"byteOffset":40800,"byteStride":4,"target":34962},{"buffer":0,"byteLength":1680,"byteOffset":42816,"target":34963},{"buffer":0,"byteLength":26880,"byteOffset":44496,"byteStride":8,"target":34962},{"buffer":0,"byteLength":13440,"byteOffset":71376,"byteStride":4,"target":34962},{"buffer":0,"byteLength":10416,"byteOffset":84816,"target":34963},{"buffer":0,"byteLength":36736,"byteOffset":95232,"byteStride":8,"target":34962},{"buffer":0,"byteLength":18368,"byteOffset":131968,"byteStride":4,"target":34962},{"buffer":0,"byteLength":15240,"byteOffset":150336,"target":34963},{"buffer":0,"byteLength":63904,"byteOffset":165576,"byteStride":8,"target":34962},{"buffer":0,"byteLength":31952,"byteOffset":229480,"byteStride":4,"target":34962},{"buffer":0,"byteLength":23988,"byteOffset":261432,"target":34963},{"buffer":0,"byteLength":2304,"byteOffset":285420,"byteStride":8,"target":34962},{"buffer":0,"byteLength":1152,"byteOffset":287724,"byteStride":4,"target":34962},{"buffer":0,"byteLength":792,"byteOffset":288876,"target":34963},{"buffer":0,"byteLength":59136,"byteOffset":289668,"byteStride":8,"target":34962},{"buffer":0,"byteLength":29568,"byteOffset":348804,"byteStride":4,"target":34962},{"buffer":0,"byteLength":20328,"byteOffset":378372,"target":34963},{"buffer":0,"byteLength":768,"byteOffset":398700,"byteStride":8,"target":34962},{"buffer":0,"byteLength":384,"byteOffset":399468,"byteStride":4,"target":34962},{"buffer":0,"byteLength":264,"byteOffset":399852,"target":34963},{"buffer":0,"byteLength":768,"byteOffset":400116,"byteStride":8,"target":34962},{"buffer":0,"byteLength":384,"byteOffset":400884,"byteStride":4,"target":34962},{"buffer":0,"byteLength":264,"byteOffset":401268,"target":34963},{"buffer":0,"byteLength":440,"byteOffset":401532,"byteStride":8,"target":34962},{"buffer":0,"byteLength":220,"byteOffset":401972,"byteStride":4,"target":34962},{"buffer":0,"byteLength":220,"byteOffset":402192,"byteStride":4,"target":34962},{"buffer":0,"byteLength":540,"byteOffset":402412,"target":34963},{"buffer":0,"byteLength":76920,"byteOffset":402952,"byteStride":8,"target":34962},{"buffer":0,"byteLength":38460,"byteOffset":479872,"byteStride":4,"target":34962},{"buffer":0,"byteLength":38460,"byteOffset":518332,"byteStride":4,"target":34962},{"buffer":0,"byteLength":19230,"byteOffset":556792,"target":34963},{"buffer":0,"byteLength":29712,"byteOffset":576024,"byteStride":8,"target":34962},{"buffer":0,"byteLength":14856,"byteOffset":605736,"byteStride":4,"target":34962},{"buffer":0,"byteLength":7428,"byteOffset":620592,"target":34963},{"buffer":0,"byteLength":45624,"byteOffset":628020,"byteStride":8,"target":34962},{"buffer":0,"byteLength":22812,"byteOffset":673644,"byteStride":4,"target":34962},{"buffer":0,"byteLength":11406,"byteOffset":696456,"target":34963},{"buffer":0,"byteLength":480,"byteOffset":707864,"byteStride":8,"target":34962},{"buffer":0,"byteLength":240,"byteOffset":708344,"byteStride":4,"target":34962},{"buffer":0,"byteLength":120,"byteOffset":708584,"target":34963},{"buffer":0,"byteLength":480,"byteOffset":708704,"byteStride":8,"target":34962},{"buffer":0,"byteLength":240,"byteOffset":709184,"byteStride":4,"target":34962},{"buffer":0,"byteLength":120,"byteOffset":709424,"target":34963},{"buffer":0,"byteLength":31056,"byteOffset":709544,"byteStride":8,"target":34962},{"buffer":0,"byteLength":15528,"byteOffset":740600,"byteStride":4,"target":34962},{"buffer":0,"byteLength":15528,"byteOffset":756128,"byteStride":4,"target":34962},{"buffer":0,"byteLength":7764,"byteOffset":771656,"target":34963},{"buffer":0,"byteLength":12864,"byteOffset":779420,"byteStride":8,"target":34962},{"buffer":0,"byteLength":6432,"byteOffset":792284,"byteStride":4,"target":34962},{"buffer":0,"byteLength":3216,"byteOffset":798716,"target":34963},{"buffer":0,"byteLength":192,"byteOffset":801932,"byteStride":8,"target":34962},{"buffer":0,"byteLength":96,"byteOffset":802124,"byteStride":4,"target":34962},{"buffer":0,"byteLength":48,"byteOffset":802220,"target":34963},{"buffer":0,"byteLength":7968,"byteOffset":802268,"byteStride":8,"target":34962},{"buffer":0,"byteLength":3984,"byteOffset":810236,"byteStride":4,"target":34962},{"buffer":0,"byteLength":3984,"byteOffset":814220,"byteStride":4,"target":34962},{"buffer":0,"byteLength":1992,"byteOffset":818204,"target":34963},{"buffer":0,"byteLength":192,"byteOffset":820196,"byteStride":8,"target":34962},{"buffer":0,"byteLength":96,"byteOffset":820388,"byteStride":4,"target":34962},{"buffer":0,"byteLength":48,"byteOffset":820484,"target":34963},{"buffer":0,"byteLength":1536,"byteOffset":820532,"byteStride":8,"target":34962},{"buffer":0,"byteLength":768,"byteOffset":822068,"byteStride":4,"target":34962},{"buffer":0,"byteLength":528,"byteOffset":822836,"target":34963},{"buffer":0,"byteLength":448,"byteOffset":823364,"byteStride":8,"target":34962},{"buffer":0,"byteLength":224,"byteOffset":823812,"byteStride":4,"target":34962},{"buffer":0,"byteLength":504,"byteOffset":824036,"target":34963},{"buffer":0,"byteLength":4000,"byteOffset":824540,"byteStride":8,"target":34962},{"buffer":0,"byteLength":2000,"byteOffset":828540,"byteStride":4,"target":34962},{"buffer":0,"byteLength":1644,"byteOffset":830540,"target":34963},{"buffer":0,"byteLength":256,"byteOffset":832184,"byteStride":8,"target":34962},{"buffer":0,"byteLength":128,"byteOffset":832440,"byteStride":4,"target":34962},{"buffer":0,"byteLength":96,"byteOffset":832568,"target":34963},{"buffer":0,"byteLength":426352,"byteOffset":832664,"byteStride":8,"target":34962},{"buffer":0,"byteLength":213176,"byteOffset":1259016,"byteStride":4,"target":34962},{"buffer":0,"byteLength":164532,"byteOffset":1472192,"target":34963},{"buffer":0,"byteLength":768,"byteOffset":1636724,"byteStride":8,"target":34962},{"buffer":0,"byteLength":384,"byteOffset":1637492,"byteStride":4,"target":34962},{"buffer":0,"byteLength":264,"byteOffset":1637876,"target":34963},{"buffer":0,"byteLength":7216,"byteOffset":1638140,"byteStride":8,"target":34962},{"buffer":0,"byteLength":3608,"byteOffset":1645356,"byteStride":4,"target":34962},{"buffer":0,"byteLength":2736,"byteOffset":1648964,"target":34963},{"buffer":0,"byteLength":768,"byteOffset":1651700,"byteStride":8,"target":34962},{"buffer":0,"byteLength":384,"byteOffset":1652468,"byteStride":4,"target":34962},{"buffer":0,"byteLength":264,"byteOffset":1652852,"target":34963},{"buffer":0,"byteLength":384,"byteOffset":1653116,"byteStride":8,"target":34962},{"buffer":0,"byteLength":192,"byteOffset":1653500,"byteStride":4,"target":34962},{"buffer":0,"byteLength":144,"byteOffset":1653692,"target":34963},{"buffer":0,"byteLength":291432,"byteOffset":1653836,"byteStride":8,"target":34962},{"buffer":0,"byteLength":145716,"byteOffset":1945268,"byteStride":4,"target":34962},{"buffer":0,"byteLength":72858,"byteOffset":2090984,"target":34963},{"buffer":0,"byteLength":480,"byteOffset":2163844,"byteStride":8,"target":34962},{"buffer":0,"byteLength":240,"byteOffset":2164324,"byteStride":4,"target":34962},{"buffer":0,"byteLength":120,"byteOffset":2164564,"target":34963},{"buffer":0,"byteLength":480,"byteOffset":2164684,"byteStride":8,"target":34962},{"buffer":0,"byteLength":240,"byteOffset":2165164,"byteStride":4,"target":34962},{"buffer":0,"byteLength":120,"byteOffset":2165404,"target":34963},{"buffer":0,"byteLength":89592,"byteOffset":2165524,"byteStride":8,"target":34962},{"buffer":0,"byteLength":44796,"byteOffset":2255116,"byteStride":4,"target":34962},{"buffer":0,"byteLength":22398,"byteOffset":2299912,"target":34963},{"buffer":0,"byteLength":192,"byteOffset":2322312,"byteStride":8,"target":34962},{"buffer":0,"byteLength":96,"byteOffset":2322504,"byteStride":4,"target":34962},{"buffer":0,"byteLength":48,"byteOffset":2322600,"target":34963},{"buffer":0,"byteLength":16488,"byteOffset":2322648,"byteStride":8,"target":34962},{"buffer":0,"byteLength":8244,"byteOffset":2339136,"byteStride":4,"target":34962},{"buffer":0,"byteLength":4122,"byteOffset":2347380,"target":34963},{"buffer":0,"byteLength":192,"byteOffset":2351504,"byteStride":8,"target":34962},{"buffer":0,"byteLength":96,"byteOffset":2351696,"byteStride":4,"target":34962},{"buffer":0,"byteLength":48,"byteOffset":2351792,"target":34963},{"buffer":0,"byteLength":384,"byteOffset":2351840,"byteStride":4,"target":34962},{"buffer":0,"byteLength":384,"byteOffset":2352224,"byteStride":4,"target":34962},{"buffer":0,"byteLength":512,"byteOffset":2352608,"byteStride":4,"target":34962},{"buffer":0,"byteLength":224,"byteOffset":2353120,"byteStride":4,"target":34962},{"buffer":0,"byteLength":7056,"byteOffset":2353344,"byteStride":4,"target":34962},{"buffer":0,"byteLength":1024,"byteOffset":2360400,"byteStride":4,"target":34962},{"buffer":0,"byteLength":2016,"byteOffset":2361424,"byteStride":4,"target":34962},{"buffer":0,"byteLength":13440,"byteOffset":2363440,"byteStride":4,"target":34962},{"buffer":0,"byteLength":18368,"byteOffset":2376880,"byteStride":4,"target":34962},{"buffer":0,"byteLength":31952,"byteOffset":2395248,"byteStride":4,"target":34962},{"buffer":0,"byteLength":1152,"byteOffset":2427200,"byteStride":4,"target":34962},{"buffer":0,"byteLength":29568,"byteOffset":2428352,"byteStride":4,"target":34962},{"buffer":0,"byteLength":384,"byteOffset":2457920,"byteStride":4,"target":34962},{"buffer":0,"byteLength":384,"byteOffset":2458304,"byteStride":4,"target":34962},{"buffer":0,"byteLength":220,"byteOffset":2458688,"byteStride":4,"target":34962},{"buffer":0,"byteLength":38460,"byteOffset":2458908,"byteStride":4,"target":34962},{"buffer":0,"byteLength":14856,"byteOffset":2497368,"byteStride":4,"target":34962},{"buffer":0,"byteLength":22812,"byteOffset":2512224,"byteStride":4,"target":34962},{"buffer":0,"byteLength":240,"byteOffset":2535036,"byteStride":4,"target":34962},{"buffer":0,"byteLength":240,"byteOffset":2535276,"byteStride":4,"target":34962},{"buffer":0,"byteLength":15528,"byteOffset":2535516,"byteStride":4,"target":34962},{"buffer":0,"byteLength":6432,"byteOffset":2551044,"byteStride":4,"target":34962},{"buffer":0,"byteLength":96,"byteOffset":2557476,"byteStride":4,"target":34962},{"buffer":0,"byteLength":3984,"byteOffset":2557572,"byteStride":4,"target":34962},{"buffer":0,"byteLength":96,"byteOffset":2561556,"byteStride":4,"target":34962},{"buffer":0,"byteLength":768,"byteOffset":2561652,"byteStride":4,"target":34962},{"buffer":0,"byteLength":224,"byteOffset":2562420,"byteStride":4,"target":34962},{"buffer":0,"byteLength":2000,"byteOffset":2562644,"byteStride":4,"target":34962},{"buffer":0,"byteLength":128,"byteOffset":2564644,"byteStride":4,"target":34962},{"buffer":0,"byteLength":213176,"byteOffset":2564772,"byteStride":4,"target":34962},{"buffer":0,"byteLength":384,"byteOffset":2777948,"byteStride":4,"target":34962},{"buffer":0,"byteLength":3608,"byteOffset":2778332,"byteStride":4,"target":34962},{"buffer":0,"byteLength":384,"byteOffset":2781940,"byteStride":4,"target":34962},{"buffer":0,"byteLength":192,"byteOffset":2782324,"byteStride":4,"target":34962},{"buffer":0,"byteLength":145716,"byteOffset":2782516,"byteStride":4,"target":34962},{"buffer":0,"byteLength":240,"byteOffset":2928232,"byteStride":4,"target":34962},{"buffer":0,"byteLength":240,"byteOffset":2928472,"byteStride":4,"target":34962},{"buffer":0,"byteLength":44796,"byteOffset":2928712,"byteStride":4,"target":34962},{"buffer":0,"byteLength":96,"byteOffset":2973508,"byteStride":4,"target":34962},{"buffer":0,"byteLength":8244,"byteOffset":2973604,"byteStride":4,"target":34962},{"buffer":0,"byteLength":96,"byteOffset":2981848,"byteStride":4,"target":34962}],"buffers":[{"byteLength":2981944,"uri":"props_situ.bin"}],"extensionsRequired":["KHR_mesh_quantization","KHR_texture_transform"],"extensionsUsed":["KHR_mesh_quantization","KHR_texture_transform","MSFT_lod"],"extras":{"hm":{"batching":true,"cellSize":16.0,"cells":[{"cullAt":null,"interior":null,"key":"0_0","lodPrims":[2],"lodTris":[88],"max":[4.4,3.1,0.17],"min":[-4.4,0.0,-0.17]},{"cullAt":null,"interior":null,"key":"0_n1","lodPrims":[13,5,3,2],"lodTris":[13500,6384,1838,340],"max":[6.216,3.1,0.915],"min":[-6.216,-3.926,-11.516]},{"cullAt":null,"interior":null,"key":"n1_n1","lodPrims":[9,3,2,2],"lodTris":[28452,12183,3741,695],"max":[4.558,3.412,0.0],"min":[-5.285,0.0,-9.767]}],"instanced":[],"instancing":true,"interiors":[],"lod":true,"lodDistances":[15.0,40.0,100.0],"stats":{"groups":3,"lodPrims":[24,10,7,6],"lodTris":[42040,18655,5667,1123]},"venue":"props_situ"}},"images":[{"uri":"../textures/dirt_albedo.png"},{"uri":"../textures/dirt_orm.png"},{"uri":"../textures/dirt_normal.png"},{"uri":"../textures/stone_albedo.png"},{"uri":"../textures/stone_orm.png"},{"uri":"../textures/stone_normal.png"},{"uri":"../textures/plaster_albedo.png"},{"uri":"../textures/plaster_orm.png"},{"uri":"../textures/plaster_normal.png"},{"uri":"../textures/kit_albedo.png"},{"uri":"../textures/kit_orm.png"},{"uri":"../textures/kit_normal.png"},{"uri":"../textures/grass_worn_albedo.png"},{"uri":"../textures/grass_worn_orm.png"},{"uri":"../textures/grass_worn_normal.png"},{"uri":"../textures/algae_albedo.png"},{"uri":"../textures/algae_orm.png"},{"uri":"../textures/algae_normal.png"},{"uri":"../textures/water_albedo.png"},{"uri":"../textures/water_orm.png"},{"uri":"../textures/water_normal.png"},{"uri":"../textures/leaf_oak_albedo.png"},{"uri":"../textures/leaf_oak_orm.png"},{"uri":"../textures/leaf_oak_normal.png"},{"uri":"../textures/mud_wet_albedo.png"},{"uri":"../textures/mud_wet_orm.png"},{"uri":"../textures/mud_wet_normal.png"},{"uri":"../textures/endgrain_albedo.png"},{"uri":"../textures/endgrain_orm.png"},{"uri":"../textures/endgrain_normal.png"},{"uri":"../textures/cloth_blue_albedo.png"},{"uri":"../textures/cloth_blue_orm.png"},{"uri":"../textures/cloth_blue_normal.png"},{"uri":"../textures/cloth_green_albedo.png"},{"uri":"../textures/cloth_green_orm.png"},{"uri":"../textures/cloth_green_normal.png"},{"uri":"../textures/grass_dry_albedo.png"},{"uri":"../textures/grass_dry_orm.png"},{"uri":"../textures/grass_dry_normal.png"},{"uri":"../textures/foliage_albedo.png"},{"uri":"../textures/foliage_orm.png"},{"uri":"../textures/foliage_normal.png"},{"uri":"../textures/cinder_albedo.png"},{"uri":"../textures/cinder_orm.png"},{"uri":"../textures/cinder_normal.png"},{"uri":"../textures/glass_albedo.png"},{"uri":"../textures/glass_orm.png"},{"uri":"../textures/glass_normal.png"},{"uri":"../textures/glass_emissive.png"},{"uri":"../textures/sand_albedo.png"},{"uri":"../textures/sand_orm.png"},{"uri":"../textures/sand_normal.png"},{"uri":"../textures/cobble_albedo.png"},{"uri":"../textures/cobble_orm.png"},{"uri":"../textures/cobble_normal.png"}],"materials":[{"doubleSided":false,"name":"dirt","normalTexture":{"extensions":{"KHR_texture_transform":{"scale":[4.606340707307339,4.606340707307339]}},"index":2,"scale":1.0},"occlusionTexture":{"extensions":{"KHR_texture_transform":{"scale":[4.606340707307339,4.606340707307339]}},"index":1},"pbrMetallicRoughness":{"baseColorFactor":[1,1,1,1],"baseColorTexture":{"extensions":{"KHR_texture_transform":{"scale":[4.606340707307339,4.606340707307339]}},"index":0},"metallicFactor":1.0,"metallicRoughnessTexture":{"extensions":{"KHR_texture_transform":{"scale":[4.606340707307339,4.606340707307339]}},"index":1},"roughnessFactor":1.0}},{"doubleSided":false,"name":"stone","normalTexture":{"extensions":{"KHR_texture_transform":{"scale":[4.606340707307339,4.606340707307339]}},"index":5,"scale":1.0},"occlusionTexture":{"extensions":{"KHR_texture_transform":{"scale":[4.606340707307339,4.606340707307339]}},"index":4},"pbrMetallicRoughness":{"baseColorFactor":[1,1,1,1],"baseColorTexture":{"extensions":{"KHR_texture_transform":{"scale":[4.606340707307339,4.606340707307339]}},"index":3},"metallicFactor":1.0,"metallicRoughnessTexture":{"extensions":{"KHR_texture_transform":{"scale":[4.606340707307339,4.606340707307339]}},"index":4},"roughnessFactor":1.0}},{"doubleSided":false,"name":"plaster","normalTexture":{"extensions":{"KHR_texture_transform":{"scale":[4.606340707307339,4.606340707307339]}},"index":8,"scale":1.0},"occlusionTexture":{"extensions":{"KHR_texture_transform":{"scale":[4.606340707307339,4.606340707307339]}},"index":7},"pbrMetallicRoughness":{"baseColorFactor":[1,1,1,1],"baseColorTexture":{"extensions":{"KHR_texture_transform":{"scale":[4.606340707307339,4.606340707307339]}},"index":6},"metallicFactor":1.0,"metallicRoughnessTexture":{"extensions":{"KHR_texture_transform":{"scale":[4.606340707307339,4.606340707307339]}},"index":7},"roughnessFactor":1.0}},{"doubleSided":true,"name":"kit","normalTexture":{"extensions":{"KHR_texture_transform":{"scale":[4.606340707307339,4.606340707307339]}},"index":11,"scale":1.0},"occlusionTexture":{"extensions":{"KHR_texture_transform":{"scale":[4.606340707307339,4.606340707307339]}},"index":10},"pbrMetallicRoughness":{"baseColorFactor":[1,1,1,1],"baseColorTexture":{"extensions":{"KHR_texture_transform":{"scale":[4.606340707307339,4.606340707307339]}},"index":9},"metallicFactor":1.0,"metallicRoughnessTexture":{"extensions":{"KHR_texture_transform":{"scale":[4.606340707307339,4.606340707307339]}},"index":10},"roughnessFactor":1.0}},{"doubleSided":false,"name":"grass_worn","normalTexture":{"extensions":{"KHR_texture_transform":{"scale":[4.606340707307339,4.606340707307339]}},"index":14,"scale":1.0},"occlusionTexture":{"extensions":{"KHR_texture_transform":{"scale":[4.606340707307339,4.606340707307339]}},"index":13},"pbrMetallicRoughness":{"baseColorFactor":[1,1,1,1],"baseColorTexture":{"extensions":{"KHR_texture_transform":{"scale":[4.606340707307339,4.606340707307339]}},"index":12},"metallicFactor":1.0,"metallicRoughnessTexture":{"extensions":{"KHR_texture_transform":{"scale":[4.606340707307339,4.606340707307339]}},"index":13},"roughnessFactor":1.0}},{"doubleSided":false,"name":"algae","normalTexture":{"extensions":{"KHR_texture_transform":{"scale":[4.606340707307339,4.606340707307339]}},"index":17,"scale":1.0},"occlusionTexture":{"extensions":{"KHR_texture_transform":{"scale":[4.606340707307339,4.606340707307339]}},"index":16},"pbrMetallicRoughness":{"baseColorFactor":[1,1,1,1],"baseColorTexture":{"extensions":{"KHR_texture_transform":{"scale":[4.606340707307339,4.606340707307339]}},"index":15},"metallicFactor":1.0,"metallicRoughnessTexture":{"extensions":{"KHR_texture_transform":{"scale":[4.606340707307339,4.606340707307339]}},"index":16},"roughnessFactor":1.0}},{"alphaMode":"BLEND","doubleSided":false,"name":"water","normalTexture":{"extensions":{"KHR_texture_transform":{"scale":[4.606340707307339,4.606340707307339]}},"index":20,"scale":1.0},"occlusionTexture":{"extensions":{"KHR_texture_transform":{"scale":[4.606340707307339,4.606340707307339]}},"index":19},"pbrMetallicRoughness":{"baseColorFactor":[1,1,1,1],"baseColorTexture":{"extensions":{"KHR_texture_transform":{"scale":[4.606340707307339,4.606340707307339]}},"index":18},"metallicFactor":1.0,"metallicRoughnessTexture":{"extensions":{"KHR_texture_transform":{"scale":[4.606340707307339,4.606340707307339]}},"index":19},"roughnessFactor":1.0}},{"alphaCutoff":0.5,"alphaMode":"MASK","doubleSided":true,"name":"leaf_oak","normalTexture":{"extensions":{"KHR_texture_transform":{"scale":[4.606340707307339,4.606340707307339]}},"index":23,"scale":1.0},"occlusionTexture":{"extensions":{"KHR_texture_transform":{"scale":[4.606340707307339,4.606340707307339]}},"index":22},"pbrMetallicRoughness":{"baseColorFactor":[1,1,1,1],"baseColorTexture":{"extensions":{"KHR_texture_transform":{"scale":[4.606340707307339,4.606340707307339]}},"index":21},"metallicFactor":1.0,"metallicRoughnessTexture":{"extensions":{"KHR_texture_transform":{"scale":[4.606340707307339,4.606340707307339]}},"index":22},"roughnessFactor":1.0}},{"doubleSided":false,"name":"mud_wet","normalTexture":{"extensions":{"KHR_texture_transform":{"scale":[4.606340707307339,4.606340707307339]}},"index":26,"scale":1.0},"occlusionTexture":{"extensions":{"KHR_texture_transform":{"scale":[4.606340707307339,4.606340707307339]}},"index":25},"pbrMetallicRoughness":{"baseColorFactor":[1,1,1,1],"baseColorTexture":{"extensions":{"KHR_texture_transform":{"scale":[4.606340707307339,4.606340707307339]}},"index":24},"metallicFactor":1.0,"metallicRoughnessTexture":{"extensions":{"KHR_texture_transform":{"scale":[4.606340707307339,4.606340707307339]}},"index":25},"roughnessFactor":1.0}},{"doubleSided":false,"name":"endgrain","normalTexture":{"extensions":{"KHR_texture_transform":{"scale":[4.606340707307339,4.606340707307339]}},"index":29,"scale":1.0},"occlusionTexture":{"extensions":{"KHR_texture_transform":{"scale":[4.606340707307339,4.606340707307339]}},"index":28},"pbrMetallicRoughness":{"baseColorFactor":[1,1,1,1],"baseColorTexture":{"extensions":{"KHR_texture_transform":{"scale":[4.606340707307339,4.606340707307339]}},"index":27},"metallicFactor":1.0,"metallicRoughnessTexture":{"extensions":{"KHR_texture_transform":{"scale":[4.606340707307339,4.606340707307339]}},"index":28},"roughnessFactor":1.0}},{"doubleSided":true,"name":"cloth_blue","normalTexture":{"extensions":{"KHR_texture_transform":{"scale":[4.606340707307339,4.606340707307339]}},"index":32,"scale":1.0},"occlusionTexture":{"extensions":{"KHR_texture_transform":{"scale":[4.606340707307339,4.606340707307339]}},"index":31},"pbrMetallicRoughness":{"baseColorFactor":[1,1,1,1],"baseColorTexture":{"extensions":{"KHR_texture_transform":{"scale":[4.606340707307339,4.606340707307339]}},"index":30},"metallicFactor":1.0,"metallicRoughnessTexture":{"extensions":{"KHR_texture_transform":{"scale":[4.606340707307339,4.606340707307339]}},"index":31},"roughnessFactor":1.0}},{"doubleSided":true,"name":"cloth_green","normalTexture":{"extensions":{"KHR_texture_transform":{"scale":[4.606340707307339,4.606340707307339]}},"index":35,"scale":1.0},"occlusionTexture":{"extensions":{"KHR_texture_transform":{"scale":[4.606340707307339,4.606340707307339]}},"index":34},"pbrMetallicRoughness":{"baseColorFactor":[1,1,1,1],"baseColorTexture":{"extensions":{"KHR_texture_transform":{"scale":[4.606340707307339,4.606340707307339]}},"index":33},"metallicFactor":1.0,"metallicRoughnessTexture":{"extensions":{"KHR_texture_transform":{"scale":[4.606340707307339,4.606340707307339]}},"index":34},"roughnessFactor":1.0}},{"doubleSided":false,"name":"grass_dry","normalTexture":{"extensions":{"KHR_texture_transform":{"scale":[4.606340707307339,4.606340707307339]}},"index":38,"scale":1.0},"occlusionTexture":{"extensions":{"KHR_texture_transform":{"scale":[4.606340707307339,4.606340707307339]}},"index":37},"pbrMetallicRoughness":{"baseColorFactor":[1,1,1,1],"baseColorTexture":{"extensions":{"KHR_texture_transform":{"scale":[4.606340707307339,4.606340707307339]}},"index":36},"metallicFactor":1.0,"metallicRoughnessTexture":{"extensions":{"KHR_texture_transform":{"scale":[4.606340707307339,4.606340707307339]}},"index":37},"roughnessFactor":1.0}},{"doubleSided":true,"name":"foliage","normalTexture":{"extensions":{"KHR_texture_transform":{"scale":[4.606340707307339,4.606340707307339]}},"index":41,"scale":1.0},"occlusionTexture":{"extensions":{"KHR_texture_transform":{"scale":[4.606340707307339,4.606340707307339]}},"index":40},"pbrMetallicRoughness":{"baseColorFactor":[1,1,1,1],"baseColorTexture":{"extensions":{"KHR_texture_transform":{"scale":[4.606340707307339,4.606340707307339]}},"index":39},"metallicFactor":1.0,"metallicRoughnessTexture":{"extensions":{"KHR_texture_transform":{"scale":[4.606340707307339,4.606340707307339]}},"index":40},"roughnessFactor":1.0}},{"doubleSided":false,"name":"cinder","normalTexture":{"extensions":{"KHR_texture_transform":{"scale":[4.606340707307339,4.606340707307339]}},"index":44,"scale":1.0},"occlusionTexture":{"extensions":{"KHR_texture_transform":{"scale":[4.606340707307339,4.606340707307339]}},"index":43},"pbrMetallicRoughness":{"baseColorFactor":[1,1,1,1],"baseColorTexture":{"extensions":{"KHR_texture_transform":{"scale":[4.606340707307339,4.606340707307339]}},"index":42},"metallicFactor":1.0,"metallicRoughnessTexture":{"extensions":{"KHR_texture_transform":{"scale":[4.606340707307339,4.606340707307339]}},"index":43},"roughnessFactor":1.0}},{"alphaMode":"BLEND","doubleSided":true,"emissiveFactor":[1.0,1.0,1.0],"emissiveTexture":{"extensions":{"KHR_texture_transform":{"scale":[4.606340707307339,4.606340707307339]}},"index":48},"name":"glass","normalTexture":{"extensions":{"KHR_texture_transform":{"scale":[4.606340707307339,4.606340707307339]}},"index":47,"scale":1.0},"occlusionTexture":{"extensions":{"KHR_texture_transform":{"scale":[4.606340707307339,4.606340707307339]}},"index":46},"pbrMetallicRoughness":{"baseColorFactor":[1,1,1,1],"baseColorTexture":{"extensions":{"KHR_texture_transform":{"scale":[4.606340707307339,4.606340707307339]}},"index":45},"metallicFactor":1.0,"metallicRoughnessTexture":{"extensions":{"KHR_texture_transform":{"scale":[4.606340707307339,4.606340707307339]}},"index":46},"roughnessFactor":1.0}},{"doubleSided":false,"name":"sand","normalTexture":{"extensions":{"KHR_texture_transform":{"scale":[4.606340707307339,4.606340707307339]}},"index":51,"scale":1.0},"occlusionTexture":{"extensions":{"KHR_texture_transform":{"scale":[4.606340707307339,4.606340707307339]}},"index":50},"pbrMetallicRoughness":{"baseColorFactor":[1,1,1,1],"baseColorTexture":{"extensions":{"KHR_texture_transform":{"scale":[4.606340707307339,4.606340707307339]}},"index":49},"metallicFactor":1.0,"metallicRoughnessTexture":{"extensions":{"KHR_texture_transform":{"scale":[4.606340707307339,4.606340707307339]}},"index":50},"roughnessFactor":1.0}},{"doubleSided":false,"name":"cobble","normalTexture":{"extensions":{"KHR_texture_transform":{"scale":[4.606340707307339,4.606340707307339]}},"index":54,"scale":1.0},"occlusionTexture":{"extensions":{"KHR_texture_transform":{"scale":[4.606340707307339,4.606340707307339]}},"index":53},"pbrMetallicRoughness":{"baseColorFactor":[1,1,1,1],"baseColorTexture":{"extensions":{"KHR_texture_transform":{"scale":[4.606340707307339,4.606340707307339]}},"index":52},"metallicFactor":1.0,"metallicRoughnessTexture":{"extensions":{"KHR_texture_transform":{"scale":[4.606340707307339,4.606340707307339]}},"index":53},"roughnessFactor":1.0}}],"meshes":[{"name":"props_situ#0_0","primitives":[{"attributes":{"NORMAL":1,"POSITION":0,"TEXCOORD_0":127},"indices":2,"material":2},{"attributes":{"NORMAL":4,"POSITION":3,"TEXCOORD_0":128},"indices":5,"material":1}]},{"name":"props_situ#0_n1","primitives":[{"attributes":{"NORMAL":7,"POSITION":6,"TEXCOORD_0":129},"indices":8,"material":5},{"attributes":{"NORMAL":10,"POSITION":9,"TEXCOORD_0":130},"indices":11,"material":11},{"attributes":{"NORMAL":13,"POSITION":12,"TEXCOORD_0":131},"indices":14,"material":17},{"attributes":{"NORMAL":16,"POSITION":15,"TEXCOORD_0":132},"indices":17,"material":0},{"attributes":{"NORMAL":19,"POSITION":18,"TEXCOORD_0":133},"indices":20,"material":13},{"attributes":{"NORMAL":22,"POSITION":21,"TEXCOORD_0":134},"indices":23,"material":12},{"attributes":{"NORMAL":25,"POSITION":24,"TEXCOORD_0":135},"indices":26,"material":4},{"attributes":{"NORMAL":28,"POSITION":27,"TEXCOORD_0":136},"indices":29,"material":3},{"attributes":{"NORMAL":31,"POSITION":30,"TEXCOORD_0":137},"indices":32,"material":7},{"attributes":{"NORMAL":34,"POSITION":33,"TEXCOORD_0":138},"indices":35,"material":8},{"attributes":{"NORMAL":37,"POSITION":36,"TEXCOORD_0":139},"indices":38,"material":2},{"attributes":{"NORMAL":40,"POSITION":39,"TEXCOORD_0":140},"indices":41,"material":1},{"attributes":{"COLOR_0":44,"NORMAL":43,"POSITION":42,"TEXCOORD_0":141},"indices":45,"material":6}]},{"name":"props_situ#0_n1$lod1","primitives":[{"attributes":{"COLOR_0":48,"NORMAL":47,"POSITION":46,"TEXCOORD_0":142},"indices":49,"material":0},{"attributes":{"NORMAL":51,"POSITION":50,"TEXCOORD_0":143},"indices":52,"material":4},{"attributes":{"NORMAL":54,"POSITION":53,"TEXCOORD_0":144},"indices":55,"material":3},{"attributes":{"NORMAL":57,"POSITION":56,"TEXCOORD_0":145},"indices":58,"material":2},{"attributes":{"NORMAL":60,"POSITION":59,"TEXCOORD_0":146},"indices":61,"material":1}]},{"name":"props_situ#0_n1$lod2","primitives":[{"attributes":{"COLOR_0":64,"NORMAL":63,"POSITION":62,"TEXCOORD_0":147},"indices":65,"material":0},{"attributes":{"NORMAL":67,"POSITION":66,"TEXCOORD_0":148},"indices":68,"material":3},{"attributes":{"NORMAL":70,"POSITION":69,"TEXCOORD_0":149},"indices":71,"material":2}]},{"name":"props_situ#0_n1$lod3","primitives":[{"attributes":{"COLOR_0":74,"NORMAL":73,"POSITION":72,"TEXCOORD_0":150},"indices":75,"material":0},{"attributes":{"NORMAL":77,"POSITION":76,"TEXCOORD_0":151},"indices":78,"material":2}]},{"name":"props_situ#n1_n1","primitives":[{"attributes":{"NORMAL":80,"POSITION":79,"TEXCOORD_0":152},"indices":81,"material":14},{"attributes":{"NORMAL":83,"POSITION":82,"TEXCOORD_0":153},"indices":84,"material":10},{"attributes":{"NORMAL":86,"POSITION":85,"TEXCOORD_0":154},"indices":87,"material":9},{"attributes":{"NORMAL":89,"POSITION":88,"TEXCOORD_0":155},"indices":90,"material":15},{"attributes":{"NORMAL":92,"POSITION":91,"TEXCOORD_0":156},"indices":93,"material":3},{"attributes":{"NORMAL":95,"POSITION":94,"TEXCOORD_0":157},"indices":96,"material":2},{"attributes":{"NORMAL":98,"POSITION":97,"TEXCOORD_0":158},"indices":99,"material":16},{"attributes":{"NORMAL":101,"POSITION":100,"TEXCOORD_0":159},"indices":102,"material":1},{"attributes":{"NORMAL":104,"POSITION":103,"TEXCOORD_0":160},"indices":105,"material":6}]},{"name":"props_situ#n1_n1$lod1","primitives":[{"attributes":{"NORMAL":107,"POSITION":106,"TEXCOORD_0":161},"indices":108,"material":3},{"attributes":{"NORMAL":110,"POSITION":109,"TEXCOORD_0":162},"indices":111,"material":2},{"attributes":{"NORMAL":113,"POSITION":112,"TEXCOORD_0":163},"indices":114,"material":1}]},{"name":"props_situ#n1_n1$lod2","primitives":[{"attributes":{"NORMAL":116,"POSITION":115,"TEXCOORD_0":164},"indices":117,"material":3},{"attributes":{"NORMAL":119,"POSITION":118,"TEXCOORD_0":165},"indices":120,"material":2}]},{"name":"props_situ#n1_n1$lod3","primitives":[{"attributes":{"NORMAL":122,"POSITION":121,"TEXCOORD_0":166},"indices":123,"material":3},{"attributes":{"NORMAL":125,"POSITION":124,"TEXCOORD_0":167},"indices":126,"material":2}]}],"nodes":[{"extras":{"hm":{"cell":"0_0","cullAt":null,"interior":null,"lod":0,"max":[4.4,3.1,0.17],"min":[-4.4,0.0,-0.17],"prims":2,"tris":88,"venue":"props_situ"}},"mesh":0,"name":"props_situ#0_0","scale":[4.400000095367432,1.5499999523162842,0.17000000178813934],"translation":[0.0,1.5499999523162842,0.0]},{"extensions":{"MSFT_lod":{"ids":[2,3,4]}},"extras":{"MSFT_screencoverage":[1.0,0.4546,0.18184,0.0],"hm":{"cell":"0_n1","cullAt":null,"interior":null,"lod":0,"max":[6.216,3.1,0.915],"min":[-6.216,-3.926,-11.516],"prims":13,"tris":13500,"venue":"props_situ"}},"mesh":1,"name":"props_situ#0_n1","scale":[6.215500354766846,3.512795925140381,6.2154998779296875],"translation":[0.0,-0.41279590129852295,-5.300000190734863]},{"extras":{"hm":{"cell":"0_n1","cullAt":null,"interior":null,"lod":1,"max":[6.216,3.1,0.915],"min":[-6.216,-3.926,-11.516],"prims":5,"tris":6384,"venue":"props_situ"}},"mesh":2,"name":"props_situ#0_n1$lod1","scale":[6.215500354766846,3.5090458393096924,6.2154998779296875],"translation":[0.0,-0.4165458679199219,-5.300000190734863]},{"extras":{"hm":{"cell":"0_n1","cullAt":null,"interior":null,"lod":2,"max":[6.216,3.1,0.915],"min":[-6.216,-3.926,-11.516],"prims":3,"tris":1838,"venue":"props_situ"}},"mesh":3,"name":"props_situ#0_n1$lod2","scale":[6.215500354766846,3.5075459480285645,6.2154998779296875],"translation":[0.0,-0.41804587841033936,-5.300000190734863]},{"extras":{"hm":{"cell":"0_n1","cullAt":null,"interior":null,"lod":3,"max":[6.216,3.1,0.915],"min":[-6.216,-3.926,-11.516],"prims":2,"tris":340,"venue":"props_situ"}},"mesh":4,"name":"props_situ#0_n1$lod3","scale":[6.215500354766846,3.4892525672912598,6.2154998779296875],"translation":[0.0,-0.43633925914764404,-5.300000190734863]},{"extensions":{"MSFT_lod":{"ids":[6,7,8]}},"extras":{"MSFT_screencoverage":[0.91437,0.34289,0.13716,0.0],"hm":{"cell":"n1_n1","cullAt":null,"interior":null,"lod":0,"max":[4.558,3.412,0.0],"min":[-5.285,0.0,-9.767],"prims":9,"tris":28452,"venue":"props_situ"}},"mesh":5,"name":"props_situ#n1_n1","scale":[4.921385765075684,1.7058067321777344,4.883453369140625],"translation":[-0.36380648612976074,1.7058067321777344,-4.883453369140625]},{"extras":{"hm":{"cell":"n1_n1","cullAt":null,"interior":null,"lod":1,"max":[4.558,3.412,0.0],"min":[-5.285,0.0,-9.767],"prims":3,"tris":12183,"venue":"props_situ"}},"mesh":6,"name":"props_situ#n1_n1$lod1","scale":[4.919687271118164,1.6995567083358765,4.883453369140625],"translation":[-0.3646829128265381,1.7120567560195923,-4.883453369140625]},{"extras":{"hm":{"cell":"n1_n1","cullAt":null,"interior":null,"lod":2,"max":[4.558,3.412,0.0],"min":[-5.285,0.0,-9.767],"prims":2,"tris":3741,"venue":"props_situ"}},"mesh":7,"name":"props_situ#n1_n1$lod2","scale":[4.888457298278809,1.6965644359588623,4.880090713500977],"translation":[-0.33734965324401855,1.7090644836425781,-4.880090713500977]},{"extras":{"hm":{"cell":"n1_n1","cullAt":null,"interior":null,"lod":3,"max":[4.558,3.412,0.0],"min":[-5.285,0.0,-9.767],"prims":2,"tris":695,"venue":"props_situ"}},"mesh":8,"name":"props_situ#n1_n1$lod3","scale":[4.726835250854492,1.6965644359588623,4.880090713500977],"translation":[-0.17572784423828125,1.7090644836425781,-4.880090713500977]}],"samplers":[{"magFilter":9729,"minFilter":9987,"wrapS":10497,"wrapT":10497}],"scene":0,"scenes":[{"nodes":[0,1,5]}],"textures":[{"sampler":0,"source":0},{"sampler":0,"source":1},{"sampler":0,"source":2},{"sampler":0,"source":3},{"sampler":0,"source":4},{"sampler":0,"source":5},{"sampler":0,"source":6},{"sampler":0,"source":7},{"sampler":0,"source":8},{"sampler":0,"source":9},{"sampler":0,"source":10},{"sampler":0,"source":11},{"sampler":0,"source":12},{"sampler":0,"source":13},{"sampler":0,"source":14},{"sampler":0,"source":15},{"sampler":0,"source":16},{"sampler":0,"source":17},{"sampler":0,"source":18},{"sampler":0,"source":19},{"sampler":0,"source":20},{"sampler":0,"source":21},{"sampler":0,"source":22},{"sampler":0,"source":23},{"sampler":0,"source":24},{"sampler":0,"source":25},{"sampler":0,"source":26},{"sampler":0,"source":27},{"sampler":0,"source":28},{"sampler":0,"source":29},{"sampler":0,"source":30},{"sampler":0,"source":31},{"sampler":0,"source":32},{"sampler":0,"source":33},{"sampler":0,"source":34},{"sampler":0,"source":35},{"sampler":0,"source":36},{"sampler":0,"source":37},{"sampler":0,"source":38},{"sampler":0,"source":39},{"sampler":0,"source":40},{"sampler":0,"source":41},{"sampler":0,"source":42},{"sampler":0,"source":43},{"sampler":0,"source":44},{"sampler":0,"source":45},{"sampler":0,"source":46},{"sampler":0,"source":47},{"sampler":0,"source":48},{"sampler":0,"source":49},{"sampler":0,"source":50},{"sampler":0,"source":51},{"sampler":0,"source":52},{"sampler":0,"source":53},{"sampler":0,"source":54}]}