{"accessors":[{"bufferView":0,"componentType":5122,"count":4272,"max":[31910.0,-1068.0,32681.0],"min":[-31507.0,-27143.0,-31207.0],"normalized":true,"type":"VEC3"},{"bufferView":1,"componentType":5120,"count":4272,"normalized":true,"type":"VEC3"},{"bufferView":2,"componentType":5123,"count":6084,"type":"SCALAR"},{"bufferView":3,"componentType":5122,"count":210,"max":[32200.0,32767.0,31679.0],"min":[-31507.0,-27143.0,-31207.0],"normalized":true,"type":"VEC3"},{"bufferView":4,"componentType":5120,"count":210,"normalized":true,"type":"VEC3"},{"bufferView":5,"componentType":5123,"count":288,"type":"SCALAR"},{"bufferView":6,"componentType":5122,"count":96,"max":[32767.0,-27143.0,32767.0],"min":[-32767.0,-32767.0,-32767.0],"normalized":true,"type":"VEC3"},{"bufferView":7,"componentType":5120,"count":96,"normalized":true,"type":"VEC3"},{"bufferView":8,"componentType":5123,"count":132,"type":"SCALAR"},{"bufferView":9,"componentType":5122,"count":2856,"max":[32002.0,-1144.0,32767.0],"min":[-31598.0,-27066.0,-31261.0],"normalized":true,"type":"VEC3"},{"bufferView":10,"componentType":5120,"count":2856,"normalized":true,"type":"VEC3"},{"bufferView":11,"componentType":5123,"count":2856,"type":"SCALAR"},{"bufferView":12,"componentType":5122,"count":138,"max":[32293.0,32767.0,31683.0],"min":[-31535.0,-27066.0,-31319.0],"normalized":true,"type":"VEC3"},{"bufferView":13,"componentType":5120,"count":138,"normalized":true,"type":"VEC3"},{"bufferView":14,"componentType":5123,"count":138,"type":"SCALAR"},{"bufferView":15,"componentType":5122,"count":60,"max":[32767.0,-27347.0,32736.0],"min":[-32767.0,-32767.0,-32767.0],"normalized":true,"type":"VEC3"},{"bufferView":16,"componentType":5120,"count":60,"normalized":true,"type":"VEC3"},{"bufferView":17,"componentType":5123,"count":60,"type":"SCALAR"},{"bufferView":18,"componentType":5122,"count":843,"max":[31981.0,-1240.0,32597.0],"min":[-31576.0,-27215.0,-31278.0],"normalized":true,"type":"VEC3"},{"bufferView":19,"componentType":5120,"count":843,"normalized":true,"type":"VEC3"},{"bufferView":20,"componentType":5123,"count":843,"type":"SCALAR"},{"bufferView":21,"componentType":5122,"count":36,"max":[32324.0,32767.0,31488.0],"min":[-31565.0,-27197.0,-31307.0],"normalized":true,"type":"VEC3"},{"bufferView":22,"componentType":5120,"count":36,"normalized":true,"type":"VEC3"},{"bufferView":23,"componentType":5123,"count":36,"type":"SCALAR"},{"bufferView":24,"componentType":5122,"count":36,"max":[32767.0,-27504.0,32767.0],"min":[-32767.0,-32767.0,-32767.0],"normalized":true,"type":"VEC3"},{"bufferView":25,"componentType":5120,"count":36,"normalized":true,"type":"VEC3"},{"bufferView":26,"componentType":5123,"count":36,"type":"SCALAR"},{"bufferView":27,"componentType":5122,"count":189,"max":[32324.0,32767.0,32161.0],"min":[-31565.0,-27194.0,-31307.0],"normalized":true,"type":"VEC3"},{"bufferView":28,"componentType":5120,"count":189,"normalized":true,"type":"VEC3"},{"bufferView":29,"componentType":5123,"count":189,"type":"SCALAR"},{"bufferView":30,"componentType":5122,"count":36,"max":[32767.0,-27504.0,32767.0],"min":[-32767.0,-32767.0,-32767.0],"normalized":true,"type":"VEC3"},{"bufferView":31,"componentType":5120,"count":36,"normalized":true,"type":"VEC3"},{"bufferView":32,"componentType":5123,"count":36,"type":"SCALAR"},{"bufferView":33,"componentType":5122,"count":288,"max":[32767.0,-25746.0,32767.0],"min":[-32767.0,-32767.0,-31865.0],"normalized":true,"type":"VEC3"},{"bufferView":34,"componentType":5120,"count":288,"normalized":true,"type":"VEC3"},{"bufferView":35,"componentType":5123,"count":396,"type":"SCALAR"},{"bufferView":36,"componentType":5122,"count":192,"max":[14535.0,14043.0,-16694.0],"min":[2689.0,-4681.0,-16842.0],"normalized":true,"type":"VEC3"},{"bufferView":37,"componentType":5120,"count":192,"normalized":true,"type":"VEC3"},{"bufferView":38,"componentType":5123,"count":264,"type":"SCALAR"},{"bufferView":39,"componentType":5122,"count":7245,"max":[21224.0,32767.0,-16255.0],"min":[-21004.0,-28576.0,-32767.0],"normalized":true,"type":"VEC3"},{"bufferView":40,"componentType":5120,"count":7245,"normalized":true,"type":"VEC3"},{"bufferView":41,"componentType":5123,"count":10605,"type":"SCALAR"},{"bufferView":42,"componentType":5122,"count":768,"max":[21004.0,32767.0,-16272.0],"min":[-21004.0,-26916.0,-16869.0],"normalized":true,"type":"VEC3"},{"bufferView":43,"componentType":5120,"count":768,"normalized":true,"type":"VEC3"},{"bufferView":44,"componentType":5123,"count":1056,"type":"SCALAR"},{"bufferView":45,"componentType":5122,"count":192,"max":[21004.0,16969.0,-16272.0],"min":[-21004.0,-7607.0,-16869.0],"normalized":true,"type":"VEC3"},{"bufferView":46,"componentType":5120,"count":192,"normalized":true,"type":"VEC3"},{"bufferView":47,"componentType":5123,"count":264,"type":"SCALAR"},{"bufferView":48,"componentType":5122,"count":192,"max":[15123.0,-6012.0,-16116.0],"min":[2100.0,-8031.0,-17123.0],"normalized":true,"type":"VEC3"},{"bufferView":49,"componentType":5120,"count":192,"normalized":true,"type":"VEC3"},{"bufferView":50,"componentType":5123,"count":264,"type":"SCALAR"},{"bufferView":51,"componentType":5122,"count":200,"max":[11629.0,-5617.0,-26809.0],"min":[9584.0,-8426.0,-28607.0],"normalized":true,"type":"VEC3"},{"bufferView":52,"componentType":5120,"count":200,"normalized":true,"type":"VEC3"},{"bufferView":53,"componentType":5123,"count":336,"type":"SCALAR"},{"bufferView":54,"componentType":5122,"count":564,"max":[32767.0,13929.0,32767.0],"min":[-32767.0,-32767.0,-31879.0],"normalized":true,"type":"VEC3"},{"bufferView":55,"componentType":5120,"count":564,"normalized":true,"type":"VEC3"},{"bufferView":56,"componentType":5123,"count":564,"type":"SCALAR"},{"bufferView":57,"componentType":5122,"count":4845,"max":[21213.0,32767.0,-16254.0],"min":[-20973.0,-28796.0,-32767.0],"normalized":true,"type":"VEC3"},{"bufferView":58,"componentType":5120,"count":4845,"normalized":true,"type":"VEC3"},{"bufferView":59,"componentType":5123,"count":4845,"type":"SCALAR"},{"bufferView":60,"componentType":5122,"count":504,"max":[21004.0,32591.0,-16271.0],"min":[-21004.0,-26953.0,-16868.0],"normalized":true,"type":"VEC3"},{"bufferView":61,"componentType":5120,"count":504,"normalized":true,"type":"VEC3"},{"bufferView":62,"componentType":5123,"count":504,"type":"SCALAR"},{"bufferView":63,"componentType":5122,"count":120,"max":[21004.0,16736.0,-16308.0],"min":[-21004.0,-7575.0,-16831.0],"normalized":true,"type":"VEC3"},{"bufferView":64,"componentType":5120,"count":120,"normalized":true,"type":"VEC3"},{"bufferView":65,"componentType":5123,"count":120,"type":"SCALAR"},{"bufferView":66,"componentType":5122,"count":183,"max":[32767.0,16791.0,32767.0],"min":[-32767.0,-32767.0,-31824.0],"normalized":true,"type":"VEC3"},{"bufferView":67,"componentType":5120,"count":183,"normalized":true,"type":"VEC3"},{"bufferView":68,"componentType":5123,"count":183,"type":"SCALAR"},{"bufferView":69,"componentType":5122,"count":1515,"max":[21219.0,32755.0,-16300.0],"min":[-20992.0,-28859.0,-32767.0],"normalized":true,"type":"VEC3"},{"bufferView":70,"componentType":5120,"count":1515,"normalized":true,"type":"VEC3"},{"bufferView":71,"componentType":5123,"count":1515,"type":"SCALAR"},{"bufferView":72,"componentType":5122,"count":186,"max":[21012.0,32767.0,-16304.0],"min":[-21012.0,-27009.0,-16864.0],"normalized":true,"type":"VEC3"},{"bufferView":73,"componentType":5120,"count":186,"normalized":true,"type":"VEC3"},{"bufferView":74,"componentType":5123,"count":186,"type":"SCALAR"},{"bufferView":75,"componentType":5122,"count":72,"max":[32767.0,32744.0,32767.0],"min":[-32767.0,-32767.0,-29785.0],"normalized":true,"type":"VEC3"},{"bufferView":76,"componentType":5120,"count":72,"normalized":true,"type":"VEC3"},{"bufferView":77,"componentType":5123,"count":72,"type":"SCALAR"},{"bufferView":78,"componentType":5122,"count":303,"max":[20993.0,32767.0,-16913.0],"min":[-20993.0,-28973.0,-32767.0],"normalized":true,"type":"VEC3"},{"bufferView":79,"componentType":5120,"count":303,"normalized":true,"type":"VEC3"},{"bufferView":80,"componentType":5123,"count":303,"type":"SCALAR"},{"bufferView":81,"componentType":5122,"count":2304,"max":[32752.0,21165.0,32767.0],"min":[-32753.0,-32767.0,-32767.0],"normalized":true,"type":"VEC3"},{"bufferView":82,"componentType":5120,"count":2304,"normalized":true,"type":"VEC3"},{"bufferView":83,"componentType":5123,"count":3252,"type":"SCALAR"},{"bufferView":84,"componentType":5122,"count":114,"max":[-28420.0,16624.0,28418.0],"min":[-29713.0,-32767.0,-28418.0],"normalized":true,"type":"VEC3"},{"bufferView":85,"componentType":5120,"count":114,"normalized":true,"type":"VEC3"},{"bufferView":86,"componentType":5123,"count":156,"type":"SCALAR"},{"bufferView":87,"componentType":5122,"count":192,"max":[-14516.0,29395.0,4573.0],"min":[-20109.0,-13378.0,-1245.0],"normalized":true,"type":"VEC3"},{"bufferView":88,"componentType":5120,"count":192,"normalized":true,"type":"VEC3"},{"bufferView":89,"componentType":5123,"count":264,"type":"SCALAR"},{"bufferView":90,"componentType":5122,"count":7356,"max":[32767.0,32767.0,32504.0],"min":[-32767.0,-12389.0,-32504.0],"normalized":true,"type":"VEC3"},{"bufferView":91,"componentType":5120,"count":7356,"normalized":true,"type":"VEC3"},{"bufferView":92,"componentType":5121,"count":7356,"normalized":true,"type":"VEC4"},{"bufferView":93,"componentType":5123,"count":10146,"type":"SCALAR"},{"bufferView":94,"componentType":5122,"count":1500,"max":[32647.0,21153.0,32767.0],"min":[-32759.0,-32767.0,-32767.0],"normalized":true,"type":"VEC3"},{"bufferView":95,"componentType":5120,"count":1500,"normalized":true,"type":"VEC3"},{"bufferView":96,"componentType":5123,"count":1500,"type":"SCALAR"},{"bufferView":97,"componentType":5122,"count":60,"max":[-28431.0,16608.0,28368.0],"min":[-29725.0,-32746.0,-28368.0],"normalized":true,"type":"VEC3"},{"bufferView":98,"componentType":5120,"count":60,"normalized":true,"type":"VEC3"},{"bufferView":99,"componentType":5123,"count":60,"type":"SCALAR"},{"bufferView":100,"componentType":5122,"count":132,"max":[-14587.0,28942.0,4527.0],"min":[-20114.0,-13422.0,-1198.0],"normalized":true,"type":"VEC3"},{"bufferView":101,"componentType":5120,"count":132,"normalized":true,"type":"VEC3"},{"bufferView":102,"componentType":5123,"count":132,"type":"SCALAR"},{"bufferView":103,"componentType":5122,"count":4860,"max":[32767.0,32767.0,32424.0],"min":[-32767.0,-12433.0,-32424.0],"normalized":true,"type":"VEC3"},{"bufferView":104,"componentType":5120,"count":4860,"normalized":true,"type":"VEC3"},{"bufferView":105,"componentType":5121,"count":4860,"normalized":true,"type":"VEC4"},{"bufferView":106,"componentType":5123,"count":4860,"type":"SCALAR"},{"bufferView":107,"componentType":5122,"count":24,"max":[-28483.0,16603.0,28665.0],"min":[-29778.0,-32767.0,-28725.0],"normalized":true,"type":"VEC3"},{"bufferView":108,"componentType":5120,"count":24,"normalized":true,"type":"VEC3"},{"bufferView":109,"componentType":5123,"count":24,"type":"SCALAR"},{"bufferView":110,"componentType":5122,"count":2031,"max":[32767.0,32767.0,32767.0],"min":[-32767.0,-32392.0,-32767.0],"normalized":true,"type":"VEC3"},{"bufferView":111,"componentType":5120,"count":2031,"normalized":true,"type":"VEC3"},{"bufferView":112,"componentType":5121,"count":2031,"normalized":true,"type":"VEC4"},{"bufferView":113,"componentType":5123,"count":2031,"type":"SCALAR"},{"bufferView":114,"componentType":5122,"count":24,"max":[-28497.0,16816.0,28662.0],"min":[-29794.0,-32767.0,-28775.0],"normalized":true,"type":"VEC3"},{"bufferView":115,"componentType":5120,"count":24,"normalized":true,"type":"VEC3"},{"bufferView":116,"componentType":5123,"count":24,"type":"SCALAR"},{"bufferView":117,"componentType":5122,"count":369,"max":[32767.0,32767.0,32767.0],"min":[-32767.0,-21390.0,-32767.0],"normalized":true,"type":"VEC3"},{"bufferView":118,"componentType":5120,"count":369,"normalized":true,"type":"VEC3"},{"bufferView":119,"componentType":5121,"count":369,"normalized":true,"type":"VEC4"},{"bufferView":120,"componentType":5123,"count":369,"type":"SCALAR"},{"bufferView":121,"componentType":5122,"count":32,"max":[3999.0,20861.0,29968.0],"min":[-754.0,12535.0,24386.0],"normalized":true,"type":"VEC3"},{"bufferView":122,"componentType":5120,"count":32,"normalized":true,"type":"VEC3"},{"bufferView":123,"componentType":5123,"count":48,"type":"SCALAR"},{"bufferView":124,"componentType":5122,"count":96,"max":[-12563.0,16977.0,30671.0],"min":[-23544.0,-1973.0,30133.0],"normalized":true,"type":"VEC3"},{"bufferView":125,"componentType":5120,"count":96,"normalized":true,"type":"VEC3"},{"bufferView":126,"componentType":5123,"count":132,"type":"SCALAR"},{"bufferView":127,"componentType":5122,"count":5508,"max":[31827.0,32767.0,32014.0],"min":[-32767.0,-24476.0,-32767.0],"normalized":true,"type":"VEC3"},{"bufferView":128,"componentType":5120,"count":5508,"normalized":true,"type":"VEC3"},{"bufferView":129,"componentType":5123,"count":7932,"type":"SCALAR"},{"bufferView":130,"componentType":5122,"count":384,"max":[25416.0,-3320.0,32767.0],"min":[-25680.0,-32767.0,6128.0],"normalized":true,"type":"VEC3"},{"bufferView":131,"componentType":5120,"count":384,"normalized":true,"type":"VEC3"},{"bufferView":132,"componentType":5123,"count":528,"type":"SCALAR"},{"bufferView":133,"componentType":5122,"count":300,"max":[-8854.0,-2921.0,-8945.0],"min":[-18662.0,-5763.0,-15422.0],"normalized":true,"type":"VEC3"},{"bufferView":134,"componentType":5120,"count":300,"normalized":true,"type":"VEC3"},{"bufferView":135,"componentType":5123,"count":504,"type":"SCALAR"},{"bufferView":136,"componentType":5122,"count":96,"max":[32767.0,-20559.0,24490.0],"min":[30436.0,-26936.0,20907.0],"normalized":true,"type":"VEC3"},{"bufferView":137,"componentType":5120,"count":96,"normalized":true,"type":"VEC3"},{"bufferView":138,"componentType":5123,"count":132,"type":"SCALAR"},{"bufferView":139,"componentType":5122,"count":60,"max":[-12567.0,17055.0,30721.0],"min":[-23530.0,-1848.0,30254.0],"normalized":true,"type":"VEC3"},{"bufferView":140,"componentType":5120,"count":60,"normalized":true,"type":"VEC3"},{"bufferView":141,"componentType":5123,"count":60,"type":"SCALAR"},{"bufferView":142,"componentType":5122,"count":3912,"max":[32767.0,32767.0,32104.0],"min":[-32767.0,-26921.0,-32767.0],"normalized":true,"type":"VEC3"},{"bufferView":143,"componentType":5120,"count":3912,"normalized":true,"type":"VEC3"},{"bufferView":144,"componentType":5123,"count":3912,"type":"SCALAR"},{"bufferView":145,"componentType":5122,"count":228,"max":[25282.0,-3366.0,32767.0],"min":[-25649.0,-32767.0,6341.0],"normalized":true,"type":"VEC3"},{"bufferView":146,"componentType":5120,"count":228,"normalized":true,"type":"VEC3"},{"bufferView":147,"componentType":5123,"count":228,"type":"SCALAR"},{"bufferView":148,"componentType":5122,"count":1263,"max":[32767.0,32767.0,31956.0],"min":[-32767.0,-26837.0,-32767.0],"normalized":true,"type":"VEC3"},{"bufferView":149,"componentType":5120,"count":1263,"normalized":true,"type":"VEC3"},{"bufferView":150,"componentType":5123,"count":1263,"type":"SCALAR"},{"bufferView":151,"componentType":5122,"count":72,"max":[25848.0,-3374.0,32767.0],"min":[-25559.0,-32767.0,6419.0],"normalized":true,"type":"VEC3"},{"bufferView":152,"componentType":5120,"count":72,"normalized":true,"type":"VEC3"},{"bufferView":153,"componentType":5123,"count":72,"type":"SCALAR"},{"bufferView":154,"componentType":5122,"count":252,"max":[32767.0,32767.0,32767.0],"min":[-32767.0,-24801.0,-32767.0],"normalized":true,"type":"VEC3"},{"bufferView":155,"componentType":5120,"count":252,"normalized":true,"type":"VEC3"},{"bufferView":156,"componentType":5123,"count":252,"type":"SCALAR"},{"bufferView":157,"componentType":5122,"count":24,"max":[25014.0,-11646.0,31180.0],"min":[-9110.0,-32767.0,11460.0],"normalized":true,"type":"VEC3"},{"bufferView":158,"componentType":5120,"count":24,"normalized":true,"type":"VEC3"},{"bufferView":159,"componentType":5123,"count":24,"type":"SCALAR"},{"bufferView":160,"componentType":5122,"count":4272,"normalized":true,"type":"VEC2"},{"bufferView":161,"componentType":5122,"count":210,"normalized":true,"type":"VEC2"},{"bufferView":162,"componentType":5122,"count":96,"normalized":true,"type":"VEC2"},{"bufferView":163,"componentType":5122,"count":2856,"normalized":true,"type":"VEC2"},{"bufferView":164,"componentType":5122,"count":138,"normalized":true,"type":"VEC2"},{"bufferView":165,"componentType":5122,"count":60,"normalized":true,"type":"VEC2"},{"bufferView":166,"componentType":5122,"count":843,"normalized":true,"type":"VEC2"},{"bufferView":167,"componentType":5122,"count":36,"normalized":true,"type":"VEC2"},{"bufferView":168,"componentType":5122,"count":36,"normalized":true,"type":"VEC2"},{"bufferView":169,"componentType":5122,"count":189,"normalized":true,"type":"VEC2"},{"bufferView":170,"componentType":5122,"count":36,"normalized":true,"type":"VEC2"},{"bufferView":171,"componentType":5122,"count":288,"normalized":true,"type":"VEC2"},{"bufferView":172,"componentType":5122,"count":192,"normalized":true,"type":"VEC2"},{"bufferView":173,"componentType":5122,"count":7245,"normalized":true,"type":"VEC2"},{"bufferView":174,"componentType":5122,"count":768,"normalized":true,"type":"VEC2"},{"bufferView":175,"componentType":5122,"count":192,"normalized":true,"type":"VEC2"},{"bufferView":176,"componentType":5122,"count":192,"normalized":true,"type":"VEC2"},{"bufferView":177,"componentType":5122,"count":200,"normalized":true,"type":"VEC2"},{"bufferView":178,"componentType":5122,"count":564,"normalized":true,"type":"VEC2"},{"bufferView":179,"componentType":5122,"count":4845,"normalized":true,"type":"VEC2"},{"bufferView":180,"componentType":5122,"count":504,"normalized":true,"type":"VEC2"},{"bufferView":181,"componentType":5122,"count":120,"normalized":true,"type":"VEC2"},{"bufferView":182,"componentType":5122,"count":183,"normalized":true,"type":"VEC2"},{"bufferView":183,"componentType":5122,"count":1515,"normalized":true,"type":"VEC2"},{"bufferView":184,"componentType":5122,"count":186,"normalized":true,"type":"VEC2"},{"bufferView":185,"componentType":5122,"count":72,"normalized":true,"type":"VEC2"},{"bufferView":186,"componentType":5122,"count":303,"normalized":true,"type":"VEC2"},{"bufferView":187,"componentType":5122,"count":2304,"normalized":true,"type":"VEC2"},{"bufferView":188,"componentType":5122,"count":114,"normalized":true,"type":"VEC2"},{"bufferView":189,"componentType":5122,"count":192,"normalized":true,"type":"VEC2"},{"bufferView":190,"componentType":5122,"count":7356,"normalized":true,"type":"VEC2"},{"bufferView":191,"componentType":5122,"count":1500,"normalized":true,"type":"VEC2"},{"bufferView":192,"componentType":5122,"count":60,"normalized":true,"type":"VEC2"},{"bufferView":193,"componentType":5122,"count":132,"normalized":true,"type":"VEC2"},{"bufferView":194,"componentType":5122,"count":4860,"normalized":true,"type":"VEC2"},{"bufferView":195,"componentType":5122,"count":24,"normalized":true,"type":"VEC2"},{"bufferView":196,"componentType":5122,"count":2031,"normalized":true,"type":"VEC2"},{"bufferView":197,"componentType":5122,"count":24,"normalized":true,"type":"VEC2"},{"bufferView":198,"componentType":5122,"count":369,"normalized":true,"type":"VEC2"},{"bufferView":199,"componentType":5122,"count":32,"normalized":true,"type":"VEC2"},{"bufferView":200,"componentType":5122,"count":96,"normalized":true,"type":"VEC2"},{"bufferView":201,"componentType":5122,"count":5508,"normalized":true,"type":"VEC2"},{"bufferView":202,"componentType":5122,"count":384,"normalized":true,"type":"VEC2"},{"bufferView":203,"componentType":5122,"count":300,"normalized":true,"type":"VEC2"},{"bufferView":204,"componentType":5122,"count":96,"normalized":true,"type":"VEC2"},{"bufferView":205,"componentType":5122,"count":60,"normalized":true,"type":"VEC2"},{"bufferView":206,"componentType":5122,"count":3912,"normalized":true,"type":"VEC2"},{"bufferView":207,"componentType":5122,"count":228,"normalized":true,"type":"VEC2"},{"bufferView":208,"componentType":5122,"count":1263,"normalized":true,"type":"VEC2"},{"bufferView":209,"componentType":5122,"count":72,"normalized":true,"type":"VEC2"},{"bufferView":210,"componentType":5122,"count":252,"normalized":true,"type":"VEC2"},{"bufferView":211,"componentType":5122,"count":24,"normalized":true,"type":"VEC2"}],"asset":{"generator":"evermore assetgen","version":"2.0"},"bufferViews":[{"buffer":0,"byteLength":34176,"byteOffset":0,"byteStride":8,"target":34962},{"buffer":0,"byteLength":17088,"byteOffset":34176,"byteStride":4,"target":34962},{"buffer":0,"byteLength":12168,"byteOffset":51264,"target":34963},{"buffer":0,"byteLength":1680,"byteOffset":63432,"byteStride":8,"target":34962},{"buffer":0,"byteLength":840,"byteOffset":65112,"byteStride":4,"target":34962},{"buffer":0,"byteLength":576,"byteOffset":65952,"target":34963},{"buffer":0,"byteLength":768,"byteOffset":66528,"byteStride":8,"target":34962},{"buffer":0,"byteLength":384,"byteOffset":67296,"byteStride":4,"target":34962},{"buffer":0,"byteLength":264,"byteOffset":67680,"target":34963},{"buffer":0,"byteLength":22848,"byteOffset":67944,"byteStride":8,"target":34962},{"buffer":0,"byteLength":11424,"byteOffset":90792,"byteStride":4,"target":34962},{"buffer":0,"byteLength":5712,"byteOffset":102216,"target":34963},{"buffer":0,"byteLength":1104,"byteOffset":107928,"byteStride":8,"target":34962},{"buffer":0,"byteLength":552,"byteOffset":109032,"byteStride":4,"target":34962},{"buffer":0,"byteLength":276,"byteOffset":109584,"target":34963},{"buffer":0,"byteLength":480,"byteOffset":109860,"byteStride":8,"target":34962},{"buffer":0,"byteLength":240,"byteOffset":110340,"byteStride":4,"target":34962},{"buffer":0,"byteLength":120,"byteOffset":110580,"target":34963},{"buffer":0,"byteLength":6744,"byteOffset":110700,"byteStride":8,"target":34962},{"buffer":0,"byteLength":3372,"byteOffset":117444,"byteStride":4,"target":34962},{"buffer":0,"byteLength":1686,"byteOffset":120816,"target":34963},{"buffer":0,"byteLength":288,"byteOffset":122504,"byteStride":8,"target":34962},{"buffer":0,"byteLength":144,"byteOffset":122792,"byteStride":4,"target":34962},{"buffer":0,"byteLength":72,"byteOffset":122936,"target":34963},{"buffer":0,"byteLength":288,"byteOffset":123008,"byteStride":8,"target":34962},{"buffer":0,"byteLength":144,"byteOffset":123296,"byteStride":4,"target":34962},{"buffer":0,"byteLength":72,"byteOffset":123440,"target":34963},{"buffer":0,"byteLength":1512,"byteOffset":123512,"byteStride":8,"target":34962},{"buffer":0,"byteLength":756,"byteOffset":125024,"byteStride":4,"target":34962},{"buffer":0,"byteLength":378,"byteOffset":125780,"target":34963},{"buffer":0,"byteLength":288,"byteOffset":126160,"byteStride":8,"target":34962},{"buffer":0,"byteLength":144,"byteOffset":126448,"byteStride":4,"target":34962},{"buffer":0,"byteLength":72,"byteOffset":126592,"target":34963},{"buffer":0,"byteLength":2304,"byteOffset":126664,"byteStride":8,"target":34962},{"buffer":0,"byteLength":1152,"byteOffset":128968,"byteStride":4,"target":34962},{"buffer":0,"byteLength":792,"byteOffset":130120,"target":34963},{"buffer":0,"byteLength":1536,"byteOffset":130912,"byteStride":8,"target":34962},{"buffer":0,"byteLength":768,"byteOffset":132448,"byteStride":4,"target":34962},{"buffer":0,"byteLength":528,"byteOffset":133216,"target":34963},{"buffer":0,"byteLength":57960,"byteOffset":133744,"byteStride":8,"target":34962},{"buffer":0,"byteLength":28980,"byteOffset":191704,"byteStride":4,"target":34962},{"buffer":0,"byteLength":21210,"byteOffset":220684,"target":34963},{"buffer":0,"byteLength":6144,"byteOffset":241896,"byteStride":8,"target":34962},{"buffer":0,"byteLength":3072,"byteOffset":248040,"byteStride":4,"target":34962},{"buffer":0,"byteLength":2112,"byteOffset":251112,"target":34963},{"buffer":0,"byteLength":1536,"byteOffset":253224,"byteStride":8,"target":34962},{"buffer":0,"byteLength":768,"byteOffset":254760,"byteStride":4,"target":34962},{"buffer":0,"byteLength":528,"byteOffset":255528,"target":34963},{"buffer":0,"byteLength":1536,"byteOffset":256056,"byteStride":8,"target":34962},{"buffer":0,"byteLength":768,"byteOffset":257592,"byteStride":4,"target":34962},{"buffer":0,"byteLength":528,"byteOffset":258360,"target":34963},{"buffer":0,"byteLength":1600,"byteOffset":258888,"byteStride":8,"target":34962},{"buffer":0,"byteLength":800,"byteOffset":260488,"byteStride":4,"target":34962},{"buffer":0,"byteLength":672,"byteOffset":261288,"target":34963},{"buffer":0,"byteLength":4512,"byteOffset":261960,"byteStride":8,"target":34962},{"buffer":0,"byteLength":2256,"byteOffset":266472,"byteStride":4,"target":34962},{"buffer":0,"byteLength":1128,"byteOffset":268728,"target":34963},{"buffer":0,"byteLength":38760,"byteOffset":269856,"byteStride":8,"target":34962},{"buffer":0,"byteLength":19380,"byteOffset":308616,"byteStride":4,"target":34962},{"buffer":0,"byteLength":9690,"byteOffset":327996,"target":34963},{"buffer":0,"byteLength":4032,"byteOffset":337688,"byteStride":8,"target":34962},{"buffer":0,"byteLength":2016,"byteOffset":341720,"byteStride":4,"target":34962},{"buffer":0,"byteLength":1008,"byteOffset":343736,"target":34963},{"buffer":0,"byteLength":960,"byteOffset":344744,"byteStride":8,"target":34962},{"buffer":0,"byteLength":480,"byteOffset":345704,"byteStride":4,"target":34962},{"buffer":0,"byteLength":240,"byteOffset":346184,"target":34963},{"buffer":0,"byteLength":1464,"byteOffset":346424,"byteStride":8,"target":34962},{"buffer":0,"byteLength":732,"byteOffset":347888,"byteStride":4,"target":34962},{"buffer":0,"byteLength":366,"byteOffset":348620,"target":34963},{"buffer":0,"byteLength":12120,"byteOffset":348988,"byteStride":8,"target":34962},{"buffer":0,"byteLength":6060,"byteOffset":361108,"byteStride":4,"target":34962},{"buffer":0,"byteLength":3030,"byteOffset":367168,"target":34963},{"buffer":0,"byteLength":1488,"byteOffset":370200,"byteStride":8,"target":34962},{"buffer":0,"byteLength":744,"byteOffset":371688,"byteStride":4,"target":34962},{"buffer":0,"byteLength":372,"byteOffset":372432,"target":34963},{"buffer":0,"byteLength":576,"byteOffset":372804,"byteStride":8,"target":34962},{"buffer":0,"byteLength":288,"byteOffset":373380,"byteStride":4,"target":34962},{"buffer":0,"byteLength":144,"byteOffset":373668,"target":34963},{"buffer":0,"byteLength":2424,"byteOffset":373812,"byteStride":8,"target":34962},{"buffer":0,"byteLength":1212,"byteOffset":376236,"byteStride":4,"target":34962},{"buffer":0,"byteLength":606,"byteOffset":377448,"target":34963},{"buffer":0,"byteLength":18432,"byteOffset":378056,"byteStride":8,"target":34962},{"buffer":0,"byteLength":9216,"byteOffset":396488,"byteStride":4,"target":34962},{"buffer":0,"byteLength":6504,"byteOffset":405704,"target":34963},{"buffer":0,"byteLength":912,"byteOffset":412208,"byteStride":8,"target":34962},{"buffer":0,"byteLength":456,"byteOffset":413120,"byteStride":4,"target":34962},{"buffer":0,"byteLength":312,"byteOffset":413576,"target":34963},{"buffer":0,"byteLength":1536,"byteOffset":413888,"byteStride":8,"target":34962},{"buffer":0,"byteLength":768,"byteOffset":415424,"byteStride":4,"target":34962},{"buffer":0,"byteLength":528,"byteOffset":416192,"target":34963},{"buffer":0,"byteLength":58848,"byteOffset":416720,"byteStride":8,"target":34962},{"buffer":0,"byteLength":29424,"byteOffset":475568,"byteStride":4,"target":34962},{"buffer":0,"byteLength":29424,"byteOffset":504992,"byteStride":4,"target":34962},{"buffer":0,"byteLength":20292,"byteOffset":534416,"target":34963},{"buffer":0,"byteLength":12000,"byteOffset":554708,"byteStride":8,"target":34962},{"buffer":0,"byteLength":6000,"byteOffset":566708,"byteStride":4,"target":34962},{"buffer":0,"byteLength":3000,"byteOffset":572708,"target":34963},{"buffer":0,"byteLength":480,"byteOffset":575708,"byteStride":8,"target":34962},{"buffer":0,"byteLength":240,"byteOffset":576188,"byteStride":4,"target":34962},{"buffer":0,"byteLength":120,"byteOffset":576428,"target":34963},{"buffer":0,"byteLength":1056,"byteOffset":576548,"byteStride":8,"target":34962},{"buffer":0,"byteLength":528,"byteOffset":577604,"byteStride":4,"target":34962},{"buffer":0,"byteLength":264,"byteOffset":578132,"target":34963},{"buffer":0,"byteLength":38880,"byteOffset":578396,"byteStride":8,"target":34962},{"buffer":0,"byteLength":19440,"byteOffset":617276,"byteStride":4,"target":34962},{"buffer":0,"byteLength":19440,"byteOffset":636716,"byteStride":4,"target":34962},{"buffer":0,"byteLength":9720,"byteOffset":656156,"target":34963},{"buffer":0,"byteLength":192,"byteOffset":665876,"byteStride":8,"target":34962},{"buffer":0,"byteLength":96,"byteOffset":666068,"byteStride":4,"target":34962},{"buffer":0,"byteLength":48,"byteOffset":666164,"target":34963},{"buffer":0,"byteLength":16248,"byteOffset":666212,"byteStride":8,"target":34962},{"buffer":0,"byteLength":8124,"byteOffset":682460,"byteStride":4,"target":34962},{"buffer":0,"byteLength":8124,"byteOffset":690584,"byteStride":4,"target":34962},{"buffer":0,"byteLength":4062,"byteOffset":698708,"target":34963},{"buffer":0,"byteLength":192,"byteOffset":702772,"byteStride":8,"target":34962},{"buffer":0,"byteLength":96,"byteOffset":702964,"byteStride":4,"target":34962},{"buffer":0,"byteLength":48,"byteOffset":703060,"target":34963},{"buffer":0,"byteLength":2952,"byteOffset":703108,"byteStride":8,"target":34962},{"buffer":0,"byteLength":1476,"byteOffset":706060,"byteStride":4,"target":34962},{"buffer":0,"byteLength":1476,"byteOffset":707536,"byteStride":4,"target":34962},{"buffer":0,"byteLength":738,"byteOffset":709012,"target":34963},{"buffer":0,"byteLength":256,"byteOffset":709752,"byteStride":8,"target":34962},{"buffer":0,"byteLength":128,"byteOffset":710008,"byteStride":4,"target":34962},{"buffer":0,"byteLength":96,"byteOffset":710136,"target":34963},{"buffer":0,"byteLength":768,"byteOffset":710232,"byteStride":8,"target":34962},{"buffer":0,"byteLength":384,"byteOffset":711000,"byteStride":4,"target":34962},{"buffer":0,"byteLength":264,"byteOffset":711384,"target":34963},{"buffer":0,"byteLength":44064,"byteOffset":711648,"byteStride":8,"target":34962},{"buffer":0,"byteLength":22032,"byteOffset":755712,"byteStride":4,"target":34962},{"buffer":0,"byteLength":15864,"byteOffset":777744,"target":34963},{"buffer":0,"byteLength":3072,"byteOffset":793608,"byteStride":8,"target":34962},{"buffer":0,"byteLength":1536,"byteOffset":796680,"byteStride":4,"target":34962},{"buffer":0,"byteLength":1056,"byteOffset":798216,"target":34963},{"buffer":0,"byteLength":2400,"byteOffset":799272,"byteStride":8,"target":34962},{"buffer":0,"byteLength":1200,"byteOffset":801672,"byteStride":4,"target":34962},{"buffer":0,"byteLength":1008,"byteOffset":802872,"target":34963},{"buffer":0,"byteLength":768,"byteOffset":803880,"byteStride":8,"target":34962},{"buffer":0,"byteLength":384,"byteOffset":804648,"byteStride":4,"target":34962},{"buffer":0,"byteLength":264,"byteOffset":805032,"target":34963},{"buffer":0,"byteLength":480,"byteOffset":805296,"byteStride":8,"target":34962},{"buffer":0,"byteLength":240,"byteOffset":805776,"byteStride":4,"target":34962},{"buffer":0,"byteLength":120,"byteOffset":806016,"target":34963},{"buffer":0,"byteLength":31296,"byteOffset":806136,"byteStride":8,"target":34962},{"buffer":0,"byteLength":15648,"byteOffset":837432,"byteStride":4,"target":34962},{"buffer":0,"byteLength":7824,"byteOffset":853080,"target":34963},{"buffer":0,"byteLength":1824,"byteOffset":860904,"byteStride":8,"target":34962},{"buffer":0,"byteLength":912,"byteOffset":862728,"byteStride":4,"target":34962},{"buffer":0,"byteLength":456,"byteOffset":863640,"target":34963},{"buffer":0,"byteLength":10104,"byteOffset":864096,"byteStride":8,"target":34962},{"buffer":0,"byteLength":5052,"byteOffset":874200,"byteStride":4,"target":34962},{"buffer":0,"byteLength":2526,"byteOffset":879252,"target":34963},{"buffer":0,"byteLength":576,"byteOffset":881780,"byteStride":8,"target":34962},{"buffer":0,"byteLength":288,"byteOffset":882356,"byteStride":4,"target":34962},{"buffer":0,"byteLength":144,"byteOffset":882644,"target":34963},{"buffer":0,"byteLength":2016,"byteOffset":882788,"byteStride":8,"target":34962},{"buffer":0,"byteLength":1008,"byteOffset":884804,"byteStride":4,"target":34962},{"buffer":0,"byteLength":504,"byteOffset":885812,"target":34963},{"buffer":0,"byteLength":192,"byteOffset":886316,"byteStride":8,"target":34962},{"buffer":0,"byteLength":96,"byteOffset":886508,"byteStride":4,"target":34962},{"buffer":0,"byteLength":48,"byteOffset":886604,"target":34963},{"buffer":0,"byteLength":17088,"byteOffset":886652,"byteStride":4,"target":34962},{"buffer":0,"byteLength":840,"byteOffset":903740,"byteStride":4,"target":34962},{"buffer":0,"byteLength":384,"byteOffset":904580,"byteStride":4,"target":34962},{"buffer":0,"byteLength":11424,"byteOffset":904964,"byteStride":4,"target":34962},{"buffer":0,"byteLength":552,"byteOffset":916388,"byteStride":4,"target":34962},{"buffer":0,"byteLength":240,"byteOffset":916940,"byteStride":4,"target":34962},{"buffer":0,"byteLength":3372,"byteOffset":917180,"byteStride":4,"target":34962},{"buffer":0,"byteLength":144,"byteOffset":920552,"byteStride":4,"target":34962},{"buffer":0,"byteLength":144,"byteOffset":920696,"byteStride":4,"target":34962},{"buffer":0,"byteLength":756,"byteOffset":920840,"byteStride":4,"target":34962},{"buffer":0,"byteLength":144,"byteOffset":921596,"byteStride":4,"target":34962},{"buffer":0,"byteLength":1152,"byteOffset":921740,"byteStride":4,"target":34962},{"buffer":0,"byteLength":768,"byteOffset":922892,"byteStride":4,"target":34962},{"buffer":0,"byteLength":28980,"byteOffset":923660,"byteStride":4,"target":34962},{"buffer":0,"byteLength":3072,"byteOffset":952640,"byteStride":4,"target":34962},{"buffer":0,"byteLength":768,"byteOffset":955712,"byteStride":4,"target":34962},{"buffer":0,"byteLength":768,"byteOffset":956480,"byteStride":4,"target":34962},{"buffer":0,"byteLength":800,"byteOffset":957248,"byteStride":4,"target":34962},{"buffer":0,"byteLength":2256,"byteOffset":958048,"byteStride":4,"target":34962},{"buffer":0,"byteLength":19380,"byteOffset":960304,"byteStride":4,"target":34962},{"buffer":0,"byteLength":2016,"byteOffset":979684,"byteStride":4,"target":34962},{"buffer":0,"byteLength":480,"byteOffset":981700,"byteStride":4,"target":34962},{"buffer":0,"byteLength":732,"byteOffset":982180,"byteStride":4,"target":34962},{"buffer":0,"byteLength":6060,"byteOffset":982912,"byteStride":4,"target":34962},{"buffer":0,"byteLength":744,"byteOffset":988972,"byteStride":4,"target":34962},{"buffer":0,"byteLength":288,"byteOffset":989716,"byteStride":4,"target":34962},{"buffer":0,"byteLength":1212,"byteOffset":990004,"byteStride":4,"target":34962},{"buffer":0,"byteLength":9216,"byteOffset":991216,"byteStride":4,"target":34962},{"buffer":0,"byteLength":456,"byteOffset":1000432,"byteStride":4,"target":34962},{"buffer":0,"byteLength":768,"byteOffset":1000888,"byteStride":4,"target":34962},{"buffer":0,"byteLength":29424,"byteOffset":1001656,"byteStride":4,"target":34962},{"buffer":0,"byteLength":6000,"byteOffset":1031080,"byteStride":4,"target":34962},{"buffer":0,"byteLength":240,"byteOffset":1037080,"byteStride":4,"target":34962},{"buffer":0,"byteLength":528,"byteOffset":1037320,"byteStride":4,"target":34962},{"buffer":0,"byteLength":19440,"byteOffset":1037848,"byteStride":4,"target":34962},{"buffer":0,"byteLength":96,"byteOffset":1057288,"byteStride":4,"target":34962},{"buffer":0,"byteLength":8124,"byteOffset":1057384,"byteStride":4,"target":34962},{"buffer":0,"byteLength":96,"byteOffset":1065508,"byteStride":4,"target":34962},{"buffer":0,"byteLength":1476,"byteOffset":1065604,"byteStride":4,"target":34962},{"buffer":0,"byteLength":128,"byteOffset":1067080,"byteStride":4,"target":34962},{"buffer":0,"byteLength":384,"byteOffset":1067208,"byteStride":4,"target":34962},{"buffer":0,"byteLength":22032,"byteOffset":1067592,"byteStride":4,"target":34962},{"buffer":0,"byteLength":1536,"byteOffset":1089624,"byteStride":4,"target":34962},{"buffer":0,"byteLength":1200,"byteOffset":1091160,"byteStride":4,"target":34962},{"buffer":0,"byteLength":384,"byteOffset":1092360,"byteStride":4,"target":34962},{"buffer":0,"byteLength":240,"byteOffset":1092744,"byteStride":4,"target":34962},{"buffer":0,"byteLength":15648,"byteOffset":1092984,"byteStride":4,"target":34962},{"buffer":0,"byteLength":912,"byteOffset":1108632,"byteStride":4,"target":34962},{"buffer":0,"byteLength":5052,"byteOffset":1109544,"byteStride":4,"target":34962},{"buffer":0,"byteLength":288,"byteOffset":1114596,"byteStride":4,"target":34962},{"buffer":0,"byteLength":1008,"byteOffset":1114884,"byteStride":4,"target":34962},{"buffer":0,"byteLength":96,"byteOffset":1115892,"byteStride":4,"target":34962}],"buffers":[{"byteLength":1115988,"uri":"pub.bin"}],"extensionsRequired":["KHR_mesh_quantization","KHR_texture_transform"],"extensionsUsed":["KHR_mesh_quantization","KHR_texture_transform","MSFT_lod"],"extras":{"hm":{"batching":true,"cellSize":16.0,"cells":[{"cullAt":null,"interior":null,"key":"0_0","lodPrims":[3,3,3,2],"lodTris":[2168,1018,305,75],"max":[5.2,6.109,4.2],"min":[-5.2,-0.3,-4.2]},{"cullAt":null,"interior":null,"key":"0_n1","lodPrims":[7,4,3,2],"lodTris":[4395,2011,628,125],"max":[7.8,2.8,6.0],"min":[-7.8,0.0,-7.283]},{"cullAt":null,"interior":null,"key":"n1_0","lodPrims":[4,4,2,2],"lodTris":[4606,2184,685,131],"max":[5.521,8.024,4.612],"min":[-5.63,0.25,-4.612]},{"cullAt":null,"interior":null,"key":"n1_n1","lodPrims":[6,3,2,2],"lodTris":[3092,1400,445,92],"max":[-0.268,2.667,-3.908],"min":[-4.565,-0.1,-7.566]}],"instanced":[],"instancing":true,"interiors":[],"lod":true,"lodDistances":[15.0,40.0,100.0],"stats":{"groups":4,"lodPrims":[20,14,10,8],"lodTris":[14261,6613,2063,423]},"venue":"pub"}},"images":[{"uri":"../textures/stone_albedo.png"},{"uri":"../textures/stone_orm.png"},{"uri":"../textures/stone_normal.png"},{"uri":"../textures/kit_albedo.png"},{"uri":"../textures/kit_orm.png"},{"uri":"../textures/kit_normal.png"},{"uri":"../textures/cobble_albedo.png"},{"uri":"../textures/cobble_orm.png"},{"uri":"../textures/cobble_normal.png"},{"uri":"../textures/plaster_albedo.png"},{"uri":"../textures/plaster_orm.png"},{"uri":"../textures/plaster_normal.png"},{"uri":"../textures/plaster_shade_albedo.png"},{"uri":"../textures/plaster_shade_orm.png"},{"uri":"../textures/plaster_shade_normal.png"},{"uri":"../textures/glass_lit_albedo.png"},{"uri":"../textures/glass_lit_orm.png"},{"uri":"../textures/glass_lit_normal.png"},{"uri":"../textures/glass_lit_emissive.png"},{"uri":"../textures/terracotta_albedo.png"},{"uri":"../textures/terracotta_orm.png"},{"uri":"../textures/terracotta_normal.png"},{"uri":"../textures/glass_albedo.png"},{"uri":"../textures/glass_orm.png"},{"uri":"../textures/glass_normal.png"},{"uri":"../textures/glass_emissive.png"},{"uri":"../textures/thatch_albedo.png"},{"uri":"../textures/thatch_orm.png"},{"uri":"../textures/thatch_normal.png"}],"materials":[{"doubleSided":false,"name":"stone","normalTexture":{"extensions":{"KHR_texture_transform":{"scale":[4.000122,4.000122]}},"index":2,"scale":1.0},"occlusionTexture":{"extensions":{"KHR_texture_transform":{"scale":[4.000122,4.000122]}},"index":1},"pbrMetallicRoughness":{"baseColorFactor":[1,1,1,1],"baseColorTexture":{"extensions":{"KHR_texture_transform":{"scale":[4.000122,4.000122]}},"index":0},"metallicFactor":1.0,"metallicRoughnessTexture":{"extensions":{"KHR_texture_transform":{"scale":[4.000122,4.000122]}},"index":1},"roughnessFactor":1.0}},{"doubleSided":true,"name":"kit","normalTexture":{"extensions":{"KHR_texture_transform":{"scale":[4.000122,4.000122]}},"index":5,"scale":1.0},"occlusionTexture":{"extensions":{"KHR_texture_transform":{"scale":[4.000122,4.000122]}},"index":4},"pbrMetallicRoughness":{"baseColorFactor":[1,1,1,1],"baseColorTexture":{"extensions":{"KHR_texture_transform":{"scale":[4.000122,4.000122]}},"index":3},"metallicFactor":1.0,"metallicRoughnessTexture":{"extensions":{"KHR_texture_transform":{"scale":[4.000122,4.000122]}},"index":4},"roughnessFactor":1.0}},{"doubleSided":false,"name":"cobble","normalTexture":{"extensions":{"KHR_texture_transform":{"scale":[4.000122,4.000122]}},"index":8,"scale":1.0},"occlusionTexture":{"extensions":{"KHR_texture_transform":{"scale":[4.000122,4.000122]}},"index":7},"pbrMetallicRoughness":{"baseColorFactor":[1,1,1,1],"baseColorTexture":{"extensions":{"KHR_texture_transform":{"scale":[4.000122,4.000122]}},"index":6},"metallicFactor":1.0,"metallicRoughnessTexture":{"extensions":{"KHR_texture_transform":{"scale":[4.000122,4.000122]}},"index":7},"roughnessFactor":1.0}},{"doubleSided":false,"name":"plaster","normalTexture":{"extensions":{"KHR_texture_transform":{"scale":[4.000122,4.000122]}},"index":11,"scale":1.0},"occlusionTexture":{"extensions":{"KHR_texture_transform":{"scale":[4.000122,4.000122]}},"index":10},"pbrMetallicRoughness":{"baseColorFactor":[1,1,1,1],"baseColorTexture":{"extensions":{"KHR_texture_transform":{"scale":[4.000122,4.000122]}},"index":9},"metallicFactor":1.0,"metallicRoughnessTexture":{"extensions":{"KHR_texture_transform":{"scale":[4.000122,4.000122]}},"index":10},"roughnessFactor":1.0}},{"doubleSided":false,"name":"plaster_shade","normalTexture":{"extensions":{"KHR_texture_transform":{"scale":[4.000122,4.000122]}},"index":14,"scale":1.0},"occlusionTexture":{"extensions":{"KHR_texture_transform":{"scale":[4.000122,4.000122]}},"index":13},"pbrMetallicRoughness":{"baseColorFactor":[1,1,1,1],"baseColorTexture":{"extensions":{"KHR_texture_transform":{"scale":[4.000122,4.000122]}},"index":12},"metallicFactor":1.0,"metallicRoughnessTexture":{"extensions":{"KHR_texture_transform":{"scale":[4.000122,4.000122]}},"index":13},"roughnessFactor":1.0}},{"doubleSided":true,"emissiveFactor":[1.0,1.0,1.0],"emissiveTexture":{"extensions":{"KHR_texture_transform":{"scale":[4.000122,4.000122]}},"index":18},"name":"glass_lit","normalTexture":{"extensions":{"KHR_texture_transform":{"scale":[4.000122,4.000122]}},"index":17,"scale":1.0},"occlusionTexture":{"extensions":{"KHR_texture_transform":{"scale":[4.000122,4.000122]}},"index":16},"pbrMetallicRoughness":{"baseColorFactor":[1,1,1,1],"baseColorTexture":{"extensions":{"KHR_texture_transform":{"scale":[4.000122,4.000122]}},"index":15},"metallicFactor":1.0,"metallicRoughnessTexture":{"extensions":{"KHR_texture_transform":{"scale":[4.000122,4.000122]}},"index":16},"roughnessFactor":1.0}},{"doubleSided":false,"name":"terracotta","normalTexture":{"extensions":{"KHR_texture_transform":{"scale":[4.000122,4.000122]}},"index":21,"scale":1.0},"occlusionTexture":{"extensions":{"KHR_texture_transform":{"scale":[4.000122,4.000122]}},"index":20},"pbrMetallicRoughness":{"baseColorFactor":[1,1,1,1],"baseColorTexture":{"extensions":{"KHR_texture_transform":{"scale":[4.000122,4.000122]}},"index":19},"metallicFactor":1.0,"metallicRoughnessTexture":{"extensions":{"KHR_texture_transform":{"scale":[4.000122,4.000122]}},"index":20},"roughnessFactor":1.0}},{"alphaMode":"BLEND","doubleSided":true,"emissiveFactor":[1.0,1.0,1.0],"emissiveTexture":{"extensions":{"KHR_texture_transform":{"scale":[4.000122,4.000122]}},"index":25},"name":"glass","normalTexture":{"extensions":{"KHR_texture_transform":{"scale":[4.000122,4.000122]}},"index":24,"scale":1.0},"occlusionTexture":{"extensions":{"KHR_texture_transform":{"scale":[4.000122,4.000122]}},"index":23},"pbrMetallicRoughness":{"baseColorFactor":[1,1,1,1],"baseColorTexture":{"extensions":{"KHR_texture_transform":{"scale":[4.000122,4.000122]}},"index":22},"metallicFactor":1.0,"metallicRoughnessTexture":{"extensions":{"KHR_texture_transform":{"scale":[4.000122,4.000122]}},"index":23},"roughnessFactor":1.0}},{"doubleSided":false,"name":"thatch","normalTexture":{"extensions":{"KHR_texture_transform":{"scale":[4.000122,4.000122]}},"index":28,"scale":1.0},"occlusionTexture":{"extensions":{"KHR_texture_transform":{"scale":[4.000122,4.000122]}},"index":27},"pbrMetallicRoughness":{"baseColorFactor":[1,1,1,1],"baseColorTexture":{"extensions":{"KHR_texture_transform":{"scale":[4.000122,4.000122]}},"index":26},"metallicFactor":1.0,"metallicRoughnessTexture":{"extensions":{"KHR_texture_transform":{"scale":[4.000122,4.000122]}},"index":27},"roughnessFactor":1.0}}],"meshes":[{"name":"pub#0_0","primitives":[{"attributes":{"NORMAL":1,"POSITION":0,"TEXCOORD_0":160},"indices":2,"material":1},{"attributes":{"NORMAL":4,"POSITION":3,"TEXCOORD_0":161},"indices":5,"material":3},{"attributes":{"NORMAL":7,"POSITION":6,"TEXCOORD_0":162},"indices":8,"material":0}]},{"name":"pub#0_0$lod1","primitives":[{"attributes":{"NORMAL":10,"POSITION":9,"TEXCOORD_0":163},"indices":11,"material":1},{"attributes":{"NORMAL":13,"POSITION":12,"TEXCOORD_0":164},"indices":14,"material":3},{"attributes":{"NORMAL":16,"POSITION":15,"TEXCOORD_0":165},"indices":17,"material":0}]},{"name":"pub#0_0$lod2","primitives":[{"attributes":{"NORMAL":19,"POSITION":18,"TEXCOORD_0":166},"indices":20,"material":1},{"attributes":{"NORMAL":22,"POSITION":21,"TEXCOORD_0":167},"indices":23,"material":3},{"attributes":{"NORMAL":25,"POSITION":24,"TEXCOORD_0":168},"indices":26,"material":0}]},{"name":"pub#0_0$lod3","primitives":[{"attributes":{"NORMAL":28,"POSITION":27,"TEXCOORD_0":169},"indices":29,"material":1},{"attributes":{"NORMAL":31,"POSITION":30,"TEXCOORD_0":170},"indices":32,"material":0}]},{"name":"pub#0_n1","primitives":[{"attributes":{"NORMAL":34,"POSITION":33,"TEXCOORD_0":171},"indices":35,"material":2},{"attributes":{"NORMAL":37,"POSITION":36,"TEXCOORD_0":172},"indices":38,"material":5},{"attributes":{"NORMAL":40,"POSITION":39,"TEXCOORD_0":173},"indices":41,"material":1},{"attributes":{"NORMAL":43,"POSITION":42,"TEXCOORD_0":174},"indices":44,"material":3},{"attributes":{"NORMAL":46,"POSITION":45,"TEXCOORD_0":175},"indices":47,"material":4},{"attributes":{"NORMAL":49,"POSITION":48,"TEXCOORD_0":176},"indices":50,"material":0},{"attributes":{"NORMAL":52,"POSITION":51,"TEXCOORD_0":177},"indices":53,"material":6}]},{"name":"pub#0_n1$lod1","primitives":[{"attributes":{"NORMAL":55,"POSITION":54,"TEXCOORD_0":178},"indices":56,"material":2},{"attributes":{"NORMAL":58,"POSITION":57,"TEXCOORD_0":179},"indices":59,"material":1},{"attributes":{"NORMAL":61,"POSITION":60,"TEXCOORD_0":180},"indices":62,"material":3},{"attributes":{"NORMAL":64,"POSITION":63,"TEXCOORD_0":181},"indices":65,"material":4}]},{"name":"pub#0_n1$lod2","primitives":[{"attributes":{"NORMAL":67,"POSITION":66,"TEXCOORD_0":182},"indices":68,"material":2},{"attributes":{"NORMAL":70,"POSITION":69,"TEXCOORD_0":183},"indices":71,"material":1},{"attributes":{"NORMAL":73,"POSITION":72,"TEXCOORD_0":184},"indices":74,"material":3}]},{"name":"pub#0_n1$lod3","primitives":[{"attributes":{"NORMAL":76,"POSITION":75,"TEXCOORD_0":185},"indices":77,"material":2},{"attributes":{"NORMAL":79,"POSITION":78,"TEXCOORD_0":186},"indices":80,"material":1}]},{"name":"pub#n1_0","primitives":[{"attributes":{"NORMAL":82,"POSITION":81,"TEXCOORD_0":187},"indices":83,"material":1},{"attributes":{"NORMAL":85,"POSITION":84,"TEXCOORD_0":188},"indices":86,"material":3},{"attributes":{"NORMAL":88,"POSITION":87,"TEXCOORD_0":189},"indices":89,"material":0},{"attributes":{"COLOR_0":92,"NORMAL":91,"POSITION":90,"TEXCOORD_0":190},"indices":93,"material":6}]},{"name":"pub#n1_0$lod1","primitives":[{"attributes":{"NORMAL":95,"POSITION":94,"TEXCOORD_0":191},"indices":96,"material":1},{"attributes":{"NORMAL":98,"POSITION":97,"TEXCOORD_0":192},"indices":99,"material":3},{"attributes":{"NORMAL":101,"POSITION":100,"TEXCOORD_0":193},"indices":102,"material":0},{"attributes":{"COLOR_0":105,"NORMAL":104,"POSITION":103,"TEXCOORD_0":194},"indices":106,"material":6}]},{"name":"pub#n1_0$lod2","primitives":[{"attributes":{"NORMAL":108,"POSITION":107,"TEXCOORD_0":195},"indices":109,"material":3},{"attributes":{"COLOR_0":112,"NORMAL":111,"POSITION":110,"TEXCOORD_0":196},"indices":113,"material":6}]},{"name":"pub#n1_0$lod3","primitives":[{"attributes":{"NORMAL":115,"POSITION":114,"TEXCOORD_0":197},"indices":116,"material":3},{"attributes":{"COLOR_0":119,"NORMAL":118,"POSITION":117,"TEXCOORD_0":198},"indices":120,"material":6}]},{"name":"pub#n1_n1","primitives":[{"attributes":{"NORMAL":122,"POSITION":121,"TEXCOORD_0":199},"indices":123,"material":7},{"attributes":{"NORMAL":125,"POSITION":124,"TEXCOORD_0":200},"indices":126,"material":5},{"attributes":{"NORMAL":128,"POSITION":127,"TEXCOORD_0":201},"indices":129,"material":1},{"attributes":{"NORMAL":131,"POSITION":130,"TEXCOORD_0":202},"indices":132,"material":0},{"attributes":{"NORMAL":134,"POSITION":133,"TEXCOORD_0":203},"indices":135,"material":6},{"attributes":{"NORMAL":137,"POSITION":136,"TEXCOORD_0":204},"indices":138,"material":8}]},{"name":"pub#n1_n1$lod1","primitives":[{"attributes":{"NORMAL":140,"POSITION":139,"TEXCOORD_0":205},"indices":141,"material":5},{"attributes":{"NORMAL":143,"POSITION":142,"TEXCOORD_0":206},"indices":144,"material":1},{"attributes":{"NORMAL":146,"POSITION":145,"TEXCOORD_0":207},"indices":147,"material":0}]},{"name":"pub#n1_n1$lod2","primitives":[{"attributes":{"NORMAL":149,"POSITION":148,"TEXCOORD_0":208},"indices":150,"material":1},{"attributes":{"NORMAL":152,"POSITION":151,"TEXCOORD_0":209},"indices":153,"material":0}]},{"name":"pub#n1_n1$lod3","primitives":[{"attributes":{"NORMAL":155,"POSITION":154,"TEXCOORD_0":210},"indices":156,"material":1},{"attributes":{"NORMAL":158,"POSITION":157,"TEXCOORD_0":211},"indices":159,"material":0}]}],"nodes":[{"extensions":{"MSFT_lod":{"ids":[1,2,3]}},"extras":{"MSFT_screencoverage":[0.94931,0.35599,0.1424,0.0],"hm":{"cell":"0_0","cullAt":null,"interior":null,"lod":0,"max":[5.2,6.109,4.2],"min":[-5.2,-0.3,-4.2],"prims":3,"tris":2168,"venue":"pub"}},"mesh":0,"name":"pub#0_0","scale":[5.199999809265137,3.204400062561035,4.199999809265137],"translation":[0.0,2.904399871826172,0.0]},{"extras":{"hm":{"cell":"0_0","cullAt":null,"interior":null,"lod":1,"max":[5.2,6.109,4.2],"min":[-5.2,-0.3,-4.2],"prims":3,"tris":1018,"venue":"pub"}},"mesh":1,"name":"pub#0_0$lod1","scale":[5.184999942779541,3.204400062561035,4.187000274658203],"translation":[0.0,2.904399871826172,0.002000093460083008]},{"extras":{"hm":{"cell":"0_0","cullAt":null,"interior":null,"lod":2,"max":[5.2,6.109,4.2],"min":[-5.2,-0.3,-4.2],"prims":3,"tris":305,"venue":"pub"}},"mesh":2,"name":"pub#0_0$lod2","scale":[5.179999828338623,3.1960666179656982,4.179999828338623],"translation":[0.0,2.912733316421509,0.0]},{"extras":{"hm":{"cell":"0_0","cullAt":null,"interior":null,"lod":3,"max":[5.2,6.109,4.2],"min":[-5.2,-0.3,-4.2],"prims":2,"tris":75,"venue":"pub"}},"mesh":3,"name":"pub#0_0$lod3","scale":[5.179999828338623,3.1960666179656982,4.179999828338623],"translation":[0.0,2.912733316421509,0.0]},{"extensions":{"MSFT_lod":{"ids":[5,6,7]}},"extras":{"MSFT_screencoverage":[1.0,0.49656,0.19862,0.0],"hm":{"cell":"0_n1","cullAt":null,"interior":null,"lod":0,"max":[7.8,2.8,6.0],"min":[-7.8,0.0,-7.283],"prims":7,"tris":4395,"venue":"pub"}},"mesh":4,"name":"pub#0_n1","scale":[7.800000190734863,1.4000000953674316,6.641428470611572],"translation":[0.0,1.4000000953674316,-0.6414284706115723]},{"extras":{"hm":{"cell":"0_n1","cullAt":null,"interior":null,"lod":1,"max":[7.8,2.8,6.0],"min":[-7.8,0.0,-7.283],"prims":4,"tris":2011,"venue":"pub"}},"mesh":5,"name":"pub#0_n1$lod1","scale":[7.800000190734863,1.3949999809265137,6.634873390197754],"translation":[0.0,1.4049999713897705,-0.6448736190795898]},{"extras":{"hm":{"cell":"0_n1","cullAt":null,"interior":null,"lod":2,"max":[7.8,2.8,6.0],"min":[-7.8,0.0,-7.283],"prims":3,"tris":628,"venue":"pub"}},"mesh":6,"name":"pub#0_n1$lod2","scale":[7.788888931274414,1.3895833492279053,6.633206844329834],"translation":[0.0,1.402916669845581,-0.6465401649475098]},{"extras":{"hm":{"cell":"0_n1","cullAt":null,"interior":null,"lod":3,"max":[7.8,2.8,6.0],"min":[-7.8,0.0,-7.283],"prims":2,"tris":125,"venue":"pub"}},"mesh":7,"name":"pub#0_n1$lod3","scale":[7.78851842880249,1.343590259552002,6.56040096282959],"translation":[0.0,1.4480347633361816,-0.5737342834472656]},{"extensions":{"MSFT_lod":{"ids":[9,10,11]}},"extras":{"MSFT_screencoverage":[1.0,0.39446,0.15778,0.0],"hm":{"cell":"n1_0","cullAt":null,"interior":null,"lod":0,"max":[5.521,8.024,4.612],"min":[-5.63,0.25,-4.612],"prims":4,"tris":4606,"venue":"pub"}},"mesh":8,"name":"pub#n1_0","scale":[5.575366020202637,3.8868799209594727,4.6120991706848145],"translation":[-0.05428719520568848,4.136879920959473,0.0]},{"extras":{"hm":{"cell":"n1_0","cullAt":null,"interior":null,"lod":1,"max":[5.521,8.024,4.612],"min":[-5.63,0.25,-4.612],"prims":4,"tris":2184,"venue":"pub"}},"mesh":9,"name":"pub#n1_0$lod1","scale":[5.571025848388672,3.883129835128784,4.6109819412231445],"translation":[-0.05611157417297363,4.140629768371582,0.0]},{"extras":{"hm":{"cell":"n1_0","cullAt":null,"interior":null,"lod":2,"max":[5.521,8.024,4.612],"min":[-5.63,0.25,-4.612],"prims":2,"tris":685,"venue":"pub"}},"mesh":10,"name":"pub#n1_0$lod2","scale":[5.565692901611328,3.8818798065185547,4.5585222244262695],"translation":[-0.052028656005859375,4.141880035400391,0.004133939743041992]},{"extras":{"hm":{"cell":"n1_0","cullAt":null,"interior":null,"lod":3,"max":[5.521,8.024,4.612],"min":[-5.63,0.25,-4.612],"prims":2,"tris":131,"venue":"pub"}},"mesh":11,"name":"pub#n1_0$lod3","scale":[5.56182336807251,3.865213394165039,4.554757118225098],"translation":[-0.052881717681884766,4.125213623046875,0.007899045944213867]},{"extensions":{"MSFT_lod":{"ids":[13,14,15]}},"extras":{"MSFT_screencoverage":[0.40243,0.15091,0.06036,0.0],"hm":{"cell":"n1_n1","cullAt":null,"interior":null,"lod":0,"max":[-0.268,2.667,-3.908],"min":[-4.565,-0.1,-7.566],"prims":6,"tris":3092,"venue":"pub"}},"mesh":12,"name":"pub#n1_n1","scale":[2.148301601409912,1.3833067417144775,1.8290956020355225],"translation":[-2.4163641929626465,1.2833068370819092,-5.73707389831543]},{"extras":{"hm":{"cell":"n1_n1","cullAt":null,"interior":null,"lod":1,"max":[-0.268,2.667,-3.908],"min":[-4.565,-0.1,-7.566],"prims":3,"tris":1400,"venue":"pub"}},"mesh":13,"name":"pub#n1_n1$lod1","scale":[2.1441140174865723,1.37981379032135,1.8251150846481323],"translation":[-2.4176626205444336,1.2798138856887817,-5.738164901733398]},{"extras":{"hm":{"cell":"n1_n1","cullAt":null,"interior":null,"lod":2,"max":[-0.268,2.667,-3.908],"min":[-4.565,-0.1,-7.566],"prims":2,"tris":445,"venue":"pub"}},"mesh":14,"name":"pub#n1_n1$lod2","scale":[2.1233913898468018,1.3433332443237305,1.8242262601852417],"translation":[-2.438385248184204,1.256666660308838,-5.739053726196289]},{"extras":{"hm":{"cell":"n1_n1","cullAt":null,"interior":null,"lod":3,"max":[-0.268,2.667,-3.908],"min":[-4.565,-0.1,-7.566],"prims":2,"tris":92,"venue":"pub"}},"mesh":15,"name":"pub#n1_n1$lod3","scale":[2.1118545532226562,1.2777776718139648,1.8016401529312134],"translation":[-2.4499220848083496,1.191666603088379,-5.7616400718688965]}],"samplers":[{"magFilter":9729,"minFilter":9987,"wrapS":10497,"wrapT":10497}],"scene":0,"scenes":[{"nodes":[0,4,8,12]}],"textures":[{"sampler":0,"source":0},{"sampler":0,"source":1},{"sampler":0,"source":2},{"sampler":0,"source":3},{"sampler":0,"source":4},{"sampler":0,"source":5},{"sampler":0,"source":6},{"sampler":0,"source":7},{"sampler":0,"source":8},{"sampler":0,"source":9},{"sampler":0,"source":10},{"sampler":0,"source":11},{"sampler":0,"source":12},{"sampler":0,"source":13},{"sampler":0,"source":14},{"sampler":0,"source":15},{"sampler":0,"source":16},{"sampler":0,"source":17},{"sampler":0,"source":18},{"sampler":0,"source":19},{"sampler":0,"source":20},{"sampler":0,"source":21},{"sampler":0,"source":22},{"sampler":0,"source":23},{"sampler":0,"source":24},{"sampler":0,"source":25},{"sampler":0,"source":26},{"sampler":0,"source":27},{"sampler":0,"source":28}]}