{"accessors":[{"bufferView":0,"componentType":5122,"count":17952,"max":[32749.0,32687.0,32767.0],"min":[-31740.0,-13783.0,-32767.0],"normalized":true,"type":"VEC3"},{"bufferView":1,"componentType":5120,"count":17952,"normalized":true,"type":"VEC3"},{"bufferView":2,"componentType":5123,"count":25188,"type":"SCALAR"},{"bufferView":3,"componentType":5122,"count":1992,"max":[775.0,4918.0,29846.0],"min":[-29864.0,-13783.0,-29432.0],"normalized":true,"type":"VEC3"},{"bufferView":4,"componentType":5120,"count":1992,"normalized":true,"type":"VEC3"},{"bufferView":5,"componentType":5123,"count":2964,"type":"SCALAR"},{"bufferView":6,"componentType":5122,"count":246,"max":[31365.0,29773.0,29846.0],"min":[-2666.0,-13783.0,-29432.0],"normalized":true,"type":"VEC3"},{"bufferView":7,"componentType":5120,"count":246,"normalized":true,"type":"VEC3"},{"bufferView":8,"componentType":5123,"count":336,"type":"SCALAR"},{"bufferView":9,"componentType":5122,"count":96,"max":[31144.0,1518.0,29432.0],"min":[30603.0,-13783.0,-29432.0],"normalized":true,"type":"VEC3"},{"bufferView":10,"componentType":5120,"count":96,"normalized":true,"type":"VEC3"},{"bufferView":11,"componentType":5123,"count":132,"type":"SCALAR"},{"bufferView":12,"componentType":5122,"count":672,"max":[29757.0,19359.0,28063.0],"min":[-32767.0,-32767.0,-28063.0],"normalized":true,"type":"VEC3"},{"bufferView":13,"componentType":5120,"count":672,"normalized":true,"type":"VEC3"},{"bufferView":14,"componentType":5123,"count":924,"type":"SCALAR"},{"bufferView":15,"componentType":5122,"count":15516,"max":[32767.0,32767.0,32478.0],"min":[-31757.0,1526.0,-32478.0],"normalized":true,"type":"VEC3"},{"bufferView":16,"componentType":5120,"count":15516,"normalized":true,"type":"VEC3"},{"bufferView":17,"componentType":5121,"count":15516,"normalized":true,"type":"VEC4"},{"bufferView":18,"componentType":5123,"count":21366,"type":"SCALAR"},{"bufferView":19,"componentType":5122,"count":10908,"max":[32615.0,32686.0,32767.0],"min":[-31606.0,-13791.0,-32767.0],"normalized":true,"type":"VEC3"},{"bufferView":20,"componentType":5120,"count":10908,"normalized":true,"type":"VEC3"},{"bufferView":21,"componentType":5123,"count":10908,"type":"SCALAR"},{"bufferView":22,"componentType":5122,"count":1425,"max":[730.0,4845.0,29855.0],"min":[-29824.0,-13791.0,-29373.0],"normalized":true,"type":"VEC3"},{"bufferView":23,"componentType":5120,"count":1425,"normalized":true,"type":"VEC3"},{"bufferView":24,"componentType":5123,"count":1425,"type":"SCALAR"},{"bufferView":25,"componentType":5122,"count":156,"max":[31365.0,29769.0,29441.0],"min":[-2666.0,-13833.0,-29441.0],"normalized":true,"type":"VEC3"},{"bufferView":26,"componentType":5120,"count":156,"normalized":true,"type":"VEC3"},{"bufferView":27,"componentType":5123,"count":156,"type":"SCALAR"},{"bufferView":28,"componentType":5122,"count":84,"max":[31110.0,1441.0,29441.0],"min":[30637.0,-13791.0,-29441.0],"normalized":true,"type":"VEC3"},{"bufferView":29,"componentType":5120,"count":84,"normalized":true,"type":"VEC3"},{"bufferView":30,"componentType":5123,"count":84,"type":"SCALAR"},{"bufferView":31,"componentType":5122,"count":366,"max":[29683.0,19345.0,27986.0],"min":[-32767.0,-32767.0,-27986.0],"normalized":true,"type":"VEC3"},{"bufferView":32,"componentType":5120,"count":366,"normalized":true,"type":"VEC3"},{"bufferView":33,"componentType":5123,"count":366,"type":"SCALAR"},{"bufferView":34,"componentType":5122,"count":9846,"max":[32767.0,32767.0,32487.0],"min":[-31740.0,1497.0,-32487.0],"normalized":true,"type":"VEC3"},{"bufferView":35,"componentType":5120,"count":9846,"normalized":true,"type":"VEC3"},{"bufferView":36,"componentType":5121,"count":9846,"normalized":true,"type":"VEC4"},{"bufferView":37,"componentType":5123,"count":9846,"type":"SCALAR"},{"bufferView":38,"componentType":5122,"count":48,"max":[31391.0,25302.0,29441.0],"min":[-2228.0,-14156.0,-29441.0],"normalized":true,"type":"VEC3"},{"bufferView":39,"componentType":5120,"count":48,"normalized":true,"type":"VEC3"},{"bufferView":40,"componentType":5123,"count":48,"type":"SCALAR"},{"bufferView":41,"componentType":5122,"count":3837,"max":[32644.0,32696.0,32767.0],"min":[-32767.0,-32767.0,-32767.0],"normalized":true,"type":"VEC3"},{"bufferView":42,"componentType":5120,"count":3837,"normalized":true,"type":"VEC3"},{"bufferView":43,"componentType":5123,"count":3837,"type":"SCALAR"},{"bufferView":44,"componentType":5122,"count":3018,"max":[32767.0,32767.0,32421.0],"min":[-31783.0,1432.0,-32427.0],"normalized":true,"type":"VEC3"},{"bufferView":45,"componentType":5120,"count":3018,"normalized":true,"type":"VEC3"},{"bufferView":46,"componentType":5121,"count":3018,"normalized":true,"type":"VEC4"},{"bufferView":47,"componentType":5123,"count":3018,"type":"SCALAR"},{"bufferView":48,"componentType":5122,"count":786,"max":[32650.0,32767.0,32767.0],"min":[-32655.0,-32767.0,-32767.0],"normalized":true,"type":"VEC3"},{"bufferView":49,"componentType":5120,"count":786,"normalized":true,"type":"VEC3"},{"bufferView":50,"componentType":5123,"count":786,"type":"SCALAR"},{"bufferView":51,"componentType":5122,"count":549,"max":[32767.0,31433.0,31032.0],"min":[-32767.0,2382.0,-31041.0],"normalized":true,"type":"VEC3"},{"bufferView":52,"componentType":5120,"count":549,"normalized":true,"type":"VEC3"},{"bufferView":53,"componentType":5121,"count":549,"normalized":true,"type":"VEC4"},{"bufferView":54,"componentType":5123,"count":549,"type":"SCALAR"},{"bufferView":55,"componentType":5122,"count":140,"max":[-12914.0,-13482.0,-22708.0],"min":[-14071.0,-14957.0,-25835.0],"normalized":true,"type":"VEC3"},{"bufferView":56,"componentType":5120,"count":140,"normalized":true,"type":"VEC3"},{"bufferView":57,"componentType":5123,"count":228,"type":"SCALAR"},{"bufferView":58,"componentType":5122,"count":252,"max":[-16337.0,-15830.0,-18576.0],"min":[-17366.0,-16847.0,-20959.0],"normalized":true,"type":"VEC3"},{"bufferView":59,"componentType":5120,"count":252,"normalized":true,"type":"VEC3"},{"bufferView":60,"componentType":5123,"count":420,"type":"SCALAR"},{"bufferView":61,"componentType":5122,"count":354,"max":[9657.0,7743.0,-19979.0],"min":[-17499.0,-25627.0,-26121.0],"normalized":true,"type":"VEC3"},{"bufferView":62,"componentType":5120,"count":354,"normalized":true,"type":"VEC3"},{"bufferView":63,"componentType":5123,"count":522,"type":"SCALAR"},{"bufferView":64,"componentType":5122,"count":96,"max":[23419.0,5415.0,-25710.0],"min":[19564.0,-1958.0,-26121.0],"normalized":true,"type":"VEC3"},{"bufferView":65,"componentType":5120,"count":96,"normalized":true,"type":"VEC3"},{"bufferView":66,"componentType":5123,"count":132,"type":"SCALAR"},{"bufferView":67,"componentType":5122,"count":22558,"max":[32767.0,16861.0,-14817.0],"min":[-32767.0,-32767.0,-32767.0],"normalized":true,"type":"VEC3"},{"bufferView":68,"componentType":5120,"count":22558,"normalized":true,"type":"VEC3"},{"bufferView":69,"componentType":5123,"count":32316,"type":"SCALAR"},{"bufferView":70,"componentType":5122,"count":888,"max":[0.0,16861.0,-24539.0],"min":[-32767.0,-8748.0,-26197.0],"normalized":true,"type":"VEC3"},{"bufferView":71,"componentType":5120,"count":888,"normalized":true,"type":"VEC3"},{"bufferView":72,"componentType":5123,"count":1320,"type":"SCALAR"},{"bufferView":73,"componentType":5122,"count":1344,"max":[31321.0,-8748.0,-20428.0],"min":[-31321.0,-32030.0,-22086.0],"normalized":true,"type":"VEC3"},{"bufferView":74,"componentType":5120,"count":1344,"normalized":true,"type":"VEC3"},{"bufferView":75,"componentType":5123,"count":1848,"type":"SCALAR"},{"bufferView":76,"componentType":5122,"count":480,"max":[32767.0,12205.0,-20428.0],"min":[-31321.0,-30478.0,-26197.0],"normalized":true,"type":"VEC3"},{"bufferView":77,"componentType":5120,"count":480,"normalized":true,"type":"VEC3"},{"bufferView":78,"componentType":5123,"count":660,"type":"SCALAR"},{"bufferView":79,"componentType":5122,"count":672,"max":[24093.0,29663.0,32767.0],"min":[-13010.0,-32030.0,-26903.0],"normalized":true,"type":"VEC3"},{"bufferView":80,"componentType":5120,"count":672,"normalized":true,"type":"VEC3"},{"bufferView":81,"componentType":5123,"count":924,"type":"SCALAR"},{"bufferView":82,"componentType":5122,"count":156,"max":[14406.0,32767.0,30439.0],"min":[12913.0,29663.0,26191.0],"normalized":true,"type":"VEC3"},{"bufferView":83,"componentType":5120,"count":156,"normalized":true,"type":"VEC3"},{"bufferView":84,"componentType":5123,"count":246,"type":"SCALAR"},{"bufferView":85,"componentType":5122,"count":15321,"max":[32767.0,32767.0,30439.0],"min":[-32767.0,-32767.0,-32767.0],"normalized":true,"type":"VEC3"},{"bufferView":86,"componentType":5120,"count":15321,"normalized":true,"type":"VEC3"},{"bufferView":87,"componentType":5123,"count":15321,"type":"SCALAR"},{"bufferView":88,"componentType":5122,"count":411,"max":[-54.0,16803.0,-24539.0],"min":[-32767.0,-8690.0,-26060.0],"normalized":true,"type":"VEC3"},{"bufferView":89,"componentType":5120,"count":411,"normalized":true,"type":"VEC3"},{"bufferView":90,"componentType":5123,"count":411,"type":"SCALAR"},{"bufferView":91,"componentType":5122,"count":864,"max":[31321.0,-8826.0,-20428.0],"min":[-31321.0,-31972.0,-22086.0],"normalized":true,"type":"VEC3"},{"bufferView":92,"componentType":5120,"count":864,"normalized":true,"type":"VEC3"},{"bufferView":93,"componentType":5123,"count":864,"type":"SCALAR"},{"bufferView":94,"componentType":5122,"count":282,"max":[32767.0,12205.0,-20480.0],"min":[-31324.0,-30419.0,-26197.0],"normalized":true,"type":"VEC3"},{"bufferView":95,"componentType":5120,"count":282,"normalized":true,"type":"VEC3"},{"bufferView":96,"componentType":5123,"count":282,"type":"SCALAR"},{"bufferView":97,"componentType":5122,"count":444,"max":[24069.0,29585.0,32767.0],"min":[-13016.0,-31952.0,-26833.0],"normalized":true,"type":"VEC3"},{"bufferView":98,"componentType":5120,"count":444,"normalized":true,"type":"VEC3"},{"bufferView":99,"componentType":5123,"count":444,"type":"SCALAR"},{"bufferView":100,"componentType":5122,"count":4881,"max":[32767.0,32767.0,32767.0],"min":[-32767.0,-32767.0,-32767.0],"normalized":true,"type":"VEC3"},{"bufferView":101,"componentType":5120,"count":4881,"normalized":true,"type":"VEC3"},{"bufferView":102,"componentType":5123,"count":4881,"type":"SCALAR"},{"bufferView":103,"componentType":5122,"count":117,"max":[-55.0,16774.0,-24954.0],"min":[-32765.0,-8681.0,-25315.0],"normalized":true,"type":"VEC3"},{"bufferView":104,"componentType":5120,"count":117,"normalized":true,"type":"VEC3"},{"bufferView":105,"componentType":5123,"count":117,"type":"SCALAR"},{"bufferView":106,"componentType":5122,"count":87,"max":[32765.0,12120.0,-21034.0],"min":[-31335.0,-30421.0,-26094.0],"normalized":true,"type":"VEC3"},{"bufferView":107,"componentType":5120,"count":87,"normalized":true,"type":"VEC3"},{"bufferView":108,"componentType":5123,"count":87,"type":"SCALAR"},{"bufferView":109,"componentType":5122,"count":882,"max":[32767.0,32767.0,32767.0],"min":[-32767.0,-32767.0,-32767.0],"normalized":true,"type":"VEC3"},{"bufferView":110,"componentType":5120,"count":882,"normalized":true,"type":"VEC3"},{"bufferView":111,"componentType":5123,"count":882,"type":"SCALAR"},{"bufferView":112,"componentType":5122,"count":24,"max":[-55.0,18797.0,-24564.0],"min":[-32765.0,-8099.0,-24943.0],"normalized":true,"type":"VEC3"},{"bufferView":113,"componentType":5120,"count":24,"normalized":true,"type":"VEC3"},{"bufferView":114,"componentType":5123,"count":24,"type":"SCALAR"},{"bufferView":115,"componentType":5122,"count":9840,"max":[32738.0,29294.0,32767.0],"min":[-32738.0,-12874.0,-32767.0],"normalized":true,"type":"VEC3"},{"bufferView":116,"componentType":5120,"count":9840,"normalized":true,"type":"VEC3"},{"bufferView":117,"componentType":5123,"count":13992,"type":"SCALAR"},{"bufferView":118,"componentType":5122,"count":1104,"max":[25631.0,6722.0,29469.0],"min":[24735.0,-12874.0,-29469.0],"normalized":true,"type":"VEC3"},{"bufferView":119,"componentType":5120,"count":1104,"normalized":true,"type":"VEC3"},{"bufferView":120,"componentType":5123,"count":1644,"type":"SCALAR"},{"bufferView":121,"componentType":5122,"count":342,"max":[30442.0,32767.0,29883.0],"min":[-30442.0,-12874.0,-29469.0],"normalized":true,"type":"VEC3"},{"bufferView":122,"componentType":5120,"count":342,"normalized":true,"type":"VEC3"},{"bufferView":123,"componentType":5123,"count":468,"type":"SCALAR"},{"bufferView":124,"componentType":5122,"count":288,"max":[27775.0,20035.0,28098.0],"min":[-27775.0,-32767.0,-28098.0],"normalized":true,"type":"VEC3"},{"bufferView":125,"componentType":5120,"count":288,"normalized":true,"type":"VEC3"},{"bufferView":126,"componentType":5123,"count":396,"type":"SCALAR"},{"bufferView":127,"componentType":5122,"count":7548,"max":[32767.0,29342.0,32519.0],"min":[-32767.0,4655.0,-32519.0],"normalized":true,"type":"VEC3"},{"bufferView":128,"componentType":5120,"count":7548,"normalized":true,"type":"VEC3"},{"bufferView":129,"componentType":5121,"count":7548,"normalized":true,"type":"VEC4"},{"bufferView":130,"componentType":5123,"count":10410,"type":"SCALAR"},{"bufferView":131,"componentType":5122,"count":6834,"max":[32767.0,29280.0,32767.0],"min":[-32767.0,-12881.0,-32767.0],"normalized":true,"type":"VEC3"},{"bufferView":132,"componentType":5120,"count":6834,"normalized":true,"type":"VEC3"},{"bufferView":133,"componentType":5123,"count":6834,"type":"SCALAR"},{"bufferView":134,"componentType":5122,"count":1428,"max":[25598.0,6693.0,29417.0],"min":[24812.0,-12866.0,-29417.0],"normalized":true,"type":"VEC3"},{"bufferView":135,"componentType":5120,"count":1428,"normalized":true,"type":"VEC3"},{"bufferView":136,"componentType":5123,"count":1428,"type":"SCALAR"},{"bufferView":137,"componentType":5122,"count":204,"max":[30468.0,32767.0,29607.0],"min":[-30469.0,-12881.0,-29469.0],"normalized":true,"type":"VEC3"},{"bufferView":138,"componentType":5120,"count":204,"normalized":true,"type":"VEC3"},{"bufferView":139,"componentType":5123,"count":204,"type":"SCALAR"},{"bufferView":140,"componentType":5122,"count":180,"max":[27707.0,19961.0,28098.0],"min":[-27707.0,-32767.0,-28098.0],"normalized":true,"type":"VEC3"},{"bufferView":141,"componentType":5120,"count":180,"normalized":true,"type":"VEC3"},{"bufferView":142,"componentType":5123,"count":180,"type":"SCALAR"},{"bufferView":143,"componentType":5122,"count":4962,"max":[32767.0,29338.0,32499.0],"min":[-32767.0,4623.0,-32499.0],"normalized":true,"type":"VEC3"},{"bufferView":144,"componentType":5120,"count":4962,"normalized":true,"type":"VEC3"},{"bufferView":145,"componentType":5121,"count":4962,"normalized":true,"type":"VEC4"},{"bufferView":146,"componentType":5123,"count":4962,"type":"SCALAR"},{"bufferView":147,"componentType":5122,"count":60,"max":[29669.0,32767.0,29735.0],"min":[-30476.0,-12486.0,-29687.0],"normalized":true,"type":"VEC3"},{"bufferView":148,"componentType":5120,"count":60,"normalized":true,"type":"VEC3"},{"bufferView":149,"componentType":5123,"count":60,"type":"SCALAR"},{"bufferView":150,"componentType":5122,"count":54,"max":[27687.0,21899.0,28231.0],"min":[-27673.0,-32767.0,-28231.0],"normalized":true,"type":"VEC3"},{"bufferView":151,"componentType":5120,"count":54,"normalized":true,"type":"VEC3"},{"bufferView":152,"componentType":5123,"count":54,"type":"SCALAR"},{"bufferView":153,"componentType":5122,"count":3609,"max":[32767.0,32339.0,32767.0],"min":[-32767.0,-12486.0,-32767.0],"normalized":true,"type":"VEC3"},{"bufferView":154,"componentType":5120,"count":3609,"normalized":true,"type":"VEC3"},{"bufferView":155,"componentType":5121,"count":3609,"normalized":true,"type":"VEC4"},{"bufferView":156,"componentType":5123,"count":3609,"type":"SCALAR"},{"bufferView":157,"componentType":5122,"count":24,"max":[27693.0,21875.0,28690.0],"min":[-27692.0,-32767.0,-28673.0],"normalized":true,"type":"VEC3"},{"bufferView":158,"componentType":5120,"count":24,"normalized":true,"type":"VEC3"},{"bufferView":159,"componentType":5123,"count":24,"type":"SCALAR"},{"bufferView":160,"componentType":5122,"count":642,"max":[32767.0,32767.0,32767.0],"min":[-32767.0,-12418.0,-32767.0],"normalized":true,"type":"VEC3"},{"bufferView":161,"componentType":5120,"count":642,"normalized":true,"type":"VEC3"},{"bufferView":162,"componentType":5121,"count":642,"normalized":true,"type":"VEC4"},{"bufferView":163,"componentType":5123,"count":642,"type":"SCALAR"},{"bufferView":164,"componentType":5122,"count":1260,"max":[28233.0,-8903.0,32767.0],"min":[18558.0,-10692.0,17579.0],"normalized":true,"type":"VEC3"},{"bufferView":165,"componentType":5120,"count":1260,"normalized":true,"type":"VEC3"},{"bufferView":166,"componentType":5123,"count":2100,"type":"SCALAR"},{"bufferView":167,"componentType":5122,"count":1392,"max":[28107.0,23866.0,26223.0],"min":[19477.0,-22526.0,-1316.0],"normalized":true,"type":"VEC3"},{"bufferView":168,"componentType":5120,"count":1392,"normalized":true,"type":"VEC3"},{"bufferView":169,"componentType":5123,"count":2196,"type":"SCALAR"},{"bufferView":170,"componentType":5122,"count":192,"max":[1485.0,21978.0,447.0],"min":[-21280.0,11729.0,-1316.0],"normalized":true,"type":"VEC3"},{"bufferView":171,"componentType":5120,"count":192,"normalized":true,"type":"VEC3"},{"bufferView":172,"componentType":5123,"count":264,"type":"SCALAR"},{"bufferView":173,"componentType":5122,"count":21902,"max":[32767.0,32767.0,31172.0],"min":[-32767.0,-32452.0,-32767.0],"normalized":true,"type":"VEC3"},{"bufferView":174,"componentType":5120,"count":21902,"normalized":true,"type":"VEC3"},{"bufferView":175,"componentType":5123,"count":32040,"type":"SCALAR"},{"bufferView":176,"componentType":5122,"count":672,"max":[13835.0,32767.0,23094.0],"min":[-32767.0,-29269.0,-1639.0],"normalized":true,"type":"VEC3"},{"bufferView":177,"componentType":5120,"count":672,"normalized":true,"type":"VEC3"},{"bufferView":178,"componentType":5123,"count":924,"type":"SCALAR"},{"bufferView":179,"componentType":5122,"count":288,"max":[12087.0,-3376.0,23094.0],"min":[-31019.0,-31427.0,15986.0],"normalized":true,"type":"VEC3"},{"bufferView":180,"componentType":5120,"count":288,"normalized":true,"type":"VEC3"},{"bufferView":181,"componentType":5123,"count":396,"type":"SCALAR"},{"bufferView":182,"componentType":5122,"count":384,"max":[25346.0,13003.0,20304.0],"min":[-25748.0,-31427.0,-4666.0],"normalized":true,"type":"VEC3"},{"bufferView":183,"componentType":5120,"count":384,"normalized":true,"type":"VEC3"},{"bufferView":184,"componentType":5123,"count":528,"type":"SCALAR"},{"bufferView":185,"componentType":5122,"count":96,"max":[8170.0,-30087.0,-4547.0],"min":[7384.0,-32767.0,-15122.0],"normalized":true,"type":"VEC3"},{"bufferView":186,"componentType":5120,"count":96,"normalized":true,"type":"VEC3"},{"bufferView":187,"componentType":5123,"count":132,"type":"SCALAR"},{"bufferView":188,"componentType":5122,"count":17556,"max":[32767.0,32767.0,32767.0],"min":[-32767.0,-32767.0,-32767.0],"normalized":true,"type":"VEC3"},{"bufferView":189,"componentType":5120,"count":17556,"normalized":true,"type":"VEC3"},{"bufferView":190,"componentType":5123,"count":17556,"type":"SCALAR"},{"bufferView":191,"componentType":5122,"count":432,"max":[13813.0,32659.0,23071.0],"min":[-32723.0,-29188.0,-1279.0],"normalized":true,"type":"VEC3"},{"bufferView":192,"componentType":5120,"count":432,"normalized":true,"type":"VEC3"},{"bufferView":193,"componentType":5123,"count":432,"type":"SCALAR"},{"bufferView":194,"componentType":5122,"count":192,"max":[12109.0,-3511.0,23071.0],"min":[-31019.0,-31427.0,16387.0],"normalized":true,"type":"VEC3"},{"bufferView":195,"componentType":5120,"count":192,"normalized":true,"type":"VEC3"},{"bufferView":196,"componentType":5123,"count":192,"type":"SCALAR"},{"bufferView":197,"componentType":5122,"count":4989,"max":[32767.0,32767.0,32767.0],"min":[-32767.0,-32767.0,-32767.0],"normalized":true,"type":"VEC3"},{"bufferView":198,"componentType":5120,"count":4989,"normalized":true,"type":"VEC3"},{"bufferView":199,"componentType":5123,"count":4989,"type":"SCALAR"},{"bufferView":200,"componentType":5122,"count":174,"max":[13799.0,32735.0,22863.0],"min":[-32709.0,-29274.0,983.0],"normalized":true,"type":"VEC3"},{"bufferView":201,"componentType":5120,"count":174,"normalized":true,"type":"VEC3"},{"bufferView":202,"componentType":5123,"count":174,"type":"SCALAR"},{"bufferView":203,"componentType":5122,"count":924,"max":[32767.0,32761.0,32767.0],"min":[-32766.0,-32767.0,-32767.0],"normalized":true,"type":"VEC3"},{"bufferView":204,"componentType":5120,"count":924,"normalized":true,"type":"VEC3"},{"bufferView":205,"componentType":5123,"count":924,"type":"SCALAR"},{"bufferView":206,"componentType":5122,"count":30,"max":[13871.0,32767.0,25639.0],"min":[-32767.0,-23388.0,2781.0],"normalized":true,"type":"VEC3"},{"bufferView":207,"componentType":5120,"count":30,"normalized":true,"type":"VEC3"},{"bufferView":208,"componentType":5123,"count":30,"type":"SCALAR"},{"bufferView":209,"componentType":5122,"count":17952,"normalized":true,"type":"VEC2"},{"bufferView":210,"componentType":5122,"count":1992,"normalized":true,"type":"VEC2"},{"bufferView":211,"componentType":5122,"count":246,"normalized":true,"type":"VEC2"},{"bufferView":212,"componentType":5122,"count":96,"normalized":true,"type":"VEC2"},{"bufferView":213,"componentType":5122,"count":672,"normalized":true,"type":"VEC2"},{"bufferView":214,"componentType":5122,"count":15516,"normalized":true,"type":"VEC2"},{"bufferView":215,"componentType":5122,"count":10908,"normalized":true,"type":"VEC2"},{"bufferView":216,"componentType":5122,"count":1425,"normalized":true,"type":"VEC2"},{"bufferView":217,"componentType":5122,"count":156,"normalized":true,"type":"VEC2"},{"bufferView":218,"componentType":5122,"count":84,"normalized":true,"type":"VEC2"},{"bufferView":219,"componentType":5122,"count":366,"normalized":true,"type":"VEC2"},{"bufferView":220,"componentType":5122,"count":9846,"normalized":true,"type":"VEC2"},{"bufferView":221,"componentType":5122,"count":48,"normalized":true,"type":"VEC2"},{"bufferView":222,"componentType":5122,"count":3837,"normalized":true,"type":"VEC2"},{"bufferView":223,"componentType":5122,"count":3018,"normalized":true,"type":"VEC2"},{"bufferView":224,"componentType":5122,"count":786,"normalized":true,"type":"VEC2"},{"bufferView":225,"componentType":5122,"count":549,"normalized":true,"type":"VEC2"},{"bufferView":226,"componentType":5122,"count":140,"normalized":true,"type":"VEC2"},{"bufferView":227,"componentType":5122,"count":252,"normalized":true,"type":"VEC2"},{"bufferView":228,"componentType":5122,"count":354,"normalized":true,"type":"VEC2"},{"bufferView":229,"componentType":5122,"count":96,"normalized":true,"type":"VEC2"},{"bufferView":230,"componentType":5122,"count":22558,"normalized":true,"type":"VEC2"},{"bufferView":231,"componentType":5122,"count":888,"normalized":true,"type":"VEC2"},{"bufferView":232,"componentType":5122,"count":1344,"normalized":true,"type":"VEC2"},{"bufferView":233,"componentType":5122,"count":480,"normalized":true,"type":"VEC2"},{"bufferView":234,"componentType":5122,"count":672,"normalized":true,"type":"VEC2"},{"bufferView":235,"componentType":5122,"count":156,"normalized":true,"type":"VEC2"},{"bufferView":236,"componentType":5122,"count":15321,"normalized":true,"type":"VEC2"},{"bufferView":237,"componentType":5122,"count":411,"normalized":true,"type":"VEC2"},{"bufferView":238,"componentType":5122,"count":864,"normalized":true,"type":"VEC2"},{"bufferView":239,"componentType":5122,"count":282,"normalized":true,"type":"VEC2"},{"bufferView":240,"componentType":5122,"count":444,"normalized":true,"type":"VEC2"},{"bufferView":241,"componentType":5122,"count":4881,"normalized":true,"type":"VEC2"},{"bufferView":242,"componentType":5122,"count":117,"normalized":true,"type":"VEC2"},{"bufferView":243,"componentType":5122,"count":87,"normalized":true,"type":"VEC2"},{"bufferView":244,"componentType":5122,"count":882,"normalized":true,"type":"VEC2"},{"bufferView":245,"componentType":5122,"count":24,"normalized":true,"type":"VEC2"},{"bufferView":246,"componentType":5122,"count":9840,"normalized":true,"type":"VEC2"},{"bufferView":247,"componentType":5122,"count":1104,"normalized":true,"type":"VEC2"},{"bufferView":248,"componentType":5122,"count":342,"normalized":true,"type":"VEC2"},{"bufferView":249,"componentType":5122,"count":288,"normalized":true,"type":"VEC2"},{"bufferView":250,"componentType":5122,"count":7548,"normalized":true,"type":"VEC2"},{"bufferView":251,"componentType":5122,"count":6834,"normalized":true,"type":"VEC2"},{"bufferView":252,"componentType":5122,"count":1428,"normalized":true,"type":"VEC2"},{"bufferView":253,"componentType":5122,"count":204,"normalized":true,"type":"VEC2"},{"bufferView":254,"componentType":5122,"count":180,"normalized":true,"type":"VEC2"},{"bufferView":255,"componentType":5122,"count":4962,"normalized":true,"type":"VEC2"},{"bufferView":256,"componentType":5122,"count":60,"normalized":true,"type":"VEC2"},{"bufferView":257,"componentType":5122,"count":54,"normalized":true,"type":"VEC2"},{"bufferView":258,"componentType":5122,"count":3609,"normalized":true,"type":"VEC2"},{"bufferView":259,"componentType":5122,"count":24,"normalized":true,"type":"VEC2"},{"bufferView":260,"componentType":5122,"count":642,"normalized":true,"type":"VEC2"},{"bufferView":261,"componentType":5122,"count":1260,"normalized":true,"type":"VEC2"},{"bufferView":262,"componentType":5122,"count":1392,"normalized":true,"type":"VEC2"},{"bufferView":263,"componentType":5122,"count":192,"normalized":true,"type":"VEC2"},{"bufferView":264,"componentType":5122,"count":21902,"normalized":true,"type":"VEC2"},{"bufferView":265,"componentType":5122,"count":672,"normalized":true,"type":"VEC2"},{"bufferView":266,"componentType":5122,"count":288,"normalized":true,"type":"VEC2"},{"bufferView":267,"componentType":5122,"count":384,"normalized":true,"type":"VEC2"},{"bufferView":268,"componentType":5122,"count":96,"normalized":true,"type":"VEC2"},{"bufferView":269,"componentType":5122,"count":17556,"normalized":true,"type":"VEC2"},{"bufferView":270,"componentType":5122,"count":432,"normalized":true,"type":"VEC2"},{"bufferView":271,"componentType":5122,"count":192,"normalized":true,"type":"VEC2"},{"bufferView":272,"componentType":5122,"count":4989,"normalized":true,"type":"VEC2"},{"bufferView":273,"componentType":5122,"count":174,"normalized":true,"type":"VEC2"},{"bufferView":274,"componentType":5122,"count":924,"normalized":true,"type":"VEC2"},{"bufferView":275,"componentType":5122,"count":30,"normalized":true,"type":"VEC2"}],"asset":{"generator":"evermore assetgen","version":"2.0"},"bufferViews":[{"buffer":0,"byteLength":143616,"byteOffset":0,"byteStride":8,"target":34962},{"buffer":0,"byteLength":71808,"byteOffset":143616,"byteStride":4,"target":34962},{"buffer":0,"byteLength":50376,"byteOffset":215424,"target":34963},{"buffer":0,"byteLength":15936,"byteOffset":265800,"byteStride":8,"target":34962},{"buffer":0,"byteLength":7968,"byteOffset":281736,"byteStride":4,"target":34962},{"buffer":0,"byteLength":5928,"byteOffset":289704,"target":34963},{"buffer":0,"byteLength":1968,"byteOffset":295632,"byteStride":8,"target":34962},{"buffer":0,"byteLength":984,"byteOffset":297600,"byteStride":4,"target":34962},{"buffer":0,"byteLength":672,"byteOffset":298584,"target":34963},{"buffer":0,"byteLength":768,"byteOffset":299256,"byteStride":8,"target":34962},{"buffer":0,"byteLength":384,"byteOffset":300024,"byteStride":4,"target":34962},{"buffer":0,"byteLength":264,"byteOffset":300408,"target":34963},{"buffer":0,"byteLength":5376,"byteOffset":300672,"byteStride":8,"target":34962},{"buffer":0,"byteLength":2688,"byteOffset":306048,"byteStride":4,"target":34962},{"buffer":0,"byteLength":1848,"byteOffset":308736,"target":34963},{"buffer":0,"byteLength":124128,"byteOffset":310584,"byteStride":8,"target":34962},{"buffer":0,"byteLength":62064,"byteOffset":434712,"byteStride":4,"target":34962},{"buffer":0,"byteLength":62064,"byteOffset":496776,"byteStride":4,"target":34962},{"buffer":0,"byteLength":42732,"byteOffset":558840,"target":34963},{"buffer":0,"byteLength":87264,"byteOffset":601572,"byteStride":8,"target":34962},{"buffer":0,"byteLength":43632,"byteOffset":688836,"byteStride":4,"target":34962},{"buffer":0,"byteLength":21816,"byteOffset":732468,"target":34963},{"buffer":0,"byteLength":11400,"byteOffset":754284,"byteStride":8,"target":34962},{"buffer":0,"byteLength":5700,"byteOffset":765684,"byteStride":4,"target":34962},{"buffer":0,"byteLength":2850,"byteOffset":771384,"target":34963},{"buffer":0,"byteLength":1248,"byteOffset":774236,"byteStride":8,"target":34962},{"buffer":0,"byteLength":624,"byteOffset":775484,"byteStride":4,"target":34962},{"buffer":0,"byteLength":312,"byteOffset":776108,"target":34963},{"buffer":0,"byteLength":672,"byteOffset":776420,"byteStride":8,"target":34962},{"buffer":0,"byteLength":336,"byteOffset":777092,"byteStride":4,"target":34962},{"buffer":0,"byteLength":168,"byteOffset":777428,"target":34963},{"buffer":0,"byteLength":2928,"byteOffset":777596,"byteStride":8,"target":34962},{"buffer":0,"byteLength":1464,"byteOffset":780524,"byteStride":4,"target":34962},{"buffer":0,"byteLength":732,"byteOffset":781988,"target":34963},{"buffer":0,"byteLength":78768,"byteOffset":782720,"byteStride":8,"target":34962},{"buffer":0,"byteLength":39384,"byteOffset":861488,"byteStride":4,"target":34962},{"buffer":0,"byteLength":39384,"byteOffset":900872,"byteStride":4,"target":34962},{"buffer":0,"byteLength":19692,"byteOffset":940256,"target":34963},{"buffer":0,"byteLength":384,"byteOffset":959948,"byteStride":8,"target":34962},{"buffer":0,"byteLength":192,"byteOffset":960332,"byteStride":4,"target":34962},{"buffer":0,"byteLength":96,"byteOffset":960524,"target":34963},{"buffer":0,"byteLength":30696,"byteOffset":960620,"byteStride":8,"target":34962},{"buffer":0,"byteLength":15348,"byteOffset":991316,"byteStride":4,"target":34962},{"buffer":0,"byteLength":7674,"byteOffset":1006664,"target":34963},{"buffer":0,"byteLength":24144,"byteOffset":1014340,"byteStride":8,"target":34962},{"buffer":0,"byteLength":12072,"byteOffset":1038484,"byteStride":4,"target":34962},{"buffer":0,"byteLength":12072,"byteOffset":1050556,"byteStride":4,"target":34962},{"buffer":0,"byteLength":6036,"byteOffset":1062628,"target":34963},{"buffer":0,"byteLength":6288,"byteOffset":1068664,"byteStride":8,"target":34962},{"buffer":0,"byteLength":3144,"byteOffset":1074952,"byteStride":4,"target":34962},{"buffer":0,"byteLength":1572,"byteOffset":1078096,"target":34963},{"buffer":0,"byteLength":4392,"byteOffset":1079668,"byteStride":8,"target":34962},{"buffer":0,"byteLength":2196,"byteOffset":1084060,"byteStride":4,"target":34962},{"buffer":0,"byteLength":2196,"byteOffset":1086256,"byteStride":4,"target":34962},{"buffer":0,"byteLength":1098,"byteOffset":1088452,"target":34963},{"buffer":0,"byteLength":1120,"byteOffset":1089552,"byteStride":8,"target":34962},{"buffer":0,"byteLength":560,"byteOffset":1090672,"byteStride":4,"target":34962},{"buffer":0,"byteLength":456,"byteOffset":1091232,"target":34963},{"buffer":0,"byteLength":2016,"byteOffset":1091688,"byteStride":8,"target":34962},{"buffer":0,"byteLength":1008,"byteOffset":1093704,"byteStride":4,"target":34962},{"buffer":0,"byteLength":840,"byteOffset":1094712,"target":34963},{"buffer":0,"byteLength":2832,"byteOffset":1095552,"byteStride":8,"target":34962},{"buffer":0,"byteLength":1416,"byteOffset":1098384,"byteStride":4,"target":34962},{"buffer":0,"byteLength":1044,"byteOffset":1099800,"target":34963},{"buffer":0,"byteLength":768,"byteOffset":1100844,"byteStride":8,"target":34962},{"buffer":0,"byteLength":384,"byteOffset":1101612,"byteStride":4,"target":34962},{"buffer":0,"byteLength":264,"byteOffset":1101996,"target":34963},{"buffer":0,"byteLength":180464,"byteOffset":1102260,"byteStride":8,"target":34962},{"buffer":0,"byteLength":90232,"byteOffset":1282724,"byteStride":4,"target":34962},{"buffer":0,"byteLength":64632,"byteOffset":1372956,"target":34963},{"buffer":0,"byteLength":7104,"byteOffset":1437588,"byteStride":8,"target":34962},{"buffer":0,"byteLength":3552,"byteOffset":1444692,"byteStride":4,"target":34962},{"buffer":0,"byteLength":2640,"byteOffset":1448244,"target":34963},{"buffer":0,"byteLength":10752,"byteOffset":1450884,"byteStride":8,"target":34962},{"buffer":0,"byteLength":5376,"byteOffset":1461636,"byteStride":4,"target":34962},{"buffer":0,"byteLength":3696,"byteOffset":1467012,"target":34963},{"buffer":0,"byteLength":3840,"byteOffset":1470708,"byteStride":8,"target":34962},{"buffer":0,"byteLength":1920,"byteOffset":1474548,"byteStride":4,"target":34962},{"buffer":0,"byteLength":1320,"byteOffset":1476468,"target":34963},{"buffer":0,"byteLength":5376,"byteOffset":1477788,"byteStride":8,"target":34962},{"buffer":0,"byteLength":2688,"byteOffset":1483164,"byteStride":4,"target":34962},{"buffer":0,"byteLength":1848,"byteOffset":1485852,"target":34963},{"buffer":0,"byteLength":1248,"byteOffset":1487700,"byteStride":8,"target":34962},{"buffer":0,"byteLength":624,"byteOffset":1488948,"byteStride":4,"target":34962},{"buffer":0,"byteLength":492,"byteOffset":1489572,"target":34963},{"buffer":0,"byteLength":122568,"byteOffset":1490064,"byteStride":8,"target":34962},{"buffer":0,"byteLength":61284,"byteOffset":1612632,"byteStride":4,"target":34962},{"buffer":0,"byteLength":30642,"byteOffset":1673916,"target":34963},{"buffer":0,"byteLength":3288,"byteOffset":1704560,"byteStride":8,"target":34962},{"buffer":0,"byteLength":1644,"byteOffset":1707848,"byteStride":4,"target":34962},{"buffer":0,"byteLength":822,"byteOffset":1709492,"target":34963},{"buffer":0,"byteLength":6912,"byteOffset":1710316,"byteStride":8,"target":34962},{"buffer":0,"byteLength":3456,"byteOffset":1717228,"byteStride":4,"target":34962},{"buffer":0,"byteLength":1728,"byteOffset":1720684,"target":34963},{"buffer":0,"byteLength":2256,"byteOffset":1722412,"byteStride":8,"target":34962},{"buffer":0,"byteLength":1128,"byteOffset":1724668,"byteStride":4,"target":34962},{"buffer":0,"byteLength":564,"byteOffset":1725796,"target":34963},{"buffer":0,"byteLength":3552,"byteOffset":1726360,"byteStride":8,"target":34962},{"buffer":0,"byteLength":1776,"byteOffset":1729912,"byteStride":4,"target":34962},{"buffer":0,"byteLength":888,"byteOffset":1731688,"target":34963},{"buffer":0,"byteLength":39048,"byteOffset":1732576,"byteStride":8,"target":34962},{"buffer":0,"byteLength":19524,"byteOffset":1771624,"byteStride":4,"target":34962},{"buffer":0,"byteLength":9762,"byteOffset":1791148,"target":34963},{"buffer":0,"byteLength":936,"byteOffset":1800912,"byteStride":8,"target":34962},{"buffer":0,"byteLength":468,"byteOffset":1801848,"byteStride":4,"target":34962},{"buffer":0,"byteLength":234,"byteOffset":1802316,"target":34963},{"buffer":0,"byteLength":696,"byteOffset":1802552,"byteStride":8,"target":34962},{"buffer":0,"byteLength":348,"byteOffset":1803248,"byteStride":4,"target":34962},{"buffer":0,"byteLength":174,"byteOffset":1803596,"target":34963},{"buffer":0,"byteLength":7056,"byteOffset":1803772,"byteStride":8,"target":34962},{"buffer":0,"byteLength":3528,"byteOffset":1810828,"byteStride":4,"target":34962},{"buffer":0,"byteLength":1764,"byteOffset":1814356,"target":34963},{"buffer":0,"byteLength":192,"byteOffset":1816120,"byteStride":8,"target":34962},{"buffer":0,"byteLength":96,"byteOffset":1816312,"byteStride":4,"target":34962},{"buffer":0,"byteLength":48,"byteOffset":1816408,"target":34963},{"buffer":0,"byteLength":78720,"byteOffset":1816456,"byteStride":8,"target":34962},{"buffer":0,"byteLength":39360,"byteOffset":1895176,"byteStride":4,"target":34962},{"buffer":0,"byteLength":27984,"byteOffset":1934536,"target":34963},{"buffer":0,"byteLength":8832,"byteOffset":1962520,"byteStride":8,"target":34962},{"buffer":0,"byteLength":4416,"byteOffset":1971352,"byteStride":4,"target":34962},{"buffer":0,"byteLength":3288,"byteOffset":1975768,"target":34963},{"buffer":0,"byteLength":2736,"byteOffset":1979056,"byteStride":8,"target":34962},{"buffer":0,"byteLength":1368,"byteOffset":1981792,"byteStride":4,"target":34962},{"buffer":0,"byteLength":936,"byteOffset":1983160,"target":34963},{"buffer":0,"byteLength":2304,"byteOffset":1984096,"byteStride":8,"target":34962},{"buffer":0,"byteLength":1152,"byteOffset":1986400,"byteStride":4,"target":34962},{"buffer":0,"byteLength":792,"byteOffset":1987552,"target":34963},{"buffer":0,"byteLength":60384,"byteOffset":1988344,"byteStride":8,"target":34962},{"buffer":0,"byteLength":30192,"byteOffset":2048728,"byteStride":4,"target":34962},{"buffer":0,"byteLength":30192,"byteOffset":2078920,"byteStride":4,"target":34962},{"buffer":0,"byteLength":20820,"byteOffset":2109112,"target":34963},{"buffer":0,"byteLength":54672,"byteOffset":2129932,"byteStride":8,"target":34962},{"buffer":0,"byteLength":27336,"byteOffset":2184604,"byteStride":4,"target":34962},{"buffer":0,"byteLength":13668,"byteOffset":2211940,"target":34963},{"buffer":0,"byteLength":11424,"byteOffset":2225608,"byteStride":8,"target":34962},{"buffer":0,"byteLength":5712,"byteOffset":2237032,"byteStride":4,"target":34962},{"buffer":0,"byteLength":2856,"byteOffset":2242744,"target":34963},{"buffer":0,"byteLength":1632,"byteOffset":2245600,"byteStride":8,"target":34962},{"buffer":0,"byteLength":816,"byteOffset":2247232,"byteStride":4,"target":34962},{"buffer":0,"byteLength":408,"byteOffset":2248048,"target":34963},{"buffer":0,"byteLength":1440,"byteOffset":2248456,"byteStride":8,"target":34962},{"buffer":0,"byteLength":720,"byteOffset":2249896,"byteStride":4,"target":34962},{"buffer":0,"byteLength":360,"byteOffset":2250616,"target":34963},{"buffer":0,"byteLength":39696,"byteOffset":2250976,"byteStride":8,"target":34962},{"buffer":0,"byteLength":19848,"byteOffset":2290672,"byteStride":4,"target":34962},{"buffer":0,"byteLength":19848,"byteOffset":2310520,"byteStride":4,"target":34962},{"buffer":0,"byteLength":9924,"byteOffset":2330368,"target":34963},{"buffer":0,"byteLength":480,"byteOffset":2340292,"byteStride":8,"target":34962},{"buffer":0,"byteLength":240,"byteOffset":2340772,"byteStride":4,"target":34962},{"buffer":0,"byteLength":120,"byteOffset":2341012,"target":34963},{"buffer":0,"byteLength":432,"byteOffset":2341132,"byteStride":8,"target":34962},{"buffer":0,"byteLength":216,"byteOffset":2341564,"byteStride":4,"target":34962},{"buffer":0,"byteLength":108,"byteOffset":2341780,"target":34963},{"buffer":0,"byteLength":28872,"byteOffset":2341888,"byteStride":8,"target":34962},{"buffer":0,"byteLength":14436,"byteOffset":2370760,"byteStride":4,"target":34962},{"buffer":0,"byteLength":14436,"byteOffset":2385196,"byteStride":4,"target":34962},{"buffer":0,"byteLength":7218,"byteOffset":2399632,"target":34963},{"buffer":0,"byteLength":192,"byteOffset":2406852,"byteStride":8,"target":34962},{"buffer":0,"byteLength":96,"byteOffset":2407044,"byteStride":4,"target":34962},{"buffer":0,"byteLength":48,"byteOffset":2407140,"target":34963},{"buffer":0,"byteLength":5136,"byteOffset":2407188,"byteStride":8,"target":34962},{"buffer":0,"byteLength":2568,"byteOffset":2412324,"byteStride":4,"target":34962},{"buffer":0,"byteLength":2568,"byteOffset":2414892,"byteStride":4,"target":34962},{"buffer":0,"byteLength":1284,"byteOffset":2417460,"target":34963},{"buffer":0,"byteLength":10080,"byteOffset":2418744,"byteStride":8,"target":34962},{"buffer":0,"byteLength":5040,"byteOffset":2428824,"byteStride":4,"target":34962},{"buffer":0,"byteLength":4200,"byteOffset":2433864,"target":34963},{"buffer":0,"byteLength":11136,"byteOffset":2438064,"byteStride":8,"target":34962},{"buffer":0,"byteLength":5568,"byteOffset":2449200,"byteStride":4,"target":34962},{"buffer":0,"byteLength":4392,"byteOffset":2454768,"target":34963},{"buffer":0,"byteLength":1536,"byteOffset":2459160,"byteStride":8,"target":34962},{"buffer":0,"byteLength":768,"byteOffset":2460696,"byteStride":4,"target":34962},{"buffer":0,"byteLength":528,"byteOffset":2461464,"target":34963},{"buffer":0,"byteLength":175216,"byteOffset":2461992,"byteStride":8,"target":34962},{"buffer":0,"byteLength":87608,"byteOffset":2637208,"byteStride":4,"target":34962},{"buffer":0,"byteLength":64080,"byteOffset":2724816,"target":34963},{"buffer":0,"byteLength":5376,"byteOffset":2788896,"byteStride":8,"target":34962},{"buffer":0,"byteLength":2688,"byteOffset":2794272,"byteStride":4,"target":34962},{"buffer":0,"byteLength":1848,"byteOffset":2796960,"target":34963},{"buffer":0,"byteLength":2304,"byteOffset":2798808,"byteStride":8,"target":34962},{"buffer":0,"byteLength":1152,"byteOffset":2801112,"byteStride":4,"target":34962},{"buffer":0,"byteLength":792,"byteOffset":2802264,"target":34963},{"buffer":0,"byteLength":3072,"byteOffset":2803056,"byteStride":8,"target":34962},{"buffer":0,"byteLength":1536,"byteOffset":2806128,"byteStride":4,"target":34962},{"buffer":0,"byteLength":1056,"byteOffset":2807664,"target":34963},{"buffer":0,"byteLength":768,"byteOffset":2808720,"byteStride":8,"target":34962},{"buffer":0,"byteLength":384,"byteOffset":2809488,"byteStride":4,"target":34962},{"buffer":0,"byteLength":264,"byteOffset":2809872,"target":34963},{"buffer":0,"byteLength":140448,"byteOffset":2810136,"byteStride":8,"target":34962},{"buffer":0,"byteLength":70224,"byteOffset":2950584,"byteStride":4,"target":34962},{"buffer":0,"byteLength":35112,"byteOffset":3020808,"target":34963},{"buffer":0,"byteLength":3456,"byteOffset":3055920,"byteStride":8,"target":34962},{"buffer":0,"byteLength":1728,"byteOffset":3059376,"byteStride":4,"target":34962},{"buffer":0,"byteLength":864,"byteOffset":3061104,"target":34963},{"buffer":0,"byteLength":1536,"byteOffset":3061968,"byteStride":8,"target":34962},{"buffer":0,"byteLength":768,"byteOffset":3063504,"byteStride":4,"target":34962},{"buffer":0,"byteLength":384,"byteOffset":3064272,"target":34963},{"buffer":0,"byteLength":39912,"byteOffset":3064656,"byteStride":8,"target":34962},{"buffer":0,"byteLength":19956,"byteOffset":3104568,"byteStride":4,"target":34962},{"buffer":0,"byteLength":9978,"byteOffset":3124524,"target":34963},{"buffer":0,"byteLength":1392,"byteOffset":3134504,"byteStride":8,"target":34962},{"buffer":0,"byteLength":696,"byteOffset":3135896,"byteStride":4,"target":34962},{"buffer":0,"byteLength":348,"byteOffset":3136592,"target":34963},{"buffer":0,"byteLength":7392,"byteOffset":3136940,"byteStride":8,"target":34962},{"buffer":0,"byteLength":3696,"byteOffset":3144332,"byteStride":4,"target":34962},{"buffer":0,"byteLength":1848,"byteOffset":3148028,"target":34963},{"buffer":0,"byteLength":240,"byteOffset":3149876,"byteStride":8,"target":34962},{"buffer":0,"byteLength":120,"byteOffset":3150116,"byteStride":4,"target":34962},{"buffer":0,"byteLength":60,"byteOffset":3150236,"target":34963},{"buffer":0,"byteLength":71808,"byteOffset":3150296,"byteStride":4,"target":34962},{"buffer":0,"byteLength":7968,"byteOffset":3222104,"byteStride":4,"target":34962},{"buffer":0,"byteLength":984,"byteOffset":3230072,"byteStride":4,"target":34962},{"buffer":0,"byteLength":384,"byteOffset":3231056,"byteStride":4,"target":34962},{"buffer":0,"byteLength":2688,"byteOffset":3231440,"byteStride":4,"target":34962},{"buffer":0,"byteLength":62064,"byteOffset":3234128,"byteStride":4,"target":34962},{"buffer":0,"byteLength":43632,"byteOffset":3296192,"byteStride":4,"target":34962},{"buffer":0,"byteLength":5700,"byteOffset":3339824,"byteStride":4,"target":34962},{"buffer":0,"byteLength":624,"byteOffset":3345524,"byteStride":4,"target":34962},{"buffer":0,"byteLength":336,"byteOffset":3346148,"byteStride":4,"target":34962},{"buffer":0,"byteLength":1464,"byteOffset":3346484,"byteStride":4,"target":34962},{"buffer":0,"byteLength":39384,"byteOffset":3347948,"byteStride":4,"target":34962},{"buffer":0,"byteLength":192,"byteOffset":3387332,"byteStride":4,"target":34962},{"buffer":0,"byteLength":15348,"byteOffset":3387524,"byteStride":4,"target":34962},{"buffer":0,"byteLength":12072,"byteOffset":3402872,"byteStride":4,"target":34962},{"buffer":0,"byteLength":3144,"byteOffset":3414944,"byteStride":4,"target":34962},{"buffer":0,"byteLength":2196,"byteOffset":3418088,"byteStride":4,"target":34962},{"buffer":0,"byteLength":560,"byteOffset":3420284,"byteStride":4,"target":34962},{"buffer":0,"byteLength":1008,"byteOffset":3420844,"byteStride":4,"target":34962},{"buffer":0,"byteLength":1416,"byteOffset":3421852,"byteStride":4,"target":34962},{"buffer":0,"byteLength":384,"byteOffset":3423268,"byteStride":4,"target":34962},{"buffer":0,"byteLength":90232,"byteOffset":3423652,"byteStride":4,"target":34962},{"buffer":0,"byteLength":3552,"byteOffset":3513884,"byteStride":4,"target":34962},{"buffer":0,"byteLength":5376,"byteOffset":3517436,"byteStride":4,"target":34962},{"buffer":0,"byteLength":1920,"byteOffset":3522812,"byteStride":4,"target":34962},{"buffer":0,"byteLength":2688,"byteOffset":3524732,"byteStride":4,"target":34962},{"buffer":0,"byteLength":624,"byteOffset":3527420,"byteStride":4,"target":34962},{"buffer":0,"byteLength":61284,"byteOffset":3528044,"byteStride":4,"target":34962},{"buffer":0,"byteLength":1644,"byteOffset":3589328,"byteStride":4,"target":34962},{"buffer":0,"byteLength":3456,"byteOffset":3590972,"byteStride":4,"target":34962},{"buffer":0,"byteLength":1128,"byteOffset":3594428,"byteStride":4,"target":34962},{"buffer":0,"byteLength":1776,"byteOffset":3595556,"byteStride":4,"target":34962},{"buffer":0,"byteLength":19524,"byteOffset":3597332,"byteStride":4,"target":34962},{"buffer":0,"byteLength":468,"byteOffset":3616856,"byteStride":4,"target":34962},{"buffer":0,"byteLength":348,"byteOffset":3617324,"byteStride":4,"target":34962},{"buffer":0,"byteLength":3528,"byteOffset":3617672,"byteStride":4,"target":34962},{"buffer":0,"byteLength":96,"byteOffset":3621200,"byteStride":4,"target":34962},{"buffer":0,"byteLength":39360,"byteOffset":3621296,"byteStride":4,"target":34962},{"buffer":0,"byteLength":4416,"byteOffset":3660656,"byteStride":4,"target":34962},{"buffer":0,"byteLength":1368,"byteOffset":3665072,"byteStride":4,"target":34962},{"buffer":0,"byteLength":1152,"byteOffset":3666440,"byteStride":4,"target":34962},{"buffer":0,"byteLength":30192,"byteOffset":3667592,"byteStride":4,"target":34962},{"buffer":0,"byteLength":27336,"byteOffset":3697784,"byteStride":4,"target":34962},{"buffer":0,"byteLength":5712,"byteOffset":3725120,"byteStride":4,"target":34962},{"buffer":0,"byteLength":816,"byteOffset":3730832,"byteStride":4,"target":34962},{"buffer":0,"byteLength":720,"byteOffset":3731648,"byteStride":4,"target":34962},{"buffer":0,"byteLength":19848,"byteOffset":3732368,"byteStride":4,"target":34962},{"buffer":0,"byteLength":240,"byteOffset":3752216,"byteStride":4,"target":34962},{"buffer":0,"byteLength":216,"byteOffset":3752456,"byteStride":4,"target":34962},{"buffer":0,"byteLength":14436,"byteOffset":3752672,"byteStride":4,"target":34962},{"buffer":0,"byteLength":96,"byteOffset":3767108,"byteStride":4,"target":34962},{"buffer":0,"byteLength":2568,"byteOffset":3767204,"byteStride":4,"target":34962},{"buffer":0,"byteLength":5040,"byteOffset":3769772,"byteStride":4,"target":34962},{"buffer":0,"byteLength":5568,"byteOffset":3774812,"byteStride":4,"target":34962},{"buffer":0,"byteLength":768,"byteOffset":3780380,"byteStride":4,"target":34962},{"buffer":0,"byteLength":87608,"byteOffset":3781148,"byteStride":4,"target":34962},{"buffer":0,"byteLength":2688,"byteOffset":3868756,"byteStride":4,"target":34962},{"buffer":0,"byteLength":1152,"byteOffset":3871444,"byteStride":4,"target":34962},{"buffer":0,"byteLength":1536,"byteOffset":3872596,"byteStride":4,"target":34962},{"buffer":0,"byteLength":384,"byteOffset":3874132,"byteStride":4,"target":34962},{"buffer":0,"byteLength":70224,"byteOffset":3874516,"byteStride":4,"target":34962},{"buffer":0,"byteLength":1728,"byteOffset":3944740,"byteStride":4,"target":34962},{"buffer":0,"byteLength":768,"byteOffset":3946468,"byteStride":4,"target":34962},{"buffer":0,"byteLength":19956,"byteOffset":3947236,"byteStride":4,"target":34962},{"buffer":0,"byteLength":696,"byteOffset":3967192,"byteStride":4,"target":34962},{"buffer":0,"byteLength":3696,"byteOffset":3967888,"byteStride":4,"target":34962},{"buffer":0,"byteLength":120,"byteOffset":3971584,"byteStride":4,"target":34962}],"buffers":[{"byteLength":3971704,"uri":"shop_row.bin"}],"extensionsRequired":["KHR_mesh_quantization","KHR_texture_transform"],"extensionsUsed":["KHR_mesh_quantization","KHR_texture_transform","MSFT_lod"],"extras":{"hm":{"batching":true,"cellSize":16.0,"cells":[{"cullAt":null,"interior":null,"key":"0_0","lodPrims":[6,6,3,2],"lodTris":[16970,7595,2301,445],"max":[10.924,11.564,4.787],"min":[-3.75,0.0,-4.787]},{"cullAt":null,"interior":null,"key":"0_n1","lodPrims":[10,5,3,2],"lodTris":[12872,5774,1695,302],"max":[10.5,8.7,-0.057],"min":[-3.1,0.255,-4.84]},{"cullAt":null,"interior":null,"key":"n1_0","lodPrims":[5,5,3,2],"lodTris":[8970,4536,1241,222],"max":[-2.076,11.036,4.781],"min":[-10.924,0.0,-4.781]},{"cullAt":null,"interior":null,"key":"n1_n1","lodPrims":[8,3,2,2],"lodTris":[12860,6060,1721,318],"max":[0.75,6.3,-3.775],"min":[-10.5,0.226,-4.89]}],"instanced":[],"instancing":true,"interiors":[],"lod":true,"lodDistances":[15.0,40.0,100.0],"stats":{"groups":4,"lodPrims":[29,19,11,8],"lodTris":[51672,23965,6958,1287]},"venue":"shop_row"}},"images":[{"uri":"../textures/stone_albedo.png"},{"uri":"../textures/stone_orm.png"},{"uri":"../textures/stone_normal.png"},{"uri":"../textures/plaster_shade_albedo.png"},{"uri":"../textures/plaster_shade_orm.png"},{"uri":"../textures/plaster_shade_normal.png"},{"uri":"../textures/plaster_albedo.png"},{"uri":"../textures/plaster_orm.png"},{"uri":"../textures/plaster_normal.png"},{"uri":"../textures/kit_albedo.png"},{"uri":"../textures/kit_orm.png"},{"uri":"../textures/kit_normal.png"},{"uri":"../textures/glass_lit_albedo.png"},{"uri":"../textures/glass_lit_orm.png"},{"uri":"../textures/glass_lit_normal.png"},{"uri":"../textures/glass_lit_emissive.png"},{"uri":"../textures/terracotta_albedo.png"},{"uri":"../textures/terracotta_orm.png"},{"uri":"../textures/terracotta_normal.png"},{"uri":"../textures/thatch_albedo.png"},{"uri":"../textures/thatch_orm.png"},{"uri":"../textures/thatch_normal.png"},{"uri":"../textures/glass_albedo.png"},{"uri":"../textures/glass_orm.png"},{"uri":"../textures/glass_normal.png"},{"uri":"../textures/glass_emissive.png"},{"uri":"../textures/foliage_albedo.png"},{"uri":"../textures/foliage_orm.png"},{"uri":"../textures/foliage_normal.png"},{"uri":"../textures/nogging_albedo.png"},{"uri":"../textures/nogging_orm.png"},{"uri":"../textures/nogging_normal.png"},{"uri":"../textures/ashlar_albedo.png"},{"uri":"../textures/ashlar_orm.png"},{"uri":"../textures/ashlar_normal.png"}],"materials":[{"doubleSided":false,"name":"stone","normalTexture":{"extensions":{"KHR_texture_transform":{"scale":[4.725419160561562,4.725419160561562]}},"index":2,"scale":1.0},"occlusionTexture":{"extensions":{"KHR_texture_transform":{"scale":[4.725419160561562,4.725419160561562]}},"index":1},"pbrMetallicRoughness":{"baseColorFactor":[1,1,1,1],"baseColorTexture":{"extensions":{"KHR_texture_transform":{"scale":[4.725419160561562,4.725419160561562]}},"index":0},"metallicFactor":1.0,"metallicRoughnessTexture":{"extensions":{"KHR_texture_transform":{"scale":[4.725419160561562,4.725419160561562]}},"index":1},"roughnessFactor":1.0}},{"doubleSided":false,"name":"plaster_shade","normalTexture":{"extensions":{"KHR_texture_transform":{"scale":[4.725419160561562,4.725419160561562]}},"index":5,"scale":1.0},"occlusionTexture":{"extensions":{"KHR_texture_transform":{"scale":[4.725419160561562,4.725419160561562]}},"index":4},"pbrMetallicRoughness":{"baseColorFactor":[1,1,1,1],"baseColorTexture":{"extensions":{"KHR_texture_transform":{"scale":[4.725419160561562,4.725419160561562]}},"index":3},"metallicFactor":1.0,"metallicRoughnessTexture":{"extensions":{"KHR_texture_transform":{"scale":[4.725419160561562,4.725419160561562]}},"index":4},"roughnessFactor":1.0}},{"doubleSided":false,"name":"plaster","normalTexture":{"extensions":{"KHR_texture_transform":{"scale":[4.725419160561562,4.725419160561562]}},"index":8,"scale":1.0},"occlusionTexture":{"extensions":{"KHR_texture_transform":{"scale":[4.725419160561562,4.725419160561562]}},"index":7},"pbrMetallicRoughness":{"baseColorFactor":[1,1,1,1],"baseColorTexture":{"extensions":{"KHR_texture_transform":{"scale":[4.725419160561562,4.725419160561562]}},"index":6},"metallicFactor":1.0,"metallicRoughnessTexture":{"extensions":{"KHR_texture_transform":{"scale":[4.725419160561562,4.725419160561562]}},"index":7},"roughnessFactor":1.0}},{"doubleSided":true,"name":"kit","normalTexture":{"extensions":{"KHR_texture_transform":{"scale":[4.725419160561562,4.725419160561562]}},"index":11,"scale":1.0},"occlusionTexture":{"extensions":{"KHR_texture_transform":{"scale":[4.725419160561562,4.725419160561562]}},"index":10},"pbrMetallicRoughness":{"baseColorFactor":[1,1,1,1],"baseColorTexture":{"extensions":{"KHR_texture_transform":{"scale":[4.725419160561562,4.725419160561562]}},"index":9},"metallicFactor":1.0,"metallicRoughnessTexture":{"extensions":{"KHR_texture_transform":{"scale":[4.725419160561562,4.725419160561562]}},"index":10},"roughnessFactor":1.0}},{"doubleSided":true,"emissiveFactor":[1.0,1.0,1.0],"emissiveTexture":{"extensions":{"KHR_texture_transform":{"scale":[4.725419160561562,4.725419160561562]}},"index":15},"name":"glass_lit","normalTexture":{"extensions":{"KHR_texture_transform":{"scale":[4.725419160561562,4.725419160561562]}},"index":14,"scale":1.0},"occlusionTexture":{"extensions":{"KHR_texture_transform":{"scale":[4.725419160561562,4.725419160561562]}},"index":13},"pbrMetallicRoughness":{"baseColorFactor":[1,1,1,1],"baseColorTexture":{"extensions":{"KHR_texture_transform":{"scale":[4.725419160561562,4.725419160561562]}},"index":12},"metallicFactor":1.0,"metallicRoughnessTexture":{"extensions":{"KHR_texture_transform":{"scale":[4.725419160561562,4.725419160561562]}},"index":13},"roughnessFactor":1.0}},{"doubleSided":false,"name":"terracotta","normalTexture":{"extensions":{"KHR_texture_transform":{"scale":[4.725419160561562,4.725419160561562]}},"index":18,"scale":1.0},"occlusionTexture":{"extensions":{"KHR_texture_transform":{"scale":[4.725419160561562,4.725419160561562]}},"index":17},"pbrMetallicRoughness":{"baseColorFactor":[1,1,1,1],"baseColorTexture":{"extensions":{"KHR_texture_transform":{"scale":[4.725419160561562,4.725419160561562]}},"index":16},"metallicFactor":1.0,"metallicRoughnessTexture":{"extensions":{"KHR_texture_transform":{"scale":[4.725419160561562,4.725419160561562]}},"index":17},"roughnessFactor":1.0}},{"doubleSided":false,"name":"thatch","normalTexture":{"extensions":{"KHR_texture_transform":{"scale":[4.725419160561562,4.725419160561562]}},"index":21,"scale":1.0},"occlusionTexture":{"extensions":{"KHR_texture_transform":{"scale":[4.725419160561562,4.725419160561562]}},"index":20},"pbrMetallicRoughness":{"baseColorFactor":[1,1,1,1],"baseColorTexture":{"extensions":{"KHR_texture_transform":{"scale":[4.725419160561562,4.725419160561562]}},"index":19},"metallicFactor":1.0,"metallicRoughnessTexture":{"extensions":{"KHR_texture_transform":{"scale":[4.725419160561562,4.725419160561562]}},"index":20},"roughnessFactor":1.0}},{"alphaMode":"BLEND","doubleSided":true,"emissiveFactor":[1.0,1.0,1.0],"emissiveTexture":{"extensions":{"KHR_texture_transform":{"scale":[4.725419160561562,4.725419160561562]}},"index":25},"name":"glass","normalTexture":{"extensions":{"KHR_texture_transform":{"scale":[4.725419160561562,4.725419160561562]}},"index":24,"scale":1.0},"occlusionTexture":{"extensions":{"KHR_texture_transform":{"scale":[4.725419160561562,4.725419160561562]}},"index":23},"pbrMetallicRoughness":{"baseColorFactor":[1,1,1,1],"baseColorTexture":{"extensions":{"KHR_texture_transform":{"scale":[4.725419160561562,4.725419160561562]}},"index":22},"metallicFactor":1.0,"metallicRoughnessTexture":{"extensions":{"KHR_texture_transform":{"scale":[4.725419160561562,4.725419160561562]}},"index":23},"roughnessFactor":1.0}},{"doubleSided":true,"name":"foliage","normalTexture":{"extensions":{"KHR_texture_transform":{"scale":[4.725419160561562,4.725419160561562]}},"index":28,"scale":1.0},"occlusionTexture":{"extensions":{"KHR_texture_transform":{"scale":[4.725419160561562,4.725419160561562]}},"index":27},"pbrMetallicRoughness":{"baseColorFactor":[1,1,1,1],"baseColorTexture":{"extensions":{"KHR_texture_transform":{"scale":[4.725419160561562,4.725419160561562]}},"index":26},"metallicFactor":1.0,"metallicRoughnessTexture":{"extensions":{"KHR_texture_transform":{"scale":[4.725419160561562,4.725419160561562]}},"index":27},"roughnessFactor":1.0}},{"doubleSided":false,"name":"nogging","normalTexture":{"extensions":{"KHR_texture_transform":{"scale":[4.725419160561562,4.725419160561562]}},"index":31,"scale":1.0},"occlusionTexture":{"extensions":{"KHR_texture_transform":{"scale":[4.725419160561562,4.725419160561562]}},"index":30},"pbrMetallicRoughness":{"baseColorFactor":[1,1,1,1],"baseColorTexture":{"extensions":{"KHR_texture_transform":{"scale":[4.725419160561562,4.725419160561562]}},"index":29},"metallicFactor":1.0,"metallicRoughnessTexture":{"extensions":{"KHR_texture_transform":{"scale":[4.725419160561562,4.725419160561562]}},"index":30},"roughnessFactor":1.0}},{"doubleSided":false,"name":"ashlar","normalTexture":{"extensions":{"KHR_texture_transform":{"scale":[4.725419160561562,4.725419160561562]}},"index":34,"scale":1.0},"occlusionTexture":{"extensions":{"KHR_texture_transform":{"scale":[4.725419160561562,4.725419160561562]}},"index":33},"pbrMetallicRoughness":{"baseColorFactor":[1,1,1,1],"baseColorTexture":{"extensions":{"KHR_texture_transform":{"scale":[4.725419160561562,4.725419160561562]}},"index":32},"metallicFactor":1.0,"metallicRoughnessTexture":{"extensions":{"KHR_texture_transform":{"scale":[4.725419160561562,4.725419160561562]}},"index":33},"roughnessFactor":1.0}}],"meshes":[{"name":"shop_row#0_0","primitives":[{"attributes":{"NORMAL":1,"POSITION":0,"TEXCOORD_0":209},"indices":2,"material":3},{"attributes":{"NORMAL":4,"POSITION":3,"TEXCOORD_0":210},"indices":5,"material":9},{"attributes":{"NORMAL":7,"POSITION":6,"TEXCOORD_0":211},"indices":8,"material":2},{"attributes":{"NORMAL":10,"POSITION":9,"TEXCOORD_0":212},"indices":11,"material":1},{"attributes":{"NORMAL":13,"POSITION":12,"TEXCOORD_0":213},"indices":14,"material":0},{"attributes":{"COLOR_0":17,"NORMAL":16,"POSITION":15,"TEXCOORD_0":214},"indices":18,"material":5}]},{"name":"shop_row#0_0$lod1","primitives":[{"attributes":{"NORMAL":20,"POSITION":19,"TEXCOORD_0":215},"indices":21,"material":3},{"attributes":{"NORMAL":23,"POSITION":22,"TEXCOORD_0":216},"indices":24,"material":9},{"attributes":{"NORMAL":26,"POSITION":25,"TEXCOORD_0":217},"indices":27,"material":2},{"attributes":{"NORMAL":29,"POSITION":28,"TEXCOORD_0":218},"indices":30,"material":1},{"attributes":{"NORMAL":32,"POSITION":31,"TEXCOORD_0":219},"indices":33,"material":0},{"attributes":{"COLOR_0":36,"NORMAL":35,"POSITION":34,"TEXCOORD_0":220},"indices":37,"material":5}]},{"name":"shop_row#0_0$lod2","primitives":[{"attributes":{"NORMAL":39,"POSITION":38,"TEXCOORD_0":221},"indices":40,"material":2},{"attributes":{"NORMAL":42,"POSITION":41,"TEXCOORD_0":222},"indices":43,"material":0},{"attributes":{"COLOR_0":46,"NORMAL":45,"POSITION":44,"TEXCOORD_0":223},"indices":47,"material":5}]},{"name":"shop_row#0_0$lod3","primitives":[{"attributes":{"NORMAL":49,"POSITION":48,"TEXCOORD_0":224},"indices":50,"material":0},{"attributes":{"COLOR_0":53,"NORMAL":52,"POSITION":51,"TEXCOORD_0":225},"indices":54,"material":5}]},{"name":"shop_row#0_n1","primitives":[{"attributes":{"NORMAL":56,"POSITION":55,"TEXCOORD_0":226},"indices":57,"material":10},{"attributes":{"NORMAL":59,"POSITION":58,"TEXCOORD_0":227},"indices":60,"material":8},{"attributes":{"NORMAL":62,"POSITION":61,"TEXCOORD_0":228},"indices":63,"material":7},{"attributes":{"NORMAL":65,"POSITION":64,"TEXCOORD_0":229},"indices":66,"material":4},{"attributes":{"NORMAL":68,"POSITION":67,"TEXCOORD_0":230},"indices":69,"material":3},{"attributes":{"NORMAL":71,"POSITION":70,"TEXCOORD_0":231},"indices":72,"material":9},{"attributes":{"NORMAL":74,"POSITION":73,"TEXCOORD_0":232},"indices":75,"material":2},{"attributes":{"NORMAL":77,"POSITION":76,"TEXCOORD_0":233},"indices":78,"material":1},{"attributes":{"NORMAL":80,"POSITION":79,"TEXCOORD_0":234},"indices":81,"material":0},{"attributes":{"NORMAL":83,"POSITION":82,"TEXCOORD_0":235},"indices":84,"material":5}]},{"name":"shop_row#0_n1$lod1","primitives":[{"attributes":{"NORMAL":86,"POSITION":85,"TEXCOORD_0":236},"indices":87,"material":3},{"attributes":{"NORMAL":89,"POSITION":88,"TEXCOORD_0":237},"indices":90,"material":9},{"attributes":{"NORMAL":92,"POSITION":91,"TEXCOORD_0":238},"indices":93,"material":2},{"attributes":{"NORMAL":95,"POSITION":94,"TEXCOORD_0":239},"indices":96,"material":1},{"attributes":{"NORMAL":98,"POSITION":97,"TEXCOORD_0":240},"indices":99,"material":0}]},{"name":"shop_row#0_n1$lod2","primitives":[{"attributes":{"NORMAL":101,"POSITION":100,"TEXCOORD_0":241},"indices":102,"material":3},{"attributes":{"NORMAL":104,"POSITION":103,"TEXCOORD_0":242},"indices":105,"material":9},{"attributes":{"NORMAL":107,"POSITION":106,"TEXCOORD_0":243},"indices":108,"material":1}]},{"name":"shop_row#0_n1$lod3","primitives":[{"attributes":{"NORMAL":110,"POSITION":109,"TEXCOORD_0":244},"indices":111,"material":3},{"attributes":{"NORMAL":113,"POSITION":112,"TEXCOORD_0":245},"indices":114,"material":9}]},{"name":"shop_row#n1_0","primitives":[{"attributes":{"NORMAL":116,"POSITION":115,"TEXCOORD_0":246},"indices":117,"material":3},{"attributes":{"NORMAL":119,"POSITION":118,"TEXCOORD_0":247},"indices":120,"material":9},{"attributes":{"NORMAL":122,"POSITION":121,"TEXCOORD_0":248},"indices":123,"material":2},{"attributes":{"NORMAL":125,"POSITION":124,"TEXCOORD_0":249},"indices":126,"material":0},{"attributes":{"COLOR_0":129,"NORMAL":128,"POSITION":127,"TEXCOORD_0":250},"indices":130,"material":5}]},{"name":"shop_row#n1_0$lod1","primitives":[{"attributes":{"NORMAL":132,"POSITION":131,"TEXCOORD_0":251},"indices":133,"material":3},{"attributes":{"NORMAL":135,"POSITION":134,"TEXCOORD_0":252},"indices":136,"material":9},{"attributes":{"NORMAL":138,"POSITION":137,"TEXCOORD_0":253},"indices":139,"material":2},{"attributes":{"NORMAL":141,"POSITION":140,"TEXCOORD_0":254},"indices":142,"material":0},{"attributes":{"COLOR_0":145,"NORMAL":144,"POSITION":143,"TEXCOORD_0":255},"indices":146,"material":5}]},{"name":"shop_row#n1_0$lod2","primitives":[{"attributes":{"NORMAL":148,"POSITION":147,"TEXCOORD_0":256},"indices":149,"material":2},{"attributes":{"NORMAL":151,"POSITION":150,"TEXCOORD_0":257},"indices":152,"material":0},{"attributes":{"COLOR_0":155,"NORMAL":154,"POSITION":153,"TEXCOORD_0":258},"indices":156,"material":5}]},{"name":"shop_row#n1_0$lod3","primitives":[{"attributes":{"NORMAL":158,"POSITION":157,"TEXCOORD_0":259},"indices":159,"material":0},{"attributes":{"COLOR_0":162,"NORMAL":161,"POSITION":160,"TEXCOORD_0":260},"indices":163,"material":5}]},{"name":"shop_row#n1_n1","primitives":[{"attributes":{"NORMAL":165,"POSITION":164,"TEXCOORD_0":261},"indices":166,"material":8},{"attributes":{"NORMAL":168,"POSITION":167,"TEXCOORD_0":262},"indices":169,"material":7},{"attributes":{"NORMAL":171,"POSITION":170,"TEXCOORD_0":263},"indices":172,"material":4},{"attributes":{"NORMAL":174,"POSITION":173,"TEXCOORD_0":264},"indices":175,"material":3},{"attributes":{"NORMAL":177,"POSITION":176,"TEXCOORD_0":265},"indices":178,"material":2},{"attributes":{"NORMAL":180,"POSITION":179,"TEXCOORD_0":266},"indices":181,"material":1},{"attributes":{"NORMAL":183,"POSITION":182,"TEXCOORD_0":267},"indices":184,"material":0},{"attributes":{"NORMAL":186,"POSITION":185,"TEXCOORD_0":268},"indices":187,"material":6}]},{"name":"shop_row#n1_n1$lod1","primitives":[{"attributes":{"NORMAL":189,"POSITION":188,"TEXCOORD_0":269},"indices":190,"material":3},{"attributes":{"NORMAL":192,"POSITION":191,"TEXCOORD_0":270},"indices":193,"material":2},{"attributes":{"NORMAL":195,"POSITION":194,"TEXCOORD_0":271},"indices":196,"material":1}]},{"name":"shop_row#n1_n1$lod2","primitives":[{"attributes":{"NORMAL":198,"POSITION":197,"TEXCOORD_0":272},"indices":199,"material":3},{"attributes":{"NORMAL":201,"POSITION":200,"TEXCOORD_0":273},"indices":202,"material":2}]},{"name":"shop_row#n1_n1$lod3","primitives":[{"attributes":{"NORMAL":204,"POSITION":203,"TEXCOORD_0":274},"indices":205,"material":3},{"attributes":{"NORMAL":207,"POSITION":206,"TEXCOORD_0":275},"indices":208,"material":2}]}],"nodes":[{"extensions":{"MSFT_lod":{"ids":[1,2,3]}},"extras":{"MSFT_screencoverage":[1.0,0.5041,0.20164,0.0],"hm":{"cell":"0_0","cullAt":null,"interior":null,"lod":0,"max":[10.924,11.564,4.787],"min":[-3.75,0.0,-4.787],"prims":6,"tris":16970,"venue":"shop_row"}},"mesh":0,"name":"shop_row#0_0","scale":[7.336977481842041,5.782199859619141,4.787206649780273],"translation":[3.586977481842041,5.782199859619141,0.0]},{"extras":{"hm":{"cell":"0_0","cullAt":null,"interior":null,"lod":1,"max":[10.924,11.564,4.787],"min":[-3.75,0.0,-4.787],"prims":6,"tris":7595,"venue":"shop_row"}},"mesh":1,"name":"shop_row#0_0$lod1","scale":[7.336977481842041,5.775949954986572,4.785750389099121],"translation":[3.586977481842041,5.788449764251709,0.0]},{"extras":{"hm":{"cell":"0_0","cullAt":null,"interior":null,"lod":2,"max":[10.924,11.564,4.787],"min":[-3.75,0.0,-4.787],"prims":3,"tris":2301,"venue":"shop_row"}},"mesh":2,"name":"shop_row#0_0$lod2","scale":[7.326663017272949,5.697927951812744,4.785750389099121],"translation":[3.590949058532715,5.820149898529053,0.0]},{"extras":{"hm":{"cell":"0_0","cullAt":null,"interior":null,"lod":3,"max":[10.924,11.564,4.787],"min":[-3.75,0.0,-4.787],"prims":2,"tris":445,"venue":"shop_row"}},"mesh":3,"name":"shop_row#0_0$lod3","scale":[7.215259075164795,5.691723823547363,4.785750389099121],"translation":[3.7005152702331543,5.813945770263672,0.0]},{"extensions":{"MSFT_lod":{"ids":[5,6,7]}},"extras":{"MSFT_screencoverage":[1.0,0.40119,0.16048,0.0],"hm":{"cell":"0_n1","cullAt":null,"interior":null,"lod":0,"max":[10.5,8.7,-0.057],"min":[-3.1,0.255,-4.84],"prims":10,"tris":12872,"venue":"shop_row"}},"mesh":4,"name":"shop_row#0_n1","scale":[6.800000190734863,4.222286701202393,2.391371250152588],"translation":[3.6999998092651367,4.4772868156433105,-2.4486289024353027]},{"extras":{"hm":{"cell":"0_n1","cullAt":null,"interior":null,"lod":1,"max":[10.5,8.7,-0.057],"min":[-3.1,0.255,-4.84],"prims":5,"tris":5774,"venue":"shop_row"}},"mesh":5,"name":"shop_row#0_n1$lod1","scale":[6.796250343322754,4.222286701202393,2.391371250152588],"translation":[3.703749895095825,4.4772868156433105,-2.4486289024353027]},{"extras":{"hm":{"cell":"0_n1","cullAt":null,"interior":null,"lod":2,"max":[10.5,8.7,-0.057],"min":[-3.1,0.255,-4.84],"prims":3,"tris":1695,"venue":"shop_row"}},"mesh":6,"name":"shop_row#0_n1$lod2","scale":[6.790833473205566,4.220858097076416,2.386688470840454],"translation":[3.700833320617676,4.478715419769287,-2.4510891437530518]},{"extras":{"hm":{"cell":"0_n1","cullAt":null,"interior":null,"lod":3,"max":[10.5,8.7,-0.057],"min":[-3.1,0.255,-4.84],"prims":2,"tris":302,"venue":"shop_row"}},"mesh":7,"name":"shop_row#0_n1$lod3","scale":[6.790833473205566,3.9947314262390137,2.273005962371826],"translation":[3.700833320617676,4.347898006439209,-2.5647082328796387]},{"extensions":{"MSFT_lod":{"ids":[9,10,11]}},"extras":{"MSFT_screencoverage":[1.0,0.40999,0.16399,0.0],"hm":{"cell":"n1_0","cullAt":null,"interior":null,"lod":0,"max":[-2.076,11.036,4.781],"min":[-10.924,0.0,-4.781],"prims":5,"tris":8970,"venue":"shop_row"}},"mesh":8,"name":"shop_row#n1_0","scale":[4.423945426940918,5.51800012588501,4.781291484832764],"translation":[-6.500000953674316,5.51800012588501,0.0]},{"extras":{"hm":{"cell":"n1_0","cullAt":null,"interior":null,"lod":1,"max":[-2.076,11.036,4.781],"min":[-10.924,0.0,-4.781],"prims":5,"tris":4536,"venue":"shop_row"}},"mesh":9,"name":"shop_row#n1_0$lod1","scale":[4.4200310707092285,5.511750221252441,4.781291484832764],"translation":[-6.499969005584717,5.524250030517578,0.0]},{"extras":{"hm":{"cell":"n1_0","cullAt":null,"interior":null,"lod":2,"max":[-2.076,11.036,4.781],"min":[-10.924,0.0,-4.781],"prims":3,"tris":1241,"venue":"shop_row"}},"mesh":10,"name":"shop_row#n1_0$lod2","scale":[4.4180097579956055,5.182309627532959,4.74219274520874],"translation":[-6.500923156738281,5.334690570831299,0.0]},{"extras":{"hm":{"cell":"n1_0","cullAt":null,"interior":null,"lod":3,"max":[-2.076,11.036,4.781],"min":[-10.924,0.0,-4.781],"prims":2,"tris":222,"venue":"shop_row"}},"mesh":11,"name":"shop_row#n1_0$lod3","scale":[4.416048049926758,5.182309627532959,4.667734146118164],"translation":[-6.5000410079956055,5.334690570831299,-0.001177072525024414]},{"extensions":{"MSFT_lod":{"ids":[13,14,15]}},"extras":{"MSFT_screencoverage":[0.82177,0.30817,0.12327,0.0],"hm":{"cell":"n1_n1","cullAt":null,"interior":null,"lod":0,"max":[0.75,6.3,-3.775],"min":[-10.5,0.226,-4.89],"prims":8,"tris":12860,"venue":"shop_row"}},"mesh":12,"name":"shop_row#n1_n1","scale":[5.625,3.0370967388153076,0.5577467679977417],"translation":[-4.875,3.2629034519195557,-4.332605361938477]},{"extras":{"hm":{"cell":"n1_n1","cullAt":null,"interior":null,"lod":1,"max":[0.75,6.3,-3.775],"min":[-10.5,0.226,-4.89],"prims":3,"tris":6060,"venue":"shop_row"}},"mesh":13,"name":"shop_row#n1_n1$lod1","scale":[5.622333526611328,3.0370967388153076,0.5564144849777222],"translation":[-4.877666473388672,3.2629034519195557,-4.331273078918457]},{"extras":{"hm":{"cell":"n1_n1","cullAt":null,"interior":null,"lod":2,"max":[0.75,6.3,-3.775],"min":[-10.5,0.226,-4.89],"prims":2,"tris":1721,"venue":"shop_row"}},"mesh":14,"name":"shop_row#n1_n1$lod2","scale":[5.622333526611328,3.0279111862182617,0.5538777112960815],"translation":[-4.877666473388672,3.2650890350341797,-4.333457946777344]},{"extras":{"hm":{"cell":"n1_n1","cullAt":null,"interior":null,"lod":3,"max":[0.75,6.3,-3.775],"min":[-10.5,0.226,-4.89],"prims":2,"tris":318,"venue":"shop_row"}},"mesh":15,"name":"shop_row#n1_n1$lod3","scale":[5.60656213760376,3.0264110565185547,0.4795353412628174],"translation":[-4.883437633514404,3.2635889053344727,-4.357531547546387]}],"samplers":[{"magFilter":9729,"minFilter":9987,"wrapS":10497,"wrapT":10497}],"scene":0,"scenes":[{"nodes":[0,4,8,12]}],"textures":[{"sampler":0,"source":0},{"sampler":0,"source":1},{"sampler":0,"source":2},{"sampler":0,"source":3},{"sampler":0,"source":4},{"sampler":0,"source":5},{"sampler":0,"source":6},{"sampler":0,"source":7},{"sampler":0,"source":8},{"sampler":0,"source":9},{"sampler":0,"source":10},{"sampler":0,"source":11},{"sampler":0,"source":12},{"sampler":0,"source":13},{"sampler":0,"source":14},{"sampler":0,"source":15},{"sampler":0,"source":16},{"sampler":0,"source":17},{"sampler":0,"source":18},{"sampler":0,"source":19},{"sampler":0,"source":20},{"sampler":0,"source":21},{"sampler":0,"source":22},{"sampler":0,"source":23},{"sampler":0,"source":24},{"sampler":0,"source":25},{"sampler":0,"source":26},{"sampler":0,"source":27},{"sampler":0,"source":28},{"sampler":0,"source":29},{"sampler":0,"source":30},{"sampler":0,"source":31},{"sampler":0,"source":32},{"sampler":0,"source":33},{"sampler":0,"source":34}]}