{"accessors":[{"bufferView":0,"componentType":5122,"count":192,"max":[22269.0,18819.0,14423.0],"min":[16100.0,13948.0,10199.0],"normalized":true,"type":"VEC3"},{"bufferView":1,"componentType":5120,"count":192,"normalized":true,"type":"VEC3"},{"bufferView":2,"componentType":5123,"count":264,"type":"SCALAR"},{"bufferView":3,"componentType":5122,"count":96,"max":[32767.0,-23911.0,32767.0],"min":[-32767.0,-32767.0,-32767.0],"normalized":true,"type":"VEC3"},{"bufferView":4,"componentType":5120,"count":96,"normalized":true,"type":"VEC3"},{"bufferView":5,"componentType":5123,"count":132,"type":"SCALAR"},{"bufferView":6,"componentType":5122,"count":672,"max":[14863.0,-15522.0,4599.0],"min":[-221.0,-22996.0,-175.0],"normalized":true,"type":"VEC3"},{"bufferView":7,"componentType":5120,"count":672,"normalized":true,"type":"VEC3"},{"bufferView":8,"componentType":5123,"count":1056,"type":"SCALAR"},{"bufferView":9,"componentType":5122,"count":2048,"max":[21877.0,-21874.0,25350.0],"min":[-13324.0,-24531.0,1750.0],"normalized":true,"type":"VEC3"},{"bufferView":10,"componentType":5120,"count":2048,"normalized":true,"type":"VEC3"},{"bufferView":11,"componentType":5123,"count":3264,"type":"SCALAR"},{"bufferView":12,"componentType":5122,"count":768,"max":[26517.0,32767.0,14940.0],"min":[15645.0,-23911.0,7067.0],"normalized":true,"type":"VEC3"},{"bufferView":13,"componentType":5120,"count":768,"normalized":true,"type":"VEC3"},{"bufferView":14,"componentType":5123,"count":1056,"type":"SCALAR"},{"bufferView":15,"componentType":5122,"count":4,"max":[22206.0,18597.0,14352.0],"min":[16163.0,18597.0,10270.0],"normalized":true,"type":"VEC3"},{"bufferView":16,"componentType":5120,"count":4,"normalized":true,"type":"VEC3"},{"bufferView":17,"componentType":5121,"count":4,"normalized":true,"type":"VEC4"},{"bufferView":18,"componentType":5123,"count":6,"type":"SCALAR"},{"bufferView":19,"componentType":5122,"count":691,"max":[32767.0,18642.0,32767.0],"min":[-32767.0,-32767.0,-32767.0],"normalized":true,"type":"VEC3"},{"bufferView":20,"componentType":5120,"count":691,"normalized":true,"type":"VEC3"},{"bufferView":21,"componentType":5121,"count":691,"normalized":true,"type":"VEC4"},{"bufferView":22,"componentType":5123,"count":693,"type":"SCALAR"},{"bufferView":23,"componentType":5122,"count":1626,"max":[21907.0,-21874.0,25349.0],"min":[-13341.0,-24531.0,1751.0],"normalized":true,"type":"VEC3"},{"bufferView":24,"componentType":5120,"count":1626,"normalized":true,"type":"VEC3"},{"bufferView":25,"componentType":5123,"count":1626,"type":"SCALAR"},{"bufferView":26,"componentType":5122,"count":450,"max":[26506.0,32767.0,14908.0],"min":[15735.0,-23911.0,7109.0],"normalized":true,"type":"VEC3"},{"bufferView":27,"componentType":5120,"count":450,"normalized":true,"type":"VEC3"},{"bufferView":28,"componentType":5123,"count":450,"type":"SCALAR"},{"bufferView":29,"componentType":5122,"count":360,"max":[32767.0,32767.0,32767.0],"min":[-32767.0,-32767.0,-32767.0],"normalized":true,"type":"VEC3"},{"bufferView":30,"componentType":5120,"count":360,"normalized":true,"type":"VEC3"},{"bufferView":31,"componentType":5121,"count":360,"normalized":true,"type":"VEC4"},{"bufferView":32,"componentType":5123,"count":360,"type":"SCALAR"},{"bufferView":33,"componentType":5122,"count":498,"max":[21923.0,-26238.0,25411.0],"min":[-13350.0,-28031.0,1760.0],"normalized":true,"type":"VEC3"},{"bufferView":34,"componentType":5120,"count":498,"normalized":true,"type":"VEC3"},{"bufferView":35,"componentType":5123,"count":498,"type":"SCALAR"},{"bufferView":36,"componentType":5122,"count":72,"max":[32767.0,32767.0,32767.0],"min":[-32767.0,-32767.0,-32767.0],"normalized":true,"type":"VEC3"},{"bufferView":37,"componentType":5120,"count":72,"normalized":true,"type":"VEC3"},{"bufferView":38,"componentType":5121,"count":72,"normalized":true,"type":"VEC4"},{"bufferView":39,"componentType":5123,"count":72,"type":"SCALAR"},{"bufferView":40,"componentType":5122,"count":99,"max":[20849.0,-26788.0,23352.0],"min":[-13350.0,-27192.0,2416.0],"normalized":true,"type":"VEC3"},{"bufferView":41,"componentType":5120,"count":99,"normalized":true,"type":"VEC3"},{"bufferView":42,"componentType":5123,"count":99,"type":"SCALAR"},{"bufferView":43,"componentType":5122,"count":32,"max":[8794.0,17292.0,-27490.0],"min":[7412.0,13541.0,-28465.0],"normalized":true,"type":"VEC3"},{"bufferView":44,"componentType":5120,"count":32,"normalized":true,"type":"VEC3"},{"bufferView":45,"componentType":5123,"count":48,"type":"SCALAR"},{"bufferView":46,"componentType":5122,"count":14602,"max":[32767.0,32767.0,11827.0],"min":[-18736.0,-32767.0,-32254.0],"normalized":true,"type":"VEC3"},{"bufferView":47,"componentType":5120,"count":14602,"normalized":true,"type":"VEC3"},{"bufferView":48,"componentType":5123,"count":22392,"type":"SCALAR"},{"bufferView":49,"componentType":5122,"count":1568,"max":[25910.0,-32520.0,32767.0],"min":[-32767.0,-32591.0,-15211.0],"normalized":true,"type":"VEC3"},{"bufferView":50,"componentType":5120,"count":1568,"normalized":true,"type":"VEC3"},{"bufferView":51,"componentType":5123,"count":2604,"type":"SCALAR"},{"bufferView":52,"componentType":5122,"count":480,"max":[31058.0,16869.0,2167.0],"min":[-24668.0,14929.0,-32767.0],"normalized":true,"type":"VEC3"},{"bufferView":53,"componentType":5120,"count":480,"normalized":true,"type":"VEC3"},{"bufferView":54,"componentType":5123,"count":660,"type":"SCALAR"},{"bufferView":55,"componentType":5122,"count":48,"max":[30912.0,-28466.0,-325.0],"min":[28792.0,-28466.0,-1822.0],"normalized":true,"type":"VEC3"},{"bufferView":56,"componentType":5120,"count":48,"normalized":true,"type":"VEC3"},{"bufferView":57,"componentType":5123,"count":72,"type":"SCALAR"},{"bufferView":58,"componentType":5122,"count":10545,"max":[32767.0,32767.0,11823.0],"min":[-18728.0,-32767.0,-32254.0],"normalized":true,"type":"VEC3"},{"bufferView":59,"componentType":5120,"count":10545,"normalized":true,"type":"VEC3"},{"bufferView":60,"componentType":5123,"count":10545,"type":"SCALAR"},{"bufferView":61,"componentType":5122,"count":1353,"max":[30945.0,17292.0,32767.0],"min":[-32767.0,-32591.0,-28340.0],"normalized":true,"type":"VEC3"},{"bufferView":62,"componentType":5120,"count":1353,"normalized":true,"type":"VEC3"},{"bufferView":63,"componentType":5123,"count":1353,"type":"SCALAR"},{"bufferView":64,"componentType":5122,"count":312,"max":[31067.0,16869.0,2148.0],"min":[-24642.0,14929.0,-32767.0],"normalized":true,"type":"VEC3"},{"bufferView":65,"componentType":5120,"count":312,"normalized":true,"type":"VEC3"},{"bufferView":66,"componentType":5123,"count":312,"type":"SCALAR"},{"bufferView":67,"componentType":5122,"count":3027,"max":[32767.0,32767.0,11825.0],"min":[-18720.0,-32744.0,-32251.0],"normalized":true,"type":"VEC3"},{"bufferView":68,"componentType":5120,"count":3027,"normalized":true,"type":"VEC3"},{"bufferView":69,"componentType":5123,"count":3027,"type":"SCALAR"},{"bufferView":70,"componentType":5122,"count":411,"max":[31008.0,19527.0,32767.0],"min":[-32767.0,-32767.0,-28344.0],"normalized":true,"type":"VEC3"},{"bufferView":71,"componentType":5120,"count":411,"normalized":true,"type":"VEC3"},{"bufferView":72,"componentType":5123,"count":411,"type":"SCALAR"},{"bufferView":73,"componentType":5122,"count":78,"max":[31130.0,19084.0,2148.0],"min":[-24640.0,17561.0,-32767.0],"normalized":true,"type":"VEC3"},{"bufferView":74,"componentType":5120,"count":78,"normalized":true,"type":"VEC3"},{"bufferView":75,"componentType":5123,"count":78,"type":"SCALAR"},{"bufferView":76,"componentType":5122,"count":534,"max":[32498.0,32767.0,11935.0],"min":[-23470.0,-32759.0,-31873.0],"normalized":true,"type":"VEC3"},{"bufferView":77,"componentType":5120,"count":534,"normalized":true,"type":"VEC3"},{"bufferView":78,"componentType":5123,"count":534,"type":"SCALAR"},{"bufferView":79,"componentType":5122,"count":99,"max":[32767.0,18658.0,32767.0],"min":[-32767.0,-32767.0,-32767.0],"normalized":true,"type":"VEC3"},{"bufferView":80,"componentType":5120,"count":99,"normalized":true,"type":"VEC3"},{"bufferView":81,"componentType":5123,"count":99,"type":"SCALAR"},{"bufferView":82,"componentType":5122,"count":10414,"max":[23283.0,32767.0,32767.0],"min":[-28409.0,-32767.0,-32767.0],"normalized":true,"type":"VEC3"},{"bufferView":83,"componentType":5120,"count":10414,"normalized":true,"type":"VEC3"},{"bufferView":84,"componentType":5123,"count":15708,"type":"SCALAR"},{"bufferView":85,"componentType":5122,"count":1952,"max":[32767.0,-32277.0,15663.0],"min":[-32767.0,-32602.0,-27814.0],"normalized":true,"type":"VEC3"},{"bufferView":86,"componentType":5120,"count":1952,"normalized":true,"type":"VEC3"},{"bufferView":87,"componentType":5123,"count":3132,"type":"SCALAR"},{"bufferView":88,"componentType":5122,"count":48,"max":[-26157.0,-29737.0,-7101.0],"min":[-28251.0,-29737.0,-9527.0],"normalized":true,"type":"VEC3"},{"bufferView":89,"componentType":5120,"count":48,"normalized":true,"type":"VEC3"},{"bufferView":90,"componentType":5123,"count":72,"type":"SCALAR"},{"bufferView":91,"componentType":5122,"count":7428,"max":[23281.0,32767.0,32767.0],"min":[-28361.0,-32767.0,-32767.0],"normalized":true,"type":"VEC3"},{"bufferView":92,"componentType":5120,"count":7428,"normalized":true,"type":"VEC3"},{"bufferView":93,"componentType":5123,"count":7428,"type":"SCALAR"},{"bufferView":94,"componentType":5122,"count":1215,"max":[32767.0,-29744.0,15681.0],"min":[-32767.0,-32609.0,-27804.0],"normalized":true,"type":"VEC3"},{"bufferView":95,"componentType":5120,"count":1215,"normalized":true,"type":"VEC3"},{"bufferView":96,"componentType":5123,"count":1215,"type":"SCALAR"},{"bufferView":97,"componentType":5122,"count":2208,"max":[23279.0,32767.0,32767.0],"min":[-28299.0,-32767.0,-32767.0],"normalized":true,"type":"VEC3"},{"bufferView":98,"componentType":5120,"count":2208,"normalized":true,"type":"VEC3"},{"bufferView":99,"componentType":5123,"count":2208,"type":"SCALAR"},{"bufferView":100,"componentType":5122,"count":360,"max":[32767.0,-29780.0,15624.0],"min":[-32767.0,-32501.0,-27837.0],"normalized":true,"type":"VEC3"},{"bufferView":101,"componentType":5120,"count":360,"normalized":true,"type":"VEC3"},{"bufferView":102,"componentType":5123,"count":360,"type":"SCALAR"},{"bufferView":103,"componentType":5122,"count":429,"max":[26000.0,32767.0,32767.0],"min":[-28277.0,-32767.0,-32767.0],"normalized":true,"type":"VEC3"},{"bufferView":104,"componentType":5120,"count":429,"normalized":true,"type":"VEC3"},{"bufferView":105,"componentType":5123,"count":429,"type":"SCALAR"},{"bufferView":106,"componentType":5122,"count":69,"max":[32767.0,-31087.0,-2155.0],"min":[-32767.0,-32640.0,-24610.0],"normalized":true,"type":"VEC3"},{"bufferView":107,"componentType":5120,"count":69,"normalized":true,"type":"VEC3"},{"bufferView":108,"componentType":5123,"count":69,"type":"SCALAR"},{"bufferView":109,"componentType":5122,"count":169,"max":[-16806.0,-24531.0,14174.0],"min":[-28128.0,-32242.0,-2750.0],"normalized":true,"type":"VEC3"},{"bufferView":110,"componentType":5120,"count":169,"normalized":true,"type":"VEC3"},{"bufferView":111,"componentType":5123,"count":267,"type":"SCALAR"},{"bufferView":112,"componentType":5122,"count":1944,"max":[-15216.0,-29861.0,16486.0],"min":[-27774.0,-31320.0,-4945.0],"normalized":true,"type":"VEC3"},{"bufferView":113,"componentType":5120,"count":1944,"normalized":true,"type":"VEC3"},{"bufferView":114,"componentType":5123,"count":3240,"type":"SCALAR"},{"bufferView":115,"componentType":5122,"count":42510,"max":[32767.0,32729.0,32767.0],"min":[-32767.0,-32767.0,-32767.0],"normalized":true,"type":"VEC3"},{"bufferView":116,"componentType":5120,"count":42510,"normalized":true,"type":"VEC3"},{"bufferView":117,"componentType":5123,"count":63510,"type":"SCALAR"},{"bufferView":118,"componentType":5122,"count":1512,"max":[-16418.0,-32116.0,15643.0],"min":[-29471.0,-32147.0,-1798.0],"normalized":true,"type":"VEC3"},{"bufferView":119,"componentType":5120,"count":1512,"normalized":true,"type":"VEC3"},{"bufferView":120,"componentType":5123,"count":2508,"type":"SCALAR"},{"bufferView":121,"componentType":5122,"count":1248,"max":[29900.0,11699.0,28749.0],"min":[-29900.0,-10960.0,-28749.0],"normalized":true,"type":"VEC3"},{"bufferView":122,"componentType":5120,"count":1248,"normalized":true,"type":"VEC3"},{"bufferView":123,"componentType":5123,"count":1716,"type":"SCALAR"},{"bufferView":124,"componentType":5122,"count":5456,"max":[27829.0,-20495.0,21424.0],"min":[-27513.0,-28174.0,-25777.0],"normalized":true,"type":"VEC3"},{"bufferView":125,"componentType":5120,"count":5456,"normalized":true,"type":"VEC3"},{"bufferView":126,"componentType":5123,"count":7788,"type":"SCALAR"},{"bufferView":127,"componentType":5122,"count":96,"max":[29916.0,-30353.0,28608.0],"min":[-29916.0,-32242.0,-28608.0],"normalized":true,"type":"VEC3"},{"bufferView":128,"componentType":5120,"count":96,"normalized":true,"type":"VEC3"},{"bufferView":129,"componentType":5123,"count":132,"type":"SCALAR"},{"bufferView":130,"componentType":5122,"count":4896,"max":[32506.0,32767.0,32593.0],"min":[-32508.0,11984.0,-32592.0],"normalized":true,"type":"VEC3"},{"bufferView":131,"componentType":5120,"count":4896,"normalized":true,"type":"VEC3"},{"bufferView":132,"componentType":5121,"count":4896,"normalized":true,"type":"VEC4"},{"bufferView":133,"componentType":5123,"count":6732,"type":"SCALAR"},{"bufferView":134,"componentType":5122,"count":32190,"max":[32767.0,32729.0,32767.0],"min":[-32767.0,-32767.0,-32767.0],"normalized":true,"type":"VEC3"},{"bufferView":135,"componentType":5120,"count":32190,"normalized":true,"type":"VEC3"},{"bufferView":136,"componentType":5123,"count":32190,"type":"SCALAR"},{"bufferView":137,"componentType":5122,"count":840,"max":[29900.0,11698.0,28737.0],"min":[-29889.0,-10961.0,-28737.0],"normalized":true,"type":"VEC3"},{"bufferView":138,"componentType":5120,"count":840,"normalized":true,"type":"VEC3"},{"bufferView":139,"componentType":5123,"count":840,"type":"SCALAR"},{"bufferView":140,"componentType":5122,"count":3600,"max":[27823.0,-20497.0,21428.0],"min":[-27500.0,-28174.0,-25760.0],"normalized":true,"type":"VEC3"},{"bufferView":141,"componentType":5120,"count":3600,"normalized":true,"type":"VEC3"},{"bufferView":142,"componentType":5123,"count":3600,"type":"SCALAR"},{"bufferView":143,"componentType":5122,"count":60,"max":[29892.0,-30355.0,28577.0],"min":[-29892.0,-32128.0,-28577.0],"normalized":true,"type":"VEC3"},{"bufferView":144,"componentType":5120,"count":60,"normalized":true,"type":"VEC3"},{"bufferView":145,"componentType":5123,"count":60,"type":"SCALAR"},{"bufferView":146,"componentType":5122,"count":3213,"max":[32489.0,32767.0,32588.0],"min":[-32491.0,11984.0,-32593.0],"normalized":true,"type":"VEC3"},{"bufferView":147,"componentType":5120,"count":3213,"normalized":true,"type":"VEC3"},{"bufferView":148,"componentType":5121,"count":3213,"normalized":true,"type":"VEC4"},{"bufferView":149,"componentType":5123,"count":3213,"type":"SCALAR"},{"bufferView":150,"componentType":5122,"count":10248,"max":[32767.0,32729.0,32767.0],"min":[-32767.0,-32767.0,-32767.0],"normalized":true,"type":"VEC3"},{"bufferView":151,"componentType":5120,"count":10248,"normalized":true,"type":"VEC3"},{"bufferView":152,"componentType":5123,"count":10248,"type":"SCALAR"},{"bufferView":153,"componentType":5122,"count":18,"max":[30006.0,-30357.0,28574.0],"min":[-29865.0,-31402.0,-28684.0],"normalized":true,"type":"VEC3"},{"bufferView":154,"componentType":5120,"count":18,"normalized":true,"type":"VEC3"},{"bufferView":155,"componentType":5123,"count":18,"type":"SCALAR"},{"bufferView":156,"componentType":5122,"count":951,"max":[32629.0,32767.0,32628.0],"min":[-32458.0,12004.0,-32718.0],"normalized":true,"type":"VEC3"},{"bufferView":157,"componentType":5120,"count":951,"normalized":true,"type":"VEC3"},{"bufferView":158,"componentType":5121,"count":951,"normalized":true,"type":"VEC4"},{"bufferView":159,"componentType":5123,"count":951,"type":"SCALAR"},{"bufferView":160,"componentType":5122,"count":1917,"max":[32731.0,32699.0,32767.0],"min":[-32767.0,-32767.0,-32767.0],"normalized":true,"type":"VEC3"},{"bufferView":161,"componentType":5120,"count":1917,"normalized":true,"type":"VEC3"},{"bufferView":162,"componentType":5123,"count":1917,"type":"SCALAR"},{"bufferView":163,"componentType":5122,"count":177,"max":[32767.0,32767.0,32108.0],"min":[-32614.0,12311.0,-32659.0],"normalized":true,"type":"VEC3"},{"bufferView":164,"componentType":5120,"count":177,"normalized":true,"type":"VEC3"},{"bufferView":165,"componentType":5121,"count":177,"normalized":true,"type":"VEC4"},{"bufferView":166,"componentType":5123,"count":177,"type":"SCALAR"},{"bufferView":167,"componentType":5122,"count":192,"normalized":true,"type":"VEC2"},{"bufferView":168,"componentType":5122,"count":96,"normalized":true,"type":"VEC2"},{"bufferView":169,"componentType":5122,"count":672,"normalized":true,"type":"VEC2"},{"bufferView":170,"componentType":5122,"count":2048,"normalized":true,"type":"VEC2"},{"bufferView":171,"componentType":5122,"count":768,"normalized":true,"type":"VEC2"},{"bufferView":172,"componentType":5122,"count":4,"normalized":true,"type":"VEC2"},{"bufferView":173,"componentType":5122,"count":691,"normalized":true,"type":"VEC2"},{"bufferView":174,"componentType":5122,"count":1626,"normalized":true,"type":"VEC2"},{"bufferView":175,"componentType":5122,"count":450,"normalized":true,"type":"VEC2"},{"bufferView":176,"componentType":5122,"count":360,"normalized":true,"type":"VEC2"},{"bufferView":177,"componentType":5122,"count":498,"normalized":true,"type":"VEC2"},{"bufferView":178,"componentType":5122,"count":72,"normalized":true,"type":"VEC2"},{"bufferView":179,"componentType":5122,"count":99,"normalized":true,"type":"VEC2"},{"bufferView":180,"componentType":5122,"count":32,"normalized":true,"type":"VEC2"},{"bufferView":181,"componentType":5122,"count":14602,"normalized":true,"type":"VEC2"},{"bufferView":182,"componentType":5122,"count":1568,"normalized":true,"type":"VEC2"},{"bufferView":183,"componentType":5122,"count":480,"normalized":true,"type":"VEC2"},{"bufferView":184,"componentType":5122,"count":48,"normalized":true,"type":"VEC2"},{"bufferView":185,"componentType":5122,"count":10545,"normalized":true,"type":"VEC2"},{"bufferView":186,"componentType":5122,"count":1353,"normalized":true,"type":"VEC2"},{"bufferView":187,"componentType":5122,"count":312,"normalized":true,"type":"VEC2"},{"bufferView":188,"componentType":5122,"count":3027,"normalized":true,"type":"VEC2"},{"bufferView":189,"componentType":5122,"count":411,"normalized":true,"type":"VEC2"},{"bufferView":190,"componentType":5122,"count":78,"normalized":true,"type":"VEC2"},{"bufferView":191,"componentType":5122,"count":534,"normalized":true,"type":"VEC2"},{"bufferView":192,"componentType":5122,"count":99,"normalized":true,"type":"VEC2"},{"bufferView":193,"componentType":5122,"count":10414,"normalized":true,"type":"VEC2"},{"bufferView":194,"componentType":5122,"count":1952,"normalized":true,"type":"VEC2"},{"bufferView":195,"componentType":5122,"count":48,"normalized":true,"type":"VEC2"},{"bufferView":196,"componentType":5122,"count":7428,"normalized":true,"type":"VEC2"},{"bufferView":197,"componentType":5122,"count":1215,"normalized":true,"type":"VEC2"},{"bufferView":198,"componentType":5122,"count":2208,"normalized":true,"type":"VEC2"},{"bufferView":199,"componentType":5122,"count":360,"normalized":true,"type":"VEC2"},{"bufferView":200,"componentType":5122,"count":429,"normalized":true,"type":"VEC2"},{"bufferView":201,"componentType":5122,"count":69,"normalized":true,"type":"VEC2"},{"bufferView":202,"componentType":5122,"count":169,"normalized":true,"type":"VEC2"},{"bufferView":203,"componentType":5122,"count":1944,"normalized":true,"type":"VEC2"},{"bufferView":204,"componentType":5122,"count":42510,"normalized":true,"type":"VEC2"},{"bufferView":205,"componentType":5122,"count":1512,"normalized":true,"type":"VEC2"},{"bufferView":206,"componentType":5122,"count":1248,"normalized":true,"type":"VEC2"},{"bufferView":207,"componentType":5122,"count":5456,"normalized":true,"type":"VEC2"},{"bufferView":208,"componentType":5122,"count":96,"normalized":true,"type":"VEC2"},{"bufferView":209,"componentType":5122,"count":4896,"normalized":true,"type":"VEC2"},{"bufferView":210,"componentType":5122,"count":32190,"normalized":true,"type":"VEC2"},{"bufferView":211,"componentType":5122,"count":840,"normalized":true,"type":"VEC2"},{"bufferView":212,"componentType":5122,"count":3600,"normalized":true,"type":"VEC2"},{"bufferView":213,"componentType":5122,"count":60,"normalized":true,"type":"VEC2"},{"bufferView":214,"componentType":5122,"count":3213,"normalized":true,"type":"VEC2"},{"bufferView":215,"componentType":5122,"count":10248,"normalized":true,"type":"VEC2"},{"bufferView":216,"componentType":5122,"count":18,"normalized":true,"type":"VEC2"},{"bufferView":217,"componentType":5122,"count":951,"normalized":true,"type":"VEC2"},{"bufferView":218,"componentType":5122,"count":1917,"normalized":true,"type":"VEC2"},{"bufferView":219,"componentType":5122,"count":177,"normalized":true,"type":"VEC2"}],"asset":{"generator":"evermore assetgen","version":"2.0"},"bufferViews":[{"buffer":0,"byteLength":1536,"byteOffset":0,"byteStride":8,"target":34962},{"buffer":0,"byteLength":768,"byteOffset":1536,"byteStride":4,"target":34962},{"buffer":0,"byteLength":528,"byteOffset":2304,"target":34963},{"buffer":0,"byteLength":768,"byteOffset":2832,"byteStride":8,"target":34962},{"buffer":0,"byteLength":384,"byteOffset":3600,"byteStride":4,"target":34962},{"buffer":0,"byteLength":264,"byteOffset":3984,"target":34963},{"buffer":0,"byteLength":5376,"byteOffset":4248,"byteStride":8,"target":34962},{"buffer":0,"byteLength":2688,"byteOffset":9624,"byteStride":4,"target":34962},{"buffer":0,"byteLength":2112,"byteOffset":12312,"target":34963},{"buffer":0,"byteLength":16384,"byteOffset":14424,"byteStride":8,"target":34962},{"buffer":0,"byteLength":8192,"byteOffset":30808,"byteStride":4,"target":34962},{"buffer":0,"byteLength":6528,"byteOffset":39000,"target":34963},{"buffer":0,"byteLength":6144,"byteOffset":45528,"byteStride":8,"target":34962},{"buffer":0,"byteLength":3072,"byteOffset":51672,"byteStride":4,"target":34962},{"buffer":0,"byteLength":2112,"byteOffset":54744,"target":34963},{"buffer":0,"byteLength":32,"byteOffset":56856,"byteStride":8,"target":34962},{"buffer":0,"byteLength":16,"byteOffset":56888,"byteStride":4,"target":34962},{"buffer":0,"byteLength":16,"byteOffset":56904,"byteStride":4,"target":34962},{"buffer":0,"byteLength":12,"byteOffset":56920,"target":34963},{"buffer":0,"byteLength":5528,"byteOffset":56932,"byteStride":8,"target":34962},{"buffer":0,"byteLength":2764,"byteOffset":62460,"byteStride":4,"target":34962},{"buffer":0,"byteLength":2764,"byteOffset":65224,"byteStride":4,"target":34962},{"buffer":0,"byteLength":1386,"byteOffset":67988,"target":34963},{"buffer":0,"byteLength":13008,"byteOffset":69376,"byteStride":8,"target":34962},{"buffer":0,"byteLength":6504,"byteOffset":82384,"byteStride":4,"target":34962},{"buffer":0,"byteLength":3252,"byteOffset":88888,"target":34963},{"buffer":0,"byteLength":3600,"byteOffset":92140,"byteStride":8,"target":34962},{"buffer":0,"byteLength":1800,"byteOffset":95740,"byteStride":4,"target":34962},{"buffer":0,"byteLength":900,"byteOffset":97540,"target":34963},{"buffer":0,"byteLength":2880,"byteOffset":98440,"byteStride":8,"target":34962},{"buffer":0,"byteLength":1440,"byteOffset":101320,"byteStride":4,"target":34962},{"buffer":0,"byteLength":1440,"byteOffset":102760,"byteStride":4,"target":34962},{"buffer":0,"byteLength":720,"byteOffset":104200,"target":34963},{"buffer":0,"byteLength":3984,"byteOffset":104920,"byteStride":8,"target":34962},{"buffer":0,"byteLength":1992,"byteOffset":108904,"byteStride":4,"target":34962},{"buffer":0,"byteLength":996,"byteOffset":110896,"target":34963},{"buffer":0,"byteLength":576,"byteOffset":111892,"byteStride":8,"target":34962},{"buffer":0,"byteLength":288,"byteOffset":112468,"byteStride":4,"target":34962},{"buffer":0,"byteLength":288,"byteOffset":112756,"byteStride":4,"target":34962},{"buffer":0,"byteLength":144,"byteOffset":113044,"target":34963},{"buffer":0,"byteLength":792,"byteOffset":113188,"byteStride":8,"target":34962},{"buffer":0,"byteLength":396,"byteOffset":113980,"byteStride":4,"target":34962},{"buffer":0,"byteLength":198,"byteOffset":114376,"target":34963},{"buffer":0,"byteLength":256,"byteOffset":114576,"byteStride":8,"target":34962},{"buffer":0,"byteLength":128,"byteOffset":114832,"byteStride":4,"target":34962},{"buffer":0,"byteLength":96,"byteOffset":114960,"target":34963},{"buffer":0,"byteLength":116816,"byteOffset":115056,"byteStride":8,"target":34962},{"buffer":0,"byteLength":58408,"byteOffset":231872,"byteStride":4,"target":34962},{"buffer":0,"byteLength":44784,"byteOffset":290280,"target":34963},{"buffer":0,"byteLength":12544,"byteOffset":335064,"byteStride":8,"target":34962},{"buffer":0,"byteLength":6272,"byteOffset":347608,"byteStride":4,"target":34962},{"buffer":0,"byteLength":5208,"byteOffset":353880,"target":34963},{"buffer":0,"byteLength":3840,"byteOffset":359088,"byteStride":8,"target":34962},{"buffer":0,"byteLength":1920,"byteOffset":362928,"byteStride":4,"target":34962},{"buffer":0,"byteLength":1320,"byteOffset":364848,"target":34963},{"buffer":0,"byteLength":384,"byteOffset":366168,"byteStride":8,"target":34962},{"buffer":0,"byteLength":192,"byteOffset":366552,"byteStride":4,"target":34962},{"buffer":0,"byteLength":144,"byteOffset":366744,"target":34963},{"buffer":0,"byteLength":84360,"byteOffset":366888,"byteStride":8,"target":34962},{"buffer":0,"byteLength":42180,"byteOffset":451248,"byteStride":4,"target":34962},{"buffer":0,"byteLength":21090,"byteOffset":493428,"target":34963},{"buffer":0,"byteLength":10824,"byteOffset":514520,"byteStride":8,"target":34962},{"buffer":0,"byteLength":5412,"byteOffset":525344,"byteStride":4,"target":34962},{"buffer":0,"byteLength":2706,"byteOffset":530756,"target":34963},{"buffer":0,"byteLength":2496,"byteOffset":533464,"byteStride":8,"target":34962},{"buffer":0,"byteLength":1248,"byteOffset":535960,"byteStride":4,"target":34962},{"buffer":0,"byteLength":624,"byteOffset":537208,"target":34963},{"buffer":0,"byteLength":24216,"byteOffset":537832,"byteStride":8,"target":34962},{"buffer":0,"byteLength":12108,"byteOffset":562048,"byteStride":4,"target":34962},{"buffer":0,"byteLength":6054,"byteOffset":574156,"target":34963},{"buffer":0,"byteLength":3288,"byteOffset":580212,"byteStride":8,"target":34962},{"buffer":0,"byteLength":1644,"byteOffset":583500,"byteStride":4,"target":34962},{"buffer":0,"byteLength":822,"byteOffset":585144,"target":34963},{"buffer":0,"byteLength":624,"byteOffset":585968,"byteStride":8,"target":34962},{"buffer":0,"byteLength":312,"byteOffset":586592,"byteStride":4,"target":34962},{"buffer":0,"byteLength":156,"byteOffset":586904,"target":34963},{"buffer":0,"byteLength":4272,"byteOffset":587060,"byteStride":8,"target":34962},{"buffer":0,"byteLength":2136,"byteOffset":591332,"byteStride":4,"target":34962},{"buffer":0,"byteLength":1068,"byteOffset":593468,"target":34963},{"buffer":0,"byteLength":792,"byteOffset":594536,"byteStride":8,"target":34962},{"buffer":0,"byteLength":396,"byteOffset":595328,"byteStride":4,"target":34962},{"buffer":0,"byteLength":198,"byteOffset":595724,"target":34963},{"buffer":0,"byteLength":83312,"byteOffset":595924,"byteStride":8,"target":34962},{"buffer":0,"byteLength":41656,"byteOffset":679236,"byteStride":4,"target":34962},{"buffer":0,"byteLength":31416,"byteOffset":720892,"target":34963},{"buffer":0,"byteLength":15616,"byteOffset":752308,"byteStride":8,"target":34962},{"buffer":0,"byteLength":7808,"byteOffset":767924,"byteStride":4,"target":34962},{"buffer":0,"byteLength":6264,"byteOffset":775732,"target":34963},{"buffer":0,"byteLength":384,"byteOffset":781996,"byteStride":8,"target":34962},{"buffer":0,"byteLength":192,"byteOffset":782380,"byteStride":4,"target":34962},{"buffer":0,"byteLength":144,"byteOffset":782572,"target":34963},{"buffer":0,"byteLength":59424,"byteOffset":782716,"byteStride":8,"target":34962},{"buffer":0,"byteLength":29712,"byteOffset":842140,"byteStride":4,"target":34962},{"buffer":0,"byteLength":14856,"byteOffset":871852,"target":34963},{"buffer":0,"byteLength":9720,"byteOffset":886708,"byteStride":8,"target":34962},{"buffer":0,"byteLength":4860,"byteOffset":896428,"byteStride":4,"target":34962},{"buffer":0,"byteLength":2430,"byteOffset":901288,"target":34963},{"buffer":0,"byteLength":17664,"byteOffset":903720,"byteStride":8,"target":34962},{"buffer":0,"byteLength":8832,"byteOffset":921384,"byteStride":4,"target":34962},{"buffer":0,"byteLength":4416,"byteOffset":930216,"target":34963},{"buffer":0,"byteLength":2880,"byteOffset":934632,"byteStride":8,"target":34962},{"buffer":0,"byteLength":1440,"byteOffset":937512,"byteStride":4,"target":34962},{"buffer":0,"byteLength":720,"byteOffset":938952,"target":34963},{"buffer":0,"byteLength":3432,"byteOffset":939672,"byteStride":8,"target":34962},{"buffer":0,"byteLength":1716,"byteOffset":943104,"byteStride":4,"target":34962},{"buffer":0,"byteLength":858,"byteOffset":944820,"target":34963},{"buffer":0,"byteLength":552,"byteOffset":945680,"byteStride":8,"target":34962},{"buffer":0,"byteLength":276,"byteOffset":946232,"byteStride":4,"target":34962},{"buffer":0,"byteLength":138,"byteOffset":946508,"target":34963},{"buffer":0,"byteLength":1352,"byteOffset":946648,"byteStride":8,"target":34962},{"buffer":0,"byteLength":676,"byteOffset":948000,"byteStride":4,"target":34962},{"buffer":0,"byteLength":534,"byteOffset":948676,"target":34963},{"buffer":0,"byteLength":15552,"byteOffset":949212,"byteStride":8,"target":34962},{"buffer":0,"byteLength":7776,"byteOffset":964764,"byteStride":4,"target":34962},{"buffer":0,"byteLength":6480,"byteOffset":972540,"target":34963},{"buffer":0,"byteLength":340080,"byteOffset":979020,"byteStride":8,"target":34962},{"buffer":0,"byteLength":170040,"byteOffset":1319100,"byteStride":4,"target":34962},{"buffer":0,"byteLength":127020,"byteOffset":1489140,"target":34963},{"buffer":0,"byteLength":12096,"byteOffset":1616160,"byteStride":8,"target":34962},{"buffer":0,"byteLength":6048,"byteOffset":1628256,"byteStride":4,"target":34962},{"buffer":0,"byteLength":5016,"byteOffset":1634304,"target":34963},{"buffer":0,"byteLength":9984,"byteOffset":1639320,"byteStride":8,"target":34962},{"buffer":0,"byteLength":4992,"byteOffset":1649304,"byteStride":4,"target":34962},{"buffer":0,"byteLength":3432,"byteOffset":1654296,"target":34963},{"buffer":0,"byteLength":43648,"byteOffset":1657728,"byteStride":8,"target":34962},{"buffer":0,"byteLength":21824,"byteOffset":1701376,"byteStride":4,"target":34962},{"buffer":0,"byteLength":15576,"byteOffset":1723200,"target":34963},{"buffer":0,"byteLength":768,"byteOffset":1738776,"byteStride":8,"target":34962},{"buffer":0,"byteLength":384,"byteOffset":1739544,"byteStride":4,"target":34962},{"buffer":0,"byteLength":264,"byteOffset":1739928,"target":34963},{"buffer":0,"byteLength":39168,"byteOffset":1740192,"byteStride":8,"target":34962},{"buffer":0,"byteLength":19584,"byteOffset":1779360,"byteStride":4,"target":34962},{"buffer":0,"byteLength":19584,"byteOffset":1798944,"byteStride":4,"target":34962},{"buffer":0,"byteLength":13464,"byteOffset":1818528,"target":34963},{"buffer":0,"byteLength":257520,"byteOffset":1831992,"byteStride":8,"target":34962},{"buffer":0,"byteLength":128760,"byteOffset":2089512,"byteStride":4,"target":34962},{"buffer":0,"byteLength":64380,"byteOffset":2218272,"target":34963},{"buffer":0,"byteLength":6720,"byteOffset":2282652,"byteStride":8,"target":34962},{"buffer":0,"byteLength":3360,"byteOffset":2289372,"byteStride":4,"target":34962},{"buffer":0,"byteLength":1680,"byteOffset":2292732,"target":34963},{"buffer":0,"byteLength":28800,"byteOffset":2294412,"byteStride":8,"target":34962},{"buffer":0,"byteLength":14400,"byteOffset":2323212,"byteStride":4,"target":34962},{"buffer":0,"byteLength":7200,"byteOffset":2337612,"target":34963},{"buffer":0,"byteLength":480,"byteOffset":2344812,"byteStride":8,"target":34962},{"buffer":0,"byteLength":240,"byteOffset":2345292,"byteStride":4,"target":34962},{"buffer":0,"byteLength":120,"byteOffset":2345532,"target":34963},{"buffer":0,"byteLength":25704,"byteOffset":2345652,"byteStride":8,"target":34962},{"buffer":0,"byteLength":12852,"byteOffset":2371356,"byteStride":4,"target":34962},{"buffer":0,"byteLength":12852,"byteOffset":2384208,"byteStride":4,"target":34962},{"buffer":0,"byteLength":6426,"byteOffset":2397060,"target":34963},{"buffer":0,"byteLength":81984,"byteOffset":2403488,"byteStride":8,"target":34962},{"buffer":0,"byteLength":40992,"byteOffset":2485472,"byteStride":4,"target":34962},{"buffer":0,"byteLength":20496,"byteOffset":2526464,"target":34963},{"buffer":0,"byteLength":144,"byteOffset":2546960,"byteStride":8,"target":34962},{"buffer":0,"byteLength":72,"byteOffset":2547104,"byteStride":4,"target":34962},{"buffer":0,"byteLength":36,"byteOffset":2547176,"target":34963},{"buffer":0,"byteLength":7608,"byteOffset":2547212,"byteStride":8,"target":34962},{"buffer":0,"byteLength":3804,"byteOffset":2554820,"byteStride":4,"target":34962},{"buffer":0,"byteLength":3804,"byteOffset":2558624,"byteStride":4,"target":34962},{"buffer":0,"byteLength":1902,"byteOffset":2562428,"target":34963},{"buffer":0,"byteLength":15336,"byteOffset":2564332,"byteStride":8,"target":34962},{"buffer":0,"byteLength":7668,"byteOffset":2579668,"byteStride":4,"target":34962},{"buffer":0,"byteLength":3834,"byteOffset":2587336,"target":34963},{"buffer":0,"byteLength":1416,"byteOffset":2591172,"byteStride":8,"target":34962},{"buffer":0,"byteLength":708,"byteOffset":2592588,"byteStride":4,"target":34962},{"buffer":0,"byteLength":708,"byteOffset":2593296,"byteStride":4,"target":34962},{"buffer":0,"byteLength":354,"byteOffset":2594004,"target":34963},{"buffer":0,"byteLength":768,"byteOffset":2594360,"byteStride":4,"target":34962},{"buffer":0,"byteLength":384,"byteOffset":2595128,"byteStride":4,"target":34962},{"buffer":0,"byteLength":2688,"byteOffset":2595512,"byteStride":4,"target":34962},{"buffer":0,"byteLength":8192,"byteOffset":2598200,"byteStride":4,"target":34962},{"buffer":0,"byteLength":3072,"byteOffset":2606392,"byteStride":4,"target":34962},{"buffer":0,"byteLength":16,"byteOffset":2609464,"byteStride":4,"target":34962},{"buffer":0,"byteLength":2764,"byteOffset":2609480,"byteStride":4,"target":34962},{"buffer":0,"byteLength":6504,"byteOffset":2612244,"byteStride":4,"target":34962},{"buffer":0,"byteLength":1800,"byteOffset":2618748,"byteStride":4,"target":34962},{"buffer":0,"byteLength":1440,"byteOffset":2620548,"byteStride":4,"target":34962},{"buffer":0,"byteLength":1992,"byteOffset":2621988,"byteStride":4,"target":34962},{"buffer":0,"byteLength":288,"byteOffset":2623980,"byteStride":4,"target":34962},{"buffer":0,"byteLength":396,"byteOffset":2624268,"byteStride":4,"target":34962},{"buffer":0,"byteLength":128,"byteOffset":2624664,"byteStride":4,"target":34962},{"buffer":0,"byteLength":58408,"byteOffset":2624792,"byteStride":4,"target":34962},{"buffer":0,"byteLength":6272,"byteOffset":2683200,"byteStride":4,"target":34962},{"buffer":0,"byteLength":1920,"byteOffset":2689472,"byteStride":4,"target":34962},{"buffer":0,"byteLength":192,"byteOffset":2691392,"byteStride":4,"target":34962},{"buffer":0,"byteLength":42180,"byteOffset":2691584,"byteStride":4,"target":34962},{"buffer":0,"byteLength":5412,"byteOffset":2733764,"byteStride":4,"target":34962},{"buffer":0,"byteLength":1248,"byteOffset":2739176,"byteStride":4,"target":34962},{"buffer":0,"byteLength":12108,"byteOffset":2740424,"byteStride":4,"target":34962},{"buffer":0,"byteLength":1644,"byteOffset":2752532,"byteStride":4,"target":34962},{"buffer":0,"byteLength":312,"byteOffset":2754176,"byteStride":4,"target":34962},{"buffer":0,"byteLength":2136,"byteOffset":2754488,"byteStride":4,"target":34962},{"buffer":0,"byteLength":396,"byteOffset":2756624,"byteStride":4,"target":34962},{"buffer":0,"byteLength":41656,"byteOffset":2757020,"byteStride":4,"target":34962},{"buffer":0,"byteLength":7808,"byteOffset":2798676,"byteStride":4,"target":34962},{"buffer":0,"byteLength":192,"byteOffset":2806484,"byteStride":4,"target":34962},{"buffer":0,"byteLength":29712,"byteOffset":2806676,"byteStride":4,"target":34962},{"buffer":0,"byteLength":4860,"byteOffset":2836388,"byteStride":4,"target":34962},{"buffer":0,"byteLength":8832,"byteOffset":2841248,"byteStride":4,"target":34962},{"buffer":0,"byteLength":1440,"byteOffset":2850080,"byteStride":4,"target":34962},{"buffer":0,"byteLength":1716,"byteOffset":2851520,"byteStride":4,"target":34962},{"buffer":0,"byteLength":276,"byteOffset":2853236,"byteStride":4,"target":34962},{"buffer":0,"byteLength":676,"byteOffset":2853512,"byteStride":4,"target":34962},{"buffer":0,"byteLength":7776,"byteOffset":2854188,"byteStride":4,"target":34962},{"buffer":0,"byteLength":170040,"byteOffset":2861964,"byteStride":4,"target":34962},{"buffer":0,"byteLength":6048,"byteOffset":3032004,"byteStride":4,"target":34962},{"buffer":0,"byteLength":4992,"byteOffset":3038052,"byteStride":4,"target":34962},{"buffer":0,"byteLength":21824,"byteOffset":3043044,"byteStride":4,"target":34962},{"buffer":0,"byteLength":384,"byteOffset":3064868,"byteStride":4,"target":34962},{"buffer":0,"byteLength":19584,"byteOffset":3065252,"byteStride":4,"target":34962},{"buffer":0,"byteLength":128760,"byteOffset":3084836,"byteStride":4,"target":34962},{"buffer":0,"byteLength":3360,"byteOffset":3213596,"byteStride":4,"target":34962},{"buffer":0,"byteLength":14400,"byteOffset":3216956,"byteStride":4,"target":34962},{"buffer":0,"byteLength":240,"byteOffset":3231356,"byteStride":4,"target":34962},{"buffer":0,"byteLength":12852,"byteOffset":3231596,"byteStride":4,"target":34962},{"buffer":0,"byteLength":40992,"byteOffset":3244448,"byteStride":4,"target":34962},{"buffer":0,"byteLength":72,"byteOffset":3285440,"byteStride":4,"target":34962},{"buffer":0,"byteLength":3804,"byteOffset":3285512,"byteStride":4,"target":34962},{"buffer":0,"byteLength":7668,"byteOffset":3289316,"byteStride":4,"target":34962},{"buffer":0,"byteLength":708,"byteOffset":3296984,"byteStride":4,"target":34962}],"buffers":[{"byteLength":3297692,"uri":"stables.bin"}],"extensionsRequired":["KHR_mesh_quantization","KHR_texture_transform"],"extensionsUsed":["KHR_mesh_quantization","KHR_texture_transform","MSFT_lod"],"extras":{"hm":{"batching":true,"cellSize":16.0,"cells":[{"cullAt":null,"interior":null,"key":"0_0","lodPrims":[6,3,2,2],"lodTris":[1926,923,286,57],"max":[10.07,0.74,8.875],"min":[-10.07,0.0,-8.875]},{"cullAt":null,"interior":null,"key":"0_n1","lodPrims":[5,3,3,2],"lodTris":[8592,4070,1172,211],"max":[6.657,3.817,3.971],"min":[-1.752,0.1,-7.941]},{"cullAt":null,"interior":null,"key":"n1_0","lodPrims":[3,2,2,2],"lodTris":[6304,2881,856,166],"max":[1.223,6.12,7.201],"min":[-7.278,0.078,-0.14]},{"cullAt":null,"interior":null,"key":"n1_n1","lodPrims":[8,5,3,2],"lodTris":[28631,13301,3739,698],"max":[7.742,8.363,2.729],"min":[-10.068,0.033,-9.119]}],"instanced":[],"instancing":true,"interiors":[],"lod":true,"lodDistances":[15.0,40.0,100.0],"stats":{"groups":4,"lodPrims":[22,13,10,8],"lodTris":[45453,21175,6053,1132]},"venue":"stables"}},"images":[{"uri":"../textures/gravel_albedo.png"},{"uri":"../textures/gravel_orm.png"},{"uri":"../textures/gravel_normal.png"},{"uri":"../textures/mud_wet_albedo.png"},{"uri":"../textures/mud_wet_orm.png"},{"uri":"../textures/mud_wet_normal.png"},{"uri":"../textures/rubble_albedo.png"},{"uri":"../textures/rubble_orm.png"},{"uri":"../textures/rubble_normal.png"},{"uri":"../textures/kit_albedo.png"},{"uri":"../textures/kit_orm.png"},{"uri":"../textures/kit_normal.png"},{"uri":"../textures/oak_dark_albedo.png"},{"uri":"../textures/oak_dark_orm.png"},{"uri":"../textures/oak_dark_normal.png"},{"uri":"../textures/terracotta_albedo.png"},{"uri":"../textures/terracotta_orm.png"},{"uri":"../textures/terracotta_normal.png"},{"uri":"../textures/oak_weathered_albedo.png"},{"uri":"../textures/oak_weathered_orm.png"},{"uri":"../textures/oak_weathered_normal.png"},{"uri":"../textures/water_albedo.png"},{"uri":"../textures/water_orm.png"},{"uri":"../textures/water_normal.png"},{"uri":"../textures/stone_albedo.png"},{"uri":"../textures/stone_orm.png"},{"uri":"../textures/stone_normal.png"},{"uri":"../textures/algae_albedo.png"},{"uri":"../textures/algae_orm.png"},{"uri":"../textures/algae_normal.png"},{"uri":"../textures/earth_albedo.png"},{"uri":"../textures/earth_orm.png"},{"uri":"../textures/earth_normal.png"},{"uri":"../textures/foliage_albedo.png"},{"uri":"../textures/foliage_orm.png"},{"uri":"../textures/foliage_normal.png"},{"uri":"../textures/glass_lit_albedo.png"},{"uri":"../textures/glass_lit_orm.png"},{"uri":"../textures/glass_lit_normal.png"},{"uri":"../textures/glass_lit_emissive.png"}],"materials":[{"doubleSided":false,"name":"gravel","normalTexture":{"extensions":{"KHR_texture_transform":{"scale":[5.993977251953602,5.993977251953602]}},"index":2,"scale":1.0},"occlusionTexture":{"extensions":{"KHR_texture_transform":{"scale":[5.993977251953602,5.993977251953602]}},"index":1},"pbrMetallicRoughness":{"baseColorFactor":[1,1,1,1],"baseColorTexture":{"extensions":{"KHR_texture_transform":{"scale":[5.993977251953602,5.993977251953602]}},"index":0},"metallicFactor":1.0,"metallicRoughnessTexture":{"extensions":{"KHR_texture_transform":{"scale":[5.993977251953602,5.993977251953602]}},"index":1},"roughnessFactor":1.0}},{"doubleSided":false,"name":"mud_wet","normalTexture":{"extensions":{"KHR_texture_transform":{"scale":[5.993977251953602,5.993977251953602]}},"index":5,"scale":1.0},"occlusionTexture":{"extensions":{"KHR_texture_transform":{"scale":[5.993977251953602,5.993977251953602]}},"index":4},"pbrMetallicRoughness":{"baseColorFactor":[1,1,1,1],"baseColorTexture":{"extensions":{"KHR_texture_transform":{"scale":[5.993977251953602,5.993977251953602]}},"index":3},"metallicFactor":1.0,"metallicRoughnessTexture":{"extensions":{"KHR_texture_transform":{"scale":[5.993977251953602,5.993977251953602]}},"index":4},"roughnessFactor":1.0}},{"doubleSided":false,"name":"rubble","normalTexture":{"extensions":{"KHR_texture_transform":{"scale":[5.993977251953602,5.993977251953602]}},"index":8,"scale":1.0},"occlusionTexture":{"extensions":{"KHR_texture_transform":{"scale":[5.993977251953602,5.993977251953602]}},"index":7},"pbrMetallicRoughness":{"baseColorFactor":[1,1,1,1],"baseColorTexture":{"extensions":{"KHR_texture_transform":{"scale":[5.993977251953602,5.993977251953602]}},"index":6},"metallicFactor":1.0,"metallicRoughnessTexture":{"extensions":{"KHR_texture_transform":{"scale":[5.993977251953602,5.993977251953602]}},"index":7},"roughnessFactor":1.0}},{"doubleSided":true,"name":"kit","normalTexture":{"extensions":{"KHR_texture_transform":{"scale":[5.993977251953602,5.993977251953602]}},"index":11,"scale":1.0},"occlusionTexture":{"extensions":{"KHR_texture_transform":{"scale":[5.993977251953602,5.993977251953602]}},"index":10},"pbrMetallicRoughness":{"baseColorFactor":[1,1,1,1],"baseColorTexture":{"extensions":{"KHR_texture_transform":{"scale":[5.993977251953602,5.993977251953602]}},"index":9},"metallicFactor":1.0,"metallicRoughnessTexture":{"extensions":{"KHR_texture_transform":{"scale":[5.993977251953602,5.993977251953602]}},"index":10},"roughnessFactor":1.0}},{"doubleSided":false,"name":"oak_dark","normalTexture":{"extensions":{"KHR_texture_transform":{"scale":[5.993977251953602,5.993977251953602]}},"index":14,"scale":1.0},"occlusionTexture":{"extensions":{"KHR_texture_transform":{"scale":[5.993977251953602,5.993977251953602]}},"index":13},"pbrMetallicRoughness":{"baseColorFactor":[1,1,1,1],"baseColorTexture":{"extensions":{"KHR_texture_transform":{"scale":[5.993977251953602,5.993977251953602]}},"index":12},"metallicFactor":1.0,"metallicRoughnessTexture":{"extensions":{"KHR_texture_transform":{"scale":[5.993977251953602,5.993977251953602]}},"index":13},"roughnessFactor":1.0}},{"doubleSided":false,"name":"terracotta","normalTexture":{"extensions":{"KHR_texture_transform":{"scale":[5.993977251953602,5.993977251953602]}},"index":17,"scale":1.0},"occlusionTexture":{"extensions":{"KHR_texture_transform":{"scale":[5.993977251953602,5.993977251953602]}},"index":16},"pbrMetallicRoughness":{"baseColorFactor":[1,1,1,1],"baseColorTexture":{"extensions":{"KHR_texture_transform":{"scale":[5.993977251953602,5.993977251953602]}},"index":15},"metallicFactor":1.0,"metallicRoughnessTexture":{"extensions":{"KHR_texture_transform":{"scale":[5.993977251953602,5.993977251953602]}},"index":16},"roughnessFactor":1.0}},{"doubleSided":false,"name":"oak_weathered","normalTexture":{"extensions":{"KHR_texture_transform":{"scale":[5.993977251953602,5.993977251953602]}},"index":20,"scale":1.0},"occlusionTexture":{"extensions":{"KHR_texture_transform":{"scale":[5.993977251953602,5.993977251953602]}},"index":19},"pbrMetallicRoughness":{"baseColorFactor":[1,1,1,1],"baseColorTexture":{"extensions":{"KHR_texture_transform":{"scale":[5.993977251953602,5.993977251953602]}},"index":18},"metallicFactor":1.0,"metallicRoughnessTexture":{"extensions":{"KHR_texture_transform":{"scale":[5.993977251953602,5.993977251953602]}},"index":19},"roughnessFactor":1.0}},{"alphaMode":"BLEND","doubleSided":false,"name":"water","normalTexture":{"extensions":{"KHR_texture_transform":{"scale":[5.993977251953602,5.993977251953602]}},"index":23,"scale":1.0},"occlusionTexture":{"extensions":{"KHR_texture_transform":{"scale":[5.993977251953602,5.993977251953602]}},"index":22},"pbrMetallicRoughness":{"baseColorFactor":[1,1,1,1],"baseColorTexture":{"extensions":{"KHR_texture_transform":{"scale":[5.993977251953602,5.993977251953602]}},"index":21},"metallicFactor":1.0,"metallicRoughnessTexture":{"extensions":{"KHR_texture_transform":{"scale":[5.993977251953602,5.993977251953602]}},"index":22},"roughnessFactor":1.0}},{"doubleSided":false,"name":"stone","normalTexture":{"extensions":{"KHR_texture_transform":{"scale":[5.993977251953602,5.993977251953602]}},"index":26,"scale":1.0},"occlusionTexture":{"extensions":{"KHR_texture_transform":{"scale":[5.993977251953602,5.993977251953602]}},"index":25},"pbrMetallicRoughness":{"baseColorFactor":[1,1,1,1],"baseColorTexture":{"extensions":{"KHR_texture_transform":{"scale":[5.993977251953602,5.993977251953602]}},"index":24},"metallicFactor":1.0,"metallicRoughnessTexture":{"extensions":{"KHR_texture_transform":{"scale":[5.993977251953602,5.993977251953602]}},"index":25},"roughnessFactor":1.0}},{"doubleSided":false,"name":"algae","normalTexture":{"extensions":{"KHR_texture_transform":{"scale":[5.993977251953602,5.993977251953602]}},"index":29,"scale":1.0},"occlusionTexture":{"extensions":{"KHR_texture_transform":{"scale":[5.993977251953602,5.993977251953602]}},"index":28},"pbrMetallicRoughness":{"baseColorFactor":[1,1,1,1],"baseColorTexture":{"extensions":{"KHR_texture_transform":{"scale":[5.993977251953602,5.993977251953602]}},"index":27},"metallicFactor":1.0,"metallicRoughnessTexture":{"extensions":{"KHR_texture_transform":{"scale":[5.993977251953602,5.993977251953602]}},"index":28},"roughnessFactor":1.0}},{"doubleSided":false,"name":"earth","normalTexture":{"extensions":{"KHR_texture_transform":{"scale":[5.993977251953602,5.993977251953602]}},"index":32,"scale":1.0},"occlusionTexture":{"extensions":{"KHR_texture_transform":{"scale":[5.993977251953602,5.993977251953602]}},"index":31},"pbrMetallicRoughness":{"baseColorFactor":[1,1,1,1],"baseColorTexture":{"extensions":{"KHR_texture_transform":{"scale":[5.993977251953602,5.993977251953602]}},"index":30},"metallicFactor":1.0,"metallicRoughnessTexture":{"extensions":{"KHR_texture_transform":{"scale":[5.993977251953602,5.993977251953602]}},"index":31},"roughnessFactor":1.0}},{"doubleSided":true,"name":"foliage","normalTexture":{"extensions":{"KHR_texture_transform":{"scale":[5.993977251953602,5.993977251953602]}},"index":35,"scale":1.0},"occlusionTexture":{"extensions":{"KHR_texture_transform":{"scale":[5.993977251953602,5.993977251953602]}},"index":34},"pbrMetallicRoughness":{"baseColorFactor":[1,1,1,1],"baseColorTexture":{"extensions":{"KHR_texture_transform":{"scale":[5.993977251953602,5.993977251953602]}},"index":33},"metallicFactor":1.0,"metallicRoughnessTexture":{"extensions":{"KHR_texture_transform":{"scale":[5.993977251953602,5.993977251953602]}},"index":34},"roughnessFactor":1.0}},{"doubleSided":true,"emissiveFactor":[1.0,1.0,1.0],"emissiveTexture":{"extensions":{"KHR_texture_transform":{"scale":[5.993977251953602,5.993977251953602]}},"index":39},"name":"glass_lit","normalTexture":{"extensions":{"KHR_texture_transform":{"scale":[5.993977251953602,5.993977251953602]}},"index":38,"scale":1.0},"occlusionTexture":{"extensions":{"KHR_texture_transform":{"scale":[5.993977251953602,5.993977251953602]}},"index":37},"pbrMetallicRoughness":{"baseColorFactor":[1,1,1,1],"baseColorTexture":{"extensions":{"KHR_texture_transform":{"scale":[5.993977251953602,5.993977251953602]}},"index":36},"metallicFactor":1.0,"metallicRoughnessTexture":{"extensions":{"KHR_texture_transform":{"scale":[5.993977251953602,5.993977251953602]}},"index":37},"roughnessFactor":1.0}}],"meshes":[{"name":"stables#0_0","primitives":[{"attributes":{"NORMAL":1,"POSITION":0,"TEXCOORD_0":167},"indices":2,"material":9},{"attributes":{"NORMAL":4,"POSITION":3,"TEXCOORD_0":168},"indices":5,"material":0},{"attributes":{"NORMAL":7,"POSITION":6,"TEXCOORD_0":169},"indices":8,"material":3},{"attributes":{"NORMAL":10,"POSITION":9,"TEXCOORD_0":170},"indices":11,"material":1},{"attributes":{"NORMAL":13,"POSITION":12,"TEXCOORD_0":171},"indices":14,"material":8},{"attributes":{"COLOR_0":17,"NORMAL":16,"POSITION":15,"TEXCOORD_0":172},"indices":18,"material":7}]},{"name":"stables#0_0$lod1","primitives":[{"attributes":{"COLOR_0":21,"NORMAL":20,"POSITION":19,"TEXCOORD_0":173},"indices":22,"material":0},{"attributes":{"NORMAL":24,"POSITION":23,"TEXCOORD_0":174},"indices":25,"material":1},{"attributes":{"NORMAL":27,"POSITION":26,"TEXCOORD_0":175},"indices":28,"material":8}]},{"name":"stables#0_0$lod2","primitives":[{"attributes":{"COLOR_0":31,"NORMAL":30,"POSITION":29,"TEXCOORD_0":176},"indices":32,"material":0},{"attributes":{"NORMAL":34,"POSITION":33,"TEXCOORD_0":177},"indices":35,"material":1}]},{"name":"stables#0_0$lod3","primitives":[{"attributes":{"COLOR_0":38,"NORMAL":37,"POSITION":36,"TEXCOORD_0":178},"indices":39,"material":0},{"attributes":{"NORMAL":41,"POSITION":40,"TEXCOORD_0":179},"indices":42,"material":1}]},{"name":"stables#0_n1","primitives":[{"attributes":{"NORMAL":44,"POSITION":43,"TEXCOORD_0":180},"indices":45,"material":12},{"attributes":{"NORMAL":47,"POSITION":46,"TEXCOORD_0":181},"indices":48,"material":3},{"attributes":{"NORMAL":50,"POSITION":49,"TEXCOORD_0":182},"indices":51,"material":1},{"attributes":{"NORMAL":53,"POSITION":52,"TEXCOORD_0":183},"indices":54,"material":4},{"attributes":{"NORMAL":56,"POSITION":55,"TEXCOORD_0":184},"indices":57,"material":7}]},{"name":"stables#0_n1$lod1","primitives":[{"attributes":{"NORMAL":59,"POSITION":58,"TEXCOORD_0":185},"indices":60,"material":3},{"attributes":{"NORMAL":62,"POSITION":61,"TEXCOORD_0":186},"indices":63,"material":1},{"attributes":{"NORMAL":65,"POSITION":64,"TEXCOORD_0":187},"indices":66,"material":4}]},{"name":"stables#0_n1$lod2","primitives":[{"attributes":{"NORMAL":68,"POSITION":67,"TEXCOORD_0":188},"indices":69,"material":3},{"attributes":{"NORMAL":71,"POSITION":70,"TEXCOORD_0":189},"indices":72,"material":1},{"attributes":{"NORMAL":74,"POSITION":73,"TEXCOORD_0":190},"indices":75,"material":4}]},{"name":"stables#0_n1$lod3","primitives":[{"attributes":{"NORMAL":77,"POSITION":76,"TEXCOORD_0":191},"indices":78,"material":3},{"attributes":{"NORMAL":80,"POSITION":79,"TEXCOORD_0":192},"indices":81,"material":1}]},{"name":"stables#n1_0","primitives":[{"attributes":{"NORMAL":83,"POSITION":82,"TEXCOORD_0":193},"indices":84,"material":3},{"attributes":{"NORMAL":86,"POSITION":85,"TEXCOORD_0":194},"indices":87,"material":1},{"attributes":{"NORMAL":89,"POSITION":88,"TEXCOORD_0":195},"indices":90,"material":7}]},{"name":"stables#n1_0$lod1","primitives":[{"attributes":{"NORMAL":92,"POSITION":91,"TEXCOORD_0":196},"indices":93,"material":3},{"attributes":{"NORMAL":95,"POSITION":94,"TEXCOORD_0":197},"indices":96,"material":1}]},{"name":"stables#n1_0$lod2","primitives":[{"attributes":{"NORMAL":98,"POSITION":97,"TEXCOORD_0":198},"indices":99,"material":3},{"attributes":{"NORMAL":101,"POSITION":100,"TEXCOORD_0":199},"indices":102,"material":1}]},{"name":"stables#n1_0$lod3","primitives":[{"attributes":{"NORMAL":104,"POSITION":103,"TEXCOORD_0":200},"indices":105,"material":3},{"attributes":{"NORMAL":107,"POSITION":106,"TEXCOORD_0":201},"indices":108,"material":1}]},{"name":"stables#n1_n1","primitives":[{"attributes":{"NORMAL":110,"POSITION":109,"TEXCOORD_0":202},"indices":111,"material":10},{"attributes":{"NORMAL":113,"POSITION":112,"TEXCOORD_0":203},"indices":114,"material":11},{"attributes":{"NORMAL":116,"POSITION":115,"TEXCOORD_0":204},"indices":117,"material":3},{"attributes":{"NORMAL":119,"POSITION":118,"TEXCOORD_0":205},"indices":120,"material":1},{"attributes":{"NORMAL":122,"POSITION":121,"TEXCOORD_0":206},"indices":123,"material":4},{"attributes":{"NORMAL":125,"POSITION":124,"TEXCOORD_0":207},"indices":126,"material":6},{"attributes":{"NORMAL":128,"POSITION":127,"TEXCOORD_0":208},"indices":129,"material":2},{"attributes":{"COLOR_0":132,"NORMAL":131,"POSITION":130,"TEXCOORD_0":209},"indices":133,"material":5}]},{"name":"stables#n1_n1$lod1","primitives":[{"attributes":{"NORMAL":135,"POSITION":134,"TEXCOORD_0":210},"indices":136,"material":3},{"attributes":{"NORMAL":138,"POSITION":137,"TEXCOORD_0":211},"indices":139,"material":4},{"attributes":{"NORMAL":141,"POSITION":140,"TEXCOORD_0":212},"indices":142,"material":6},{"attributes":{"NORMAL":144,"POSITION":143,"TEXCOORD_0":213},"indices":145,"material":2},{"attributes":{"COLOR_0":148,"NORMAL":147,"POSITION":146,"TEXCOORD_0":214},"indices":149,"material":5}]},{"name":"stables#n1_n1$lod2","primitives":[{"attributes":{"NORMAL":151,"POSITION":150,"TEXCOORD_0":215},"indices":152,"material":3},{"attributes":{"NORMAL":154,"POSITION":153,"TEXCOORD_0":216},"indices":155,"material":2},{"attributes":{"COLOR_0":158,"NORMAL":157,"POSITION":156,"TEXCOORD_0":217},"indices":159,"material":5}]},{"name":"stables#n1_n1$lod3","primitives":[{"attributes":{"NORMAL":161,"POSITION":160,"TEXCOORD_0":218},"indices":162,"material":3},{"attributes":{"COLOR_0":165,"NORMAL":164,"POSITION":163,"TEXCOORD_0":219},"indices":166,"material":5}]}],"nodes":[{"extensions":{"MSFT_lod":{"ids":[1,2,3]}},"extras":{"MSFT_screencoverage":[1.0,0.64488,0.25795,0.0],"hm":{"cell":"0_0","cullAt":null,"interior":null,"lod":0,"max":[10.07,0.74,8.875],"min":[-10.07,0.0,-8.875],"prims":6,"tris":1926,"venue":"stables"}},"mesh":0,"name":"stables#0_0","scale":[10.0703763961792,0.3700000047683716,8.875031471252441],"translation":[0.0,0.3700000047683716,0.0]},{"extras":{"hm":{"cell":"0_0","cullAt":null,"interior":null,"lod":1,"max":[10.07,0.74,8.875],"min":[-10.07,0.0,-8.875],"prims":3,"tris":923,"venue":"stables"}},"mesh":1,"name":"stables#0_0$lod1","scale":[10.055431365966797,0.3700000047683716,8.875031471252441],"translation":[0.0,0.3700000047683716,0.0]},{"extras":{"hm":{"cell":"0_0","cullAt":null,"interior":null,"lod":2,"max":[10.07,0.74,8.875],"min":[-10.07,0.0,-8.875],"prims":2,"tris":286,"venue":"stables"}},"mesh":2,"name":"stables#0_0$lod2","scale":[10.047274589538574,0.33900001645088196,8.852216720581055],"translation":[0.0,0.3890000283718109,0.0]},{"extras":{"hm":{"cell":"0_0","cullAt":null,"interior":null,"lod":3,"max":[10.07,0.74,8.875],"min":[-10.07,0.0,-8.875],"prims":2,"tris":57,"venue":"stables"}},"mesh":3,"name":"stables#0_0$lod3","scale":[10.047274589538574,0.33814287185668945,8.852216720581055],"translation":[0.0,0.3881428837776184,0.0]},{"extensions":{"MSFT_lod":{"ids":[5,6,7]}},"extras":{"MSFT_screencoverage":[0.96355,0.36133,0.14453,0.0],"hm":{"cell":"0_n1","cullAt":null,"interior":null,"lod":0,"max":[6.657,3.817,3.971],"min":[-1.752,0.1,-7.941],"prims":5,"tris":8592,"venue":"stables"}},"mesh":4,"name":"stables#0_n1","scale":[4.204787731170654,1.858306884765625,5.956111907958984],"translation":[2.4524333477020264,1.9583067893981934,-1.9853800535202026]},{"extras":{"hm":{"cell":"0_n1","cullAt":null,"interior":null,"lod":1,"max":[6.657,3.817,3.971],"min":[-1.752,0.1,-7.941],"prims":3,"tris":4070,"venue":"stables"}},"mesh":5,"name":"stables#0_n1$lod1","scale":[4.2025909423828125,1.858306884765625,5.95493221282959],"translation":[2.4502363204956055,1.9583067893981934,-1.9847667217254639]},{"extras":{"hm":{"cell":"0_n1","cullAt":null,"interior":null,"lod":2,"max":[6.657,3.817,3.971],"min":[-1.752,0.1,-7.941],"prims":3,"tris":1172,"venue":"stables"}},"mesh":6,"name":"stables#0_n1$lod2","scale":[4.1979875564575195,1.772613763809204,5.954068183898926],"translation":[2.4465839862823486,1.8826136589050293,-1.9847438335418701]},{"extras":{"hm":{"cell":"0_n1","cullAt":null,"interior":null,"lod":3,"max":[6.657,3.817,3.971],"min":[-1.752,0.1,-7.941],"prims":2,"tris":211,"venue":"stables"}},"mesh":7,"name":"stables#0_n1$lod3","scale":[3.6838130950927734,1.7675820589065552,5.918522834777832],"translation":[2.7509946823120117,1.8784362077713013,-2.0188100337982178]},{"extensions":{"MSFT_lod":{"ids":[9,10,11]}},"extras":{"MSFT_screencoverage":[0.81669,0.30626,0.1225,0.0],"hm":{"cell":"n1_0","cullAt":null,"interior":null,"lod":0,"max":[1.223,6.12,7.201],"min":[-7.278,0.078,-0.14],"prims":3,"tris":6304,"venue":"stables"}},"mesh":8,"name":"stables#n1_0","scale":[4.250522136688232,3.021101713180542,3.6705985069274902],"translation":[-3.0275559425354004,3.09889817237854,3.530531883239746]},{"extras":{"hm":{"cell":"n1_0","cullAt":null,"interior":null,"lod":1,"max":[1.223,6.12,7.201],"min":[-7.278,0.078,-0.14],"prims":2,"tris":2881,"venue":"stables"}},"mesh":9,"name":"stables#n1_0$lod1","scale":[4.250149250030518,3.020798683166504,3.6692206859588623],"translation":[-3.0278167724609375,3.099201202392578,3.529154062271118]},{"extras":{"hm":{"cell":"n1_0","cullAt":null,"interior":null,"lod":2,"max":[1.223,6.12,7.201],"min":[-7.278,0.078,-0.14],"prims":2,"tris":856,"venue":"stables"}},"mesh":10,"name":"stables#n1_0$lod2","scale":[4.249523162841797,3.0169248580932617,3.6662049293518066],"translation":[-3.027390718460083,3.0990753173828125,3.5302376747131348]},{"extras":{"hm":{"cell":"n1_0","cullAt":null,"interior":null,"lod":3,"max":[1.223,6.12,7.201],"min":[-7.278,0.078,-0.14],"prims":2,"tris":166,"venue":"stables"}},"mesh":11,"name":"stables#n1_0$lod3","scale":[3.9116928577423096,2.9834976196289062,3.6413254737854004],"translation":[-3.212867021560669,3.08131742477417,3.5053582191467285]},{"extensions":{"MSFT_lod":{"ids":[13,14,15]}},"extras":{"MSFT_screencoverage":[1.0,0.55121,0.22048,0.0],"hm":{"cell":"n1_n1","cullAt":null,"interior":null,"lod":0,"max":[7.742,8.363,2.729],"min":[-10.068,0.033,-9.119],"prims":8,"tris":28631,"venue":"stables"}},"mesh":12,"name":"stables#n1_n1","scale":[8.905037879943848,4.164788246154785,5.923657417297363],"translation":[-1.1628687381744385,4.198012351989746,-3.1949548721313477]},{"extras":{"hm":{"cell":"n1_n1","cullAt":null,"interior":null,"lod":1,"max":[7.742,8.363,2.729],"min":[-10.068,0.033,-9.119],"prims":5,"tris":13301,"venue":"stables"}},"mesh":13,"name":"stables#n1_n1$lod1","scale":[8.905037879943848,4.1646647453308105,5.922533988952637],"translation":[-1.1628687381744385,4.198135852813721,-3.1949548721313477]},{"extras":{"hm":{"cell":"n1_n1","cullAt":null,"interior":null,"lod":2,"max":[7.742,8.363,2.729],"min":[-10.068,0.033,-9.119],"prims":3,"tris":3739,"venue":"stables"}},"mesh":14,"name":"stables#n1_n1$lod2","scale":[8.88594913482666,4.164576053619385,5.907052040100098],"translation":[-1.181957483291626,4.1982245445251465,-3.1866471767425537]},{"extras":{"hm":{"cell":"n1_n1","cullAt":null,"interior":null,"lod":3,"max":[7.742,8.363,2.729],"min":[-10.068,0.033,-9.119],"prims":2,"tris":698,"venue":"stables"}},"mesh":15,"name":"stables#n1_n1$lod3","scale":[8.818459510803223,4.086874485015869,5.882617473602295],"translation":[-1.1572926044464111,4.201328754425049,-3.2110819816589355]}],"samplers":[{"magFilter":9729,"minFilter":9987,"wrapS":10497,"wrapT":10497}],"scene":0,"scenes":[{"nodes":[0,4,8,12]}],"textures":[{"sampler":0,"source":0},{"sampler":0,"source":1},{"sampler":0,"source":2},{"sampler":0,"source":3},{"sampler":0,"source":4},{"sampler":0,"source":5},{"sampler":0,"source":6},{"sampler":0,"source":7},{"sampler":0,"source":8},{"sampler":0,"source":9},{"sampler":0,"source":10},{"sampler":0,"source":11},{"sampler":0,"source":12},{"sampler":0,"source":13},{"sampler":0,"source":14},{"sampler":0,"source":15},{"sampler":0,"source":16},{"sampler":0,"source":17},{"sampler":0,"source":18},{"sampler":0,"source":19},{"sampler":0,"source":20},{"sampler":0,"source":21},{"sampler":0,"source":22},{"sampler":0,"source":23},{"sampler":0,"source":24},{"sampler":0,"source":25},{"sampler":0,"source":26},{"sampler":0,"source":27},{"sampler":0,"source":28},{"sampler":0,"source":29},{"sampler":0,"source":30},{"sampler":0,"source":31},{"sampler":0,"source":32},{"sampler":0,"source":33},{"sampler":0,"source":34},{"sampler":0,"source":35},{"sampler":0,"source":36},{"sampler":0,"source":37},{"sampler":0,"source":38},{"sampler":0,"source":39}]}