{"accessors":[{"bufferView":0,"componentType":5122,"count":1536,"max":[13964.0,-14779.0,-8387.0],"min":[4802.0,-16610.0,-19405.0],"normalized":true,"type":"VEC3"},{"bufferView":1,"componentType":5120,"count":1536,"normalized":true,"type":"VEC3"},{"bufferView":2,"componentType":5123,"count":2112,"type":"SCALAR"},{"bufferView":3,"componentType":5122,"count":1440,"max":[23240.0,-30720.0,4281.0],"min":[-4407.0,-32038.0,-32767.0],"normalized":true,"type":"VEC3"},{"bufferView":4,"componentType":5120,"count":1440,"normalized":true,"type":"VEC3"},{"bufferView":5,"componentType":5123,"count":1980,"type":"SCALAR"},{"bufferView":6,"componentType":5122,"count":60,"max":[23125.0,-27381.0,880.0],"min":[18600.0,-27425.0,-6140.0],"normalized":true,"type":"VEC3"},{"bufferView":7,"componentType":5120,"count":60,"normalized":true,"type":"VEC3"},{"bufferView":8,"componentType":5123,"count":102,"type":"SCALAR"},{"bufferView":9,"componentType":5122,"count":10196,"max":[32767.0,32767.0,32767.0],"min":[-32767.0,-32767.0,-32087.0],"normalized":true,"type":"VEC3"},{"bufferView":10,"componentType":5120,"count":10196,"normalized":true,"type":"VEC3"},{"bufferView":11,"componentType":5123,"count":15642,"type":"SCALAR"},{"bufferView":12,"componentType":5122,"count":3220,"max":[13781.0,8445.0,8283.0],"min":[-17681.0,-13918.0,-18636.0],"normalized":true,"type":"VEC3"},{"bufferView":13,"componentType":5120,"count":3220,"normalized":true,"type":"VEC3"},{"bufferView":14,"componentType":5123,"count":4848,"type":"SCALAR"},{"bufferView":15,"componentType":5122,"count":972,"max":[23231.0,-30850.0,4281.0],"min":[-4392.0,-32170.0,-32767.0],"normalized":true,"type":"VEC3"},{"bufferView":16,"componentType":5120,"count":972,"normalized":true,"type":"VEC3"},{"bufferView":17,"componentType":5123,"count":972,"type":"SCALAR"},{"bufferView":18,"componentType":5122,"count":7929,"max":[32767.0,32767.0,32767.0],"min":[-32767.0,-32767.0,-32087.0],"normalized":true,"type":"VEC3"},{"bufferView":19,"componentType":5120,"count":7929,"normalized":true,"type":"VEC3"},{"bufferView":20,"componentType":5123,"count":7929,"type":"SCALAR"},{"bufferView":21,"componentType":5122,"count":2076,"max":[13781.0,8396.0,8207.0],"min":[-17632.0,-14013.0,-18636.0],"normalized":true,"type":"VEC3"},{"bufferView":22,"componentType":5120,"count":2076,"normalized":true,"type":"VEC3"},{"bufferView":23,"componentType":5123,"count":2076,"type":"SCALAR"},{"bufferView":24,"componentType":5122,"count":3234,"max":[32767.0,32767.0,32767.0],"min":[-32767.0,-32767.0,-32767.0],"normalized":true,"type":"VEC3"},{"bufferView":25,"componentType":5120,"count":3234,"normalized":true,"type":"VEC3"},{"bufferView":26,"componentType":5123,"count":3234,"type":"SCALAR"},{"bufferView":27,"componentType":5122,"count":564,"max":[32767.0,32767.0,32767.0],"min":[-32767.0,-32767.0,-32767.0],"normalized":true,"type":"VEC3"},{"bufferView":28,"componentType":5120,"count":564,"normalized":true,"type":"VEC3"},{"bufferView":29,"componentType":5123,"count":564,"type":"SCALAR"},{"bufferView":30,"componentType":5122,"count":3018,"max":[27353.0,14494.0,25897.0],"min":[-14121.0,-31951.0,-31440.0],"normalized":true,"type":"VEC3"},{"bufferView":31,"componentType":5120,"count":3018,"normalized":true,"type":"VEC3"},{"bufferView":32,"componentType":5123,"count":4554,"type":"SCALAR"},{"bufferView":33,"componentType":5122,"count":33334,"max":[32767.0,32767.0,32767.0],"min":[-32767.0,-32767.0,-32767.0],"normalized":true,"type":"VEC3"},{"bufferView":34,"componentType":5120,"count":33334,"normalized":true,"type":"VEC3"},{"bufferView":35,"componentType":5123,"count":51588,"type":"SCALAR"},{"bufferView":36,"componentType":5122,"count":1130,"max":[21964.0,14399.0,5073.0],"min":[182.0,-24535.0,-5418.0],"normalized":true,"type":"VEC3"},{"bufferView":37,"componentType":5120,"count":1130,"normalized":true,"type":"VEC3"},{"bufferView":38,"componentType":5123,"count":1800,"type":"SCALAR"},{"bufferView":39,"componentType":5122,"count":404,"max":[21067.0,2181.0,3447.0],"min":[-43.0,-24595.0,-3551.0],"normalized":true,"type":"VEC3"},{"bufferView":40,"componentType":5120,"count":404,"normalized":true,"type":"VEC3"},{"bufferView":41,"componentType":5123,"count":636,"type":"SCALAR"},{"bufferView":42,"componentType":5122,"count":4944,"max":[19561.0,6000.0,8611.0],"min":[-14836.0,-32104.0,-32405.0],"normalized":true,"type":"VEC3"},{"bufferView":43,"componentType":5120,"count":4944,"normalized":true,"type":"VEC3"},{"bufferView":44,"componentType":5123,"count":7584,"type":"SCALAR"},{"bufferView":45,"componentType":5122,"count":130,"max":[15294.0,-9031.0,29197.0],"min":[14512.0,-11130.0,28679.0],"normalized":true,"type":"VEC3"},{"bufferView":46,"componentType":5120,"count":130,"normalized":true,"type":"VEC3"},{"bufferView":47,"componentType":5123,"count":204,"type":"SCALAR"},{"bufferView":48,"componentType":5122,"count":588,"max":[-11952.0,-27597.0,-12189.0],"min":[-16210.0,-32018.0,-15108.0],"normalized":true,"type":"VEC3"},{"bufferView":49,"componentType":5120,"count":588,"normalized":true,"type":"VEC3"},{"bufferView":50,"componentType":5123,"count":894,"type":"SCALAR"},{"bufferView":51,"componentType":5122,"count":32661,"max":[32767.0,32767.0,32767.0],"min":[-32767.0,-32767.0,-32767.0],"normalized":true,"type":"VEC3"},{"bufferView":52,"componentType":5120,"count":32661,"normalized":true,"type":"VEC3"},{"bufferView":53,"componentType":5123,"count":32661,"type":"SCALAR"},{"bufferView":54,"componentType":5122,"count":9276,"max":[32767.0,32767.0,32767.0],"min":[-32767.0,-32767.0,-32767.0],"normalized":true,"type":"VEC3"},{"bufferView":55,"componentType":5120,"count":9276,"normalized":true,"type":"VEC3"},{"bufferView":56,"componentType":5123,"count":9276,"type":"SCALAR"},{"bufferView":57,"componentType":5122,"count":1677,"max":[32767.0,32767.0,32767.0],"min":[-32767.0,-32767.0,-32767.0],"normalized":true,"type":"VEC3"},{"bufferView":58,"componentType":5120,"count":1677,"normalized":true,"type":"VEC3"},{"bufferView":59,"componentType":5123,"count":1677,"type":"SCALAR"},{"bufferView":60,"componentType":5122,"count":8888,"max":[32767.0,32767.0,31884.0],"min":[-29850.0,-32767.0,-32767.0],"normalized":true,"type":"VEC3"},{"bufferView":61,"componentType":5120,"count":8888,"normalized":true,"type":"VEC3"},{"bufferView":62,"componentType":5123,"count":13116,"type":"SCALAR"},{"bufferView":63,"componentType":5122,"count":1440,"max":[-13159.0,6609.0,-18059.0],"min":[-16831.0,5250.0,-19059.0],"normalized":true,"type":"VEC3"},{"bufferView":64,"componentType":5120,"count":1440,"normalized":true,"type":"VEC3"},{"bufferView":65,"componentType":5123,"count":1980,"type":"SCALAR"},{"bufferView":66,"componentType":5122,"count":96,"max":[21732.0,-31015.0,-12164.0],"min":[18930.0,-32054.0,-15388.0],"normalized":true,"type":"VEC3"},{"bufferView":67,"componentType":5120,"count":96,"normalized":true,"type":"VEC3"},{"bufferView":68,"componentType":5123,"count":132,"type":"SCALAR"},{"bufferView":69,"componentType":5122,"count":7028,"max":[25184.0,-2996.0,28141.0],"min":[-32767.0,-32274.0,-15427.0],"normalized":true,"type":"VEC3"},{"bufferView":70,"componentType":5120,"count":7028,"normalized":true,"type":"VEC3"},{"bufferView":71,"componentType":5123,"count":10584,"type":"SCALAR"},{"bufferView":72,"componentType":5122,"count":2112,"max":[30502.0,-19078.0,32767.0],"min":[13305.0,-31494.0,10799.0],"normalized":true,"type":"VEC3"},{"bufferView":73,"componentType":5120,"count":2112,"normalized":true,"type":"VEC3"},{"bufferView":74,"componentType":5123,"count":2904,"type":"SCALAR"},{"bufferView":75,"componentType":5122,"count":8097,"max":[32767.0,32767.0,32767.0],"min":[-29728.0,-32767.0,-32767.0],"normalized":true,"type":"VEC3"},{"bufferView":76,"componentType":5120,"count":8097,"normalized":true,"type":"VEC3"},{"bufferView":77,"componentType":5123,"count":8097,"type":"SCALAR"},{"bufferView":78,"componentType":5122,"count":4956,"max":[25236.0,-3008.0,28147.0],"min":[-32767.0,-32218.0,-15435.0],"normalized":true,"type":"VEC3"},{"bufferView":79,"componentType":5120,"count":4956,"normalized":true,"type":"VEC3"},{"bufferView":80,"componentType":5123,"count":4956,"type":"SCALAR"},{"bufferView":81,"componentType":5122,"count":3753,"max":[32767.0,32767.0,32767.0],"min":[-32767.0,-32767.0,-32767.0],"normalized":true,"type":"VEC3"},{"bufferView":82,"componentType":5120,"count":3753,"normalized":true,"type":"VEC3"},{"bufferView":83,"componentType":5123,"count":3753,"type":"SCALAR"},{"bufferView":84,"componentType":5122,"count":726,"max":[32767.0,32767.0,32767.0],"min":[-32767.0,-32767.0,-32767.0],"normalized":true,"type":"VEC3"},{"bufferView":85,"componentType":5120,"count":726,"normalized":true,"type":"VEC3"},{"bufferView":86,"componentType":5123,"count":726,"type":"SCALAR"},{"bufferView":87,"componentType":5122,"count":6896,"max":[22561.0,12982.0,28787.0],"min":[-20853.0,-26631.0,-24982.0],"normalized":true,"type":"VEC3"},{"bufferView":88,"componentType":5120,"count":6896,"normalized":true,"type":"VEC3"},{"bufferView":89,"componentType":5123,"count":11124,"type":"SCALAR"},{"bufferView":90,"componentType":5122,"count":576,"max":[1864.0,-22510.0,31691.0],"min":[-22053.0,-26974.0,19189.0],"normalized":true,"type":"VEC3"},{"bufferView":91,"componentType":5120,"count":576,"normalized":true,"type":"VEC3"},{"bufferView":92,"componentType":5123,"count":960,"type":"SCALAR"},{"bufferView":93,"componentType":5122,"count":42372,"max":[32767.0,32767.0,32767.0],"min":[-32767.0,-32767.0,-32767.0],"normalized":true,"type":"VEC3"},{"bufferView":94,"componentType":5120,"count":42372,"normalized":true,"type":"VEC3"},{"bufferView":95,"componentType":5123,"count":62010,"type":"SCALAR"},{"bufferView":96,"componentType":5122,"count":2468,"max":[25615.0,7322.0,7075.0],"min":[-19416.0,-29654.0,-23241.0],"normalized":true,"type":"VEC3"},{"bufferView":97,"componentType":5120,"count":2468,"normalized":true,"type":"VEC3"},{"bufferView":98,"componentType":5123,"count":3540,"type":"SCALAR"},{"bufferView":99,"componentType":5122,"count":1236,"max":[21864.0,-6295.0,25518.0],"min":[-22286.0,-29708.0,-11938.0],"normalized":true,"type":"VEC3"},{"bufferView":100,"componentType":5120,"count":1236,"normalized":true,"type":"VEC3"},{"bufferView":101,"componentType":5123,"count":1842,"type":"SCALAR"},{"bufferView":102,"componentType":5122,"count":7140,"max":[23261.0,-3069.0,31044.0],"min":[-21646.0,-30004.0,-28887.0],"normalized":true,"type":"VEC3"},{"bufferView":103,"componentType":5120,"count":7140,"normalized":true,"type":"VEC3"},{"bufferView":104,"componentType":5123,"count":10848,"type":"SCALAR"},{"bufferView":105,"componentType":5122,"count":6988,"max":[21164.0,12988.0,27847.0],"min":[-25099.0,-29654.0,-11080.0],"normalized":true,"type":"VEC3"},{"bufferView":106,"componentType":5120,"count":6988,"normalized":true,"type":"VEC3"},{"bufferView":107,"componentType":5123,"count":10566,"type":"SCALAR"},{"bufferView":108,"componentType":5122,"count":41196,"max":[32767.0,32767.0,32767.0],"min":[-32767.0,-32767.0,-32767.0],"normalized":true,"type":"VEC3"},{"bufferView":109,"componentType":5120,"count":41196,"normalized":true,"type":"VEC3"},{"bufferView":110,"componentType":5123,"count":41196,"type":"SCALAR"},{"bufferView":111,"componentType":5122,"count":5301,"max":[23266.0,-3085.0,30997.0],"min":[-21614.0,-30033.0,-28907.0],"normalized":true,"type":"VEC3"},{"bufferView":112,"componentType":5120,"count":5301,"normalized":true,"type":"VEC3"},{"bufferView":113,"componentType":5123,"count":5301,"type":"SCALAR"},{"bufferView":114,"componentType":5122,"count":13368,"max":[32767.0,32767.0,32767.0],"min":[-32767.0,-32767.0,-32767.0],"normalized":true,"type":"VEC3"},{"bufferView":115,"componentType":5120,"count":13368,"normalized":true,"type":"VEC3"},{"bufferView":116,"componentType":5123,"count":13368,"type":"SCALAR"},{"bufferView":117,"componentType":5122,"count":2640,"max":[32767.0,32767.0,32767.0],"min":[-32767.0,-32767.0,-32767.0],"normalized":true,"type":"VEC3"},{"bufferView":118,"componentType":5120,"count":2640,"normalized":true,"type":"VEC3"},{"bufferView":119,"componentType":5123,"count":2640,"type":"SCALAR"},{"bufferView":120,"componentType":5122,"count":1536,"normalized":true,"type":"VEC2"},{"bufferView":121,"componentType":5122,"count":1440,"normalized":true,"type":"VEC2"},{"bufferView":122,"componentType":5122,"count":60,"normalized":true,"type":"VEC2"},{"bufferView":123,"componentType":5122,"count":10196,"normalized":true,"type":"VEC2"},{"bufferView":124,"componentType":5122,"count":3220,"normalized":true,"type":"VEC2"},{"bufferView":125,"componentType":5122,"count":972,"normalized":true,"type":"VEC2"},{"bufferView":126,"componentType":5122,"count":7929,"normalized":true,"type":"VEC2"},{"bufferView":127,"componentType":5122,"count":2076,"normalized":true,"type":"VEC2"},{"bufferView":128,"componentType":5122,"count":3234,"normalized":true,"type":"VEC2"},{"bufferView":129,"componentType":5122,"count":564,"normalized":true,"type":"VEC2"},{"bufferView":130,"componentType":5122,"count":3018,"normalized":true,"type":"VEC2"},{"bufferView":131,"componentType":5122,"count":33334,"normalized":true,"type":"VEC2"},{"bufferView":132,"componentType":5122,"count":1130,"normalized":true,"type":"VEC2"},{"bufferView":133,"componentType":5122,"count":404,"normalized":true,"type":"VEC2"},{"bufferView":134,"componentType":5122,"count":4944,"normalized":true,"type":"VEC2"},{"bufferView":135,"componentType":5122,"count":130,"normalized":true,"type":"VEC2"},{"bufferView":136,"componentType":5122,"count":588,"normalized":true,"type":"VEC2"},{"bufferView":137,"componentType":5122,"count":32661,"normalized":true,"type":"VEC2"},{"bufferView":138,"componentType":5122,"count":9276,"normalized":true,"type":"VEC2"},{"bufferView":139,"componentType":5122,"count":1677,"normalized":true,"type":"VEC2"},{"bufferView":140,"componentType":5122,"count":8888,"normalized":true,"type":"VEC2"},{"bufferView":141,"componentType":5122,"count":1440,"normalized":true,"type":"VEC2"},{"bufferView":142,"componentType":5122,"count":96,"normalized":true,"type":"VEC2"},{"bufferView":143,"componentType":5122,"count":7028,"normalized":true,"type":"VEC2"},{"bufferView":144,"componentType":5122,"count":2112,"normalized":true,"type":"VEC2"},{"bufferView":145,"componentType":5122,"count":8097,"normalized":true,"type":"VEC2"},{"bufferView":146,"componentType":5122,"count":4956,"normalized":true,"type":"VEC2"},{"bufferView":147,"componentType":5122,"count":3753,"normalized":true,"type":"VEC2"},{"bufferView":148,"componentType":5122,"count":726,"normalized":true,"type":"VEC2"},{"bufferView":149,"componentType":5122,"count":6896,"normalized":true,"type":"VEC2"},{"bufferView":150,"componentType":5122,"count":576,"normalized":true,"type":"VEC2"},{"bufferView":151,"componentType":5122,"count":42372,"normalized":true,"type":"VEC2"},{"bufferView":152,"componentType":5122,"count":2468,"normalized":true,"type":"VEC2"},{"bufferView":153,"componentType":5122,"count":1236,"normalized":true,"type":"VEC2"},{"bufferView":154,"componentType":5122,"count":7140,"normalized":true,"type":"VEC2"},{"bufferView":155,"componentType":5122,"count":6988,"normalized":true,"type":"VEC2"},{"bufferView":156,"componentType":5122,"count":41196,"normalized":true,"type":"VEC2"},{"bufferView":157,"componentType":5122,"count":5301,"normalized":true,"type":"VEC2"},{"bufferView":158,"componentType":5122,"count":13368,"normalized":true,"type":"VEC2"},{"bufferView":159,"componentType":5122,"count":2640,"normalized":true,"type":"VEC2"}],"asset":{"generator":"evermore assetgen","version":"2.0"},"bufferViews":[{"buffer":0,"byteLength":12288,"byteOffset":0,"byteStride":8,"target":34962},{"buffer":0,"byteLength":6144,"byteOffset":12288,"byteStride":4,"target":34962},{"buffer":0,"byteLength":4224,"byteOffset":18432,"target":34963},{"buffer":0,"byteLength":11520,"byteOffset":22656,"byteStride":8,"target":34962},{"buffer":0,"byteLength":5760,"byteOffset":34176,"byteStride":4,"target":34962},{"buffer":0,"byteLength":3960,"byteOffset":39936,"target":34963},{"buffer":0,"byteLength":480,"byteOffset":43896,"byteStride":8,"target":34962},{"buffer":0,"byteLength":240,"byteOffset":44376,"byteStride":4,"target":34962},{"buffer":0,"byteLength":204,"byteOffset":44616,"target":34963},{"buffer":0,"byteLength":81568,"byteOffset":44820,"byteStride":8,"target":34962},{"buffer":0,"byteLength":40784,"byteOffset":126388,"byteStride":4,"target":34962},{"buffer":0,"byteLength":31284,"byteOffset":167172,"target":34963},{"buffer":0,"byteLength":25760,"byteOffset":198456,"byteStride":8,"target":34962},{"buffer":0,"byteLength":12880,"byteOffset":224216,"byteStride":4,"target":34962},{"buffer":0,"byteLength":9696,"byteOffset":237096,"target":34963},{"buffer":0,"byteLength":7776,"byteOffset":246792,"byteStride":8,"target":34962},{"buffer":0,"byteLength":3888,"byteOffset":254568,"byteStride":4,"target":34962},{"buffer":0,"byteLength":1944,"byteOffset":258456,"target":34963},{"buffer":0,"byteLength":63432,"byteOffset":260400,"byteStride":8,"target":34962},{"buffer":0,"byteLength":31716,"byteOffset":323832,"byteStride":4,"target":34962},{"buffer":0,"byteLength":15858,"byteOffset":355548,"target":34963},{"buffer":0,"byteLength":16608,"byteOffset":371408,"byteStride":8,"target":34962},{"buffer":0,"byteLength":8304,"byteOffset":388016,"byteStride":4,"target":34962},{"buffer":0,"byteLength":4152,"byteOffset":396320,"target":34963},{"buffer":0,"byteLength":25872,"byteOffset":400472,"byteStride":8,"target":34962},{"buffer":0,"byteLength":12936,"byteOffset":426344,"byteStride":4,"target":34962},{"buffer":0,"byteLength":6468,"byteOffset":439280,"target":34963},{"buffer":0,"byteLength":4512,"byteOffset":445748,"byteStride":8,"target":34962},{"buffer":0,"byteLength":2256,"byteOffset":450260,"byteStride":4,"target":34962},{"buffer":0,"byteLength":1128,"byteOffset":452516,"target":34963},{"buffer":0,"byteLength":24144,"byteOffset":453644,"byteStride":8,"target":34962},{"buffer":0,"byteLength":12072,"byteOffset":477788,"byteStride":4,"target":34962},{"buffer":0,"byteLength":9108,"byteOffset":489860,"target":34963},{"buffer":0,"byteLength":266672,"byteOffset":498968,"byteStride":8,"target":34962},{"buffer":0,"byteLength":133336,"byteOffset":765640,"byteStride":4,"target":34962},{"buffer":0,"byteLength":103176,"byteOffset":898976,"target":34963},{"buffer":0,"byteLength":9040,"byteOffset":1002152,"byteStride":8,"target":34962},{"buffer":0,"byteLength":4520,"byteOffset":1011192,"byteStride":4,"target":34962},{"buffer":0,"byteLength":3600,"byteOffset":1015712,"target":34963},{"buffer":0,"byteLength":3232,"byteOffset":1019312,"byteStride":8,"target":34962},{"buffer":0,"byteLength":1616,"byteOffset":1022544,"byteStride":4,"target":34962},{"buffer":0,"byteLength":1272,"byteOffset":1024160,"target":34963},{"buffer":0,"byteLength":39552,"byteOffset":1025432,"byteStride":8,"target":34962},{"buffer":0,"byteLength":19776,"byteOffset":1064984,"byteStride":4,"target":34962},{"buffer":0,"byteLength":15168,"byteOffset":1084760,"target":34963},{"buffer":0,"byteLength":1040,"byteOffset":1099928,"byteStride":8,"target":34962},{"buffer":0,"byteLength":520,"byteOffset":1100968,"byteStride":4,"target":34962},{"buffer":0,"byteLength":408,"byteOffset":1101488,"target":34963},{"buffer":0,"byteLength":4704,"byteOffset":1101896,"byteStride":8,"target":34962},{"buffer":0,"byteLength":2352,"byteOffset":1106600,"byteStride":4,"target":34962},{"buffer":0,"byteLength":1788,"byteOffset":1108952,"target":34963},{"buffer":0,"byteLength":261288,"byteOffset":1110740,"byteStride":8,"target":34962},{"buffer":0,"byteLength":130644,"byteOffset":1372028,"byteStride":4,"target":34962},{"buffer":0,"byteLength":65322,"byteOffset":1502672,"target":34963},{"buffer":0,"byteLength":74208,"byteOffset":1567996,"byteStride":8,"target":34962},{"buffer":0,"byteLength":37104,"byteOffset":1642204,"byteStride":4,"target":34962},{"buffer":0,"byteLength":18552,"byteOffset":1679308,"target":34963},{"buffer":0,"byteLength":13416,"byteOffset":1697860,"byteStride":8,"target":34962},{"buffer":0,"byteLength":6708,"byteOffset":1711276,"byteStride":4,"target":34962},{"buffer":0,"byteLength":3354,"byteOffset":1717984,"target":34963},{"buffer":0,"byteLength":71104,"byteOffset":1721340,"byteStride":8,"target":34962},{"buffer":0,"byteLength":35552,"byteOffset":1792444,"byteStride":4,"target":34962},{"buffer":0,"byteLength":26232,"byteOffset":1827996,"target":34963},{"buffer":0,"byteLength":11520,"byteOffset":1854228,"byteStride":8,"target":34962},{"buffer":0,"byteLength":5760,"byteOffset":1865748,"byteStride":4,"target":34962},{"buffer":0,"byteLength":3960,"byteOffset":1871508,"target":34963},{"buffer":0,"byteLength":768,"byteOffset":1875468,"byteStride":8,"target":34962},{"buffer":0,"byteLength":384,"byteOffset":1876236,"byteStride":4,"target":34962},{"buffer":0,"byteLength":264,"byteOffset":1876620,"target":34963},{"buffer":0,"byteLength":56224,"byteOffset":1876884,"byteStride":8,"target":34962},{"buffer":0,"byteLength":28112,"byteOffset":1933108,"byteStride":4,"target":34962},{"buffer":0,"byteLength":21168,"byteOffset":1961220,"target":34963},{"buffer":0,"byteLength":16896,"byteOffset":1982388,"byteStride":8,"target":34962},{"buffer":0,"byteLength":8448,"byteOffset":1999284,"byteStride":4,"target":34962},{"buffer":0,"byteLength":5808,"byteOffset":2007732,"target":34963},{"buffer":0,"byteLength":64776,"byteOffset":2013540,"byteStride":8,"target":34962},{"buffer":0,"byteLength":32388,"byteOffset":2078316,"byteStride":4,"target":34962},{"buffer":0,"byteLength":16194,"byteOffset":2110704,"target":34963},{"buffer":0,"byteLength":39648,"byteOffset":2126900,"byteStride":8,"target":34962},{"buffer":0,"byteLength":19824,"byteOffset":2166548,"byteStride":4,"target":34962},{"buffer":0,"byteLength":9912,"byteOffset":2186372,"target":34963},{"buffer":0,"byteLength":30024,"byteOffset":2196284,"byteStride":8,"target":34962},{"buffer":0,"byteLength":15012,"byteOffset":2226308,"byteStride":4,"target":34962},{"buffer":0,"byteLength":7506,"byteOffset":2241320,"target":34963},{"buffer":0,"byteLength":5808,"byteOffset":2248828,"byteStride":8,"target":34962},{"buffer":0,"byteLength":2904,"byteOffset":2254636,"byteStride":4,"target":34962},{"buffer":0,"byteLength":1452,"byteOffset":2257540,"target":34963},{"buffer":0,"byteLength":55168,"byteOffset":2258992,"byteStride":8,"target":34962},{"buffer":0,"byteLength":27584,"byteOffset":2314160,"byteStride":4,"target":34962},{"buffer":0,"byteLength":22248,"byteOffset":2341744,"target":34963},{"buffer":0,"byteLength":4608,"byteOffset":2363992,"byteStride":8,"target":34962},{"buffer":0,"byteLength":2304,"byteOffset":2368600,"byteStride":4,"target":34962},{"buffer":0,"byteLength":1920,"byteOffset":2370904,"target":34963},{"buffer":0,"byteLength":338976,"byteOffset":2372824,"byteStride":8,"target":34962},{"buffer":0,"byteLength":169488,"byteOffset":2711800,"byteStride":4,"target":34962},{"buffer":0,"byteLength":124020,"byteOffset":2881288,"target":34963},{"buffer":0,"byteLength":19744,"byteOffset":3005308,"byteStride":8,"target":34962},{"buffer":0,"byteLength":9872,"byteOffset":3025052,"byteStride":4,"target":34962},{"buffer":0,"byteLength":7080,"byteOffset":3034924,"target":34963},{"buffer":0,"byteLength":9888,"byteOffset":3042004,"byteStride":8,"target":34962},{"buffer":0,"byteLength":4944,"byteOffset":3051892,"byteStride":4,"target":34962},{"buffer":0,"byteLength":3684,"byteOffset":3056836,"target":34963},{"buffer":0,"byteLength":57120,"byteOffset":3060520,"byteStride":8,"target":34962},{"buffer":0,"byteLength":28560,"byteOffset":3117640,"byteStride":4,"target":34962},{"buffer":0,"byteLength":21696,"byteOffset":3146200,"target":34963},{"buffer":0,"byteLength":55904,"byteOffset":3167896,"byteStride":8,"target":34962},{"buffer":0,"byteLength":27952,"byteOffset":3223800,"byteStride":4,"target":34962},{"buffer":0,"byteLength":21132,"byteOffset":3251752,"target":34963},{"buffer":0,"byteLength":329568,"byteOffset":3272884,"byteStride":8,"target":34962},{"buffer":0,"byteLength":164784,"byteOffset":3602452,"byteStride":4,"target":34962},{"buffer":0,"byteLength":82392,"byteOffset":3767236,"target":34963},{"buffer":0,"byteLength":42408,"byteOffset":3849628,"byteStride":8,"target":34962},{"buffer":0,"byteLength":21204,"byteOffset":3892036,"byteStride":4,"target":34962},{"buffer":0,"byteLength":10602,"byteOffset":3913240,"target":34963},{"buffer":0,"byteLength":106944,"byteOffset":3923844,"byteStride":8,"target":34962},{"buffer":0,"byteLength":53472,"byteOffset":4030788,"byteStride":4,"target":34962},{"buffer":0,"byteLength":26736,"byteOffset":4084260,"target":34963},{"buffer":0,"byteLength":21120,"byteOffset":4110996,"byteStride":8,"target":34962},{"buffer":0,"byteLength":10560,"byteOffset":4132116,"byteStride":4,"target":34962},{"buffer":0,"byteLength":5280,"byteOffset":4142676,"target":34963},{"buffer":0,"byteLength":6144,"byteOffset":4147956,"byteStride":4,"target":34962},{"buffer":0,"byteLength":5760,"byteOffset":4154100,"byteStride":4,"target":34962},{"buffer":0,"byteLength":240,"byteOffset":4159860,"byteStride":4,"target":34962},{"buffer":0,"byteLength":40784,"byteOffset":4160100,"byteStride":4,"target":34962},{"buffer":0,"byteLength":12880,"byteOffset":4200884,"byteStride":4,"target":34962},{"buffer":0,"byteLength":3888,"byteOffset":4213764,"byteStride":4,"target":34962},{"buffer":0,"byteLength":31716,"byteOffset":4217652,"byteStride":4,"target":34962},{"buffer":0,"byteLength":8304,"byteOffset":4249368,"byteStride":4,"target":34962},{"buffer":0,"byteLength":12936,"byteOffset":4257672,"byteStride":4,"target":34962},{"buffer":0,"byteLength":2256,"byteOffset":4270608,"byteStride":4,"target":34962},{"buffer":0,"byteLength":12072,"byteOffset":4272864,"byteStride":4,"target":34962},{"buffer":0,"byteLength":133336,"byteOffset":4284936,"byteStride":4,"target":34962},{"buffer":0,"byteLength":4520,"byteOffset":4418272,"byteStride":4,"target":34962},{"buffer":0,"byteLength":1616,"byteOffset":4422792,"byteStride":4,"target":34962},{"buffer":0,"byteLength":19776,"byteOffset":4424408,"byteStride":4,"target":34962},{"buffer":0,"byteLength":520,"byteOffset":4444184,"byteStride":4,"target":34962},{"buffer":0,"byteLength":2352,"byteOffset":4444704,"byteStride":4,"target":34962},{"buffer":0,"byteLength":130644,"byteOffset":4447056,"byteStride":4,"target":34962},{"buffer":0,"byteLength":37104,"byteOffset":4577700,"byteStride":4,"target":34962},{"buffer":0,"byteLength":6708,"byteOffset":4614804,"byteStride":4,"target":34962},{"buffer":0,"byteLength":35552,"byteOffset":4621512,"byteStride":4,"target":34962},{"buffer":0,"byteLength":5760,"byteOffset":4657064,"byteStride":4,"target":34962},{"buffer":0,"byteLength":384,"byteOffset":4662824,"byteStride":4,"target":34962},{"buffer":0,"byteLength":28112,"byteOffset":4663208,"byteStride":4,"target":34962},{"buffer":0,"byteLength":8448,"byteOffset":4691320,"byteStride":4,"target":34962},{"buffer":0,"byteLength":32388,"byteOffset":4699768,"byteStride":4,"target":34962},{"buffer":0,"byteLength":19824,"byteOffset":4732156,"byteStride":4,"target":34962},{"buffer":0,"byteLength":15012,"byteOffset":4751980,"byteStride":4,"target":34962},{"buffer":0,"byteLength":2904,"byteOffset":4766992,"byteStride":4,"target":34962},{"buffer":0,"byteLength":27584,"byteOffset":4769896,"byteStride":4,"target":34962},{"buffer":0,"byteLength":2304,"byteOffset":4797480,"byteStride":4,"target":34962},{"buffer":0,"byteLength":169488,"byteOffset":4799784,"byteStride":4,"target":34962},{"buffer":0,"byteLength":9872,"byteOffset":4969272,"byteStride":4,"target":34962},{"buffer":0,"byteLength":4944,"byteOffset":4979144,"byteStride":4,"target":34962},{"buffer":0,"byteLength":28560,"byteOffset":4984088,"byteStride":4,"target":34962},{"buffer":0,"byteLength":27952,"byteOffset":5012648,"byteStride":4,"target":34962},{"buffer":0,"byteLength":164784,"byteOffset":5040600,"byteStride":4,"target":34962},{"buffer":0,"byteLength":21204,"byteOffset":5205384,"byteStride":4,"target":34962},{"buffer":0,"byteLength":53472,"byteOffset":5226588,"byteStride":4,"target":34962},{"buffer":0,"byteLength":10560,"byteOffset":5280060,"byteStride":4,"target":34962}],"buffers":[{"byteLength":5290620,"uri":"stalls.bin"}],"extensionsRequired":["KHR_mesh_quantization","KHR_texture_transform"],"extensionsUsed":["KHR_mesh_quantization","KHR_texture_transform","MSFT_lod"],"extras":{"hm":{"batching":true,"cellSize":16.0,"cells":[{"cullAt":null,"interior":null,"key":"0_0","lodPrims":[5,3,1,1],"lodTris":[8228,3659,1078,188],"max":[9.131,2.951,2.462],"min":[5.155,-0.033,-0.101]},{"cullAt":null,"interior":null,"key":"0_n1","lodPrims":[7,1,1,1],"lodTris":[22420,10887,3092,559],"max":[7.846,2.931,-4.005],"min":[0.817,-0.034,-14.259]},{"cullAt":null,"interior":null,"key":"n1_0","lodPrims":[5,2,1,1],"lodTris":[9572,4351,1251,242],"max":[-5.286,2.805,3.484],"min":[-9.63,-0.033,-0.094]},{"cullAt":null,"interior":null,"key":"n1_n1","lodPrims":[7,2,1,1],"lodTris":[33630,15499,4456,880],"max":[-1.946,2.916,-3.381],"min":[-9.619,-0.145,-13.699]}],"instanced":[],"instancing":true,"interiors":[],"lod":true,"lodDistances":[15.0,40.0,100.0],"stats":{"groups":4,"lodPrims":[24,8,4,4],"lodTris":[73850,34396,9877,1869]},"venue":"stalls"}},"images":[{"uri":"../textures/kit_albedo.png"},{"uri":"../textures/kit_orm.png"},{"uri":"../textures/kit_normal.png"},{"uri":"../textures/stone_albedo.png"},{"uri":"../textures/stone_orm.png"},{"uri":"../textures/stone_normal.png"},{"uri":"../textures/terracotta_albedo.png"},{"uri":"../textures/terracotta_orm.png"},{"uri":"../textures/terracotta_normal.png"},{"uri":"../textures/foliage_albedo.png"},{"uri":"../textures/foliage_orm.png"},{"uri":"../textures/foliage_normal.png"},{"uri":"../textures/plaster_albedo.png"},{"uri":"../textures/plaster_orm.png"},{"uri":"../textures/plaster_normal.png"},{"uri":"../textures/thatch_albedo.png"},{"uri":"../textures/thatch_orm.png"},{"uri":"../textures/thatch_normal.png"},{"uri":"../textures/glass_albedo.png"},{"uri":"../textures/glass_orm.png"},{"uri":"../textures/glass_normal.png"},{"uri":"../textures/glass_emissive.png"},{"uri":"../textures/plaster_shade_albedo.png"},{"uri":"../textures/plaster_shade_orm.png"},{"uri":"../textures/plaster_shade_normal.png"},{"uri":"../textures/foliage_flower_albedo.png"},{"uri":"../textures/foliage_flower_orm.png"},{"uri":"../textures/foliage_flower_normal.png"},{"uri":"../textures/cobble_albedo.png"},{"uri":"../textures/cobble_orm.png"},{"uri":"../textures/cobble_normal.png"},{"uri":"../textures/coal_albedo.png"},{"uri":"../textures/coal_orm.png"},{"uri":"../textures/coal_normal.png"},{"uri":"../textures/coal_emissive.png"}],"materials":[{"doubleSided":true,"name":"kit","normalTexture":{"extensions":{"KHR_texture_transform":{"scale":[6.005659164942742,6.005659164942742]}},"index":2,"scale":1.0},"occlusionTexture":{"extensions":{"KHR_texture_transform":{"scale":[6.005659164942742,6.005659164942742]}},"index":1},"pbrMetallicRoughness":{"baseColorFactor":[1,1,1,1],"baseColorTexture":{"extensions":{"KHR_texture_transform":{"scale":[6.005659164942742,6.005659164942742]}},"index":0},"metallicFactor":1.0,"metallicRoughnessTexture":{"extensions":{"KHR_texture_transform":{"scale":[6.005659164942742,6.005659164942742]}},"index":1},"roughnessFactor":1.0}},{"doubleSided":false,"name":"stone","normalTexture":{"extensions":{"KHR_texture_transform":{"scale":[6.005659164942742,6.005659164942742]}},"index":5,"scale":1.0},"occlusionTexture":{"extensions":{"KHR_texture_transform":{"scale":[6.005659164942742,6.005659164942742]}},"index":4},"pbrMetallicRoughness":{"baseColorFactor":[1,1,1,1],"baseColorTexture":{"extensions":{"KHR_texture_transform":{"scale":[6.005659164942742,6.005659164942742]}},"index":3},"metallicFactor":1.0,"metallicRoughnessTexture":{"extensions":{"KHR_texture_transform":{"scale":[6.005659164942742,6.005659164942742]}},"index":4},"roughnessFactor":1.0}},{"doubleSided":false,"name":"terracotta","normalTexture":{"extensions":{"KHR_texture_transform":{"scale":[6.005659164942742,6.005659164942742]}},"index":8,"scale":1.0},"occlusionTexture":{"extensions":{"KHR_texture_transform":{"scale":[6.005659164942742,6.005659164942742]}},"index":7},"pbrMetallicRoughness":{"baseColorFactor":[1,1,1,1],"baseColorTexture":{"extensions":{"KHR_texture_transform":{"scale":[6.005659164942742,6.005659164942742]}},"index":6},"metallicFactor":1.0,"metallicRoughnessTexture":{"extensions":{"KHR_texture_transform":{"scale":[6.005659164942742,6.005659164942742]}},"index":7},"roughnessFactor":1.0}},{"doubleSided":true,"name":"foliage","normalTexture":{"extensions":{"KHR_texture_transform":{"scale":[6.005659164942742,6.005659164942742]}},"index":11,"scale":1.0},"occlusionTexture":{"extensions":{"KHR_texture_transform":{"scale":[6.005659164942742,6.005659164942742]}},"index":10},"pbrMetallicRoughness":{"baseColorFactor":[1,1,1,1],"baseColorTexture":{"extensions":{"KHR_texture_transform":{"scale":[6.005659164942742,6.005659164942742]}},"index":9},"metallicFactor":1.0,"metallicRoughnessTexture":{"extensions":{"KHR_texture_transform":{"scale":[6.005659164942742,6.005659164942742]}},"index":10},"roughnessFactor":1.0}},{"doubleSided":false,"name":"plaster","normalTexture":{"extensions":{"KHR_texture_transform":{"scale":[6.005659164942742,6.005659164942742]}},"index":14,"scale":1.0},"occlusionTexture":{"extensions":{"KHR_texture_transform":{"scale":[6.005659164942742,6.005659164942742]}},"index":13},"pbrMetallicRoughness":{"baseColorFactor":[1,1,1,1],"baseColorTexture":{"extensions":{"KHR_texture_transform":{"scale":[6.005659164942742,6.005659164942742]}},"index":12},"metallicFactor":1.0,"metallicRoughnessTexture":{"extensions":{"KHR_texture_transform":{"scale":[6.005659164942742,6.005659164942742]}},"index":13},"roughnessFactor":1.0}},{"doubleSided":false,"name":"thatch","normalTexture":{"extensions":{"KHR_texture_transform":{"scale":[6.005659164942742,6.005659164942742]}},"index":17,"scale":1.0},"occlusionTexture":{"extensions":{"KHR_texture_transform":{"scale":[6.005659164942742,6.005659164942742]}},"index":16},"pbrMetallicRoughness":{"baseColorFactor":[1,1,1,1],"baseColorTexture":{"extensions":{"KHR_texture_transform":{"scale":[6.005659164942742,6.005659164942742]}},"index":15},"metallicFactor":1.0,"metallicRoughnessTexture":{"extensions":{"KHR_texture_transform":{"scale":[6.005659164942742,6.005659164942742]}},"index":16},"roughnessFactor":1.0}},{"alphaMode":"BLEND","doubleSided":true,"emissiveFactor":[1.0,1.0,1.0],"emissiveTexture":{"extensions":{"KHR_texture_transform":{"scale":[6.005659164942742,6.005659164942742]}},"index":21},"name":"glass","normalTexture":{"extensions":{"KHR_texture_transform":{"scale":[6.005659164942742,6.005659164942742]}},"index":20,"scale":1.0},"occlusionTexture":{"extensions":{"KHR_texture_transform":{"scale":[6.005659164942742,6.005659164942742]}},"index":19},"pbrMetallicRoughness":{"baseColorFactor":[1,1,1,1],"baseColorTexture":{"extensions":{"KHR_texture_transform":{"scale":[6.005659164942742,6.005659164942742]}},"index":18},"metallicFactor":1.0,"metallicRoughnessTexture":{"extensions":{"KHR_texture_transform":{"scale":[6.005659164942742,6.005659164942742]}},"index":19},"roughnessFactor":1.0}},{"doubleSided":false,"name":"plaster_shade","normalTexture":{"extensions":{"KHR_texture_transform":{"scale":[6.005659164942742,6.005659164942742]}},"index":24,"scale":1.0},"occlusionTexture":{"extensions":{"KHR_texture_transform":{"scale":[6.005659164942742,6.005659164942742]}},"index":23},"pbrMetallicRoughness":{"baseColorFactor":[1,1,1,1],"baseColorTexture":{"extensions":{"KHR_texture_transform":{"scale":[6.005659164942742,6.005659164942742]}},"index":22},"metallicFactor":1.0,"metallicRoughnessTexture":{"extensions":{"KHR_texture_transform":{"scale":[6.005659164942742,6.005659164942742]}},"index":23},"roughnessFactor":1.0}},{"doubleSided":true,"name":"foliage_flower","normalTexture":{"extensions":{"KHR_texture_transform":{"scale":[6.005659164942742,6.005659164942742]}},"index":27,"scale":1.0},"occlusionTexture":{"extensions":{"KHR_texture_transform":{"scale":[6.005659164942742,6.005659164942742]}},"index":26},"pbrMetallicRoughness":{"baseColorFactor":[1,1,1,1],"baseColorTexture":{"extensions":{"KHR_texture_transform":{"scale":[6.005659164942742,6.005659164942742]}},"index":25},"metallicFactor":1.0,"metallicRoughnessTexture":{"extensions":{"KHR_texture_transform":{"scale":[6.005659164942742,6.005659164942742]}},"index":26},"roughnessFactor":1.0}},{"doubleSided":false,"name":"cobble","normalTexture":{"extensions":{"KHR_texture_transform":{"scale":[6.005659164942742,6.005659164942742]}},"index":30,"scale":1.0},"occlusionTexture":{"extensions":{"KHR_texture_transform":{"scale":[6.005659164942742,6.005659164942742]}},"index":29},"pbrMetallicRoughness":{"baseColorFactor":[1,1,1,1],"baseColorTexture":{"extensions":{"KHR_texture_transform":{"scale":[6.005659164942742,6.005659164942742]}},"index":28},"metallicFactor":1.0,"metallicRoughnessTexture":{"extensions":{"KHR_texture_transform":{"scale":[6.005659164942742,6.005659164942742]}},"index":29},"roughnessFactor":1.0}},{"doubleSided":false,"emissiveFactor":[1.0,1.0,1.0],"emissiveTexture":{"extensions":{"KHR_texture_transform":{"scale":[6.005659164942742,6.005659164942742]}},"index":34},"name":"coal","normalTexture":{"extensions":{"KHR_texture_transform":{"scale":[6.005659164942742,6.005659164942742]}},"index":33,"scale":1.0},"occlusionTexture":{"extensions":{"KHR_texture_transform":{"scale":[6.005659164942742,6.005659164942742]}},"index":32},"pbrMetallicRoughness":{"baseColorFactor":[1,1,1,1],"baseColorTexture":{"extensions":{"KHR_texture_transform":{"scale":[6.005659164942742,6.005659164942742]}},"index":31},"metallicFactor":1.0,"metallicRoughnessTexture":{"extensions":{"KHR_texture_transform":{"scale":[6.005659164942742,6.005659164942742]}},"index":32},"roughnessFactor":1.0}}],"meshes":[{"name":"stalls#0_0","primitives":[{"attributes":{"NORMAL":1,"POSITION":0,"TEXCOORD_0":120},"indices":2,"material":10},{"attributes":{"NORMAL":4,"POSITION":3,"TEXCOORD_0":121},"indices":5,"material":9},{"attributes":{"NORMAL":7,"POSITION":6,"TEXCOORD_0":122},"indices":8,"material":6},{"attributes":{"NORMAL":10,"POSITION":9,"TEXCOORD_0":123},"indices":11,"material":0},{"attributes":{"NORMAL":13,"POSITION":12,"TEXCOORD_0":124},"indices":14,"material":2}]},{"name":"stalls#0_0$lod1","primitives":[{"attributes":{"NORMAL":16,"POSITION":15,"TEXCOORD_0":125},"indices":17,"material":9},{"attributes":{"NORMAL":19,"POSITION":18,"TEXCOORD_0":126},"indices":20,"material":0},{"attributes":{"NORMAL":22,"POSITION":21,"TEXCOORD_0":127},"indices":23,"material":2}]},{"name":"stalls#0_0$lod2","primitives":[{"attributes":{"NORMAL":25,"POSITION":24,"TEXCOORD_0":128},"indices":26,"material":0}]},{"name":"stalls#0_0$lod3","primitives":[{"attributes":{"NORMAL":28,"POSITION":27,"TEXCOORD_0":129},"indices":29,"material":0}]},{"name":"stalls#0_n1","primitives":[{"attributes":{"NORMAL":31,"POSITION":30,"TEXCOORD_0":130},"indices":32,"material":6},{"attributes":{"NORMAL":34,"POSITION":33,"TEXCOORD_0":131},"indices":35,"material":0},{"attributes":{"NORMAL":37,"POSITION":36,"TEXCOORD_0":132},"indices":38,"material":4},{"attributes":{"NORMAL":40,"POSITION":39,"TEXCOORD_0":133},"indices":41,"material":7},{"attributes":{"NORMAL":43,"POSITION":42,"TEXCOORD_0":134},"indices":44,"material":1},{"attributes":{"NORMAL":46,"POSITION":45,"TEXCOORD_0":135},"indices":47,"material":2},{"attributes":{"NORMAL":49,"POSITION":48,"TEXCOORD_0":136},"indices":50,"material":5}]},{"name":"stalls#0_n1$lod1","primitives":[{"attributes":{"NORMAL":52,"POSITION":51,"TEXCOORD_0":137},"indices":53,"material":0}]},{"name":"stalls#0_n1$lod2","primitives":[{"attributes":{"NORMAL":55,"POSITION":54,"TEXCOORD_0":138},"indices":56,"material":0}]},{"name":"stalls#0_n1$lod3","primitives":[{"attributes":{"NORMAL":58,"POSITION":57,"TEXCOORD_0":139},"indices":59,"material":0}]},{"name":"stalls#n1_0","primitives":[{"attributes":{"NORMAL":61,"POSITION":60,"TEXCOORD_0":140},"indices":62,"material":0},{"attributes":{"NORMAL":64,"POSITION":63,"TEXCOORD_0":141},"indices":65,"material":4},{"attributes":{"NORMAL":67,"POSITION":66,"TEXCOORD_0":142},"indices":68,"material":1},{"attributes":{"NORMAL":70,"POSITION":69,"TEXCOORD_0":143},"indices":71,"material":2},{"attributes":{"NORMAL":73,"POSITION":72,"TEXCOORD_0":144},"indices":74,"material":5}]},{"name":"stalls#n1_0$lod1","primitives":[{"attributes":{"NORMAL":76,"POSITION":75,"TEXCOORD_0":145},"indices":77,"material":0},{"attributes":{"NORMAL":79,"POSITION":78,"TEXCOORD_0":146},"indices":80,"material":2}]},{"name":"stalls#n1_0$lod2","primitives":[{"attributes":{"NORMAL":82,"POSITION":81,"TEXCOORD_0":147},"indices":83,"material":0}]},{"name":"stalls#n1_0$lod3","primitives":[{"attributes":{"NORMAL":85,"POSITION":84,"TEXCOORD_0":148},"indices":86,"material":0}]},{"name":"stalls#n1_n1","primitives":[{"attributes":{"NORMAL":88,"POSITION":87,"TEXCOORD_0":149},"indices":89,"material":3},{"attributes":{"NORMAL":91,"POSITION":90,"TEXCOORD_0":150},"indices":92,"material":8},{"attributes":{"NORMAL":94,"POSITION":93,"TEXCOORD_0":151},"indices":95,"material":0},{"attributes":{"NORMAL":97,"POSITION":96,"TEXCOORD_0":152},"indices":98,"material":4},{"attributes":{"NORMAL":100,"POSITION":99,"TEXCOORD_0":153},"indices":101,"material":1},{"attributes":{"NORMAL":103,"POSITION":102,"TEXCOORD_0":154},"indices":104,"material":2},{"attributes":{"NORMAL":106,"POSITION":105,"TEXCOORD_0":155},"indices":107,"material":5}]},{"name":"stalls#n1_n1$lod1","primitives":[{"attributes":{"NORMAL":109,"POSITION":108,"TEXCOORD_0":156},"indices":110,"material":0},{"attributes":{"NORMAL":112,"POSITION":111,"TEXCOORD_0":157},"indices":113,"material":2}]},{"name":"stalls#n1_n1$lod2","primitives":[{"attributes":{"NORMAL":115,"POSITION":114,"TEXCOORD_0":158},"indices":116,"material":0}]},{"name":"stalls#n1_n1$lod3","primitives":[{"attributes":{"NORMAL":118,"POSITION":117,"TEXCOORD_0":159},"indices":119,"material":0}]}],"nodes":[{"extensions":{"MSFT_lod":{"ids":[1,2,3]}},"extras":{"MSFT_screencoverage":[0.35811,0.13429,0.05372,0.0],"hm":{"cell":"0_0","cullAt":null,"interior":null,"lod":0,"max":[9.131,2.951,2.462],"min":[5.155,-0.033,-0.101],"prims":5,"tris":8228,"venue":"stalls"}},"mesh":0,"name":"stalls#0_0","scale":[1.9879579544067383,1.491886019706726,1.2812836170196533],"translation":[7.1431474685668945,1.4586812257766724,1.1803028583526611]},{"extras":{"hm":{"cell":"0_0","cullAt":null,"interior":null,"lod":1,"max":[9.131,2.951,2.462],"min":[5.155,-0.033,-0.101],"prims":3,"tris":3659,"venue":"stalls"}},"mesh":1,"name":"stalls#0_0$lod1","scale":[1.9879579544067383,1.488845705986023,1.2812836170196533],"translation":[7.1431474685668945,1.4617215394973755,1.1803028583526611]},{"extras":{"hm":{"cell":"0_0","cullAt":null,"interior":null,"lod":2,"max":[9.131,2.951,2.462],"min":[5.155,-0.033,-0.101],"prims":1,"tris":1078,"venue":"stalls"}},"mesh":2,"name":"stalls#0_0$lod2","scale":[1.9875078201293945,1.4863643646240234,1.2741528749465942],"translation":[7.142697334289551,1.464202880859375,1.1739355325698853]},{"extras":{"hm":{"cell":"0_0","cullAt":null,"interior":null,"lod":3,"max":[9.131,2.951,2.462],"min":[5.155,-0.033,-0.101],"prims":1,"tris":188,"venue":"stalls"}},"mesh":3,"name":"stalls#0_0$lod3","scale":[1.9324405193328857,1.4863643646240234,1.2093746662139893],"translation":[7.102226257324219,1.464202880859375,1.1568639278411865]},{"extensions":{"MSFT_lod":{"ids":[5,6,7]}},"extras":{"MSFT_screencoverage":[0.81836,0.30688,0.12275,0.0],"hm":{"cell":"0_n1","cullAt":null,"interior":null,"lod":0,"max":[7.846,2.931,-4.005],"min":[0.817,-0.034,-14.259],"prims":7,"tris":22420,"venue":"stalls"}},"mesh":4,"name":"stalls#0_n1","scale":[3.5145797729492188,1.4824610948562622,5.126808166503906],"translation":[4.331408977508545,1.4485639333724976,-9.1322603225708]},{"extras":{"hm":{"cell":"0_n1","cullAt":null,"interior":null,"lod":1,"max":[7.846,2.931,-4.005],"min":[0.817,-0.034,-14.259],"prims":1,"tris":10887,"venue":"stalls"}},"mesh":5,"name":"stalls#0_n1$lod1","scale":[3.513563632965088,1.4817646741867065,5.126808166503906],"translation":[4.332425117492676,1.4492603540420532,-9.1322603225708]},{"extras":{"hm":{"cell":"0_n1","cullAt":null,"interior":null,"lod":2,"max":[7.846,2.931,-4.005],"min":[0.817,-0.034,-14.259],"prims":1,"tris":3092,"venue":"stalls"}},"mesh":6,"name":"stalls#0_n1$lod2","scale":[3.1550235748291016,1.4782918691635132,5.126808166503906],"translation":[4.690965175628662,1.4527331590652466,-9.1322603225708]},{"extras":{"hm":{"cell":"0_n1","cullAt":null,"interior":null,"lod":3,"max":[7.846,2.931,-4.005],"min":[0.817,-0.034,-14.259],"prims":1,"tris":559,"venue":"stalls"}},"mesh":7,"name":"stalls#0_n1$lod3","scale":[3.00986385345459,1.474643349647522,5.031064033508301],"translation":[4.673623561859131,1.4497147798538208,-9.07610034942627]},{"extensions":{"MSFT_lod":{"ids":[9,10,11]}},"extras":{"MSFT_screencoverage":[0.4036,0.15135,0.06054,0.0],"hm":{"cell":"n1_0","cullAt":null,"interior":null,"lod":0,"max":[-5.286,2.805,3.484],"min":[-9.63,-0.033,-0.094],"prims":5,"tris":9572,"venue":"stalls"}},"mesh":8,"name":"stalls#n1_0","scale":[2.171994686126709,1.4191515445709229,1.7889518737792969],"translation":[-7.458384990692139,1.3857638835906982,1.695035696029663]},{"extras":{"hm":{"cell":"n1_0","cullAt":null,"interior":null,"lod":1,"max":[-5.286,2.805,3.484],"min":[-9.63,-0.033,-0.094],"prims":2,"tris":4351,"venue":"stalls"}},"mesh":9,"name":"stalls#n1_0$lod1","scale":[2.1693625450134277,1.4186758995056152,1.7883681058883667],"translation":[-7.4597697257995605,1.3862395286560059,1.6952251195907593]},{"extras":{"hm":{"cell":"n1_0","cullAt":null,"interior":null,"lod":2,"max":[-5.286,2.805,3.484],"min":[-9.63,-0.033,-0.094],"prims":1,"tris":1251,"venue":"stalls"}},"mesh":10,"name":"stalls#n1_0$lod2","scale":[2.1643564701080322,1.4157778024673462,1.7722383737564087],"translation":[-7.462324142456055,1.389137625694275,1.685693383216858]},{"extras":{"hm":{"cell":"n1_0","cullAt":null,"interior":null,"lod":3,"max":[-5.286,2.805,3.484],"min":[-9.63,-0.033,-0.094],"prims":1,"tris":242,"venue":"stalls"}},"mesh":11,"name":"stalls#n1_0$lod3","scale":[2.129059076309204,1.4038846492767334,1.7291650772094727],"translation":[-7.4318695068359375,1.3782758712768555,1.6787495613098145]},{"extensions":{"MSFT_lod":{"ids":[13,14,15]}},"extras":{"MSFT_screencoverage":[0.84639,0.3174,0.12696,0.0],"hm":{"cell":"n1_n1","cullAt":null,"interior":null,"lod":0,"max":[-1.946,2.916,-3.381],"min":[-9.619,-0.145,-13.699],"prims":7,"tris":33630,"venue":"stalls"}},"mesh":12,"name":"stalls#n1_n1","scale":[3.8363747596740723,1.530622124671936,5.159327983856201],"translation":[-5.782134532928467,1.3852123022079468,-8.54008674621582]},{"extras":{"hm":{"cell":"n1_n1","cullAt":null,"interior":null,"lod":1,"max":[-1.946,2.916,-3.381],"min":[-9.619,-0.145,-13.699],"prims":2,"tris":15499,"venue":"stalls"}},"mesh":13,"name":"stalls#n1_n1$lod1","scale":[3.83477520942688,1.529926061630249,5.157649040222168],"translation":[-5.781589508056641,1.3859083652496338,-8.538408279418945]},{"extras":{"hm":{"cell":"n1_n1","cullAt":null,"interior":null,"lod":2,"max":[-1.946,2.916,-3.381],"min":[-9.619,-0.145,-13.699],"prims":1,"tris":4456,"venue":"stalls"}},"mesh":14,"name":"stalls#n1_n1$lod2","scale":[3.8299856185913086,1.5285911560058594,5.153294563293457],"translation":[-5.78562068939209,1.3872432708740234,-8.540234565734863]},{"extras":{"hm":{"cell":"n1_n1","cullAt":null,"interior":null,"lod":3,"max":[-1.946,2.916,-3.381],"min":[-9.619,-0.145,-13.699],"prims":1,"tris":880,"venue":"stalls"}},"mesh":15,"name":"stalls#n1_n1$lod3","scale":[3.8274476528167725,1.513723373413086,5.135090351104736],"translation":[-5.788158416748047,1.37237548828125,-8.524017333984375]}],"samplers":[{"magFilter":9729,"minFilter":9987,"wrapS":10497,"wrapT":10497}],"scene":0,"scenes":[{"nodes":[0,4,8,12]}],"textures":[{"sampler":0,"source":0},{"sampler":0,"source":1},{"sampler":0,"source":2},{"sampler":0,"source":3},{"sampler":0,"source":4},{"sampler":0,"source":5},{"sampler":0,"source":6},{"sampler":0,"source":7},{"sampler":0,"source":8},{"sampler":0,"source":9},{"sampler":0,"source":10},{"sampler":0,"source":11},{"sampler":0,"source":12},{"sampler":0,"source":13},{"sampler":0,"source":14},{"sampler":0,"source":15},{"sampler":0,"source":16},{"sampler":0,"source":17},{"sampler":0,"source":18},{"sampler":0,"source":19},{"sampler":0,"source":20},{"sampler":0,"source":21},{"sampler":0,"source":22},{"sampler":0,"source":23},{"sampler":0,"source":24},{"sampler":0,"source":25},{"sampler":0,"source":26},{"sampler":0,"source":27},{"sampler":0,"source":28},{"sampler":0,"source":29},{"sampler":0,"source":30},{"sampler":0,"source":31},{"sampler":0,"source":32},{"sampler":0,"source":33},{"sampler":0,"source":34}]}