{"accessors":[{"bufferView":0,"componentType":5122,"count":1444,"max":[21256.0,32767.0,24436.0],"min":[6097.0,-29336.0,-2524.0],"normalized":true,"type":"VEC3"},{"bufferView":1,"componentType":5120,"count":1444,"normalized":true,"type":"VEC3"},{"bufferView":2,"componentType":5123,"count":2376,"type":"SCALAR"},{"bufferView":3,"componentType":5122,"count":96,"max":[32767.0,-29336.0,31307.0],"min":[-32767.0,-32767.0,-32767.0],"normalized":true,"type":"VEC3"},{"bufferView":4,"componentType":5120,"count":96,"normalized":true,"type":"VEC3"},{"bufferView":5,"componentType":5123,"count":132,"type":"SCALAR"},{"bufferView":6,"componentType":5122,"count":2088,"max":[24078.0,-16298.0,19520.0],"min":[-9294.0,-28993.0,-2610.0],"normalized":true,"type":"VEC3"},{"bufferView":7,"componentType":5120,"count":2088,"normalized":true,"type":"VEC3"},{"bufferView":8,"componentType":5123,"count":3300,"type":"SCALAR"},{"bufferView":9,"componentType":5122,"count":1512,"max":[31964.0,-28856.0,32767.0],"min":[6690.0,-28993.0,9684.0],"normalized":true,"type":"VEC3"},{"bufferView":10,"componentType":5120,"count":1512,"normalized":true,"type":"VEC3"},{"bufferView":11,"componentType":5123,"count":2508,"type":"SCALAR"},{"bufferView":12,"componentType":5122,"count":1060,"max":[26332.0,31051.0,27490.0],"min":[7031.0,-29336.0,13765.0],"normalized":true,"type":"VEC3"},{"bufferView":13,"componentType":5120,"count":1060,"normalized":true,"type":"VEC3"},{"bufferView":14,"componentType":5123,"count":1644,"type":"SCALAR"},{"bufferView":15,"componentType":5122,"count":1092,"max":[21292.0,32767.0,24429.0],"min":[6110.0,-30439.0,-2524.0],"normalized":true,"type":"VEC3"},{"bufferView":16,"componentType":5120,"count":1092,"normalized":true,"type":"VEC3"},{"bufferView":17,"componentType":5123,"count":1092,"type":"SCALAR"},{"bufferView":18,"componentType":5122,"count":60,"max":[32767.0,-30439.0,31307.0],"min":[-32767.0,-32767.0,-32767.0],"normalized":true,"type":"VEC3"},{"bufferView":19,"componentType":5120,"count":60,"normalized":true,"type":"VEC3"},{"bufferView":20,"componentType":5123,"count":60,"type":"SCALAR"},{"bufferView":21,"componentType":5122,"count":1599,"max":[24123.0,-17169.0,19518.0],"min":[-9314.0,-30090.0,-2610.0],"normalized":true,"type":"VEC3"},{"bufferView":22,"componentType":5120,"count":1599,"normalized":true,"type":"VEC3"},{"bufferView":23,"componentType":5123,"count":1599,"type":"SCALAR"},{"bufferView":24,"componentType":5122,"count":1080,"max":[32032.0,-29950.0,32767.0],"min":[6709.0,-30090.0,9684.0],"normalized":true,"type":"VEC3"},{"bufferView":25,"componentType":5120,"count":1080,"normalized":true,"type":"VEC3"},{"bufferView":26,"componentType":5123,"count":1080,"type":"SCALAR"},{"bufferView":27,"componentType":5122,"count":705,"max":[26388.0,30565.0,27236.0],"min":[7046.0,-30439.0,14019.0],"normalized":true,"type":"VEC3"},{"bufferView":28,"componentType":5120,"count":705,"normalized":true,"type":"VEC3"},{"bufferView":29,"componentType":5123,"count":705,"type":"SCALAR"},{"bufferView":30,"componentType":5122,"count":543,"max":[32767.0,32767.0,31198.0],"min":[-32767.0,-32767.0,-32767.0],"normalized":true,"type":"VEC3"},{"bufferView":31,"componentType":5120,"count":543,"normalized":true,"type":"VEC3"},{"bufferView":32,"componentType":5123,"count":543,"type":"SCALAR"},{"bufferView":33,"componentType":5122,"count":468,"max":[24181.0,-18114.0,19497.0],"min":[-9323.0,-30944.0,-2657.0],"normalized":true,"type":"VEC3"},{"bufferView":34,"componentType":5120,"count":468,"normalized":true,"type":"VEC3"},{"bufferView":35,"componentType":5123,"count":468,"type":"SCALAR"},{"bufferView":36,"componentType":5122,"count":309,"max":[32107.0,-30875.0,32767.0],"min":[6729.0,-30996.0,9653.0],"normalized":true,"type":"VEC3"},{"bufferView":37,"componentType":5120,"count":309,"normalized":true,"type":"VEC3"},{"bufferView":38,"componentType":5123,"count":309,"type":"SCALAR"},{"bufferView":39,"componentType":5122,"count":162,"max":[32767.0,32767.0,32767.0],"min":[-32767.0,-32767.0,-32767.0],"normalized":true,"type":"VEC3"},{"bufferView":40,"componentType":5120,"count":162,"normalized":true,"type":"VEC3"},{"bufferView":41,"componentType":5123,"count":162,"type":"SCALAR"},{"bufferView":42,"componentType":5122,"count":84,"max":[21619.0,-17677.0,18128.0],"min":[-4742.0,-30824.0,-2153.0],"normalized":true,"type":"VEC3"},{"bufferView":43,"componentType":5120,"count":84,"normalized":true,"type":"VEC3"},{"bufferView":44,"componentType":5123,"count":84,"type":"SCALAR"},{"bufferView":45,"componentType":5122,"count":22746,"max":[32767.0,32767.0,31043.0],"min":[-28709.0,-32767.0,-32767.0],"normalized":true,"type":"VEC3"},{"bufferView":46,"componentType":5120,"count":22746,"normalized":true,"type":"VEC3"},{"bufferView":47,"componentType":5123,"count":34464,"type":"SCALAR"},{"bufferView":48,"componentType":5122,"count":816,"max":[17644.0,-10182.0,-5364.0],"min":[-28335.0,-25699.0,-30739.0],"normalized":true,"type":"VEC3"},{"bufferView":49,"componentType":5120,"count":816,"normalized":true,"type":"VEC3"},{"bufferView":50,"componentType":5123,"count":1128,"type":"SCALAR"},{"bufferView":51,"componentType":5122,"count":576,"max":[17644.0,-22929.0,12702.0],"min":[-28335.0,-23483.0,-3158.0],"normalized":true,"type":"VEC3"},{"bufferView":52,"componentType":5120,"count":576,"normalized":true,"type":"VEC3"},{"bufferView":53,"componentType":5123,"count":792,"type":"SCALAR"},{"bufferView":54,"componentType":5122,"count":1152,"max":[20354.0,-15572.0,32767.0],"min":[-31045.0,-17096.0,-23223.0],"normalized":true,"type":"VEC3"},{"bufferView":55,"componentType":5120,"count":1152,"normalized":true,"type":"VEC3"},{"bufferView":56,"componentType":5123,"count":1584,"type":"SCALAR"},{"bufferView":57,"componentType":5122,"count":1248,"max":[20354.0,-17110.0,32767.0],"min":[-31045.0,-32350.0,-23223.0],"normalized":true,"type":"VEC3"},{"bufferView":58,"componentType":5120,"count":1248,"normalized":true,"type":"VEC3"},{"bufferView":59,"componentType":5123,"count":1716,"type":"SCALAR"},{"bufferView":60,"componentType":5122,"count":4200,"max":[21879.0,-20158.0,30905.0],"min":[-32767.0,-32073.0,-21362.0],"normalized":true,"type":"VEC3"},{"bufferView":61,"componentType":5120,"count":4200,"normalized":true,"type":"VEC3"},{"bufferView":62,"componentType":5123,"count":6204,"type":"SCALAR"},{"bufferView":63,"componentType":5122,"count":96,"max":[21146.0,-25402.0,-23949.0],"min":[12990.0,-25791.0,-29966.0],"normalized":true,"type":"VEC3"},{"bufferView":64,"componentType":5120,"count":96,"normalized":true,"type":"VEC3"},{"bufferView":65,"componentType":5123,"count":144,"type":"SCALAR"},{"bufferView":66,"componentType":5122,"count":16185,"max":[32767.0,32767.0,31046.0],"min":[-28698.0,-32767.0,-32767.0],"normalized":true,"type":"VEC3"},{"bufferView":67,"componentType":5120,"count":16185,"normalized":true,"type":"VEC3"},{"bufferView":68,"componentType":5123,"count":16185,"type":"SCALAR"},{"bufferView":69,"componentType":5122,"count":516,"max":[17629.0,-10182.0,-5384.0],"min":[-28339.0,-25699.0,-30761.0],"normalized":true,"type":"VEC3"},{"bufferView":70,"componentType":5120,"count":516,"normalized":true,"type":"VEC3"},{"bufferView":71,"componentType":5123,"count":516,"type":"SCALAR"},{"bufferView":72,"componentType":5122,"count":336,"max":[17629.0,-22929.0,12706.0],"min":[-28314.0,-23483.0,-3149.0],"normalized":true,"type":"VEC3"},{"bufferView":73,"componentType":5120,"count":336,"normalized":true,"type":"VEC3"},{"bufferView":74,"componentType":5123,"count":336,"type":"SCALAR"},{"bufferView":75,"componentType":5122,"count":720,"max":[20358.0,-15572.0,32767.0],"min":[-31026.0,-17096.0,-23223.0],"normalized":true,"type":"VEC3"},{"bufferView":76,"componentType":5120,"count":720,"normalized":true,"type":"VEC3"},{"bufferView":77,"componentType":5123,"count":720,"type":"SCALAR"},{"bufferView":78,"componentType":5122,"count":888,"max":[21150.0,-17110.0,32715.0],"min":[-31049.0,-31934.0,-29988.0],"normalized":true,"type":"VEC3"},{"bufferView":79,"componentType":5120,"count":888,"normalized":true,"type":"VEC3"},{"bufferView":80,"componentType":5123,"count":888,"type":"SCALAR"},{"bufferView":81,"componentType":5122,"count":2685,"max":[21879.0,-20213.0,30921.0],"min":[-32767.0,-32073.0,-21378.0],"normalized":true,"type":"VEC3"},{"bufferView":82,"componentType":5120,"count":2685,"normalized":true,"type":"VEC3"},{"bufferView":83,"componentType":5123,"count":2685,"type":"SCALAR"},{"bufferView":84,"componentType":5122,"count":4707,"max":[32767.0,32767.0,31043.0],"min":[-28684.0,-32767.0,-32767.0],"normalized":true,"type":"VEC3"},{"bufferView":85,"componentType":5120,"count":4707,"normalized":true,"type":"VEC3"},{"bufferView":86,"componentType":5123,"count":4707,"type":"SCALAR"},{"bufferView":87,"componentType":5122,"count":768,"max":[21180.0,-10287.0,32767.0],"min":[-31024.0,-31721.0,-30842.0],"normalized":true,"type":"VEC3"},{"bufferView":88,"componentType":5120,"count":768,"normalized":true,"type":"VEC3"},{"bufferView":89,"componentType":5123,"count":768,"type":"SCALAR"},{"bufferView":90,"componentType":5122,"count":789,"max":[22058.0,-20518.0,30919.0],"min":[-32767.0,-32246.0,-21446.0],"normalized":true,"type":"VEC3"},{"bufferView":91,"componentType":5120,"count":789,"normalized":true,"type":"VEC3"},{"bufferView":92,"componentType":5123,"count":789,"type":"SCALAR"},{"bufferView":93,"componentType":5122,"count":414,"max":[32767.0,32767.0,32767.0],"min":[-31710.0,-27780.0,-32767.0],"normalized":true,"type":"VEC3"},{"bufferView":94,"componentType":5120,"count":414,"normalized":true,"type":"VEC3"},{"bufferView":95,"componentType":5123,"count":414,"type":"SCALAR"},{"bufferView":96,"componentType":5122,"count":144,"max":[23562.0,-26168.0,26941.0],"min":[-32767.0,-32767.0,-21095.0],"normalized":true,"type":"VEC3"},{"bufferView":97,"componentType":5120,"count":144,"normalized":true,"type":"VEC3"},{"bufferView":98,"componentType":5123,"count":144,"type":"SCALAR"},{"bufferView":99,"componentType":5122,"count":10496,"max":[32767.0,32741.0,32741.0],"min":[-32767.0,-32767.0,-32767.0],"normalized":true,"type":"VEC3"},{"bufferView":100,"componentType":5120,"count":10496,"normalized":true,"type":"VEC3"},{"bufferView":101,"componentType":5123,"count":17802,"type":"SCALAR"},{"bufferView":102,"componentType":5122,"count":288,"max":[19811.0,9429.0,29125.0],"min":[-27274.0,7534.0,-13991.0],"normalized":true,"type":"VEC3"},{"bufferView":103,"componentType":5120,"count":288,"normalized":true,"type":"VEC3"},{"bufferView":104,"componentType":5123,"count":396,"type":"SCALAR"},{"bufferView":105,"componentType":5122,"count":1512,"max":[16325.0,-32611.0,24894.0],"min":[-14644.0,-32656.0,3881.0],"normalized":true,"type":"VEC3"},{"bufferView":106,"componentType":5120,"count":1512,"normalized":true,"type":"VEC3"},{"bufferView":107,"componentType":5123,"count":2508,"type":"SCALAR"},{"bufferView":108,"componentType":5122,"count":1512,"max":[19156.0,-32611.0,2130.0],"min":[-31917.0,-32656.0,-30645.0],"normalized":true,"type":"VEC3"},{"bufferView":109,"componentType":5120,"count":1512,"normalized":true,"type":"VEC3"},{"bufferView":110,"componentType":5123,"count":2508,"type":"SCALAR"},{"bufferView":111,"componentType":5122,"count":3936,"max":[24992.0,32767.0,32767.0],"min":[-32456.0,9828.0,-17632.0],"normalized":true,"type":"VEC3"},{"bufferView":112,"componentType":5120,"count":3936,"normalized":true,"type":"VEC3"},{"bufferView":113,"componentType":5121,"count":3936,"normalized":true,"type":"VEC4"},{"bufferView":114,"componentType":5123,"count":5412,"type":"SCALAR"},{"bufferView":115,"componentType":5122,"count":7704,"max":[32767.0,32726.0,32746.0],"min":[-32767.0,-32767.0,-32767.0],"normalized":true,"type":"VEC3"},{"bufferView":116,"componentType":5120,"count":7704,"normalized":true,"type":"VEC3"},{"bufferView":117,"componentType":5123,"count":7704,"type":"SCALAR"},{"bufferView":118,"componentType":5122,"count":204,"max":[19807.0,9429.0,29149.0],"min":[-27294.0,7590.0,-13949.0],"normalized":true,"type":"VEC3"},{"bufferView":119,"componentType":5120,"count":204,"normalized":true,"type":"VEC3"},{"bufferView":120,"componentType":5123,"count":204,"type":"SCALAR"},{"bufferView":121,"componentType":5122,"count":1134,"max":[16320.0,-32611.0,24913.0],"min":[-14655.0,-32656.0,3895.0],"normalized":true,"type":"VEC3"},{"bufferView":122,"componentType":5120,"count":1134,"normalized":true,"type":"VEC3"},{"bufferView":123,"componentType":5123,"count":1134,"type":"SCALAR"},{"bufferView":124,"componentType":5122,"count":1218,"max":[19151.0,-32611.0,2140.0],"min":[-31933.0,-32656.0,-30644.0],"normalized":true,"type":"VEC3"},{"bufferView":125,"componentType":5120,"count":1218,"normalized":true,"type":"VEC3"},{"bufferView":126,"componentType":5123,"count":1218,"type":"SCALAR"},{"bufferView":127,"componentType":5122,"count":2427,"max":[24909.0,32767.0,32767.0],"min":[-32398.0,9828.0,-17626.0],"normalized":true,"type":"VEC3"},{"bufferView":128,"componentType":5120,"count":2427,"normalized":true,"type":"VEC3"},{"bufferView":129,"componentType":5121,"count":2427,"normalized":true,"type":"VEC4"},{"bufferView":130,"componentType":5123,"count":2427,"type":"SCALAR"},{"bufferView":131,"componentType":5122,"count":2613,"max":[32767.0,31846.0,32614.0],"min":[-32441.0,-32767.0,-32767.0],"normalized":true,"type":"VEC3"},{"bufferView":132,"componentType":5120,"count":2613,"normalized":true,"type":"VEC3"},{"bufferView":133,"componentType":5123,"count":2613,"type":"SCALAR"},{"bufferView":134,"componentType":5122,"count":351,"max":[26278.0,-32624.0,2151.0],"min":[-32355.0,-32656.0,-30637.0],"normalized":true,"type":"VEC3"},{"bufferView":135,"componentType":5120,"count":351,"normalized":true,"type":"VEC3"},{"bufferView":136,"componentType":5123,"count":351,"type":"SCALAR"},{"bufferView":137,"componentType":5122,"count":762,"max":[32761.0,32767.0,32767.0],"min":[-32767.0,9964.0,-17581.0],"normalized":true,"type":"VEC3"},{"bufferView":138,"componentType":5120,"count":762,"normalized":true,"type":"VEC3"},{"bufferView":139,"componentType":5121,"count":762,"normalized":true,"type":"VEC4"},{"bufferView":140,"componentType":5123,"count":762,"type":"SCALAR"},{"bufferView":141,"componentType":5122,"count":543,"max":[31685.0,10976.0,29765.0],"min":[-29059.0,-32767.0,-32767.0],"normalized":true,"type":"VEC3"},{"bufferView":142,"componentType":5120,"count":543,"normalized":true,"type":"VEC3"},{"bufferView":143,"componentType":5123,"count":543,"type":"SCALAR"},{"bufferView":144,"componentType":5122,"count":132,"max":[32767.0,32767.0,32767.0],"min":[-32767.0,12741.0,-20413.0],"normalized":true,"type":"VEC3"},{"bufferView":145,"componentType":5120,"count":132,"normalized":true,"type":"VEC3"},{"bufferView":146,"componentType":5121,"count":132,"normalized":true,"type":"VEC4"},{"bufferView":147,"componentType":5123,"count":132,"type":"SCALAR"},{"bufferView":148,"componentType":5122,"count":1008,"max":[-995.0,-25811.0,-19312.0],"min":[-20053.0,-32215.0,-32767.0],"normalized":true,"type":"VEC3"},{"bufferView":149,"componentType":5120,"count":1008,"normalized":true,"type":"VEC3"},{"bufferView":150,"componentType":5123,"count":1680,"type":"SCALAR"},{"bufferView":151,"componentType":5122,"count":9096,"max":[32767.0,32767.0,32767.0],"min":[-32767.0,-32767.0,-31003.0],"normalized":true,"type":"VEC3"},{"bufferView":152,"componentType":5120,"count":9096,"normalized":true,"type":"VEC3"},{"bufferView":153,"componentType":5123,"count":15018,"type":"SCALAR"},{"bufferView":154,"componentType":5122,"count":1512,"max":[30544.0,-32024.0,3578.0],"min":[-16677.0,-32135.0,-25673.0],"normalized":true,"type":"VEC3"},{"bufferView":155,"componentType":5120,"count":1512,"normalized":true,"type":"VEC3"},{"bufferView":156,"componentType":5123,"count":2508,"type":"SCALAR"},{"bufferView":157,"componentType":5122,"count":864,"max":[20292.0,-29361.0,13608.0],"min":[-32114.0,-29916.0,-30260.0],"normalized":true,"type":"VEC3"},{"bufferView":158,"componentType":5120,"count":864,"normalized":true,"type":"VEC3"},{"bufferView":159,"componentType":5123,"count":1188,"type":"SCALAR"},{"bufferView":160,"componentType":5122,"count":807,"max":[-1009.0,-25881.0,-19324.0],"min":[-20047.0,-32161.0,-32767.0],"normalized":true,"type":"VEC3"},{"bufferView":161,"componentType":5120,"count":807,"normalized":true,"type":"VEC3"},{"bufferView":162,"componentType":5123,"count":807,"type":"SCALAR"},{"bufferView":163,"componentType":5122,"count":7473,"max":[32767.0,32767.0,32767.0],"min":[-32767.0,-32767.0,-30980.0],"normalized":true,"type":"VEC3"},{"bufferView":164,"componentType":5120,"count":7473,"normalized":true,"type":"VEC3"},{"bufferView":165,"componentType":5123,"count":7473,"type":"SCALAR"},{"bufferView":166,"componentType":5122,"count":1074,"max":[30540.0,-32024.0,3582.0],"min":[-16678.0,-32135.0,-25673.0],"normalized":true,"type":"VEC3"},{"bufferView":167,"componentType":5120,"count":1074,"normalized":true,"type":"VEC3"},{"bufferView":168,"componentType":5123,"count":1074,"type":"SCALAR"},{"bufferView":169,"componentType":5122,"count":576,"max":[20268.0,-29361.0,13621.0],"min":[-32100.0,-29916.0,-30248.0],"normalized":true,"type":"VEC3"},{"bufferView":170,"componentType":5120,"count":576,"normalized":true,"type":"VEC3"},{"bufferView":171,"componentType":5123,"count":576,"type":"SCALAR"},{"bufferView":172,"componentType":5122,"count":2481,"max":[32767.0,32767.0,32767.0],"min":[-32767.0,-32767.0,-32767.0],"normalized":true,"type":"VEC3"},{"bufferView":173,"componentType":5120,"count":2481,"normalized":true,"type":"VEC3"},{"bufferView":174,"componentType":5123,"count":2481,"type":"SCALAR"},{"bufferView":175,"componentType":5122,"count":291,"max":[30550.0,-32377.0,3583.0],"min":[-16682.0,-32450.0,-25670.0],"normalized":true,"type":"VEC3"},{"bufferView":176,"componentType":5120,"count":291,"normalized":true,"type":"VEC3"},{"bufferView":177,"componentType":5123,"count":291,"type":"SCALAR"},{"bufferView":178,"componentType":5122,"count":147,"max":[20277.0,-29697.0,13614.0],"min":[-32122.0,-30074.0,-30246.0],"normalized":true,"type":"VEC3"},{"bufferView":179,"componentType":5120,"count":147,"normalized":true,"type":"VEC3"},{"bufferView":180,"componentType":5123,"count":147,"type":"SCALAR"},{"bufferView":181,"componentType":5122,"count":465,"max":[32767.0,32767.0,32767.0],"min":[-32767.0,-32767.0,-32767.0],"normalized":true,"type":"VEC3"},{"bufferView":182,"componentType":5120,"count":465,"normalized":true,"type":"VEC3"},{"bufferView":183,"componentType":5123,"count":465,"type":"SCALAR"},{"bufferView":184,"componentType":5122,"count":51,"max":[30929.0,-32511.0,3696.0],"min":[-15421.0,-32530.0,-24699.0],"normalized":true,"type":"VEC3"},{"bufferView":185,"componentType":5120,"count":51,"normalized":true,"type":"VEC3"},{"bufferView":186,"componentType":5123,"count":51,"type":"SCALAR"},{"bufferView":187,"componentType":5122,"count":1444,"normalized":true,"type":"VEC2"},{"bufferView":188,"componentType":5122,"count":96,"normalized":true,"type":"VEC2"},{"bufferView":189,"componentType":5122,"count":2088,"normalized":true,"type":"VEC2"},{"bufferView":190,"componentType":5122,"count":1512,"normalized":true,"type":"VEC2"},{"bufferView":191,"componentType":5122,"count":1060,"normalized":true,"type":"VEC2"},{"bufferView":192,"componentType":5122,"count":1092,"normalized":true,"type":"VEC2"},{"bufferView":193,"componentType":5122,"count":60,"normalized":true,"type":"VEC2"},{"bufferView":194,"componentType":5122,"count":1599,"normalized":true,"type":"VEC2"},{"bufferView":195,"componentType":5122,"count":1080,"normalized":true,"type":"VEC2"},{"bufferView":196,"componentType":5122,"count":705,"normalized":true,"type":"VEC2"},{"bufferView":197,"componentType":5122,"count":543,"normalized":true,"type":"VEC2"},{"bufferView":198,"componentType":5122,"count":468,"normalized":true,"type":"VEC2"},{"bufferView":199,"componentType":5122,"count":309,"normalized":true,"type":"VEC2"},{"bufferView":200,"componentType":5122,"count":162,"normalized":true,"type":"VEC2"},{"bufferView":201,"componentType":5122,"count":84,"normalized":true,"type":"VEC2"},{"bufferView":202,"componentType":5122,"count":22746,"normalized":true,"type":"VEC2"},{"bufferView":203,"componentType":5122,"count":816,"normalized":true,"type":"VEC2"},{"bufferView":204,"componentType":5122,"count":576,"normalized":true,"type":"VEC2"},{"bufferView":205,"componentType":5122,"count":1152,"normalized":true,"type":"VEC2"},{"bufferView":206,"componentType":5122,"count":1248,"normalized":true,"type":"VEC2"},{"bufferView":207,"componentType":5122,"count":4200,"normalized":true,"type":"VEC2"},{"bufferView":208,"componentType":5122,"count":96,"normalized":true,"type":"VEC2"},{"bufferView":209,"componentType":5122,"count":16185,"normalized":true,"type":"VEC2"},{"bufferView":210,"componentType":5122,"count":516,"normalized":true,"type":"VEC2"},{"bufferView":211,"componentType":5122,"count":336,"normalized":true,"type":"VEC2"},{"bufferView":212,"componentType":5122,"count":720,"normalized":true,"type":"VEC2"},{"bufferView":213,"componentType":5122,"count":888,"normalized":true,"type":"VEC2"},{"bufferView":214,"componentType":5122,"count":2685,"normalized":true,"type":"VEC2"},{"bufferView":215,"componentType":5122,"count":4707,"normalized":true,"type":"VEC2"},{"bufferView":216,"componentType":5122,"count":768,"normalized":true,"type":"VEC2"},{"bufferView":217,"componentType":5122,"count":789,"normalized":true,"type":"VEC2"},{"bufferView":218,"componentType":5122,"count":414,"normalized":true,"type":"VEC2"},{"bufferView":219,"componentType":5122,"count":144,"normalized":true,"type":"VEC2"},{"bufferView":220,"componentType":5122,"count":10496,"normalized":true,"type":"VEC2"},{"bufferView":221,"componentType":5122,"count":288,"normalized":true,"type":"VEC2"},{"bufferView":222,"componentType":5122,"count":1512,"normalized":true,"type":"VEC2"},{"bufferView":223,"componentType":5122,"count":1512,"normalized":true,"type":"VEC2"},{"bufferView":224,"componentType":5122,"count":3936,"normalized":true,"type":"VEC2"},{"bufferView":225,"componentType":5122,"count":7704,"normalized":true,"type":"VEC2"},{"bufferView":226,"componentType":5122,"count":204,"normalized":true,"type":"VEC2"},{"bufferView":227,"componentType":5122,"count":1134,"normalized":true,"type":"VEC2"},{"bufferView":228,"componentType":5122,"count":1218,"normalized":true,"type":"VEC2"},{"bufferView":229,"componentType":5122,"count":2427,"normalized":true,"type":"VEC2"},{"bufferView":230,"componentType":5122,"count":2613,"normalized":true,"type":"VEC2"},{"bufferView":231,"componentType":5122,"count":351,"normalized":true,"type":"VEC2"},{"bufferView":232,"componentType":5122,"count":762,"normalized":true,"type":"VEC2"},{"bufferView":233,"componentType":5122,"count":543,"normalized":true,"type":"VEC2"},{"bufferView":234,"componentType":5122,"count":132,"normalized":true,"type":"VEC2"},{"bufferView":235,"componentType":5122,"count":1008,"normalized":true,"type":"VEC2"},{"bufferView":236,"componentType":5122,"count":9096,"normalized":true,"type":"VEC2"},{"bufferView":237,"componentType":5122,"count":1512,"normalized":true,"type":"VEC2"},{"bufferView":238,"componentType":5122,"count":864,"normalized":true,"type":"VEC2"},{"bufferView":239,"componentType":5122,"count":807,"normalized":true,"type":"VEC2"},{"bufferView":240,"componentType":5122,"count":7473,"normalized":true,"type":"VEC2"},{"bufferView":241,"componentType":5122,"count":1074,"normalized":true,"type":"VEC2"},{"bufferView":242,"componentType":5122,"count":576,"normalized":true,"type":"VEC2"},{"bufferView":243,"componentType":5122,"count":2481,"normalized":true,"type":"VEC2"},{"bufferView":244,"componentType":5122,"count":291,"normalized":true,"type":"VEC2"},{"bufferView":245,"componentType":5122,"count":147,"normalized":true,"type":"VEC2"},{"bufferView":246,"componentType":5122,"count":465,"normalized":true,"type":"VEC2"},{"bufferView":247,"componentType":5122,"count":51,"normalized":true,"type":"VEC2"}],"asset":{"generator":"evermore assetgen","version":"2.0"},"bufferViews":[{"buffer":0,"byteLength":11552,"byteOffset":0,"byteStride":8,"target":34962},{"buffer":0,"byteLength":5776,"byteOffset":11552,"byteStride":4,"target":34962},{"buffer":0,"byteLength":4752,"byteOffset":17328,"target":34963},{"buffer":0,"byteLength":768,"byteOffset":22080,"byteStride":8,"target":34962},{"buffer":0,"byteLength":384,"byteOffset":22848,"byteStride":4,"target":34962},{"buffer":0,"byteLength":264,"byteOffset":23232,"target":34963},{"buffer":0,"byteLength":16704,"byteOffset":23496,"byteStride":8,"target":34962},{"buffer":0,"byteLength":8352,"byteOffset":40200,"byteStride":4,"target":34962},{"buffer":0,"byteLength":6600,"byteOffset":48552,"target":34963},{"buffer":0,"byteLength":12096,"byteOffset":55152,"byteStride":8,"target":34962},{"buffer":0,"byteLength":6048,"byteOffset":67248,"byteStride":4,"target":34962},{"buffer":0,"byteLength":5016,"byteOffset":73296,"target":34963},{"buffer":0,"byteLength":8480,"byteOffset":78312,"byteStride":8,"target":34962},{"buffer":0,"byteLength":4240,"byteOffset":86792,"byteStride":4,"target":34962},{"buffer":0,"byteLength":3288,"byteOffset":91032,"target":34963},{"buffer":0,"byteLength":8736,"byteOffset":94320,"byteStride":8,"target":34962},{"buffer":0,"byteLength":4368,"byteOffset":103056,"byteStride":4,"target":34962},{"buffer":0,"byteLength":2184,"byteOffset":107424,"target":34963},{"buffer":0,"byteLength":480,"byteOffset":109608,"byteStride":8,"target":34962},{"buffer":0,"byteLength":240,"byteOffset":110088,"byteStride":4,"target":34962},{"buffer":0,"byteLength":120,"byteOffset":110328,"target":34963},{"buffer":0,"byteLength":12792,"byteOffset":110448,"byteStride":8,"target":34962},{"buffer":0,"byteLength":6396,"byteOffset":123240,"byteStride":4,"target":34962},{"buffer":0,"byteLength":3198,"byteOffset":129636,"target":34963},{"buffer":0,"byteLength":8640,"byteOffset":132836,"byteStride":8,"target":34962},{"buffer":0,"byteLength":4320,"byteOffset":141476,"byteStride":4,"target":34962},{"buffer":0,"byteLength":2160,"byteOffset":145796,"target":34963},{"buffer":0,"byteLength":5640,"byteOffset":147956,"byteStride":8,"target":34962},{"buffer":0,"byteLength":2820,"byteOffset":153596,"byteStride":4,"target":34962},{"buffer":0,"byteLength":1410,"byteOffset":156416,"target":34963},{"buffer":0,"byteLength":4344,"byteOffset":157828,"byteStride":8,"target":34962},{"buffer":0,"byteLength":2172,"byteOffset":162172,"byteStride":4,"target":34962},{"buffer":0,"byteLength":1086,"byteOffset":164344,"target":34963},{"buffer":0,"byteLength":3744,"byteOffset":165432,"byteStride":8,"target":34962},{"buffer":0,"byteLength":1872,"byteOffset":169176,"byteStride":4,"target":34962},{"buffer":0,"byteLength":936,"byteOffset":171048,"target":34963},{"buffer":0,"byteLength":2472,"byteOffset":171984,"byteStride":8,"target":34962},{"buffer":0,"byteLength":1236,"byteOffset":174456,"byteStride":4,"target":34962},{"buffer":0,"byteLength":618,"byteOffset":175692,"target":34963},{"buffer":0,"byteLength":1296,"byteOffset":176312,"byteStride":8,"target":34962},{"buffer":0,"byteLength":648,"byteOffset":177608,"byteStride":4,"target":34962},{"buffer":0,"byteLength":324,"byteOffset":178256,"target":34963},{"buffer":0,"byteLength":672,"byteOffset":178580,"byteStride":8,"target":34962},{"buffer":0,"byteLength":336,"byteOffset":179252,"byteStride":4,"target":34962},{"buffer":0,"byteLength":168,"byteOffset":179588,"target":34963},{"buffer":0,"byteLength":181968,"byteOffset":179756,"byteStride":8,"target":34962},{"buffer":0,"byteLength":90984,"byteOffset":361724,"byteStride":4,"target":34962},{"buffer":0,"byteLength":68928,"byteOffset":452708,"target":34963},{"buffer":0,"byteLength":6528,"byteOffset":521636,"byteStride":8,"target":34962},{"buffer":0,"byteLength":3264,"byteOffset":528164,"byteStride":4,"target":34962},{"buffer":0,"byteLength":2256,"byteOffset":531428,"target":34963},{"buffer":0,"byteLength":4608,"byteOffset":533684,"byteStride":8,"target":34962},{"buffer":0,"byteLength":2304,"byteOffset":538292,"byteStride":4,"target":34962},{"buffer":0,"byteLength":1584,"byteOffset":540596,"target":34963},{"buffer":0,"byteLength":9216,"byteOffset":542180,"byteStride":8,"target":34962},{"buffer":0,"byteLength":4608,"byteOffset":551396,"byteStride":4,"target":34962},{"buffer":0,"byteLength":3168,"byteOffset":556004,"target":34963},{"buffer":0,"byteLength":9984,"byteOffset":559172,"byteStride":8,"target":34962},{"buffer":0,"byteLength":4992,"byteOffset":569156,"byteStride":4,"target":34962},{"buffer":0,"byteLength":3432,"byteOffset":574148,"target":34963},{"buffer":0,"byteLength":33600,"byteOffset":577580,"byteStride":8,"target":34962},{"buffer":0,"byteLength":16800,"byteOffset":611180,"byteStride":4,"target":34962},{"buffer":0,"byteLength":12408,"byteOffset":627980,"target":34963},{"buffer":0,"byteLength":768,"byteOffset":640388,"byteStride":8,"target":34962},{"buffer":0,"byteLength":384,"byteOffset":641156,"byteStride":4,"target":34962},{"buffer":0,"byteLength":288,"byteOffset":641540,"target":34963},{"buffer":0,"byteLength":129480,"byteOffset":641828,"byteStride":8,"target":34962},{"buffer":0,"byteLength":64740,"byteOffset":771308,"byteStride":4,"target":34962},{"buffer":0,"byteLength":32370,"byteOffset":836048,"target":34963},{"buffer":0,"byteLength":4128,"byteOffset":868420,"byteStride":8,"target":34962},{"buffer":0,"byteLength":2064,"byteOffset":872548,"byteStride":4,"target":34962},{"buffer":0,"byteLength":1032,"byteOffset":874612,"target":34963},{"buffer":0,"byteLength":2688,"byteOffset":875644,"byteStride":8,"target":34962},{"buffer":0,"byteLength":1344,"byteOffset":878332,"byteStride":4,"target":34962},{"buffer":0,"byteLength":672,"byteOffset":879676,"target":34963},{"buffer":0,"byteLength":5760,"byteOffset":880348,"byteStride":8,"target":34962},{"buffer":0,"byteLength":2880,"byteOffset":886108,"byteStride":4,"target":34962},{"buffer":0,"byteLength":1440,"byteOffset":888988,"target":34963},{"buffer":0,"byteLength":7104,"byteOffset":890428,"byteStride":8,"target":34962},{"buffer":0,"byteLength":3552,"byteOffset":897532,"byteStride":4,"target":34962},{"buffer":0,"byteLength":1776,"byteOffset":901084,"target":34963},{"buffer":0,"byteLength":21480,"byteOffset":902860,"byteStride":8,"target":34962},{"buffer":0,"byteLength":10740,"byteOffset":924340,"byteStride":4,"target":34962},{"buffer":0,"byteLength":5370,"byteOffset":935080,"target":34963},{"buffer":0,"byteLength":37656,"byteOffset":940452,"byteStride":8,"target":34962},{"buffer":0,"byteLength":18828,"byteOffset":978108,"byteStride":4,"target":34962},{"buffer":0,"byteLength":9414,"byteOffset":996936,"target":34963},{"buffer":0,"byteLength":6144,"byteOffset":1006352,"byteStride":8,"target":34962},{"buffer":0,"byteLength":3072,"byteOffset":1012496,"byteStride":4,"target":34962},{"buffer":0,"byteLength":1536,"byteOffset":1015568,"target":34963},{"buffer":0,"byteLength":6312,"byteOffset":1017104,"byteStride":8,"target":34962},{"buffer":0,"byteLength":3156,"byteOffset":1023416,"byteStride":4,"target":34962},{"buffer":0,"byteLength":1578,"byteOffset":1026572,"target":34963},{"buffer":0,"byteLength":3312,"byteOffset":1028152,"byteStride":8,"target":34962},{"buffer":0,"byteLength":1656,"byteOffset":1031464,"byteStride":4,"target":34962},{"buffer":0,"byteLength":828,"byteOffset":1033120,"target":34963},{"buffer":0,"byteLength":1152,"byteOffset":1033948,"byteStride":8,"target":34962},{"buffer":0,"byteLength":576,"byteOffset":1035100,"byteStride":4,"target":34962},{"buffer":0,"byteLength":288,"byteOffset":1035676,"target":34963},{"buffer":0,"byteLength":83968,"byteOffset":1035964,"byteStride":8,"target":34962},{"buffer":0,"byteLength":41984,"byteOffset":1119932,"byteStride":4,"target":34962},{"buffer":0,"byteLength":35604,"byteOffset":1161916,"target":34963},{"buffer":0,"byteLength":2304,"byteOffset":1197520,"byteStride":8,"target":34962},{"buffer":0,"byteLength":1152,"byteOffset":1199824,"byteStride":4,"target":34962},{"buffer":0,"byteLength":792,"byteOffset":1200976,"target":34963},{"buffer":0,"byteLength":12096,"byteOffset":1201768,"byteStride":8,"target":34962},{"buffer":0,"byteLength":6048,"byteOffset":1213864,"byteStride":4,"target":34962},{"buffer":0,"byteLength":5016,"byteOffset":1219912,"target":34963},{"buffer":0,"byteLength":12096,"byteOffset":1224928,"byteStride":8,"target":34962},{"buffer":0,"byteLength":6048,"byteOffset":1237024,"byteStride":4,"target":34962},{"buffer":0,"byteLength":5016,"byteOffset":1243072,"target":34963},{"buffer":0,"byteLength":31488,"byteOffset":1248088,"byteStride":8,"target":34962},{"buffer":0,"byteLength":15744,"byteOffset":1279576,"byteStride":4,"target":34962},{"buffer":0,"byteLength":15744,"byteOffset":1295320,"byteStride":4,"target":34962},{"buffer":0,"byteLength":10824,"byteOffset":1311064,"target":34963},{"buffer":0,"byteLength":61632,"byteOffset":1321888,"byteStride":8,"target":34962},{"buffer":0,"byteLength":30816,"byteOffset":1383520,"byteStride":4,"target":34962},{"buffer":0,"byteLength":15408,"byteOffset":1414336,"target":34963},{"buffer":0,"byteLength":1632,"byteOffset":1429744,"byteStride":8,"target":34962},{"buffer":0,"byteLength":816,"byteOffset":1431376,"byteStride":4,"target":34962},{"buffer":0,"byteLength":408,"byteOffset":1432192,"target":34963},{"buffer":0,"byteLength":9072,"byteOffset":1432600,"byteStride":8,"target":34962},{"buffer":0,"byteLength":4536,"byteOffset":1441672,"byteStride":4,"target":34962},{"buffer":0,"byteLength":2268,"byteOffset":1446208,"target":34963},{"buffer":0,"byteLength":9744,"byteOffset":1448476,"byteStride":8,"target":34962},{"buffer":0,"byteLength":4872,"byteOffset":1458220,"byteStride":4,"target":34962},{"buffer":0,"byteLength":2436,"byteOffset":1463092,"target":34963},{"buffer":0,"byteLength":19416,"byteOffset":1465528,"byteStride":8,"target":34962},{"buffer":0,"byteLength":9708,"byteOffset":1484944,"byteStride":4,"target":34962},{"buffer":0,"byteLength":9708,"byteOffset":1494652,"byteStride":4,"target":34962},{"buffer":0,"byteLength":4854,"byteOffset":1504360,"target":34963},{"buffer":0,"byteLength":20904,"byteOffset":1509216,"byteStride":8,"target":34962},{"buffer":0,"byteLength":10452,"byteOffset":1530120,"byteStride":4,"target":34962},{"buffer":0,"byteLength":5226,"byteOffset":1540572,"target":34963},{"buffer":0,"byteLength":2808,"byteOffset":1545800,"byteStride":8,"target":34962},{"buffer":0,"byteLength":1404,"byteOffset":1548608,"byteStride":4,"target":34962},{"buffer":0,"byteLength":702,"byteOffset":1550012,"target":34963},{"buffer":0,"byteLength":6096,"byteOffset":1550716,"byteStride":8,"target":34962},{"buffer":0,"byteLength":3048,"byteOffset":1556812,"byteStride":4,"target":34962},{"buffer":0,"byteLength":3048,"byteOffset":1559860,"byteStride":4,"target":34962},{"buffer":0,"byteLength":1524,"byteOffset":1562908,"target":34963},{"buffer":0,"byteLength":4344,"byteOffset":1564432,"byteStride":8,"target":34962},{"buffer":0,"byteLength":2172,"byteOffset":1568776,"byteStride":4,"target":34962},{"buffer":0,"byteLength":1086,"byteOffset":1570948,"target":34963},{"buffer":0,"byteLength":1056,"byteOffset":1572036,"byteStride":8,"target":34962},{"buffer":0,"byteLength":528,"byteOffset":1573092,"byteStride":4,"target":34962},{"buffer":0,"byteLength":528,"byteOffset":1573620,"byteStride":4,"target":34962},{"buffer":0,"byteLength":264,"byteOffset":1574148,"target":34963},{"buffer":0,"byteLength":8064,"byteOffset":1574412,"byteStride":8,"target":34962},{"buffer":0,"byteLength":4032,"byteOffset":1582476,"byteStride":4,"target":34962},{"buffer":0,"byteLength":3360,"byteOffset":1586508,"target":34963},{"buffer":0,"byteLength":72768,"byteOffset":1589868,"byteStride":8,"target":34962},{"buffer":0,"byteLength":36384,"byteOffset":1662636,"byteStride":4,"target":34962},{"buffer":0,"byteLength":30036,"byteOffset":1699020,"target":34963},{"buffer":0,"byteLength":12096,"byteOffset":1729056,"byteStride":8,"target":34962},{"buffer":0,"byteLength":6048,"byteOffset":1741152,"byteStride":4,"target":34962},{"buffer":0,"byteLength":5016,"byteOffset":1747200,"target":34963},{"buffer":0,"byteLength":6912,"byteOffset":1752216,"byteStride":8,"target":34962},{"buffer":0,"byteLength":3456,"byteOffset":1759128,"byteStride":4,"target":34962},{"buffer":0,"byteLength":2376,"byteOffset":1762584,"target":34963},{"buffer":0,"byteLength":6456,"byteOffset":1764960,"byteStride":8,"target":34962},{"buffer":0,"byteLength":3228,"byteOffset":1771416,"byteStride":4,"target":34962},{"buffer":0,"byteLength":1614,"byteOffset":1774644,"target":34963},{"buffer":0,"byteLength":59784,"byteOffset":1776260,"byteStride":8,"target":34962},{"buffer":0,"byteLength":29892,"byteOffset":1836044,"byteStride":4,"target":34962},{"buffer":0,"byteLength":14946,"byteOffset":1865936,"target":34963},{"buffer":0,"byteLength":8592,"byteOffset":1880884,"byteStride":8,"target":34962},{"buffer":0,"byteLength":4296,"byteOffset":1889476,"byteStride":4,"target":34962},{"buffer":0,"byteLength":2148,"byteOffset":1893772,"target":34963},{"buffer":0,"byteLength":4608,"byteOffset":1895920,"byteStride":8,"target":34962},{"buffer":0,"byteLength":2304,"byteOffset":1900528,"byteStride":4,"target":34962},{"buffer":0,"byteLength":1152,"byteOffset":1902832,"target":34963},{"buffer":0,"byteLength":19848,"byteOffset":1903984,"byteStride":8,"target":34962},{"buffer":0,"byteLength":9924,"byteOffset":1923832,"byteStride":4,"target":34962},{"buffer":0,"byteLength":4962,"byteOffset":1933756,"target":34963},{"buffer":0,"byteLength":2328,"byteOffset":1938720,"byteStride":8,"target":34962},{"buffer":0,"byteLength":1164,"byteOffset":1941048,"byteStride":4,"target":34962},{"buffer":0,"byteLength":582,"byteOffset":1942212,"target":34963},{"buffer":0,"byteLength":1176,"byteOffset":1942796,"byteStride":8,"target":34962},{"buffer":0,"byteLength":588,"byteOffset":1943972,"byteStride":4,"target":34962},{"buffer":0,"byteLength":294,"byteOffset":1944560,"target":34963},{"buffer":0,"byteLength":3720,"byteOffset":1944856,"byteStride":8,"target":34962},{"buffer":0,"byteLength":1860,"byteOffset":1948576,"byteStride":4,"target":34962},{"buffer":0,"byteLength":930,"byteOffset":1950436,"target":34963},{"buffer":0,"byteLength":408,"byteOffset":1951368,"byteStride":8,"target":34962},{"buffer":0,"byteLength":204,"byteOffset":1951776,"byteStride":4,"target":34962},{"buffer":0,"byteLength":102,"byteOffset":1951980,"target":34963},{"buffer":0,"byteLength":5776,"byteOffset":1952084,"byteStride":4,"target":34962},{"buffer":0,"byteLength":384,"byteOffset":1957860,"byteStride":4,"target":34962},{"buffer":0,"byteLength":8352,"byteOffset":1958244,"byteStride":4,"target":34962},{"buffer":0,"byteLength":6048,"byteOffset":1966596,"byteStride":4,"target":34962},{"buffer":0,"byteLength":4240,"byteOffset":1972644,"byteStride":4,"target":34962},{"buffer":0,"byteLength":4368,"byteOffset":1976884,"byteStride":4,"target":34962},{"buffer":0,"byteLength":240,"byteOffset":1981252,"byteStride":4,"target":34962},{"buffer":0,"byteLength":6396,"byteOffset":1981492,"byteStride":4,"target":34962},{"buffer":0,"byteLength":4320,"byteOffset":1987888,"byteStride":4,"target":34962},{"buffer":0,"byteLength":2820,"byteOffset":1992208,"byteStride":4,"target":34962},{"buffer":0,"byteLength":2172,"byteOffset":1995028,"byteStride":4,"target":34962},{"buffer":0,"byteLength":1872,"byteOffset":1997200,"byteStride":4,"target":34962},{"buffer":0,"byteLength":1236,"byteOffset":1999072,"byteStride":4,"target":34962},{"buffer":0,"byteLength":648,"byteOffset":2000308,"byteStride":4,"target":34962},{"buffer":0,"byteLength":336,"byteOffset":2000956,"byteStride":4,"target":34962},{"buffer":0,"byteLength":90984,"byteOffset":2001292,"byteStride":4,"target":34962},{"buffer":0,"byteLength":3264,"byteOffset":2092276,"byteStride":4,"target":34962},{"buffer":0,"byteLength":2304,"byteOffset":2095540,"byteStride":4,"target":34962},{"buffer":0,"byteLength":4608,"byteOffset":2097844,"byteStride":4,"target":34962},{"buffer":0,"byteLength":4992,"byteOffset":2102452,"byteStride":4,"target":34962},{"buffer":0,"byteLength":16800,"byteOffset":2107444,"byteStride":4,"target":34962},{"buffer":0,"byteLength":384,"byteOffset":2124244,"byteStride":4,"target":34962},{"buffer":0,"byteLength":64740,"byteOffset":2124628,"byteStride":4,"target":34962},{"buffer":0,"byteLength":2064,"byteOffset":2189368,"byteStride":4,"target":34962},{"buffer":0,"byteLength":1344,"byteOffset":2191432,"byteStride":4,"target":34962},{"buffer":0,"byteLength":2880,"byteOffset":2192776,"byteStride":4,"target":34962},{"buffer":0,"byteLength":3552,"byteOffset":2195656,"byteStride":4,"target":34962},{"buffer":0,"byteLength":10740,"byteOffset":2199208,"byteStride":4,"target":34962},{"buffer":0,"byteLength":18828,"byteOffset":2209948,"byteStride":4,"target":34962},{"buffer":0,"byteLength":3072,"byteOffset":2228776,"byteStride":4,"target":34962},{"buffer":0,"byteLength":3156,"byteOffset":2231848,"byteStride":4,"target":34962},{"buffer":0,"byteLength":1656,"byteOffset":2235004,"byteStride":4,"target":34962},{"buffer":0,"byteLength":576,"byteOffset":2236660,"byteStride":4,"target":34962},{"buffer":0,"byteLength":41984,"byteOffset":2237236,"byteStride":4,"target":34962},{"buffer":0,"byteLength":1152,"byteOffset":2279220,"byteStride":4,"target":34962},{"buffer":0,"byteLength":6048,"byteOffset":2280372,"byteStride":4,"target":34962},{"buffer":0,"byteLength":6048,"byteOffset":2286420,"byteStride":4,"target":34962},{"buffer":0,"byteLength":15744,"byteOffset":2292468,"byteStride":4,"target":34962},{"buffer":0,"byteLength":30816,"byteOffset":2308212,"byteStride":4,"target":34962},{"buffer":0,"byteLength":816,"byteOffset":2339028,"byteStride":4,"target":34962},{"buffer":0,"byteLength":4536,"byteOffset":2339844,"byteStride":4,"target":34962},{"buffer":0,"byteLength":4872,"byteOffset":2344380,"byteStride":4,"target":34962},{"buffer":0,"byteLength":9708,"byteOffset":2349252,"byteStride":4,"target":34962},{"buffer":0,"byteLength":10452,"byteOffset":2358960,"byteStride":4,"target":34962},{"buffer":0,"byteLength":1404,"byteOffset":2369412,"byteStride":4,"target":34962},{"buffer":0,"byteLength":3048,"byteOffset":2370816,"byteStride":4,"target":34962},{"buffer":0,"byteLength":2172,"byteOffset":2373864,"byteStride":4,"target":34962},{"buffer":0,"byteLength":528,"byteOffset":2376036,"byteStride":4,"target":34962},{"buffer":0,"byteLength":4032,"byteOffset":2376564,"byteStride":4,"target":34962},{"buffer":0,"byteLength":36384,"byteOffset":2380596,"byteStride":4,"target":34962},{"buffer":0,"byteLength":6048,"byteOffset":2416980,"byteStride":4,"target":34962},{"buffer":0,"byteLength":3456,"byteOffset":2423028,"byteStride":4,"target":34962},{"buffer":0,"byteLength":3228,"byteOffset":2426484,"byteStride":4,"target":34962},{"buffer":0,"byteLength":29892,"byteOffset":2429712,"byteStride":4,"target":34962},{"buffer":0,"byteLength":4296,"byteOffset":2459604,"byteStride":4,"target":34962},{"buffer":0,"byteLength":2304,"byteOffset":2463900,"byteStride":4,"target":34962},{"buffer":0,"byteLength":9924,"byteOffset":2466204,"byteStride":4,"target":34962},{"buffer":0,"byteLength":1164,"byteOffset":2476128,"byteStride":4,"target":34962},{"buffer":0,"byteLength":588,"byteOffset":2477292,"byteStride":4,"target":34962},{"buffer":0,"byteLength":1860,"byteOffset":2477880,"byteStride":4,"target":34962},{"buffer":0,"byteLength":204,"byteOffset":2479740,"byteStride":4,"target":34962}],"buffers":[{"byteLength":2479944,"uri":"tannery.bin"}],"extensionsRequired":["KHR_mesh_quantization","KHR_texture_transform"],"extensionsUsed":["KHR_mesh_quantization","KHR_texture_transform","MSFT_lod"],"extras":{"hm":{"batching":true,"cellSize":16.0,"cells":[{"cullAt":null,"interior":null,"key":"0_0","lodPrims":[5,5,3,2],"lodTris":[3320,1512,440,82],"max":[5.5,1.91,7.842],"min":[-5.5,0.0,-7.5]},{"cullAt":null,"interior":null,"key":"0_n1","lodPrims":[7,6,3,2],"lodTris":[15344,7110,2088,186],"max":[4.978,2.45,3.46],"min":[-2.034,0.085,-6.044]},{"cullAt":null,"interior":null,"key":"n1_0","lodPrims":[5,5,3,2],"lodTris":[9542,4229,1242,225],"max":[0.588,5.978,7.424],"min":[-5.675,0.1,-2.0]},{"cullAt":null,"interior":null,"key":"n1_n1","lodPrims":[4,4,3,2],"lodTris":[6798,3310,973,172],"max":[-0.007,2.45,0.508],"min":[-5.417,0.087,-6.841]}],"instanced":[],"instancing":true,"interiors":[],"lod":true,"lodDistances":[15.0,40.0,100.0],"stats":{"groups":4,"lodPrims":[21,20,12,8],"lodTris":[35004,16161,4743,665]},"venue":"tannery"}},"images":[{"uri":"../textures/mud_albedo.png"},{"uri":"../textures/mud_orm.png"},{"uri":"../textures/mud_normal.png"},{"uri":"../textures/stained_dark_albedo.png"},{"uri":"../textures/stained_dark_orm.png"},{"uri":"../textures/stained_dark_normal.png"},{"uri":"../textures/stained_dark_emissive.png"},{"uri":"../textures/stained_albedo.png"},{"uri":"../textures/stained_orm.png"},{"uri":"../textures/stained_normal.png"},{"uri":"../textures/stained_emissive.png"},{"uri":"../textures/kit_albedo.png"},{"uri":"../textures/kit_orm.png"},{"uri":"../textures/kit_normal.png"},{"uri":"../textures/rubble_albedo.png"},{"uri":"../textures/rubble_orm.png"},{"uri":"../textures/rubble_normal.png"},{"uri":"../textures/limewash_albedo.png"},{"uri":"../textures/limewash_orm.png"},{"uri":"../textures/limewash_normal.png"},{"uri":"../textures/oak_weathered_albedo.png"},{"uri":"../textures/oak_weathered_orm.png"},{"uri":"../textures/oak_weathered_normal.png"},{"uri":"../textures/oak_dark_albedo.png"},{"uri":"../textures/oak_dark_orm.png"},{"uri":"../textures/oak_dark_normal.png"},{"uri":"../textures/terracotta_albedo.png"},{"uri":"../textures/terracotta_orm.png"},{"uri":"../textures/terracotta_normal.png"},{"uri":"../textures/stone_albedo.png"},{"uri":"../textures/stone_orm.png"},{"uri":"../textures/stone_normal.png"},{"uri":"../textures/water_albedo.png"},{"uri":"../textures/water_orm.png"},{"uri":"../textures/water_normal.png"},{"uri":"../textures/foliage_albedo.png"},{"uri":"../textures/foliage_orm.png"},{"uri":"../textures/foliage_normal.png"}],"materials":[{"doubleSided":false,"name":"mud","normalTexture":{"extensions":{"KHR_texture_transform":{"scale":[5.50016775,5.50016775]}},"index":2,"scale":1.0},"occlusionTexture":{"extensions":{"KHR_texture_transform":{"scale":[5.50016775,5.50016775]}},"index":1},"pbrMetallicRoughness":{"baseColorFactor":[1,1,1,1],"baseColorTexture":{"extensions":{"KHR_texture_transform":{"scale":[5.50016775,5.50016775]}},"index":0},"metallicFactor":1.0,"metallicRoughnessTexture":{"extensions":{"KHR_texture_transform":{"scale":[5.50016775,5.50016775]}},"index":1},"roughnessFactor":1.0}},{"doubleSided":true,"emissiveFactor":[1.0,1.0,1.0],"emissiveTexture":{"extensions":{"KHR_texture_transform":{"scale":[5.50016775,5.50016775]}},"index":6},"name":"stained_dark","normalTexture":{"extensions":{"KHR_texture_transform":{"scale":[5.50016775,5.50016775]}},"index":5,"scale":1.0},"occlusionTexture":{"extensions":{"KHR_texture_transform":{"scale":[5.50016775,5.50016775]}},"index":4},"pbrMetallicRoughness":{"baseColorFactor":[1,1,1,1],"baseColorTexture":{"extensions":{"KHR_texture_transform":{"scale":[5.50016775,5.50016775]}},"index":3},"metallicFactor":1.0,"metallicRoughnessTexture":{"extensions":{"KHR_texture_transform":{"scale":[5.50016775,5.50016775]}},"index":4},"roughnessFactor":1.0}},{"doubleSided":true,"emissiveFactor":[1.0,1.0,1.0],"emissiveTexture":{"extensions":{"KHR_texture_transform":{"scale":[5.50016775,5.50016775]}},"index":10},"name":"stained","normalTexture":{"extensions":{"KHR_texture_transform":{"scale":[5.50016775,5.50016775]}},"index":9,"scale":1.0},"occlusionTexture":{"extensions":{"KHR_texture_transform":{"scale":[5.50016775,5.50016775]}},"index":8},"pbrMetallicRoughness":{"baseColorFactor":[1,1,1,1],"baseColorTexture":{"extensions":{"KHR_texture_transform":{"scale":[5.50016775,5.50016775]}},"index":7},"metallicFactor":1.0,"metallicRoughnessTexture":{"extensions":{"KHR_texture_transform":{"scale":[5.50016775,5.50016775]}},"index":8},"roughnessFactor":1.0}},{"doubleSided":true,"name":"kit","normalTexture":{"extensions":{"KHR_texture_transform":{"scale":[5.50016775,5.50016775]}},"index":13,"scale":1.0},"occlusionTexture":{"extensions":{"KHR_texture_transform":{"scale":[5.50016775,5.50016775]}},"index":12},"pbrMetallicRoughness":{"baseColorFactor":[1,1,1,1],"baseColorTexture":{"extensions":{"KHR_texture_transform":{"scale":[5.50016775,5.50016775]}},"index":11},"metallicFactor":1.0,"metallicRoughnessTexture":{"extensions":{"KHR_texture_transform":{"scale":[5.50016775,5.50016775]}},"index":12},"roughnessFactor":1.0}},{"doubleSided":false,"name":"rubble","normalTexture":{"extensions":{"KHR_texture_transform":{"scale":[5.50016775,5.50016775]}},"index":16,"scale":1.0},"occlusionTexture":{"extensions":{"KHR_texture_transform":{"scale":[5.50016775,5.50016775]}},"index":15},"pbrMetallicRoughness":{"baseColorFactor":[1,1,1,1],"baseColorTexture":{"extensions":{"KHR_texture_transform":{"scale":[5.50016775,5.50016775]}},"index":14},"metallicFactor":1.0,"metallicRoughnessTexture":{"extensions":{"KHR_texture_transform":{"scale":[5.50016775,5.50016775]}},"index":15},"roughnessFactor":1.0}},{"doubleSided":false,"name":"limewash","normalTexture":{"extensions":{"KHR_texture_transform":{"scale":[5.50016775,5.50016775]}},"index":19,"scale":1.0},"occlusionTexture":{"extensions":{"KHR_texture_transform":{"scale":[5.50016775,5.50016775]}},"index":18},"pbrMetallicRoughness":{"baseColorFactor":[1,1,1,1],"baseColorTexture":{"extensions":{"KHR_texture_transform":{"scale":[5.50016775,5.50016775]}},"index":17},"metallicFactor":1.0,"metallicRoughnessTexture":{"extensions":{"KHR_texture_transform":{"scale":[5.50016775,5.50016775]}},"index":18},"roughnessFactor":1.0}},{"doubleSided":false,"name":"oak_weathered","normalTexture":{"extensions":{"KHR_texture_transform":{"scale":[5.50016775,5.50016775]}},"index":22,"scale":1.0},"occlusionTexture":{"extensions":{"KHR_texture_transform":{"scale":[5.50016775,5.50016775]}},"index":21},"pbrMetallicRoughness":{"baseColorFactor":[1,1,1,1],"baseColorTexture":{"extensions":{"KHR_texture_transform":{"scale":[5.50016775,5.50016775]}},"index":20},"metallicFactor":1.0,"metallicRoughnessTexture":{"extensions":{"KHR_texture_transform":{"scale":[5.50016775,5.50016775]}},"index":21},"roughnessFactor":1.0}},{"doubleSided":false,"name":"oak_dark","normalTexture":{"extensions":{"KHR_texture_transform":{"scale":[5.50016775,5.50016775]}},"index":25,"scale":1.0},"occlusionTexture":{"extensions":{"KHR_texture_transform":{"scale":[5.50016775,5.50016775]}},"index":24},"pbrMetallicRoughness":{"baseColorFactor":[1,1,1,1],"baseColorTexture":{"extensions":{"KHR_texture_transform":{"scale":[5.50016775,5.50016775]}},"index":23},"metallicFactor":1.0,"metallicRoughnessTexture":{"extensions":{"KHR_texture_transform":{"scale":[5.50016775,5.50016775]}},"index":24},"roughnessFactor":1.0}},{"doubleSided":false,"name":"terracotta","normalTexture":{"extensions":{"KHR_texture_transform":{"scale":[5.50016775,5.50016775]}},"index":28,"scale":1.0},"occlusionTexture":{"extensions":{"KHR_texture_transform":{"scale":[5.50016775,5.50016775]}},"index":27},"pbrMetallicRoughness":{"baseColorFactor":[1,1,1,1],"baseColorTexture":{"extensions":{"KHR_texture_transform":{"scale":[5.50016775,5.50016775]}},"index":26},"metallicFactor":1.0,"metallicRoughnessTexture":{"extensions":{"KHR_texture_transform":{"scale":[5.50016775,5.50016775]}},"index":27},"roughnessFactor":1.0}},{"doubleSided":false,"name":"stone","normalTexture":{"extensions":{"KHR_texture_transform":{"scale":[5.50016775,5.50016775]}},"index":31,"scale":1.0},"occlusionTexture":{"extensions":{"KHR_texture_transform":{"scale":[5.50016775,5.50016775]}},"index":30},"pbrMetallicRoughness":{"baseColorFactor":[1,1,1,1],"baseColorTexture":{"extensions":{"KHR_texture_transform":{"scale":[5.50016775,5.50016775]}},"index":29},"metallicFactor":1.0,"metallicRoughnessTexture":{"extensions":{"KHR_texture_transform":{"scale":[5.50016775,5.50016775]}},"index":30},"roughnessFactor":1.0}},{"alphaMode":"BLEND","doubleSided":false,"name":"water","normalTexture":{"extensions":{"KHR_texture_transform":{"scale":[5.50016775,5.50016775]}},"index":34,"scale":1.0},"occlusionTexture":{"extensions":{"KHR_texture_transform":{"scale":[5.50016775,5.50016775]}},"index":33},"pbrMetallicRoughness":{"baseColorFactor":[1,1,1,1],"baseColorTexture":{"extensions":{"KHR_texture_transform":{"scale":[5.50016775,5.50016775]}},"index":32},"metallicFactor":1.0,"metallicRoughnessTexture":{"extensions":{"KHR_texture_transform":{"scale":[5.50016775,5.50016775]}},"index":33},"roughnessFactor":1.0}},{"doubleSided":true,"name":"foliage","normalTexture":{"extensions":{"KHR_texture_transform":{"scale":[5.50016775,5.50016775]}},"index":37,"scale":1.0},"occlusionTexture":{"extensions":{"KHR_texture_transform":{"scale":[5.50016775,5.50016775]}},"index":36},"pbrMetallicRoughness":{"baseColorFactor":[1,1,1,1],"baseColorTexture":{"extensions":{"KHR_texture_transform":{"scale":[5.50016775,5.50016775]}},"index":35},"metallicFactor":1.0,"metallicRoughnessTexture":{"extensions":{"KHR_texture_transform":{"scale":[5.50016775,5.50016775]}},"index":36},"roughnessFactor":1.0}}],"meshes":[{"name":"tannery#0_0","primitives":[{"attributes":{"NORMAL":1,"POSITION":0,"TEXCOORD_0":187},"indices":2,"material":3},{"attributes":{"NORMAL":4,"POSITION":3,"TEXCOORD_0":188},"indices":5,"material":0},{"attributes":{"NORMAL":7,"POSITION":6,"TEXCOORD_0":189},"indices":8,"material":2},{"attributes":{"NORMAL":10,"POSITION":9,"TEXCOORD_0":190},"indices":11,"material":1},{"attributes":{"NORMAL":13,"POSITION":12,"TEXCOORD_0":191},"indices":14,"material":9}]},{"name":"tannery#0_0$lod1","primitives":[{"attributes":{"NORMAL":16,"POSITION":15,"TEXCOORD_0":192},"indices":17,"material":3},{"attributes":{"NORMAL":19,"POSITION":18,"TEXCOORD_0":193},"indices":20,"material":0},{"attributes":{"NORMAL":22,"POSITION":21,"TEXCOORD_0":194},"indices":23,"material":2},{"attributes":{"NORMAL":25,"POSITION":24,"TEXCOORD_0":195},"indices":26,"material":1},{"attributes":{"NORMAL":28,"POSITION":27,"TEXCOORD_0":196},"indices":29,"material":9}]},{"name":"tannery#0_0$lod2","primitives":[{"attributes":{"NORMAL":31,"POSITION":30,"TEXCOORD_0":197},"indices":32,"material":0},{"attributes":{"NORMAL":34,"POSITION":33,"TEXCOORD_0":198},"indices":35,"material":2},{"attributes":{"NORMAL":37,"POSITION":36,"TEXCOORD_0":199},"indices":38,"material":1}]},{"name":"tannery#0_0$lod3","primitives":[{"attributes":{"NORMAL":40,"POSITION":39,"TEXCOORD_0":200},"indices":41,"material":0},{"attributes":{"NORMAL":43,"POSITION":42,"TEXCOORD_0":201},"indices":44,"material":2}]},{"name":"tannery#0_n1","primitives":[{"attributes":{"NORMAL":46,"POSITION":45,"TEXCOORD_0":202},"indices":47,"material":3},{"attributes":{"NORMAL":49,"POSITION":48,"TEXCOORD_0":203},"indices":50,"material":5},{"attributes":{"NORMAL":52,"POSITION":51,"TEXCOORD_0":204},"indices":53,"material":0},{"attributes":{"NORMAL":55,"POSITION":54,"TEXCOORD_0":205},"indices":56,"material":6},{"attributes":{"NORMAL":58,"POSITION":57,"TEXCOORD_0":206},"indices":59,"material":4},{"attributes":{"NORMAL":61,"POSITION":60,"TEXCOORD_0":207},"indices":62,"material":1},{"attributes":{"NORMAL":64,"POSITION":63,"TEXCOORD_0":208},"indices":65,"material":10}]},{"name":"tannery#0_n1$lod1","primitives":[{"attributes":{"NORMAL":67,"POSITION":66,"TEXCOORD_0":209},"indices":68,"material":3},{"attributes":{"NORMAL":70,"POSITION":69,"TEXCOORD_0":210},"indices":71,"material":5},{"attributes":{"NORMAL":73,"POSITION":72,"TEXCOORD_0":211},"indices":74,"material":0},{"attributes":{"NORMAL":76,"POSITION":75,"TEXCOORD_0":212},"indices":77,"material":6},{"attributes":{"NORMAL":79,"POSITION":78,"TEXCOORD_0":213},"indices":80,"material":4},{"attributes":{"NORMAL":82,"POSITION":81,"TEXCOORD_0":214},"indices":83,"material":1}]},{"name":"tannery#0_n1$lod2","primitives":[{"attributes":{"NORMAL":85,"POSITION":84,"TEXCOORD_0":215},"indices":86,"material":3},{"attributes":{"NORMAL":88,"POSITION":87,"TEXCOORD_0":216},"indices":89,"material":4},{"attributes":{"NORMAL":91,"POSITION":90,"TEXCOORD_0":217},"indices":92,"material":1}]},{"name":"tannery#0_n1$lod3","primitives":[{"attributes":{"NORMAL":94,"POSITION":93,"TEXCOORD_0":218},"indices":95,"material":4},{"attributes":{"NORMAL":97,"POSITION":96,"TEXCOORD_0":219},"indices":98,"material":1}]},{"name":"tannery#n1_0","primitives":[{"attributes":{"NORMAL":100,"POSITION":99,"TEXCOORD_0":220},"indices":101,"material":3},{"attributes":{"NORMAL":103,"POSITION":102,"TEXCOORD_0":221},"indices":104,"material":7},{"attributes":{"NORMAL":106,"POSITION":105,"TEXCOORD_0":222},"indices":107,"material":2},{"attributes":{"NORMAL":109,"POSITION":108,"TEXCOORD_0":223},"indices":110,"material":1},{"attributes":{"COLOR_0":113,"NORMAL":112,"POSITION":111,"TEXCOORD_0":224},"indices":114,"material":8}]},{"name":"tannery#n1_0$lod1","primitives":[{"attributes":{"NORMAL":116,"POSITION":115,"TEXCOORD_0":225},"indices":117,"material":3},{"attributes":{"NORMAL":119,"POSITION":118,"TEXCOORD_0":226},"indices":120,"material":7},{"attributes":{"NORMAL":122,"POSITION":121,"TEXCOORD_0":227},"indices":123,"material":2},{"attributes":{"NORMAL":125,"POSITION":124,"TEXCOORD_0":228},"indices":126,"material":1},{"attributes":{"COLOR_0":129,"NORMAL":128,"POSITION":127,"TEXCOORD_0":229},"indices":130,"material":8}]},{"name":"tannery#n1_0$lod2","primitives":[{"attributes":{"NORMAL":132,"POSITION":131,"TEXCOORD_0":230},"indices":133,"material":3},{"attributes":{"NORMAL":135,"POSITION":134,"TEXCOORD_0":231},"indices":136,"material":1},{"attributes":{"COLOR_0":139,"NORMAL":138,"POSITION":137,"TEXCOORD_0":232},"indices":140,"material":8}]},{"name":"tannery#n1_0$lod3","primitives":[{"attributes":{"NORMAL":142,"POSITION":141,"TEXCOORD_0":233},"indices":143,"material":3},{"attributes":{"COLOR_0":146,"NORMAL":145,"POSITION":144,"TEXCOORD_0":234},"indices":147,"material":8}]},{"name":"tannery#n1_n1","primitives":[{"attributes":{"NORMAL":149,"POSITION":148,"TEXCOORD_0":235},"indices":150,"material":11},{"attributes":{"NORMAL":152,"POSITION":151,"TEXCOORD_0":236},"indices":153,"material":3},{"attributes":{"NORMAL":155,"POSITION":154,"TEXCOORD_0":237},"indices":156,"material":2},{"attributes":{"NORMAL":158,"POSITION":157,"TEXCOORD_0":238},"indices":159,"material":1}]},{"name":"tannery#n1_n1$lod1","primitives":[{"attributes":{"NORMAL":161,"POSITION":160,"TEXCOORD_0":239},"indices":162,"material":11},{"attributes":{"NORMAL":164,"POSITION":163,"TEXCOORD_0":240},"indices":165,"material":3},{"attributes":{"NORMAL":167,"POSITION":166,"TEXCOORD_0":241},"indices":168,"material":2},{"attributes":{"NORMAL":170,"POSITION":169,"TEXCOORD_0":242},"indices":171,"material":1}]},{"name":"tannery#n1_n1$lod2","primitives":[{"attributes":{"NORMAL":173,"POSITION":172,"TEXCOORD_0":243},"indices":174,"material":3},{"attributes":{"NORMAL":176,"POSITION":175,"TEXCOORD_0":244},"indices":177,"material":2},{"attributes":{"NORMAL":179,"POSITION":178,"TEXCOORD_0":245},"indices":180,"material":1}]},{"name":"tannery#n1_n1$lod3","primitives":[{"attributes":{"NORMAL":182,"POSITION":181,"TEXCOORD_0":246},"indices":183,"material":3},{"attributes":{"NORMAL":185,"POSITION":184,"TEXCOORD_0":247},"indices":186,"material":2}]}],"nodes":[{"extensions":{"MSFT_lod":{"ids":[1,2,3]}},"extras":{"MSFT_screencoverage":[1.0,0.45561,0.18225,0.0],"hm":{"cell":"0_0","cullAt":null,"interior":null,"lod":0,"max":[5.5,1.91,7.842],"min":[-5.5,0.0,-7.5],"prims":5,"tris":3320,"venue":"tannery"}},"mesh":0,"name":"tannery#0_0","scale":[5.5,0.9550000429153442,7.6709489822387695],"translation":[0.0,0.9550000429153442,0.17094922065734863]},{"extras":{"hm":{"cell":"0_0","cullAt":null,"interior":null,"lod":1,"max":[5.5,1.91,7.842],"min":[-5.5,0.0,-7.5],"prims":5,"tris":1512,"venue":"tannery"}},"mesh":1,"name":"tannery#0_0$lod1","scale":[5.488333225250244,0.9383333921432495,7.6709489822387695],"translation":[0.0,0.971666693687439,0.17094922065734863]},{"extras":{"hm":{"cell":"0_0","cullAt":null,"interior":null,"lod":2,"max":[5.5,1.91,7.842],"min":[-5.5,0.0,-7.5],"prims":3,"tris":440,"venue":"tannery"}},"mesh":2,"name":"tannery#0_0$lod2","scale":[5.4743332862854,0.9250000715255737,7.657682418823242],"translation":[0.0,0.9850000143051147,0.1833493709564209]},{"extras":{"hm":{"cell":"0_0","cullAt":null,"interior":null,"lod":3,"max":[5.5,1.91,7.842],"min":[-5.5,0.0,-7.5],"prims":2,"tris":82,"venue":"tannery"}},"mesh":3,"name":"tannery#0_0$lod3","scale":[5.4743332862854,0.8837411999702454,7.532374382019043],"translation":[0.0,0.9437411427497864,0.05804133415222168]},{"extensions":{"MSFT_lod":{"ids":[5,6,7]}},"extras":{"MSFT_screencoverage":[0.77132,0.28924,0.1157,0.0],"hm":{"cell":"0_n1","cullAt":null,"interior":null,"lod":0,"max":[4.978,2.45,3.46],"min":[-2.034,0.085,-6.044],"prims":7,"tris":15344,"venue":"tannery"}},"mesh":4,"name":"tannery#0_n1","scale":[3.506291389465332,1.1825302839279175,4.752040863037109],"translation":[1.4720158576965332,1.2674695253372192,-1.2920410633087158]},{"extras":{"hm":{"cell":"0_n1","cullAt":null,"interior":null,"lod":1,"max":[4.978,2.45,3.46],"min":[-2.034,0.085,-6.044],"prims":6,"tris":7110,"venue":"tannery"}},"mesh":5,"name":"tannery#0_n1$lod1","scale":[3.505708694458008,1.1825302839279175,4.74912166595459],"translation":[1.4719146490097046,1.2674695253372192,-1.291621446609497]},{"extras":{"hm":{"cell":"0_n1","cullAt":null,"interior":null,"lod":2,"max":[4.978,2.45,3.46],"min":[-2.034,0.085,-6.044],"prims":3,"tris":2088,"venue":"tannery"}},"mesh":6,"name":"tannery#0_n1$lod2","scale":[3.493468761444092,1.1771035194396973,4.743091583251953],"translation":[1.460169792175293,1.2695279121398926,-1.2855913639068604]},{"extras":{"hm":{"cell":"0_n1","cullAt":null,"interior":null,"lod":3,"max":[4.978,2.45,3.46],"min":[-2.034,0.085,-6.044],"prims":2,"tris":186,"venue":"tannery"}},"mesh":7,"name":"tannery#0_n1$lod3","scale":[3.2642133235931396,1.0624666213989258,4.696094036102295],"translation":[1.3472340106964111,1.1751360893249512,-1.30007803440094]},{"extensions":{"MSFT_lod":{"ids":[9,10,11]}},"extras":{"MSFT_screencoverage":[0.81649,0.30618,0.12247,0.0],"hm":{"cell":"n1_0","cullAt":null,"interior":null,"lod":0,"max":[0.588,5.978,7.424],"min":[-5.675,0.1,-2.0],"prims":5,"tris":9542,"venue":"tannery"}},"mesh":8,"name":"tannery#n1_0","scale":[3.1315746307373047,2.939199924468994,4.711871147155762],"translation":[-2.5433502197265625,3.0391998291015625,2.7118711471557617]},{"extras":{"hm":{"cell":"n1_0","cullAt":null,"interior":null,"lod":1,"max":[0.588,5.978,7.424],"min":[-5.675,0.1,-2.0],"prims":5,"tris":4229,"venue":"tannery"}},"mesh":9,"name":"tannery#n1_0$lod1","scale":[3.130535840988159,2.939199924468994,4.710000038146973],"translation":[-2.542311429977417,3.0391998291015625,2.7100000381469727]},{"extras":{"hm":{"cell":"n1_0","cullAt":null,"interior":null,"lod":2,"max":[0.588,5.978,7.424],"min":[-5.675,0.1,-2.0],"prims":3,"tris":1242,"venue":"tannery"}},"mesh":10,"name":"tannery#n1_0$lod2","scale":[2.7270145416259766,2.939199924468994,4.708544731140137],"translation":[-2.899580955505371,3.0391998291015625,2.7085447311401367]},{"extras":{"hm":{"cell":"n1_0","cullAt":null,"interior":null,"lod":3,"max":[0.588,5.978,7.424],"min":[-5.675,0.1,-2.0],"prims":2,"tris":225,"venue":"tannery"}},"mesh":11,"name":"tannery#n1_0$lod3","scale":[2.5056583881378174,2.8417110443115234,4.454310417175293],"translation":[-2.960388422012329,2.9510445594787598,2.9593660831451416]},{"extensions":{"MSFT_lod":{"ids":[13,14,15]}},"extras":{"MSFT_screencoverage":[0.60358,0.22634,0.09054,0.0],"hm":{"cell":"n1_n1","cullAt":null,"interior":null,"lod":0,"max":[-0.007,2.45,0.508],"min":[-5.417,0.087,-6.841],"prims":4,"tris":6798,"venue":"tannery"}},"mesh":12,"name":"tannery#n1_n1","scale":[2.7049992084503174,1.1813946962356567,3.674301862716675],"translation":[-2.71203351020813,1.26860511302948,-3.166393995285034]},{"extras":{"hm":{"cell":"n1_n1","cullAt":null,"interior":null,"lod":1,"max":[-0.007,2.45,0.508],"min":[-5.417,0.087,-6.841],"prims":4,"tris":3310,"venue":"tannery"}},"mesh":13,"name":"tannery#n1_n1$lod1","scale":[2.704624652862549,1.1813946962356567,3.6727585792541504],"translation":[-2.7116589546203613,1.26860511302948,-3.1672072410583496]},{"extras":{"hm":{"cell":"n1_n1","cullAt":null,"interior":null,"lod":2,"max":[-0.007,2.45,0.508],"min":[-5.417,0.087,-6.841],"prims":3,"tris":973,"venue":"tannery"}},"mesh":14,"name":"tannery#n1_n1$lod2","scale":[2.7027156352996826,1.1739906072616577,3.6720502376556396],"translation":[-2.711482286453247,1.274009346961975,-3.1679155826568604]},{"extras":{"hm":{"cell":"n1_n1","cullAt":null,"interior":null,"lod":3,"max":[-0.007,2.45,0.508],"min":[-5.417,0.087,-6.841],"prims":2,"tris":172,"venue":"tannery"}},"mesh":15,"name":"tannery#n1_n1$lod3","scale":[2.4940381050109863,1.1710041761398315,3.523792028427124],"translation":[-2.913745880126953,1.2747818231582642,-3.163892984390259]}],"samplers":[{"magFilter":9729,"minFilter":9987,"wrapS":10497,"wrapT":10497}],"scene":0,"scenes":[{"nodes":[0,4,8,12]}],"textures":[{"sampler":0,"source":0},{"sampler":0,"source":1},{"sampler":0,"source":2},{"sampler":0,"source":3},{"sampler":0,"source":4},{"sampler":0,"source":5},{"sampler":0,"source":6},{"sampler":0,"source":7},{"sampler":0,"source":8},{"sampler":0,"source":9},{"sampler":0,"source":10},{"sampler":0,"source":11},{"sampler":0,"source":12},{"sampler":0,"source":13},{"sampler":0,"source":14},{"sampler":0,"source":15},{"sampler":0,"source":16},{"sampler":0,"source":17},{"sampler":0,"source":18},{"sampler":0,"source":19},{"sampler":0,"source":20},{"sampler":0,"source":21},{"sampler":0,"source":22},{"sampler":0,"source":23},{"sampler":0,"source":24},{"sampler":0,"source":25},{"sampler":0,"source":26},{"sampler":0,"source":27},{"sampler":0,"source":28},{"sampler":0,"source":29},{"sampler":0,"source":30},{"sampler":0,"source":31},{"sampler":0,"source":32},{"sampler":0,"source":33},{"sampler":0,"source":34},{"sampler":0,"source":35},{"sampler":0,"source":36},{"sampler":0,"source":37}]}