{"accessors":[{"bufferView":0,"componentType":5122,"count":45999,"max":[10353.0,-10957.0,10695.0],"min":[-10809.0,-27599.0,-9898.0],"normalized":true,"type":"VEC3"},{"bufferView":1,"componentType":5120,"count":45999,"normalized":true,"type":"VEC3"},{"bufferView":2,"componentType":5121,"count":45999,"normalized":true,"type":"VEC4"},{"bufferView":3,"componentType":5123,"count":263043,"type":"SCALAR"},{"bufferView":4,"componentType":5122,"count":1392,"max":[13665.0,-23029.0,-2328.0],"min":[-10926.0,-23029.0,-14543.0],"normalized":true,"type":"VEC3"},{"bufferView":5,"componentType":5120,"count":1392,"normalized":true,"type":"VEC3"},{"bufferView":6,"componentType":5123,"count":2088,"type":"SCALAR"},{"bufferView":7,"componentType":5122,"count":46815,"max":[32767.0,32767.0,32767.0],"min":[-32767.0,-28460.0,-32767.0],"normalized":true,"type":"VEC3"},{"bufferView":8,"componentType":5120,"count":46815,"normalized":true,"type":"VEC3"},{"bufferView":9,"componentType":5121,"count":46815,"normalized":true,"type":"VEC4"},{"bufferView":10,"componentType":5123,"count":259710,"type":"SCALAR"},{"bufferView":11,"componentType":5122,"count":886,"max":[20024.0,-6102.0,-2048.0],"min":[-31857.0,-28155.0,-22755.0],"normalized":true,"type":"VEC3"},{"bufferView":12,"componentType":5120,"count":886,"normalized":true,"type":"VEC3"},{"bufferView":13,"componentType":5121,"count":886,"normalized":true,"type":"VEC4"},{"bufferView":14,"componentType":5123,"count":3432,"type":"SCALAR"},{"bufferView":15,"componentType":5122,"count":734,"max":[14336.0,-16651.0,-2275.0],"min":[-12288.0,-27898.0,-12288.0],"normalized":true,"type":"VEC3"},{"bufferView":16,"componentType":5120,"count":734,"normalized":true,"type":"VEC3"},{"bufferView":17,"componentType":5121,"count":734,"normalized":true,"type":"VEC4"},{"bufferView":18,"componentType":5123,"count":2508,"type":"SCALAR"},{"bufferView":19,"componentType":5122,"count":13421,"max":[20934.0,-10238.0,-2389.0],"min":[-32767.0,-32767.0,-22300.0],"normalized":true,"type":"VEC3"},{"bufferView":20,"componentType":5120,"count":13421,"normalized":true,"type":"VEC3"},{"bufferView":21,"componentType":5121,"count":13421,"normalized":true,"type":"VEC4"},{"bufferView":22,"componentType":5123,"count":76107,"type":"SCALAR"},{"bufferView":23,"componentType":5122,"count":49248,"max":[8161.0,-12556.0,5206.0],"min":[-4779.0,-27922.0,-8752.0],"normalized":true,"type":"VEC3"},{"bufferView":24,"componentType":5120,"count":49248,"normalized":true,"type":"VEC3"},{"bufferView":25,"componentType":5123,"count":67764,"type":"SCALAR"},{"bufferView":26,"componentType":5122,"count":18548,"max":[20752.0,-23077.0,-2321.0],"min":[-18978.0,-25099.0,-22254.0],"normalized":true,"type":"VEC3"},{"bufferView":27,"componentType":5120,"count":18548,"normalized":true,"type":"VEC3"},{"bufferView":28,"componentType":5121,"count":18548,"normalized":true,"type":"VEC4"},{"bufferView":29,"componentType":5123,"count":106455,"type":"SCALAR"},{"bufferView":30,"componentType":5122,"count":5695,"max":[12015.0,-23077.0,-8874.0],"min":[-32767.0,-25069.0,-14063.0],"normalized":true,"type":"VEC3"},{"bufferView":31,"componentType":5120,"count":5695,"normalized":true,"type":"VEC3"},{"bufferView":32,"componentType":5121,"count":5695,"normalized":true,"type":"VEC4"},{"bufferView":33,"componentType":5123,"count":31551,"type":"SCALAR"},{"bufferView":34,"componentType":5126,"count":648,"max":[0.3467116057872772,1.7204999923706055,0.3353330194950104],"min":[-0.3054780066013336,-0.0033862057607620955,-0.2610534131526947],"type":"VEC3"},{"bufferView":35,"componentType":5120,"count":648,"normalized":true,"type":"VEC3"},{"bufferView":36,"componentType":5123,"count":972,"type":"SCALAR"},{"bufferView":37,"componentType":5126,"count":144,"max":[10.179701805114746,-2.8093225955963135,-110.95329284667969],"min":[-63.79314041137695,-3.249445676803589,-146.89053344726562],"type":"VEC3"},{"bufferView":38,"componentType":5126,"count":144,"type":"VEC4"},{"bufferView":39,"componentType":5126,"count":144,"type":"VEC3"},{"bufferView":40,"componentType":5126,"count":216,"max":[0.19022376835346222,0.5404083132743835,0.24888178706169128],"min":[-0.1703941524028778,-0.0011556404642760754,-0.2520635724067688],"type":"VEC3"},{"bufferView":41,"componentType":5120,"count":216,"normalized":true,"type":"VEC3"},{"bufferView":42,"componentType":5123,"count":324,"type":"SCALAR"},{"bufferView":43,"componentType":5126,"count":67,"max":[8.464548110961914,-2.860105276107788,-111.46905517578125],"min":[-63.982723236083984,-3.2020487785339355,-145.39450073242188],"type":"VEC3"},{"bufferView":44,"componentType":5126,"count":67,"type":"VEC4"},{"bufferView":45,"componentType":5126,"count":67,"type":"VEC3"},{"bufferView":46,"componentType":5126,"count":128,"max":[0.11044265329837799,0.09536871314048767,0.08416281640529633],"min":[-0.11044265329837799,-0.027044709771871567,-0.08416281640529633],"type":"VEC3"},{"bufferView":47,"componentType":5120,"count":128,"normalized":true,"type":"VEC3"},{"bufferView":48,"componentType":5123,"count":192,"type":"SCALAR"},{"bufferView":49,"componentType":5126,"count":340,"max":[143.55828857421875,-2.024242639541626,-20.76014518737793],"min":[-113.44662475585938,-2.834319829940796,-148.89517211914062],"type":"VEC3"},{"bufferView":50,"componentType":5126,"count":340,"type":"VEC4"},{"bufferView":51,"componentType":5126,"count":340,"type":"VEC3"},{"bufferView":52,"componentType":5126,"count":128,"max":[0.043025873601436615,0.03867318481206894,0.038474999368190765],"min":[-0.043025873601436615,-0.00810718722641468,-0.038474999368190765],"type":"VEC3"},{"bufferView":53,"componentType":5120,"count":128,"normalized":true,"type":"VEC3"},{"bufferView":54,"componentType":5123,"count":192,"type":"SCALAR"},{"bufferView":55,"componentType":5126,"count":654,"max":[144.13804626464844,-2.83697772026062,-20.967378616333008],"min":[-124.21192169189453,-3.5680484771728516,-147.6741943359375],"type":"VEC3"},{"bufferView":56,"componentType":5126,"count":654,"type":"VEC4"},{"bufferView":57,"componentType":5126,"count":654,"type":"VEC3"},{"bufferView":58,"componentType":5122,"count":45999,"normalized":true,"type":"VEC2"},{"bufferView":59,"componentType":5122,"count":1392,"normalized":true,"type":"VEC2"},{"bufferView":60,"componentType":5122,"count":46815,"normalized":true,"type":"VEC2"},{"bufferView":61,"componentType":5122,"count":886,"normalized":true,"type":"VEC2"},{"bufferView":62,"componentType":5122,"count":734,"normalized":true,"type":"VEC2"},{"bufferView":63,"componentType":5122,"count":13421,"normalized":true,"type":"VEC2"},{"bufferView":64,"componentType":5122,"count":49248,"normalized":true,"type":"VEC2"},{"bufferView":65,"componentType":5122,"count":18548,"normalized":true,"type":"VEC2"},{"bufferView":66,"componentType":5122,"count":5695,"normalized":true,"type":"VEC2"},{"bufferView":67,"componentType":5122,"count":648,"normalized":true,"type":"VEC2"},{"bufferView":68,"componentType":5122,"count":216,"normalized":true,"type":"VEC2"},{"bufferView":69,"componentType":5122,"count":128,"normalized":true,"type":"VEC2"},{"bufferView":70,"componentType":5122,"count":128,"normalized":true,"type":"VEC2"}],"asset":{"generator":"evermore assetgen","version":"2.0"},"bufferViews":[{"buffer":0,"byteLength":367992,"byteOffset":0,"byteStride":8,"target":34962},{"buffer":0,"byteLength":183996,"byteOffset":367992,"byteStride":4,"target":34962},{"buffer":0,"byteLength":183996,"byteOffset":551988,"byteStride":4,"target":34962},{"buffer":0,"byteLength":526086,"byteOffset":735984,"target":34963},{"buffer":0,"byteLength":11136,"byteOffset":1262072,"byteStride":8,"target":34962},{"buffer":0,"byteLength":5568,"byteOffset":1273208,"byteStride":4,"target":34962},{"buffer":0,"byteLength":4176,"byteOffset":1278776,"target":34963},{"buffer":0,"byteLength":374520,"byteOffset":1282952,"byteStride":8,"target":34962},{"buffer":0,"byteLength":187260,"byteOffset":1657472,"byteStride":4,"target":34962},{"buffer":0,"byteLength":187260,"byteOffset":1844732,"byteStride":4,"target":34962},{"buffer":0,"byteLength":519420,"byteOffset":2031992,"target":34963},{"buffer":0,"byteLength":7088,"byteOffset":2551412,"byteStride":8,"target":34962},{"buffer":0,"byteLength":3544,"byteOffset":2558500,"byteStride":4,"target":34962},{"buffer":0,"byteLength":3544,"byteOffset":2562044,"byteStride":4,"target":34962},{"buffer":0,"byteLength":6864,"byteOffset":2565588,"target":34963},{"buffer":0,"byteLength":5872,"byteOffset":2572452,"byteStride":8,"target":34962},{"buffer":0,"byteLength":2936,"byteOffset":2578324,"byteStride":4,"target":34962},{"buffer":0,"byteLength":2936,"byteOffset":2581260,"byteStride":4,"target":34962},{"buffer":0,"byteLength":5016,"byteOffset":2584196,"target":34963},{"buffer":0,"byteLength":107368,"byteOffset":2589212,"byteStride":8,"target":34962},{"buffer":0,"byteLength":53684,"byteOffset":2696580,"byteStride":4,"target":34962},{"buffer":0,"byteLength":53684,"byteOffset":2750264,"byteStride":4,"target":34962},{"buffer":0,"byteLength":152214,"byteOffset":2803948,"target":34963},{"buffer":0,"byteLength":393984,"byteOffset":2956164,"byteStride":8,"target":34962},{"buffer":0,"byteLength":196992,"byteOffset":3350148,"byteStride":4,"target":34962},{"buffer":0,"byteLength":135528,"byteOffset":3547140,"target":34963},{"buffer":0,"byteLength":148384,"byteOffset":3682668,"byteStride":8,"target":34962},{"buffer":0,"byteLength":74192,"byteOffset":3831052,"byteStride":4,"target":34962},{"buffer":0,"byteLength":74192,"byteOffset":3905244,"byteStride":4,"target":34962},{"buffer":0,"byteLength":212910,"byteOffset":3979436,"target":34963},{"buffer":0,"byteLength":45560,"byteOffset":4192348,"byteStride":8,"target":34962},{"buffer":0,"byteLength":22780,"byteOffset":4237908,"byteStride":4,"target":34962},{"buffer":0,"byteLength":22780,"byteOffset":4260688,"byteStride":4,"target":34962},{"buffer":0,"byteLength":63102,"byteOffset":4283468,"target":34963},{"buffer":0,"byteLength":7776,"byteOffset":4346572,"target":34962},{"buffer":0,"byteLength":2592,"byteOffset":4354348,"byteStride":4,"target":34962},{"buffer":0,"byteLength":1944,"byteOffset":4356940,"target":34963},{"buffer":0,"byteLength":1728,"byteOffset":4358884},{"buffer":0,"byteLength":2304,"byteOffset":4360612},{"buffer":0,"byteLength":1728,"byteOffset":4362916},{"buffer":0,"byteLength":2592,"byteOffset":4364644,"target":34962},{"buffer":0,"byteLength":864,"byteOffset":4367236,"byteStride":4,"target":34962},{"buffer":0,"byteLength":648,"byteOffset":4368100,"target":34963},{"buffer":0,"byteLength":804,"byteOffset":4368748},{"buffer":0,"byteLength":1072,"byteOffset":4369552},{"buffer":0,"byteLength":804,"byteOffset":4370624},{"buffer":0,"byteLength":1536,"byteOffset":4371428,"target":34962},{"buffer":0,"byteLength":512,"byteOffset":4372964,"byteStride":4,"target":34962},{"buffer":0,"byteLength":384,"byteOffset":4373476,"target":34963},{"buffer":0,"byteLength":4080,"byteOffset":4373860},{"buffer":0,"byteLength":5440,"byteOffset":4377940},{"buffer":0,"byteLength":4080,"byteOffset":4383380},{"buffer":0,"byteLength":1536,"byteOffset":4387460,"target":34962},{"buffer":0,"byteLength":512,"byteOffset":4388996,"byteStride":4,"target":34962},{"buffer":0,"byteLength":384,"byteOffset":4389508,"target":34963},{"buffer":0,"byteLength":7848,"byteOffset":4389892},{"buffer":0,"byteLength":10464,"byteOffset":4397740},{"buffer":0,"byteLength":7848,"byteOffset":4408204},{"buffer":0,"byteLength":183996,"byteOffset":4416052,"byteStride":4,"target":34962},{"buffer":0,"byteLength":5568,"byteOffset":4600048,"byteStride":4,"target":34962},{"buffer":0,"byteLength":187260,"byteOffset":4605616,"byteStride":4,"target":34962},{"buffer":0,"byteLength":3544,"byteOffset":4792876,"byteStride":4,"target":34962},{"buffer":0,"byteLength":2936,"byteOffset":4796420,"byteStride":4,"target":34962},{"buffer":0,"byteLength":53684,"byteOffset":4799356,"byteStride":4,"target":34962},{"buffer":0,"byteLength":196992,"byteOffset":4853040,"byteStride":4,"target":34962},{"buffer":0,"byteLength":74192,"byteOffset":5050032,"byteStride":4,"target":34962},{"buffer":0,"byteLength":22780,"byteOffset":5124224,"byteStride":4,"target":34962},{"buffer":0,"byteLength":2592,"byteOffset":5147004,"byteStride":4,"target":34962},{"buffer":0,"byteLength":864,"byteOffset":5149596,"byteStride":4,"target":34962},{"buffer":0,"byteLength":512,"byteOffset":5150460,"byteStride":4,"target":34962},{"buffer":0,"byteLength":512,"byteOffset":5150972,"byteStride":4,"target":34962}],"buffers":[{"byteLength":5151484,"uri":"terrain.bin"}],"extensionsRequired":["KHR_mesh_quantization","KHR_texture_transform"],"extensionsUsed":["EXT_mesh_gpu_instancing","KHR_mesh_quantization","KHR_texture_transform"],"extras":{"hm":{"batching":false,"cellSize":16.0,"cells":[{"cullAt":null,"interior":null,"key":"all","lodPrims":[9],"lodTris":[270886],"max":[288.0,22.833,288.0],"min":[-288.0,-7.6,-288.0]}],"instanced":[{"cell":"all","count":144,"cullAt":null,"lodPrims":[1],"lodTris":[46656],"max":[10.681,-0.324,-110.469],"meshId":"mere_reed","min":[-63.964,-3.251,-147.037]},{"cell":"all","count":67,"cullAt":null,"lodPrims":[1],"lodTris":[7236],"max":[8.739,-2.081,-111.11],"meshId":"mere_sedge","min":[-64.078,-3.203,-145.535]},{"cell":"all","count":340,"cullAt":null,"lodPrims":[1],"lodTris":[21760],"max":[143.764,-1.846,-20.603],"meshId":"shore_cobble","min":[-113.513,-2.851,-148.946]},{"cell":"all","count":654,"cullAt":null,"lodPrims":[1],"lodTris":[41856],"max":[144.19,-2.79,-20.921],"meshId":"shore_shingle","min":[-124.227,-3.571,-147.687]}],"instancing":true,"interiors":[],"lod":false,"lodDistances":[15.0,40.0,100.0],"stats":{"groups":5,"lodPrims":[13,13,13,13],"lodTris":[388394,388394,388394,388394]},"venue":"terrain"}},"images":[{"uri":"../textures/riverbed_albedo.png"},{"uri":"../textures/riverbed_orm.png"},{"uri":"../textures/riverbed_normal.png"},{"uri":"../textures/mud_albedo.png"},{"uri":"../textures/mud_orm.png"},{"uri":"../textures/mud_normal.png"},{"uri":"../textures/gravel_albedo.png"},{"uri":"../textures/gravel_orm.png"},{"uri":"../textures/gravel_normal.png"},{"uri":"../textures/earth_albedo.png"},{"uri":"../textures/earth_orm.png"},{"uri":"../textures/earth_normal.png"},{"uri":"../textures/grass_albedo.png"},{"uri":"../textures/grass_orm.png"},{"uri":"../textures/grass_normal.png"},{"uri":"../textures/water_albedo.png"},{"uri":"../textures/water_orm.png"},{"uri":"../textures/water_normal.png"},{"uri":"../textures/water_flow_albedo.png"},{"uri":"../textures/water_flow_orm.png"},{"uri":"../textures/water_flow_normal.png"},{"uri":"../textures/foam_albedo.png"},{"uri":"../textures/foam_orm.png"},{"uri":"../textures/foam_normal.png"},{"uri":"../textures/kit_albedo.png"},{"uri":"../textures/kit_orm.png"},{"uri":"../textures/kit_normal.png"},{"uri":"../textures/stone_albedo.png"},{"uri":"../textures/stone_orm.png"},{"uri":"../textures/stone_normal.png"}],"materials":[{"doubleSided":false,"name":"riverbed","normalTexture":{"extensions":{"KHR_texture_transform":{"scale":[176.92489067349243,176.92489067349243]}},"index":2,"scale":1.0},"occlusionTexture":{"extensions":{"KHR_texture_transform":{"scale":[176.92489067349243,176.92489067349243]}},"index":1},"pbrMetallicRoughness":{"baseColorFactor":[1,1,1,1],"baseColorTexture":{"extensions":{"KHR_texture_transform":{"scale":[176.92489067349243,176.92489067349243]}},"index":0},"metallicFactor":1.0,"metallicRoughnessTexture":{"extensions":{"KHR_texture_transform":{"scale":[176.92489067349243,176.92489067349243]}},"index":1},"roughnessFactor":1.0}},{"doubleSided":false,"name":"mud","normalTexture":{"extensions":{"KHR_texture_transform":{"scale":[176.92489067349243,176.92489067349243]}},"index":5,"scale":1.0},"occlusionTexture":{"extensions":{"KHR_texture_transform":{"scale":[176.92489067349243,176.92489067349243]}},"index":4},"pbrMetallicRoughness":{"baseColorFactor":[1,1,1,1],"baseColorTexture":{"extensions":{"KHR_texture_transform":{"scale":[176.92489067349243,176.92489067349243]}},"index":3},"metallicFactor":1.0,"metallicRoughnessTexture":{"extensions":{"KHR_texture_transform":{"scale":[176.92489067349243,176.92489067349243]}},"index":4},"roughnessFactor":1.0}},{"doubleSided":false,"name":"gravel","normalTexture":{"extensions":{"KHR_texture_transform":{"scale":[176.92489067349243,176.92489067349243]}},"index":8,"scale":1.0},"occlusionTexture":{"extensions":{"KHR_texture_transform":{"scale":[176.92489067349243,176.92489067349243]}},"index":7},"pbrMetallicRoughness":{"baseColorFactor":[1,1,1,1],"baseColorTexture":{"extensions":{"KHR_texture_transform":{"scale":[176.92489067349243,176.92489067349243]}},"index":6},"metallicFactor":1.0,"metallicRoughnessTexture":{"extensions":{"KHR_texture_transform":{"scale":[176.92489067349243,176.92489067349243]}},"index":7},"roughnessFactor":1.0}},{"doubleSided":false,"name":"earth","normalTexture":{"extensions":{"KHR_texture_transform":{"scale":[176.92489067349243,176.92489067349243]}},"index":11,"scale":1.0},"occlusionTexture":{"extensions":{"KHR_texture_transform":{"scale":[176.92489067349243,176.92489067349243]}},"index":10},"pbrMetallicRoughness":{"baseColorFactor":[1,1,1,1],"baseColorTexture":{"extensions":{"KHR_texture_transform":{"scale":[176.92489067349243,176.92489067349243]}},"index":9},"metallicFactor":1.0,"metallicRoughnessTexture":{"extensions":{"KHR_texture_transform":{"scale":[176.92489067349243,176.92489067349243]}},"index":10},"roughnessFactor":1.0}},{"doubleSided":false,"name":"grass","normalTexture":{"extensions":{"KHR_texture_transform":{"scale":[176.92489067349243,176.92489067349243]}},"index":14,"scale":1.0},"occlusionTexture":{"extensions":{"KHR_texture_transform":{"scale":[176.92489067349243,176.92489067349243]}},"index":13},"pbrMetallicRoughness":{"baseColorFactor":[1,1,1,1],"baseColorTexture":{"extensions":{"KHR_texture_transform":{"scale":[176.92489067349243,176.92489067349243]}},"index":12},"metallicFactor":1.0,"metallicRoughnessTexture":{"extensions":{"KHR_texture_transform":{"scale":[176.92489067349243,176.92489067349243]}},"index":13},"roughnessFactor":1.0}},{"alphaMode":"BLEND","doubleSided":false,"name":"water","normalTexture":{"extensions":{"KHR_texture_transform":{"scale":[176.92489067349243,176.92489067349243]}},"index":17,"scale":1.0},"occlusionTexture":{"extensions":{"KHR_texture_transform":{"scale":[176.92489067349243,176.92489067349243]}},"index":16},"pbrMetallicRoughness":{"baseColorFactor":[1,1,1,1],"baseColorTexture":{"extensions":{"KHR_texture_transform":{"scale":[176.92489067349243,176.92489067349243]}},"index":15},"metallicFactor":1.0,"metallicRoughnessTexture":{"extensions":{"KHR_texture_transform":{"scale":[176.92489067349243,176.92489067349243]}},"index":16},"roughnessFactor":1.0}},{"alphaMode":"BLEND","doubleSided":false,"name":"water_flow","normalTexture":{"extensions":{"KHR_texture_transform":{"scale":[176.92489067349243,176.92489067349243]}},"index":20,"scale":1.0},"occlusionTexture":{"extensions":{"KHR_texture_transform":{"scale":[176.92489067349243,176.92489067349243]}},"index":19},"pbrMetallicRoughness":{"baseColorFactor":[1,1,1,1],"baseColorTexture":{"extensions":{"KHR_texture_transform":{"scale":[176.92489067349243,176.92489067349243]}},"index":18},"metallicFactor":1.0,"metallicRoughnessTexture":{"extensions":{"KHR_texture_transform":{"scale":[176.92489067349243,176.92489067349243]}},"index":19},"roughnessFactor":1.0}},{"alphaCutoff":0.5,"alphaMode":"MASK","doubleSided":true,"name":"foam","normalTexture":{"extensions":{"KHR_texture_transform":{"scale":[176.92489067349243,176.92489067349243]}},"index":23,"scale":1.0},"occlusionTexture":{"extensions":{"KHR_texture_transform":{"scale":[176.92489067349243,176.92489067349243]}},"index":22},"pbrMetallicRoughness":{"baseColorFactor":[1,1,1,1],"baseColorTexture":{"extensions":{"KHR_texture_transform":{"scale":[176.92489067349243,176.92489067349243]}},"index":21},"metallicFactor":1.0,"metallicRoughnessTexture":{"extensions":{"KHR_texture_transform":{"scale":[176.92489067349243,176.92489067349243]}},"index":22},"roughnessFactor":1.0}},{"doubleSided":true,"name":"kit","normalTexture":{"extensions":{"KHR_texture_transform":{"scale":[176.92489067349243,176.92489067349243]}},"index":26,"scale":1.0},"occlusionTexture":{"extensions":{"KHR_texture_transform":{"scale":[176.92489067349243,176.92489067349243]}},"index":25},"pbrMetallicRoughness":{"baseColorFactor":[1,1,1,1],"baseColorTexture":{"extensions":{"KHR_texture_transform":{"scale":[176.92489067349243,176.92489067349243]}},"index":24},"metallicFactor":1.0,"metallicRoughnessTexture":{"extensions":{"KHR_texture_transform":{"scale":[176.92489067349243,176.92489067349243]}},"index":25},"roughnessFactor":1.0}},{"doubleSided":false,"name":"stone","normalTexture":{"extensions":{"KHR_texture_transform":{"scale":[176.92489067349243,176.92489067349243]}},"index":29,"scale":1.0},"occlusionTexture":{"extensions":{"KHR_texture_transform":{"scale":[176.92489067349243,176.92489067349243]}},"index":28},"pbrMetallicRoughness":{"baseColorFactor":[1,1,1,1],"baseColorTexture":{"extensions":{"KHR_texture_transform":{"scale":[176.92489067349243,176.92489067349243]}},"index":27},"metallicFactor":1.0,"metallicRoughnessTexture":{"extensions":{"KHR_texture_transform":{"scale":[176.92489067349243,176.92489067349243]}},"index":28},"roughnessFactor":1.0}}],"meshes":[{"name":"terrain#all","primitives":[{"attributes":{"COLOR_0":2,"NORMAL":1,"POSITION":0,"TEXCOORD_0":58},"indices":3,"material":3},{"attributes":{"NORMAL":5,"POSITION":4,"TEXCOORD_0":59},"indices":6,"material":7},{"attributes":{"COLOR_0":9,"NORMAL":8,"POSITION":7,"TEXCOORD_0":60},"indices":10,"material":4},{"attributes":{"COLOR_0":13,"NORMAL":12,"POSITION":11,"TEXCOORD_0":61},"indices":14,"material":2},{"attributes":{"COLOR_0":17,"NORMAL":16,"POSITION":15,"TEXCOORD_0":62},"indices":18,"material":1},{"attributes":{"COLOR_0":21,"NORMAL":20,"POSITION":19,"TEXCOORD_0":63},"indices":22,"material":0},{"attributes":{"NORMAL":24,"POSITION":23,"TEXCOORD_0":64},"indices":25,"material":9},{"attributes":{"COLOR_0":28,"NORMAL":27,"POSITION":26,"TEXCOORD_0":65},"indices":29,"material":5},{"attributes":{"COLOR_0":32,"NORMAL":31,"POSITION":30,"TEXCOORD_0":66},"indices":33,"material":6}]},{"name":"terrain:mere_reed","primitives":[{"attributes":{"NORMAL":35,"POSITION":34,"TEXCOORD_0":67},"indices":36,"material":8}]},{"name":"terrain:mere_sedge","primitives":[{"attributes":{"NORMAL":41,"POSITION":40,"TEXCOORD_0":68},"indices":42,"material":8}]},{"name":"terrain:shore_cobble","primitives":[{"attributes":{"NORMAL":47,"POSITION":46,"TEXCOORD_0":69},"indices":48,"material":2}]},{"name":"terrain:shore_shingle","primitives":[{"attributes":{"NORMAL":53,"POSITION":52,"TEXCOORD_0":70},"indices":54,"material":2}]}],"nodes":[{"extras":{"hm":{"cell":"all","cullAt":null,"interior":null,"lod":0,"max":[288.0,22.833,288.0],"min":[-288.0,-7.6,-288.0],"prims":9,"tris":270886,"venue":"terrain"}},"mesh":0,"name":"terrain#all","scale":[288.0,15.216647148132324,288.0],"translation":[0.0,7.616646766662598,0.0]},{"extensions":{"EXT_mesh_gpu_instancing":{"attributes":{"ROTATION":38,"SCALE":39,"TRANSLATION":37}}},"extras":{"hm":{"cell":"all","cullAt":null,"instances":144,"interior":null,"lod":0,"max":[10.681,-0.324,-110.469],"meshId":"mere_reed","min":[-63.964,-3.251,-147.037],"prims":1,"tris":46656,"venue":"terrain"}},"mesh":1,"name":"terrain#all@mere_reed"},{"extensions":{"EXT_mesh_gpu_instancing":{"attributes":{"ROTATION":44,"SCALE":45,"TRANSLATION":43}}},"extras":{"hm":{"cell":"all","cullAt":null,"instances":67,"interior":null,"lod":0,"max":[8.739,-2.081,-111.11],"meshId":"mere_sedge","min":[-64.078,-3.203,-145.535],"prims":1,"tris":7236,"venue":"terrain"}},"mesh":2,"name":"terrain#all@mere_sedge"},{"extensions":{"EXT_mesh_gpu_instancing":{"attributes":{"ROTATION":50,"SCALE":51,"TRANSLATION":49}}},"extras":{"hm":{"cell":"all","cullAt":null,"instances":340,"interior":null,"lod":0,"max":[143.764,-1.846,-20.603],"meshId":"shore_cobble","min":[-113.513,-2.851,-148.946],"prims":1,"tris":21760,"venue":"terrain"}},"mesh":3,"name":"terrain#all@shore_cobble"},{"extensions":{"EXT_mesh_gpu_instancing":{"attributes":{"ROTATION":56,"SCALE":57,"TRANSLATION":55}}},"extras":{"hm":{"cell":"all","cullAt":null,"instances":654,"interior":null,"lod":0,"max":[144.19,-2.79,-20.921],"meshId":"shore_shingle","min":[-124.227,-3.571,-147.687],"prims":1,"tris":41856,"venue":"terrain"}},"mesh":4,"name":"terrain#all@shore_shingle"}],"samplers":[{"magFilter":9729,"minFilter":9987,"wrapS":10497,"wrapT":10497}],"scene":0,"scenes":[{"nodes":[0,1,2,3,4]}],"textures":[{"sampler":0,"source":0},{"sampler":0,"source":1},{"sampler":0,"source":2},{"sampler":0,"source":3},{"sampler":0,"source":4},{"sampler":0,"source":5},{"sampler":0,"source":6},{"sampler":0,"source":7},{"sampler":0,"source":8},{"sampler":0,"source":9},{"sampler":0,"source":10},{"sampler":0,"source":11},{"sampler":0,"source":12},{"sampler":0,"source":13},{"sampler":0,"source":14},{"sampler":0,"source":15},{"sampler":0,"source":16},{"sampler":0,"source":17},{"sampler":0,"source":18},{"sampler":0,"source":19},{"sampler":0,"source":20},{"sampler":0,"source":21},{"sampler":0,"source":22},{"sampler":0,"source":23},{"sampler":0,"source":24},{"sampler":0,"source":25},{"sampler":0,"source":26},{"sampler":0,"source":27},{"sampler":0,"source":28},{"sampler":0,"source":29}]}