{"accessors":[{"bufferView":0,"componentType":5126,"count":1152,"max":[-3.189678907394409,1.383462905883789,-5.970920085906982],"min":[-3.725942611694336,-0.03566625714302063,-6.431618690490723],"type":"VEC3"},{"bufferView":1,"componentType":5126,"count":1152,"type":"VEC3"},{"bufferView":2,"componentType":5126,"count":1152,"type":"VEC2"},{"bufferView":3,"componentType":5125,"count":1860,"type":"SCALAR"},{"bufferView":4,"componentType":5126,"count":968,"max":[-3.1574454307556152,1.6010700464248657,-6.038349628448486],"min":[-3.9887468814849854,0.6913087964057922,-6.427672386169434],"type":"VEC3"},{"bufferView":5,"componentType":5126,"count":968,"type":"VEC3"},{"bufferView":6,"componentType":5126,"count":968,"type":"VEC2"},{"bufferView":7,"componentType":5125,"count":1500,"type":"SCALAR"},{"bufferView":8,"componentType":5126,"count":256,"max":[-3.2848315238952637,1.6076991558074951,-6.0864949226379395],"min":[-3.5263326168060303,1.375680923461914,-6.320655822753906],"type":"VEC3"},{"bufferView":9,"componentType":5126,"count":256,"type":"VEC3"},{"bufferView":10,"componentType":5126,"count":256,"type":"VEC2"},{"bufferView":11,"componentType":5125,"count":384,"type":"SCALAR"},{"bufferView":12,"componentType":5126,"count":192,"max":[-3.1536731719970703,0.07157499343156815,-6.013253211975098],"min":[-3.5252087116241455,-0.0004803687334060669,-6.299918174743652],"type":"VEC3"},{"bufferView":13,"componentType":5126,"count":192,"type":"VEC3"},{"bufferView":14,"componentType":5126,"count":192,"type":"VEC2"},{"bufferView":15,"componentType":5125,"count":264,"type":"SCALAR"},{"bufferView":16,"componentType":5126,"count":1026,"max":[-2.11147403717041,1.4502910375595093,-5.342626094818115],"min":[-2.4865450859069824,-0.03371623158454895,-5.857966423034668],"type":"VEC3"},{"bufferView":17,"componentType":5126,"count":1026,"type":"VEC3"},{"bufferView":18,"componentType":5126,"count":1026,"type":"VEC2"},{"bufferView":19,"componentType":5125,"count":1656,"type":"SCALAR"},{"bufferView":20,"componentType":5126,"count":1094,"max":[-2.094668388366699,1.6784096956253052,-5.332372665405273],"min":[-2.511334180831909,-0.03749185800552368,-5.8733744621276855],"type":"VEC3"},{"bufferView":21,"componentType":5126,"count":1094,"type":"VEC3"},{"bufferView":22,"componentType":5126,"count":1094,"type":"VEC2"},{"bufferView":23,"componentType":5125,"count":1704,"type":"SCALAR"},{"bufferView":24,"componentType":5126,"count":256,"max":[-2.1654484272003174,1.685359001159668,-5.473180294036865],"min":[-2.4222054481506348,1.4421330690383911,-5.720436096191406],"type":"VEC3"},{"bufferView":25,"componentType":5126,"count":256,"type":"VEC3"},{"bufferView":26,"componentType":5126,"count":256,"type":"VEC2"},{"bufferView":27,"componentType":5125,"count":384,"type":"SCALAR"},{"bufferView":28,"componentType":5126,"count":192,"max":[-2.1794118881225586,0.07503241300582886,-5.4743828773498535],"min":[-2.537574291229248,-0.0005035735666751862,-5.797567367553711],"type":"VEC3"},{"bufferView":29,"componentType":5126,"count":192,"type":"VEC3"},{"bufferView":30,"componentType":5126,"count":192,"type":"VEC2"},{"bufferView":31,"componentType":5125,"count":264,"type":"SCALAR"},{"bufferView":32,"componentType":5126,"count":1026,"max":[4.933724403381348,1.4546738862991333,-6.876266956329346],"min":[4.303666114807129,-0.04047705978155136,-7.434242248535156],"type":"VEC3"},{"bufferView":33,"componentType":5126,"count":1026,"type":"VEC3"},{"bufferView":34,"componentType":5126,"count":1026,"type":"VEC2"},{"bufferView":35,"componentType":5125,"count":1656,"type":"SCALAR"},{"bufferView":36,"componentType":5126,"count":1094,"max":[4.811351299285889,1.6656112670898438,-6.543257236480713],"min":[4.171786308288574,-0.046496305614709854,-7.394746780395508],"type":"VEC3"},{"bufferView":37,"componentType":5126,"count":1094,"type":"VEC3"},{"bufferView":38,"componentType":5126,"count":1094,"type":"VEC2"},{"bufferView":39,"componentType":5125,"count":1704,"type":"SCALAR"},{"bufferView":40,"componentType":5126,"count":256,"max":[4.8167572021484375,1.6734092235565186,-7.147488594055176],"min":[4.569921493530273,1.4320379495620728,-7.402290344238281],"type":"VEC3"},{"bufferView":41,"componentType":5126,"count":256,"type":"VEC3"},{"bufferView":42,"componentType":5126,"count":256,"type":"VEC2"},{"bufferView":43,"componentType":5125,"count":384,"type":"SCALAR"},{"bufferView":44,"componentType":5126,"count":192,"max":[4.825850963592529,0.08608963340520859,-7.02691650390625],"min":[4.43735408782959,-0.02495056763291359,-7.271618843078613],"type":"VEC3"},{"bufferView":45,"componentType":5126,"count":192,"type":"VEC3"},{"bufferView":46,"componentType":5126,"count":192,"type":"VEC2"},{"bufferView":47,"componentType":5125,"count":264,"type":"SCALAR"},{"bufferView":48,"componentType":5126,"count":1026,"max":[6.4949445724487305,1.4529430866241455,-4.646541118621826],"min":[5.90716028213501,-0.046644024550914764,-5.128886699676514],"type":"VEC3"},{"bufferView":49,"componentType":5126,"count":1026,"type":"VEC3"},{"bufferView":50,"componentType":5126,"count":1026,"type":"VEC2"},{"bufferView":51,"componentType":5125,"count":1656,"type":"SCALAR"},{"bufferView":52,"componentType":5126,"count":1094,"max":[6.476622581481934,1.6636292934417725,-4.6827073097229],"min":[5.687878131866455,-0.04151897877454758,-5.393204212188721],"type":"VEC3"},{"bufferView":53,"componentType":5126,"count":1094,"type":"VEC3"},{"bufferView":54,"componentType":5126,"count":1094,"type":"VEC2"},{"bufferView":55,"componentType":5125,"count":1704,"type":"SCALAR"},{"bufferView":56,"componentType":5126,"count":256,"max":[6.3413310050964355,1.6714179515838623,-4.674543857574463],"min":[6.097033977508545,1.4303339719772339,-4.9313130378723145],"type":"VEC3"},{"bufferView":57,"componentType":5126,"count":256,"type":"VEC3"},{"bufferView":58,"componentType":5126,"count":256,"type":"VEC2"},{"bufferView":59,"componentType":5125,"count":384,"type":"SCALAR"},{"bufferView":60,"componentType":5126,"count":192,"max":[6.378950119018555,0.08533637970685959,-4.813717365264893],"min":[6.05586051940918,-0.023704109713435173,-5.080308437347412],"type":"VEC3"},{"bufferView":61,"componentType":5126,"count":192,"type":"VEC3"},{"bufferView":62,"componentType":5126,"count":192,"type":"VEC2"},{"bufferView":63,"componentType":5125,"count":264,"type":"SCALAR"},{"bufferView":64,"componentType":5126,"count":1026,"max":[2.2676358222961426,1.3915753364562988,3.687419891357422],"min":[1.9323638677597046,-0.03564953804016113,3.1104965209960938],"type":"VEC3"},{"bufferView":65,"componentType":5126,"count":1026,"type":"VEC3"},{"bufferView":66,"componentType":5126,"count":1026,"type":"VEC2"},{"bufferView":67,"componentType":5125,"count":1656,"type":"SCALAR"},{"bufferView":68,"componentType":5126,"count":1094,"max":[2.217231035232544,1.610458493232727,3.705872058868408],"min":[1.9889659881591797,-0.034391939640045166,3.0921895503997803],"type":"VEC3"},{"bufferView":69,"componentType":5126,"count":1094,"type":"VEC3"},{"bufferView":70,"componentType":5126,"count":1094,"type":"VEC2"},{"bufferView":71,"componentType":5125,"count":1704,"type":"SCALAR"},{"bufferView":72,"componentType":5126,"count":256,"max":[2.218095541000366,1.61712646484375,3.517977237701416],"min":[1.9685801267623901,1.3837476968765259,3.282585382461548],"type":"VEC3"},{"bufferView":73,"componentType":5126,"count":256,"type":"VEC3"},{"bufferView":74,"componentType":5126,"count":256,"type":"VEC2"},{"bufferView":75,"componentType":5125,"count":384,"type":"SCALAR"},{"bufferView":76,"componentType":5126,"count":192,"max":[2.272822856903076,0.07199469953775406,3.538187265396118],"min":[2.023325204849243,-0.0004831850528717041,3.2413265705108643],"type":"VEC3"},{"bufferView":77,"componentType":5126,"count":192,"type":"VEC3"},{"bufferView":78,"componentType":5126,"count":192,"type":"VEC2"},{"bufferView":79,"componentType":5125,"count":264,"type":"SCALAR"},{"bufferView":80,"componentType":5126,"count":1026,"max":[-5.554691791534424,1.4748921394348145,3.1274914741516113],"min":[-6.156425476074219,-0.029846251010894775,2.6673645973205566],"type":"VEC3"},{"bufferView":81,"componentType":5126,"count":1026,"type":"VEC3"},{"bufferView":82,"componentType":5126,"count":1026,"type":"VEC2"},{"bufferView":83,"componentType":5125,"count":1656,"type":"SCALAR"},{"bufferView":84,"componentType":5126,"count":1094,"max":[-5.523674488067627,1.7068803310394287,3.017115592956543],"min":[-6.438640594482422,-0.03810274600982666,2.681309461593628],"type":"VEC3"},{"bufferView":85,"componentType":5126,"count":1094,"type":"VEC3"},{"bufferView":86,"componentType":5126,"count":1094,"type":"VEC2"},{"bufferView":87,"componentType":5125,"count":1704,"type":"SCALAR"},{"bufferView":88,"componentType":5126,"count":256,"max":[-5.6772356033325195,1.7139475345611572,3.02303147315979],"min":[-5.933767795562744,1.4665958881378174,2.768096446990967],"type":"VEC3"},{"bufferView":89,"componentType":5126,"count":256,"type":"VEC3"},{"bufferView":90,"componentType":5126,"count":256,"type":"VEC2"},{"bufferView":91,"componentType":5125,"count":384,"type":"SCALAR"},{"bufferView":92,"componentType":5126,"count":192,"max":[-5.619810581207275,0.07630518078804016,3.1586833000183105],"min":[-5.868134498596191,-0.0005121156573295593,2.7373099327087402],"type":"VEC3"},{"bufferView":93,"componentType":5126,"count":192,"type":"VEC3"},{"bufferView":94,"componentType":5126,"count":192,"type":"VEC2"},{"bufferView":95,"componentType":5125,"count":264,"type":"SCALAR"},{"bufferView":96,"componentType":5126,"count":1026,"max":[-4.753705024719238,0.9083382487297058,3.740230083465576],"min":[-5.046469211578369,-0.023421138525009155,3.461526393890381],"type":"VEC3"},{"bufferView":97,"componentType":5126,"count":1026,"type":"VEC3"},{"bufferView":98,"componentType":5126,"count":1026,"type":"VEC2"},{"bufferView":99,"componentType":5125,"count":1656,"type":"SCALAR"},{"bufferView":100,"componentType":5126,"count":1094,"max":[-4.743797779083252,1.0938663482666016,3.739616632461548],"min":[-5.061273097991943,-0.02259814739227295,3.456878423690796],"type":"VEC3"},{"bufferView":101,"componentType":5126,"count":1094,"type":"VEC3"},{"bufferView":102,"componentType":5126,"count":1094,"type":"VEC2"},{"bufferView":103,"componentType":5125,"count":1704,"type":"SCALAR"},{"bufferView":104,"componentType":5126,"count":256,"max":[-4.79446268081665,1.0994374752044678,3.7045280933380127],"min":[-4.997103214263916,0.9044475555419922,3.5027523040771484],"type":"VEC3"},{"bufferView":105,"componentType":5126,"count":256,"type":"VEC3"},{"bufferView":106,"componentType":5126,"count":256,"type":"VEC2"},{"bufferView":107,"componentType":5125,"count":384,"type":"SCALAR"},{"bufferView":108,"componentType":5126,"count":192,"max":[-4.833230495452881,0.046993888914585114,3.6984617710113525],"min":[-5.009919166564941,-0.00031539425253868103,3.464416265487671],"type":"VEC3"},{"bufferView":109,"componentType":5126,"count":192,"type":"VEC3"},{"bufferView":110,"componentType":5126,"count":192,"type":"VEC2"},{"bufferView":111,"componentType":5125,"count":264,"type":"SCALAR"},{"bufferView":112,"componentType":5126,"count":1152,"max":[8.69170093536377,1.401497483253479,1.3360289335250854],"min":[8.113001823425293,-0.04465806111693382,0.8597402572631836],"type":"VEC3"},{"bufferView":113,"componentType":5126,"count":1152,"type":"VEC3"},{"bufferView":114,"componentType":5126,"count":1152,"type":"VEC2"},{"bufferView":115,"componentType":5125,"count":1860,"type":"SCALAR"},{"bufferView":116,"componentType":5126,"count":968,"max":[8.822587966918945,1.6047239303588867,1.6083515882492065],"min":[8.085850715637207,1.0598018169403076,0.8959872126579285],"type":"VEC3"},{"bufferView":117,"componentType":5126,"count":968,"type":"VEC3"},{"bufferView":118,"componentType":5126,"count":968,"type":"VEC2"},{"bufferView":119,"componentType":5125,"count":1500,"type":"SCALAR"},{"bufferView":120,"componentType":5126,"count":256,"max":[8.545736312866211,1.612236738204956,1.1341880559921265],"min":[8.311664581298828,1.3796889781951904,0.8881654739379883],"type":"VEC3"},{"bufferView":121,"componentType":5126,"count":256,"type":"VEC3"},{"bufferView":122,"componentType":5126,"count":256,"type":"VEC2"},{"bufferView":123,"componentType":5125,"count":384,"type":"SCALAR"},{"bufferView":124,"componentType":5126,"count":192,"max":[8.558652877807617,0.0825621485710144,1.3088648319244385],"min":[8.27037239074707,-0.024269023910164833,0.9876553416252136],"type":"VEC3"},{"bufferView":125,"componentType":5126,"count":192,"type":"VEC3"},{"bufferView":126,"componentType":5126,"count":192,"type":"VEC2"},{"bufferView":127,"componentType":5125,"count":264,"type":"SCALAR"},{"bufferView":128,"componentType":5126,"count":1152,"max":[2.2582807540893555,2.389179229736328,1.6641157865524292],"min":[1.4738404750823975,1.33599853515625,0.9109448194503784],"type":"VEC3"},{"bufferView":129,"componentType":5126,"count":1152,"type":"VEC3"},{"bufferView":130,"componentType":5126,"count":1152,"type":"VEC2"},{"bufferView":131,"componentType":5125,"count":1860,"type":"SCALAR"},{"bufferView":132,"componentType":5126,"count":968,"max":[1.924512505531311,2.6234145164489746,1.6632053852081299],"min":[1.32012140750885,1.7014518976211548,1.0700764656066895],"type":"VEC3"},{"bufferView":133,"componentType":5126,"count":968,"type":"VEC3"},{"bufferView":134,"componentType":5126,"count":968,"type":"VEC2"},{"bufferView":135,"componentType":5125,"count":1500,"type":"SCALAR"},{"bufferView":136,"componentType":5126,"count":256,"max":[1.8736735582351685,2.6305503845214844,1.4827460050582886],"min":[1.6150585412979126,2.380802631378174,1.2260122299194336],"type":"VEC3"},{"bufferView":137,"componentType":5126,"count":256,"type":"VEC3"},{"bufferView":138,"componentType":5126,"count":256,"type":"VEC2"},{"bufferView":139,"componentType":5125,"count":384,"type":"SCALAR"},{"bufferView":140,"componentType":5126,"count":192,"max":[2.3238117694854736,1.3721938133239746,1.1937716007232666],"min":[2.006420373916626,1.2998032569885254,0.8609211444854736],"type":"VEC3"},{"bufferView":141,"componentType":5126,"count":192,"type":"VEC3"},{"bufferView":142,"componentType":5126,"count":192,"type":"VEC2"},{"bufferView":143,"componentType":5125,"count":264,"type":"SCALAR"},{"bufferView":144,"componentType":5126,"count":1152,"max":[-15.586417198181152,1.4379152059555054,-14.636634826660156],"min":[-15.975217819213867,-0.037172168493270874,-15.161971092224121],"type":"VEC3"},{"bufferView":145,"componentType":5126,"count":1152,"type":"VEC3"},{"bufferView":146,"componentType":5126,"count":1152,"type":"VEC2"},{"bufferView":147,"componentType":5125,"count":1860,"type":"SCALAR"},{"bufferView":148,"componentType":5126,"count":968,"max":[-15.602595329284668,1.6640872955322266,-14.620756149291992],"min":[-15.991975784301758,0.7138391137123108,-15.173465728759766],"type":"VEC3"},{"bufferView":149,"componentType":5126,"count":968,"type":"VEC3"},{"bufferView":150,"componentType":5126,"count":968,"type":"VEC2"},{"bufferView":151,"componentType":5125,"count":1500,"type":"SCALAR"},{"bufferView":152,"componentType":5126,"count":256,"max":[-15.678464889526367,1.670977234840393,-14.78001880645752],"min":[-15.934096336364746,1.4298268556594849,-15.025646209716797],"type":"VEC3"},{"bufferView":153,"componentType":5126,"count":256,"type":"VEC3"},{"bufferView":154,"componentType":5126,"count":256,"type":"VEC2"},{"bufferView":155,"componentType":5125,"count":384,"type":"SCALAR"},{"bufferView":156,"componentType":5126,"count":192,"max":[-15.545905113220215,0.07439213991165161,-14.70767593383789],"min":[-15.916601181030273,-0.0004992745816707611,-15.01703929901123],"type":"VEC3"},{"bufferView":157,"componentType":5126,"count":192,"type":"VEC3"},{"bufferView":158,"componentType":5126,"count":192,"type":"VEC2"},{"bufferView":159,"componentType":5125,"count":264,"type":"SCALAR"},{"bufferView":160,"componentType":5126,"count":1026,"max":[-13.892770767211914,1.4162825345993042,-13.942076683044434],"min":[-14.375370025634766,-0.035807639360427856,-14.45691967010498],"type":"VEC3"},{"bufferView":161,"componentType":5126,"count":1026,"type":"VEC3"},{"bufferView":162,"componentType":5126,"count":1026,"type":"VEC2"},{"bufferView":163,"componentType":5125,"count":1656,"type":"SCALAR"},{"bufferView":164,"componentType":5126,"count":1094,"max":[-13.629647254943848,1.6390520334243774,-13.931471824645996],"min":[-14.409729957580566,-0.0363522469997406,-14.475143432617188],"type":"VEC3"},{"bufferView":165,"componentType":5126,"count":1094,"type":"VEC3"},{"bufferView":166,"componentType":5126,"count":1094,"type":"VEC2"},{"bufferView":167,"componentType":5125,"count":1704,"type":"SCALAR"},{"bufferView":168,"componentType":5126,"count":256,"max":[-14.067608833312988,1.6458383798599243,-14.076727867126465],"min":[-14.319720268249512,1.4083160161972046,-14.318405151367188],"type":"VEC3"},{"bufferView":169,"componentType":5126,"count":256,"type":"VEC3"},{"bufferView":170,"componentType":5126,"count":256,"type":"VEC2"},{"bufferView":171,"componentType":5125,"count":384,"type":"SCALAR"},{"bufferView":172,"componentType":5126,"count":192,"max":[-14.074407577514648,0.0732729583978653,-14.063931465148926],"min":[-14.401317596435547,-0.0004917643964290619,-14.381882667541504],"type":"VEC3"},{"bufferView":173,"componentType":5126,"count":192,"type":"VEC3"},{"bufferView":174,"componentType":5126,"count":192,"type":"VEC2"},{"bufferView":175,"componentType":5125,"count":264,"type":"SCALAR"},{"bufferView":176,"componentType":5126,"count":1152,"max":[-10.290426254272461,1.4833377599716187,-13.48186206817627],"min":[-10.871302604675293,-0.04085851460695267,-13.934898376464844],"type":"VEC3"},{"bufferView":177,"componentType":5126,"count":1152,"type":"VEC3"},{"bufferView":178,"componentType":5126,"count":1152,"type":"VEC2"},{"bufferView":179,"componentType":5125,"count":1860,"type":"SCALAR"},{"bufferView":180,"componentType":5126,"count":968,"max":[-10.29242992401123,1.7026348114013672,-13.503657341003418],"min":[-10.974087715148926,0.7517929673194885,-14.019247055053711],"type":"VEC3"},{"bufferView":181,"componentType":5126,"count":968,"type":"VEC3"},{"bufferView":182,"componentType":5126,"count":968,"type":"VEC2"},{"bufferView":183,"componentType":5125,"count":1500,"type":"SCALAR"},{"bufferView":184,"componentType":5126,"count":256,"max":[-10.447572708129883,1.708977222442627,-13.504558563232422],"min":[-10.694108963012695,1.4622406959533691,-13.764581680297852],"type":"VEC3"},{"bufferView":185,"componentType":5126,"count":256,"type":"VEC3"},{"bufferView":186,"componentType":5126,"count":256,"type":"VEC2"},{"bufferView":187,"componentType":5125,"count":384,"type":"SCALAR"},{"bufferView":188,"componentType":5126,"count":192,"max":[-10.452025413513184,0.09520591795444489,-13.731213569641113],"min":[-10.78375244140625,-0.007549202535301447,-13.983550071716309],"type":"VEC3"},{"bufferView":189,"componentType":5126,"count":192,"type":"VEC3"},{"bufferView":190,"componentType":5126,"count":192,"type":"VEC2"},{"bufferView":191,"componentType":5125,"count":264,"type":"SCALAR"},{"bufferView":192,"componentType":5126,"count":1152,"max":[19.069944381713867,1.3984756469726562,-7.918697834014893],"min":[18.723106384277344,-0.03590497374534607,-8.481295585632324],"type":"VEC3"},{"bufferView":193,"componentType":5126,"count":1152,"type":"VEC3"},{"bufferView":194,"componentType":5126,"count":1152,"type":"VEC2"},{"bufferView":195,"componentType":5125,"count":1860,"type":"SCALAR"},{"bufferView":196,"componentType":5126,"count":968,"max":[19.031097412109375,1.6184442043304443,-7.902804374694824],"min":[18.76628875732422,0.6942598223686218,-8.498921394348145],"type":"VEC3"},{"bufferView":197,"componentType":5126,"count":968,"type":"VEC3"},{"bufferView":198,"componentType":5126,"count":968,"type":"VEC2"},{"bufferView":199,"componentType":5125,"count":1500,"type":"SCALAR"},{"bufferView":200,"componentType":5126,"count":256,"max":[19.030406951904297,1.6251451969146729,-8.082114219665527],"min":[18.782814025878906,1.3906091451644897,-8.315691947937012],"type":"VEC3"},{"bufferView":201,"componentType":5126,"count":256,"type":"VEC3"},{"bufferView":202,"componentType":5126,"count":256,"type":"VEC2"},{"bufferView":203,"componentType":5125,"count":384,"type":"SCALAR"},{"bufferView":204,"componentType":5126,"count":192,"max":[18.999940872192383,0.07235169410705566,-8.074226379394531],"min":[18.68503189086914,-0.0004855804145336151,-8.363471984863281],"type":"VEC3"},{"bufferView":205,"componentType":5126,"count":192,"type":"VEC3"},{"bufferView":206,"componentType":5126,"count":192,"type":"VEC2"},{"bufferView":207,"componentType":5125,"count":264,"type":"SCALAR"},{"bufferView":208,"componentType":5126,"count":1152,"max":[20.653278350830078,1.4070065021514893,-5.140871524810791],"min":[20.081815719604492,-0.04515998438000679,-5.721671104431152],"type":"VEC3"},{"bufferView":209,"componentType":5126,"count":1152,"type":"VEC3"},{"bufferView":210,"componentType":5126,"count":1152,"type":"VEC2"},{"bufferView":211,"componentType":5125,"count":1860,"type":"SCALAR"},{"bufferView":212,"componentType":5126,"count":968,"max":[20.958398818969727,1.6110317707061768,-4.9663004875183105],"min":[20.14468765258789,1.0639677047729492,-5.6471266746521],"type":"VEC3"},{"bufferView":213,"componentType":5126,"count":968,"type":"VEC3"},{"bufferView":214,"componentType":5126,"count":968,"type":"VEC2"},{"bufferView":215,"componentType":5125,"count":1500,"type":"SCALAR"},{"bufferView":216,"componentType":5126,"count":256,"max":[20.38240623474121,1.6185741424560547,-5.4098005294799805],"min":[20.138574600219727,1.3851122856140137,-5.653275489807129],"type":"VEC3"},{"bufferView":217,"componentType":5126,"count":256,"type":"VEC3"},{"bufferView":218,"componentType":5126,"count":256,"type":"VEC2"},{"bufferView":219,"componentType":5125,"count":384,"type":"SCALAR"},{"bufferView":220,"componentType":5126,"count":192,"max":[20.50200080871582,0.08306112140417099,-5.2457966804504395],"min":[20.22173309326172,-0.02281964011490345,-5.626595497131348],"type":"VEC3"},{"bufferView":221,"componentType":5126,"count":192,"type":"VEC3"},{"bufferView":222,"componentType":5126,"count":192,"type":"VEC2"},{"bufferView":223,"componentType":5125,"count":264,"type":"SCALAR"},{"bufferView":224,"componentType":5126,"count":1152,"max":[-20.870283126831055,2.184420347213745,-2.2700042724609375],"min":[-21.634166717529297,1.169966459274292,-2.9075422286987305],"type":"VEC3"},{"bufferView":225,"componentType":5126,"count":1152,"type":"VEC3"},{"bufferView":226,"componentType":5126,"count":1152,"type":"VEC2"},{"bufferView":227,"componentType":5125,"count":1860,"type":"SCALAR"},{"bufferView":228,"componentType":5126,"count":968,"max":[-21.285451889038086,2.4100427627563477,-2.327327251434326],"min":[-21.65062141418457,1.5219814777374268,-3.07599139213562],"type":"VEC3"},{"bufferView":229,"componentType":5126,"count":968,"type":"VEC3"},{"bufferView":230,"componentType":5126,"count":968,"type":"VEC2"},{"bufferView":231,"componentType":5125,"count":1500,"type":"SCALAR"},{"bufferView":232,"componentType":5126,"count":256,"max":[-21.278709411621094,2.4169158935546875,-2.4801852703094482],"min":[-21.5339298248291,2.17635178565979,-2.725216865539551],"type":"VEC3"},{"bufferView":233,"componentType":5126,"count":256,"type":"VEC3"},{"bufferView":234,"componentType":5126,"count":256,"type":"VEC2"},{"bufferView":235,"componentType":5125,"count":384,"type":"SCALAR"},{"bufferView":236,"componentType":5126,"count":192,"max":[-20.797401428222656,1.2048307657241821,-2.2417707443237305],"min":[-21.071229934692383,1.1351020336151123,-2.5601842403411865],"type":"VEC3"},{"bufferView":237,"componentType":5126,"count":192,"type":"VEC3"},{"bufferView":238,"componentType":5126,"count":192,"type":"VEC2"},{"bufferView":239,"componentType":5125,"count":264,"type":"SCALAR"},{"bufferView":240,"componentType":5126,"count":1152,"max":[-19.959484100341797,2.1425833702087402,-1.1026368141174316],"min":[-20.705005645751953,1.1577174663543701,-1.747437596321106],"type":"VEC3"},{"bufferView":241,"componentType":5126,"count":1152,"type":"VEC3"},{"bufferView":242,"componentType":5126,"count":1152,"type":"VEC2"},{"bufferView":243,"componentType":5125,"count":1860,"type":"SCALAR"},{"bufferView":244,"componentType":5126,"count":968,"max":[-19.95302391052246,2.3616251945495605,-0.9394205808639526],"min":[-20.3277645111084,1.4994657039642334,-1.653210163116455],"type":"VEC3"},{"bufferView":245,"componentType":5126,"count":968,"type":"VEC3"},{"bufferView":246,"componentType":5126,"count":968,"type":"VEC2"},{"bufferView":247,"componentType":5125,"count":1500,"type":"SCALAR"},{"bufferView":248,"componentType":5126,"count":256,"max":[-20.07078742980957,2.368298053741455,-1.2782249450683594],"min":[-20.317354202270508,2.1347503662109375,-1.515657663345337],"type":"VEC3"},{"bufferView":249,"componentType":5126,"count":256,"type":"VEC3"},{"bufferView":250,"componentType":5126,"count":256,"type":"VEC2"},{"bufferView":251,"componentType":5125,"count":384,"type":"SCALAR"},{"bufferView":252,"componentType":5126,"count":192,"max":[-20.498947143554688,1.1915650367736816,-1.4696567058563232],"min":[-20.774986267089844,1.1238700151443481,-1.7810735702514648],"type":"VEC3"},{"bufferView":253,"componentType":5126,"count":192,"type":"VEC3"},{"bufferView":254,"componentType":5126,"count":192,"type":"VEC2"},{"bufferView":255,"componentType":5125,"count":264,"type":"SCALAR"},{"bufferView":256,"componentType":5126,"count":1026,"max":[-21.264787673950195,1.4644662141799927,26.6986141204834],"min":[-21.8250675201416,-0.04679335281252861,26.065412521362305],"type":"VEC3"},{"bufferView":257,"componentType":5126,"count":1026,"type":"VEC3"},{"bufferView":258,"componentType":5126,"count":1026,"type":"VEC2"},{"bufferView":259,"componentType":5125,"count":1656,"type":"SCALAR"},{"bufferView":260,"componentType":5126,"count":1094,"max":[-21.304994583129883,1.6768234968185425,26.94415855407715],"min":[-22.069822311401367,-0.04366854950785637,26.18459129333496],"type":"VEC3"},{"bufferView":261,"componentType":5126,"count":1094,"type":"VEC3"},{"bufferView":262,"componentType":5126,"count":1094,"type":"VEC2"},{"bufferView":263,"componentType":5125,"count":1704,"type":"SCALAR"},{"bufferView":264,"componentType":5126,"count":256,"max":[-21.29741859436035,1.6846739053726196,26.42736053466797],"min":[-21.553438186645508,1.4416779279708862,26.1792049407959],"type":"VEC3"},{"bufferView":265,"componentType":5126,"count":256,"type":"VEC3"},{"bufferView":266,"componentType":5126,"count":256,"type":"VEC2"},{"bufferView":267,"componentType":5125,"count":384,"type":"SCALAR"},{"bufferView":268,"componentType":5126,"count":192,"max":[-21.35506820678711,0.08449269086122513,26.518285751342773],"min":[-21.729814529418945,-0.025219181552529335,26.202150344848633],"type":"VEC3"},{"bufferView":269,"componentType":5126,"count":192,"type":"VEC3"},{"bufferView":270,"componentType":5126,"count":192,"type":"VEC2"},{"bufferView":271,"componentType":5125,"count":264,"type":"SCALAR"},{"bufferView":272,"componentType":5126,"count":1026,"max":[3.3712401390075684,1.4173083305358887,19.88979721069336],"min":[3.0287599563598633,-0.03630000352859497,19.308738708496094],"type":"VEC3"},{"bufferView":273,"componentType":5126,"count":1026,"type":"VEC3"},{"bufferView":274,"componentType":5126,"count":1026,"type":"VEC2"},{"bufferView":275,"componentType":5125,"count":1656,"type":"SCALAR"},{"bufferView":276,"componentType":5126,"count":1094,"max":[3.3607211112976074,1.6402390003204346,19.908191680908203],"min":[3.0870630741119385,-0.03127595782279968,19.291336059570312],"type":"VEC3"},{"bufferView":277,"componentType":5126,"count":1094,"type":"VEC3"},{"bufferView":278,"componentType":5126,"count":1094,"type":"VEC2"},{"bufferView":279,"componentType":5125,"count":1704,"type":"SCALAR"},{"bufferView":280,"componentType":5126,"count":256,"max":[3.320119619369507,1.6470303535461426,19.719261169433594],"min":[3.0663280487060547,1.409335970878601,19.479835510253906],"type":"VEC3"},{"bufferView":281,"componentType":5126,"count":256,"type":"VEC3"},{"bufferView":282,"componentType":5126,"count":256,"type":"VEC2"},{"bufferView":283,"componentType":5125,"count":384,"type":"SCALAR"},{"bufferView":284,"componentType":5126,"count":192,"max":[3.399940252304077,0.07332602143287659,19.75826644897461],"min":[3.1192896366119385,-0.0004921220242977142,19.455543518066406],"type":"VEC3"},{"bufferView":285,"componentType":5126,"count":192,"type":"VEC3"},{"bufferView":286,"componentType":5126,"count":192,"type":"VEC2"},{"bufferView":287,"componentType":5125,"count":264,"type":"SCALAR"},{"bufferView":288,"componentType":5126,"count":1026,"max":[9.048925399780273,1.4998273849487305,20.210126876831055],"min":[8.607439994812012,-0.030999809503555298,19.601333618164062],"type":"VEC3"},{"bufferView":289,"componentType":5126,"count":1026,"type":"VEC3"},{"bufferView":290,"componentType":5126,"count":1026,"type":"VEC2"},{"bufferView":291,"componentType":5125,"count":1656,"type":"SCALAR"},{"bufferView":292,"componentType":5126,"count":1094,"max":[9.311349868774414,1.7357378005981445,20.2291316986084],"min":[8.6613187789917,-0.03853908181190491,19.436962127685547],"type":"VEC3"},{"bufferView":293,"componentType":5126,"count":1094,"type":"VEC3"},{"bufferView":294,"componentType":5126,"count":1094,"type":"VEC2"},{"bufferView":295,"componentType":5125,"count":1704,"type":"SCALAR"},{"bufferView":296,"componentType":5126,"count":256,"max":[8.94175910949707,1.742924451828003,20.027040481567383],"min":[8.672613143920898,1.4913908243179321,19.773130416870117],"type":"VEC3"},{"bufferView":297,"componentType":5126,"count":256,"type":"VEC3"},{"bufferView":298,"componentType":5126,"count":256,"type":"VEC2"},{"bufferView":299,"componentType":5125,"count":384,"type":"SCALAR"},{"bufferView":300,"componentType":5126,"count":192,"max":[8.885886192321777,0.07759523391723633,20.059303283691406],"min":[8.570740699768066,-0.0005207732319831848,19.734569549560547],"type":"VEC3"},{"bufferView":301,"componentType":5126,"count":192,"type":"VEC3"},{"bufferView":302,"componentType":5126,"count":192,"type":"VEC2"},{"bufferView":303,"componentType":5125,"count":264,"type":"SCALAR"},{"bufferView":304,"componentType":5126,"count":1152,"max":[3.4061763286590576,1.5033564567565918,-40.6775016784668],"min":[2.7855656147003174,-0.04249706491827965,-41.19507598876953],"type":"VEC3"},{"bufferView":305,"componentType":5126,"count":1152,"type":"VEC3"},{"bufferView":306,"componentType":5126,"count":1152,"type":"VEC2"},{"bufferView":307,"componentType":5125,"count":1860,"type":"SCALAR"},{"bufferView":308,"componentType":5126,"count":968,"max":[3.42573881149292,1.7256128787994385,-40.7186164855957],"min":[2.676271915435791,0.7619388699531555,-41.168514251708984],"type":"VEC3"},{"bufferView":309,"componentType":5126,"count":968,"type":"VEC3"},{"bufferView":310,"componentType":5126,"count":968,"type":"VEC2"},{"bufferView":311,"componentType":5125,"count":1500,"type":"SCALAR"},{"bufferView":312,"componentType":5126,"count":256,"max":[3.2226972579956055,1.7320407629013062,-40.696044921875],"min":[2.9690563678741455,1.4819743633270264,-40.96356201171875],"type":"VEC3"},{"bufferView":313,"componentType":5126,"count":256,"type":"VEC3"},{"bufferView":314,"componentType":5126,"count":256,"type":"VEC2"},{"bufferView":315,"componentType":5125,"count":384,"type":"SCALAR"},{"bufferView":316,"componentType":5126,"count":192,"max":[3.2720377445220947,0.09939104318618774,-40.904937744140625],"min":[2.9392271041870117,-0.008691240102052689,-41.2283821105957],"type":"VEC3"},{"bufferView":317,"componentType":5126,"count":192,"type":"VEC3"},{"bufferView":318,"componentType":5126,"count":192,"type":"VEC2"},{"bufferView":319,"componentType":5125,"count":264,"type":"SCALAR"},{"bufferView":320,"componentType":5126,"count":1152,"max":[-1.4156641960144043,0.9071159362792969,-18.389984130859375],"min":[-1.7848529815673828,-0.023434996604919434,-18.610015869140625],"type":"VEC3"},{"bufferView":321,"componentType":5126,"count":1152,"type":"VEC3"},{"bufferView":322,"componentType":5126,"count":1152,"type":"VEC2"},{"bufferView":323,"componentType":5125,"count":1860,"type":"SCALAR"},{"bufferView":324,"componentType":5126,"count":968,"max":[-1.4040310382843018,1.0923943519592285,-18.407840728759766],"min":[-1.7956297397613525,0.4503290355205536,-18.592159271240234],"type":"VEC3"},{"bufferView":325,"componentType":5126,"count":968,"type":"VEC3"},{"bufferView":326,"componentType":5126,"count":968,"type":"VEC2"},{"bufferView":327,"componentType":5125,"count":1500,"type":"SCALAR"},{"bufferView":328,"componentType":5126,"count":256,"max":[-1.502925157546997,1.0979580879211426,-18.390918731689453],"min":[-1.6983040571212769,0.9032304883003235,-18.598020553588867],"type":"VEC3"},{"bufferView":329,"componentType":5126,"count":256,"type":"VEC3"},{"bufferView":330,"componentType":5126,"count":256,"type":"VEC2"},{"bufferView":331,"componentType":5125,"count":384,"type":"SCALAR"},{"bufferView":332,"componentType":5126,"count":192,"max":[-1.4878668785095215,0.046930648386478424,-18.46004295349121],"min":[-1.6896631717681885,-0.0003149714320898056,-18.626049041748047],"type":"VEC3"},{"bufferView":333,"componentType":5126,"count":192,"type":"VEC3"},{"bufferView":334,"componentType":5126,"count":192,"type":"VEC2"},{"bufferView":335,"componentType":5125,"count":264,"type":"SCALAR"},{"bufferView":336,"componentType":5126,"count":189,"max":[6.3338165283203125,0.2549999952316284,5.642902374267578],"min":[5.460197448730469,-0.0456523522734642,4.750876426696777],"type":"VEC3"},{"bufferView":337,"componentType":5126,"count":189,"type":"VEC3"},{"bufferView":338,"componentType":5126,"count":189,"type":"VEC2"},{"bufferView":339,"componentType":5125,"count":297,"type":"SCALAR"},{"bufferView":340,"componentType":5126,"count":84,"max":[1.058773159980774,0.12999704480171204,6.830043792724609],"min":[0.9531036019325256,0.0,6.722954273223877],"type":"VEC3"},{"bufferView":341,"componentType":5126,"count":84,"type":"VEC3"},{"bufferView":342,"componentType":5126,"count":84,"type":"VEC2"},{"bufferView":343,"componentType":5125,"count":126,"type":"SCALAR"},{"bufferView":344,"componentType":5126,"count":84,"max":[5.748790264129639,0.12993671000003815,3.091942310333252],"min":[5.643406867980957,0.0,2.984813928604126],"type":"VEC3"},{"bufferView":345,"componentType":5126,"count":84,"type":"VEC3"},{"bufferView":346,"componentType":5126,"count":84,"type":"VEC2"},{"bufferView":347,"componentType":5125,"count":126,"type":"SCALAR"},{"bufferView":348,"componentType":5126,"count":84,"max":[-4.628216743469238,0.12997008860111237,3.5756638050079346],"min":[-4.734694957733154,0.0,3.4690358638763428],"type":"VEC3"},{"bufferView":349,"componentType":5126,"count":84,"type":"VEC3"},{"bufferView":350,"componentType":5126,"count":84,"type":"VEC2"},{"bufferView":351,"componentType":5125,"count":126,"type":"SCALAR"},{"bufferView":352,"componentType":5126,"count":84,"max":[-0.5234508514404297,0.1299831122159958,2.8948378562927246],"min":[-0.6301186084747314,0.0,2.788393259048462],"type":"VEC3"},{"bufferView":353,"componentType":5126,"count":84,"type":"VEC3"},{"bufferView":354,"componentType":5126,"count":84,"type":"VEC2"},{"bufferView":355,"componentType":5125,"count":126,"type":"SCALAR"},{"bufferView":356,"componentType":5126,"count":84,"max":[-3.175311326980591,0.12940777838230133,8.072717666625977],"min":[-3.2822937965393066,0.0,7.96735954284668],"type":"VEC3"},{"bufferView":357,"componentType":5126,"count":84,"type":"VEC3"},{"bufferView":358,"componentType":5126,"count":84,"type":"VEC2"},{"bufferView":359,"componentType":5125,"count":126,"type":"SCALAR"},{"bufferView":360,"componentType":5126,"count":84,"max":[1.7945467233657837,0.12984631955623627,3.0340564250946045],"min":[1.6882879734039307,0.0,2.9273600578308105],"type":"VEC3"},{"bufferView":361,"componentType":5126,"count":84,"type":"VEC3"},{"bufferView":362,"componentType":5126,"count":84,"type":"VEC2"},{"bufferView":363,"componentType":5125,"count":126,"type":"SCALAR"},{"bufferView":364,"componentType":5126,"count":84,"max":[-6.043169975280762,0.12976233661174774,6.386786937713623],"min":[-6.150259971618652,0.0,6.281750679016113],"type":"VEC3"},{"bufferView":365,"componentType":5126,"count":84,"type":"VEC3"},{"bufferView":366,"componentType":5126,"count":84,"type":"VEC2"},{"bufferView":367,"componentType":5125,"count":126,"type":"SCALAR"},{"bufferView":368,"componentType":5126,"count":84,"max":[-1.359529733657837,0.1299940049648285,1.1383769512176514],"min":[-1.466707706451416,0.0,1.0330703258514404],"type":"VEC3"},{"bufferView":369,"componentType":5126,"count":84,"type":"VEC3"},{"bufferView":370,"componentType":5126,"count":84,"type":"VEC2"},{"bufferView":371,"componentType":5125,"count":126,"type":"SCALAR"},{"bufferView":372,"componentType":5126,"count":84,"max":[6.533542156219482,0.12994599342346191,2.5144481658935547],"min":[6.426377773284912,0.0,2.4092307090759277],"type":"VEC3"},{"bufferView":373,"componentType":5126,"count":84,"type":"VEC3"},{"bufferView":374,"componentType":5126,"count":84,"type":"VEC2"},{"bufferView":375,"componentType":5125,"count":126,"type":"SCALAR"},{"bufferView":376,"componentType":5126,"count":84,"max":[0.6904247999191284,0.1299402117729187,5.015665054321289],"min":[0.5832298994064331,0.0,4.9110612869262695],"type":"VEC3"},{"bufferView":377,"componentType":5126,"count":84,"type":"VEC3"},{"bufferView":378,"componentType":5126,"count":84,"type":"VEC2"},{"bufferView":379,"componentType":5125,"count":126,"type":"SCALAR"},{"bufferView":380,"componentType":5126,"count":84,"max":[-1.1022770404815674,0.12996414303779602,1.705215334892273],"min":[-1.2077809572219849,0.0,1.5980981588363647],"type":"VEC3"},{"bufferView":381,"componentType":5126,"count":84,"type":"VEC3"},{"bufferView":382,"componentType":5126,"count":84,"type":"VEC2"},{"bufferView":383,"componentType":5125,"count":126,"type":"SCALAR"}],"asset":{"generator":"unlimitless-horizons assetgen","version":"2.0"},"bufferViews":[{"buffer":0,"byteLength":13824,"byteOffset":0,"target":34962},{"buffer":0,"byteLength":13824,"byteOffset":13824,"target":34962},{"buffer":0,"byteLength":9216,"byteOffset":27648,"target":34962},{"buffer":0,"byteLength":7440,"byteOffset":36864,"target":34963},{"buffer":0,"byteLength":11616,"byteOffset":44304,"target":34962},{"buffer":0,"byteLength":11616,"byteOffset":55920,"target":34962},{"buffer":0,"byteLength":7744,"byteOffset":67536,"target":34962},{"buffer":0,"byteLength":6000,"byteOffset":75280,"target":34963},{"buffer":0,"byteLength":3072,"byteOffset":81280,"target":34962},{"buffer":0,"byteLength":3072,"byteOffset":84352,"target":34962},{"buffer":0,"byteLength":2048,"byteOffset":87424,"target":34962},{"buffer":0,"byteLength":1536,"byteOffset":89472,"target":34963},{"buffer":0,"byteLength":2304,"byteOffset":91008,"target":34962},{"buffer":0,"byteLength":2304,"byteOffset":93312,"target":34962},{"buffer":0,"byteLength":1536,"byteOffset":95616,"target":34962},{"buffer":0,"byteLength":1056,"byteOffset":97152,"target":34963},{"buffer":0,"byteLength":12312,"byteOffset":98208,"target":34962},{"buffer":0,"byteLength":12312,"byteOffset":110520,"target":34962},{"buffer":0,"byteLength":8208,"byteOffset":122832,"target":34962},{"buffer":0,"byteLength":6624,"byteOffset":131040,"target":34963},{"buffer":0,"byteLength":13128,"byteOffset":137664,"target":34962},{"buffer":0,"byteLength":13128,"byteOffset":150792,"target":34962},{"buffer":0,"byteLength":8752,"byteOffset":163920,"target":34962},{"buffer":0,"byteLength":6816,"byteOffset":172672,"target":34963},{"buffer":0,"byteLength":3072,"byteOffset":179488,"target":34962},{"buffer":0,"byteLength":3072,"byteOffset":182560,"target":34962},{"buffer":0,"byteLength":2048,"byteOffset":185632,"target":34962},{"buffer":0,"byteLength":1536,"byteOffset":187680,"target":34963},{"buffer":0,"byteLength":2304,"byteOffset":189216,"target":34962},{"buffer":0,"byteLength":2304,"byteOffset":191520,"target":34962},{"buffer":0,"byteLength":1536,"byteOffset":193824,"target":34962},{"buffer":0,"byteLength":1056,"byteOffset":195360,"target":34963},{"buffer":0,"byteLength":12312,"byteOffset":196416,"target":34962},{"buffer":0,"byteLength":12312,"byteOffset":208728,"target":34962},{"buffer":0,"byteLength":8208,"byteOffset":221040,"target":34962},{"buffer":0,"byteLength":6624,"byteOffset":229248,"target":34963},{"buffer":0,"byteLength":13128,"byteOffset":235872,"target":34962},{"buffer":0,"byteLength":13128,"byteOffset":249000,"target":34962},{"buffer":0,"byteLength":8752,"byteOffset":262128,"target":34962},{"buffer":0,"byteLength":6816,"byteOffset":270880,"target":34963},{"buffer":0,"byteLength":3072,"byteOffset":277696,"target":34962},{"buffer":0,"byteLength":3072,"byteOffset":280768,"target":34962},{"buffer":0,"byteLength":2048,"byteOffset":283840,"target":34962},{"buffer":0,"byteLength":1536,"byteOffset":285888,"target":34963},{"buffer":0,"byteLength":2304,"byteOffset":287424,"target":34962},{"buffer":0,"byteLength":2304,"byteOffset":289728,"target":34962},{"buffer":0,"byteLength":1536,"byteOffset":292032,"target":34962},{"buffer":0,"byteLength":1056,"byteOffset":293568,"target":34963},{"buffer":0,"byteLength":12312,"byteOffset":294624,"target":34962},{"buffer":0,"byteLength":12312,"byteOffset":306936,"target":34962},{"buffer":0,"byteLength":8208,"byteOffset":319248,"target":34962},{"buffer":0,"byteLength":6624,"byteOffset":327456,"target":34963},{"buffer":0,"byteLength":13128,"byteOffset":334080,"target":34962},{"buffer":0,"byteLength":13128,"byteOffset":347208,"target":34962},{"buffer":0,"byteLength":8752,"byteOffset":360336,"target":34962},{"buffer":0,"byteLength":6816,"byteOffset":369088,"target":34963},{"buffer":0,"byteLength":3072,"byteOffset":375904,"target":34962},{"buffer":0,"byteLength":3072,"byteOffset":378976,"target":34962},{"buffer":0,"byteLength":2048,"byteOffset":382048,"target":34962},{"buffer":0,"byteLength":1536,"byteOffset":384096,"target":34963},{"buffer":0,"byteLength":2304,"byteOffset":385632,"target":34962},{"buffer":0,"byteLength":2304,"byteOffset":387936,"target":34962},{"buffer":0,"byteLength":1536,"byteOffset":390240,"target":34962},{"buffer":0,"byteLength":1056,"byteOffset":391776,"target":34963},{"buffer":0,"byteLength":12312,"byteOffset":392832,"target":34962},{"buffer":0,"byteLength":12312,"byteOffset":405144,"target":34962},{"buffer":0,"byteLength":8208,"byteOffset":417456,"target":34962},{"buffer":0,"byteLength":6624,"byteOffset":425664,"target":34963},{"buffer":0,"byteLength":13128,"byteOffset":432288,"target":34962},{"buffer":0,"byteLength":13128,"byteOffset":445416,"target":34962},{"buffer":0,"byteLength":8752,"byteOffset":458544,"target":34962},{"buffer":0,"byteLength":6816,"byteOffset":467296,"target":34963},{"buffer":0,"byteLength":3072,"byteOffset":474112,"target":34962},{"buffer":0,"byteLength":3072,"byteOffset":477184,"target":34962},{"buffer":0,"byteLength":2048,"byteOffset":480256,"target":34962},{"buffer":0,"byteLength":1536,"byteOffset":482304,"target":34963},{"buffer":0,"byteLength":2304,"byteOffset":483840,"target":34962},{"buffer":0,"byteLength":2304,"byteOffset":486144,"target":34962},{"buffer":0,"byteLength":1536,"byteOffset":488448,"target":34962},{"buffer":0,"byteLength":1056,"byteOffset":489984,"target":34963},{"buffer":0,"byteLength":12312,"byteOffset":491040,"target":34962},{"buffer":0,"byteLength":12312,"byteOffset":503352,"target":34962},{"buffer":0,"byteLength":8208,"byteOffset":515664,"target":34962},{"buffer":0,"byteLength":6624,"byteOffset":523872,"target":34963},{"buffer":0,"byteLength":13128,"byteOffset":530496,"target":34962},{"buffer":0,"byteLength":13128,"byteOffset":543624,"target":34962},{"buffer":0,"byteLength":8752,"byteOffset":556752,"target":34962},{"buffer":0,"byteLength":6816,"byteOffset":565504,"target":34963},{"buffer":0,"byteLength":3072,"byteOffset":572320,"target":34962},{"buffer":0,"byteLength":3072,"byteOffset":575392,"target":34962},{"buffer":0,"byteLength":2048,"byteOffset":578464,"target":34962},{"buffer":0,"byteLength":1536,"byteOffset":580512,"target":34963},{"buffer":0,"byteLength":2304,"byteOffset":582048,"target":34962},{"buffer":0,"byteLength":2304,"byteOffset":584352,"target":34962},{"buffer":0,"byteLength":1536,"byteOffset":586656,"target":34962},{"buffer":0,"byteLength":1056,"byteOffset":588192,"target":34963},{"buffer":0,"byteLength":12312,"byteOffset":589248,"target":34962},{"buffer":0,"byteLength":12312,"byteOffset":601560,"target":34962},{"buffer":0,"byteLength":8208,"byteOffset":613872,"target":34962},{"buffer":0,"byteLength":6624,"byteOffset":622080,"target":34963},{"buffer":0,"byteLength":13128,"byteOffset":628704,"target":34962},{"buffer":0,"byteLength":13128,"byteOffset":641832,"target":34962},{"buffer":0,"byteLength":8752,"byteOffset":654960,"target":34962},{"buffer":0,"byteLength":6816,"byteOffset":663712,"target":34963},{"buffer":0,"byteLength":3072,"byteOffset":670528,"target":34962},{"buffer":0,"byteLength":3072,"byteOffset":673600,"target":34962},{"buffer":0,"byteLength":2048,"byteOffset":676672,"target":34962},{"buffer":0,"byteLength":1536,"byteOffset":678720,"target":34963},{"buffer":0,"byteLength":2304,"byteOffset":680256,"target":34962},{"buffer":0,"byteLength":2304,"byteOffset":682560,"target":34962},{"buffer":0,"byteLength":1536,"byteOffset":684864,"target":34962},{"buffer":0,"byteLength":1056,"byteOffset":686400,"target":34963},{"buffer":0,"byteLength":13824,"byteOffset":687456,"target":34962},{"buffer":0,"byteLength":13824,"byteOffset":701280,"target":34962},{"buffer":0,"byteLength":9216,"byteOffset":715104,"target":34962},{"buffer":0,"byteLength":7440,"byteOffset":724320,"target":34963},{"buffer":0,"byteLength":11616,"byteOffset":731760,"target":34962},{"buffer":0,"byteLength":11616,"byteOffset":743376,"target":34962},{"buffer":0,"byteLength":7744,"byteOffset":754992,"target":34962},{"buffer":0,"byteLength":6000,"byteOffset":762736,"target":34963},{"buffer":0,"byteLength":3072,"byteOffset":768736,"target":34962},{"buffer":0,"byteLength":3072,"byteOffset":771808,"target":34962},{"buffer":0,"byteLength":2048,"byteOffset":774880,"target":34962},{"buffer":0,"byteLength":1536,"byteOffset":776928,"target":34963},{"buffer":0,"byteLength":2304,"byteOffset":778464,"target":34962},{"buffer":0,"byteLength":2304,"byteOffset":780768,"target":34962},{"buffer":0,"byteLength":1536,"byteOffset":783072,"target":34962},{"buffer":0,"byteLength":1056,"byteOffset":784608,"target":34963},{"buffer":0,"byteLength":13824,"byteOffset":785664,"target":34962},{"buffer":0,"byteLength":13824,"byteOffset":799488,"target":34962},{"buffer":0,"byteLength":9216,"byteOffset":813312,"target":34962},{"buffer":0,"byteLength":7440,"byteOffset":822528,"target":34963},{"buffer":0,"byteLength":11616,"byteOffset":829968,"target":34962},{"buffer":0,"byteLength":11616,"byteOffset":841584,"target":34962},{"buffer":0,"byteLength":7744,"byteOffset":853200,"target":34962},{"buffer":0,"byteLength":6000,"byteOffset":860944,"target":34963},{"buffer":0,"byteLength":3072,"byteOffset":866944,"target":34962},{"buffer":0,"byteLength":3072,"byteOffset":870016,"target":34962},{"buffer":0,"byteLength":2048,"byteOffset":873088,"target":34962},{"buffer":0,"byteLength":1536,"byteOffset":875136,"target":34963},{"buffer":0,"byteLength":2304,"byteOffset":876672,"target":34962},{"buffer":0,"byteLength":2304,"byteOffset":878976,"target":34962},{"buffer":0,"byteLength":1536,"byteOffset":881280,"target":34962},{"buffer":0,"byteLength":1056,"byteOffset":882816,"target":34963},{"buffer":0,"byteLength":13824,"byteOffset":883872,"target":34962},{"buffer":0,"byteLength":13824,"byteOffset":897696,"target":34962},{"buffer":0,"byteLength":9216,"byteOffset":911520,"target":34962},{"buffer":0,"byteLength":7440,"byteOffset":920736,"target":34963},{"buffer":0,"byteLength":11616,"byteOffset":928176,"target":34962},{"buffer":0,"byteLength":11616,"byteOffset":939792,"target":34962},{"buffer":0,"byteLength":7744,"byteOffset":951408,"target":34962},{"buffer":0,"byteLength":6000,"byteOffset":959152,"target":34963},{"buffer":0,"byteLength":3072,"byteOffset":965152,"target":34962},{"buffer":0,"byteLength":3072,"byteOffset":968224,"target":34962},{"buffer":0,"byteLength":2048,"byteOffset":971296,"target":34962},{"buffer":0,"byteLength":1536,"byteOffset":973344,"target":34963},{"buffer":0,"byteLength":2304,"byteOffset":974880,"target":34962},{"buffer":0,"byteLength":2304,"byteOffset":977184,"target":34962},{"buffer":0,"byteLength":1536,"byteOffset":979488,"target":34962},{"buffer":0,"byteLength":1056,"byteOffset":981024,"target":34963},{"buffer":0,"byteLength":12312,"byteOffset":982080,"target":34962},{"buffer":0,"byteLength":12312,"byteOffset":994392,"target":34962},{"buffer":0,"byteLength":8208,"byteOffset":1006704,"target":34962},{"buffer":0,"byteLength":6624,"byteOffset":1014912,"target":34963},{"buffer":0,"byteLength":13128,"byteOffset":1021536,"target":34962},{"buffer":0,"byteLength":13128,"byteOffset":1034664,"target":34962},{"buffer":0,"byteLength":8752,"byteOffset":1047792,"target":34962},{"buffer":0,"byteLength":6816,"byteOffset":1056544,"target":34963},{"buffer":0,"byteLength":3072,"byteOffset":1063360,"target":34962},{"buffer":0,"byteLength":3072,"byteOffset":1066432,"target":34962},{"buffer":0,"byteLength":2048,"byteOffset":1069504,"target":34962},{"buffer":0,"byteLength":1536,"byteOffset":1071552,"target":34963},{"buffer":0,"byteLength":2304,"byteOffset":1073088,"target":34962},{"buffer":0,"byteLength":2304,"byteOffset":1075392,"target":34962},{"buffer":0,"byteLength":1536,"byteOffset":1077696,"target":34962},{"buffer":0,"byteLength":1056,"byteOffset":1079232,"target":34963},{"buffer":0,"byteLength":13824,"byteOffset":1080288,"target":34962},{"buffer":0,"byteLength":13824,"byteOffset":1094112,"target":34962},{"buffer":0,"byteLength":9216,"byteOffset":1107936,"target":34962},{"buffer":0,"byteLength":7440,"byteOffset":1117152,"target":34963},{"buffer":0,"byteLength":11616,"byteOffset":1124592,"target":34962},{"buffer":0,"byteLength":11616,"byteOffset":1136208,"target":34962},{"buffer":0,"byteLength":7744,"byteOffset":1147824,"target":34962},{"buffer":0,"byteLength":6000,"byteOffset":1155568,"target":34963},{"buffer":0,"byteLength":3072,"byteOffset":1161568,"target":34962},{"buffer":0,"byteLength":3072,"byteOffset":1164640,"target":34962},{"buffer":0,"byteLength":2048,"byteOffset":1167712,"target":34962},{"buffer":0,"byteLength":1536,"byteOffset":1169760,"target":34963},{"buffer":0,"byteLength":2304,"byteOffset":1171296,"target":34962},{"buffer":0,"byteLength":2304,"byteOffset":1173600,"target":34962},{"buffer":0,"byteLength":1536,"byteOffset":1175904,"target":34962},{"buffer":0,"byteLength":1056,"byteOffset":1177440,"target":34963},{"buffer":0,"byteLength":13824,"byteOffset":1178496,"target":34962},{"buffer":0,"byteLength":13824,"byteOffset":1192320,"target":34962},{"buffer":0,"byteLength":9216,"byteOffset":1206144,"target":34962},{"buffer":0,"byteLength":7440,"byteOffset":1215360,"target":34963},{"buffer":0,"byteLength":11616,"byteOffset":1222800,"target":34962},{"buffer":0,"byteLength":11616,"byteOffset":1234416,"target":34962},{"buffer":0,"byteLength":7744,"byteOffset":1246032,"target":34962},{"buffer":0,"byteLength":6000,"byteOffset":1253776,"target":34963},{"buffer":0,"byteLength":3072,"byteOffset":1259776,"target":34962},{"buffer":0,"byteLength":3072,"byteOffset":1262848,"target":34962},{"buffer":0,"byteLength":2048,"byteOffset":1265920,"target":34962},{"buffer":0,"byteLength":1536,"byteOffset":1267968,"target":34963},{"buffer":0,"byteLength":2304,"byteOffset":1269504,"target":34962},{"buffer":0,"byteLength":2304,"byteOffset":1271808,"target":34962},{"buffer":0,"byteLength":1536,"byteOffset":1274112,"target":34962},{"buffer":0,"byteLength":1056,"byteOffset":1275648,"target":34963},{"buffer":0,"byteLength":13824,"byteOffset":1276704,"target":34962},{"buffer":0,"byteLength":13824,"byteOffset":1290528,"target":34962},{"buffer":0,"byteLength":9216,"byteOffset":1304352,"target":34962},{"buffer":0,"byteLength":7440,"byteOffset":1313568,"target":34963},{"buffer":0,"byteLength":11616,"byteOffset":1321008,"target":34962},{"buffer":0,"byteLength":11616,"byteOffset":1332624,"target":34962},{"buffer":0,"byteLength":7744,"byteOffset":1344240,"target":34962},{"buffer":0,"byteLength":6000,"byteOffset":1351984,"target":34963},{"buffer":0,"byteLength":3072,"byteOffset":1357984,"target":34962},{"buffer":0,"byteLength":3072,"byteOffset":1361056,"target":34962},{"buffer":0,"byteLength":2048,"byteOffset":1364128,"target":34962},{"buffer":0,"byteLength":1536,"byteOffset":1366176,"target":34963},{"buffer":0,"byteLength":2304,"byteOffset":1367712,"target":34962},{"buffer":0,"byteLength":2304,"byteOffset":1370016,"target":34962},{"buffer":0,"byteLength":1536,"byteOffset":1372320,"target":34962},{"buffer":0,"byteLength":1056,"byteOffset":1373856,"target":34963},{"buffer":0,"byteLength":13824,"byteOffset":1374912,"target":34962},{"buffer":0,"byteLength":13824,"byteOffset":1388736,"target":34962},{"buffer":0,"byteLength":9216,"byteOffset":1402560,"target":34962},{"buffer":0,"byteLength":7440,"byteOffset":1411776,"target":34963},{"buffer":0,"byteLength":11616,"byteOffset":1419216,"target":34962},{"buffer":0,"byteLength":11616,"byteOffset":1430832,"target":34962},{"buffer":0,"byteLength":7744,"byteOffset":1442448,"target":34962},{"buffer":0,"byteLength":6000,"byteOffset":1450192,"target":34963},{"buffer":0,"byteLength":3072,"byteOffset":1456192,"target":34962},{"buffer":0,"byteLength":3072,"byteOffset":1459264,"target":34962},{"buffer":0,"byteLength":2048,"byteOffset":1462336,"target":34962},{"buffer":0,"byteLength":1536,"byteOffset":1464384,"target":34963},{"buffer":0,"byteLength":2304,"byteOffset":1465920,"target":34962},{"buffer":0,"byteLength":2304,"byteOffset":1468224,"target":34962},{"buffer":0,"byteLength":1536,"byteOffset":1470528,"target":34962},{"buffer":0,"byteLength":1056,"byteOffset":1472064,"target":34963},{"buffer":0,"byteLength":13824,"byteOffset":1473120,"target":34962},{"buffer":0,"byteLength":13824,"byteOffset":1486944,"target":34962},{"buffer":0,"byteLength":9216,"byteOffset":1500768,"target":34962},{"buffer":0,"byteLength":7440,"byteOffset":1509984,"target":34963},{"buffer":0,"byteLength":11616,"byteOffset":1517424,"target":34962},{"buffer":0,"byteLength":11616,"byteOffset":1529040,"target":34962},{"buffer":0,"byteLength":7744,"byteOffset":1540656,"target":34962},{"buffer":0,"byteLength":6000,"byteOffset":1548400,"target":34963},{"buffer":0,"byteLength":3072,"byteOffset":1554400,"target":34962},{"buffer":0,"byteLength":3072,"byteOffset":1557472,"target":34962},{"buffer":0,"byteLength":2048,"byteOffset":1560544,"target":34962},{"buffer":0,"byteLength":1536,"byteOffset":1562592,"target":34963},{"buffer":0,"byteLength":2304,"byteOffset":1564128,"target":34962},{"buffer":0,"byteLength":2304,"byteOffset":1566432,"target":34962},{"buffer":0,"byteLength":1536,"byteOffset":1568736,"target":34962},{"buffer":0,"byteLength":1056,"byteOffset":1570272,"target":34963},{"buffer":0,"byteLength":12312,"byteOffset":1571328,"target":34962},{"buffer":0,"byteLength":12312,"byteOffset":1583640,"target":34962},{"buffer":0,"byteLength":8208,"byteOffset":1595952,"target":34962},{"buffer":0,"byteLength":6624,"byteOffset":1604160,"target":34963},{"buffer":0,"byteLength":13128,"byteOffset":1610784,"target":34962},{"buffer":0,"byteLength":13128,"byteOffset":1623912,"target":34962},{"buffer":0,"byteLength":8752,"byteOffset":1637040,"target":34962},{"buffer":0,"byteLength":6816,"byteOffset":1645792,"target":34963},{"buffer":0,"byteLength":3072,"byteOffset":1652608,"target":34962},{"buffer":0,"byteLength":3072,"byteOffset":1655680,"target":34962},{"buffer":0,"byteLength":2048,"byteOffset":1658752,"target":34962},{"buffer":0,"byteLength":1536,"byteOffset":1660800,"target":34963},{"buffer":0,"byteLength":2304,"byteOffset":1662336,"target":34962},{"buffer":0,"byteLength":2304,"byteOffset":1664640,"target":34962},{"buffer":0,"byteLength":1536,"byteOffset":1666944,"target":34962},{"buffer":0,"byteLength":1056,"byteOffset":1668480,"target":34963},{"buffer":0,"byteLength":12312,"byteOffset":1669536,"target":34962},{"buffer":0,"byteLength":12312,"byteOffset":1681848,"target":34962},{"buffer":0,"byteLength":8208,"byteOffset":1694160,"target":34962},{"buffer":0,"byteLength":6624,"byteOffset":1702368,"target":34963},{"buffer":0,"byteLength":13128,"byteOffset":1708992,"target":34962},{"buffer":0,"byteLength":13128,"byteOffset":1722120,"target":34962},{"buffer":0,"byteLength":8752,"byteOffset":1735248,"target":34962},{"buffer":0,"byteLength":6816,"byteOffset":1744000,"target":34963},{"buffer":0,"byteLength":3072,"byteOffset":1750816,"target":34962},{"buffer":0,"byteLength":3072,"byteOffset":1753888,"target":34962},{"buffer":0,"byteLength":2048,"byteOffset":1756960,"target":34962},{"buffer":0,"byteLength":1536,"byteOffset":1759008,"target":34963},{"buffer":0,"byteLength":2304,"byteOffset":1760544,"target":34962},{"buffer":0,"byteLength":2304,"byteOffset":1762848,"target":34962},{"buffer":0,"byteLength":1536,"byteOffset":1765152,"target":34962},{"buffer":0,"byteLength":1056,"byteOffset":1766688,"target":34963},{"buffer":0,"byteLength":12312,"byteOffset":1767744,"target":34962},{"buffer":0,"byteLength":12312,"byteOffset":1780056,"target":34962},{"buffer":0,"byteLength":8208,"byteOffset":1792368,"target":34962},{"buffer":0,"byteLength":6624,"byteOffset":1800576,"target":34963},{"buffer":0,"byteLength":13128,"byteOffset":1807200,"target":34962},{"buffer":0,"byteLength":13128,"byteOffset":1820328,"target":34962},{"buffer":0,"byteLength":8752,"byteOffset":1833456,"target":34962},{"buffer":0,"byteLength":6816,"byteOffset":1842208,"target":34963},{"buffer":0,"byteLength":3072,"byteOffset":1849024,"target":34962},{"buffer":0,"byteLength":3072,"byteOffset":1852096,"target":34962},{"buffer":0,"byteLength":2048,"byteOffset":1855168,"target":34962},{"buffer":0,"byteLength":1536,"byteOffset":1857216,"target":34963},{"buffer":0,"byteLength":2304,"byteOffset":1858752,"target":34962},{"buffer":0,"byteLength":2304,"byteOffset":1861056,"target":34962},{"buffer":0,"byteLength":1536,"byteOffset":1863360,"target":34962},{"buffer":0,"byteLength":1056,"byteOffset":1864896,"target":34963},{"buffer":0,"byteLength":13824,"byteOffset":1865952,"target":34962},{"buffer":0,"byteLength":13824,"byteOffset":1879776,"target":34962},{"buffer":0,"byteLength":9216,"byteOffset":1893600,"target":34962},{"buffer":0,"byteLength":7440,"byteOffset":1902816,"target":34963},{"buffer":0,"byteLength":11616,"byteOffset":1910256,"target":34962},{"buffer":0,"byteLength":11616,"byteOffset":1921872,"target":34962},{"buffer":0,"byteLength":7744,"byteOffset":1933488,"target":34962},{"buffer":0,"byteLength":6000,"byteOffset":1941232,"target":34963},{"buffer":0,"byteLength":3072,"byteOffset":1947232,"target":34962},{"buffer":0,"byteLength":3072,"byteOffset":1950304,"target":34962},{"buffer":0,"byteLength":2048,"byteOffset":1953376,"target":34962},{"buffer":0,"byteLength":1536,"byteOffset":1955424,"target":34963},{"buffer":0,"byteLength":2304,"byteOffset":1956960,"target":34962},{"buffer":0,"byteLength":2304,"byteOffset":1959264,"target":34962},{"buffer":0,"byteLength":1536,"byteOffset":1961568,"target":34962},{"buffer":0,"byteLength":1056,"byteOffset":1963104,"target":34963},{"buffer":0,"byteLength":13824,"byteOffset":1964160,"target":34962},{"buffer":0,"byteLength":13824,"byteOffset":1977984,"target":34962},{"buffer":0,"byteLength":9216,"byteOffset":1991808,"target":34962},{"buffer":0,"byteLength":7440,"byteOffset":2001024,"target":34963},{"buffer":0,"byteLength":11616,"byteOffset":2008464,"target":34962},{"buffer":0,"byteLength":11616,"byteOffset":2020080,"target":34962},{"buffer":0,"byteLength":7744,"byteOffset":2031696,"target":34962},{"buffer":0,"byteLength":6000,"byteOffset":2039440,"target":34963},{"buffer":0,"byteLength":3072,"byteOffset":2045440,"target":34962},{"buffer":0,"byteLength":3072,"byteOffset":2048512,"target":34962},{"buffer":0,"byteLength":2048,"byteOffset":2051584,"target":34962},{"buffer":0,"byteLength":1536,"byteOffset":2053632,"target":34963},{"buffer":0,"byteLength":2304,"byteOffset":2055168,"target":34962},{"buffer":0,"byteLength":2304,"byteOffset":2057472,"target":34962},{"buffer":0,"byteLength":1536,"byteOffset":2059776,"target":34962},{"buffer":0,"byteLength":1056,"byteOffset":2061312,"target":34963},{"buffer":0,"byteLength":2268,"byteOffset":2062368,"target":34962},{"buffer":0,"byteLength":2268,"byteOffset":2064636,"target":34962},{"buffer":0,"byteLength":1512,"byteOffset":2066904,"target":34962},{"buffer":0,"byteLength":1188,"byteOffset":2068416,"target":34963},{"buffer":0,"byteLength":1008,"byteOffset":2069604,"target":34962},{"buffer":0,"byteLength":1008,"byteOffset":2070612,"target":34962},{"buffer":0,"byteLength":672,"byteOffset":2071620,"target":34962},{"buffer":0,"byteLength":504,"byteOffset":2072292,"target":34963},{"buffer":0,"byteLength":1008,"byteOffset":2072796,"target":34962},{"buffer":0,"byteLength":1008,"byteOffset":2073804,"target":34962},{"buffer":0,"byteLength":672,"byteOffset":2074812,"target":34962},{"buffer":0,"byteLength":504,"byteOffset":2075484,"target":34963},{"buffer":0,"byteLength":1008,"byteOffset":2075988,"target":34962},{"buffer":0,"byteLength":1008,"byteOffset":2076996,"target":34962},{"buffer":0,"byteLength":672,"byteOffset":2078004,"target":34962},{"buffer":0,"byteLength":504,"byteOffset":2078676,"target":34963},{"buffer":0,"byteLength":1008,"byteOffset":2079180,"target":34962},{"buffer":0,"byteLength":1008,"byteOffset":2080188,"target":34962},{"buffer":0,"byteLength":672,"byteOffset":2081196,"target":34962},{"buffer":0,"byteLength":504,"byteOffset":2081868,"target":34963},{"buffer":0,"byteLength":1008,"byteOffset":2082372,"target":34962},{"buffer":0,"byteLength":1008,"byteOffset":2083380,"target":34962},{"buffer":0,"byteLength":672,"byteOffset":2084388,"target":34962},{"buffer":0,"byteLength":504,"byteOffset":2085060,"target":34963},{"buffer":0,"byteLength":1008,"byteOffset":2085564,"target":34962},{"buffer":0,"byteLength":1008,"byteOffset":2086572,"target":34962},{"buffer":0,"byteLength":672,"byteOffset":2087580,"target":34962},{"buffer":0,"byteLength":504,"byteOffset":2088252,"target":34963},{"buffer":0,"byteLength":1008,"byteOffset":2088756,"target":34962},{"buffer":0,"byteLength":1008,"byteOffset":2089764,"target":34962},{"buffer":0,"byteLength":672,"byteOffset":2090772,"target":34962},{"buffer":0,"byteLength":504,"byteOffset":2091444,"target":34963},{"buffer":0,"byteLength":1008,"byteOffset":2091948,"target":34962},{"buffer":0,"byteLength":1008,"byteOffset":2092956,"target":34962},{"buffer":0,"byteLength":672,"byteOffset":2093964,"target":34962},{"buffer":0,"byteLength":504,"byteOffset":2094636,"target":34963},{"buffer":0,"byteLength":1008,"byteOffset":2095140,"target":34962},{"buffer":0,"byteLength":1008,"byteOffset":2096148,"target":34962},{"buffer":0,"byteLength":672,"byteOffset":2097156,"target":34962},{"buffer":0,"byteLength":504,"byteOffset":2097828,"target":34963},{"buffer":0,"byteLength":1008,"byteOffset":2098332,"target":34962},{"buffer":0,"byteLength":1008,"byteOffset":2099340,"target":34962},{"buffer":0,"byteLength":672,"byteOffset":2100348,"target":34962},{"buffer":0,"byteLength":504,"byteOffset":2101020,"target":34963},{"buffer":0,"byteLength":1008,"byteOffset":2101524,"target":34962},{"buffer":0,"byteLength":1008,"byteOffset":2102532,"target":34962},{"buffer":0,"byteLength":672,"byteOffset":2103540,"target":34962},{"buffer":0,"byteLength":504,"byteOffset":2104212,"target":34963}],"buffers":[{"byteLength":2104716,"uri":"townsfolk.bin"}],"images":[{"uri":"../textures/cloth_blue_albedo.png"},{"uri":"../textures/cloth_blue_orm.png"},{"uri":"../textures/cloth_blue_normal.png"},{"uri":"../textures/skin_albedo.png"},{"uri":"../textures/skin_orm.png"},{"uri":"../textures/skin_normal.png"},{"uri":"../textures/hair_dark_albedo.png"},{"uri":"../textures/hair_dark_orm.png"},{"uri":"../textures/hair_dark_normal.png"},{"uri":"../textures/oak_dark_albedo.png"},{"uri":"../textures/oak_dark_orm.png"},{"uri":"../textures/oak_dark_normal.png"},{"uri":"../textures/cloth_rust_albedo.png"},{"uri":"../textures/cloth_rust_orm.png"},{"uri":"../textures/cloth_rust_normal.png"},{"uri":"../textures/hair_fair_albedo.png"},{"uri":"../textures/hair_fair_orm.png"},{"uri":"../textures/hair_fair_normal.png"},{"uri":"../textures/cloth_green_albedo.png"},{"uri":"../textures/cloth_green_orm.png"},{"uri":"../textures/cloth_green_normal.png"},{"uri":"../textures/cloth_cream_albedo.png"},{"uri":"../textures/cloth_cream_orm.png"},{"uri":"../textures/cloth_cream_normal.png"},{"uri":"../textures/cloth_brown_albedo.png"},{"uri":"../textures/cloth_brown_orm.png"},{"uri":"../textures/cloth_brown_normal.png"}],"materials":[{"doubleSided":false,"name":"cloth_blue","normalTexture":{"index":2,"scale":1.0},"occlusionTexture":{"index":1},"pbrMetallicRoughness":{"baseColorFactor":[1,1,1,1],"baseColorTexture":{"index":0},"metallicFactor":1.0,"metallicRoughnessTexture":{"index":1},"roughnessFactor":1.0}},{"doubleSided":false,"name":"skin","normalTexture":{"index":5,"scale":1.0},"occlusionTexture":{"index":4},"pbrMetallicRoughness":{"baseColorFactor":[1,1,1,1],"baseColorTexture":{"index":3},"metallicFactor":1.0,"metallicRoughnessTexture":{"index":4},"roughnessFactor":1.0}},{"doubleSided":false,"name":"hair_dark","normalTexture":{"index":8,"scale":1.0},"occlusionTexture":{"index":7},"pbrMetallicRoughness":{"baseColorFactor":[1,1,1,1],"baseColorTexture":{"index":6},"metallicFactor":1.0,"metallicRoughnessTexture":{"index":7},"roughnessFactor":1.0}},{"doubleSided":false,"name":"oak_dark","normalTexture":{"index":11,"scale":1.0},"occlusionTexture":{"index":10},"pbrMetallicRoughness":{"baseColorFactor":[1,1,1,1],"baseColorTexture":{"index":9},"metallicFactor":1.0,"metallicRoughnessTexture":{"index":10},"roughnessFactor":1.0}},{"doubleSided":false,"name":"cloth_rust","normalTexture":{"index":14,"scale":1.0},"occlusionTexture":{"index":13},"pbrMetallicRoughness":{"baseColorFactor":[1,1,1,1],"baseColorTexture":{"index":12},"metallicFactor":1.0,"metallicRoughnessTexture":{"index":13},"roughnessFactor":1.0}},{"doubleSided":false,"name":"hair_fair","normalTexture":{"index":17,"scale":1.0},"occlusionTexture":{"index":16},"pbrMetallicRoughness":{"baseColorFactor":[1,1,1,1],"baseColorTexture":{"index":15},"metallicFactor":1.0,"metallicRoughnessTexture":{"index":16},"roughnessFactor":1.0}},{"doubleSided":false,"name":"cloth_green","normalTexture":{"index":20,"scale":1.0},"occlusionTexture":{"index":19},"pbrMetallicRoughness":{"baseColorFactor":[1,1,1,1],"baseColorTexture":{"index":18},"metallicFactor":1.0,"metallicRoughnessTexture":{"index":19},"roughnessFactor":1.0}},{"doubleSided":false,"name":"cloth_cream","normalTexture":{"index":23,"scale":1.0},"occlusionTexture":{"index":22},"pbrMetallicRoughness":{"baseColorFactor":[1,1,1,1],"baseColorTexture":{"index":21},"metallicFactor":1.0,"metallicRoughnessTexture":{"index":22},"roughnessFactor":1.0}},{"doubleSided":false,"name":"cloth_brown","normalTexture":{"index":26,"scale":1.0},"occlusionTexture":{"index":25},"pbrMetallicRoughness":{"baseColorFactor":[1,1,1,1],"baseColorTexture":{"index":24},"metallicFactor":1.0,"metallicRoughnessTexture":{"index":25},"roughnessFactor":1.0}}],"meshes":[{"name":"townsfolk","primitives":[{"attributes":{"NORMAL":1,"POSITION":0,"TEXCOORD_0":2},"indices":3,"material":0},{"attributes":{"NORMAL":5,"POSITION":4,"TEXCOORD_0":6},"indices":7,"material":1},{"attributes":{"NORMAL":9,"POSITION":8,"TEXCOORD_0":10},"indices":11,"material":2},{"attributes":{"NORMAL":13,"POSITION":12,"TEXCOORD_0":14},"indices":15,"material":3},{"attributes":{"NORMAL":17,"POSITION":16,"TEXCOORD_0":18},"indices":19,"material":4},{"attributes":{"NORMAL":21,"POSITION":20,"TEXCOORD_0":22},"indices":23,"material":1},{"attributes":{"NORMAL":25,"POSITION":24,"TEXCOORD_0":26},"indices":27,"material":2},{"attributes":{"NORMAL":29,"POSITION":28,"TEXCOORD_0":30},"indices":31,"material":3},{"attributes":{"NORMAL":33,"POSITION":32,"TEXCOORD_0":34},"indices":35,"material":4},{"attributes":{"NORMAL":37,"POSITION":36,"TEXCOORD_0":38},"indices":39,"material":1},{"attributes":{"NORMAL":41,"POSITION":40,"TEXCOORD_0":42},"indices":43,"material":5},{"attributes":{"NORMAL":45,"POSITION":44,"TEXCOORD_0":46},"indices":47,"material":3},{"attributes":{"NORMAL":49,"POSITION":48,"TEXCOORD_0":50},"indices":51,"material":0},{"attributes":{"NORMAL":53,"POSITION":52,"TEXCOORD_0":54},"indices":55,"material":1},{"attributes":{"NORMAL":57,"POSITION":56,"TEXCOORD_0":58},"indices":59,"material":2},{"attributes":{"NORMAL":61,"POSITION":60,"TEXCOORD_0":62},"indices":63,"material":3},{"attributes":{"NORMAL":65,"POSITION":64,"TEXCOORD_0":66},"indices":67,"material":6},{"attributes":{"NORMAL":69,"POSITION":68,"TEXCOORD_0":70},"indices":71,"material":1},{"attributes":{"NORMAL":73,"POSITION":72,"TEXCOORD_0":74},"indices":75,"material":2},{"attributes":{"NORMAL":77,"POSITION":76,"TEXCOORD_0":78},"indices":79,"material":3},{"attributes":{"NORMAL":81,"POSITION":80,"TEXCOORD_0":82},"indices":83,"material":7},{"attributes":{"NORMAL":85,"POSITION":84,"TEXCOORD_0":86},"indices":87,"material":1},{"attributes":{"NORMAL":89,"POSITION":88,"TEXCOORD_0":90},"indices":91,"material":5},{"attributes":{"NORMAL":93,"POSITION":92,"TEXCOORD_0":94},"indices":95,"material":3},{"attributes":{"NORMAL":97,"POSITION":96,"TEXCOORD_0":98},"indices":99,"material":8},{"attributes":{"NORMAL":101,"POSITION":100,"TEXCOORD_0":102},"indices":103,"material":1},{"attributes":{"NORMAL":105,"POSITION":104,"TEXCOORD_0":106},"indices":107,"material":5},{"attributes":{"NORMAL":109,"POSITION":108,"TEXCOORD_0":110},"indices":111,"material":3},{"attributes":{"NORMAL":113,"POSITION":112,"TEXCOORD_0":114},"indices":115,"material":0},{"attributes":{"NORMAL":117,"POSITION":116,"TEXCOORD_0":118},"indices":119,"material":1},{"attributes":{"NORMAL":121,"POSITION":120,"TEXCOORD_0":122},"indices":123,"material":2},{"attributes":{"NORMAL":125,"POSITION":124,"TEXCOORD_0":126},"indices":127,"material":3},{"attributes":{"NORMAL":129,"POSITION":128,"TEXCOORD_0":130},"indices":131,"material":8},{"attributes":{"NORMAL":133,"POSITION":132,"TEXCOORD_0":134},"indices":135,"material":1},{"attributes":{"NORMAL":137,"POSITION":136,"TEXCOORD_0":138},"indices":139,"material":5},{"attributes":{"NORMAL":141,"POSITION":140,"TEXCOORD_0":142},"indices":143,"material":3},{"attributes":{"NORMAL":145,"POSITION":144,"TEXCOORD_0":146},"indices":147,"material":0},{"attributes":{"NORMAL":149,"POSITION":148,"TEXCOORD_0":150},"indices":151,"material":1},{"attributes":{"NORMAL":153,"POSITION":152,"TEXCOORD_0":154},"indices":155,"material":2},{"attributes":{"NORMAL":157,"POSITION":156,"TEXCOORD_0":158},"indices":159,"material":3},{"attributes":{"NORMAL":161,"POSITION":160,"TEXCOORD_0":162},"indices":163,"material":4},{"attributes":{"NORMAL":165,"POSITION":164,"TEXCOORD_0":166},"indices":167,"material":1},{"attributes":{"NORMAL":169,"POSITION":168,"TEXCOORD_0":170},"indices":171,"material":5},{"attributes":{"NORMAL":173,"POSITION":172,"TEXCOORD_0":174},"indices":175,"material":3},{"attributes":{"NORMAL":177,"POSITION":176,"TEXCOORD_0":178},"indices":179,"material":6},{"attributes":{"NORMAL":181,"POSITION":180,"TEXCOORD_0":182},"indices":183,"material":1},{"attributes":{"NORMAL":185,"POSITION":184,"TEXCOORD_0":186},"indices":187,"material":2},{"attributes":{"NORMAL":189,"POSITION":188,"TEXCOORD_0":190},"indices":191,"material":3},{"attributes":{"NORMAL":193,"POSITION":192,"TEXCOORD_0":194},"indices":195,"material":4},{"attributes":{"NORMAL":197,"POSITION":196,"TEXCOORD_0":198},"indices":199,"material":1},{"attributes":{"NORMAL":201,"POSITION":200,"TEXCOORD_0":202},"indices":203,"material":2},{"attributes":{"NORMAL":205,"POSITION":204,"TEXCOORD_0":206},"indices":207,"material":3},{"attributes":{"NORMAL":209,"POSITION":208,"TEXCOORD_0":210},"indices":211,"material":0},{"attributes":{"NORMAL":213,"POSITION":212,"TEXCOORD_0":214},"indices":215,"material":1},{"attributes":{"NORMAL":217,"POSITION":216,"TEXCOORD_0":218},"indices":219,"material":5},{"attributes":{"NORMAL":221,"POSITION":220,"TEXCOORD_0":222},"indices":223,"material":3},{"attributes":{"NORMAL":225,"POSITION":224,"TEXCOORD_0":226},"indices":227,"material":8},{"attributes":{"NORMAL":229,"POSITION":228,"TEXCOORD_0":230},"indices":231,"material":1},{"attributes":{"NORMAL":233,"POSITION":232,"TEXCOORD_0":234},"indices":235,"material":5},{"attributes":{"NORMAL":237,"POSITION":236,"TEXCOORD_0":238},"indices":239,"material":3},{"attributes":{"NORMAL":241,"POSITION":240,"TEXCOORD_0":242},"indices":243,"material":4},{"attributes":{"NORMAL":245,"POSITION":244,"TEXCOORD_0":246},"indices":247,"material":1},{"attributes":{"NORMAL":249,"POSITION":248,"TEXCOORD_0":250},"indices":251,"material":2},{"attributes":{"NORMAL":253,"POSITION":252,"TEXCOORD_0":254},"indices":255,"material":3},{"attributes":{"NORMAL":257,"POSITION":256,"TEXCOORD_0":258},"indices":259,"material":0},{"attributes":{"NORMAL":261,"POSITION":260,"TEXCOORD_0":262},"indices":263,"material":1},{"attributes":{"NORMAL":265,"POSITION":264,"TEXCOORD_0":266},"indices":267,"material":5},{"attributes":{"NORMAL":269,"POSITION":268,"TEXCOORD_0":270},"indices":271,"material":3},{"attributes":{"NORMAL":273,"POSITION":272,"TEXCOORD_0":274},"indices":275,"material":0},{"attributes":{"NORMAL":277,"POSITION":276,"TEXCOORD_0":278},"indices":279,"material":1},{"attributes":{"NORMAL":281,"POSITION":280,"TEXCOORD_0":282},"indices":283,"material":5},{"attributes":{"NORMAL":285,"POSITION":284,"TEXCOORD_0":286},"indices":287,"material":3},{"attributes":{"NORMAL":289,"POSITION":288,"TEXCOORD_0":290},"indices":291,"material":6},{"attributes":{"NORMAL":293,"POSITION":292,"TEXCOORD_0":294},"indices":295,"material":1},{"attributes":{"NORMAL":297,"POSITION":296,"TEXCOORD_0":298},"indices":299,"material":5},{"attributes":{"NORMAL":301,"POSITION":300,"TEXCOORD_0":302},"indices":303,"material":3},{"attributes":{"NORMAL":305,"POSITION":304,"TEXCOORD_0":306},"indices":307,"material":6},{"attributes":{"NORMAL":309,"POSITION":308,"TEXCOORD_0":310},"indices":311,"material":1},{"attributes":{"NORMAL":313,"POSITION":312,"TEXCOORD_0":314},"indices":315,"material":5},{"attributes":{"NORMAL":317,"POSITION":316,"TEXCOORD_0":318},"indices":319,"material":3},{"attributes":{"NORMAL":321,"POSITION":320,"TEXCOORD_0":322},"indices":323,"material":6},{"attributes":{"NORMAL":325,"POSITION":324,"TEXCOORD_0":326},"indices":327,"material":1},{"attributes":{"NORMAL":329,"POSITION":328,"TEXCOORD_0":330},"indices":331,"material":5},{"attributes":{"NORMAL":333,"POSITION":332,"TEXCOORD_0":334},"indices":335,"material":3},{"attributes":{"NORMAL":337,"POSITION":336,"TEXCOORD_0":338},"indices":339,"material":8},{"attributes":{"NORMAL":341,"POSITION":340,"TEXCOORD_0":342},"indices":343,"material":8},{"attributes":{"NORMAL":345,"POSITION":344,"TEXCOORD_0":346},"indices":347,"material":7},{"attributes":{"NORMAL":349,"POSITION":348,"TEXCOORD_0":350},"indices":351,"material":7},{"attributes":{"NORMAL":353,"POSITION":352,"TEXCOORD_0":354},"indices":355,"material":8},{"attributes":{"NORMAL":357,"POSITION":356,"TEXCOORD_0":358},"indices":359,"material":7},{"attributes":{"NORMAL":361,"POSITION":360,"TEXCOORD_0":362},"indices":363,"material":7},{"attributes":{"NORMAL":365,"POSITION":364,"TEXCOORD_0":366},"indices":367,"material":8},{"attributes":{"NORMAL":369,"POSITION":368,"TEXCOORD_0":370},"indices":371,"material":8},{"attributes":{"NORMAL":373,"POSITION":372,"TEXCOORD_0":374},"indices":375,"material":7},{"attributes":{"NORMAL":377,"POSITION":376,"TEXCOORD_0":378},"indices":379,"material":8},{"attributes":{"NORMAL":381,"POSITION":380,"TEXCOORD_0":382},"indices":383,"material":8}]}],"nodes":[{"mesh":0,"name":"townsfolk"}],"samplers":[{"magFilter":9729,"minFilter":9987,"wrapS":10497,"wrapT":10497}],"scene":0,"scenes":[{"nodes":[0]}],"textures":[{"sampler":0,"source":0},{"sampler":0,"source":1},{"sampler":0,"source":2},{"sampler":0,"source":3},{"sampler":0,"source":4},{"sampler":0,"source":5},{"sampler":0,"source":6},{"sampler":0,"source":7},{"sampler":0,"source":8},{"sampler":0,"source":9},{"sampler":0,"source":10},{"sampler":0,"source":11},{"sampler":0,"source":12},{"sampler":0,"source":13},{"sampler":0,"source":14},{"sampler":0,"source":15},{"sampler":0,"source":16},{"sampler":0,"source":17},{"sampler":0,"source":18},{"sampler":0,"source":19},{"sampler":0,"source":20},{"sampler":0,"source":21},{"sampler":0,"source":22},{"sampler":0,"source":23},{"sampler":0,"source":24},{"sampler":0,"source":25},{"sampler":0,"source":26}]}