{"accessors":[{"bufferView":0,"componentType":5122,"count":96,"max":[32767.0,-27527.0,29151.0],"min":[-32767.0,-32767.0,-32767.0],"normalized":true,"type":"VEC3"},{"bufferView":1,"componentType":5120,"count":96,"normalized":true,"type":"VEC3"},{"bufferView":2,"componentType":5123,"count":132,"type":"SCALAR"},{"bufferView":3,"componentType":5122,"count":288,"max":[26796.0,32767.0,4955.0],"min":[16980.0,-27572.0,-1980.0],"normalized":true,"type":"VEC3"},{"bufferView":4,"componentType":5120,"count":288,"normalized":true,"type":"VEC3"},{"bufferView":5,"componentType":5123,"count":396,"type":"SCALAR"},{"bufferView":6,"componentType":5122,"count":3712,"max":[24173.0,-26321.0,32767.0],"min":[-10471.0,-27893.0,-12371.0],"normalized":true,"type":"VEC3"},{"bufferView":7,"componentType":5120,"count":3712,"normalized":true,"type":"VEC3"},{"bufferView":8,"componentType":5123,"count":6000,"type":"SCALAR"},{"bufferView":9,"componentType":5122,"count":192,"max":[18664.0,-22286.0,6621.0],"min":[7406.0,-29623.0,-807.0],"normalized":true,"type":"VEC3"},{"bufferView":10,"componentType":5120,"count":192,"normalized":true,"type":"VEC3"},{"bufferView":11,"componentType":5123,"count":264,"type":"SCALAR"},{"bufferView":12,"componentType":5122,"count":354,"max":[32767.0,32767.0,29098.0],"min":[-32767.0,-32767.0,-32767.0],"normalized":true,"type":"VEC3"},{"bufferView":13,"componentType":5120,"count":354,"normalized":true,"type":"VEC3"},{"bufferView":14,"componentType":5123,"count":354,"type":"SCALAR"},{"bufferView":15,"componentType":5122,"count":2847,"max":[24170.0,-26288.0,32767.0],"min":[-10470.0,-27868.0,-12402.0],"normalized":true,"type":"VEC3"},{"bufferView":16,"componentType":5120,"count":2847,"normalized":true,"type":"VEC3"},{"bufferView":17,"componentType":5123,"count":2847,"type":"SCALAR"},{"bufferView":18,"componentType":5122,"count":108,"max":[32767.0,32767.0,29068.0],"min":[-32767.0,-32767.0,-32767.0],"normalized":true,"type":"VEC3"},{"bufferView":19,"componentType":5120,"count":108,"normalized":true,"type":"VEC3"},{"bufferView":20,"componentType":5123,"count":108,"type":"SCALAR"},{"bufferView":21,"componentType":5122,"count":888,"max":[24168.0,-28753.0,32767.0],"min":[-10466.0,-30403.0,-12419.0],"normalized":true,"type":"VEC3"},{"bufferView":22,"componentType":5120,"count":888,"normalized":true,"type":"VEC3"},{"bufferView":23,"componentType":5123,"count":888,"type":"SCALAR"},{"bufferView":24,"componentType":5122,"count":18,"max":[32767.0,32767.0,29070.0],"min":[-32767.0,-32767.0,-32767.0],"normalized":true,"type":"VEC3"},{"bufferView":25,"componentType":5120,"count":18,"normalized":true,"type":"VEC3"},{"bufferView":26,"componentType":5123,"count":18,"type":"SCALAR"},{"bufferView":27,"componentType":5122,"count":165,"max":[22665.0,-29524.0,32767.0],"min":[-9045.0,-29976.0,-10682.0],"normalized":true,"type":"VEC3"},{"bufferView":28,"componentType":5120,"count":165,"normalized":true,"type":"VEC3"},{"bufferView":29,"componentType":5123,"count":165,"type":"SCALAR"},{"bufferView":30,"componentType":5122,"count":456,"max":[18935.0,-3772.0,23376.0],"min":[-3896.0,-32204.0,2842.0],"normalized":true,"type":"VEC3"},{"bufferView":31,"componentType":5120,"count":456,"normalized":true,"type":"VEC3"},{"bufferView":32,"componentType":5123,"count":684,"type":"SCALAR"},{"bufferView":33,"componentType":5122,"count":25556,"max":[29310.0,32767.0,32767.0],"min":[-32767.0,-32250.0,-21931.0],"normalized":true,"type":"VEC3"},{"bufferView":34,"componentType":5120,"count":25556,"normalized":true,"type":"VEC3"},{"bufferView":35,"componentType":5123,"count":38106,"type":"SCALAR"},{"bufferView":36,"componentType":5122,"count":288,"max":[32767.0,-29768.0,31241.0],"min":[-25697.0,-32767.0,-32767.0],"normalized":true,"type":"VEC3"},{"bufferView":37,"componentType":5120,"count":288,"normalized":true,"type":"VEC3"},{"bufferView":38,"componentType":5123,"count":396,"type":"SCALAR"},{"bufferView":39,"componentType":5122,"count":19386,"max":[29398.0,32767.0,32767.0],"min":[-32767.0,-32250.0,-21926.0],"normalized":true,"type":"VEC3"},{"bufferView":40,"componentType":5120,"count":19386,"normalized":true,"type":"VEC3"},{"bufferView":41,"componentType":5123,"count":19386,"type":"SCALAR"},{"bufferView":42,"componentType":5122,"count":180,"max":[32767.0,-29768.0,31150.0],"min":[-25586.0,-32767.0,-32767.0],"normalized":true,"type":"VEC3"},{"bufferView":43,"componentType":5120,"count":180,"normalized":true,"type":"VEC3"},{"bufferView":44,"componentType":5123,"count":180,"type":"SCALAR"},{"bufferView":45,"componentType":5122,"count":6171,"max":[32767.0,32767.0,32767.0],"min":[-32767.0,-32767.0,-32767.0],"normalized":true,"type":"VEC3"},{"bufferView":46,"componentType":5120,"count":6171,"normalized":true,"type":"VEC3"},{"bufferView":47,"componentType":5123,"count":6171,"type":"SCALAR"},{"bufferView":48,"componentType":5122,"count":1134,"max":[32767.0,32767.0,32767.0],"min":[-32767.0,-32767.0,-32767.0],"normalized":true,"type":"VEC3"},{"bufferView":49,"componentType":5120,"count":1134,"normalized":true,"type":"VEC3"},{"bufferView":50,"componentType":5123,"count":1134,"type":"SCALAR"},{"bufferView":51,"componentType":5122,"count":456,"max":[18393.0,-3511.0,-3413.0],"min":[-2640.0,-31740.0,-18420.0],"normalized":true,"type":"VEC3"},{"bufferView":52,"componentType":5120,"count":456,"normalized":true,"type":"VEC3"},{"bufferView":53,"componentType":5123,"count":684,"type":"SCALAR"},{"bufferView":54,"componentType":5122,"count":23000,"max":[27549.0,32767.0,4307.0],"min":[-32767.0,-32767.0,-32767.0],"normalized":true,"type":"VEC3"},{"bufferView":55,"componentType":5120,"count":23000,"normalized":true,"type":"VEC3"},{"bufferView":56,"componentType":5123,"count":35976,"type":"SCALAR"},{"bufferView":57,"componentType":5122,"count":1760,"max":[32767.0,-30959.0,32767.0],"min":[-7520.0,-31597.0,-20794.0],"normalized":true,"type":"VEC3"},{"bufferView":58,"componentType":5120,"count":1760,"normalized":true,"type":"VEC3"},{"bufferView":59,"componentType":5123,"count":2868,"type":"SCALAR"},{"bufferView":60,"componentType":5122,"count":456,"max":[31338.0,-17931.0,25776.0],"min":[-18621.0,-32299.0,-1911.0],"normalized":true,"type":"VEC3"},{"bufferView":61,"componentType":5120,"count":456,"normalized":true,"type":"VEC3"},{"bufferView":62,"componentType":5123,"count":672,"type":"SCALAR"},{"bufferView":63,"componentType":5122,"count":48,"max":[-29745.0,-25580.0,-11566.0],"min":[-32563.0,-25580.0,-13858.0],"normalized":true,"type":"VEC3"},{"bufferView":64,"componentType":5120,"count":48,"normalized":true,"type":"VEC3"},{"bufferView":65,"componentType":5123,"count":72,"type":"SCALAR"},{"bufferView":66,"componentType":5122,"count":17121,"max":[27547.0,32767.0,4297.0],"min":[-32767.0,-32767.0,-32767.0],"normalized":true,"type":"VEC3"},{"bufferView":67,"componentType":5120,"count":17121,"normalized":true,"type":"VEC3"},{"bufferView":68,"componentType":5123,"count":17121,"type":"SCALAR"},{"bufferView":69,"componentType":5122,"count":1323,"max":[32767.0,-30959.0,32767.0],"min":[-7533.0,-31597.0,-20813.0],"normalized":true,"type":"VEC3"},{"bufferView":70,"componentType":5120,"count":1323,"normalized":true,"type":"VEC3"},{"bufferView":71,"componentType":5123,"count":1323,"type":"SCALAR"},{"bufferView":72,"componentType":5122,"count":303,"max":[31247.0,-18120.0,25747.0],"min":[-18540.0,-32299.0,-1887.0],"normalized":true,"type":"VEC3"},{"bufferView":73,"componentType":5120,"count":303,"normalized":true,"type":"VEC3"},{"bufferView":74,"componentType":5123,"count":303,"type":"SCALAR"},{"bufferView":75,"componentType":5122,"count":5469,"max":[31247.0,32767.0,25684.0],"min":[-32767.0,-32767.0,-32767.0],"normalized":true,"type":"VEC3"},{"bufferView":76,"componentType":5120,"count":5469,"normalized":true,"type":"VEC3"},{"bufferView":77,"componentType":5123,"count":5469,"type":"SCALAR"},{"bufferView":78,"componentType":5122,"count":396,"max":[32767.0,-30953.0,32767.0],"min":[-7530.0,-31593.0,-20805.0],"normalized":true,"type":"VEC3"},{"bufferView":79,"componentType":5120,"count":396,"normalized":true,"type":"VEC3"},{"bufferView":80,"componentType":5123,"count":396,"type":"SCALAR"},{"bufferView":81,"componentType":5122,"count":1041,"max":[31280.0,32767.0,27081.0],"min":[-32767.0,-32767.0,-32767.0],"normalized":true,"type":"VEC3"},{"bufferView":82,"componentType":5120,"count":1041,"normalized":true,"type":"VEC3"},{"bufferView":83,"componentType":5123,"count":1041,"type":"SCALAR"},{"bufferView":84,"componentType":5122,"count":72,"max":[32767.0,-31298.0,32767.0],"min":[-7949.0,-31666.0,-16097.0],"normalized":true,"type":"VEC3"},{"bufferView":85,"componentType":5120,"count":72,"normalized":true,"type":"VEC3"},{"bufferView":86,"componentType":5123,"count":72,"type":"SCALAR"},{"bufferView":87,"componentType":5122,"count":21520,"max":[32576.0,32741.0,32767.0],"min":[-32576.0,-32675.0,-32767.0],"normalized":true,"type":"VEC3"},{"bufferView":88,"componentType":5120,"count":21520,"normalized":true,"type":"VEC3"},{"bufferView":89,"componentType":5123,"count":30924,"type":"SCALAR"},{"bufferView":90,"componentType":5122,"count":576,"max":[29455.0,7157.0,28916.0],"min":[-29455.0,5751.0,-28916.0],"normalized":true,"type":"VEC3"},{"bufferView":91,"componentType":5120,"count":576,"normalized":true,"type":"VEC3"},{"bufferView":92,"componentType":5123,"count":792,"type":"SCALAR"},{"bufferView":93,"componentType":5122,"count":36,"max":[32767.0,31940.0,32707.0],"min":[-32767.0,7447.0,-32707.0],"normalized":true,"type":"VEC3"},{"bufferView":94,"componentType":5120,"count":36,"normalized":true,"type":"VEC3"},{"bufferView":95,"componentType":5123,"count":48,"type":"SCALAR"},{"bufferView":96,"componentType":5122,"count":384,"max":[285.0,-31609.0,1393.0],"min":[-30115.0,-32767.0,-18411.0],"normalized":true,"type":"VEC3"},{"bufferView":97,"componentType":5120,"count":384,"normalized":true,"type":"VEC3"},{"bufferView":98,"componentType":5123,"count":528,"type":"SCALAR"},{"bufferView":99,"componentType":5122,"count":6048,"max":[32507.0,32767.0,32631.0],"min":[-32516.0,7458.0,-32626.0],"normalized":true,"type":"VEC3"},{"bufferView":100,"componentType":5120,"count":6048,"normalized":true,"type":"VEC3"},{"bufferView":101,"componentType":5121,"count":6048,"normalized":true,"type":"VEC4"},{"bufferView":102,"componentType":5123,"count":8316,"type":"SCALAR"},{"bufferView":103,"componentType":5122,"count":14076,"max":[32767.0,32741.0,32767.0],"min":[-32575.0,-32675.0,-32767.0],"normalized":true,"type":"VEC3"},{"bufferView":104,"componentType":5120,"count":14076,"normalized":true,"type":"VEC3"},{"bufferView":105,"componentType":5123,"count":14076,"type":"SCALAR"},{"bufferView":106,"componentType":5122,"count":384,"max":[29636.0,7157.0,28898.0],"min":[-29428.0,5751.0,-28898.0],"normalized":true,"type":"VEC3"},{"bufferView":107,"componentType":5120,"count":384,"normalized":true,"type":"VEC3"},{"bufferView":108,"componentType":5123,"count":384,"type":"SCALAR"},{"bufferView":109,"componentType":5122,"count":24,"max":[32688.0,31940.0,32545.0],"min":[-32767.0,7447.0,-32545.0],"normalized":true,"type":"VEC3"},{"bufferView":110,"componentType":5120,"count":24,"normalized":true,"type":"VEC3"},{"bufferView":111,"componentType":5123,"count":24,"type":"SCALAR"},{"bufferView":112,"componentType":5122,"count":3951,"max":[32705.0,32767.0,32628.0],"min":[-32500.0,-32767.0,-32630.0],"normalized":true,"type":"VEC3"},{"bufferView":113,"componentType":5120,"count":3951,"normalized":true,"type":"VEC3"},{"bufferView":114,"componentType":5121,"count":3951,"normalized":true,"type":"VEC4"},{"bufferView":115,"componentType":5123,"count":3951,"type":"SCALAR"},{"bufferView":116,"componentType":5122,"count":3960,"max":[32742.0,32767.0,32767.0],"min":[-32566.0,-32749.0,-32767.0],"normalized":true,"type":"VEC3"},{"bufferView":117,"componentType":5120,"count":3960,"normalized":true,"type":"VEC3"},{"bufferView":118,"componentType":5123,"count":3960,"type":"SCALAR"},{"bufferView":119,"componentType":5122,"count":1221,"max":[32767.0,32413.0,32625.0],"min":[-32767.0,-32767.0,-32623.0],"normalized":true,"type":"VEC3"},{"bufferView":120,"componentType":5120,"count":1221,"normalized":true,"type":"VEC3"},{"bufferView":121,"componentType":5121,"count":1221,"normalized":true,"type":"VEC4"},{"bufferView":122,"componentType":5123,"count":1221,"type":"SCALAR"},{"bufferView":123,"componentType":5122,"count":708,"max":[32752.0,32767.0,32767.0],"min":[-32767.0,-32767.0,-32767.0],"normalized":true,"type":"VEC3"},{"bufferView":124,"componentType":5120,"count":708,"normalized":true,"type":"VEC3"},{"bufferView":125,"componentType":5123,"count":708,"type":"SCALAR"},{"bufferView":126,"componentType":5122,"count":240,"max":[32767.0,32249.0,31334.0],"min":[-32604.0,-32694.0,-32250.0],"normalized":true,"type":"VEC3"},{"bufferView":127,"componentType":5120,"count":240,"normalized":true,"type":"VEC3"},{"bufferView":128,"componentType":5121,"count":240,"normalized":true,"type":"VEC4"},{"bufferView":129,"componentType":5123,"count":240,"type":"SCALAR"},{"bufferView":130,"componentType":5122,"count":96,"normalized":true,"type":"VEC2"},{"bufferView":131,"componentType":5122,"count":288,"normalized":true,"type":"VEC2"},{"bufferView":132,"componentType":5122,"count":3712,"normalized":true,"type":"VEC2"},{"bufferView":133,"componentType":5122,"count":192,"normalized":true,"type":"VEC2"},{"bufferView":134,"componentType":5122,"count":354,"normalized":true,"type":"VEC2"},{"bufferView":135,"componentType":5122,"count":2847,"normalized":true,"type":"VEC2"},{"bufferView":136,"componentType":5122,"count":108,"normalized":true,"type":"VEC2"},{"bufferView":137,"componentType":5122,"count":888,"normalized":true,"type":"VEC2"},{"bufferView":138,"componentType":5122,"count":18,"normalized":true,"type":"VEC2"},{"bufferView":139,"componentType":5122,"count":165,"normalized":true,"type":"VEC2"},{"bufferView":140,"componentType":5122,"count":456,"normalized":true,"type":"VEC2"},{"bufferView":141,"componentType":5122,"count":25556,"normalized":true,"type":"VEC2"},{"bufferView":142,"componentType":5122,"count":288,"normalized":true,"type":"VEC2"},{"bufferView":143,"componentType":5122,"count":19386,"normalized":true,"type":"VEC2"},{"bufferView":144,"componentType":5122,"count":180,"normalized":true,"type":"VEC2"},{"bufferView":145,"componentType":5122,"count":6171,"normalized":true,"type":"VEC2"},{"bufferView":146,"componentType":5122,"count":1134,"normalized":true,"type":"VEC2"},{"bufferView":147,"componentType":5122,"count":456,"normalized":true,"type":"VEC2"},{"bufferView":148,"componentType":5122,"count":23000,"normalized":true,"type":"VEC2"},{"bufferView":149,"componentType":5122,"count":1760,"normalized":true,"type":"VEC2"},{"bufferView":150,"componentType":5122,"count":456,"normalized":true,"type":"VEC2"},{"bufferView":151,"componentType":5122,"count":48,"normalized":true,"type":"VEC2"},{"bufferView":152,"componentType":5122,"count":17121,"normalized":true,"type":"VEC2"},{"bufferView":153,"componentType":5122,"count":1323,"normalized":true,"type":"VEC2"},{"bufferView":154,"componentType":5122,"count":303,"normalized":true,"type":"VEC2"},{"bufferView":155,"componentType":5122,"count":5469,"normalized":true,"type":"VEC2"},{"bufferView":156,"componentType":5122,"count":396,"normalized":true,"type":"VEC2"},{"bufferView":157,"componentType":5122,"count":1041,"normalized":true,"type":"VEC2"},{"bufferView":158,"componentType":5122,"count":72,"normalized":true,"type":"VEC2"},{"bufferView":159,"componentType":5122,"count":21520,"normalized":true,"type":"VEC2"},{"bufferView":160,"componentType":5122,"count":576,"normalized":true,"type":"VEC2"},{"bufferView":161,"componentType":5122,"count":36,"normalized":true,"type":"VEC2"},{"bufferView":162,"componentType":5122,"count":384,"normalized":true,"type":"VEC2"},{"bufferView":163,"componentType":5122,"count":6048,"normalized":true,"type":"VEC2"},{"bufferView":164,"componentType":5122,"count":14076,"normalized":true,"type":"VEC2"},{"bufferView":165,"componentType":5122,"count":384,"normalized":true,"type":"VEC2"},{"bufferView":166,"componentType":5122,"count":24,"normalized":true,"type":"VEC2"},{"bufferView":167,"componentType":5122,"count":3951,"normalized":true,"type":"VEC2"},{"bufferView":168,"componentType":5122,"count":3960,"normalized":true,"type":"VEC2"},{"bufferView":169,"componentType":5122,"count":1221,"normalized":true,"type":"VEC2"},{"bufferView":170,"componentType":5122,"count":708,"normalized":true,"type":"VEC2"},{"bufferView":171,"componentType":5122,"count":240,"normalized":true,"type":"VEC2"}],"asset":{"generator":"evermore assetgen","version":"2.0"},"bufferViews":[{"buffer":0,"byteLength":768,"byteOffset":0,"byteStride":8,"target":34962},{"buffer":0,"byteLength":384,"byteOffset":768,"byteStride":4,"target":34962},{"buffer":0,"byteLength":264,"byteOffset":1152,"target":34963},{"buffer":0,"byteLength":2304,"byteOffset":1416,"byteStride":8,"target":34962},{"buffer":0,"byteLength":1152,"byteOffset":3720,"byteStride":4,"target":34962},{"buffer":0,"byteLength":792,"byteOffset":4872,"target":34963},{"buffer":0,"byteLength":29696,"byteOffset":5664,"byteStride":8,"target":34962},{"buffer":0,"byteLength":14848,"byteOffset":35360,"byteStride":4,"target":34962},{"buffer":0,"byteLength":12000,"byteOffset":50208,"target":34963},{"buffer":0,"byteLength":1536,"byteOffset":62208,"byteStride":8,"target":34962},{"buffer":0,"byteLength":768,"byteOffset":63744,"byteStride":4,"target":34962},{"buffer":0,"byteLength":528,"byteOffset":64512,"target":34963},{"buffer":0,"byteLength":2832,"byteOffset":65040,"byteStride":8,"target":34962},{"buffer":0,"byteLength":1416,"byteOffset":67872,"byteStride":4,"target":34962},{"buffer":0,"byteLength":708,"byteOffset":69288,"target":34963},{"buffer":0,"byteLength":22776,"byteOffset":69996,"byteStride":8,"target":34962},{"buffer":0,"byteLength":11388,"byteOffset":92772,"byteStride":4,"target":34962},{"buffer":0,"byteLength":5694,"byteOffset":104160,"target":34963},{"buffer":0,"byteLength":864,"byteOffset":109856,"byteStride":8,"target":34962},{"buffer":0,"byteLength":432,"byteOffset":110720,"byteStride":4,"target":34962},{"buffer":0,"byteLength":216,"byteOffset":111152,"target":34963},{"buffer":0,"byteLength":7104,"byteOffset":111368,"byteStride":8,"target":34962},{"buffer":0,"byteLength":3552,"byteOffset":118472,"byteStride":4,"target":34962},{"buffer":0,"byteLength":1776,"byteOffset":122024,"target":34963},{"buffer":0,"byteLength":144,"byteOffset":123800,"byteStride":8,"target":34962},{"buffer":0,"byteLength":72,"byteOffset":123944,"byteStride":4,"target":34962},{"buffer":0,"byteLength":36,"byteOffset":124016,"target":34963},{"buffer":0,"byteLength":1320,"byteOffset":124052,"byteStride":8,"target":34962},{"buffer":0,"byteLength":660,"byteOffset":125372,"byteStride":4,"target":34962},{"buffer":0,"byteLength":330,"byteOffset":126032,"target":34963},{"buffer":0,"byteLength":3648,"byteOffset":126364,"byteStride":8,"target":34962},{"buffer":0,"byteLength":1824,"byteOffset":130012,"byteStride":4,"target":34962},{"buffer":0,"byteLength":1368,"byteOffset":131836,"target":34963},{"buffer":0,"byteLength":204448,"byteOffset":133204,"byteStride":8,"target":34962},{"buffer":0,"byteLength":102224,"byteOffset":337652,"byteStride":4,"target":34962},{"buffer":0,"byteLength":76212,"byteOffset":439876,"target":34963},{"buffer":0,"byteLength":2304,"byteOffset":516088,"byteStride":8,"target":34962},{"buffer":0,"byteLength":1152,"byteOffset":518392,"byteStride":4,"target":34962},{"buffer":0,"byteLength":792,"byteOffset":519544,"target":34963},{"buffer":0,"byteLength":155088,"byteOffset":520336,"byteStride":8,"target":34962},{"buffer":0,"byteLength":77544,"byteOffset":675424,"byteStride":4,"target":34962},{"buffer":0,"byteLength":38772,"byteOffset":752968,"target":34963},{"buffer":0,"byteLength":1440,"byteOffset":791740,"byteStride":8,"target":34962},{"buffer":0,"byteLength":720,"byteOffset":793180,"byteStride":4,"target":34962},{"buffer":0,"byteLength":360,"byteOffset":793900,"target":34963},{"buffer":0,"byteLength":49368,"byteOffset":794260,"byteStride":8,"target":34962},{"buffer":0,"byteLength":24684,"byteOffset":843628,"byteStride":4,"target":34962},{"buffer":0,"byteLength":12342,"byteOffset":868312,"target":34963},{"buffer":0,"byteLength":9072,"byteOffset":880656,"byteStride":8,"target":34962},{"buffer":0,"byteLength":4536,"byteOffset":889728,"byteStride":4,"target":34962},{"buffer":0,"byteLength":2268,"byteOffset":894264,"target":34963},{"buffer":0,"byteLength":3648,"byteOffset":896532,"byteStride":8,"target":34962},{"buffer":0,"byteLength":1824,"byteOffset":900180,"byteStride":4,"target":34962},{"buffer":0,"byteLength":1368,"byteOffset":902004,"target":34963},{"buffer":0,"byteLength":184000,"byteOffset":903372,"byteStride":8,"target":34962},{"buffer":0,"byteLength":92000,"byteOffset":1087372,"byteStride":4,"target":34962},{"buffer":0,"byteLength":71952,"byteOffset":1179372,"target":34963},{"buffer":0,"byteLength":14080,"byteOffset":1251324,"byteStride":8,"target":34962},{"buffer":0,"byteLength":7040,"byteOffset":1265404,"byteStride":4,"target":34962},{"buffer":0,"byteLength":5736,"byteOffset":1272444,"target":34963},{"buffer":0,"byteLength":3648,"byteOffset":1278180,"byteStride":8,"target":34962},{"buffer":0,"byteLength":1824,"byteOffset":1281828,"byteStride":4,"target":34962},{"buffer":0,"byteLength":1344,"byteOffset":1283652,"target":34963},{"buffer":0,"byteLength":384,"byteOffset":1284996,"byteStride":8,"target":34962},{"buffer":0,"byteLength":192,"byteOffset":1285380,"byteStride":4,"target":34962},{"buffer":0,"byteLength":144,"byteOffset":1285572,"target":34963},{"buffer":0,"byteLength":136968,"byteOffset":1285716,"byteStride":8,"target":34962},{"buffer":0,"byteLength":68484,"byteOffset":1422684,"byteStride":4,"target":34962},{"buffer":0,"byteLength":34242,"byteOffset":1491168,"target":34963},{"buffer":0,"byteLength":10584,"byteOffset":1525412,"byteStride":8,"target":34962},{"buffer":0,"byteLength":5292,"byteOffset":1535996,"byteStride":4,"target":34962},{"buffer":0,"byteLength":2646,"byteOffset":1541288,"target":34963},{"buffer":0,"byteLength":2424,"byteOffset":1543936,"byteStride":8,"target":34962},{"buffer":0,"byteLength":1212,"byteOffset":1546360,"byteStride":4,"target":34962},{"buffer":0,"byteLength":606,"byteOffset":1547572,"target":34963},{"buffer":0,"byteLength":43752,"byteOffset":1548180,"byteStride":8,"target":34962},{"buffer":0,"byteLength":21876,"byteOffset":1591932,"byteStride":4,"target":34962},{"buffer":0,"byteLength":10938,"byteOffset":1613808,"target":34963},{"buffer":0,"byteLength":3168,"byteOffset":1624748,"byteStride":8,"target":34962},{"buffer":0,"byteLength":1584,"byteOffset":1627916,"byteStride":4,"target":34962},{"buffer":0,"byteLength":792,"byteOffset":1629500,"target":34963},{"buffer":0,"byteLength":8328,"byteOffset":1630292,"byteStride":8,"target":34962},{"buffer":0,"byteLength":4164,"byteOffset":1638620,"byteStride":4,"target":34962},{"buffer":0,"byteLength":2082,"byteOffset":1642784,"target":34963},{"buffer":0,"byteLength":576,"byteOffset":1644868,"byteStride":8,"target":34962},{"buffer":0,"byteLength":288,"byteOffset":1645444,"byteStride":4,"target":34962},{"buffer":0,"byteLength":144,"byteOffset":1645732,"target":34963},{"buffer":0,"byteLength":172160,"byteOffset":1645876,"byteStride":8,"target":34962},{"buffer":0,"byteLength":86080,"byteOffset":1818036,"byteStride":4,"target":34962},{"buffer":0,"byteLength":61848,"byteOffset":1904116,"target":34963},{"buffer":0,"byteLength":4608,"byteOffset":1965964,"byteStride":8,"target":34962},{"buffer":0,"byteLength":2304,"byteOffset":1970572,"byteStride":4,"target":34962},{"buffer":0,"byteLength":1584,"byteOffset":1972876,"target":34963},{"buffer":0,"byteLength":288,"byteOffset":1974460,"byteStride":8,"target":34962},{"buffer":0,"byteLength":144,"byteOffset":1974748,"byteStride":4,"target":34962},{"buffer":0,"byteLength":96,"byteOffset":1974892,"target":34963},{"buffer":0,"byteLength":3072,"byteOffset":1974988,"byteStride":8,"target":34962},{"buffer":0,"byteLength":1536,"byteOffset":1978060,"byteStride":4,"target":34962},{"buffer":0,"byteLength":1056,"byteOffset":1979596,"target":34963},{"buffer":0,"byteLength":48384,"byteOffset":1980652,"byteStride":8,"target":34962},{"buffer":0,"byteLength":24192,"byteOffset":2029036,"byteStride":4,"target":34962},{"buffer":0,"byteLength":24192,"byteOffset":2053228,"byteStride":4,"target":34962},{"buffer":0,"byteLength":16632,"byteOffset":2077420,"target":34963},{"buffer":0,"byteLength":112608,"byteOffset":2094052,"byteStride":8,"target":34962},{"buffer":0,"byteLength":56304,"byteOffset":2206660,"byteStride":4,"target":34962},{"buffer":0,"byteLength":28152,"byteOffset":2262964,"target":34963},{"buffer":0,"byteLength":3072,"byteOffset":2291116,"byteStride":8,"target":34962},{"buffer":0,"byteLength":1536,"byteOffset":2294188,"byteStride":4,"target":34962},{"buffer":0,"byteLength":768,"byteOffset":2295724,"target":34963},{"buffer":0,"byteLength":192,"byteOffset":2296492,"byteStride":8,"target":34962},{"buffer":0,"byteLength":96,"byteOffset":2296684,"byteStride":4,"target":34962},{"buffer":0,"byteLength":48,"byteOffset":2296780,"target":34963},{"buffer":0,"byteLength":31608,"byteOffset":2296828,"byteStride":8,"target":34962},{"buffer":0,"byteLength":15804,"byteOffset":2328436,"byteStride":4,"target":34962},{"buffer":0,"byteLength":15804,"byteOffset":2344240,"byteStride":4,"target":34962},{"buffer":0,"byteLength":7902,"byteOffset":2360044,"target":34963},{"buffer":0,"byteLength":31680,"byteOffset":2367948,"byteStride":8,"target":34962},{"buffer":0,"byteLength":15840,"byteOffset":2399628,"byteStride":4,"target":34962},{"buffer":0,"byteLength":7920,"byteOffset":2415468,"target":34963},{"buffer":0,"byteLength":9768,"byteOffset":2423388,"byteStride":8,"target":34962},{"buffer":0,"byteLength":4884,"byteOffset":2433156,"byteStride":4,"target":34962},{"buffer":0,"byteLength":4884,"byteOffset":2438040,"byteStride":4,"target":34962},{"buffer":0,"byteLength":2442,"byteOffset":2442924,"target":34963},{"buffer":0,"byteLength":5664,"byteOffset":2445368,"byteStride":8,"target":34962},{"buffer":0,"byteLength":2832,"byteOffset":2451032,"byteStride":4,"target":34962},{"buffer":0,"byteLength":1416,"byteOffset":2453864,"target":34963},{"buffer":0,"byteLength":1920,"byteOffset":2455280,"byteStride":8,"target":34962},{"buffer":0,"byteLength":960,"byteOffset":2457200,"byteStride":4,"target":34962},{"buffer":0,"byteLength":960,"byteOffset":2458160,"byteStride":4,"target":34962},{"buffer":0,"byteLength":480,"byteOffset":2459120,"target":34963},{"buffer":0,"byteLength":384,"byteOffset":2459600,"byteStride":4,"target":34962},{"buffer":0,"byteLength":1152,"byteOffset":2459984,"byteStride":4,"target":34962},{"buffer":0,"byteLength":14848,"byteOffset":2461136,"byteStride":4,"target":34962},{"buffer":0,"byteLength":768,"byteOffset":2475984,"byteStride":4,"target":34962},{"buffer":0,"byteLength":1416,"byteOffset":2476752,"byteStride":4,"target":34962},{"buffer":0,"byteLength":11388,"byteOffset":2478168,"byteStride":4,"target":34962},{"buffer":0,"byteLength":432,"byteOffset":2489556,"byteStride":4,"target":34962},{"buffer":0,"byteLength":3552,"byteOffset":2489988,"byteStride":4,"target":34962},{"buffer":0,"byteLength":72,"byteOffset":2493540,"byteStride":4,"target":34962},{"buffer":0,"byteLength":660,"byteOffset":2493612,"byteStride":4,"target":34962},{"buffer":0,"byteLength":1824,"byteOffset":2494272,"byteStride":4,"target":34962},{"buffer":0,"byteLength":102224,"byteOffset":2496096,"byteStride":4,"target":34962},{"buffer":0,"byteLength":1152,"byteOffset":2598320,"byteStride":4,"target":34962},{"buffer":0,"byteLength":77544,"byteOffset":2599472,"byteStride":4,"target":34962},{"buffer":0,"byteLength":720,"byteOffset":2677016,"byteStride":4,"target":34962},{"buffer":0,"byteLength":24684,"byteOffset":2677736,"byteStride":4,"target":34962},{"buffer":0,"byteLength":4536,"byteOffset":2702420,"byteStride":4,"target":34962},{"buffer":0,"byteLength":1824,"byteOffset":2706956,"byteStride":4,"target":34962},{"buffer":0,"byteLength":92000,"byteOffset":2708780,"byteStride":4,"target":34962},{"buffer":0,"byteLength":7040,"byteOffset":2800780,"byteStride":4,"target":34962},{"buffer":0,"byteLength":1824,"byteOffset":2807820,"byteStride":4,"target":34962},{"buffer":0,"byteLength":192,"byteOffset":2809644,"byteStride":4,"target":34962},{"buffer":0,"byteLength":68484,"byteOffset":2809836,"byteStride":4,"target":34962},{"buffer":0,"byteLength":5292,"byteOffset":2878320,"byteStride":4,"target":34962},{"buffer":0,"byteLength":1212,"byteOffset":2883612,"byteStride":4,"target":34962},{"buffer":0,"byteLength":21876,"byteOffset":2884824,"byteStride":4,"target":34962},{"buffer":0,"byteLength":1584,"byteOffset":2906700,"byteStride":4,"target":34962},{"buffer":0,"byteLength":4164,"byteOffset":2908284,"byteStride":4,"target":34962},{"buffer":0,"byteLength":288,"byteOffset":2912448,"byteStride":4,"target":34962},{"buffer":0,"byteLength":86080,"byteOffset":2912736,"byteStride":4,"target":34962},{"buffer":0,"byteLength":2304,"byteOffset":2998816,"byteStride":4,"target":34962},{"buffer":0,"byteLength":144,"byteOffset":3001120,"byteStride":4,"target":34962},{"buffer":0,"byteLength":1536,"byteOffset":3001264,"byteStride":4,"target":34962},{"buffer":0,"byteLength":24192,"byteOffset":3002800,"byteStride":4,"target":34962},{"buffer":0,"byteLength":56304,"byteOffset":3026992,"byteStride":4,"target":34962},{"buffer":0,"byteLength":1536,"byteOffset":3083296,"byteStride":4,"target":34962},{"buffer":0,"byteLength":96,"byteOffset":3084832,"byteStride":4,"target":34962},{"buffer":0,"byteLength":15804,"byteOffset":3084928,"byteStride":4,"target":34962},{"buffer":0,"byteLength":15840,"byteOffset":3100732,"byteStride":4,"target":34962},{"buffer":0,"byteLength":4884,"byteOffset":3116572,"byteStride":4,"target":34962},{"buffer":0,"byteLength":2832,"byteOffset":3121456,"byteStride":4,"target":34962},{"buffer":0,"byteLength":960,"byteOffset":3124288,"byteStride":4,"target":34962}],"buffers":[{"byteLength":3125248,"uri":"waggon_shed.bin"}],"extensionsRequired":["KHR_mesh_quantization","KHR_texture_transform"],"extensionsUsed":["KHR_mesh_quantization","KHR_texture_transform","MSFT_lod"],"extras":{"hm":{"batching":true,"cellSize":16.0,"cells":[{"cullAt":null,"interior":null,"key":"0_0","lodPrims":[4,2,2,2],"lodTris":[2264,1067,332,61],"max":[8.92,1.251,8.522],"min":[-8.92,0.0,-7.63]},{"cullAt":null,"interior":null,"key":"0_n1","lodPrims":[3,2,1,1],"lodTris":[13062,6522,2057,378],"max":[7.49,3.12,-0.115],"min":[0.818,0.06,-6.857]},{"cullAt":null,"interior":null,"key":"n1_0","lodPrims":[5,3,2,2],"lodTris":[13424,6249,1955,371],"max":[0.417,3.12,7.26],"min":[-6.749,0.038,-1.548]},{"cullAt":null,"interior":null,"key":"n1_n1","lodPrims":[5,4,2,2],"lodTris":[13536,6145,1727,316],"max":[8.17,7.98,6.258],"min":[-8.783,0.06,-7.516]}],"instanced":[],"instancing":true,"interiors":[],"lod":true,"lodDistances":[15.0,40.0,100.0],"stats":{"groups":4,"lodPrims":[17,11,7,7],"lodTris":[42286,19983,6071,1126]},"venue":"waggon_shed"}},"images":[{"uri":"../textures/gravel_albedo.png"},{"uri":"../textures/gravel_orm.png"},{"uri":"../textures/gravel_normal.png"},{"uri":"../textures/mud_wet_albedo.png"},{"uri":"../textures/mud_wet_orm.png"},{"uri":"../textures/mud_wet_normal.png"},{"uri":"../textures/kit_albedo.png"},{"uri":"../textures/kit_orm.png"},{"uri":"../textures/kit_normal.png"},{"uri":"../textures/oak_dark_albedo.png"},{"uri":"../textures/oak_dark_orm.png"},{"uri":"../textures/oak_dark_normal.png"},{"uri":"../textures/oak_weathered_albedo.png"},{"uri":"../textures/oak_weathered_orm.png"},{"uri":"../textures/oak_weathered_normal.png"},{"uri":"../textures/terracotta_albedo.png"},{"uri":"../textures/terracotta_orm.png"},{"uri":"../textures/terracotta_normal.png"},{"uri":"../textures/stone_albedo.png"},{"uri":"../textures/stone_orm.png"},{"uri":"../textures/stone_normal.png"},{"uri":"../textures/iron_albedo.png"},{"uri":"../textures/iron_orm.png"},{"uri":"../textures/iron_normal.png"},{"uri":"../textures/water_albedo.png"},{"uri":"../textures/water_orm.png"},{"uri":"../textures/water_normal.png"}],"materials":[{"doubleSided":false,"name":"gravel","normalTexture":{"extensions":{"KHR_texture_transform":{"scale":[6.90021054537034,6.90021054537034]}},"index":2,"scale":1.0},"occlusionTexture":{"extensions":{"KHR_texture_transform":{"scale":[6.90021054537034,6.90021054537034]}},"index":1},"pbrMetallicRoughness":{"baseColorFactor":[1,1,1,1],"baseColorTexture":{"extensions":{"KHR_texture_transform":{"scale":[6.90021054537034,6.90021054537034]}},"index":0},"metallicFactor":1.0,"metallicRoughnessTexture":{"extensions":{"KHR_texture_transform":{"scale":[6.90021054537034,6.90021054537034]}},"index":1},"roughnessFactor":1.0}},{"doubleSided":false,"name":"mud_wet","normalTexture":{"extensions":{"KHR_texture_transform":{"scale":[6.90021054537034,6.90021054537034]}},"index":5,"scale":1.0},"occlusionTexture":{"extensions":{"KHR_texture_transform":{"scale":[6.90021054537034,6.90021054537034]}},"index":4},"pbrMetallicRoughness":{"baseColorFactor":[1,1,1,1],"baseColorTexture":{"extensions":{"KHR_texture_transform":{"scale":[6.90021054537034,6.90021054537034]}},"index":3},"metallicFactor":1.0,"metallicRoughnessTexture":{"extensions":{"KHR_texture_transform":{"scale":[6.90021054537034,6.90021054537034]}},"index":4},"roughnessFactor":1.0}},{"doubleSided":true,"name":"kit","normalTexture":{"extensions":{"KHR_texture_transform":{"scale":[6.90021054537034,6.90021054537034]}},"index":8,"scale":1.0},"occlusionTexture":{"extensions":{"KHR_texture_transform":{"scale":[6.90021054537034,6.90021054537034]}},"index":7},"pbrMetallicRoughness":{"baseColorFactor":[1,1,1,1],"baseColorTexture":{"extensions":{"KHR_texture_transform":{"scale":[6.90021054537034,6.90021054537034]}},"index":6},"metallicFactor":1.0,"metallicRoughnessTexture":{"extensions":{"KHR_texture_transform":{"scale":[6.90021054537034,6.90021054537034]}},"index":7},"roughnessFactor":1.0}},{"doubleSided":false,"name":"oak_dark","normalTexture":{"extensions":{"KHR_texture_transform":{"scale":[6.90021054537034,6.90021054537034]}},"index":11,"scale":1.0},"occlusionTexture":{"extensions":{"KHR_texture_transform":{"scale":[6.90021054537034,6.90021054537034]}},"index":10},"pbrMetallicRoughness":{"baseColorFactor":[1,1,1,1],"baseColorTexture":{"extensions":{"KHR_texture_transform":{"scale":[6.90021054537034,6.90021054537034]}},"index":9},"metallicFactor":1.0,"metallicRoughnessTexture":{"extensions":{"KHR_texture_transform":{"scale":[6.90021054537034,6.90021054537034]}},"index":10},"roughnessFactor":1.0}},{"doubleSided":false,"name":"oak_weathered","normalTexture":{"extensions":{"KHR_texture_transform":{"scale":[6.90021054537034,6.90021054537034]}},"index":14,"scale":1.0},"occlusionTexture":{"extensions":{"KHR_texture_transform":{"scale":[6.90021054537034,6.90021054537034]}},"index":13},"pbrMetallicRoughness":{"baseColorFactor":[1,1,1,1],"baseColorTexture":{"extensions":{"KHR_texture_transform":{"scale":[6.90021054537034,6.90021054537034]}},"index":12},"metallicFactor":1.0,"metallicRoughnessTexture":{"extensions":{"KHR_texture_transform":{"scale":[6.90021054537034,6.90021054537034]}},"index":13},"roughnessFactor":1.0}},{"doubleSided":false,"name":"terracotta","normalTexture":{"extensions":{"KHR_texture_transform":{"scale":[6.90021054537034,6.90021054537034]}},"index":17,"scale":1.0},"occlusionTexture":{"extensions":{"KHR_texture_transform":{"scale":[6.90021054537034,6.90021054537034]}},"index":16},"pbrMetallicRoughness":{"baseColorFactor":[1,1,1,1],"baseColorTexture":{"extensions":{"KHR_texture_transform":{"scale":[6.90021054537034,6.90021054537034]}},"index":15},"metallicFactor":1.0,"metallicRoughnessTexture":{"extensions":{"KHR_texture_transform":{"scale":[6.90021054537034,6.90021054537034]}},"index":16},"roughnessFactor":1.0}},{"doubleSided":false,"name":"stone","normalTexture":{"extensions":{"KHR_texture_transform":{"scale":[6.90021054537034,6.90021054537034]}},"index":20,"scale":1.0},"occlusionTexture":{"extensions":{"KHR_texture_transform":{"scale":[6.90021054537034,6.90021054537034]}},"index":19},"pbrMetallicRoughness":{"baseColorFactor":[1,1,1,1],"baseColorTexture":{"extensions":{"KHR_texture_transform":{"scale":[6.90021054537034,6.90021054537034]}},"index":18},"metallicFactor":1.0,"metallicRoughnessTexture":{"extensions":{"KHR_texture_transform":{"scale":[6.90021054537034,6.90021054537034]}},"index":19},"roughnessFactor":1.0}},{"doubleSided":false,"name":"iron","normalTexture":{"extensions":{"KHR_texture_transform":{"scale":[6.90021054537034,6.90021054537034]}},"index":23,"scale":1.0},"occlusionTexture":{"extensions":{"KHR_texture_transform":{"scale":[6.90021054537034,6.90021054537034]}},"index":22},"pbrMetallicRoughness":{"baseColorFactor":[1,1,1,1],"baseColorTexture":{"extensions":{"KHR_texture_transform":{"scale":[6.90021054537034,6.90021054537034]}},"index":21},"metallicFactor":1.0,"metallicRoughnessTexture":{"extensions":{"KHR_texture_transform":{"scale":[6.90021054537034,6.90021054537034]}},"index":22},"roughnessFactor":1.0}},{"alphaMode":"BLEND","doubleSided":false,"name":"water","normalTexture":{"extensions":{"KHR_texture_transform":{"scale":[6.90021054537034,6.90021054537034]}},"index":26,"scale":1.0},"occlusionTexture":{"extensions":{"KHR_texture_transform":{"scale":[6.90021054537034,6.90021054537034]}},"index":25},"pbrMetallicRoughness":{"baseColorFactor":[1,1,1,1],"baseColorTexture":{"extensions":{"KHR_texture_transform":{"scale":[6.90021054537034,6.90021054537034]}},"index":24},"metallicFactor":1.0,"metallicRoughnessTexture":{"extensions":{"KHR_texture_transform":{"scale":[6.90021054537034,6.90021054537034]}},"index":25},"roughnessFactor":1.0}}],"meshes":[{"name":"waggon_shed#0_0","primitives":[{"attributes":{"NORMAL":1,"POSITION":0,"TEXCOORD_0":130},"indices":2,"material":0},{"attributes":{"NORMAL":4,"POSITION":3,"TEXCOORD_0":131},"indices":5,"material":2},{"attributes":{"NORMAL":7,"POSITION":6,"TEXCOORD_0":132},"indices":8,"material":1},{"attributes":{"NORMAL":10,"POSITION":9,"TEXCOORD_0":133},"indices":11,"material":6}]},{"name":"waggon_shed#0_0$lod1","primitives":[{"attributes":{"NORMAL":13,"POSITION":12,"TEXCOORD_0":134},"indices":14,"material":0},{"attributes":{"NORMAL":16,"POSITION":15,"TEXCOORD_0":135},"indices":17,"material":1}]},{"name":"waggon_shed#0_0$lod2","primitives":[{"attributes":{"NORMAL":19,"POSITION":18,"TEXCOORD_0":136},"indices":20,"material":0},{"attributes":{"NORMAL":22,"POSITION":21,"TEXCOORD_0":137},"indices":23,"material":1}]},{"name":"waggon_shed#0_0$lod3","primitives":[{"attributes":{"NORMAL":25,"POSITION":24,"TEXCOORD_0":138},"indices":26,"material":0},{"attributes":{"NORMAL":28,"POSITION":27,"TEXCOORD_0":139},"indices":29,"material":1}]},{"name":"waggon_shed#0_n1","primitives":[{"attributes":{"NORMAL":31,"POSITION":30,"TEXCOORD_0":140},"indices":32,"material":7},{"attributes":{"NORMAL":34,"POSITION":33,"TEXCOORD_0":141},"indices":35,"material":2},{"attributes":{"NORMAL":37,"POSITION":36,"TEXCOORD_0":142},"indices":38,"material":6}]},{"name":"waggon_shed#0_n1$lod1","primitives":[{"attributes":{"NORMAL":40,"POSITION":39,"TEXCOORD_0":143},"indices":41,"material":2},{"attributes":{"NORMAL":43,"POSITION":42,"TEXCOORD_0":144},"indices":44,"material":6}]},{"name":"waggon_shed#0_n1$lod2","primitives":[{"attributes":{"NORMAL":46,"POSITION":45,"TEXCOORD_0":145},"indices":47,"material":2}]},{"name":"waggon_shed#0_n1$lod3","primitives":[{"attributes":{"NORMAL":49,"POSITION":48,"TEXCOORD_0":146},"indices":50,"material":2}]},{"name":"waggon_shed#n1_0","primitives":[{"attributes":{"NORMAL":52,"POSITION":51,"TEXCOORD_0":147},"indices":53,"material":7},{"attributes":{"NORMAL":55,"POSITION":54,"TEXCOORD_0":148},"indices":56,"material":2},{"attributes":{"NORMAL":58,"POSITION":57,"TEXCOORD_0":149},"indices":59,"material":1},{"attributes":{"NORMAL":61,"POSITION":60,"TEXCOORD_0":150},"indices":62,"material":6},{"attributes":{"NORMAL":64,"POSITION":63,"TEXCOORD_0":151},"indices":65,"material":8}]},{"name":"waggon_shed#n1_0$lod1","primitives":[{"attributes":{"NORMAL":67,"POSITION":66,"TEXCOORD_0":152},"indices":68,"material":2},{"attributes":{"NORMAL":70,"POSITION":69,"TEXCOORD_0":153},"indices":71,"material":1},{"attributes":{"NORMAL":73,"POSITION":72,"TEXCOORD_0":154},"indices":74,"material":6}]},{"name":"waggon_shed#n1_0$lod2","primitives":[{"attributes":{"NORMAL":76,"POSITION":75,"TEXCOORD_0":155},"indices":77,"material":2},{"attributes":{"NORMAL":79,"POSITION":78,"TEXCOORD_0":156},"indices":80,"material":1}]},{"name":"waggon_shed#n1_0$lod3","primitives":[{"attributes":{"NORMAL":82,"POSITION":81,"TEXCOORD_0":157},"indices":83,"material":2},{"attributes":{"NORMAL":85,"POSITION":84,"TEXCOORD_0":158},"indices":86,"material":1}]},{"name":"waggon_shed#n1_n1","primitives":[{"attributes":{"NORMAL":88,"POSITION":87,"TEXCOORD_0":159},"indices":89,"material":2},{"attributes":{"NORMAL":91,"POSITION":90,"TEXCOORD_0":160},"indices":92,"material":3},{"attributes":{"NORMAL":94,"POSITION":93,"TEXCOORD_0":161},"indices":95,"material":4},{"attributes":{"NORMAL":97,"POSITION":96,"TEXCOORD_0":162},"indices":98,"material":6},{"attributes":{"COLOR_0":101,"NORMAL":100,"POSITION":99,"TEXCOORD_0":163},"indices":102,"material":5}]},{"name":"waggon_shed#n1_n1$lod1","primitives":[{"attributes":{"NORMAL":104,"POSITION":103,"TEXCOORD_0":164},"indices":105,"material":2},{"attributes":{"NORMAL":107,"POSITION":106,"TEXCOORD_0":165},"indices":108,"material":3},{"attributes":{"NORMAL":110,"POSITION":109,"TEXCOORD_0":166},"indices":111,"material":4},{"attributes":{"COLOR_0":114,"NORMAL":113,"POSITION":112,"TEXCOORD_0":167},"indices":115,"material":5}]},{"name":"waggon_shed#n1_n1$lod2","primitives":[{"attributes":{"NORMAL":117,"POSITION":116,"TEXCOORD_0":168},"indices":118,"material":2},{"attributes":{"COLOR_0":121,"NORMAL":120,"POSITION":119,"TEXCOORD_0":169},"indices":122,"material":5}]},{"name":"waggon_shed#n1_n1$lod3","primitives":[{"attributes":{"NORMAL":124,"POSITION":123,"TEXCOORD_0":170},"indices":125,"material":2},{"attributes":{"COLOR_0":128,"NORMAL":127,"POSITION":126,"TEXCOORD_0":171},"indices":129,"material":5}]}],"nodes":[{"extensions":{"MSFT_lod":{"ids":[1,2,3]}},"extras":{"MSFT_screencoverage":[1.0,0.57864,0.23146,0.0],"hm":{"cell":"0_0","cullAt":null,"interior":null,"lod":0,"max":[8.92,1.251,8.522],"min":[-8.92,0.0,-7.63],"prims":4,"tris":2264,"venue":"waggon_shed"}},"mesh":0,"name":"waggon_shed#0_0","scale":[8.919672966003418,0.625283420085907,8.076171875],"translation":[0.0,0.625283420085907,0.4456825256347656]},{"extras":{"hm":{"cell":"0_0","cullAt":null,"interior":null,"lod":1,"max":[8.92,1.251,8.522],"min":[-8.92,0.0,-7.63],"prims":2,"tris":1067,"venue":"waggon_shed"}},"mesh":1,"name":"waggon_shed#0_0$lod1","scale":[8.919672966003418,0.622033417224884,8.069591522216797],"translation":[0.0,0.622033417224884,0.4518401622772217]},{"extras":{"hm":{"cell":"0_0","cullAt":null,"interior":null,"lod":2,"max":[8.92,1.251,8.522],"min":[-8.92,0.0,-7.63],"prims":2,"tris":332,"venue":"waggon_shed"}},"mesh":2,"name":"waggon_shed#0_0$lod2","scale":[8.919672966003418,0.5959463715553284,8.066187858581543],"translation":[0.0,0.6459463238716125,0.4552438259124756]},{"extras":{"hm":{"cell":"0_0","cullAt":null,"interior":null,"lod":3,"max":[8.92,1.251,8.522],"min":[-8.92,0.0,-7.63],"prims":2,"tris":61,"venue":"waggon_shed"}},"mesh":3,"name":"waggon_shed#0_0$lod3","scale":[8.898598670959473,0.5842625498771667,8.06595516204834],"translation":[0.0,0.6395959258079529,0.45501065254211426]},{"extensions":{"MSFT_lod":{"ids":[5,6,7]}},"extras":{"MSFT_screencoverage":[0.63822,0.23933,0.09573,0.0],"hm":{"cell":"0_n1","cullAt":null,"interior":null,"lod":0,"max":[7.49,3.12,-0.115],"min":[0.818,0.06,-6.857],"prims":3,"tris":13062,"venue":"waggon_shed"}},"mesh":4,"name":"waggon_shed#0_n1","scale":[3.3361852169036865,1.5298409461975098,3.3712522983551025],"translation":[4.153998851776123,1.5898408889770508,-3.486013650894165]},{"extras":{"hm":{"cell":"0_n1","cullAt":null,"interior":null,"lod":1,"max":[7.49,3.12,-0.115],"min":[0.818,0.06,-6.857],"prims":2,"tris":6522,"venue":"waggon_shed"}},"mesh":5,"name":"waggon_shed#0_n1$lod1","scale":[3.3314905166625977,1.5298409461975098,3.3712522983551025],"translation":[4.149304389953613,1.5898408889770508,-3.486013650894165]},{"extras":{"hm":{"cell":"0_n1","cullAt":null,"interior":null,"lod":2,"max":[7.49,3.12,-0.115],"min":[0.818,0.06,-6.857],"prims":1,"tris":2057,"venue":"waggon_shed"}},"mesh":6,"name":"waggon_shed#0_n1$lod2","scale":[3.3293344974517822,1.5233137607574463,3.366751194000244],"translation":[4.15146017074585,1.5943138599395752,-3.483572006225586]},{"extras":{"hm":{"cell":"0_n1","cullAt":null,"interior":null,"lod":3,"max":[7.49,3.12,-0.115],"min":[0.818,0.06,-6.857],"prims":1,"tris":378,"venue":"waggon_shed"}},"mesh":7,"name":"waggon_shed#0_n1$lod3","scale":[3.3177008628845215,1.5027503967285156,3.35099458694458],"translation":[4.1630940437316895,1.6068024635314941,-3.4959278106689453]},{"extensions":{"MSFT_lod":{"ids":[9,10,11]}},"extras":{"MSFT_screencoverage":[0.75338,0.28252,0.11301,0.0],"hm":{"cell":"n1_0","cullAt":null,"interior":null,"lod":0,"max":[0.417,3.12,7.26],"min":[-6.749,0.038,-1.548],"prims":5,"tris":13424,"venue":"waggon_shed"}},"mesh":8,"name":"waggon_shed#n1_0","scale":[3.5827908515930176,1.5408408641815186,4.404125690460205],"translation":[-3.165835380554199,1.578840970993042,2.855839252471924]},{"extras":{"hm":{"cell":"n1_0","cullAt":null,"interior":null,"lod":1,"max":[0.417,3.12,7.26],"min":[-6.749,0.038,-1.548],"prims":3,"tris":6249,"venue":"waggon_shed"}},"mesh":9,"name":"waggon_shed#n1_0$lod1","scale":[3.58166241645813,1.5408408641815186,4.402064323425293],"translation":[-3.1647069454193115,1.578840970993042,2.857501745223999]},{"extras":{"hm":{"cell":"n1_0","cullAt":null,"interior":null,"lod":2,"max":[0.417,3.12,7.26],"min":[-6.749,0.038,-1.548],"prims":2,"tris":1955,"venue":"waggon_shed"}},"mesh":10,"name":"waggon_shed#n1_0$lod2","scale":[3.5809500217437744,1.5354523658752441,4.401638507843018],"translation":[-3.163994550704956,1.5734524726867676,2.8570761680603027]},{"extras":{"hm":{"cell":"n1_0","cullAt":null,"interior":null,"lod":3,"max":[0.417,3.12,7.26],"min":[-6.749,0.038,-1.548],"prims":2,"tris":371,"venue":"waggon_shed"}},"mesh":11,"name":"waggon_shed#n1_0$lod3","scale":[3.53971529006958,0.7748545408248901,4.291537284851074],"translation":[-3.128222942352295,0.8528083562850952,2.7604620456695557]},{"extensions":{"MSFT_lod":{"ids":[13,14,15]}},"extras":{"MSFT_screencoverage":[1.0,0.55791,0.22316,0.0],"hm":{"cell":"n1_n1","cullAt":null,"interior":null,"lod":0,"max":[8.17,7.98,6.258],"min":[-8.783,0.06,-7.516],"prims":5,"tris":13536,"venue":"waggon_shed"}},"mesh":12,"name":"waggon_shed#n1_n1","scale":[8.47646427154541,3.9600000381469727,6.886748790740967],"translation":[-0.30685997009277344,4.019999980926514,-0.6291556358337402]},{"extras":{"hm":{"cell":"n1_n1","cullAt":null,"interior":null,"lod":1,"max":[8.17,7.98,6.258],"min":[-8.783,0.06,-7.516],"prims":4,"tris":6145,"venue":"waggon_shed"}},"mesh":13,"name":"waggon_shed#n1_n1$lod1","scale":[8.450754165649414,3.9600000381469727,6.885805130004883],"translation":[-0.33257007598876953,4.019999980926514,-0.6291558742523193]},{"extras":{"hm":{"cell":"n1_n1","cullAt":null,"interior":null,"lod":2,"max":[8.17,7.98,6.258],"min":[-8.783,0.06,-7.516],"prims":2,"tris":1727,"venue":"waggon_shed"}},"mesh":14,"name":"waggon_shed#n1_n1$lod2","scale":[8.440512657165527,3.9385385513305664,6.881660461425781],"translation":[-0.34281158447265625,4.03639554977417,-0.6333005428314209]},{"extras":{"hm":{"cell":"n1_n1","cullAt":null,"interior":null,"lod":3,"max":[8.17,7.98,6.258],"min":[-8.783,0.06,-7.516],"prims":2,"tris":316,"venue":"waggon_shed"}},"mesh":15,"name":"waggon_shed#n1_n1$lod3","scale":[8.398760795593262,3.899064540863037,6.87727165222168],"translation":[-0.30364513397216797,4.001962184906006,-0.6289119720458984]}],"samplers":[{"magFilter":9729,"minFilter":9987,"wrapS":10497,"wrapT":10497}],"scene":0,"scenes":[{"nodes":[0,4,8,12]}],"textures":[{"sampler":0,"source":0},{"sampler":0,"source":1},{"sampler":0,"source":2},{"sampler":0,"source":3},{"sampler":0,"source":4},{"sampler":0,"source":5},{"sampler":0,"source":6},{"sampler":0,"source":7},{"sampler":0,"source":8},{"sampler":0,"source":9},{"sampler":0,"source":10},{"sampler":0,"source":11},{"sampler":0,"source":12},{"sampler":0,"source":13},{"sampler":0,"source":14},{"sampler":0,"source":15},{"sampler":0,"source":16},{"sampler":0,"source":17},{"sampler":0,"source":18},{"sampler":0,"source":19},{"sampler":0,"source":20},{"sampler":0,"source":21},{"sampler":0,"source":22},{"sampler":0,"source":23},{"sampler":0,"source":24},{"sampler":0,"source":25},{"sampler":0,"source":26}]}