{"accessors":[{"bufferView":0,"componentType":5122,"count":864,"max":[27588.0,-5183.0,26333.0],"min":[-27588.0,-8406.0,-26333.0],"normalized":true,"type":"VEC3"},{"bufferView":1,"componentType":5120,"count":864,"normalized":true,"type":"VEC3"},{"bufferView":2,"componentType":5123,"count":1248,"type":"SCALAR"},{"bufferView":3,"componentType":5122,"count":72,"max":[6128.0,-4948.0,5903.0],"min":[-6128.0,-32767.0,-5903.0],"normalized":true,"type":"VEC3"},{"bufferView":4,"componentType":5120,"count":72,"normalized":true,"type":"VEC3"},{"bufferView":5,"componentType":5123,"count":108,"type":"SCALAR"},{"bufferView":6,"componentType":5122,"count":10992,"max":[32767.0,32543.0,32767.0],"min":[-32767.0,-2920.0,-32767.0],"normalized":true,"type":"VEC3"},{"bufferView":7,"componentType":5120,"count":10992,"normalized":true,"type":"VEC3"},{"bufferView":8,"componentType":5123,"count":17352,"type":"SCALAR"},{"bufferView":9,"componentType":5122,"count":60,"max":[32065.0,32767.0,32096.0],"min":[-32065.0,9866.0,-32096.0],"normalized":true,"type":"VEC3"},{"bufferView":10,"componentType":5120,"count":60,"normalized":true,"type":"VEC3"},{"bufferView":11,"componentType":5123,"count":84,"type":"SCALAR"},{"bufferView":12,"componentType":5122,"count":588,"max":[27487.0,-5337.0,26238.0],"min":[-27487.0,-8332.0,-26238.0],"normalized":true,"type":"VEC3"},{"bufferView":13,"componentType":5120,"count":588,"normalized":true,"type":"VEC3"},{"bufferView":14,"componentType":5123,"count":588,"type":"SCALAR"},{"bufferView":15,"componentType":5122,"count":48,"max":[6128.0,-4864.0,5903.0],"min":[-6128.0,-32767.0,-5903.0],"normalized":true,"type":"VEC3"},{"bufferView":16,"componentType":5120,"count":48,"normalized":true,"type":"VEC3"},{"bufferView":17,"componentType":5123,"count":48,"type":"SCALAR"},{"bufferView":18,"componentType":5122,"count":7905,"max":[32767.0,32739.0,32767.0],"min":[-32767.0,-1759.0,-32767.0],"normalized":true,"type":"VEC3"},{"bufferView":19,"componentType":5120,"count":7905,"normalized":true,"type":"VEC3"},{"bufferView":20,"componentType":5123,"count":7905,"type":"SCALAR"},{"bufferView":21,"componentType":5122,"count":36,"max":[32000.0,32767.0,32069.0],"min":[-32000.0,9995.0,-32069.0],"normalized":true,"type":"VEC3"},{"bufferView":22,"componentType":5120,"count":36,"normalized":true,"type":"VEC3"},{"bufferView":23,"componentType":5123,"count":36,"type":"SCALAR"},{"bufferView":24,"componentType":5122,"count":24,"max":[4262.0,-4864.0,3686.0],"min":[-4262.0,-32767.0,-3686.0],"normalized":true,"type":"VEC3"},{"bufferView":25,"componentType":5120,"count":24,"normalized":true,"type":"VEC3"},{"bufferView":26,"componentType":5123,"count":24,"type":"SCALAR"},{"bufferView":27,"componentType":5122,"count":2454,"max":[32767.0,32735.0,32767.0],"min":[-32767.0,3586.0,-32767.0],"normalized":true,"type":"VEC3"},{"bufferView":28,"componentType":5120,"count":2454,"normalized":true,"type":"VEC3"},{"bufferView":29,"componentType":5123,"count":2454,"type":"SCALAR"},{"bufferView":30,"componentType":5122,"count":180,"max":[32016.0,32767.0,32166.0],"min":[-32016.0,-8332.0,-32166.0],"normalized":true,"type":"VEC3"},{"bufferView":31,"componentType":5120,"count":180,"normalized":true,"type":"VEC3"},{"bufferView":32,"componentType":5123,"count":180,"type":"SCALAR"},{"bufferView":33,"componentType":5122,"count":477,"max":[32767.0,32364.0,32767.0],"min":[-32767.0,4005.0,-32767.0],"normalized":true,"type":"VEC3"},{"bufferView":34,"componentType":5120,"count":477,"normalized":true,"type":"VEC3"},{"bufferView":35,"componentType":5123,"count":477,"type":"SCALAR"},{"bufferView":36,"componentType":5122,"count":60,"max":[32373.0,32767.0,32347.0],"min":[-32373.0,-32767.0,-32347.0],"normalized":true,"type":"VEC3"},{"bufferView":37,"componentType":5120,"count":60,"normalized":true,"type":"VEC3"},{"bufferView":38,"componentType":5123,"count":60,"type":"SCALAR"},{"bufferView":39,"componentType":5122,"count":7414,"max":[23286.0,32767.0,17904.0],"min":[-27608.0,-30311.0,-32767.0],"normalized":true,"type":"VEC3"},{"bufferView":40,"componentType":5120,"count":7414,"normalized":true,"type":"VEC3"},{"bufferView":41,"componentType":5123,"count":11022,"type":"SCALAR"},{"bufferView":42,"componentType":5122,"count":7560,"max":[12807.0,-28253.0,-1899.0],"min":[-11193.0,-28845.0,-25219.0],"normalized":true,"type":"VEC3"},{"bufferView":43,"componentType":5120,"count":7560,"normalized":true,"type":"VEC3"},{"bufferView":44,"componentType":5123,"count":12552,"type":"SCALAR"},{"bufferView":45,"componentType":5122,"count":864,"max":[19489.0,-28538.0,27518.0],"min":[-27432.0,-31868.0,-23567.0],"normalized":true,"type":"VEC3"},{"bufferView":46,"componentType":5120,"count":864,"normalized":true,"type":"VEC3"},{"bufferView":47,"componentType":5123,"count":1188,"type":"SCALAR"},{"bufferView":48,"componentType":5122,"count":3680,"max":[32767.0,-22196.0,32767.0],"min":[-32767.0,-32767.0,-31152.0],"normalized":true,"type":"VEC3"},{"bufferView":49,"componentType":5120,"count":3680,"normalized":true,"type":"VEC3"},{"bufferView":50,"componentType":5123,"count":5664,"type":"SCALAR"},{"bufferView":51,"componentType":5122,"count":4758,"max":[23282.0,32767.0,17881.0],"min":[-27605.0,-30305.0,-32767.0],"normalized":true,"type":"VEC3"},{"bufferView":52,"componentType":5120,"count":4758,"normalized":true,"type":"VEC3"},{"bufferView":53,"componentType":5123,"count":4758,"type":"SCALAR"},{"bufferView":54,"componentType":5122,"count":5505,"max":[12803.0,-28253.0,-1899.0],"min":[-11189.0,-28845.0,-25219.0],"normalized":true,"type":"VEC3"},{"bufferView":55,"componentType":5120,"count":5505,"normalized":true,"type":"VEC3"},{"bufferView":56,"componentType":5123,"count":5505,"type":"SCALAR"},{"bufferView":57,"componentType":5122,"count":570,"max":[19448.0,-28538.0,27462.0],"min":[-27385.0,-31805.0,-23512.0],"normalized":true,"type":"VEC3"},{"bufferView":58,"componentType":5120,"count":570,"normalized":true,"type":"VEC3"},{"bufferView":59,"componentType":5123,"count":570,"type":"SCALAR"},{"bufferView":60,"componentType":5122,"count":2823,"max":[32767.0,-22196.0,32767.0],"min":[-32767.0,-32767.0,-31059.0],"normalized":true,"type":"VEC3"},{"bufferView":61,"componentType":5120,"count":2823,"normalized":true,"type":"VEC3"},{"bufferView":62,"componentType":5123,"count":2823,"type":"SCALAR"},{"bufferView":63,"componentType":5122,"count":3936,"max":[32767.0,32767.0,32767.0],"min":[-32767.0,-32767.0,-32767.0],"normalized":true,"type":"VEC3"},{"bufferView":64,"componentType":5120,"count":3936,"normalized":true,"type":"VEC3"},{"bufferView":65,"componentType":5123,"count":3936,"type":"SCALAR"},{"bufferView":66,"componentType":5122,"count":747,"max":[32767.0,32767.0,32767.0],"min":[-32767.0,-32767.0,-32767.0],"normalized":true,"type":"VEC3"},{"bufferView":67,"componentType":5120,"count":747,"normalized":true,"type":"VEC3"},{"bufferView":68,"componentType":5123,"count":747,"type":"SCALAR"},{"bufferView":69,"componentType":5122,"count":130,"max":[32767.0,32767.0,-13971.0],"min":[30071.0,18891.0,-17554.0],"normalized":true,"type":"VEC3"},{"bufferView":70,"componentType":5120,"count":130,"normalized":true,"type":"VEC3"},{"bufferView":71,"componentType":5123,"count":204,"type":"SCALAR"},{"bufferView":72,"componentType":5122,"count":3104,"max":[31923.0,14236.0,32767.0],"min":[-32767.0,-32767.0,-32767.0],"normalized":true,"type":"VEC3"},{"bufferView":73,"componentType":5120,"count":3104,"normalized":true,"type":"VEC3"},{"bufferView":74,"componentType":5123,"count":5100,"type":"SCALAR"},{"bufferView":75,"componentType":5122,"count":96,"max":[32767.0,32767.0,-14196.0],"min":[30149.0,19006.0,-17435.0],"normalized":true,"type":"VEC3"},{"bufferView":76,"componentType":5120,"count":96,"normalized":true,"type":"VEC3"},{"bufferView":77,"componentType":5123,"count":96,"type":"SCALAR"},{"bufferView":78,"componentType":5122,"count":2208,"max":[31997.0,14236.0,32767.0],"min":[-32767.0,-32767.0,-32767.0],"normalized":true,"type":"VEC3"},{"bufferView":79,"componentType":5120,"count":2208,"normalized":true,"type":"VEC3"},{"bufferView":80,"componentType":5123,"count":2208,"type":"SCALAR"},{"bufferView":81,"componentType":5122,"count":666,"max":[32767.0,32767.0,32767.0],"min":[-32767.0,-32767.0,-32767.0],"normalized":true,"type":"VEC3"},{"bufferView":82,"componentType":5120,"count":666,"normalized":true,"type":"VEC3"},{"bufferView":83,"componentType":5123,"count":666,"type":"SCALAR"},{"bufferView":84,"componentType":5122,"count":114,"max":[32767.0,32767.0,32767.0],"min":[-32767.0,-32767.0,-32767.0],"normalized":true,"type":"VEC3"},{"bufferView":85,"componentType":5120,"count":114,"normalized":true,"type":"VEC3"},{"bufferView":86,"componentType":5123,"count":114,"type":"SCALAR"},{"bufferView":87,"componentType":5122,"count":3024,"max":[26698.0,13560.0,25796.0],"min":[-26710.0,-9805.0,-32767.0],"normalized":true,"type":"VEC3"},{"bufferView":88,"componentType":5120,"count":3024,"normalized":true,"type":"VEC3"},{"bufferView":89,"componentType":5123,"count":4470,"type":"SCALAR"},{"bufferView":90,"componentType":5122,"count":16,"max":[-1707.0,-6119.0,-1601.0],"min":[-8271.0,-8516.0,-6361.0],"normalized":true,"type":"VEC3"},{"bufferView":91,"componentType":5120,"count":16,"normalized":true,"type":"VEC3"},{"bufferView":92,"componentType":5123,"count":24,"type":"SCALAR"},{"bufferView":93,"componentType":5122,"count":856,"max":[32767.0,32767.0,32767.0],"min":[-32767.0,9264.0,-29435.0],"normalized":true,"type":"VEC3"},{"bufferView":94,"componentType":5120,"count":856,"normalized":true,"type":"VEC3"},{"bufferView":95,"componentType":5121,"count":856,"normalized":true,"type":"VEC4"},{"bufferView":96,"componentType":5123,"count":1272,"type":"SCALAR"},{"bufferView":97,"componentType":5122,"count":334,"max":[5991.0,-4492.0,19585.0],"min":[-31281.0,-32767.0,-27186.0],"normalized":true,"type":"VEC3"},{"bufferView":98,"componentType":5120,"count":334,"normalized":true,"type":"VEC3"},{"bufferView":99,"componentType":5121,"count":334,"normalized":true,"type":"VEC4"},{"bufferView":100,"componentType":5123,"count":510,"type":"SCALAR"},{"bufferView":101,"componentType":5122,"count":504,"max":[-5614.0,-8589.0,15276.0],"min":[-20451.0,-9734.0,-16749.0],"normalized":true,"type":"VEC3"},{"bufferView":102,"componentType":5120,"count":504,"normalized":true,"type":"VEC3"},{"bufferView":103,"componentType":5123,"count":672,"type":"SCALAR"},{"bufferView":104,"componentType":5122,"count":2070,"max":[27244.0,13488.0,25726.0],"min":[-27316.0,-9805.0,-32767.0],"normalized":true,"type":"VEC3"},{"bufferView":105,"componentType":5120,"count":2070,"normalized":true,"type":"VEC3"},{"bufferView":106,"componentType":5123,"count":2070,"type":"SCALAR"},{"bufferView":107,"componentType":5122,"count":892,"max":[32767.0,32767.0,32767.0],"min":[-32767.0,-9734.0,-29572.0],"normalized":true,"type":"VEC3"},{"bufferView":108,"componentType":5120,"count":892,"normalized":true,"type":"VEC3"},{"bufferView":109,"componentType":5121,"count":892,"normalized":true,"type":"VEC4"},{"bufferView":110,"componentType":5123,"count":900,"type":"SCALAR"},{"bufferView":111,"componentType":5122,"count":228,"max":[6128.0,-4492.0,19538.0],"min":[-31971.0,-32767.0,-27318.0],"normalized":true,"type":"VEC3"},{"bufferView":112,"componentType":5120,"count":228,"normalized":true,"type":"VEC3"},{"bufferView":113,"componentType":5121,"count":228,"normalized":true,"type":"VEC4"},{"bufferView":114,"componentType":5123,"count":228,"type":"SCALAR"},{"bufferView":115,"componentType":5122,"count":612,"max":[27194.0,15107.0,27327.0],"min":[-27296.0,-9001.0,-32767.0],"normalized":true,"type":"VEC3"},{"bufferView":116,"componentType":5120,"count":612,"normalized":true,"type":"VEC3"},{"bufferView":117,"componentType":5123,"count":612,"type":"SCALAR"},{"bufferView":118,"componentType":5122,"count":342,"max":[32767.0,32767.0,32767.0],"min":[-32767.0,-32767.0,-27708.0],"normalized":true,"type":"VEC3"},{"bufferView":119,"componentType":5120,"count":342,"normalized":true,"type":"VEC3"},{"bufferView":120,"componentType":5121,"count":342,"normalized":true,"type":"VEC4"},{"bufferView":121,"componentType":5123,"count":342,"type":"SCALAR"},{"bufferView":122,"componentType":5122,"count":105,"max":[27267.0,21292.0,26785.0],"min":[-27310.0,-4766.0,-32767.0],"normalized":true,"type":"VEC3"},{"bufferView":123,"componentType":5120,"count":105,"normalized":true,"type":"VEC3"},{"bufferView":124,"componentType":5123,"count":105,"type":"SCALAR"},{"bufferView":125,"componentType":5122,"count":66,"max":[32767.0,32767.0,32767.0],"min":[-32767.0,-32767.0,-28452.0],"normalized":true,"type":"VEC3"},{"bufferView":126,"componentType":5120,"count":66,"normalized":true,"type":"VEC3"},{"bufferView":127,"componentType":5121,"count":66,"normalized":true,"type":"VEC4"},{"bufferView":128,"componentType":5123,"count":66,"type":"SCALAR"},{"bufferView":129,"componentType":5122,"count":864,"normalized":true,"type":"VEC2"},{"bufferView":130,"componentType":5122,"count":72,"normalized":true,"type":"VEC2"},{"bufferView":131,"componentType":5122,"count":10992,"normalized":true,"type":"VEC2"},{"bufferView":132,"componentType":5122,"count":60,"normalized":true,"type":"VEC2"},{"bufferView":133,"componentType":5122,"count":588,"normalized":true,"type":"VEC2"},{"bufferView":134,"componentType":5122,"count":48,"normalized":true,"type":"VEC2"},{"bufferView":135,"componentType":5122,"count":7905,"normalized":true,"type":"VEC2"},{"bufferView":136,"componentType":5122,"count":36,"normalized":true,"type":"VEC2"},{"bufferView":137,"componentType":5122,"count":24,"normalized":true,"type":"VEC2"},{"bufferView":138,"componentType":5122,"count":2454,"normalized":true,"type":"VEC2"},{"bufferView":139,"componentType":5122,"count":180,"normalized":true,"type":"VEC2"},{"bufferView":140,"componentType":5122,"count":477,"normalized":true,"type":"VEC2"},{"bufferView":141,"componentType":5122,"count":60,"normalized":true,"type":"VEC2"},{"bufferView":142,"componentType":5122,"count":7414,"normalized":true,"type":"VEC2"},{"bufferView":143,"componentType":5122,"count":7560,"normalized":true,"type":"VEC2"},{"bufferView":144,"componentType":5122,"count":864,"normalized":true,"type":"VEC2"},{"bufferView":145,"componentType":5122,"count":3680,"normalized":true,"type":"VEC2"},{"bufferView":146,"componentType":5122,"count":4758,"normalized":true,"type":"VEC2"},{"bufferView":147,"componentType":5122,"count":5505,"normalized":true,"type":"VEC2"},{"bufferView":148,"componentType":5122,"count":570,"normalized":true,"type":"VEC2"},{"bufferView":149,"componentType":5122,"count":2823,"normalized":true,"type":"VEC2"},{"bufferView":150,"componentType":5122,"count":3936,"normalized":true,"type":"VEC2"},{"bufferView":151,"componentType":5122,"count":747,"normalized":true,"type":"VEC2"},{"bufferView":152,"componentType":5122,"count":130,"normalized":true,"type":"VEC2"},{"bufferView":153,"componentType":5122,"count":3104,"normalized":true,"type":"VEC2"},{"bufferView":154,"componentType":5122,"count":96,"normalized":true,"type":"VEC2"},{"bufferView":155,"componentType":5122,"count":2208,"normalized":true,"type":"VEC2"},{"bufferView":156,"componentType":5122,"count":666,"normalized":true,"type":"VEC2"},{"bufferView":157,"componentType":5122,"count":114,"normalized":true,"type":"VEC2"},{"bufferView":158,"componentType":5122,"count":3024,"normalized":true,"type":"VEC2"},{"bufferView":159,"componentType":5122,"count":16,"normalized":true,"type":"VEC2"},{"bufferView":160,"componentType":5122,"count":856,"normalized":true,"type":"VEC2"},{"bufferView":161,"componentType":5122,"count":334,"normalized":true,"type":"VEC2"},{"bufferView":162,"componentType":5122,"count":504,"normalized":true,"type":"VEC2"},{"bufferView":163,"componentType":5122,"count":2070,"normalized":true,"type":"VEC2"},{"bufferView":164,"componentType":5122,"count":892,"normalized":true,"type":"VEC2"},{"bufferView":165,"componentType":5122,"count":228,"normalized":true,"type":"VEC2"},{"bufferView":166,"componentType":5122,"count":612,"normalized":true,"type":"VEC2"},{"bufferView":167,"componentType":5122,"count":342,"normalized":true,"type":"VEC2"},{"bufferView":168,"componentType":5122,"count":105,"normalized":true,"type":"VEC2"},{"bufferView":169,"componentType":5122,"count":66,"normalized":true,"type":"VEC2"}],"asset":{"generator":"evermore assetgen","version":"2.0"},"bufferViews":[{"buffer":0,"byteLength":6912,"byteOffset":0,"byteStride":8,"target":34962},{"buffer":0,"byteLength":3456,"byteOffset":6912,"byteStride":4,"target":34962},{"buffer":0,"byteLength":2496,"byteOffset":10368,"target":34963},{"buffer":0,"byteLength":576,"byteOffset":12864,"byteStride":8,"target":34962},{"buffer":0,"byteLength":288,"byteOffset":13440,"byteStride":4,"target":34962},{"buffer":0,"byteLength":216,"byteOffset":13728,"target":34963},{"buffer":0,"byteLength":87936,"byteOffset":13944,"byteStride":8,"target":34962},{"buffer":0,"byteLength":43968,"byteOffset":101880,"byteStride":4,"target":34962},{"buffer":0,"byteLength":34704,"byteOffset":145848,"target":34963},{"buffer":0,"byteLength":480,"byteOffset":180552,"byteStride":8,"target":34962},{"buffer":0,"byteLength":240,"byteOffset":181032,"byteStride":4,"target":34962},{"buffer":0,"byteLength":168,"byteOffset":181272,"target":34963},{"buffer":0,"byteLength":4704,"byteOffset":181440,"byteStride":8,"target":34962},{"buffer":0,"byteLength":2352,"byteOffset":186144,"byteStride":4,"target":34962},{"buffer":0,"byteLength":1176,"byteOffset":188496,"target":34963},{"buffer":0,"byteLength":384,"byteOffset":189672,"byteStride":8,"target":34962},{"buffer":0,"byteLength":192,"byteOffset":190056,"byteStride":4,"target":34962},{"buffer":0,"byteLength":96,"byteOffset":190248,"target":34963},{"buffer":0,"byteLength":63240,"byteOffset":190344,"byteStride":8,"target":34962},{"buffer":0,"byteLength":31620,"byteOffset":253584,"byteStride":4,"target":34962},{"buffer":0,"byteLength":15810,"byteOffset":285204,"target":34963},{"buffer":0,"byteLength":288,"byteOffset":301016,"byteStride":8,"target":34962},{"buffer":0,"byteLength":144,"byteOffset":301304,"byteStride":4,"target":34962},{"buffer":0,"byteLength":72,"byteOffset":301448,"target":34963},{"buffer":0,"byteLength":192,"byteOffset":301520,"byteStride":8,"target":34962},{"buffer":0,"byteLength":96,"byteOffset":301712,"byteStride":4,"target":34962},{"buffer":0,"byteLength":48,"byteOffset":301808,"target":34963},{"buffer":0,"byteLength":19632,"byteOffset":301856,"byteStride":8,"target":34962},{"buffer":0,"byteLength":9816,"byteOffset":321488,"byteStride":4,"target":34962},{"buffer":0,"byteLength":4908,"byteOffset":331304,"target":34963},{"buffer":0,"byteLength":1440,"byteOffset":336212,"byteStride":8,"target":34962},{"buffer":0,"byteLength":720,"byteOffset":337652,"byteStride":4,"target":34962},{"buffer":0,"byteLength":360,"byteOffset":338372,"target":34963},{"buffer":0,"byteLength":3816,"byteOffset":338732,"byteStride":8,"target":34962},{"buffer":0,"byteLength":1908,"byteOffset":342548,"byteStride":4,"target":34962},{"buffer":0,"byteLength":954,"byteOffset":344456,"target":34963},{"buffer":0,"byteLength":480,"byteOffset":345412,"byteStride":8,"target":34962},{"buffer":0,"byteLength":240,"byteOffset":345892,"byteStride":4,"target":34962},{"buffer":0,"byteLength":120,"byteOffset":346132,"target":34963},{"buffer":0,"byteLength":59312,"byteOffset":346252,"byteStride":8,"target":34962},{"buffer":0,"byteLength":29656,"byteOffset":405564,"byteStride":4,"target":34962},{"buffer":0,"byteLength":22044,"byteOffset":435220,"target":34963},{"buffer":0,"byteLength":60480,"byteOffset":457264,"byteStride":8,"target":34962},{"buffer":0,"byteLength":30240,"byteOffset":517744,"byteStride":4,"target":34962},{"buffer":0,"byteLength":25104,"byteOffset":547984,"target":34963},{"buffer":0,"byteLength":6912,"byteOffset":573088,"byteStride":8,"target":34962},{"buffer":0,"byteLength":3456,"byteOffset":580000,"byteStride":4,"target":34962},{"buffer":0,"byteLength":2376,"byteOffset":583456,"target":34963},{"buffer":0,"byteLength":29440,"byteOffset":585832,"byteStride":8,"target":34962},{"buffer":0,"byteLength":14720,"byteOffset":615272,"byteStride":4,"target":34962},{"buffer":0,"byteLength":11328,"byteOffset":629992,"target":34963},{"buffer":0,"byteLength":38064,"byteOffset":641320,"byteStride":8,"target":34962},{"buffer":0,"byteLength":19032,"byteOffset":679384,"byteStride":4,"target":34962},{"buffer":0,"byteLength":9516,"byteOffset":698416,"target":34963},{"buffer":0,"byteLength":44040,"byteOffset":707932,"byteStride":8,"target":34962},{"buffer":0,"byteLength":22020,"byteOffset":751972,"byteStride":4,"target":34962},{"buffer":0,"byteLength":11010,"byteOffset":773992,"target":34963},{"buffer":0,"byteLength":4560,"byteOffset":785004,"byteStride":8,"target":34962},{"buffer":0,"byteLength":2280,"byteOffset":789564,"byteStride":4,"target":34962},{"buffer":0,"byteLength":1140,"byteOffset":791844,"target":34963},{"buffer":0,"byteLength":22584,"byteOffset":792984,"byteStride":8,"target":34962},{"buffer":0,"byteLength":11292,"byteOffset":815568,"byteStride":4,"target":34962},{"buffer":0,"byteLength":5646,"byteOffset":826860,"target":34963},{"buffer":0,"byteLength":31488,"byteOffset":832508,"byteStride":8,"target":34962},{"buffer":0,"byteLength":15744,"byteOffset":863996,"byteStride":4,"target":34962},{"buffer":0,"byteLength":7872,"byteOffset":879740,"target":34963},{"buffer":0,"byteLength":5976,"byteOffset":887612,"byteStride":8,"target":34962},{"buffer":0,"byteLength":2988,"byteOffset":893588,"byteStride":4,"target":34962},{"buffer":0,"byteLength":1494,"byteOffset":896576,"target":34963},{"buffer":0,"byteLength":1040,"byteOffset":898072,"byteStride":8,"target":34962},{"buffer":0,"byteLength":520,"byteOffset":899112,"byteStride":4,"target":34962},{"buffer":0,"byteLength":408,"byteOffset":899632,"target":34963},{"buffer":0,"byteLength":24832,"byteOffset":900040,"byteStride":8,"target":34962},{"buffer":0,"byteLength":12416,"byteOffset":924872,"byteStride":4,"target":34962},{"buffer":0,"byteLength":10200,"byteOffset":937288,"target":34963},{"buffer":0,"byteLength":768,"byteOffset":947488,"byteStride":8,"target":34962},{"buffer":0,"byteLength":384,"byteOffset":948256,"byteStride":4,"target":34962},{"buffer":0,"byteLength":192,"byteOffset":948640,"target":34963},{"buffer":0,"byteLength":17664,"byteOffset":948832,"byteStride":8,"target":34962},{"buffer":0,"byteLength":8832,"byteOffset":966496,"byteStride":4,"target":34962},{"buffer":0,"byteLength":4416,"byteOffset":975328,"target":34963},{"buffer":0,"byteLength":5328,"byteOffset":979744,"byteStride":8,"target":34962},{"buffer":0,"byteLength":2664,"byteOffset":985072,"byteStride":4,"target":34962},{"buffer":0,"byteLength":1332,"byteOffset":987736,"target":34963},{"buffer":0,"byteLength":912,"byteOffset":989068,"byteStride":8,"target":34962},{"buffer":0,"byteLength":456,"byteOffset":989980,"byteStride":4,"target":34962},{"buffer":0,"byteLength":228,"byteOffset":990436,"target":34963},{"buffer":0,"byteLength":24192,"byteOffset":990664,"byteStride":8,"target":34962},{"buffer":0,"byteLength":12096,"byteOffset":1014856,"byteStride":4,"target":34962},{"buffer":0,"byteLength":8940,"byteOffset":1026952,"target":34963},{"buffer":0,"byteLength":128,"byteOffset":1035892,"byteStride":8,"target":34962},{"buffer":0,"byteLength":64,"byteOffset":1036020,"byteStride":4,"target":34962},{"buffer":0,"byteLength":48,"byteOffset":1036084,"target":34963},{"buffer":0,"byteLength":6848,"byteOffset":1036132,"byteStride":8,"target":34962},{"buffer":0,"byteLength":3424,"byteOffset":1042980,"byteStride":4,"target":34962},{"buffer":0,"byteLength":3424,"byteOffset":1046404,"byteStride":4,"target":34962},{"buffer":0,"byteLength":2544,"byteOffset":1049828,"target":34963},{"buffer":0,"byteLength":2672,"byteOffset":1052372,"byteStride":8,"target":34962},{"buffer":0,"byteLength":1336,"byteOffset":1055044,"byteStride":4,"target":34962},{"buffer":0,"byteLength":1336,"byteOffset":1056380,"byteStride":4,"target":34962},{"buffer":0,"byteLength":1020,"byteOffset":1057716,"target":34963},{"buffer":0,"byteLength":4032,"byteOffset":1058736,"byteStride":8,"target":34962},{"buffer":0,"byteLength":2016,"byteOffset":1062768,"byteStride":4,"target":34962},{"buffer":0,"byteLength":1344,"byteOffset":1064784,"target":34963},{"buffer":0,"byteLength":16560,"byteOffset":1066128,"byteStride":8,"target":34962},{"buffer":0,"byteLength":8280,"byteOffset":1082688,"byteStride":4,"target":34962},{"buffer":0,"byteLength":4140,"byteOffset":1090968,"target":34963},{"buffer":0,"byteLength":7136,"byteOffset":1095108,"byteStride":8,"target":34962},{"buffer":0,"byteLength":3568,"byteOffset":1102244,"byteStride":4,"target":34962},{"buffer":0,"byteLength":3568,"byteOffset":1105812,"byteStride":4,"target":34962},{"buffer":0,"byteLength":1800,"byteOffset":1109380,"target":34963},{"buffer":0,"byteLength":1824,"byteOffset":1111180,"byteStride":8,"target":34962},{"buffer":0,"byteLength":912,"byteOffset":1113004,"byteStride":4,"target":34962},{"buffer":0,"byteLength":912,"byteOffset":1113916,"byteStride":4,"target":34962},{"buffer":0,"byteLength":456,"byteOffset":1114828,"target":34963},{"buffer":0,"byteLength":4896,"byteOffset":1115284,"byteStride":8,"target":34962},{"buffer":0,"byteLength":2448,"byteOffset":1120180,"byteStride":4,"target":34962},{"buffer":0,"byteLength":1224,"byteOffset":1122628,"target":34963},{"buffer":0,"byteLength":2736,"byteOffset":1123852,"byteStride":8,"target":34962},{"buffer":0,"byteLength":1368,"byteOffset":1126588,"byteStride":4,"target":34962},{"buffer":0,"byteLength":1368,"byteOffset":1127956,"byteStride":4,"target":34962},{"buffer":0,"byteLength":684,"byteOffset":1129324,"target":34963},{"buffer":0,"byteLength":840,"byteOffset":1130008,"byteStride":8,"target":34962},{"buffer":0,"byteLength":420,"byteOffset":1130848,"byteStride":4,"target":34962},{"buffer":0,"byteLength":210,"byteOffset":1131268,"target":34963},{"buffer":0,"byteLength":528,"byteOffset":1131480,"byteStride":8,"target":34962},{"buffer":0,"byteLength":264,"byteOffset":1132008,"byteStride":4,"target":34962},{"buffer":0,"byteLength":264,"byteOffset":1132272,"byteStride":4,"target":34962},{"buffer":0,"byteLength":132,"byteOffset":1132536,"target":34963},{"buffer":0,"byteLength":3456,"byteOffset":1132668,"byteStride":4,"target":34962},{"buffer":0,"byteLength":288,"byteOffset":1136124,"byteStride":4,"target":34962},{"buffer":0,"byteLength":43968,"byteOffset":1136412,"byteStride":4,"target":34962},{"buffer":0,"byteLength":240,"byteOffset":1180380,"byteStride":4,"target":34962},{"buffer":0,"byteLength":2352,"byteOffset":1180620,"byteStride":4,"target":34962},{"buffer":0,"byteLength":192,"byteOffset":1182972,"byteStride":4,"target":34962},{"buffer":0,"byteLength":31620,"byteOffset":1183164,"byteStride":4,"target":34962},{"buffer":0,"byteLength":144,"byteOffset":1214784,"byteStride":4,"target":34962},{"buffer":0,"byteLength":96,"byteOffset":1214928,"byteStride":4,"target":34962},{"buffer":0,"byteLength":9816,"byteOffset":1215024,"byteStride":4,"target":34962},{"buffer":0,"byteLength":720,"byteOffset":1224840,"byteStride":4,"target":34962},{"buffer":0,"byteLength":1908,"byteOffset":1225560,"byteStride":4,"target":34962},{"buffer":0,"byteLength":240,"byteOffset":1227468,"byteStride":4,"target":34962},{"buffer":0,"byteLength":29656,"byteOffset":1227708,"byteStride":4,"target":34962},{"buffer":0,"byteLength":30240,"byteOffset":1257364,"byteStride":4,"target":34962},{"buffer":0,"byteLength":3456,"byteOffset":1287604,"byteStride":4,"target":34962},{"buffer":0,"byteLength":14720,"byteOffset":1291060,"byteStride":4,"target":34962},{"buffer":0,"byteLength":19032,"byteOffset":1305780,"byteStride":4,"target":34962},{"buffer":0,"byteLength":22020,"byteOffset":1324812,"byteStride":4,"target":34962},{"buffer":0,"byteLength":2280,"byteOffset":1346832,"byteStride":4,"target":34962},{"buffer":0,"byteLength":11292,"byteOffset":1349112,"byteStride":4,"target":34962},{"buffer":0,"byteLength":15744,"byteOffset":1360404,"byteStride":4,"target":34962},{"buffer":0,"byteLength":2988,"byteOffset":1376148,"byteStride":4,"target":34962},{"buffer":0,"byteLength":520,"byteOffset":1379136,"byteStride":4,"target":34962},{"buffer":0,"byteLength":12416,"byteOffset":1379656,"byteStride":4,"target":34962},{"buffer":0,"byteLength":384,"byteOffset":1392072,"byteStride":4,"target":34962},{"buffer":0,"byteLength":8832,"byteOffset":1392456,"byteStride":4,"target":34962},{"buffer":0,"byteLength":2664,"byteOffset":1401288,"byteStride":4,"target":34962},{"buffer":0,"byteLength":456,"byteOffset":1403952,"byteStride":4,"target":34962},{"buffer":0,"byteLength":12096,"byteOffset":1404408,"byteStride":4,"target":34962},{"buffer":0,"byteLength":64,"byteOffset":1416504,"byteStride":4,"target":34962},{"buffer":0,"byteLength":3424,"byteOffset":1416568,"byteStride":4,"target":34962},{"buffer":0,"byteLength":1336,"byteOffset":1419992,"byteStride":4,"target":34962},{"buffer":0,"byteLength":2016,"byteOffset":1421328,"byteStride":4,"target":34962},{"buffer":0,"byteLength":8280,"byteOffset":1423344,"byteStride":4,"target":34962},{"buffer":0,"byteLength":3568,"byteOffset":1431624,"byteStride":4,"target":34962},{"buffer":0,"byteLength":912,"byteOffset":1435192,"byteStride":4,"target":34962},{"buffer":0,"byteLength":2448,"byteOffset":1436104,"byteStride":4,"target":34962},{"buffer":0,"byteLength":1368,"byteOffset":1438552,"byteStride":4,"target":34962},{"buffer":0,"byteLength":420,"byteOffset":1439920,"byteStride":4,"target":34962},{"buffer":0,"byteLength":264,"byteOffset":1440340,"byteStride":4,"target":34962}],"buffers":[{"byteLength":1440604,"uri":"wellhouse.bin"}],"extensionsRequired":["KHR_mesh_quantization","KHR_texture_transform"],"extensionsUsed":["KHR_mesh_quantization","KHR_texture_transform","MSFT_lod"],"extras":{"hm":{"batching":true,"cellSize":16.0,"cells":[{"cullAt":null,"interior":null,"key":"0_0","lodPrims":[4,4,3,2],"lodTris":[6264,2859,886,179],"max":[3.813,5.539,3.994],"min":[-3.813,-2.8,-3.994]},{"cullAt":null,"interior":null,"key":"0_n1","lodPrims":[4,4,1,1],"lodTris":[10142,4552,1312,249],"max":[5.889,6.099,3.848],"min":[-3.848,-0.1,-4.409]},{"cullAt":null,"interior":null,"key":"n1_0","lodPrims":[2,2,1,1],"lodTris":[1768,768,222,38],"max":[-0.463,0.994,2.302],"min":[-3.608,0.316,0.167]},{"cullAt":null,"interior":null,"key":"n1_n1","lodPrims":[5,3,2,2],"lodTris":[2316,1066,318,57],"max":[3.791,5.584,3.972],"min":[-3.791,-2.55,-4.4]}],"instanced":[],"instancing":true,"interiors":[],"lod":true,"lodDistances":[15.0,40.0,100.0],"stats":{"groups":4,"lodPrims":[15,13,7,6],"lodTris":[20490,9245,2738,523]},"venue":"wellhouse"}},"images":[{"uri":"../textures/stone_albedo.png"},{"uri":"../textures/stone_orm.png"},{"uri":"../textures/stone_normal.png"},{"uri":"../textures/sett_albedo.png"},{"uri":"../textures/sett_orm.png"},{"uri":"../textures/sett_normal.png"},{"uri":"../textures/kit_albedo.png"},{"uri":"../textures/kit_orm.png"},{"uri":"../textures/kit_normal.png"},{"uri":"../textures/ashlar_albedo.png"},{"uri":"../textures/ashlar_orm.png"},{"uri":"../textures/ashlar_normal.png"},{"uri":"../textures/cobble_wall_albedo.png"},{"uri":"../textures/cobble_wall_orm.png"},{"uri":"../textures/cobble_wall_normal.png"},{"uri":"../textures/water_albedo.png"},{"uri":"../textures/water_orm.png"},{"uri":"../textures/water_normal.png"},{"uri":"../textures/alabaster_albedo.png"},{"uri":"../textures/alabaster_orm.png"},{"uri":"../textures/alabaster_normal.png"},{"uri":"../textures/oak_dark_albedo.png"},{"uri":"../textures/oak_dark_orm.png"},{"uri":"../textures/oak_dark_normal.png"},{"uri":"../textures/terracotta_albedo.png"},{"uri":"../textures/terracotta_orm.png"},{"uri":"../textures/terracotta_normal.png"},{"uri":"../textures/algae_albedo.png"},{"uri":"../textures/algae_orm.png"},{"uri":"../textures/algae_normal.png"},{"uri":"../textures/mud_wet_albedo.png"},{"uri":"../textures/mud_wet_orm.png"},{"uri":"../textures/mud_wet_normal.png"},{"uri":"../textures/moss_albedo.png"},{"uri":"../textures/moss_orm.png"},{"uri":"../textures/moss_normal.png"},{"uri":"../textures/weeds_albedo.png"},{"uri":"../textures/weeds_orm.png"},{"uri":"../textures/weeds_normal.png"}],"materials":[{"doubleSided":false,"name":"stone","normalTexture":{"extensions":{"KHR_texture_transform":{"scale":[7.47721874798441,7.47721874798441]}},"index":2,"scale":1.0},"occlusionTexture":{"extensions":{"KHR_texture_transform":{"scale":[7.47721874798441,7.47721874798441]}},"index":1},"pbrMetallicRoughness":{"baseColorFactor":[1,1,1,1],"baseColorTexture":{"extensions":{"KHR_texture_transform":{"scale":[7.47721874798441,7.47721874798441]}},"index":0},"metallicFactor":1.0,"metallicRoughnessTexture":{"extensions":{"KHR_texture_transform":{"scale":[7.47721874798441,7.47721874798441]}},"index":1},"roughnessFactor":1.0}},{"doubleSided":false,"name":"sett","normalTexture":{"extensions":{"KHR_texture_transform":{"scale":[7.47721874798441,7.47721874798441]}},"index":5,"scale":1.0},"occlusionTexture":{"extensions":{"KHR_texture_transform":{"scale":[7.47721874798441,7.47721874798441]}},"index":4},"pbrMetallicRoughness":{"baseColorFactor":[1,1,1,1],"baseColorTexture":{"extensions":{"KHR_texture_transform":{"scale":[7.47721874798441,7.47721874798441]}},"index":3},"metallicFactor":1.0,"metallicRoughnessTexture":{"extensions":{"KHR_texture_transform":{"scale":[7.47721874798441,7.47721874798441]}},"index":4},"roughnessFactor":1.0}},{"doubleSided":true,"name":"kit","normalTexture":{"extensions":{"KHR_texture_transform":{"scale":[7.47721874798441,7.47721874798441]}},"index":8,"scale":1.0},"occlusionTexture":{"extensions":{"KHR_texture_transform":{"scale":[7.47721874798441,7.47721874798441]}},"index":7},"pbrMetallicRoughness":{"baseColorFactor":[1,1,1,1],"baseColorTexture":{"extensions":{"KHR_texture_transform":{"scale":[7.47721874798441,7.47721874798441]}},"index":6},"metallicFactor":1.0,"metallicRoughnessTexture":{"extensions":{"KHR_texture_transform":{"scale":[7.47721874798441,7.47721874798441]}},"index":7},"roughnessFactor":1.0}},{"doubleSided":false,"name":"ashlar","normalTexture":{"extensions":{"KHR_texture_transform":{"scale":[7.47721874798441,7.47721874798441]}},"index":11,"scale":1.0},"occlusionTexture":{"extensions":{"KHR_texture_transform":{"scale":[7.47721874798441,7.47721874798441]}},"index":10},"pbrMetallicRoughness":{"baseColorFactor":[1,1,1,1],"baseColorTexture":{"extensions":{"KHR_texture_transform":{"scale":[7.47721874798441,7.47721874798441]}},"index":9},"metallicFactor":1.0,"metallicRoughnessTexture":{"extensions":{"KHR_texture_transform":{"scale":[7.47721874798441,7.47721874798441]}},"index":10},"roughnessFactor":1.0}},{"doubleSided":false,"name":"cobble_wall","normalTexture":{"extensions":{"KHR_texture_transform":{"scale":[7.47721874798441,7.47721874798441]}},"index":14,"scale":1.0},"occlusionTexture":{"extensions":{"KHR_texture_transform":{"scale":[7.47721874798441,7.47721874798441]}},"index":13},"pbrMetallicRoughness":{"baseColorFactor":[1,1,1,1],"baseColorTexture":{"extensions":{"KHR_texture_transform":{"scale":[7.47721874798441,7.47721874798441]}},"index":12},"metallicFactor":1.0,"metallicRoughnessTexture":{"extensions":{"KHR_texture_transform":{"scale":[7.47721874798441,7.47721874798441]}},"index":13},"roughnessFactor":1.0}},{"alphaMode":"BLEND","doubleSided":false,"name":"water","normalTexture":{"extensions":{"KHR_texture_transform":{"scale":[7.47721874798441,7.47721874798441]}},"index":17,"scale":1.0},"occlusionTexture":{"extensions":{"KHR_texture_transform":{"scale":[7.47721874798441,7.47721874798441]}},"index":16},"pbrMetallicRoughness":{"baseColorFactor":[1,1,1,1],"baseColorTexture":{"extensions":{"KHR_texture_transform":{"scale":[7.47721874798441,7.47721874798441]}},"index":15},"metallicFactor":1.0,"metallicRoughnessTexture":{"extensions":{"KHR_texture_transform":{"scale":[7.47721874798441,7.47721874798441]}},"index":16},"roughnessFactor":1.0}},{"doubleSided":false,"name":"alabaster","normalTexture":{"extensions":{"KHR_texture_transform":{"scale":[7.47721874798441,7.47721874798441]}},"index":20,"scale":1.0},"occlusionTexture":{"extensions":{"KHR_texture_transform":{"scale":[7.47721874798441,7.47721874798441]}},"index":19},"pbrMetallicRoughness":{"baseColorFactor":[1,1,1,1],"baseColorTexture":{"extensions":{"KHR_texture_transform":{"scale":[7.47721874798441,7.47721874798441]}},"index":18},"metallicFactor":1.0,"metallicRoughnessTexture":{"extensions":{"KHR_texture_transform":{"scale":[7.47721874798441,7.47721874798441]}},"index":19},"roughnessFactor":1.0}},{"doubleSided":false,"name":"oak_dark","normalTexture":{"extensions":{"KHR_texture_transform":{"scale":[7.47721874798441,7.47721874798441]}},"index":23,"scale":1.0},"occlusionTexture":{"extensions":{"KHR_texture_transform":{"scale":[7.47721874798441,7.47721874798441]}},"index":22},"pbrMetallicRoughness":{"baseColorFactor":[1,1,1,1],"baseColorTexture":{"extensions":{"KHR_texture_transform":{"scale":[7.47721874798441,7.47721874798441]}},"index":21},"metallicFactor":1.0,"metallicRoughnessTexture":{"extensions":{"KHR_texture_transform":{"scale":[7.47721874798441,7.47721874798441]}},"index":22},"roughnessFactor":1.0}},{"doubleSided":false,"name":"terracotta","normalTexture":{"extensions":{"KHR_texture_transform":{"scale":[7.47721874798441,7.47721874798441]}},"index":26,"scale":1.0},"occlusionTexture":{"extensions":{"KHR_texture_transform":{"scale":[7.47721874798441,7.47721874798441]}},"index":25},"pbrMetallicRoughness":{"baseColorFactor":[1,1,1,1],"baseColorTexture":{"extensions":{"KHR_texture_transform":{"scale":[7.47721874798441,7.47721874798441]}},"index":24},"metallicFactor":1.0,"metallicRoughnessTexture":{"extensions":{"KHR_texture_transform":{"scale":[7.47721874798441,7.47721874798441]}},"index":25},"roughnessFactor":1.0}},{"doubleSided":false,"name":"algae","normalTexture":{"extensions":{"KHR_texture_transform":{"scale":[7.47721874798441,7.47721874798441]}},"index":29,"scale":1.0},"occlusionTexture":{"extensions":{"KHR_texture_transform":{"scale":[7.47721874798441,7.47721874798441]}},"index":28},"pbrMetallicRoughness":{"baseColorFactor":[1,1,1,1],"baseColorTexture":{"extensions":{"KHR_texture_transform":{"scale":[7.47721874798441,7.47721874798441]}},"index":27},"metallicFactor":1.0,"metallicRoughnessTexture":{"extensions":{"KHR_texture_transform":{"scale":[7.47721874798441,7.47721874798441]}},"index":28},"roughnessFactor":1.0}},{"doubleSided":false,"name":"mud_wet","normalTexture":{"extensions":{"KHR_texture_transform":{"scale":[7.47721874798441,7.47721874798441]}},"index":32,"scale":1.0},"occlusionTexture":{"extensions":{"KHR_texture_transform":{"scale":[7.47721874798441,7.47721874798441]}},"index":31},"pbrMetallicRoughness":{"baseColorFactor":[1,1,1,1],"baseColorTexture":{"extensions":{"KHR_texture_transform":{"scale":[7.47721874798441,7.47721874798441]}},"index":30},"metallicFactor":1.0,"metallicRoughnessTexture":{"extensions":{"KHR_texture_transform":{"scale":[7.47721874798441,7.47721874798441]}},"index":31},"roughnessFactor":1.0}},{"doubleSided":false,"name":"moss","normalTexture":{"extensions":{"KHR_texture_transform":{"scale":[7.47721874798441,7.47721874798441]}},"index":35,"scale":1.0},"occlusionTexture":{"extensions":{"KHR_texture_transform":{"scale":[7.47721874798441,7.47721874798441]}},"index":34},"pbrMetallicRoughness":{"baseColorFactor":[1,1,1,1],"baseColorTexture":{"extensions":{"KHR_texture_transform":{"scale":[7.47721874798441,7.47721874798441]}},"index":33},"metallicFactor":1.0,"metallicRoughnessTexture":{"extensions":{"KHR_texture_transform":{"scale":[7.47721874798441,7.47721874798441]}},"index":34},"roughnessFactor":1.0}},{"alphaCutoff":0.5,"alphaMode":"MASK","doubleSided":true,"name":"weeds","normalTexture":{"extensions":{"KHR_texture_transform":{"scale":[7.47721874798441,7.47721874798441]}},"index":38,"scale":1.0},"occlusionTexture":{"extensions":{"KHR_texture_transform":{"scale":[7.47721874798441,7.47721874798441]}},"index":37},"pbrMetallicRoughness":{"baseColorFactor":[1,1,1,1],"baseColorTexture":{"extensions":{"KHR_texture_transform":{"scale":[7.47721874798441,7.47721874798441]}},"index":36},"metallicFactor":1.0,"metallicRoughnessTexture":{"extensions":{"KHR_texture_transform":{"scale":[7.47721874798441,7.47721874798441]}},"index":37},"roughnessFactor":1.0}}],"meshes":[{"name":"wellhouse#0_0","primitives":[{"attributes":{"NORMAL":1,"POSITION":0,"TEXCOORD_0":129},"indices":2,"material":3},{"attributes":{"NORMAL":4,"POSITION":3,"TEXCOORD_0":130},"indices":5,"material":4},{"attributes":{"NORMAL":7,"POSITION":6,"TEXCOORD_0":131},"indices":8,"material":2},{"attributes":{"NORMAL":10,"POSITION":9,"TEXCOORD_0":132},"indices":11,"material":7}]},{"name":"wellhouse#0_0$lod1","primitives":[{"attributes":{"NORMAL":13,"POSITION":12,"TEXCOORD_0":133},"indices":14,"material":3},{"attributes":{"NORMAL":16,"POSITION":15,"TEXCOORD_0":134},"indices":17,"material":4},{"attributes":{"NORMAL":19,"POSITION":18,"TEXCOORD_0":135},"indices":20,"material":2},{"attributes":{"NORMAL":22,"POSITION":21,"TEXCOORD_0":136},"indices":23,"material":7}]},{"name":"wellhouse#0_0$lod2","primitives":[{"attributes":{"NORMAL":25,"POSITION":24,"TEXCOORD_0":137},"indices":26,"material":4},{"attributes":{"NORMAL":28,"POSITION":27,"TEXCOORD_0":138},"indices":29,"material":2},{"attributes":{"NORMAL":31,"POSITION":30,"TEXCOORD_0":139},"indices":32,"material":7}]},{"name":"wellhouse#0_0$lod3","primitives":[{"attributes":{"NORMAL":34,"POSITION":33,"TEXCOORD_0":140},"indices":35,"material":2},{"attributes":{"NORMAL":37,"POSITION":36,"TEXCOORD_0":141},"indices":38,"material":7}]},{"name":"wellhouse#0_n1","primitives":[{"attributes":{"NORMAL":40,"POSITION":39,"TEXCOORD_0":142},"indices":41,"material":2},{"attributes":{"NORMAL":43,"POSITION":42,"TEXCOORD_0":143},"indices":44,"material":10},{"attributes":{"NORMAL":46,"POSITION":45,"TEXCOORD_0":144},"indices":47,"material":1},{"attributes":{"NORMAL":49,"POSITION":48,"TEXCOORD_0":145},"indices":50,"material":0}]},{"name":"wellhouse#0_n1$lod1","primitives":[{"attributes":{"NORMAL":52,"POSITION":51,"TEXCOORD_0":146},"indices":53,"material":2},{"attributes":{"NORMAL":55,"POSITION":54,"TEXCOORD_0":147},"indices":56,"material":10},{"attributes":{"NORMAL":58,"POSITION":57,"TEXCOORD_0":148},"indices":59,"material":1},{"attributes":{"NORMAL":61,"POSITION":60,"TEXCOORD_0":149},"indices":62,"material":0}]},{"name":"wellhouse#0_n1$lod2","primitives":[{"attributes":{"NORMAL":64,"POSITION":63,"TEXCOORD_0":150},"indices":65,"material":0}]},{"name":"wellhouse#0_n1$lod3","primitives":[{"attributes":{"NORMAL":67,"POSITION":66,"TEXCOORD_0":151},"indices":68,"material":0}]},{"name":"wellhouse#n1_0","primitives":[{"attributes":{"NORMAL":70,"POSITION":69,"TEXCOORD_0":152},"indices":71,"material":6},{"attributes":{"NORMAL":73,"POSITION":72,"TEXCOORD_0":153},"indices":74,"material":9}]},{"name":"wellhouse#n1_0$lod1","primitives":[{"attributes":{"NORMAL":76,"POSITION":75,"TEXCOORD_0":154},"indices":77,"material":6},{"attributes":{"NORMAL":79,"POSITION":78,"TEXCOORD_0":155},"indices":80,"material":9}]},{"name":"wellhouse#n1_0$lod2","primitives":[{"attributes":{"NORMAL":82,"POSITION":81,"TEXCOORD_0":156},"indices":83,"material":9}]},{"name":"wellhouse#n1_0$lod3","primitives":[{"attributes":{"NORMAL":85,"POSITION":84,"TEXCOORD_0":157},"indices":86,"material":9}]},{"name":"wellhouse#n1_n1","primitives":[{"attributes":{"NORMAL":88,"POSITION":87,"TEXCOORD_0":158},"indices":89,"material":2},{"attributes":{"NORMAL":91,"POSITION":90,"TEXCOORD_0":159},"indices":92,"material":11},{"attributes":{"COLOR_0":95,"NORMAL":94,"POSITION":93,"TEXCOORD_0":160},"indices":96,"material":8},{"attributes":{"COLOR_0":99,"NORMAL":98,"POSITION":97,"TEXCOORD_0":161},"indices":100,"material":5},{"attributes":{"NORMAL":102,"POSITION":101,"TEXCOORD_0":162},"indices":103,"material":12}]},{"name":"wellhouse#n1_n1$lod1","primitives":[{"attributes":{"NORMAL":105,"POSITION":104,"TEXCOORD_0":163},"indices":106,"material":2},{"attributes":{"COLOR_0":109,"NORMAL":108,"POSITION":107,"TEXCOORD_0":164},"indices":110,"material":8},{"attributes":{"COLOR_0":113,"NORMAL":112,"POSITION":111,"TEXCOORD_0":165},"indices":114,"material":5}]},{"name":"wellhouse#n1_n1$lod2","primitives":[{"attributes":{"NORMAL":116,"POSITION":115,"TEXCOORD_0":166},"indices":117,"material":2},{"attributes":{"COLOR_0":120,"NORMAL":119,"POSITION":118,"TEXCOORD_0":167},"indices":121,"material":8}]},{"name":"wellhouse#n1_n1$lod3","primitives":[{"attributes":{"NORMAL":123,"POSITION":122,"TEXCOORD_0":168},"indices":124,"material":2},{"attributes":{"COLOR_0":127,"NORMAL":126,"POSITION":125,"TEXCOORD_0":169},"indices":128,"material":8}]}],"nodes":[{"extensions":{"MSFT_lod":{"ids":[1,2,3]}},"extras":{"MSFT_screencoverage":[0.88613,0.3323,0.13292,0.0],"hm":{"cell":"0_0","cullAt":null,"interior":null,"lod":0,"max":[3.813,5.539,3.994],"min":[-3.813,-2.8,-3.994],"prims":4,"tris":6264,"venue":"wellhouse"}},"mesh":0,"name":"wellhouse#0_0","scale":[3.8127269744873047,4.169600009918213,3.994309902191162],"translation":[0.0,1.3695999383926392,0.0]},{"extras":{"hm":{"cell":"0_0","cullAt":null,"interior":null,"lod":1,"max":[3.813,5.539,3.994],"min":[-3.813,-2.8,-3.994],"prims":4,"tris":2859,"venue":"wellhouse"}},"mesh":1,"name":"wellhouse#0_0$lod1","scale":[3.8127269744873047,4.157089710235596,3.994309902191162],"translation":[0.0,1.357089877128601,0.0]},{"extras":{"hm":{"cell":"0_0","cullAt":null,"interior":null,"lod":2,"max":[3.813,5.539,3.994],"min":[-3.813,-2.8,-3.994],"prims":3,"tris":886,"venue":"wellhouse"}},"mesh":2,"name":"wellhouse#0_0$lod2","scale":[3.8064706325531006,4.157089710235596,3.963801860809326],"translation":[0.0,1.357089877128601,0.0]},{"extras":{"hm":{"cell":"0_0","cullAt":null,"interior":null,"lod":3,"max":[3.813,5.539,3.994],"min":[-3.813,-2.8,-3.994],"prims":2,"tris":179,"venue":"wellhouse"}},"mesh":3,"name":"wellhouse#0_0$lod3","scale":[3.7644951343536377,4.157089710235596,3.94160532951355],"translation":[0.0,1.357089877128601,0.0]},{"extensions":{"MSFT_lod":{"ids":[5,6,7]}},"extras":{"MSFT_screencoverage":[0.90883,0.34081,0.13632,0.0],"hm":{"cell":"0_n1","cullAt":null,"interior":null,"lod":0,"max":[5.889,6.099,3.848],"min":[-3.848,-0.1,-4.409],"prims":4,"tris":10142,"venue":"wellhouse"}},"mesh":4,"name":"wellhouse#0_n1","scale":[4.8689284324646,3.099599838256836,4.1288652420043945],"translation":[1.0204730033874512,2.9995999336242676,-0.280409574508667]},{"extras":{"hm":{"cell":"0_n1","cullAt":null,"interior":null,"lod":1,"max":[5.889,6.099,3.848],"min":[-3.848,-0.1,-4.409],"prims":4,"tris":4552,"venue":"wellhouse"}},"mesh":5,"name":"wellhouse#0_n1$lod1","scale":[4.8689284324646,3.099599838256836,4.1288652420043945],"translation":[1.0204730033874512,2.9995999336242676,-0.280409574508667]},{"extras":{"hm":{"cell":"0_n1","cullAt":null,"interior":null,"lod":2,"max":[5.889,6.099,3.848],"min":[-3.848,-0.1,-4.409],"prims":1,"tris":1312,"venue":"wellhouse"}},"mesh":6,"name":"wellhouse#0_n1$lod2","scale":[4.8534722328186035,3.092399835586548,4.09835147857666],"translation":[1.0273576974868774,3.0067999362945557,-0.27168571949005127]},{"extras":{"hm":{"cell":"0_n1","cullAt":null,"interior":null,"lod":3,"max":[5.889,6.099,3.848],"min":[-3.848,-0.1,-4.409],"prims":1,"tris":249,"venue":"wellhouse"}},"mesh":7,"name":"wellhouse#0_n1$lod3","scale":[4.8534722328186035,3.007999897003174,4.000614166259766],"translation":[1.0273576974868774,2.9223999977111816,-0.17394864559173584]},{"extensions":{"MSFT_lod":{"ids":[9,10,11]}},"extras":{"MSFT_screencoverage":[0.24727,0.09273,0.03709,0.0],"hm":{"cell":"n1_0","cullAt":null,"interior":null,"lod":0,"max":[-0.463,0.994,2.302],"min":[-3.608,0.316,0.167],"prims":2,"tris":1768,"venue":"wellhouse"}},"mesh":8,"name":"wellhouse#n1_0","scale":[1.5726704597473145,0.3391501307487488,1.067562460899353],"translation":[-2.035230875015259,0.6551501750946045,1.2344852685928345]},{"extras":{"hm":{"cell":"n1_0","cullAt":null,"interior":null,"lod":1,"max":[-0.463,0.994,2.302],"min":[-3.608,0.316,0.167],"prims":2,"tris":768,"venue":"wellhouse"}},"mesh":9,"name":"wellhouse#n1_0$lod1","scale":[1.5707201957702637,0.3391501307487488,1.067562460899353],"translation":[-2.0371811389923096,0.6551501750946045,1.2344852685928345]},{"extras":{"hm":{"cell":"n1_0","cullAt":null,"interior":null,"lod":2,"max":[-0.463,0.994,2.302],"min":[-3.608,0.316,0.167],"prims":1,"tris":222,"venue":"wellhouse"}},"mesh":10,"name":"wellhouse#n1_0$lod2","scale":[1.5490553379058838,0.33176666498184204,1.0651488304138184],"translation":[-2.0504469871520996,0.6487666368484497,1.2344341278076172]},{"extras":{"hm":{"cell":"n1_0","cullAt":null,"interior":null,"lod":3,"max":[-0.463,0.994,2.302],"min":[-3.608,0.316,0.167],"prims":1,"tris":38,"venue":"wellhouse"}},"mesh":11,"name":"wellhouse#n1_0$lod3","scale":[0.6090977191925049,0.0010325610637664795,0.6683054566383362],"translation":[-1.1226544380187988,0.3188352882862091,1.379903793334961]},{"extensions":{"MSFT_lod":{"ids":[13,14,15]}},"extras":{"MSFT_screencoverage":[0.89132,0.33424,0.1337,0.0],"hm":{"cell":"n1_n1","cullAt":null,"interior":null,"lod":0,"max":[3.791,5.584,3.972],"min":[-3.791,-2.55,-4.4],"prims":5,"tris":2316,"venue":"wellhouse"}},"mesh":12,"name":"wellhouse#n1_n1","scale":[3.791165828704834,4.066946983337402,4.186454772949219],"translation":[-5.245208740234375e-06,1.5169469118118286,-0.21403169631958008]},{"extras":{"hm":{"cell":"n1_n1","cullAt":null,"interior":null,"lod":1,"max":[3.791,5.584,3.972],"min":[-3.791,-2.55,-4.4],"prims":3,"tris":1066,"venue":"wellhouse"}},"mesh":13,"name":"wellhouse#n1_n1$lod1","scale":[3.706874370574951,4.066946983337402,4.177216529846191],"translation":[-0.00011730194091796875,1.5169469118118286,-0.20479321479797363]},{"extras":{"hm":{"cell":"n1_n1","cullAt":null,"interior":null,"lod":2,"max":[3.791,5.584,3.972],"min":[-3.791,-2.55,-4.4],"prims":2,"tris":318,"venue":"wellhouse"}},"mesh":14,"name":"wellhouse#n1_n1$lod2","scale":[3.6893718242645264,3.9293651580810547,4.050418376922607],"translation":[-0.0011982917785644531,1.379365086555481,-0.30676424503326416]},{"extras":{"hm":{"cell":"n1_n1","cullAt":null,"interior":null,"lod":3,"max":[3.791,5.584,3.972],"min":[-3.791,-2.55,-4.4],"prims":2,"tris":57,"venue":"wellhouse"}},"mesh":15,"name":"wellhouse#n1_n1$lod3","scale":[3.5859363079071045,3.477987289428711,4.001224517822266],"translation":[-0.0007617473602294922,0.9279872179031372,-0.25757062435150146]}],"samplers":[{"magFilter":9729,"minFilter":9987,"wrapS":10497,"wrapT":10497}],"scene":0,"scenes":[{"nodes":[0,4,8,12]}],"textures":[{"sampler":0,"source":0},{"sampler":0,"source":1},{"sampler":0,"source":2},{"sampler":0,"source":3},{"sampler":0,"source":4},{"sampler":0,"source":5},{"sampler":0,"source":6},{"sampler":0,"source":7},{"sampler":0,"source":8},{"sampler":0,"source":9},{"sampler":0,"source":10},{"sampler":0,"source":11},{"sampler":0,"source":12},{"sampler":0,"source":13},{"sampler":0,"source":14},{"sampler":0,"source":15},{"sampler":0,"source":16},{"sampler":0,"source":17},{"sampler":0,"source":18},{"sampler":0,"source":19},{"sampler":0,"source":20},{"sampler":0,"source":21},{"sampler":0,"source":22},{"sampler":0,"source":23},{"sampler":0,"source":24},{"sampler":0,"source":25},{"sampler":0,"source":26},{"sampler":0,"source":27},{"sampler":0,"source":28},{"sampler":0,"source":29},{"sampler":0,"source":30},{"sampler":0,"source":31},{"sampler":0,"source":32},{"sampler":0,"source":33},{"sampler":0,"source":34},{"sampler":0,"source":35},{"sampler":0,"source":36},{"sampler":0,"source":37},{"sampler":0,"source":38}]}